<?xml version="1.0" encoding="utf-8" standalone="no"?>
<!DOCTYPE svg PUBLIC "-//W3C//DTD SVG 1.1//EN"
  "http://www.w3.org/Graphics/SVG/1.1/DTD/svg11.dtd">
<svg xmlns:xlink="http://www.w3.org/1999/xlink" width="576pt" height="432pt" viewBox="0 0 576 432" xmlns="http://www.w3.org/2000/svg" version="1.1">
 <metadata>
  <rdf:RDF xmlns:dc="http://purl.org/dc/elements/1.1/" xmlns:cc="http://creativecommons.org/ns#" xmlns:rdf="http://www.w3.org/1999/02/22-rdf-syntax-ns#">
   <cc:Work>
    <dc:type rdf:resource="http://purl.org/dc/dcmitype/StillImage"/>
    <dc:date>2024-11-30T13:50:40.775734</dc:date>
    <dc:format>image/svg+xml</dc:format>
    <dc:creator>
     <cc:Agent>
      <dc:title>Matplotlib v3.9.2, https://matplotlib.org/</dc:title>
     </cc:Agent>
    </dc:creator>
   </cc:Work>
  </rdf:RDF>
 </metadata>
 <defs>
  <style type="text/css">*{stroke-linejoin: round; stroke-linecap: butt}</style>
 </defs>
 <g id="figure_1">
  <g id="patch_1">
   <path d="M 0 432 
L 576 432 
L 576 0 
L 0 0 
z
" style="fill: #ffffff"/>
  </g>
  <g id="axes_1">
   <g id="patch_2">
    <path d="M 72 384.48 
L 518.4 384.48 
L 518.4 51.84 
L 72 51.84 
z
" style="fill: #ffffff"/>
   </g>
   <g id="PathCollection_1">
    <defs>
     <path id="m8b01b7090d" d="M 0 1.118034 
C 0.296506 1.118034 0.580908 1.000231 0.790569 0.790569 
C 1.000231 0.580908 1.118034 0.296506 1.118034 0 
C 1.118034 -0.296506 1.000231 -0.580908 0.790569 -0.790569 
C 0.580908 -1.000231 0.296506 -1.118034 0 -1.118034 
C -0.296506 -1.118034 -0.580908 -1.000231 -0.790569 -0.790569 
C -1.000231 -0.580908 -1.118034 -0.296506 -1.118034 0 
C -1.118034 0.296506 -1.000231 0.580908 -0.790569 0.790569 
C -0.580908 1.000231 -0.296506 1.118034 0 1.118034 
z
" style="stroke: #0000ff"/>
    </defs>
    <g clip-path="url(#p72d6efa98e)">
     <use xlink:href="#m8b01b7090d" x="397.713487" y="170.905519" style="fill: #0000ff; stroke: #0000ff"/>
     <use xlink:href="#m8b01b7090d" x="361.715014" y="145.6248" style="fill: #0000ff; stroke: #0000ff"/>
     <use xlink:href="#m8b01b7090d" x="423.135794" y="137.51871" style="fill: #0000ff; stroke: #0000ff"/>
     <use xlink:href="#m8b01b7090d" x="355.878494" y="168.981236" style="fill: #0000ff; stroke: #0000ff"/>
     <use xlink:href="#m8b01b7090d" x="397.971677" y="136.39602" style="fill: #0000ff; stroke: #0000ff"/>
     <use xlink:href="#m8b01b7090d" x="368.826477" y="165.847559" style="fill: #0000ff; stroke: #0000ff"/>
     <use xlink:href="#m8b01b7090d" x="346.272337" y="191.478009" style="fill: #0000ff; stroke: #0000ff"/>
     <use xlink:href="#m8b01b7090d" x="415.278978" y="126.740481" style="fill: #0000ff; stroke: #0000ff"/>
     <use xlink:href="#m8b01b7090d" x="383.469034" y="135.686168" style="fill: #0000ff; stroke: #0000ff"/>
     <use xlink:href="#m8b01b7090d" x="399.063945" y="177.500831" style="fill: #0000ff; stroke: #0000ff"/>
     <use xlink:href="#m8b01b7090d" x="399.055299" y="122.129588" style="fill: #0000ff; stroke: #0000ff"/>
     <use xlink:href="#m8b01b7090d" x="384.770297" y="121.454754" style="fill: #0000ff; stroke: #0000ff"/>
     <use xlink:href="#m8b01b7090d" x="291.846633" y="140.292847" style="fill: #0000ff; stroke: #0000ff"/>
     <use xlink:href="#m8b01b7090d" x="389.189096" y="168.722406" style="fill: #0000ff; stroke: #0000ff"/>
     <use xlink:href="#m8b01b7090d" x="389.358612" y="211.549277" style="fill: #0000ff; stroke: #0000ff"/>
     <use xlink:href="#m8b01b7090d" x="378.158778" y="152.081282" style="fill: #0000ff; stroke: #0000ff"/>
     <use xlink:href="#m8b01b7090d" x="439.207148" y="174.283555" style="fill: #0000ff; stroke: #0000ff"/>
     <use xlink:href="#m8b01b7090d" x="356.983397" y="173.864733" style="fill: #0000ff; stroke: #0000ff"/>
     <use xlink:href="#m8b01b7090d" x="418.978646" y="152.800612" style="fill: #0000ff; stroke: #0000ff"/>
     <use xlink:href="#m8b01b7090d" x="367.00729" y="148.120737" style="fill: #0000ff; stroke: #0000ff"/>
     <use xlink:href="#m8b01b7090d" x="389.549815" y="136.571027" style="fill: #0000ff; stroke: #0000ff"/>
     <use xlink:href="#m8b01b7090d" x="360.811242" y="169.449176" style="fill: #0000ff; stroke: #0000ff"/>
     <use xlink:href="#m8b01b7090d" x="371.957574" y="198.257732" style="fill: #0000ff; stroke: #0000ff"/>
     <use xlink:href="#m8b01b7090d" x="396.707849" y="154.517577" style="fill: #0000ff; stroke: #0000ff"/>
     <use xlink:href="#m8b01b7090d" x="386.242575" y="167.088521" style="fill: #0000ff; stroke: #0000ff"/>
    </g>
   </g>
   <g id="PathCollection_2">
    <defs>
     <path id="m35fe736af4" d="M 0 1.118034 
C 0.296506 1.118034 0.580908 1.000231 0.790569 0.790569 
C 1.000231 0.580908 1.118034 0.296506 1.118034 0 
C 1.118034 -0.296506 1.000231 -0.580908 0.790569 -0.790569 
C 0.580908 -1.000231 0.296506 -1.118034 0 -1.118034 
C -0.296506 -1.118034 -0.580908 -1.000231 -0.790569 -0.790569 
C -1.000231 -0.580908 -1.118034 -0.296506 -1.118034 0 
C -1.118034 0.296506 -1.000231 0.580908 -0.790569 0.790569 
C -0.580908 1.000231 -0.296506 1.118034 0 1.118034 
z
" style="stroke: #008000"/>
    </defs>
    <g clip-path="url(#p72d6efa98e)">
     <use xlink:href="#m35fe736af4" x="440.019853" y="310.87008" style="fill: #008000; stroke: #008000"/>
     <use xlink:href="#m35fe736af4" x="406.556304" y="313.766387" style="fill: #008000; stroke: #008000"/>
     <use xlink:href="#m35fe736af4" x="441.551114" y="337.775068" style="fill: #008000; stroke: #008000"/>
     <use xlink:href="#m35fe736af4" x="498.109091" y="307.63923" style="fill: #008000; stroke: #008000"/>
     <use xlink:href="#m35fe736af4" x="388.169544" y="303.004898" style="fill: #008000; stroke: #008000"/>
     <use xlink:href="#m35fe736af4" x="395.959763" y="299.694249" style="fill: #008000; stroke: #008000"/>
     <use xlink:href="#m35fe736af4" x="472.677312" y="340.471931" style="fill: #008000; stroke: #008000"/>
     <use xlink:href="#m35fe736af4" x="465.656773" y="309.187688" style="fill: #008000; stroke: #008000"/>
     <use xlink:href="#m35fe736af4" x="460.574726" y="271.548792" style="fill: #008000; stroke: #008000"/>
     <use xlink:href="#m35fe736af4" x="422.186834" y="338.77398" style="fill: #008000; stroke: #008000"/>
     <use xlink:href="#m35fe736af4" x="399.022572" y="340.348362" style="fill: #008000; stroke: #008000"/>
     <use xlink:href="#m35fe736af4" x="428.2388" y="311.004408" style="fill: #008000; stroke: #008000"/>
     <use xlink:href="#m35fe736af4" x="440.961991" y="298.67723" style="fill: #008000; stroke: #008000"/>
     <use xlink:href="#m35fe736af4" x="431.479132" y="282.791137" style="fill: #008000; stroke: #008000"/>
     <use xlink:href="#m35fe736af4" x="421.493887" y="250.665559" style="fill: #008000; stroke: #008000"/>
     <use xlink:href="#m35fe736af4" x="453.511989" y="341.39705" style="fill: #008000; stroke: #008000"/>
     <use xlink:href="#m35fe736af4" x="392.499801" y="307.420107" style="fill: #008000; stroke: #008000"/>
     <use xlink:href="#m35fe736af4" x="422.975319" y="301.547877" style="fill: #008000; stroke: #008000"/>
     <use xlink:href="#m35fe736af4" x="448.030266" y="321.504177" style="fill: #008000; stroke: #008000"/>
     <use xlink:href="#m35fe736af4" x="400.558907" y="358.077988" style="fill: #008000; stroke: #008000"/>
     <use xlink:href="#m35fe736af4" x="414.953851" y="297.936238" style="fill: #008000; stroke: #008000"/>
     <use xlink:href="#m35fe736af4" x="438.710857" y="351.252609" style="fill: #008000; stroke: #008000"/>
     <use xlink:href="#m35fe736af4" x="437.239538" y="309.884244" style="fill: #008000; stroke: #008000"/>
     <use xlink:href="#m35fe736af4" x="399.226011" y="315.758103" style="fill: #008000; stroke: #008000"/>
     <use xlink:href="#m35fe736af4" x="433.104874" y="348.646099" style="fill: #008000; stroke: #008000"/>
    </g>
   </g>
   <g id="PathCollection_3">
    <defs>
     <path id="m832ed778f1" d="M 0 1.118034 
C 0.296506 1.118034 0.580908 1.000231 0.790569 0.790569 
C 1.000231 0.580908 1.118034 0.296506 1.118034 0 
C 1.118034 -0.296506 1.000231 -0.580908 0.790569 -0.790569 
C 0.580908 -1.000231 0.296506 -1.118034 0 -1.118034 
C -0.296506 -1.118034 -0.580908 -1.000231 -0.790569 -0.790569 
C -1.000231 -0.580908 -1.118034 -0.296506 -1.118034 0 
C -1.118034 0.296506 -1.000231 0.580908 -0.790569 0.790569 
C -0.580908 1.000231 -0.296506 1.118034 0 1.118034 
z
" style="stroke: #ff0000"/>
    </defs>
    <g clip-path="url(#p72d6efa98e)">
     <use xlink:href="#m832ed778f1" x="179.157311" y="323.16381" style="fill: #ff0000; stroke: #ff0000"/>
     <use xlink:href="#m832ed778f1" x="184.586696" y="281.028521" style="fill: #ff0000; stroke: #ff0000"/>
     <use xlink:href="#m832ed778f1" x="152.873636" y="325.595421" style="fill: #ff0000; stroke: #ff0000"/>
     <use xlink:href="#m832ed778f1" x="218.086449" y="300.192628" style="fill: #ff0000; stroke: #ff0000"/>
     <use xlink:href="#m832ed778f1" x="144.410952" y="305.896109" style="fill: #ff0000; stroke: #ff0000"/>
     <use xlink:href="#m832ed778f1" x="144.628764" y="331.469294" style="fill: #ff0000; stroke: #ff0000"/>
     <use xlink:href="#m832ed778f1" x="169.995848" y="368.183417" style="fill: #ff0000; stroke: #ff0000"/>
     <use xlink:href="#m832ed778f1" x="99.262322" y="333.918282" style="fill: #ff0000; stroke: #ff0000"/>
     <use xlink:href="#m832ed778f1" x="124.870596" y="311.686789" style="fill: #ff0000; stroke: #ff0000"/>
     <use xlink:href="#m832ed778f1" x="128.639698" y="355.477183" style="fill: #ff0000; stroke: #ff0000"/>
     <use xlink:href="#m832ed778f1" x="214.002425" y="325.383371" style="fill: #ff0000; stroke: #ff0000"/>
     <use xlink:href="#m832ed778f1" x="163.722798" y="355.792812" style="fill: #ff0000; stroke: #ff0000"/>
     <use xlink:href="#m832ed778f1" x="141.717076" y="316.8437" style="fill: #ff0000; stroke: #ff0000"/>
     <use xlink:href="#m832ed778f1" x="119.901956" y="310.128219" style="fill: #ff0000; stroke: #ff0000"/>
     <use xlink:href="#m832ed778f1" x="139.693982" y="327.05523" style="fill: #ff0000; stroke: #ff0000"/>
     <use xlink:href="#m832ed778f1" x="139.655577" y="272.677818" style="fill: #ff0000; stroke: #ff0000"/>
     <use xlink:href="#m832ed778f1" x="160.808938" y="346.483671" style="fill: #ff0000; stroke: #ff0000"/>
     <use xlink:href="#m832ed778f1" x="190.874933" y="350.621195" style="fill: #ff0000; stroke: #ff0000"/>
     <use xlink:href="#m832ed778f1" x="168.805543" y="369.36" style="fill: #ff0000; stroke: #ff0000"/>
     <use xlink:href="#m832ed778f1" x="113.529708" y="314.664044" style="fill: #ff0000; stroke: #ff0000"/>
     <use xlink:href="#m832ed778f1" x="187.851283" y="315.31062" style="fill: #ff0000; stroke: #ff0000"/>
     <use xlink:href="#m832ed778f1" x="157.135351" y="327.293894" style="fill: #ff0000; stroke: #ff0000"/>
     <use xlink:href="#m832ed778f1" x="108.123282" y="337.914381" style="fill: #ff0000; stroke: #ff0000"/>
     <use xlink:href="#m832ed778f1" x="144.728701" y="292.845304" style="fill: #ff0000; stroke: #ff0000"/>
     <use xlink:href="#m832ed778f1" x="173.651632" y="364.372888" style="fill: #ff0000; stroke: #ff0000"/>
    </g>
   </g>
   <g id="PathCollection_4">
    <defs>
     <path id="m5df33ee92c" d="M 0 1.118034 
C 0.296506 1.118034 0.580908 1.000231 0.790569 0.790569 
C 1.000231 0.580908 1.118034 0.296506 1.118034 0 
C 1.118034 -0.296506 1.000231 -0.580908 0.790569 -0.790569 
C 0.580908 -1.000231 0.296506 -1.118034 0 -1.118034 
C -0.296506 -1.118034 -0.580908 -1.000231 -0.790569 -0.790569 
C -1.000231 -0.580908 -1.118034 -0.296506 -1.118034 0 
C -1.118034 0.296506 -1.000231 0.580908 -0.790569 0.790569 
C -0.580908 1.000231 -0.296506 1.118034 0 1.118034 
z
" style="stroke: #ffa500"/>
    </defs>
    <g clip-path="url(#p72d6efa98e)">
     <use xlink:href="#m5df33ee92c" x="110.394346" y="140.103838" style="fill: #ffa500; stroke: #ffa500"/>
     <use xlink:href="#m5df33ee92c" x="148.969528" y="149.783143" style="fill: #ffa500; stroke: #ffa500"/>
     <use xlink:href="#m5df33ee92c" x="155.494124" y="119.187126" style="fill: #ffa500; stroke: #ffa500"/>
     <use xlink:href="#m5df33ee92c" x="229.125906" y="125.007235" style="fill: #ffa500; stroke: #ffa500"/>
     <use xlink:href="#m5df33ee92c" x="170.556432" y="131.323206" style="fill: #ffa500; stroke: #ffa500"/>
     <use xlink:href="#m5df33ee92c" x="92.290909" y="130.107509" style="fill: #ffa500; stroke: #ffa500"/>
     <use xlink:href="#m5df33ee92c" x="163.460346" y="66.96" style="fill: #ffa500; stroke: #ffa500"/>
     <use xlink:href="#m5df33ee92c" x="154.376587" y="121.786915" style="fill: #ffa500; stroke: #ffa500"/>
     <use xlink:href="#m5df33ee92c" x="160.046014" y="159.07614" style="fill: #ffa500; stroke: #ffa500"/>
     <use xlink:href="#m5df33ee92c" x="202.392862" y="110.363814" style="fill: #ffa500; stroke: #ffa500"/>
     <use xlink:href="#m5df33ee92c" x="189.741654" y="152.499771" style="fill: #ffa500; stroke: #ffa500"/>
     <use xlink:href="#m5df33ee92c" x="211.742034" y="164.990091" style="fill: #ffa500; stroke: #ffa500"/>
     <use xlink:href="#m5df33ee92c" x="182.399058" y="73.878665" style="fill: #ffa500; stroke: #ffa500"/>
     <use xlink:href="#m5df33ee92c" x="125.672368" y="143.79801" style="fill: #ffa500; stroke: #ffa500"/>
     <use xlink:href="#m5df33ee92c" x="164.878021" y="142.204658" style="fill: #ffa500; stroke: #ffa500"/>
     <use xlink:href="#m5df33ee92c" x="105.52891" y="127.696082" style="fill: #ffa500; stroke: #ffa500"/>
     <use xlink:href="#m5df33ee92c" x="123.091448" y="117.423348" style="fill: #ffa500; stroke: #ffa500"/>
     <use xlink:href="#m5df33ee92c" x="128.229722" y="90.12416" style="fill: #ffa500; stroke: #ffa500"/>
     <use xlink:href="#m5df33ee92c" x="133.126742" y="137.603464" style="fill: #ffa500; stroke: #ffa500"/>
     <use xlink:href="#m5df33ee92c" x="190.550276" y="160.653366" style="fill: #ffa500; stroke: #ffa500"/>
     <use xlink:href="#m5df33ee92c" x="169.474311" y="96.282068" style="fill: #ffa500; stroke: #ffa500"/>
     <use xlink:href="#m5df33ee92c" x="103.48554" y="124.752184" style="fill: #ffa500; stroke: #ffa500"/>
     <use xlink:href="#m5df33ee92c" x="170.640311" y="109.60572" style="fill: #ffa500; stroke: #ffa500"/>
     <use xlink:href="#m5df33ee92c" x="116.81074" y="162.92569" style="fill: #ffa500; stroke: #ffa500"/>
     <use xlink:href="#m5df33ee92c" x="180.064546" y="121.902638" style="fill: #ffa500; stroke: #ffa500"/>
    </g>
   </g>
   <g id="PathCollection_5">
    <defs>
     <path id="mfe7dbf7052" d="M -7.071068 7.071068 
L 7.071068 -7.071068 
M -7.071068 -7.071068 
L 7.071068 7.071068 
" style="stroke: #0000ff; stroke-width: 2"/>
    </defs>
    <g clip-path="url(#p72d6efa98e)">
     <use xlink:href="#mfe7dbf7052" x="382.765979" y="157.914526" style="fill: #0000ff; stroke: #0000ff; stroke-width: 2"/>
    </g>
   </g>
   <g id="PathCollection_6">
    <defs>
     <path id="m1f931789ce" d="M -7.071068 7.071068 
L 7.071068 -7.071068 
M -7.071068 -7.071068 
L 7.071068 7.071068 
" style="stroke: #008000; stroke-width: 2"/>
    </defs>
    <g clip-path="url(#p72d6efa98e)">
     <use xlink:href="#m1f931789ce" x="430.138764" y="314.78574" style="fill: #008000; stroke: #008000; stroke-width: 2"/>
    </g>
   </g>
   <g id="PathCollection_7">
    <defs>
     <path id="me6f8e24cd8" d="M -7.071068 7.071068 
L 7.071068 -7.071068 
M -7.071068 -7.071068 
L 7.071068 7.071068 
" style="stroke: #ff0000; stroke-width: 2"/>
    </defs>
    <g clip-path="url(#p72d6efa98e)">
     <use xlink:href="#me6f8e24cd8" x="154.828618" y="326.534344" style="fill: #ff0000; stroke: #ff0000; stroke-width: 2"/>
    </g>
   </g>
   <g id="PathCollection_8">
    <defs>
     <path id="m6e2c58fb2a" d="M -7.071068 7.071068 
L 7.071068 -7.071068 
M -7.071068 -7.071068 
L 7.071068 7.071068 
" style="stroke: #ffa500; stroke-width: 2"/>
    </defs>
    <g clip-path="url(#p72d6efa98e)">
     <use xlink:href="#m6e2c58fb2a" x="155.301709" y="127.201554" style="fill: #ffa500; stroke: #ffa500; stroke-width: 2"/>
    </g>
   </g>
   <g id="matplotlib.axis_1">
    <g id="xtick_1">
     <g id="line2d_1">
      <path d="M 161.294329 384.48 
L 161.294329 51.84 
" clip-path="url(#p72d6efa98e)" style="fill: none; stroke: #b0b0b0; stroke-width: 0.8; stroke-linecap: square"/>
     </g>
     <g id="line2d_2">
      <defs>
       <path id="m1e22ae9cb8" d="M 0 0 
L 0 3.5 
" style="stroke: #000000; stroke-width: 0.8"/>
      </defs>
      <g>
       <use xlink:href="#m1e22ae9cb8" x="161.294329" y="384.48" style="stroke: #000000; stroke-width: 0.8"/>
      </g>
     </g>
     <g id="text_1">
      <!-- 2 -->
      <g transform="translate(158.113079 399.078438) scale(0.1 -0.1)">
       <defs>
        <path id="DejaVuSans-32" d="M 1228 531 
L 3431 531 
L 3431 0 
L 469 0 
L 469 531 
Q 828 903 1448 1529 
Q 2069 2156 2228 2338 
Q 2531 2678 2651 2914 
Q 2772 3150 2772 3378 
Q 2772 3750 2511 3984 
Q 2250 4219 1831 4219 
Q 1534 4219 1204 4116 
Q 875 4013 500 3803 
L 500 4441 
Q 881 4594 1212 4672 
Q 1544 4750 1819 4750 
Q 2544 4750 2975 4387 
Q 3406 4025 3406 3419 
Q 3406 3131 3298 2873 
Q 3191 2616 2906 2266 
Q 2828 2175 2409 1742 
Q 1991 1309 1228 531 
z
" transform="scale(0.015625)"/>
       </defs>
       <use xlink:href="#DejaVuSans-32"/>
      </g>
     </g>
    </g>
    <g id="xtick_2">
     <g id="line2d_3">
      <path d="M 251.200071 384.48 
L 251.200071 51.84 
" clip-path="url(#p72d6efa98e)" style="fill: none; stroke: #b0b0b0; stroke-width: 0.8; stroke-linecap: square"/>
     </g>
     <g id="line2d_4">
      <g>
       <use xlink:href="#m1e22ae9cb8" x="251.200071" y="384.48" style="stroke: #000000; stroke-width: 0.8"/>
      </g>
     </g>
     <g id="text_2">
      <!-- 4 -->
      <g transform="translate(248.018821 399.078438) scale(0.1 -0.1)">
       <defs>
        <path id="DejaVuSans-34" d="M 2419 4116 
L 825 1625 
L 2419 1625 
L 2419 4116 
z
M 2253 4666 
L 3047 4666 
L 3047 1625 
L 3713 1625 
L 3713 1100 
L 3047 1100 
L 3047 0 
L 2419 0 
L 2419 1100 
L 313 1100 
L 313 1709 
L 2253 4666 
z
" transform="scale(0.015625)"/>
       </defs>
       <use xlink:href="#DejaVuSans-34"/>
      </g>
     </g>
    </g>
    <g id="xtick_3">
     <g id="line2d_5">
      <path d="M 341.105813 384.48 
L 341.105813 51.84 
" clip-path="url(#p72d6efa98e)" style="fill: none; stroke: #b0b0b0; stroke-width: 0.8; stroke-linecap: square"/>
     </g>
     <g id="line2d_6">
      <g>
       <use xlink:href="#m1e22ae9cb8" x="341.105813" y="384.48" style="stroke: #000000; stroke-width: 0.8"/>
      </g>
     </g>
     <g id="text_3">
      <!-- 6 -->
      <g transform="translate(337.924563 399.078438) scale(0.1 -0.1)">
       <defs>
        <path id="DejaVuSans-36" d="M 2113 2584 
Q 1688 2584 1439 2293 
Q 1191 2003 1191 1497 
Q 1191 994 1439 701 
Q 1688 409 2113 409 
Q 2538 409 2786 701 
Q 3034 994 3034 1497 
Q 3034 2003 2786 2293 
Q 2538 2584 2113 2584 
z
M 3366 4563 
L 3366 3988 
Q 3128 4100 2886 4159 
Q 2644 4219 2406 4219 
Q 1781 4219 1451 3797 
Q 1122 3375 1075 2522 
Q 1259 2794 1537 2939 
Q 1816 3084 2150 3084 
Q 2853 3084 3261 2657 
Q 3669 2231 3669 1497 
Q 3669 778 3244 343 
Q 2819 -91 2113 -91 
Q 1303 -91 875 529 
Q 447 1150 447 2328 
Q 447 3434 972 4092 
Q 1497 4750 2381 4750 
Q 2619 4750 2861 4703 
Q 3103 4656 3366 4563 
z
" transform="scale(0.015625)"/>
       </defs>
       <use xlink:href="#DejaVuSans-36"/>
      </g>
     </g>
    </g>
    <g id="xtick_4">
     <g id="line2d_7">
      <path d="M 431.011554 384.48 
L 431.011554 51.84 
" clip-path="url(#p72d6efa98e)" style="fill: none; stroke: #b0b0b0; stroke-width: 0.8; stroke-linecap: square"/>
     </g>
     <g id="line2d_8">
      <g>
       <use xlink:href="#m1e22ae9cb8" x="431.011554" y="384.48" style="stroke: #000000; stroke-width: 0.8"/>
      </g>
     </g>
     <g id="text_4">
      <!-- 8 -->
      <g transform="translate(427.830304 399.078438) scale(0.1 -0.1)">
       <defs>
        <path id="DejaVuSans-38" d="M 2034 2216 
Q 1584 2216 1326 1975 
Q 1069 1734 1069 1313 
Q 1069 891 1326 650 
Q 1584 409 2034 409 
Q 2484 409 2743 651 
Q 3003 894 3003 1313 
Q 3003 1734 2745 1975 
Q 2488 2216 2034 2216 
z
M 1403 2484 
Q 997 2584 770 2862 
Q 544 3141 544 3541 
Q 544 4100 942 4425 
Q 1341 4750 2034 4750 
Q 2731 4750 3128 4425 
Q 3525 4100 3525 3541 
Q 3525 3141 3298 2862 
Q 3072 2584 2669 2484 
Q 3125 2378 3379 2068 
Q 3634 1759 3634 1313 
Q 3634 634 3220 271 
Q 2806 -91 2034 -91 
Q 1263 -91 848 271 
Q 434 634 434 1313 
Q 434 1759 690 2068 
Q 947 2378 1403 2484 
z
M 1172 3481 
Q 1172 3119 1398 2916 
Q 1625 2713 2034 2713 
Q 2441 2713 2670 2916 
Q 2900 3119 2900 3481 
Q 2900 3844 2670 4047 
Q 2441 4250 2034 4250 
Q 1625 4250 1398 4047 
Q 1172 3844 1172 3481 
z
" transform="scale(0.015625)"/>
       </defs>
       <use xlink:href="#DejaVuSans-38"/>
      </g>
     </g>
    </g>
    <g id="text_5">
     <!-- Merkmal 1 -->
     <g transform="translate(268.764844 412.756563) scale(0.1 -0.1)">
      <defs>
       <path id="DejaVuSans-4d" d="M 628 4666 
L 1569 4666 
L 2759 1491 
L 3956 4666 
L 4897 4666 
L 4897 0 
L 4281 0 
L 4281 4097 
L 3078 897 
L 2444 897 
L 1241 4097 
L 1241 0 
L 628 0 
L 628 4666 
z
" transform="scale(0.015625)"/>
       <path id="DejaVuSans-65" d="M 3597 1894 
L 3597 1613 
L 953 1613 
Q 991 1019 1311 708 
Q 1631 397 2203 397 
Q 2534 397 2845 478 
Q 3156 559 3463 722 
L 3463 178 
Q 3153 47 2828 -22 
Q 2503 -91 2169 -91 
Q 1331 -91 842 396 
Q 353 884 353 1716 
Q 353 2575 817 3079 
Q 1281 3584 2069 3584 
Q 2775 3584 3186 3129 
Q 3597 2675 3597 1894 
z
M 3022 2063 
Q 3016 2534 2758 2815 
Q 2500 3097 2075 3097 
Q 1594 3097 1305 2825 
Q 1016 2553 972 2059 
L 3022 2063 
z
" transform="scale(0.015625)"/>
       <path id="DejaVuSans-72" d="M 2631 2963 
Q 2534 3019 2420 3045 
Q 2306 3072 2169 3072 
Q 1681 3072 1420 2755 
Q 1159 2438 1159 1844 
L 1159 0 
L 581 0 
L 581 3500 
L 1159 3500 
L 1159 2956 
Q 1341 3275 1631 3429 
Q 1922 3584 2338 3584 
Q 2397 3584 2469 3576 
Q 2541 3569 2628 3553 
L 2631 2963 
z
" transform="scale(0.015625)"/>
       <path id="DejaVuSans-6b" d="M 581 4863 
L 1159 4863 
L 1159 1991 
L 2875 3500 
L 3609 3500 
L 1753 1863 
L 3688 0 
L 2938 0 
L 1159 1709 
L 1159 0 
L 581 0 
L 581 4863 
z
" transform="scale(0.015625)"/>
       <path id="DejaVuSans-6d" d="M 3328 2828 
Q 3544 3216 3844 3400 
Q 4144 3584 4550 3584 
Q 5097 3584 5394 3201 
Q 5691 2819 5691 2113 
L 5691 0 
L 5113 0 
L 5113 2094 
Q 5113 2597 4934 2840 
Q 4756 3084 4391 3084 
Q 3944 3084 3684 2787 
Q 3425 2491 3425 1978 
L 3425 0 
L 2847 0 
L 2847 2094 
Q 2847 2600 2669 2842 
Q 2491 3084 2119 3084 
Q 1678 3084 1418 2786 
Q 1159 2488 1159 1978 
L 1159 0 
L 581 0 
L 581 3500 
L 1159 3500 
L 1159 2956 
Q 1356 3278 1631 3431 
Q 1906 3584 2284 3584 
Q 2666 3584 2933 3390 
Q 3200 3197 3328 2828 
z
" transform="scale(0.015625)"/>
       <path id="DejaVuSans-61" d="M 2194 1759 
Q 1497 1759 1228 1600 
Q 959 1441 959 1056 
Q 959 750 1161 570 
Q 1363 391 1709 391 
Q 2188 391 2477 730 
Q 2766 1069 2766 1631 
L 2766 1759 
L 2194 1759 
z
M 3341 1997 
L 3341 0 
L 2766 0 
L 2766 531 
Q 2569 213 2275 61 
Q 1981 -91 1556 -91 
Q 1019 -91 701 211 
Q 384 513 384 1019 
Q 384 1609 779 1909 
Q 1175 2209 1959 2209 
L 2766 2209 
L 2766 2266 
Q 2766 2663 2505 2880 
Q 2244 3097 1772 3097 
Q 1472 3097 1187 3025 
Q 903 2953 641 2809 
L 641 3341 
Q 956 3463 1253 3523 
Q 1550 3584 1831 3584 
Q 2591 3584 2966 3190 
Q 3341 2797 3341 1997 
z
" transform="scale(0.015625)"/>
       <path id="DejaVuSans-6c" d="M 603 4863 
L 1178 4863 
L 1178 0 
L 603 0 
L 603 4863 
z
" transform="scale(0.015625)"/>
       <path id="DejaVuSans-20" transform="scale(0.015625)"/>
       <path id="DejaVuSans-31" d="M 794 531 
L 1825 531 
L 1825 4091 
L 703 3866 
L 703 4441 
L 1819 4666 
L 2450 4666 
L 2450 531 
L 3481 531 
L 3481 0 
L 794 0 
L 794 531 
z
" transform="scale(0.015625)"/>
      </defs>
      <use xlink:href="#DejaVuSans-4d"/>
      <use xlink:href="#DejaVuSans-65" x="86.279297"/>
      <use xlink:href="#DejaVuSans-72" x="147.802734"/>
      <use xlink:href="#DejaVuSans-6b" x="188.916016"/>
      <use xlink:href="#DejaVuSans-6d" x="246.826172"/>
      <use xlink:href="#DejaVuSans-61" x="344.238281"/>
      <use xlink:href="#DejaVuSans-6c" x="405.517578"/>
      <use xlink:href="#DejaVuSans-20" x="433.300781"/>
      <use xlink:href="#DejaVuSans-31" x="465.087891"/>
     </g>
    </g>
   </g>
   <g id="matplotlib.axis_2">
    <g id="ytick_1">
     <g id="line2d_9">
      <path d="M 72 383.064349 
L 518.4 383.064349 
" clip-path="url(#p72d6efa98e)" style="fill: none; stroke: #b0b0b0; stroke-width: 0.8; stroke-linecap: square"/>
     </g>
     <g id="line2d_10">
      <defs>
       <path id="m65376b5d27" d="M 0 0 
L -3.5 0 
" style="stroke: #000000; stroke-width: 0.8"/>
      </defs>
      <g>
       <use xlink:href="#m65376b5d27" x="72" y="383.064349" style="stroke: #000000; stroke-width: 0.8"/>
      </g>
     </g>
     <g id="text_6">
      <!-- 0 -->
      <g transform="translate(58.6375 386.863568) scale(0.1 -0.1)">
       <defs>
        <path id="DejaVuSans-30" d="M 2034 4250 
Q 1547 4250 1301 3770 
Q 1056 3291 1056 2328 
Q 1056 1369 1301 889 
Q 1547 409 2034 409 
Q 2525 409 2770 889 
Q 3016 1369 3016 2328 
Q 3016 3291 2770 3770 
Q 2525 4250 2034 4250 
z
M 2034 4750 
Q 2819 4750 3233 4129 
Q 3647 3509 3647 2328 
Q 3647 1150 3233 529 
Q 2819 -91 2034 -91 
Q 1250 -91 836 529 
Q 422 1150 422 2328 
Q 422 3509 836 4129 
Q 1250 4750 2034 4750 
z
" transform="scale(0.015625)"/>
       </defs>
       <use xlink:href="#DejaVuSans-30"/>
      </g>
     </g>
    </g>
    <g id="ytick_2">
     <g id="line2d_11">
      <path d="M 72 319.657022 
L 518.4 319.657022 
" clip-path="url(#p72d6efa98e)" style="fill: none; stroke: #b0b0b0; stroke-width: 0.8; stroke-linecap: square"/>
     </g>
     <g id="line2d_12">
      <g>
       <use xlink:href="#m65376b5d27" x="72" y="319.657022" style="stroke: #000000; stroke-width: 0.8"/>
      </g>
     </g>
     <g id="text_7">
      <!-- 2 -->
      <g transform="translate(58.6375 323.456241) scale(0.1 -0.1)">
       <use xlink:href="#DejaVuSans-32"/>
      </g>
     </g>
    </g>
    <g id="ytick_3">
     <g id="line2d_13">
      <path d="M 72 256.249695 
L 518.4 256.249695 
" clip-path="url(#p72d6efa98e)" style="fill: none; stroke: #b0b0b0; stroke-width: 0.8; stroke-linecap: square"/>
     </g>
     <g id="line2d_14">
      <g>
       <use xlink:href="#m65376b5d27" x="72" y="256.249695" style="stroke: #000000; stroke-width: 0.8"/>
      </g>
     </g>
     <g id="text_8">
      <!-- 4 -->
      <g transform="translate(58.6375 260.048913) scale(0.1 -0.1)">
       <use xlink:href="#DejaVuSans-34"/>
      </g>
     </g>
    </g>
    <g id="ytick_4">
     <g id="line2d_15">
      <path d="M 72 192.842367 
L 518.4 192.842367 
" clip-path="url(#p72d6efa98e)" style="fill: none; stroke: #b0b0b0; stroke-width: 0.8; stroke-linecap: square"/>
     </g>
     <g id="line2d_16">
      <g>
       <use xlink:href="#m65376b5d27" x="72" y="192.842367" style="stroke: #000000; stroke-width: 0.8"/>
      </g>
     </g>
     <g id="text_9">
      <!-- 6 -->
      <g transform="translate(58.6375 196.641586) scale(0.1 -0.1)">
       <use xlink:href="#DejaVuSans-36"/>
      </g>
     </g>
    </g>
    <g id="ytick_5">
     <g id="line2d_17">
      <path d="M 72 129.43504 
L 518.4 129.43504 
" clip-path="url(#p72d6efa98e)" style="fill: none; stroke: #b0b0b0; stroke-width: 0.8; stroke-linecap: square"/>
     </g>
     <g id="line2d_18">
      <g>
       <use xlink:href="#m65376b5d27" x="72" y="129.43504" style="stroke: #000000; stroke-width: 0.8"/>
      </g>
     </g>
     <g id="text_10">
      <!-- 8 -->
      <g transform="translate(58.6375 133.234258) scale(0.1 -0.1)">
       <use xlink:href="#DejaVuSans-38"/>
      </g>
     </g>
    </g>
    <g id="ytick_6">
     <g id="line2d_19">
      <path d="M 72 66.027712 
L 518.4 66.027712 
" clip-path="url(#p72d6efa98e)" style="fill: none; stroke: #b0b0b0; stroke-width: 0.8; stroke-linecap: square"/>
     </g>
     <g id="line2d_20">
      <g>
       <use xlink:href="#m65376b5d27" x="72" y="66.027712" style="stroke: #000000; stroke-width: 0.8"/>
      </g>
     </g>
     <g id="text_11">
      <!-- 10 -->
      <g transform="translate(52.275 69.826931) scale(0.1 -0.1)">
       <use xlink:href="#DejaVuSans-31"/>
       <use xlink:href="#DejaVuSans-30" x="63.623047"/>
      </g>
     </g>
    </g>
    <g id="text_12">
     <!-- Merkmal 2 -->
     <g transform="translate(46.195312 244.595156) rotate(-90) scale(0.1 -0.1)">
      <use xlink:href="#DejaVuSans-4d"/>
      <use xlink:href="#DejaVuSans-65" x="86.279297"/>
      <use xlink:href="#DejaVuSans-72" x="147.802734"/>
      <use xlink:href="#DejaVuSans-6b" x="188.916016"/>
      <use xlink:href="#DejaVuSans-6d" x="246.826172"/>
      <use xlink:href="#DejaVuSans-61" x="344.238281"/>
      <use xlink:href="#DejaVuSans-6c" x="405.517578"/>
      <use xlink:href="#DejaVuSans-20" x="433.300781"/>
      <use xlink:href="#DejaVuSans-32" x="465.087891"/>
     </g>
    </g>
   </g>
   <g id="patch_3">
    <path d="M 72 384.48 
L 72 51.84 
" style="fill: none; stroke: #000000; stroke-width: 0.8; stroke-linejoin: miter; stroke-linecap: square"/>
   </g>
   <g id="patch_4">
    <path d="M 518.4 384.48 
L 518.4 51.84 
" style="fill: none; stroke: #000000; stroke-width: 0.8; stroke-linejoin: miter; stroke-linecap: square"/>
   </g>
   <g id="patch_5">
    <path d="M 72 384.48 
L 518.4 384.48 
" style="fill: none; stroke: #000000; stroke-width: 0.8; stroke-linejoin: miter; stroke-linecap: square"/>
   </g>
   <g id="patch_6">
    <path d="M 72 51.84 
L 518.4 51.84 
" style="fill: none; stroke: #000000; stroke-width: 0.8; stroke-linejoin: miter; stroke-linecap: square"/>
   </g>
   <g id="legend_1">
    <g id="patch_7">
     <path d="M 434.367188 118.5525 
L 511.4 118.5525 
Q 513.4 118.5525 513.4 116.5525 
L 513.4 58.84 
Q 513.4 56.84 511.4 56.84 
L 434.367188 56.84 
Q 432.367188 56.84 432.367188 58.84 
L 432.367188 116.5525 
Q 432.367188 118.5525 434.367188 118.5525 
z
" style="fill: #ffffff; opacity: 0.8; stroke: #cccccc; stroke-linejoin: miter"/>
    </g>
    <g id="PathCollection_9">
     <defs>
      <path id="mfe1101dbde" d="M 0 3.354102 
C 0.889518 3.354102 1.742724 3.000693 2.371708 2.371708 
C 3.000693 1.742724 3.354102 0.889518 3.354102 0 
C 3.354102 -0.889518 3.000693 -1.742724 2.371708 -2.371708 
C 1.742724 -3.000693 0.889518 -3.354102 0 -3.354102 
C -0.889518 -3.354102 -1.742724 -3.000693 -2.371708 -2.371708 
C -3.000693 -1.742724 -3.354102 -0.889518 -3.354102 0 
C -3.354102 0.889518 -3.000693 1.742724 -2.371708 2.371708 
C -1.742724 3.000693 -0.889518 3.354102 0 3.354102 
z
" style="stroke: #0000ff"/>
     </defs>
     <g>
      <use xlink:href="#mfe1101dbde" x="446.367188" y="65.813438" style="fill: #0000ff; stroke: #0000ff"/>
     </g>
    </g>
    <g id="text_13">
     <!-- Cluster 1 -->
     <g transform="translate(464.367188 68.438438) scale(0.1 -0.1)">
      <defs>
       <path id="DejaVuSans-43" d="M 4122 4306 
L 4122 3641 
Q 3803 3938 3442 4084 
Q 3081 4231 2675 4231 
Q 1875 4231 1450 3742 
Q 1025 3253 1025 2328 
Q 1025 1406 1450 917 
Q 1875 428 2675 428 
Q 3081 428 3442 575 
Q 3803 722 4122 1019 
L 4122 359 
Q 3791 134 3420 21 
Q 3050 -91 2638 -91 
Q 1578 -91 968 557 
Q 359 1206 359 2328 
Q 359 3453 968 4101 
Q 1578 4750 2638 4750 
Q 3056 4750 3426 4639 
Q 3797 4528 4122 4306 
z
" transform="scale(0.015625)"/>
       <path id="DejaVuSans-75" d="M 544 1381 
L 544 3500 
L 1119 3500 
L 1119 1403 
Q 1119 906 1312 657 
Q 1506 409 1894 409 
Q 2359 409 2629 706 
Q 2900 1003 2900 1516 
L 2900 3500 
L 3475 3500 
L 3475 0 
L 2900 0 
L 2900 538 
Q 2691 219 2414 64 
Q 2138 -91 1772 -91 
Q 1169 -91 856 284 
Q 544 659 544 1381 
z
M 1991 3584 
L 1991 3584 
z
" transform="scale(0.015625)"/>
       <path id="DejaVuSans-73" d="M 2834 3397 
L 2834 2853 
Q 2591 2978 2328 3040 
Q 2066 3103 1784 3103 
Q 1356 3103 1142 2972 
Q 928 2841 928 2578 
Q 928 2378 1081 2264 
Q 1234 2150 1697 2047 
L 1894 2003 
Q 2506 1872 2764 1633 
Q 3022 1394 3022 966 
Q 3022 478 2636 193 
Q 2250 -91 1575 -91 
Q 1294 -91 989 -36 
Q 684 19 347 128 
L 347 722 
Q 666 556 975 473 
Q 1284 391 1588 391 
Q 1994 391 2212 530 
Q 2431 669 2431 922 
Q 2431 1156 2273 1281 
Q 2116 1406 1581 1522 
L 1381 1569 
Q 847 1681 609 1914 
Q 372 2147 372 2553 
Q 372 3047 722 3315 
Q 1072 3584 1716 3584 
Q 2034 3584 2315 3537 
Q 2597 3491 2834 3397 
z
" transform="scale(0.015625)"/>
       <path id="DejaVuSans-74" d="M 1172 4494 
L 1172 3500 
L 2356 3500 
L 2356 3053 
L 1172 3053 
L 1172 1153 
Q 1172 725 1289 603 
Q 1406 481 1766 481 
L 2356 481 
L 2356 0 
L 1766 0 
Q 1100 0 847 248 
Q 594 497 594 1153 
L 594 3053 
L 172 3053 
L 172 3500 
L 594 3500 
L 594 4494 
L 1172 4494 
z
" transform="scale(0.015625)"/>
      </defs>
      <use xlink:href="#DejaVuSans-43"/>
      <use xlink:href="#DejaVuSans-6c" x="69.824219"/>
      <use xlink:href="#DejaVuSans-75" x="97.607422"/>
      <use xlink:href="#DejaVuSans-73" x="160.986328"/>
      <use xlink:href="#DejaVuSans-74" x="213.085938"/>
      <use xlink:href="#DejaVuSans-65" x="252.294922"/>
      <use xlink:href="#DejaVuSans-72" x="313.818359"/>
      <use xlink:href="#DejaVuSans-20" x="354.931641"/>
      <use xlink:href="#DejaVuSans-31" x="386.71875"/>
     </g>
    </g>
    <g id="PathCollection_10">
     <defs>
      <path id="m748479200b" d="M 0 3.354102 
C 0.889518 3.354102 1.742724 3.000693 2.371708 2.371708 
C 3.000693 1.742724 3.354102 0.889518 3.354102 0 
C 3.354102 -0.889518 3.000693 -1.742724 2.371708 -2.371708 
C 1.742724 -3.000693 0.889518 -3.354102 0 -3.354102 
C -0.889518 -3.354102 -1.742724 -3.000693 -2.371708 -2.371708 
C -3.000693 -1.742724 -3.354102 -0.889518 -3.354102 0 
C -3.354102 0.889518 -3.000693 1.742724 -2.371708 2.371708 
C -1.742724 3.000693 -0.889518 3.354102 0 3.354102 
z
" style="stroke: #008000"/>
     </defs>
     <g>
      <use xlink:href="#m748479200b" x="446.367188" y="80.491563" style="fill: #008000; stroke: #008000"/>
     </g>
    </g>
    <g id="text_14">
     <!-- Cluster 2 -->
     <g transform="translate(464.367188 83.116563) scale(0.1 -0.1)">
      <use xlink:href="#DejaVuSans-43"/>
      <use xlink:href="#DejaVuSans-6c" x="69.824219"/>
      <use xlink:href="#DejaVuSans-75" x="97.607422"/>
      <use xlink:href="#DejaVuSans-73" x="160.986328"/>
      <use xlink:href="#DejaVuSans-74" x="213.085938"/>
      <use xlink:href="#DejaVuSans-65" x="252.294922"/>
      <use xlink:href="#DejaVuSans-72" x="313.818359"/>
      <use xlink:href="#DejaVuSans-20" x="354.931641"/>
      <use xlink:href="#DejaVuSans-32" x="386.71875"/>
     </g>
    </g>
    <g id="PathCollection_11">
     <defs>
      <path id="m89ed6592bc" d="M 0 3.354102 
C 0.889518 3.354102 1.742724 3.000693 2.371708 2.371708 
C 3.000693 1.742724 3.354102 0.889518 3.354102 0 
C 3.354102 -0.889518 3.000693 -1.742724 2.371708 -2.371708 
C 1.742724 -3.000693 0.889518 -3.354102 0 -3.354102 
C -0.889518 -3.354102 -1.742724 -3.000693 -2.371708 -2.371708 
C -3.000693 -1.742724 -3.354102 -0.889518 -3.354102 0 
C -3.354102 0.889518 -3.000693 1.742724 -2.371708 2.371708 
C -1.742724 3.000693 -0.889518 3.354102 0 3.354102 
z
" style="stroke: #ff0000"/>
     </defs>
     <g>
      <use xlink:href="#m89ed6592bc" x="446.367188" y="95.169688" style="fill: #ff0000; stroke: #ff0000"/>
     </g>
    </g>
    <g id="text_15">
     <!-- Cluster 3 -->
     <g transform="translate(464.367188 97.794688) scale(0.1 -0.1)">
      <defs>
       <path id="DejaVuSans-33" d="M 2597 2516 
Q 3050 2419 3304 2112 
Q 3559 1806 3559 1356 
Q 3559 666 3084 287 
Q 2609 -91 1734 -91 
Q 1441 -91 1130 -33 
Q 819 25 488 141 
L 488 750 
Q 750 597 1062 519 
Q 1375 441 1716 441 
Q 2309 441 2620 675 
Q 2931 909 2931 1356 
Q 2931 1769 2642 2001 
Q 2353 2234 1838 2234 
L 1294 2234 
L 1294 2753 
L 1863 2753 
Q 2328 2753 2575 2939 
Q 2822 3125 2822 3475 
Q 2822 3834 2567 4026 
Q 2313 4219 1838 4219 
Q 1578 4219 1281 4162 
Q 984 4106 628 3988 
L 628 4550 
Q 988 4650 1302 4700 
Q 1616 4750 1894 4750 
Q 2613 4750 3031 4423 
Q 3450 4097 3450 3541 
Q 3450 3153 3228 2886 
Q 3006 2619 2597 2516 
z
" transform="scale(0.015625)"/>
      </defs>
      <use xlink:href="#DejaVuSans-43"/>
      <use xlink:href="#DejaVuSans-6c" x="69.824219"/>
      <use xlink:href="#DejaVuSans-75" x="97.607422"/>
      <use xlink:href="#DejaVuSans-73" x="160.986328"/>
      <use xlink:href="#DejaVuSans-74" x="213.085938"/>
      <use xlink:href="#DejaVuSans-65" x="252.294922"/>
      <use xlink:href="#DejaVuSans-72" x="313.818359"/>
      <use xlink:href="#DejaVuSans-20" x="354.931641"/>
      <use xlink:href="#DejaVuSans-33" x="386.71875"/>
     </g>
    </g>
    <g id="PathCollection_12">
     <defs>
      <path id="mc9b4fb300e" d="M 0 3.354102 
C 0.889518 3.354102 1.742724 3.000693 2.371708 2.371708 
C 3.000693 1.742724 3.354102 0.889518 3.354102 0 
C 3.354102 -0.889518 3.000693 -1.742724 2.371708 -2.371708 
C 1.742724 -3.000693 0.889518 -3.354102 0 -3.354102 
C -0.889518 -3.354102 -1.742724 -3.000693 -2.371708 -2.371708 
C -3.000693 -1.742724 -3.354102 -0.889518 -3.354102 0 
C -3.354102 0.889518 -3.000693 1.742724 -2.371708 2.371708 
C -1.742724 3.000693 -0.889518 3.354102 0 3.354102 
z
" style="stroke: #ffa500"/>
     </defs>
     <g>
      <use xlink:href="#mc9b4fb300e" x="446.367188" y="109.847813" style="fill: #ffa500; stroke: #ffa500"/>
     </g>
    </g>
    <g id="text_16">
     <!-- Cluster 4 -->
     <g transform="translate(464.367188 112.472813) scale(0.1 -0.1)">
      <use xlink:href="#DejaVuSans-43"/>
      <use xlink:href="#DejaVuSans-6c" x="69.824219"/>
      <use xlink:href="#DejaVuSans-75" x="97.607422"/>
      <use xlink:href="#DejaVuSans-73" x="160.986328"/>
      <use xlink:href="#DejaVuSans-74" x="213.085938"/>
      <use xlink:href="#DejaVuSans-65" x="252.294922"/>
      <use xlink:href="#DejaVuSans-72" x="313.818359"/>
      <use xlink:href="#DejaVuSans-20" x="354.931641"/>
      <use xlink:href="#DejaVuSans-34" x="386.71875"/>
     </g>
    </g>
   </g>
  </g>
 </g>
 <defs>
  <clipPath id="p72d6efa98e">
   <rect x="72" y="51.84" width="446.4" height="332.64"/>
  </clipPath>
 </defs>
</svg>
