<?xml version="1.0" encoding="utf-8" standalone="no"?>
<!DOCTYPE svg PUBLIC "-//W3C//DTD SVG 1.1//EN"
  "http://www.w3.org/Graphics/SVG/1.1/DTD/svg11.dtd">
<svg xmlns:xlink="http://www.w3.org/1999/xlink" width="576pt" height="432pt" viewBox="0 0 576 432" xmlns="http://www.w3.org/2000/svg" version="1.1">
 <metadata>
  <rdf:RDF xmlns:dc="http://purl.org/dc/elements/1.1/" xmlns:cc="http://creativecommons.org/ns#" xmlns:rdf="http://www.w3.org/1999/02/22-rdf-syntax-ns#">
   <cc:Work>
    <dc:type rdf:resource="http://purl.org/dc/dcmitype/StillImage"/>
    <dc:date>2024-11-30T13:50:41.319730</dc:date>
    <dc:format>image/svg+xml</dc:format>
    <dc:creator>
     <cc:Agent>
      <dc:title>Matplotlib v3.9.2, https://matplotlib.org/</dc:title>
     </cc:Agent>
    </dc:creator>
   </cc:Work>
  </rdf:RDF>
 </metadata>
 <defs>
  <style type="text/css">*{stroke-linejoin: round; stroke-linecap: butt}</style>
 </defs>
 <g id="figure_1">
  <g id="patch_1">
   <path d="M 0 432 
L 576 432 
L 576 0 
L 0 0 
z
" style="fill: #ffffff"/>
  </g>
  <g id="axes_1">
   <g id="patch_2">
    <path d="M 72 384.48 
L 518.4 384.48 
L 518.4 51.84 
L 72 51.84 
z
" style="fill: #ffffff"/>
   </g>
   <g id="PathCollection_1">
    <defs>
     <path id="mfe533e5ac0" d="M 0 1.118034 
C 0.296506 1.118034 0.580908 1.000231 0.790569 0.790569 
C 1.000231 0.580908 1.118034 0.296506 1.118034 0 
C 1.118034 -0.296506 1.000231 -0.580908 0.790569 -0.790569 
C 0.580908 -1.000231 0.296506 -1.118034 0 -1.118034 
C -0.296506 -1.118034 -0.580908 -1.000231 -0.790569 -0.790569 
C -1.000231 -0.580908 -1.118034 -0.296506 -1.118034 0 
C -1.118034 0.296506 -1.000231 0.580908 -0.790569 0.790569 
C -0.580908 1.000231 -0.296506 1.118034 0 1.118034 
z
" style="stroke: #0000ff"/>
    </defs>
    <g clip-path="url(#pae086fca43)">
     <use xlink:href="#mfe533e5ac0" x="182.855542" y="354.791824" style="fill: #0000ff; stroke: #0000ff"/>
     <use xlink:href="#mfe533e5ac0" x="263.241006" y="257.700219" style="fill: #0000ff; stroke: #0000ff"/>
     <use xlink:href="#mfe533e5ac0" x="228.620482" y="314.679807" style="fill: #0000ff; stroke: #0000ff"/>
     <use xlink:href="#mfe533e5ac0" x="250.370987" y="296.444014" style="fill: #0000ff; stroke: #0000ff"/>
     <use xlink:href="#mfe533e5ac0" x="251.387282" y="238.818483" style="fill: #0000ff; stroke: #0000ff"/>
     <use xlink:href="#mfe533e5ac0" x="291.959229" y="362.798117" style="fill: #0000ff; stroke: #0000ff"/>
     <use xlink:href="#mfe533e5ac0" x="232.97279" y="262.241903" style="fill: #0000ff; stroke: #0000ff"/>
     <use xlink:href="#mfe533e5ac0" x="231.833069" y="288.743009" style="fill: #0000ff; stroke: #0000ff"/>
     <use xlink:href="#mfe533e5ac0" x="290.543693" y="338.413872" style="fill: #0000ff; stroke: #0000ff"/>
     <use xlink:href="#mfe533e5ac0" x="133.865116" y="290.459872" style="fill: #0000ff; stroke: #0000ff"/>
     <use xlink:href="#mfe533e5ac0" x="237.02212" y="252.352145" style="fill: #0000ff; stroke: #0000ff"/>
     <use xlink:href="#mfe533e5ac0" x="227.13024" y="307.694191" style="fill: #0000ff; stroke: #0000ff"/>
     <use xlink:href="#mfe533e5ac0" x="196.276294" y="320.269267" style="fill: #0000ff; stroke: #0000ff"/>
     <use xlink:href="#mfe533e5ac0" x="251.159273" y="338.5128" style="fill: #0000ff; stroke: #0000ff"/>
     <use xlink:href="#mfe533e5ac0" x="222.576585" y="290.689997" style="fill: #0000ff; stroke: #0000ff"/>
     <use xlink:href="#mfe533e5ac0" x="267.402938" y="266.387905" style="fill: #0000ff; stroke: #0000ff"/>
     <use xlink:href="#mfe533e5ac0" x="92.290909" y="321.597915" style="fill: #0000ff; stroke: #0000ff"/>
     <use xlink:href="#mfe533e5ac0" x="318.427902" y="334.380744" style="fill: #0000ff; stroke: #0000ff"/>
     <use xlink:href="#mfe533e5ac0" x="210.976226" y="256.164294" style="fill: #0000ff; stroke: #0000ff"/>
     <use xlink:href="#mfe533e5ac0" x="177.527663" y="267.223617" style="fill: #0000ff; stroke: #0000ff"/>
     <use xlink:href="#mfe533e5ac0" x="227.278416" y="369.36" style="fill: #0000ff; stroke: #0000ff"/>
     <use xlink:href="#mfe533e5ac0" x="258.358259" y="261.806571" style="fill: #0000ff; stroke: #0000ff"/>
    </g>
   </g>
   <g id="PathCollection_2">
    <defs>
     <path id="mbf7ccfe8ca" d="M 0 1.118034 
C 0.296506 1.118034 0.580908 1.000231 0.790569 0.790569 
C 1.000231 0.580908 1.118034 0.296506 1.118034 0 
C 1.118034 -0.296506 1.000231 -0.580908 0.790569 -0.790569 
C 0.580908 -1.000231 0.296506 -1.118034 0 -1.118034 
C -0.296506 -1.118034 -0.580908 -1.000231 -0.790569 -0.790569 
C -1.000231 -0.580908 -1.118034 -0.296506 -1.118034 0 
C -1.118034 0.296506 -1.000231 0.580908 -0.790569 0.790569 
C -0.580908 1.000231 -0.296506 1.118034 0 1.118034 
z
" style="stroke: #008000"/>
    </defs>
    <g clip-path="url(#pae086fca43)">
     <use xlink:href="#mbf7ccfe8ca" x="314.167174" y="269.040469" style="fill: #008000; stroke: #008000"/>
     <use xlink:href="#mbf7ccfe8ca" x="369.043554" y="240.829704" style="fill: #008000; stroke: #008000"/>
     <use xlink:href="#mbf7ccfe8ca" x="326.065182" y="271.729756" style="fill: #008000; stroke: #008000"/>
     <use xlink:href="#mbf7ccfe8ca" x="330.291415" y="236.151142" style="fill: #008000; stroke: #008000"/>
     <use xlink:href="#mbf7ccfe8ca" x="359.279152" y="263.855896" style="fill: #008000; stroke: #008000"/>
     <use xlink:href="#mbf7ccfe8ca" x="449.314971" y="264.855668" style="fill: #008000; stroke: #008000"/>
     <use xlink:href="#mbf7ccfe8ca" x="325.304911" y="251.58986" style="fill: #008000; stroke: #008000"/>
     <use xlink:href="#mbf7ccfe8ca" x="420.676908" y="277.955601" style="fill: #008000; stroke: #008000"/>
     <use xlink:href="#mbf7ccfe8ca" x="498.109091" y="203.903534" style="fill: #008000; stroke: #008000"/>
     <use xlink:href="#mbf7ccfe8ca" x="433.397813" y="303.475107" style="fill: #008000; stroke: #008000"/>
     <use xlink:href="#mbf7ccfe8ca" x="371.119385" y="218.656794" style="fill: #008000; stroke: #008000"/>
     <use xlink:href="#mbf7ccfe8ca" x="304.242689" y="255.500772" style="fill: #008000; stroke: #008000"/>
     <use xlink:href="#mbf7ccfe8ca" x="425.547868" y="262.396286" style="fill: #008000; stroke: #008000"/>
     <use xlink:href="#mbf7ccfe8ca" x="352.59988" y="297.326604" style="fill: #008000; stroke: #008000"/>
     <use xlink:href="#mbf7ccfe8ca" x="342.81973" y="285.029707" style="fill: #008000; stroke: #008000"/>
     <use xlink:href="#mbf7ccfe8ca" x="346.127402" y="225.094306" style="fill: #008000; stroke: #008000"/>
     <use xlink:href="#mbf7ccfe8ca" x="358.799198" y="298.613075" style="fill: #008000; stroke: #008000"/>
     <use xlink:href="#mbf7ccfe8ca" x="321.790858" y="291.191643" style="fill: #008000; stroke: #008000"/>
     <use xlink:href="#mbf7ccfe8ca" x="364.55145" y="302.630538" style="fill: #008000; stroke: #008000"/>
     <use xlink:href="#mbf7ccfe8ca" x="405.605566" y="245.397961" style="fill: #008000; stroke: #008000"/>
     <use xlink:href="#mbf7ccfe8ca" x="399.042639" y="226.95408" style="fill: #008000; stroke: #008000"/>
     <use xlink:href="#mbf7ccfe8ca" x="383.768805" y="220.537756" style="fill: #008000; stroke: #008000"/>
     <use xlink:href="#mbf7ccfe8ca" x="411.505419" y="254.855191" style="fill: #008000; stroke: #008000"/>
     <use xlink:href="#mbf7ccfe8ca" x="427.276748" y="251.571719" style="fill: #008000; stroke: #008000"/>
     <use xlink:href="#mbf7ccfe8ca" x="379.751673" y="316.289786" style="fill: #008000; stroke: #008000"/>
     <use xlink:href="#mbf7ccfe8ca" x="389.835441" y="310.78021" style="fill: #008000; stroke: #008000"/>
     <use xlink:href="#mbf7ccfe8ca" x="497.780261" y="284.385913" style="fill: #008000; stroke: #008000"/>
     <use xlink:href="#mbf7ccfe8ca" x="330.541875" y="330.670352" style="fill: #008000; stroke: #008000"/>
     <use xlink:href="#mbf7ccfe8ca" x="413.839534" y="231.920334" style="fill: #008000; stroke: #008000"/>
     <use xlink:href="#mbf7ccfe8ca" x="320.003238" y="311.12806" style="fill: #008000; stroke: #008000"/>
     <use xlink:href="#mbf7ccfe8ca" x="379.314358" y="268.44737" style="fill: #008000; stroke: #008000"/>
    </g>
   </g>
   <g id="PathCollection_3">
    <defs>
     <path id="mf93053b162" d="M 0 1.118034 
C 0.296506 1.118034 0.580908 1.000231 0.790569 0.790569 
C 1.000231 0.580908 1.118034 0.296506 1.118034 0 
C 1.118034 -0.296506 1.000231 -0.580908 0.790569 -0.790569 
C 0.580908 -1.000231 0.296506 -1.118034 0 -1.118034 
C -0.296506 -1.118034 -0.580908 -1.000231 -0.790569 -0.790569 
C -1.000231 -0.580908 -1.118034 -0.296506 -1.118034 0 
C -1.118034 0.296506 -1.000231 0.580908 -0.790569 0.790569 
C -0.580908 1.000231 -0.296506 1.118034 0 1.118034 
z
" style="stroke: #ff0000"/>
    </defs>
    <g clip-path="url(#pae086fca43)">
     <use xlink:href="#mf93053b162" x="326.066122" y="80.673251" style="fill: #ff0000; stroke: #ff0000"/>
     <use xlink:href="#mf93053b162" x="242.134676" y="210.461206" style="fill: #ff0000; stroke: #ff0000"/>
     <use xlink:href="#mf93053b162" x="263.273334" y="236.539984" style="fill: #ff0000; stroke: #ff0000"/>
     <use xlink:href="#mf93053b162" x="326.053553" y="229.317957" style="fill: #ff0000; stroke: #ff0000"/>
     <use xlink:href="#mf93053b162" x="292.944517" y="214.367076" style="fill: #ff0000; stroke: #ff0000"/>
     <use xlink:href="#mf93053b162" x="224.37045" y="218.741581" style="fill: #ff0000; stroke: #ff0000"/>
     <use xlink:href="#mf93053b162" x="343.638782" y="151.761919" style="fill: #ff0000; stroke: #ff0000"/>
     <use xlink:href="#mf93053b162" x="285.514045" y="179.974135" style="fill: #ff0000; stroke: #ff0000"/>
     <use xlink:href="#mf93053b162" x="328.491131" y="198.257266" style="fill: #ff0000; stroke: #ff0000"/>
     <use xlink:href="#mf93053b162" x="270.624909" y="123.814996" style="fill: #ff0000; stroke: #ff0000"/>
     <use xlink:href="#mf93053b162" x="349.549863" y="140.13816" style="fill: #ff0000; stroke: #ff0000"/>
     <use xlink:href="#mf93053b162" x="385.873318" y="185.485827" style="fill: #ff0000; stroke: #ff0000"/>
     <use xlink:href="#mf93053b162" x="338.694847" y="204.441333" style="fill: #ff0000; stroke: #ff0000"/>
     <use xlink:href="#mf93053b162" x="311.623273" y="194.134544" style="fill: #ff0000; stroke: #ff0000"/>
     <use xlink:href="#mf93053b162" x="294.434649" y="152.63243" style="fill: #ff0000; stroke: #ff0000"/>
     <use xlink:href="#mf93053b162" x="225.185678" y="66.96" style="fill: #ff0000; stroke: #ff0000"/>
     <use xlink:href="#mf93053b162" x="374.722867" y="141.388256" style="fill: #ff0000; stroke: #ff0000"/>
     <use xlink:href="#mf93053b162" x="334.318958" y="150.733365" style="fill: #ff0000; stroke: #ff0000"/>
     <use xlink:href="#mf93053b162" x="286.168904" y="238.029123" style="fill: #ff0000; stroke: #ff0000"/>
     <use xlink:href="#mf93053b162" x="292.831222" y="225.435286" style="fill: #ff0000; stroke: #ff0000"/>
     <use xlink:href="#mf93053b162" x="360.877022" y="195.102392" style="fill: #ff0000; stroke: #ff0000"/>
     <use xlink:href="#mf93053b162" x="224.635108" y="205.077574" style="fill: #ff0000; stroke: #ff0000"/>
     <use xlink:href="#mf93053b162" x="318.339598" y="218.944343" style="fill: #ff0000; stroke: #ff0000"/>
     <use xlink:href="#mf93053b162" x="224.883044" y="172.743748" style="fill: #ff0000; stroke: #ff0000"/>
     <use xlink:href="#mf93053b162" x="305.630699" y="215.695278" style="fill: #ff0000; stroke: #ff0000"/>
     <use xlink:href="#mf93053b162" x="251.454893" y="173.40964" style="fill: #ff0000; stroke: #ff0000"/>
     <use xlink:href="#mf93053b162" x="232.735167" y="198.901256" style="fill: #ff0000; stroke: #ff0000"/>
     <use xlink:href="#mf93053b162" x="288.086752" y="234.478786" style="fill: #ff0000; stroke: #ff0000"/>
    </g>
   </g>
   <g id="matplotlib.axis_1">
    <g id="xtick_1">
     <g id="line2d_1">
      <defs>
       <path id="m7e516fdcae" d="M 0 0 
L 0 3.5 
" style="stroke: #000000; stroke-width: 0.8"/>
      </defs>
      <g>
       <use xlink:href="#m7e516fdcae" x="85.324826" y="384.48" style="stroke: #000000; stroke-width: 0.8"/>
      </g>
     </g>
     <g id="text_1">
      <!-- 0 -->
      <g transform="translate(82.143576 399.078438) scale(0.1 -0.1)">
       <defs>
        <path id="DejaVuSans-30" d="M 2034 4250 
Q 1547 4250 1301 3770 
Q 1056 3291 1056 2328 
Q 1056 1369 1301 889 
Q 1547 409 2034 409 
Q 2525 409 2770 889 
Q 3016 1369 3016 2328 
Q 3016 3291 2770 3770 
Q 2525 4250 2034 4250 
z
M 2034 4750 
Q 2819 4750 3233 4129 
Q 3647 3509 3647 2328 
Q 3647 1150 3233 529 
Q 2819 -91 2034 -91 
Q 1250 -91 836 529 
Q 422 1150 422 2328 
Q 422 3509 836 4129 
Q 1250 4750 2034 4750 
z
" transform="scale(0.015625)"/>
       </defs>
       <use xlink:href="#DejaVuSans-30"/>
      </g>
     </g>
    </g>
    <g id="xtick_2">
     <g id="line2d_2">
      <g>
       <use xlink:href="#m7e516fdcae" x="135.767506" y="384.48" style="stroke: #000000; stroke-width: 0.8"/>
      </g>
     </g>
     <g id="text_2">
      <!-- 1 -->
      <g transform="translate(132.586256 399.078438) scale(0.1 -0.1)">
       <defs>
        <path id="DejaVuSans-31" d="M 794 531 
L 1825 531 
L 1825 4091 
L 703 3866 
L 703 4441 
L 1819 4666 
L 2450 4666 
L 2450 531 
L 3481 531 
L 3481 0 
L 794 0 
L 794 531 
z
" transform="scale(0.015625)"/>
       </defs>
       <use xlink:href="#DejaVuSans-31"/>
      </g>
     </g>
    </g>
    <g id="xtick_3">
     <g id="line2d_3">
      <g>
       <use xlink:href="#m7e516fdcae" x="186.210185" y="384.48" style="stroke: #000000; stroke-width: 0.8"/>
      </g>
     </g>
     <g id="text_3">
      <!-- 2 -->
      <g transform="translate(183.028935 399.078438) scale(0.1 -0.1)">
       <defs>
        <path id="DejaVuSans-32" d="M 1228 531 
L 3431 531 
L 3431 0 
L 469 0 
L 469 531 
Q 828 903 1448 1529 
Q 2069 2156 2228 2338 
Q 2531 2678 2651 2914 
Q 2772 3150 2772 3378 
Q 2772 3750 2511 3984 
Q 2250 4219 1831 4219 
Q 1534 4219 1204 4116 
Q 875 4013 500 3803 
L 500 4441 
Q 881 4594 1212 4672 
Q 1544 4750 1819 4750 
Q 2544 4750 2975 4387 
Q 3406 4025 3406 3419 
Q 3406 3131 3298 2873 
Q 3191 2616 2906 2266 
Q 2828 2175 2409 1742 
Q 1991 1309 1228 531 
z
" transform="scale(0.015625)"/>
       </defs>
       <use xlink:href="#DejaVuSans-32"/>
      </g>
     </g>
    </g>
    <g id="xtick_4">
     <g id="line2d_4">
      <g>
       <use xlink:href="#m7e516fdcae" x="236.652865" y="384.48" style="stroke: #000000; stroke-width: 0.8"/>
      </g>
     </g>
     <g id="text_4">
      <!-- 3 -->
      <g transform="translate(233.471615 399.078438) scale(0.1 -0.1)">
       <defs>
        <path id="DejaVuSans-33" d="M 2597 2516 
Q 3050 2419 3304 2112 
Q 3559 1806 3559 1356 
Q 3559 666 3084 287 
Q 2609 -91 1734 -91 
Q 1441 -91 1130 -33 
Q 819 25 488 141 
L 488 750 
Q 750 597 1062 519 
Q 1375 441 1716 441 
Q 2309 441 2620 675 
Q 2931 909 2931 1356 
Q 2931 1769 2642 2001 
Q 2353 2234 1838 2234 
L 1294 2234 
L 1294 2753 
L 1863 2753 
Q 2328 2753 2575 2939 
Q 2822 3125 2822 3475 
Q 2822 3834 2567 4026 
Q 2313 4219 1838 4219 
Q 1578 4219 1281 4162 
Q 984 4106 628 3988 
L 628 4550 
Q 988 4650 1302 4700 
Q 1616 4750 1894 4750 
Q 2613 4750 3031 4423 
Q 3450 4097 3450 3541 
Q 3450 3153 3228 2886 
Q 3006 2619 2597 2516 
z
" transform="scale(0.015625)"/>
       </defs>
       <use xlink:href="#DejaVuSans-33"/>
      </g>
     </g>
    </g>
    <g id="xtick_5">
     <g id="line2d_5">
      <g>
       <use xlink:href="#m7e516fdcae" x="287.095544" y="384.48" style="stroke: #000000; stroke-width: 0.8"/>
      </g>
     </g>
     <g id="text_5">
      <!-- 4 -->
      <g transform="translate(283.914294 399.078438) scale(0.1 -0.1)">
       <defs>
        <path id="DejaVuSans-34" d="M 2419 4116 
L 825 1625 
L 2419 1625 
L 2419 4116 
z
M 2253 4666 
L 3047 4666 
L 3047 1625 
L 3713 1625 
L 3713 1100 
L 3047 1100 
L 3047 0 
L 2419 0 
L 2419 1100 
L 313 1100 
L 313 1709 
L 2253 4666 
z
" transform="scale(0.015625)"/>
       </defs>
       <use xlink:href="#DejaVuSans-34"/>
      </g>
     </g>
    </g>
    <g id="xtick_6">
     <g id="line2d_6">
      <g>
       <use xlink:href="#m7e516fdcae" x="337.538224" y="384.48" style="stroke: #000000; stroke-width: 0.8"/>
      </g>
     </g>
     <g id="text_6">
      <!-- 5 -->
      <g transform="translate(334.356974 399.078438) scale(0.1 -0.1)">
       <defs>
        <path id="DejaVuSans-35" d="M 691 4666 
L 3169 4666 
L 3169 4134 
L 1269 4134 
L 1269 2991 
Q 1406 3038 1543 3061 
Q 1681 3084 1819 3084 
Q 2600 3084 3056 2656 
Q 3513 2228 3513 1497 
Q 3513 744 3044 326 
Q 2575 -91 1722 -91 
Q 1428 -91 1123 -41 
Q 819 9 494 109 
L 494 744 
Q 775 591 1075 516 
Q 1375 441 1709 441 
Q 2250 441 2565 725 
Q 2881 1009 2881 1497 
Q 2881 1984 2565 2268 
Q 2250 2553 1709 2553 
Q 1456 2553 1204 2497 
Q 953 2441 691 2322 
L 691 4666 
z
" transform="scale(0.015625)"/>
       </defs>
       <use xlink:href="#DejaVuSans-35"/>
      </g>
     </g>
    </g>
    <g id="xtick_7">
     <g id="line2d_7">
      <g>
       <use xlink:href="#m7e516fdcae" x="387.980903" y="384.48" style="stroke: #000000; stroke-width: 0.8"/>
      </g>
     </g>
     <g id="text_7">
      <!-- 6 -->
      <g transform="translate(384.799653 399.078438) scale(0.1 -0.1)">
       <defs>
        <path id="DejaVuSans-36" d="M 2113 2584 
Q 1688 2584 1439 2293 
Q 1191 2003 1191 1497 
Q 1191 994 1439 701 
Q 1688 409 2113 409 
Q 2538 409 2786 701 
Q 3034 994 3034 1497 
Q 3034 2003 2786 2293 
Q 2538 2584 2113 2584 
z
M 3366 4563 
L 3366 3988 
Q 3128 4100 2886 4159 
Q 2644 4219 2406 4219 
Q 1781 4219 1451 3797 
Q 1122 3375 1075 2522 
Q 1259 2794 1537 2939 
Q 1816 3084 2150 3084 
Q 2853 3084 3261 2657 
Q 3669 2231 3669 1497 
Q 3669 778 3244 343 
Q 2819 -91 2113 -91 
Q 1303 -91 875 529 
Q 447 1150 447 2328 
Q 447 3434 972 4092 
Q 1497 4750 2381 4750 
Q 2619 4750 2861 4703 
Q 3103 4656 3366 4563 
z
" transform="scale(0.015625)"/>
       </defs>
       <use xlink:href="#DejaVuSans-36"/>
      </g>
     </g>
    </g>
    <g id="xtick_8">
     <g id="line2d_8">
      <g>
       <use xlink:href="#m7e516fdcae" x="438.423583" y="384.48" style="stroke: #000000; stroke-width: 0.8"/>
      </g>
     </g>
     <g id="text_8">
      <!-- 7 -->
      <g transform="translate(435.242333 399.078438) scale(0.1 -0.1)">
       <defs>
        <path id="DejaVuSans-37" d="M 525 4666 
L 3525 4666 
L 3525 4397 
L 1831 0 
L 1172 0 
L 2766 4134 
L 525 4134 
L 525 4666 
z
" transform="scale(0.015625)"/>
       </defs>
       <use xlink:href="#DejaVuSans-37"/>
      </g>
     </g>
    </g>
    <g id="xtick_9">
     <g id="line2d_9">
      <g>
       <use xlink:href="#m7e516fdcae" x="488.866262" y="384.48" style="stroke: #000000; stroke-width: 0.8"/>
      </g>
     </g>
     <g id="text_9">
      <!-- 8 -->
      <g transform="translate(485.685012 399.078438) scale(0.1 -0.1)">
       <defs>
        <path id="DejaVuSans-38" d="M 2034 2216 
Q 1584 2216 1326 1975 
Q 1069 1734 1069 1313 
Q 1069 891 1326 650 
Q 1584 409 2034 409 
Q 2484 409 2743 651 
Q 3003 894 3003 1313 
Q 3003 1734 2745 1975 
Q 2488 2216 2034 2216 
z
M 1403 2484 
Q 997 2584 770 2862 
Q 544 3141 544 3541 
Q 544 4100 942 4425 
Q 1341 4750 2034 4750 
Q 2731 4750 3128 4425 
Q 3525 4100 3525 3541 
Q 3525 3141 3298 2862 
Q 3072 2584 2669 2484 
Q 3125 2378 3379 2068 
Q 3634 1759 3634 1313 
Q 3634 634 3220 271 
Q 2806 -91 2034 -91 
Q 1263 -91 848 271 
Q 434 634 434 1313 
Q 434 1759 690 2068 
Q 947 2378 1403 2484 
z
M 1172 3481 
Q 1172 3119 1398 2916 
Q 1625 2713 2034 2713 
Q 2441 2713 2670 2916 
Q 2900 3119 2900 3481 
Q 2900 3844 2670 4047 
Q 2441 4250 2034 4250 
Q 1625 4250 1398 4047 
Q 1172 3844 1172 3481 
z
" transform="scale(0.015625)"/>
       </defs>
       <use xlink:href="#DejaVuSans-38"/>
      </g>
     </g>
    </g>
   </g>
   <g id="matplotlib.axis_2">
    <g id="ytick_1">
     <g id="line2d_10">
      <defs>
       <path id="m46a5534588" d="M 0 0 
L -3.5 0 
" style="stroke: #000000; stroke-width: 0.8"/>
      </defs>
      <g>
       <use xlink:href="#m46a5534588" x="72" y="377.42305" style="stroke: #000000; stroke-width: 0.8"/>
      </g>
     </g>
     <g id="text_10">
      <!-- 2 -->
      <g transform="translate(58.6375 381.222269) scale(0.1 -0.1)">
       <use xlink:href="#DejaVuSans-32"/>
      </g>
     </g>
    </g>
    <g id="ytick_2">
     <g id="line2d_11">
      <g>
       <use xlink:href="#m46a5534588" x="72" y="339.275976" style="stroke: #000000; stroke-width: 0.8"/>
      </g>
     </g>
     <g id="text_11">
      <!-- 3 -->
      <g transform="translate(58.6375 343.075195) scale(0.1 -0.1)">
       <use xlink:href="#DejaVuSans-33"/>
      </g>
     </g>
    </g>
    <g id="ytick_3">
     <g id="line2d_12">
      <g>
       <use xlink:href="#m46a5534588" x="72" y="301.128902" style="stroke: #000000; stroke-width: 0.8"/>
      </g>
     </g>
     <g id="text_12">
      <!-- 4 -->
      <g transform="translate(58.6375 304.928121) scale(0.1 -0.1)">
       <use xlink:href="#DejaVuSans-34"/>
      </g>
     </g>
    </g>
    <g id="ytick_4">
     <g id="line2d_13">
      <g>
       <use xlink:href="#m46a5534588" x="72" y="262.981828" style="stroke: #000000; stroke-width: 0.8"/>
      </g>
     </g>
     <g id="text_13">
      <!-- 5 -->
      <g transform="translate(58.6375 266.781046) scale(0.1 -0.1)">
       <use xlink:href="#DejaVuSans-35"/>
      </g>
     </g>
    </g>
    <g id="ytick_5">
     <g id="line2d_14">
      <g>
       <use xlink:href="#m46a5534588" x="72" y="224.834753" style="stroke: #000000; stroke-width: 0.8"/>
      </g>
     </g>
     <g id="text_14">
      <!-- 6 -->
      <g transform="translate(58.6375 228.633972) scale(0.1 -0.1)">
       <use xlink:href="#DejaVuSans-36"/>
      </g>
     </g>
    </g>
    <g id="ytick_6">
     <g id="line2d_15">
      <g>
       <use xlink:href="#m46a5534588" x="72" y="186.687679" style="stroke: #000000; stroke-width: 0.8"/>
      </g>
     </g>
     <g id="text_15">
      <!-- 7 -->
      <g transform="translate(58.6375 190.486898) scale(0.1 -0.1)">
       <use xlink:href="#DejaVuSans-37"/>
      </g>
     </g>
    </g>
    <g id="ytick_7">
     <g id="line2d_16">
      <g>
       <use xlink:href="#m46a5534588" x="72" y="148.540605" style="stroke: #000000; stroke-width: 0.8"/>
      </g>
     </g>
     <g id="text_16">
      <!-- 8 -->
      <g transform="translate(58.6375 152.339824) scale(0.1 -0.1)">
       <use xlink:href="#DejaVuSans-38"/>
      </g>
     </g>
    </g>
    <g id="ytick_8">
     <g id="line2d_17">
      <g>
       <use xlink:href="#m46a5534588" x="72" y="110.393531" style="stroke: #000000; stroke-width: 0.8"/>
      </g>
     </g>
     <g id="text_17">
      <!-- 9 -->
      <g transform="translate(58.6375 114.192749) scale(0.1 -0.1)">
       <defs>
        <path id="DejaVuSans-39" d="M 703 97 
L 703 672 
Q 941 559 1184 500 
Q 1428 441 1663 441 
Q 2288 441 2617 861 
Q 2947 1281 2994 2138 
Q 2813 1869 2534 1725 
Q 2256 1581 1919 1581 
Q 1219 1581 811 2004 
Q 403 2428 403 3163 
Q 403 3881 828 4315 
Q 1253 4750 1959 4750 
Q 2769 4750 3195 4129 
Q 3622 3509 3622 2328 
Q 3622 1225 3098 567 
Q 2575 -91 1691 -91 
Q 1453 -91 1209 -44 
Q 966 3 703 97 
z
M 1959 2075 
Q 2384 2075 2632 2365 
Q 2881 2656 2881 3163 
Q 2881 3666 2632 3958 
Q 2384 4250 1959 4250 
Q 1534 4250 1286 3958 
Q 1038 3666 1038 3163 
Q 1038 2656 1286 2365 
Q 1534 2075 1959 2075 
z
" transform="scale(0.015625)"/>
       </defs>
       <use xlink:href="#DejaVuSans-39"/>
      </g>
     </g>
    </g>
    <g id="ytick_9">
     <g id="line2d_18">
      <g>
       <use xlink:href="#m46a5534588" x="72" y="72.246456" style="stroke: #000000; stroke-width: 0.8"/>
      </g>
     </g>
     <g id="text_18">
      <!-- 10 -->
      <g transform="translate(52.275 76.045675) scale(0.1 -0.1)">
       <use xlink:href="#DejaVuSans-31"/>
       <use xlink:href="#DejaVuSans-30" x="63.623047"/>
      </g>
     </g>
    </g>
   </g>
   <g id="patch_3">
    <path d="M 72 384.48 
L 72 51.84 
" style="fill: none; stroke: #000000; stroke-width: 0.8; stroke-linejoin: miter; stroke-linecap: square"/>
   </g>
   <g id="patch_4">
    <path d="M 518.4 384.48 
L 518.4 51.84 
" style="fill: none; stroke: #000000; stroke-width: 0.8; stroke-linejoin: miter; stroke-linecap: square"/>
   </g>
   <g id="patch_5">
    <path d="M 72 384.48 
L 518.4 384.48 
" style="fill: none; stroke: #000000; stroke-width: 0.8; stroke-linejoin: miter; stroke-linecap: square"/>
   </g>
   <g id="patch_6">
    <path d="M 72 51.84 
L 518.4 51.84 
" style="fill: none; stroke: #000000; stroke-width: 0.8; stroke-linejoin: miter; stroke-linecap: square"/>
   </g>
  </g>
 </g>
 <defs>
  <clipPath id="pae086fca43">
   <rect x="72" y="51.84" width="446.4" height="332.64"/>
  </clipPath>
 </defs>
</svg>
