<?xml version="1.0" encoding="utf-8" standalone="no"?>
<!DOCTYPE svg PUBLIC "-//W3C//DTD SVG 1.1//EN"
  "http://www.w3.org/Graphics/SVG/1.1/DTD/svg11.dtd">
<svg xmlns:xlink="http://www.w3.org/1999/xlink" width="576pt" height="432pt" viewBox="0 0 576 432" xmlns="http://www.w3.org/2000/svg" version="1.1">
 <metadata>
  <rdf:RDF xmlns:dc="http://purl.org/dc/elements/1.1/" xmlns:cc="http://creativecommons.org/ns#" xmlns:rdf="http://www.w3.org/1999/02/22-rdf-syntax-ns#">
   <cc:Work>
    <dc:type rdf:resource="http://purl.org/dc/dcmitype/StillImage"/>
    <dc:date>2024-11-30T13:50:40.656666</dc:date>
    <dc:format>image/svg+xml</dc:format>
    <dc:creator>
     <cc:Agent>
      <dc:title>Matplotlib v3.9.2, https://matplotlib.org/</dc:title>
     </cc:Agent>
    </dc:creator>
   </cc:Work>
  </rdf:RDF>
 </metadata>
 <defs>
  <style type="text/css">*{stroke-linejoin: round; stroke-linecap: butt}</style>
 </defs>
 <g id="figure_1">
  <g id="patch_1">
   <path d="M 0 432 
L 576 432 
L 576 0 
L 0 0 
z
" style="fill: #ffffff"/>
  </g>
  <g id="axes_1">
   <g id="patch_2">
    <path d="M 72 384.48 
L 518.4 384.48 
L 518.4 51.84 
L 72 51.84 
z
" style="fill: #ffffff"/>
   </g>
   <g id="PathCollection_1">
    <defs>
     <path id="m41ed99a8d6" d="M 0 1.118034 
C 0.296506 1.118034 0.580908 1.000231 0.790569 0.790569 
C 1.000231 0.580908 1.118034 0.296506 1.118034 0 
C 1.118034 -0.296506 1.000231 -0.580908 0.790569 -0.790569 
C 0.580908 -1.000231 0.296506 -1.118034 0 -1.118034 
C -0.296506 -1.118034 -0.580908 -1.000231 -0.790569 -0.790569 
C -1.000231 -0.580908 -1.118034 -0.296506 -1.118034 0 
C -1.118034 0.296506 -1.000231 0.580908 -0.790569 0.790569 
C -0.580908 1.000231 -0.296506 1.118034 0 1.118034 
z
" style="stroke: #000000"/>
    </defs>
    <g clip-path="url(#p67a955e460)">
     <use xlink:href="#m41ed99a8d6" x="179.157311" y="323.16381" style="stroke: #000000"/>
     <use xlink:href="#m41ed99a8d6" x="184.586696" y="281.028521" style="stroke: #000000"/>
     <use xlink:href="#m41ed99a8d6" x="152.873636" y="325.595421" style="stroke: #000000"/>
     <use xlink:href="#m41ed99a8d6" x="218.086449" y="300.192628" style="stroke: #000000"/>
     <use xlink:href="#m41ed99a8d6" x="144.410952" y="305.896109" style="stroke: #000000"/>
     <use xlink:href="#m41ed99a8d6" x="144.628764" y="331.469294" style="stroke: #000000"/>
     <use xlink:href="#m41ed99a8d6" x="169.995848" y="368.183417" style="stroke: #000000"/>
     <use xlink:href="#m41ed99a8d6" x="99.262322" y="333.918282" style="stroke: #000000"/>
     <use xlink:href="#m41ed99a8d6" x="124.870596" y="311.686789" style="stroke: #000000"/>
     <use xlink:href="#m41ed99a8d6" x="128.639698" y="355.477183" style="stroke: #000000"/>
     <use xlink:href="#m41ed99a8d6" x="214.002425" y="325.383371" style="stroke: #000000"/>
     <use xlink:href="#m41ed99a8d6" x="163.722798" y="355.792812" style="stroke: #000000"/>
     <use xlink:href="#m41ed99a8d6" x="141.717076" y="316.8437" style="stroke: #000000"/>
     <use xlink:href="#m41ed99a8d6" x="119.901956" y="310.128219" style="stroke: #000000"/>
     <use xlink:href="#m41ed99a8d6" x="139.693982" y="327.05523" style="stroke: #000000"/>
     <use xlink:href="#m41ed99a8d6" x="139.655577" y="272.677818" style="stroke: #000000"/>
     <use xlink:href="#m41ed99a8d6" x="160.808938" y="346.483671" style="stroke: #000000"/>
     <use xlink:href="#m41ed99a8d6" x="190.874933" y="350.621195" style="stroke: #000000"/>
     <use xlink:href="#m41ed99a8d6" x="168.805543" y="369.36" style="stroke: #000000"/>
     <use xlink:href="#m41ed99a8d6" x="113.529708" y="314.664044" style="stroke: #000000"/>
     <use xlink:href="#m41ed99a8d6" x="187.851283" y="315.31062" style="stroke: #000000"/>
     <use xlink:href="#m41ed99a8d6" x="157.135351" y="327.293894" style="stroke: #000000"/>
     <use xlink:href="#m41ed99a8d6" x="108.123282" y="337.914381" style="stroke: #000000"/>
     <use xlink:href="#m41ed99a8d6" x="144.728701" y="292.845304" style="stroke: #000000"/>
     <use xlink:href="#m41ed99a8d6" x="173.651632" y="364.372888" style="stroke: #000000"/>
     <use xlink:href="#m41ed99a8d6" x="397.713487" y="170.905519" style="stroke: #000000"/>
     <use xlink:href="#m41ed99a8d6" x="361.715014" y="145.6248" style="stroke: #000000"/>
     <use xlink:href="#m41ed99a8d6" x="423.135794" y="137.51871" style="stroke: #000000"/>
     <use xlink:href="#m41ed99a8d6" x="355.878494" y="168.981236" style="stroke: #000000"/>
     <use xlink:href="#m41ed99a8d6" x="397.971677" y="136.39602" style="stroke: #000000"/>
     <use xlink:href="#m41ed99a8d6" x="368.826477" y="165.847559" style="stroke: #000000"/>
     <use xlink:href="#m41ed99a8d6" x="346.272337" y="191.478009" style="stroke: #000000"/>
     <use xlink:href="#m41ed99a8d6" x="415.278978" y="126.740481" style="stroke: #000000"/>
     <use xlink:href="#m41ed99a8d6" x="383.469034" y="135.686168" style="stroke: #000000"/>
     <use xlink:href="#m41ed99a8d6" x="399.063945" y="177.500831" style="stroke: #000000"/>
     <use xlink:href="#m41ed99a8d6" x="399.055299" y="122.129588" style="stroke: #000000"/>
     <use xlink:href="#m41ed99a8d6" x="384.770297" y="121.454754" style="stroke: #000000"/>
     <use xlink:href="#m41ed99a8d6" x="291.846633" y="140.292847" style="stroke: #000000"/>
     <use xlink:href="#m41ed99a8d6" x="389.189096" y="168.722406" style="stroke: #000000"/>
     <use xlink:href="#m41ed99a8d6" x="389.358612" y="211.549277" style="stroke: #000000"/>
     <use xlink:href="#m41ed99a8d6" x="378.158778" y="152.081282" style="stroke: #000000"/>
     <use xlink:href="#m41ed99a8d6" x="439.207148" y="174.283555" style="stroke: #000000"/>
     <use xlink:href="#m41ed99a8d6" x="356.983397" y="173.864733" style="stroke: #000000"/>
     <use xlink:href="#m41ed99a8d6" x="418.978646" y="152.800612" style="stroke: #000000"/>
     <use xlink:href="#m41ed99a8d6" x="367.00729" y="148.120737" style="stroke: #000000"/>
     <use xlink:href="#m41ed99a8d6" x="389.549815" y="136.571027" style="stroke: #000000"/>
     <use xlink:href="#m41ed99a8d6" x="360.811242" y="169.449176" style="stroke: #000000"/>
     <use xlink:href="#m41ed99a8d6" x="371.957574" y="198.257732" style="stroke: #000000"/>
     <use xlink:href="#m41ed99a8d6" x="396.707849" y="154.517577" style="stroke: #000000"/>
     <use xlink:href="#m41ed99a8d6" x="386.242575" y="167.088521" style="stroke: #000000"/>
     <use xlink:href="#m41ed99a8d6" x="110.394346" y="140.103838" style="stroke: #000000"/>
     <use xlink:href="#m41ed99a8d6" x="148.969528" y="149.783143" style="stroke: #000000"/>
     <use xlink:href="#m41ed99a8d6" x="155.494124" y="119.187126" style="stroke: #000000"/>
     <use xlink:href="#m41ed99a8d6" x="229.125906" y="125.007235" style="stroke: #000000"/>
     <use xlink:href="#m41ed99a8d6" x="170.556432" y="131.323206" style="stroke: #000000"/>
     <use xlink:href="#m41ed99a8d6" x="92.290909" y="130.107509" style="stroke: #000000"/>
     <use xlink:href="#m41ed99a8d6" x="163.460346" y="66.96" style="stroke: #000000"/>
     <use xlink:href="#m41ed99a8d6" x="154.376587" y="121.786915" style="stroke: #000000"/>
     <use xlink:href="#m41ed99a8d6" x="160.046014" y="159.07614" style="stroke: #000000"/>
     <use xlink:href="#m41ed99a8d6" x="202.392862" y="110.363814" style="stroke: #000000"/>
     <use xlink:href="#m41ed99a8d6" x="189.741654" y="152.499771" style="stroke: #000000"/>
     <use xlink:href="#m41ed99a8d6" x="211.742034" y="164.990091" style="stroke: #000000"/>
     <use xlink:href="#m41ed99a8d6" x="182.399058" y="73.878665" style="stroke: #000000"/>
     <use xlink:href="#m41ed99a8d6" x="125.672368" y="143.79801" style="stroke: #000000"/>
     <use xlink:href="#m41ed99a8d6" x="164.878021" y="142.204658" style="stroke: #000000"/>
     <use xlink:href="#m41ed99a8d6" x="105.52891" y="127.696082" style="stroke: #000000"/>
     <use xlink:href="#m41ed99a8d6" x="123.091448" y="117.423348" style="stroke: #000000"/>
     <use xlink:href="#m41ed99a8d6" x="128.229722" y="90.12416" style="stroke: #000000"/>
     <use xlink:href="#m41ed99a8d6" x="133.126742" y="137.603464" style="stroke: #000000"/>
     <use xlink:href="#m41ed99a8d6" x="190.550276" y="160.653366" style="stroke: #000000"/>
     <use xlink:href="#m41ed99a8d6" x="169.474311" y="96.282068" style="stroke: #000000"/>
     <use xlink:href="#m41ed99a8d6" x="103.48554" y="124.752184" style="stroke: #000000"/>
     <use xlink:href="#m41ed99a8d6" x="170.640311" y="109.60572" style="stroke: #000000"/>
     <use xlink:href="#m41ed99a8d6" x="116.81074" y="162.92569" style="stroke: #000000"/>
     <use xlink:href="#m41ed99a8d6" x="180.064546" y="121.902638" style="stroke: #000000"/>
     <use xlink:href="#m41ed99a8d6" x="440.019853" y="310.87008" style="stroke: #000000"/>
     <use xlink:href="#m41ed99a8d6" x="406.556304" y="313.766387" style="stroke: #000000"/>
     <use xlink:href="#m41ed99a8d6" x="441.551114" y="337.775068" style="stroke: #000000"/>
     <use xlink:href="#m41ed99a8d6" x="498.109091" y="307.63923" style="stroke: #000000"/>
     <use xlink:href="#m41ed99a8d6" x="388.169544" y="303.004898" style="stroke: #000000"/>
     <use xlink:href="#m41ed99a8d6" x="395.959763" y="299.694249" style="stroke: #000000"/>
     <use xlink:href="#m41ed99a8d6" x="472.677312" y="340.471931" style="stroke: #000000"/>
     <use xlink:href="#m41ed99a8d6" x="465.656773" y="309.187688" style="stroke: #000000"/>
     <use xlink:href="#m41ed99a8d6" x="460.574726" y="271.548792" style="stroke: #000000"/>
     <use xlink:href="#m41ed99a8d6" x="422.186834" y="338.77398" style="stroke: #000000"/>
     <use xlink:href="#m41ed99a8d6" x="399.022572" y="340.348362" style="stroke: #000000"/>
     <use xlink:href="#m41ed99a8d6" x="428.2388" y="311.004408" style="stroke: #000000"/>
     <use xlink:href="#m41ed99a8d6" x="440.961991" y="298.67723" style="stroke: #000000"/>
     <use xlink:href="#m41ed99a8d6" x="431.479132" y="282.791137" style="stroke: #000000"/>
     <use xlink:href="#m41ed99a8d6" x="421.493887" y="250.665559" style="stroke: #000000"/>
     <use xlink:href="#m41ed99a8d6" x="453.511989" y="341.39705" style="stroke: #000000"/>
     <use xlink:href="#m41ed99a8d6" x="392.499801" y="307.420107" style="stroke: #000000"/>
     <use xlink:href="#m41ed99a8d6" x="422.975319" y="301.547877" style="stroke: #000000"/>
     <use xlink:href="#m41ed99a8d6" x="448.030266" y="321.504177" style="stroke: #000000"/>
     <use xlink:href="#m41ed99a8d6" x="400.558907" y="358.077988" style="stroke: #000000"/>
     <use xlink:href="#m41ed99a8d6" x="414.953851" y="297.936238" style="stroke: #000000"/>
     <use xlink:href="#m41ed99a8d6" x="438.710857" y="351.252609" style="stroke: #000000"/>
     <use xlink:href="#m41ed99a8d6" x="437.239538" y="309.884244" style="stroke: #000000"/>
     <use xlink:href="#m41ed99a8d6" x="399.226011" y="315.758103" style="stroke: #000000"/>
     <use xlink:href="#m41ed99a8d6" x="433.104874" y="348.646099" style="stroke: #000000"/>
    </g>
   </g>
   <g id="matplotlib.axis_1">
    <g id="xtick_1">
     <g id="line2d_1">
      <path d="M 161.294329 384.48 
L 161.294329 51.84 
" clip-path="url(#p67a955e460)" style="fill: none; stroke: #b0b0b0; stroke-width: 0.8; stroke-linecap: square"/>
     </g>
     <g id="line2d_2">
      <defs>
       <path id="m4c4190e10b" d="M 0 0 
L 0 3.5 
" style="stroke: #000000; stroke-width: 0.8"/>
      </defs>
      <g>
       <use xlink:href="#m4c4190e10b" x="161.294329" y="384.48" style="stroke: #000000; stroke-width: 0.8"/>
      </g>
     </g>
     <g id="text_1">
      <!-- 2 -->
      <g transform="translate(158.113079 399.078438) scale(0.1 -0.1)">
       <defs>
        <path id="DejaVuSans-32" d="M 1228 531 
L 3431 531 
L 3431 0 
L 469 0 
L 469 531 
Q 828 903 1448 1529 
Q 2069 2156 2228 2338 
Q 2531 2678 2651 2914 
Q 2772 3150 2772 3378 
Q 2772 3750 2511 3984 
Q 2250 4219 1831 4219 
Q 1534 4219 1204 4116 
Q 875 4013 500 3803 
L 500 4441 
Q 881 4594 1212 4672 
Q 1544 4750 1819 4750 
Q 2544 4750 2975 4387 
Q 3406 4025 3406 3419 
Q 3406 3131 3298 2873 
Q 3191 2616 2906 2266 
Q 2828 2175 2409 1742 
Q 1991 1309 1228 531 
z
" transform="scale(0.015625)"/>
       </defs>
       <use xlink:href="#DejaVuSans-32"/>
      </g>
     </g>
    </g>
    <g id="xtick_2">
     <g id="line2d_3">
      <path d="M 251.200071 384.48 
L 251.200071 51.84 
" clip-path="url(#p67a955e460)" style="fill: none; stroke: #b0b0b0; stroke-width: 0.8; stroke-linecap: square"/>
     </g>
     <g id="line2d_4">
      <g>
       <use xlink:href="#m4c4190e10b" x="251.200071" y="384.48" style="stroke: #000000; stroke-width: 0.8"/>
      </g>
     </g>
     <g id="text_2">
      <!-- 4 -->
      <g transform="translate(248.018821 399.078438) scale(0.1 -0.1)">
       <defs>
        <path id="DejaVuSans-34" d="M 2419 4116 
L 825 1625 
L 2419 1625 
L 2419 4116 
z
M 2253 4666 
L 3047 4666 
L 3047 1625 
L 3713 1625 
L 3713 1100 
L 3047 1100 
L 3047 0 
L 2419 0 
L 2419 1100 
L 313 1100 
L 313 1709 
L 2253 4666 
z
" transform="scale(0.015625)"/>
       </defs>
       <use xlink:href="#DejaVuSans-34"/>
      </g>
     </g>
    </g>
    <g id="xtick_3">
     <g id="line2d_5">
      <path d="M 341.105813 384.48 
L 341.105813 51.84 
" clip-path="url(#p67a955e460)" style="fill: none; stroke: #b0b0b0; stroke-width: 0.8; stroke-linecap: square"/>
     </g>
     <g id="line2d_6">
      <g>
       <use xlink:href="#m4c4190e10b" x="341.105813" y="384.48" style="stroke: #000000; stroke-width: 0.8"/>
      </g>
     </g>
     <g id="text_3">
      <!-- 6 -->
      <g transform="translate(337.924563 399.078438) scale(0.1 -0.1)">
       <defs>
        <path id="DejaVuSans-36" d="M 2113 2584 
Q 1688 2584 1439 2293 
Q 1191 2003 1191 1497 
Q 1191 994 1439 701 
Q 1688 409 2113 409 
Q 2538 409 2786 701 
Q 3034 994 3034 1497 
Q 3034 2003 2786 2293 
Q 2538 2584 2113 2584 
z
M 3366 4563 
L 3366 3988 
Q 3128 4100 2886 4159 
Q 2644 4219 2406 4219 
Q 1781 4219 1451 3797 
Q 1122 3375 1075 2522 
Q 1259 2794 1537 2939 
Q 1816 3084 2150 3084 
Q 2853 3084 3261 2657 
Q 3669 2231 3669 1497 
Q 3669 778 3244 343 
Q 2819 -91 2113 -91 
Q 1303 -91 875 529 
Q 447 1150 447 2328 
Q 447 3434 972 4092 
Q 1497 4750 2381 4750 
Q 2619 4750 2861 4703 
Q 3103 4656 3366 4563 
z
" transform="scale(0.015625)"/>
       </defs>
       <use xlink:href="#DejaVuSans-36"/>
      </g>
     </g>
    </g>
    <g id="xtick_4">
     <g id="line2d_7">
      <path d="M 431.011554 384.48 
L 431.011554 51.84 
" clip-path="url(#p67a955e460)" style="fill: none; stroke: #b0b0b0; stroke-width: 0.8; stroke-linecap: square"/>
     </g>
     <g id="line2d_8">
      <g>
       <use xlink:href="#m4c4190e10b" x="431.011554" y="384.48" style="stroke: #000000; stroke-width: 0.8"/>
      </g>
     </g>
     <g id="text_4">
      <!-- 8 -->
      <g transform="translate(427.830304 399.078438) scale(0.1 -0.1)">
       <defs>
        <path id="DejaVuSans-38" d="M 2034 2216 
Q 1584 2216 1326 1975 
Q 1069 1734 1069 1313 
Q 1069 891 1326 650 
Q 1584 409 2034 409 
Q 2484 409 2743 651 
Q 3003 894 3003 1313 
Q 3003 1734 2745 1975 
Q 2488 2216 2034 2216 
z
M 1403 2484 
Q 997 2584 770 2862 
Q 544 3141 544 3541 
Q 544 4100 942 4425 
Q 1341 4750 2034 4750 
Q 2731 4750 3128 4425 
Q 3525 4100 3525 3541 
Q 3525 3141 3298 2862 
Q 3072 2584 2669 2484 
Q 3125 2378 3379 2068 
Q 3634 1759 3634 1313 
Q 3634 634 3220 271 
Q 2806 -91 2034 -91 
Q 1263 -91 848 271 
Q 434 634 434 1313 
Q 434 1759 690 2068 
Q 947 2378 1403 2484 
z
M 1172 3481 
Q 1172 3119 1398 2916 
Q 1625 2713 2034 2713 
Q 2441 2713 2670 2916 
Q 2900 3119 2900 3481 
Q 2900 3844 2670 4047 
Q 2441 4250 2034 4250 
Q 1625 4250 1398 4047 
Q 1172 3844 1172 3481 
z
" transform="scale(0.015625)"/>
       </defs>
       <use xlink:href="#DejaVuSans-38"/>
      </g>
     </g>
    </g>
    <g id="text_5">
     <!-- Merkmal 1 -->
     <g transform="translate(268.764844 412.756563) scale(0.1 -0.1)">
      <defs>
       <path id="DejaVuSans-4d" d="M 628 4666 
L 1569 4666 
L 2759 1491 
L 3956 4666 
L 4897 4666 
L 4897 0 
L 4281 0 
L 4281 4097 
L 3078 897 
L 2444 897 
L 1241 4097 
L 1241 0 
L 628 0 
L 628 4666 
z
" transform="scale(0.015625)"/>
       <path id="DejaVuSans-65" d="M 3597 1894 
L 3597 1613 
L 953 1613 
Q 991 1019 1311 708 
Q 1631 397 2203 397 
Q 2534 397 2845 478 
Q 3156 559 3463 722 
L 3463 178 
Q 3153 47 2828 -22 
Q 2503 -91 2169 -91 
Q 1331 -91 842 396 
Q 353 884 353 1716 
Q 353 2575 817 3079 
Q 1281 3584 2069 3584 
Q 2775 3584 3186 3129 
Q 3597 2675 3597 1894 
z
M 3022 2063 
Q 3016 2534 2758 2815 
Q 2500 3097 2075 3097 
Q 1594 3097 1305 2825 
Q 1016 2553 972 2059 
L 3022 2063 
z
" transform="scale(0.015625)"/>
       <path id="DejaVuSans-72" d="M 2631 2963 
Q 2534 3019 2420 3045 
Q 2306 3072 2169 3072 
Q 1681 3072 1420 2755 
Q 1159 2438 1159 1844 
L 1159 0 
L 581 0 
L 581 3500 
L 1159 3500 
L 1159 2956 
Q 1341 3275 1631 3429 
Q 1922 3584 2338 3584 
Q 2397 3584 2469 3576 
Q 2541 3569 2628 3553 
L 2631 2963 
z
" transform="scale(0.015625)"/>
       <path id="DejaVuSans-6b" d="M 581 4863 
L 1159 4863 
L 1159 1991 
L 2875 3500 
L 3609 3500 
L 1753 1863 
L 3688 0 
L 2938 0 
L 1159 1709 
L 1159 0 
L 581 0 
L 581 4863 
z
" transform="scale(0.015625)"/>
       <path id="DejaVuSans-6d" d="M 3328 2828 
Q 3544 3216 3844 3400 
Q 4144 3584 4550 3584 
Q 5097 3584 5394 3201 
Q 5691 2819 5691 2113 
L 5691 0 
L 5113 0 
L 5113 2094 
Q 5113 2597 4934 2840 
Q 4756 3084 4391 3084 
Q 3944 3084 3684 2787 
Q 3425 2491 3425 1978 
L 3425 0 
L 2847 0 
L 2847 2094 
Q 2847 2600 2669 2842 
Q 2491 3084 2119 3084 
Q 1678 3084 1418 2786 
Q 1159 2488 1159 1978 
L 1159 0 
L 581 0 
L 581 3500 
L 1159 3500 
L 1159 2956 
Q 1356 3278 1631 3431 
Q 1906 3584 2284 3584 
Q 2666 3584 2933 3390 
Q 3200 3197 3328 2828 
z
" transform="scale(0.015625)"/>
       <path id="DejaVuSans-61" d="M 2194 1759 
Q 1497 1759 1228 1600 
Q 959 1441 959 1056 
Q 959 750 1161 570 
Q 1363 391 1709 391 
Q 2188 391 2477 730 
Q 2766 1069 2766 1631 
L 2766 1759 
L 2194 1759 
z
M 3341 1997 
L 3341 0 
L 2766 0 
L 2766 531 
Q 2569 213 2275 61 
Q 1981 -91 1556 -91 
Q 1019 -91 701 211 
Q 384 513 384 1019 
Q 384 1609 779 1909 
Q 1175 2209 1959 2209 
L 2766 2209 
L 2766 2266 
Q 2766 2663 2505 2880 
Q 2244 3097 1772 3097 
Q 1472 3097 1187 3025 
Q 903 2953 641 2809 
L 641 3341 
Q 956 3463 1253 3523 
Q 1550 3584 1831 3584 
Q 2591 3584 2966 3190 
Q 3341 2797 3341 1997 
z
" transform="scale(0.015625)"/>
       <path id="DejaVuSans-6c" d="M 603 4863 
L 1178 4863 
L 1178 0 
L 603 0 
L 603 4863 
z
" transform="scale(0.015625)"/>
       <path id="DejaVuSans-20" transform="scale(0.015625)"/>
       <path id="DejaVuSans-31" d="M 794 531 
L 1825 531 
L 1825 4091 
L 703 3866 
L 703 4441 
L 1819 4666 
L 2450 4666 
L 2450 531 
L 3481 531 
L 3481 0 
L 794 0 
L 794 531 
z
" transform="scale(0.015625)"/>
      </defs>
      <use xlink:href="#DejaVuSans-4d"/>
      <use xlink:href="#DejaVuSans-65" x="86.279297"/>
      <use xlink:href="#DejaVuSans-72" x="147.802734"/>
      <use xlink:href="#DejaVuSans-6b" x="188.916016"/>
      <use xlink:href="#DejaVuSans-6d" x="246.826172"/>
      <use xlink:href="#DejaVuSans-61" x="344.238281"/>
      <use xlink:href="#DejaVuSans-6c" x="405.517578"/>
      <use xlink:href="#DejaVuSans-20" x="433.300781"/>
      <use xlink:href="#DejaVuSans-31" x="465.087891"/>
     </g>
    </g>
   </g>
   <g id="matplotlib.axis_2">
    <g id="ytick_1">
     <g id="line2d_9">
      <path d="M 72 383.064349 
L 518.4 383.064349 
" clip-path="url(#p67a955e460)" style="fill: none; stroke: #b0b0b0; stroke-width: 0.8; stroke-linecap: square"/>
     </g>
     <g id="line2d_10">
      <defs>
       <path id="m34f1473416" d="M 0 0 
L -3.5 0 
" style="stroke: #000000; stroke-width: 0.8"/>
      </defs>
      <g>
       <use xlink:href="#m34f1473416" x="72" y="383.064349" style="stroke: #000000; stroke-width: 0.8"/>
      </g>
     </g>
     <g id="text_6">
      <!-- 0 -->
      <g transform="translate(58.6375 386.863568) scale(0.1 -0.1)">
       <defs>
        <path id="DejaVuSans-30" d="M 2034 4250 
Q 1547 4250 1301 3770 
Q 1056 3291 1056 2328 
Q 1056 1369 1301 889 
Q 1547 409 2034 409 
Q 2525 409 2770 889 
Q 3016 1369 3016 2328 
Q 3016 3291 2770 3770 
Q 2525 4250 2034 4250 
z
M 2034 4750 
Q 2819 4750 3233 4129 
Q 3647 3509 3647 2328 
Q 3647 1150 3233 529 
Q 2819 -91 2034 -91 
Q 1250 -91 836 529 
Q 422 1150 422 2328 
Q 422 3509 836 4129 
Q 1250 4750 2034 4750 
z
" transform="scale(0.015625)"/>
       </defs>
       <use xlink:href="#DejaVuSans-30"/>
      </g>
     </g>
    </g>
    <g id="ytick_2">
     <g id="line2d_11">
      <path d="M 72 319.657022 
L 518.4 319.657022 
" clip-path="url(#p67a955e460)" style="fill: none; stroke: #b0b0b0; stroke-width: 0.8; stroke-linecap: square"/>
     </g>
     <g id="line2d_12">
      <g>
       <use xlink:href="#m34f1473416" x="72" y="319.657022" style="stroke: #000000; stroke-width: 0.8"/>
      </g>
     </g>
     <g id="text_7">
      <!-- 2 -->
      <g transform="translate(58.6375 323.456241) scale(0.1 -0.1)">
       <use xlink:href="#DejaVuSans-32"/>
      </g>
     </g>
    </g>
    <g id="ytick_3">
     <g id="line2d_13">
      <path d="M 72 256.249695 
L 518.4 256.249695 
" clip-path="url(#p67a955e460)" style="fill: none; stroke: #b0b0b0; stroke-width: 0.8; stroke-linecap: square"/>
     </g>
     <g id="line2d_14">
      <g>
       <use xlink:href="#m34f1473416" x="72" y="256.249695" style="stroke: #000000; stroke-width: 0.8"/>
      </g>
     </g>
     <g id="text_8">
      <!-- 4 -->
      <g transform="translate(58.6375 260.048913) scale(0.1 -0.1)">
       <use xlink:href="#DejaVuSans-34"/>
      </g>
     </g>
    </g>
    <g id="ytick_4">
     <g id="line2d_15">
      <path d="M 72 192.842367 
L 518.4 192.842367 
" clip-path="url(#p67a955e460)" style="fill: none; stroke: #b0b0b0; stroke-width: 0.8; stroke-linecap: square"/>
     </g>
     <g id="line2d_16">
      <g>
       <use xlink:href="#m34f1473416" x="72" y="192.842367" style="stroke: #000000; stroke-width: 0.8"/>
      </g>
     </g>
     <g id="text_9">
      <!-- 6 -->
      <g transform="translate(58.6375 196.641586) scale(0.1 -0.1)">
       <use xlink:href="#DejaVuSans-36"/>
      </g>
     </g>
    </g>
    <g id="ytick_5">
     <g id="line2d_17">
      <path d="M 72 129.43504 
L 518.4 129.43504 
" clip-path="url(#p67a955e460)" style="fill: none; stroke: #b0b0b0; stroke-width: 0.8; stroke-linecap: square"/>
     </g>
     <g id="line2d_18">
      <g>
       <use xlink:href="#m34f1473416" x="72" y="129.43504" style="stroke: #000000; stroke-width: 0.8"/>
      </g>
     </g>
     <g id="text_10">
      <!-- 8 -->
      <g transform="translate(58.6375 133.234258) scale(0.1 -0.1)">
       <use xlink:href="#DejaVuSans-38"/>
      </g>
     </g>
    </g>
    <g id="ytick_6">
     <g id="line2d_19">
      <path d="M 72 66.027712 
L 518.4 66.027712 
" clip-path="url(#p67a955e460)" style="fill: none; stroke: #b0b0b0; stroke-width: 0.8; stroke-linecap: square"/>
     </g>
     <g id="line2d_20">
      <g>
       <use xlink:href="#m34f1473416" x="72" y="66.027712" style="stroke: #000000; stroke-width: 0.8"/>
      </g>
     </g>
     <g id="text_11">
      <!-- 10 -->
      <g transform="translate(52.275 69.826931) scale(0.1 -0.1)">
       <use xlink:href="#DejaVuSans-31"/>
       <use xlink:href="#DejaVuSans-30" x="63.623047"/>
      </g>
     </g>
    </g>
    <g id="text_12">
     <!-- Merkmal 2 -->
     <g transform="translate(46.195312 244.595156) rotate(-90) scale(0.1 -0.1)">
      <use xlink:href="#DejaVuSans-4d"/>
      <use xlink:href="#DejaVuSans-65" x="86.279297"/>
      <use xlink:href="#DejaVuSans-72" x="147.802734"/>
      <use xlink:href="#DejaVuSans-6b" x="188.916016"/>
      <use xlink:href="#DejaVuSans-6d" x="246.826172"/>
      <use xlink:href="#DejaVuSans-61" x="344.238281"/>
      <use xlink:href="#DejaVuSans-6c" x="405.517578"/>
      <use xlink:href="#DejaVuSans-20" x="433.300781"/>
      <use xlink:href="#DejaVuSans-32" x="465.087891"/>
     </g>
    </g>
   </g>
   <g id="patch_3">
    <path d="M 72 384.48 
L 72 51.84 
" style="fill: none; stroke: #000000; stroke-width: 0.8; stroke-linejoin: miter; stroke-linecap: square"/>
   </g>
   <g id="patch_4">
    <path d="M 518.4 384.48 
L 518.4 51.84 
" style="fill: none; stroke: #000000; stroke-width: 0.8; stroke-linejoin: miter; stroke-linecap: square"/>
   </g>
   <g id="patch_5">
    <path d="M 72 384.48 
L 518.4 384.48 
" style="fill: none; stroke: #000000; stroke-width: 0.8; stroke-linejoin: miter; stroke-linecap: square"/>
   </g>
   <g id="patch_6">
    <path d="M 72 51.84 
L 518.4 51.84 
" style="fill: none; stroke: #000000; stroke-width: 0.8; stroke-linejoin: miter; stroke-linecap: square"/>
   </g>
  </g>
 </g>
 <defs>
  <clipPath id="p67a955e460">
   <rect x="72" y="51.84" width="446.4" height="332.64"/>
  </clipPath>
 </defs>
</svg>
