<?xml version="1.0" encoding="UTF-8" standalone="no"?>
<!DOCTYPE svg PUBLIC "-//W3C//DTD SVG 1.1//EN"
 "http://www.w3.org/Graphics/SVG/1.1/DTD/svg11.dtd">
<!-- Generated by graphviz version 2.50.0 (0)
 -->
<!-- Pages: 1 -->
<svg width="305pt" height="164pt"
 viewBox="0.00 0.00 305.15 164.30" xmlns="http://www.w3.org/2000/svg" xmlns:xlink="http://www.w3.org/1999/xlink">
<g id="graph0" class="graph" transform="scale(1 1) rotate(0) translate(4 160.3)">
<polygon fill="white" stroke="transparent" points="-4,4 -4,-160.3 301.15,-160.3 301.15,4 -4,4"/>
<!-- 4442808800 -->
<g id="node1" class="node">
<title>4442808800</title>
<ellipse fill="antiquewhite" stroke="black" cx="146" cy="-138.3" rx="18" ry="18"/>
<text text-anchor="middle" x="146" y="-134.6" font-family="Helvetica,sans-Serif" font-size="14.00">A</text>
</g>
<!-- 4441893984 -->
<g id="node2" class="node">
<title>4441893984</title>
<ellipse fill="antiquewhite" stroke="black" cx="66" cy="-80.3" rx="18" ry="18"/>
<text text-anchor="middle" x="66" y="-76.6" font-family="Helvetica,sans-Serif" font-size="14.00">B</text>
</g>
<!-- 4442808800&#45;&gt;4441893984 -->
<g id="edge1" class="edge">
<title>4442808800&#45;&gt;4441893984</title>
<path fill="none" stroke="black" d="M131.7,-127.28C118.58,-118.1 99.08,-104.45 84.72,-94.4"/>
<polygon fill="black" stroke="black" points="85.55,-92.84 80.45,-91.41 83.54,-95.71 85.55,-92.84"/>
</g>
<!-- 325274 -->
<!-- 4442808800&#45;&gt;325274 -->
<!-- 4442800448 -->
<g id="node4" class="node">
<title>4442800448</title>
<ellipse fill="antiquewhite" stroke="black" cx="227" cy="-80.3" rx="18" ry="18"/>
<text text-anchor="middle" x="227" y="-76.6" font-family="Helvetica,sans-Serif" font-size="14.00">I</text>
</g>
<!-- 4442808800&#45;&gt;4442800448 -->
<g id="edge3" class="edge">
<title>4442808800&#45;&gt;4442800448</title>
<path fill="none" stroke="black" d="M160.48,-127.28C173.84,-118.05 193.76,-104.28 208.31,-94.22"/>
<polygon fill="black" stroke="black" points="209.53,-95.5 212.64,-91.22 207.54,-92.63 209.53,-95.5"/>
</g>
<!-- 4442810912 -->
<g id="node5" class="node">
<title>4442810912</title>
<ellipse fill="antiquewhite" stroke="black" cx="18" cy="-20.15" rx="18" ry="18"/>
<text text-anchor="middle" x="18" y="-16.45" font-family="Helvetica,sans-Serif" font-size="14.00">T</text>
</g>
<!-- 4441893984&#45;&gt;4442810912 -->
<g id="edge4" class="edge">
<title>4441893984&#45;&gt;4442810912</title>
<path fill="none" stroke="black" d="M54.87,-65.81C48.2,-57.74 39.66,-47.39 32.48,-38.68"/>
<polygon fill="black" stroke="black" points="33.61,-37.3 29.07,-34.56 30.91,-39.53 33.61,-37.3"/>
</g>
<!-- 170502 -->
<!-- 4441893984&#45;&gt;170502 -->
<!-- 4442812832 -->
<g id="node7" class="node">
<title>4442812832</title>
<ellipse fill="antiquewhite" stroke="black" cx="114" cy="-20.15" rx="18" ry="18"/>
<text text-anchor="middle" x="114" y="-16.45" font-family="Helvetica,sans-Serif" font-size="14.00">U</text>
</g>
<!-- 4441893984&#45;&gt;4442812832 -->
<g id="edge6" class="edge">
<title>4441893984&#45;&gt;4442812832</title>
<path fill="none" stroke="black" d="M77.13,-65.81C83.8,-57.74 92.34,-47.39 99.52,-38.68"/>
<polygon fill="black" stroke="black" points="101.09,-39.53 102.93,-34.56 98.39,-37.3 101.09,-39.53"/>
</g>
<!-- 4442800976 -->
<g id="node8" class="node">
<title>4442800976</title>
<ellipse fill="antiquewhite" stroke="black" cx="179" cy="-20.15" rx="18" ry="18"/>
<text text-anchor="middle" x="179" y="-16.45" font-family="Helvetica,sans-Serif" font-size="14.00">R</text>
</g>
<!-- 4442800448&#45;&gt;4442800976 -->
<g id="edge7" class="edge">
<title>4442800448&#45;&gt;4442800976</title>
<path fill="none" stroke="black" d="M215.87,-65.81C209.2,-57.74 200.66,-47.39 193.48,-38.68"/>
<polygon fill="black" stroke="black" points="194.61,-37.3 190.07,-34.56 191.91,-39.53 194.61,-37.3"/>
</g>
<!-- 545665 -->
<!-- 4442800448&#45;&gt;545665 -->
<!-- 4442810960 -->
<g id="node10" class="node">
<title>4442810960</title>
<ellipse fill="antiquewhite" stroke="black" cx="277" cy="-20.15" rx="20.3" ry="20.3"/>
<text text-anchor="middle" x="277" y="-16.45" font-family="Helvetica,sans-Serif" font-size="14.00">â¤ï¸</text>
</g>
<!-- 4442800448&#45;&gt;4442810960 -->
<g id="edge9" class="edge">
<title>4442800448&#45;&gt;4442810960</title>
<path fill="none" stroke="black" d="M238.35,-66.1C244.98,-58.38 253.47,-48.51 260.8,-39.99"/>
<polygon fill="black" stroke="black" points="262.36,-40.86 264.29,-35.93 259.71,-38.58 262.36,-40.86"/>
</g>
</g>
</svg>
