<?xml version="1.0" encoding="UTF-8" standalone="no"?>
<!DOCTYPE svg PUBLIC "-//W3C//DTD SVG 1.1//EN"
 "http://www.w3.org/Graphics/SVG/1.1/DTD/svg11.dtd">
<!-- Generated by graphviz version 2.50.0 (0)
 -->
<!-- Pages: 1 -->
<svg width="727pt" height="188pt"
 viewBox="0.00 0.00 727.39 188.00" xmlns="http://www.w3.org/2000/svg" xmlns:xlink="http://www.w3.org/1999/xlink">
<g id="graph0" class="graph" transform="scale(1 1) rotate(0) translate(4 184)">
<polygon fill="white" stroke="transparent" points="-4,4 -4,-184 723.39,-184 723.39,4 -4,4"/>
<!-- 4647399936 -->
<g id="node1" class="node">
<title>4647399936</title>
<ellipse fill="none" stroke="black" cx="689.5" cy="-18" rx="29.8" ry="18"/>
<text text-anchor="middle" x="689.5" y="-14.3" font-family="Times,serif" font-size="14.00">Tiger</text>
</g>
<!-- 4647389232 -->
<g id="node2" class="node">
<title>4647389232</title>
<ellipse fill="none" stroke="black" cx="611.5" cy="-18" rx="30.59" ry="18"/>
<text text-anchor="middle" x="611.5" y="-14.3" font-family="Times,serif" font-size="14.00">Löwe</text>
</g>
<!-- 4647397440 -->
<g id="node3" class="node">
<title>4647397440</title>
<ellipse fill="none" stroke="black" cx="360.5" cy="-90" rx="27" ry="18"/>
<text text-anchor="middle" x="360.5" y="-86.3" font-family="Times,serif" font-size="14.00">Affe</text>
</g>
<!-- 4647398160 -->
<g id="node6" class="node">
<title>4647398160</title>
<ellipse fill="none" stroke="black" cx="414.5" cy="-18" rx="36" ry="18"/>
<text text-anchor="middle" x="414.5" y="-14.3" font-family="Times,serif" font-size="14.00">Gorilla</text>
</g>
<!-- 4647397440&#45;&gt;4647398160 -->
<g id="edge8" class="edge">
<title>4647397440&#45;&gt;4647398160</title>
<path fill="none" stroke="black" d="M372.48,-73.46C379.38,-64.53 388.18,-53.11 395.95,-43.04"/>
<polygon fill="black" stroke="black" points="398.84,-45.03 402.17,-34.98 393.29,-40.76 398.84,-45.03"/>
</g>
<!-- 4647397200 -->
<g id="node8" class="node">
<title>4647397200</title>
<ellipse fill="none" stroke="black" cx="306.5" cy="-18" rx="53.89" ry="18"/>
<text text-anchor="middle" x="306.5" y="-14.3" font-family="Times,serif" font-size="14.00">Schimpanse</text>
</g>
<!-- 4647397440&#45;&gt;4647397200 -->
<g id="edge7" class="edge">
<title>4647397440&#45;&gt;4647397200</title>
<path fill="none" stroke="black" d="M348.51,-73.46C341.81,-64.78 333.3,-53.75 325.7,-43.89"/>
<polygon fill="black" stroke="black" points="328.46,-41.74 319.58,-35.96 322.92,-46.02 328.46,-41.74"/>
</g>
<!-- 4647396000 -->
<g id="node4" class="node">
<title>4647396000</title>
<ellipse fill="none" stroke="black" cx="360.5" cy="-162" rx="44.39" ry="18"/>
<text text-anchor="middle" x="360.5" y="-158.3" font-family="Times,serif" font-size="14.00">Säugetier</text>
</g>
<!-- 4647396000&#45;&gt;4647397440 -->
<g id="edge2" class="edge">
<title>4647396000&#45;&gt;4647397440</title>
<path fill="none" stroke="black" d="M360.5,-143.7C360.5,-135.98 360.5,-126.71 360.5,-118.11"/>
<polygon fill="black" stroke="black" points="364,-118.1 360.5,-108.1 357,-118.1 364,-118.1"/>
</g>
<!-- 4647391008 -->
<g id="node7" class="node">
<title>4647391008</title>
<ellipse fill="none" stroke="black" cx="161.5" cy="-90" rx="30.59" ry="18"/>
<text text-anchor="middle" x="161.5" y="-86.3" font-family="Times,serif" font-size="14.00">Hund</text>
</g>
<!-- 4647396000&#45;&gt;4647391008 -->
<g id="edge1" class="edge">
<title>4647396000&#45;&gt;4647391008</title>
<path fill="none" stroke="black" d="M328.08,-149.6C292.14,-136.96 234.35,-116.63 197.15,-103.54"/>
<polygon fill="black" stroke="black" points="197.84,-100.07 187.24,-100.06 195.52,-106.68 197.84,-100.07"/>
</g>
<!-- 4647399264 -->
<g id="node10" class="node">
<title>4647399264</title>
<ellipse fill="none" stroke="black" cx="563.5" cy="-90" rx="31.4" ry="18"/>
<text text-anchor="middle" x="563.5" y="-86.3" font-family="Times,serif" font-size="14.00">Katze</text>
</g>
<!-- 4647396000&#45;&gt;4647399264 -->
<g id="edge3" class="edge">
<title>4647396000&#45;&gt;4647399264</title>
<path fill="none" stroke="black" d="M393.11,-149.75C429.94,-137.05 489.69,-116.45 527.76,-103.32"/>
<polygon fill="black" stroke="black" points="529.1,-106.56 537.42,-99.99 526.82,-99.94 529.1,-106.56"/>
</g>
<!-- 4647402720 -->
<g id="node5" class="node">
<title>4647402720</title>
<ellipse fill="none" stroke="black" cx="118.5" cy="-18" rx="36" ry="18"/>
<text text-anchor="middle" x="118.5" y="-14.3" font-family="Times,serif" font-size="14.00">Dackel</text>
</g>
<!-- 4647391008&#45;&gt;4647402720 -->
<g id="edge5" class="edge">
<title>4647391008&#45;&gt;4647402720</title>
<path fill="none" stroke="black" d="M151.52,-72.76C146.33,-64.32 139.87,-53.8 134.05,-44.31"/>
<polygon fill="black" stroke="black" points="136.93,-42.32 128.71,-35.63 130.97,-45.99 136.93,-42.32"/>
</g>
<!-- 4647402336 -->
<g id="node9" class="node">
<title>4647402336</title>
<ellipse fill="none" stroke="black" cx="32.5" cy="-18" rx="32.49" ry="18"/>
<text text-anchor="middle" x="32.5" y="-14.3" font-family="Times,serif" font-size="14.00">Collie</text>
</g>
<!-- 4647391008&#45;&gt;4647402336 -->
<g id="edge4" class="edge">
<title>4647391008&#45;&gt;4647402336</title>
<path fill="none" stroke="black" d="M139.61,-77.13C118.8,-65.83 87.27,-48.72 63.8,-35.98"/>
<polygon fill="black" stroke="black" points="65.38,-32.86 54.92,-31.17 62.04,-39.01 65.38,-32.86"/>
</g>
<!-- 4647391728 -->
<g id="node12" class="node">
<title>4647391728</title>
<ellipse fill="none" stroke="black" cx="203.5" cy="-18" rx="31.4" ry="18"/>
<text text-anchor="middle" x="203.5" y="-14.3" font-family="Times,serif" font-size="14.00">Mops</text>
</g>
<!-- 4647391008&#45;&gt;4647391728 -->
<g id="edge6" class="edge">
<title>4647391008&#45;&gt;4647391728</title>
<path fill="none" stroke="black" d="M171.24,-72.76C176.38,-64.19 182.8,-53.49 188.56,-43.9"/>
<polygon fill="black" stroke="black" points="191.66,-45.52 193.81,-35.15 185.66,-41.92 191.66,-45.52"/>
</g>
<!-- 4647399264&#45;&gt;4647399936 -->
<g id="edge11" class="edge">
<title>4647399264&#45;&gt;4647399936</title>
<path fill="none" stroke="black" d="M585.16,-76.97C605.56,-65.63 636.33,-48.53 659.18,-35.84"/>
<polygon fill="black" stroke="black" points="661.08,-38.79 668.12,-30.88 657.68,-32.67 661.08,-38.79"/>
</g>
<!-- 4647399264&#45;&gt;4647389232 -->
<g id="edge10" class="edge">
<title>4647399264&#45;&gt;4647389232</title>
<path fill="none" stroke="black" d="M574.39,-73.12C580.32,-64.47 587.79,-53.58 594.47,-43.83"/>
<polygon fill="black" stroke="black" points="597.55,-45.53 600.32,-35.31 591.77,-41.57 597.55,-45.53"/>
</g>
<!-- 4647397344 -->
<g id="node11" class="node">
<title>4647397344</title>
<ellipse fill="none" stroke="black" cx="515.5" cy="-18" rx="47.39" ry="18"/>
<text text-anchor="middle" x="515.5" y="-14.3" font-family="Times,serif" font-size="14.00">Hauskatze</text>
</g>
<!-- 4647399264&#45;&gt;4647397344 -->
<g id="edge9" class="edge">
<title>4647399264&#45;&gt;4647397344</title>
<path fill="none" stroke="black" d="M552.61,-73.12C546.76,-64.59 539.42,-53.89 532.81,-44.25"/>
<polygon fill="black" stroke="black" points="535.56,-42.07 527.02,-35.8 529.78,-46.02 535.56,-42.07"/>
</g>
</g>
</svg>
