<?xml version="1.0" encoding="UTF-8" standalone="no"?>
<!DOCTYPE svg PUBLIC "-//W3C//DTD SVG 1.1//EN"
 "http://www.w3.org/Graphics/SVG/1.1/DTD/svg11.dtd">
<!-- Generated by graphviz version 2.50.0 (0)
 -->
<!-- Pages: 1 -->
<svg width="170pt" height="260pt"
 viewBox="0.00 0.00 170.00 260.00" xmlns="http://www.w3.org/2000/svg" xmlns:xlink="http://www.w3.org/1999/xlink">
<g id="graph0" class="graph" transform="scale(1 1) rotate(0) translate(4 256)">
<polygon fill="white" stroke="transparent" points="-4,4 -4,-256 166,-256 166,4 -4,4"/>
<!-- 1229058341184 -->
<g id="node1" class="node">
<title>1229058341184</title>
<ellipse fill="none" stroke="black" cx="99" cy="-234" rx="27" ry="18"/>
<text text-anchor="middle" x="99" y="-230.3" font-family="Times New Roman,serif" font-size="14.00">+</text>
</g>
<!-- 1229058340656 -->
<g id="node2" class="node">
<title>1229058340656</title>
<ellipse fill="none" stroke="black" cx="63" cy="-162" rx="27" ry="18"/>
<text text-anchor="middle" x="63" y="-158.3" font-family="Times New Roman,serif" font-size="14.00">*</text>
</g>
<!-- 1229058341184&#45;&gt;1229058340656 -->
<g id="edge1" class="edge">
<title>1229058341184&#45;&gt;1229058340656</title>
<path fill="none" stroke="black" d="M90.65,-216.76C86.29,-208.28 80.85,-197.71 75.96,-188.2"/>
<polygon fill="black" stroke="black" points="78.99,-186.44 71.3,-179.15 72.77,-189.64 78.99,-186.44"/>
</g>
<!-- 1229058365904 -->
<g id="node7" class="node">
<title>1229058365904</title>
<ellipse fill="none" stroke="black" cx="135" cy="-162" rx="27" ry="18"/>
<text text-anchor="middle" x="135" y="-158.3" font-family="Times New Roman,serif" font-size="14.00">4</text>
</g>
<!-- 1229058341184&#45;&gt;1229058365904 -->
<g id="edge2" class="edge">
<title>1229058341184&#45;&gt;1229058365904</title>
<path fill="none" stroke="black" d="M107.35,-216.76C111.71,-208.28 117.15,-197.71 122.04,-188.2"/>
<polygon fill="black" stroke="black" points="125.23,-189.64 126.7,-179.15 119.01,-186.44 125.23,-189.64"/>
</g>
<!-- 1229058365760 -->
<g id="node3" class="node">
<title>1229058365760</title>
<ellipse fill="none" stroke="black" cx="27" cy="-90" rx="27" ry="18"/>
<text text-anchor="middle" x="27" y="-86.3" font-family="Times New Roman,serif" font-size="14.00">3</text>
</g>
<!-- 1229058340656&#45;&gt;1229058365760 -->
<g id="edge3" class="edge">
<title>1229058340656&#45;&gt;1229058365760</title>
<path fill="none" stroke="black" d="M54.65,-144.76C50.29,-136.28 44.85,-125.71 39.96,-116.2"/>
<polygon fill="black" stroke="black" points="42.99,-114.44 35.3,-107.15 36.77,-117.64 42.99,-114.44"/>
</g>
<!-- 1229058365664 -->
<g id="node4" class="node">
<title>1229058365664</title>
<ellipse fill="none" stroke="black" cx="99" cy="-90" rx="27" ry="18"/>
<text text-anchor="middle" x="99" y="-86.3" font-family="Times New Roman,serif" font-size="14.00">&#45;</text>
</g>
<!-- 1229058340656&#45;&gt;1229058365664 -->
<g id="edge4" class="edge">
<title>1229058340656&#45;&gt;1229058365664</title>
<path fill="none" stroke="black" d="M71.35,-144.76C75.71,-136.28 81.15,-125.71 86.04,-116.2"/>
<polygon fill="black" stroke="black" points="89.23,-117.64 90.7,-107.15 83.01,-114.44 89.23,-117.64"/>
</g>
<!-- 1229058365616 -->
<g id="node5" class="node">
<title>1229058365616</title>
<ellipse fill="none" stroke="black" cx="63" cy="-18" rx="27" ry="18"/>
<text text-anchor="middle" x="63" y="-14.3" font-family="Times New Roman,serif" font-size="14.00">7</text>
</g>
<!-- 1229058365664&#45;&gt;1229058365616 -->
<g id="edge5" class="edge">
<title>1229058365664&#45;&gt;1229058365616</title>
<path fill="none" stroke="black" d="M90.65,-72.76C86.29,-64.28 80.85,-53.71 75.96,-44.2"/>
<polygon fill="black" stroke="black" points="78.99,-42.44 71.3,-35.15 72.77,-45.64 78.99,-42.44"/>
</g>
<!-- 1229058365712 -->
<g id="node6" class="node">
<title>1229058365712</title>
<ellipse fill="none" stroke="black" cx="135" cy="-18" rx="27" ry="18"/>
<text text-anchor="middle" x="135" y="-14.3" font-family="Times New Roman,serif" font-size="14.00">2</text>
</g>
<!-- 1229058365664&#45;&gt;1229058365712 -->
<g id="edge6" class="edge">
<title>1229058365664&#45;&gt;1229058365712</title>
<path fill="none" stroke="black" d="M107.35,-72.76C111.71,-64.28 117.15,-53.71 122.04,-44.2"/>
<polygon fill="black" stroke="black" points="125.23,-45.64 126.7,-35.15 119.01,-42.44 125.23,-45.64"/>
</g>
</g>
</svg>
