<?xml version="1.0" encoding="UTF-8" standalone="no"?>
<!DOCTYPE svg PUBLIC "-//W3C//DTD SVG 1.1//EN"
 "http://www.w3.org/Graphics/SVG/1.1/DTD/svg11.dtd">
<!-- Generated by graphviz version 2.50.0 (0)
 -->
<!-- Pages: 1 -->
<svg width="412pt" height="260pt"
 viewBox="0.00 0.00 412.14 260.00" xmlns="http://www.w3.org/2000/svg" xmlns:xlink="http://www.w3.org/1999/xlink">
<g id="graph0" class="graph" transform="scale(1 1) rotate(0) translate(4 256)">
<polygon fill="white" stroke="transparent" points="-4,4 -4,-256 408.14,-256 408.14,4 -4,4"/>
<!-- 2383759642384 -->
<g id="node1" class="node">
<title>2383759642384</title>
<ellipse fill="none" stroke="black" cx="172.5" cy="-234" rx="44.39" ry="18"/>
<text text-anchor="middle" x="172.5" y="-230.3" font-family="Times New Roman,serif" font-size="14.00">Säugetier</text>
</g>
<!-- 2383760258768 -->
<g id="node2" class="node">
<title>2383760258768</title>
<ellipse fill="none" stroke="black" cx="118.5" cy="-162" rx="30.59" ry="18"/>
<text text-anchor="middle" x="118.5" y="-158.3" font-family="Times New Roman,serif" font-size="14.00">Hund</text>
</g>
<!-- 2383759642384&#45;&gt;2383760258768 -->
<g id="edge1" class="edge">
<title>2383759642384&#45;&gt;2383760258768</title>
<path fill="none" stroke="black" d="M159.7,-216.41C152.95,-207.66 144.53,-196.75 137.07,-187.08"/>
<polygon fill="black" stroke="black" points="139.71,-184.77 130.83,-178.99 134.17,-189.04 139.71,-184.77"/>
</g>
<!-- 2383760260544 -->
<g id="node5" class="node">
<title>2383760260544</title>
<ellipse fill="none" stroke="black" cx="226.5" cy="-162" rx="27" ry="18"/>
<text text-anchor="middle" x="226.5" y="-158.3" font-family="Times New Roman,serif" font-size="14.00">Affe</text>
</g>
<!-- 2383759642384&#45;&gt;2383760260544 -->
<g id="edge2" class="edge">
<title>2383759642384&#45;&gt;2383760260544</title>
<path fill="none" stroke="black" d="M185.29,-216.41C192.15,-207.53 200.7,-196.44 208.24,-186.67"/>
<polygon fill="black" stroke="black" points="211.19,-188.57 214.53,-178.51 205.65,-184.29 211.19,-188.57"/>
</g>
<!-- 2383760259248 -->
<g id="node3" class="node">
<title>2383760259248</title>
<ellipse fill="none" stroke="black" cx="32.5" cy="-90" rx="32.49" ry="18"/>
<text text-anchor="middle" x="32.5" y="-86.3" font-family="Times New Roman,serif" font-size="14.00">Collie</text>
</g>
<!-- 2383760258768&#45;&gt;2383760259248 -->
<g id="edge3" class="edge">
<title>2383760258768&#45;&gt;2383760259248</title>
<path fill="none" stroke="black" d="M101.09,-146.83C88.7,-136.75 71.85,-123.03 57.96,-111.72"/>
<polygon fill="black" stroke="black" points="60.13,-108.98 50.17,-105.38 55.72,-114.41 60.13,-108.98"/>
</g>
<!-- 2383760258912 -->
<g id="node4" class="node">
<title>2383760258912</title>
<ellipse fill="none" stroke="black" cx="118.5" cy="-90" rx="36" ry="18"/>
<text text-anchor="middle" x="118.5" y="-86.3" font-family="Times New Roman,serif" font-size="14.00">Dackel</text>
</g>
<!-- 2383760258768&#45;&gt;2383760258912 -->
<g id="edge4" class="edge">
<title>2383760258768&#45;&gt;2383760258912</title>
<path fill="none" stroke="black" d="M118.5,-143.7C118.5,-135.98 118.5,-126.71 118.5,-118.11"/>
<polygon fill="black" stroke="black" points="122,-118.1 118.5,-108.1 115,-118.1 122,-118.1"/>
</g>
<!-- 2383760260496 -->
<g id="node6" class="node">
<title>2383760260496</title>
<ellipse fill="none" stroke="black" cx="226.5" cy="-90" rx="53.89" ry="18"/>
<text text-anchor="middle" x="226.5" y="-86.3" font-family="Times New Roman,serif" font-size="14.00">Schimpanse</text>
</g>
<!-- 2383760260544&#45;&gt;2383760260496 -->
<g id="edge5" class="edge">
<title>2383760260544&#45;&gt;2383760260496</title>
<path fill="none" stroke="black" d="M226.5,-143.7C226.5,-135.98 226.5,-126.71 226.5,-118.11"/>
<polygon fill="black" stroke="black" points="230,-118.1 226.5,-108.1 223,-118.1 230,-118.1"/>
</g>
<!-- 2383760257616 -->
<g id="node8" class="node">
<title>2383760257616</title>
<ellipse fill="none" stroke="black" cx="351.5" cy="-90" rx="52.79" ry="18"/>
<text text-anchor="middle" x="351.5" y="-86.3" font-family="Times New Roman,serif" font-size="14.00">Orang&#45;Utan</text>
</g>
<!-- 2383760260544&#45;&gt;2383760257616 -->
<g id="edge6" class="edge">
<title>2383760260544&#45;&gt;2383760257616</title>
<path fill="none" stroke="black" d="M246.58,-149.75C265.26,-139.29 293.52,-123.47 316,-110.88"/>
<polygon fill="black" stroke="black" points="317.91,-113.82 324.93,-105.88 314.49,-107.71 317.91,-113.82"/>
</g>
<!-- 2383761220176 -->
<g id="node7" class="node">
<title>2383761220176</title>
<ellipse fill="none" stroke="black" cx="226.5" cy="-18" rx="38.19" ry="18"/>
<text text-anchor="middle" x="226.5" y="-14.3" font-family="Times New Roman,serif" font-size="14.00">Bonobo</text>
</g>
<!-- 2383760260496&#45;&gt;2383761220176 -->
<g id="edge7" class="edge">
<title>2383760260496&#45;&gt;2383761220176</title>
<path fill="none" stroke="black" d="M226.5,-71.7C226.5,-63.98 226.5,-54.71 226.5,-46.11"/>
<polygon fill="black" stroke="black" points="230,-46.1 226.5,-36.1 223,-46.1 230,-46.1"/>
</g>
</g>
</svg>
