<?xml version="1.0" encoding="UTF-8" standalone="no"?>
<!DOCTYPE svg PUBLIC "-//W3C//DTD SVG 1.1//EN"
 "http://www.w3.org/Graphics/SVG/1.1/DTD/svg11.dtd">
<!-- Generated by graphviz version 2.50.0 (0)
 -->
<!-- Pages: 1 -->
<svg width="306pt" height="166pt"
 viewBox="0.00 0.00 305.91 165.96" xmlns="http://www.w3.org/2000/svg" xmlns:xlink="http://www.w3.org/1999/xlink">
<g id="graph0" class="graph" transform="scale(1 1) rotate(0) translate(4 161.96)">
<polygon fill="white" stroke="transparent" points="-4,4 -4,-161.96 301.91,-161.96 301.91,4 -4,4"/>
<!-- 4399081104 -->
<g id="node1" class="node">
<title>4399081104</title>
<ellipse fill="mistyrose" stroke="black" cx="146.76" cy="-139.89" rx="18.13" ry="18.13"/>
<text text-anchor="middle" x="146.76" y="-136.39" font-family="Helvetica,sans-Serif" font-size="15.00">A</text>
</g>
<!-- 4399078368 -->
<g id="node2" class="node">
<title>4399078368</title>
<ellipse fill="mistyrose" stroke="black" cx="66.76" cy="-81.06" rx="18.13" ry="18.13"/>
<text text-anchor="middle" x="66.76" y="-77.56" font-family="Helvetica,sans-Serif" font-size="15.00">B</text>
</g>
<!-- 4399081104&#45;&gt;4399078368 -->
<g id="edge1" class="edge">
<title>4399081104&#45;&gt;4399078368</title>
<path fill="none" stroke="black" d="M132.46,-128.73C119.57,-119.58 100.51,-106.04 86.23,-95.9"/>
<polygon fill="black" stroke="black" points="87.32,-94.09 81.21,-92.33 84.89,-97.52 87.32,-94.09"/>
</g>
<!-- 37384 -->
<!-- 4399081104&#45;&gt;37384 -->
<!-- 4399072416 -->
<g id="node4" class="node">
<title>4399072416</title>
<ellipse fill="mistyrose" stroke="black" cx="227.76" cy="-81.06" rx="18.53" ry="18.53"/>
<text text-anchor="middle" x="227.76" y="-77.56" font-family="Helvetica,sans-Serif" font-size="15.00">C</text>
</g>
<!-- 4399081104&#45;&gt;4399072416 -->
<g id="edge3" class="edge">
<title>4399081104&#45;&gt;4399072416</title>
<path fill="none" stroke="black" d="M161.24,-128.73C174.21,-119.64 193.35,-106.21 207.78,-96.09"/>
<polygon fill="black" stroke="black" points="209.15,-97.69 212.86,-92.52 206.74,-94.25 209.15,-97.69"/>
</g>
<!-- 4399071408 -->
<g id="node5" class="node">
<title>4399071408</title>
<ellipse fill="mistyrose" stroke="black" cx="18.76" cy="-20.15" rx="18.53" ry="18.53"/>
<text text-anchor="middle" x="18.76" y="-16.65" font-family="Helvetica,sans-Serif" font-size="15.00">D</text>
</g>
<!-- 4399078368&#45;&gt;4399071408 -->
<g id="edge4" class="edge">
<title>4399078368&#45;&gt;4399071408</title>
<path fill="none" stroke="black" d="M55.63,-66.4C49.3,-58.63 41.27,-48.78 34.33,-40.26"/>
<polygon fill="black" stroke="black" points="35.59,-38.48 30.17,-35.15 32.33,-41.13 35.59,-38.48"/>
</g>
<!-- 199447 -->
<!-- 4399078368&#45;&gt;199447 -->
<!-- 4399072896 -->
<g id="node7" class="node">
<title>4399072896</title>
<ellipse fill="mistyrose" stroke="black" cx="114.76" cy="-20.15" rx="18.13" ry="18.13"/>
<text text-anchor="middle" x="114.76" y="-16.65" font-family="Helvetica,sans-Serif" font-size="15.00">E</text>
</g>
<!-- 4399078368&#45;&gt;4399072896 -->
<g id="edge6" class="edge">
<title>4399078368&#45;&gt;4399072896</title>
<path fill="none" stroke="black" d="M77.89,-66.4C84.44,-58.37 92.79,-48.12 99.89,-39.4"/>
<polygon fill="black" stroke="black" points="101.53,-40.72 103.69,-34.74 98.27,-38.07 101.53,-40.72"/>
</g>
<!-- 4399075344 -->
<g id="node8" class="node">
<title>4399075344</title>
<ellipse fill="mistyrose" stroke="black" cx="179.76" cy="-20.15" rx="18.13" ry="18.13"/>
<text text-anchor="middle" x="179.76" y="-16.65" font-family="Helvetica,sans-Serif" font-size="15.00">F</text>
</g>
<!-- 4399072416&#45;&gt;4399075344 -->
<g id="edge7" class="edge">
<title>4399072416&#45;&gt;4399075344</title>
<path fill="none" stroke="black" d="M216.39,-66.1C209.96,-58.21 201.84,-48.25 194.88,-39.71"/>
<polygon fill="black" stroke="black" points="196.14,-37.93 190.73,-34.61 192.89,-40.59 196.14,-37.93"/>
</g>
<!-- 922290 -->
<!-- 4399072416&#45;&gt;922290 -->
<!-- 4399075488 -->
<g id="node10" class="node">
<title>4399075488</title>
<ellipse fill="mistyrose" stroke="black" cx="277.76" cy="-20.15" rx="20.3" ry="20.3"/>
<text text-anchor="middle" x="277.76" y="-16.65" font-family="Helvetica,sans-Serif" font-size="15.00">G</text>
</g>
<!-- 4399072416&#45;&gt;4399075488 -->
<g id="edge9" class="edge">
<title>4399072416&#45;&gt;4399075488</title>
<path fill="none" stroke="black" d="M239.61,-66.1C245.92,-58.66 253.8,-49.38 260.76,-41.19"/>
<polygon fill="black" stroke="black" points="262.67,-42.18 264.95,-36.25 259.46,-39.47 262.67,-42.18"/>
</g>
</g>
</svg>
