<?xml version="1.0" encoding="UTF-8" standalone="no"?>
<!DOCTYPE svg PUBLIC "-//W3C//DTD SVG 1.1//EN"
 "http://www.w3.org/Graphics/SVG/1.1/DTD/svg11.dtd">
<!-- Generated by graphviz version 2.50.0 (0)
 -->
<!-- Pages: 1 -->
<svg width="472pt" height="260pt"
 viewBox="0.00 0.00 471.60 260.00" xmlns="http://www.w3.org/2000/svg" xmlns:xlink="http://www.w3.org/1999/xlink">
<g id="graph0" class="graph" transform="scale(1 1) rotate(0) translate(4 256)">
<polygon fill="white" stroke="transparent" points="-4,4 -4,-256 467.6,-256 467.6,4 -4,4"/>
<!-- 4647396864 -->
<g id="node1" class="node">
<title>4647396864</title>
<ellipse fill="none" stroke="black" cx="292.6" cy="-18" rx="27" ry="18"/>
<text text-anchor="middle" x="292.6" y="-14.3" font-family="Times,serif" font-size="14.00">p</text>
</g>
<!-- 4647390768 -->
<g id="node2" class="node">
<title>4647390768</title>
<ellipse fill="none" stroke="black" cx="102.6" cy="-162" rx="27.1" ry="18"/>
<text text-anchor="middle" x="102.6" y="-158.3" font-family="Times,serif" font-size="14.00">head</text>
</g>
<!-- 4647400320 -->
<g id="node10" class="node">
<title>4647400320</title>
<ellipse fill="none" stroke="black" cx="28.6" cy="-90" rx="28.7" ry="18"/>
<text text-anchor="middle" x="28.6" y="-86.3" font-family="Times,serif" font-size="14.00">meta</text>
</g>
<!-- 4647390768&#45;&gt;4647400320 -->
<g id="edge3" class="edge">
<title>4647390768&#45;&gt;4647400320</title>
<path fill="none" stroke="black" d="M87.62,-146.83C77.16,-136.94 63,-123.55 51.18,-112.36"/>
<polygon fill="black" stroke="black" points="53.47,-109.71 43.8,-105.38 48.66,-114.8 53.47,-109.71"/>
</g>
<!-- 4647387600 -->
<g id="node12" class="node">
<title>4647387600</title>
<ellipse fill="none" stroke="black" cx="102.6" cy="-90" rx="27" ry="18"/>
<text text-anchor="middle" x="102.6" y="-86.3" font-family="Times,serif" font-size="14.00">title</text>
</g>
<!-- 4647390768&#45;&gt;4647387600 -->
<g id="edge4" class="edge">
<title>4647390768&#45;&gt;4647387600</title>
<path fill="none" stroke="black" d="M102.6,-143.7C102.6,-135.98 102.6,-126.71 102.6,-118.11"/>
<polygon fill="black" stroke="black" points="106.1,-118.1 102.6,-108.1 99.1,-118.1 106.1,-118.1"/>
</g>
<!-- 4647400512 -->
<g id="node3" class="node">
<title>4647400512</title>
<ellipse fill="none" stroke="black" cx="181.6" cy="-162" rx="28.7" ry="18"/>
<text text-anchor="middle" x="181.6" y="-158.3" font-family="Times,serif" font-size="14.00">body</text>
</g>
<!-- 4647390912 -->
<g id="node5" class="node">
<title>4647390912</title>
<ellipse fill="none" stroke="black" cx="181.6" cy="-90" rx="34.39" ry="18"/>
<text text-anchor="middle" x="181.6" y="-86.3" font-family="Times,serif" font-size="14.00">header</text>
</g>
<!-- 4647400512&#45;&gt;4647390912 -->
<g id="edge5" class="edge">
<title>4647400512&#45;&gt;4647390912</title>
<path fill="none" stroke="black" d="M181.6,-143.7C181.6,-135.98 181.6,-126.71 181.6,-118.11"/>
<polygon fill="black" stroke="black" points="185.1,-118.1 181.6,-108.1 178.1,-118.1 185.1,-118.1"/>
</g>
<!-- 4647393696 -->
<g id="node11" class="node">
<title>4647393696</title>
<ellipse fill="none" stroke="black" cx="292.6" cy="-90" rx="27" ry="18"/>
<text text-anchor="middle" x="292.6" y="-86.3" font-family="Times,serif" font-size="14.00">div</text>
</g>
<!-- 4647400512&#45;&gt;4647393696 -->
<g id="edge6" class="edge">
<title>4647400512&#45;&gt;4647393696</title>
<path fill="none" stroke="black" d="M201.19,-148.65C218.89,-137.48 245.13,-120.93 264.97,-108.42"/>
<polygon fill="black" stroke="black" points="266.98,-111.29 273.58,-103 263.25,-105.37 266.98,-111.29"/>
</g>
<!-- 4647350448 -->
<g id="node4" class="node">
<title>4647350448</title>
<ellipse fill="none" stroke="black" cx="436.6" cy="-18" rx="27" ry="18"/>
<text text-anchor="middle" x="436.6" y="-14.3" font-family="Times,serif" font-size="14.00">p</text>
</g>
<!-- 4647394608 -->
<g id="node9" class="node">
<title>4647394608</title>
<ellipse fill="none" stroke="black" cx="148.6" cy="-18" rx="27" ry="18"/>
<text text-anchor="middle" x="148.6" y="-14.3" font-family="Times,serif" font-size="14.00">h1</text>
</g>
<!-- 4647390912&#45;&gt;4647394608 -->
<g id="edge7" class="edge">
<title>4647390912&#45;&gt;4647394608</title>
<path fill="none" stroke="black" d="M173.78,-72.41C169.87,-64.13 165.06,-53.92 160.7,-44.66"/>
<polygon fill="black" stroke="black" points="163.79,-43.02 156.36,-35.47 157.46,-46.01 163.79,-43.02"/>
</g>
<!-- 4647391440 -->
<g id="node6" class="node">
<title>4647391440</title>
<ellipse fill="none" stroke="black" cx="220.6" cy="-18" rx="27" ry="18"/>
<text text-anchor="middle" x="220.6" y="-14.3" font-family="Times,serif" font-size="14.00">h2</text>
</g>
<!-- 4647348432 -->
<g id="node7" class="node">
<title>4647348432</title>
<ellipse fill="none" stroke="black" cx="364.6" cy="-18" rx="27" ry="18"/>
<text text-anchor="middle" x="364.6" y="-14.3" font-family="Times,serif" font-size="14.00">p</text>
</g>
<!-- 4647399216 -->
<g id="node8" class="node">
<title>4647399216</title>
<ellipse fill="none" stroke="black" cx="141.6" cy="-234" rx="27.1" ry="18"/>
<text text-anchor="middle" x="141.6" y="-230.3" font-family="Times,serif" font-size="14.00">html</text>
</g>
<!-- 4647399216&#45;&gt;4647390768 -->
<g id="edge1" class="edge">
<title>4647399216&#45;&gt;4647390768</title>
<path fill="none" stroke="black" d="M132.55,-216.76C127.78,-208.19 121.82,-197.49 116.47,-187.9"/>
<polygon fill="black" stroke="black" points="119.52,-186.18 111.59,-179.15 113.4,-189.59 119.52,-186.18"/>
</g>
<!-- 4647399216&#45;&gt;4647400512 -->
<g id="edge2" class="edge">
<title>4647399216&#45;&gt;4647400512</title>
<path fill="none" stroke="black" d="M150.87,-216.76C155.77,-208.19 161.89,-197.49 167.37,-187.9"/>
<polygon fill="black" stroke="black" points="170.45,-189.57 172.37,-179.15 164.37,-186.09 170.45,-189.57"/>
</g>
<!-- 4647393696&#45;&gt;4647396864 -->
<g id="edge9" class="edge">
<title>4647393696&#45;&gt;4647396864</title>
<path fill="none" stroke="black" d="M292.6,-71.7C292.6,-63.98 292.6,-54.71 292.6,-46.11"/>
<polygon fill="black" stroke="black" points="296.1,-46.1 292.6,-36.1 289.1,-46.1 296.1,-46.1"/>
</g>
<!-- 4647393696&#45;&gt;4647350448 -->
<g id="edge11" class="edge">
<title>4647393696&#45;&gt;4647350448</title>
<path fill="none" stroke="black" d="M313.85,-78.67C338.2,-66.83 378.32,-47.33 406.03,-33.86"/>
<polygon fill="black" stroke="black" points="407.8,-36.89 415.26,-29.37 404.74,-30.6 407.8,-36.89"/>
</g>
<!-- 4647393696&#45;&gt;4647391440 -->
<g id="edge8" class="edge">
<title>4647393696&#45;&gt;4647391440</title>
<path fill="none" stroke="black" d="M278.03,-74.83C267.85,-64.94 254.07,-51.55 242.57,-40.36"/>
<polygon fill="black" stroke="black" points="245,-37.85 235.39,-33.38 240.12,-42.87 245,-37.85"/>
</g>
<!-- 4647393696&#45;&gt;4647348432 -->
<g id="edge10" class="edge">
<title>4647393696&#45;&gt;4647348432</title>
<path fill="none" stroke="black" d="M307.17,-74.83C317.35,-64.94 331.12,-51.55 342.63,-40.36"/>
<polygon fill="black" stroke="black" points="345.07,-42.87 349.8,-33.38 340.19,-37.85 345.07,-42.87"/>
</g>
</g>
</svg>
