<?xml version="1.0" encoding="UTF-8" standalone="no"?>
<!DOCTYPE svg PUBLIC "-//W3C//DTD SVG 1.1//EN"
 "http://www.w3.org/Graphics/SVG/1.1/DTD/svg11.dtd">
<!-- Generated by graphviz version 2.50.0 (0)
 -->
<!-- Pages: 1 -->
<svg width="606pt" height="336pt"
 viewBox="0.00 0.00 606.00 336.49" xmlns="http://www.w3.org/2000/svg" xmlns:xlink="http://www.w3.org/1999/xlink">
<g id="graph0" class="graph" transform="scale(1 1) rotate(0) translate(4 332.49)">
<polygon fill="white" stroke="transparent" points="-4,4 -4,-332.49 602,-332.49 602,4 -4,4"/>
<!-- 4574306064 -->
<g id="node1" class="node">
<title>4574306064</title>
<ellipse fill="lightblue" stroke="black" cx="194" cy="-310.49" rx="18" ry="18"/>
<text text-anchor="middle" x="194" y="-306.79" font-family="Helvetica,sans-Serif" font-size="14.00">K</text>
</g>
<!-- 4574314416 -->
<g id="node2" class="node">
<title>4574314416</title>
<ellipse fill="lightblue" stroke="black" cx="66" cy="-252.29" rx="18" ry="18"/>
<text text-anchor="middle" x="66" y="-248.59" font-family="Helvetica,sans-Serif" font-size="14.00">E</text>
</g>
<!-- 4574306064&#45;&gt;4574314416 -->
<g id="edge1" class="edge">
<title>4574306064&#45;&gt;4574314416</title>
<path fill="none" stroke="black" d="M177.79,-302.37C154.83,-292.29 112.82,-273.85 87.35,-262.66"/>
<polygon fill="black" stroke="black" points="87.77,-260.94 82.48,-260.53 86.36,-264.14 87.77,-260.94"/>
</g>
<!-- 984117 -->
<!-- 4574306064&#45;&gt;984117 -->
<!-- 4574307648 -->
<g id="node4" class="node">
<title>4574307648</title>
<ellipse fill="lightblue" stroke="black" cx="323" cy="-252.29" rx="18.4" ry="18.4"/>
<text text-anchor="middle" x="323" y="-248.59" font-family="Helvetica,sans-Serif" font-size="14.00">Q</text>
</g>
<!-- 4574306064&#45;&gt;4574307648 -->
<g id="edge3" class="edge">
<title>4574306064&#45;&gt;4574307648</title>
<path fill="none" stroke="black" d="M210.34,-302.37C233.47,-292.29 275.82,-273.85 301.49,-262.66"/>
<polygon fill="black" stroke="black" points="302.5,-264.13 306.39,-260.53 301.1,-260.92 302.5,-264.13"/>
</g>
<!-- 323146 -->
<!-- 4574314416&#45;&gt;323146 -->
<!-- 653261 -->
<!-- 4574314416&#45;&gt;653261 -->
<!-- 4574300544 -->
<g id="node7" class="node">
<title>4574300544</title>
<ellipse fill="lightblue" stroke="black" cx="114" cy="-194.09" rx="18" ry="18"/>
<text text-anchor="middle" x="114" y="-190.39" font-family="Helvetica,sans-Serif" font-size="14.00">F</text>
</g>
<!-- 4574314416&#45;&gt;4574300544 -->
<g id="edge6" class="edge">
<title>4574314416&#45;&gt;4574300544</title>
<path fill="none" stroke="black" d="M77.38,-237.97C83.95,-230.27 92.29,-220.51 99.36,-212.24"/>
<polygon fill="black" stroke="black" points="100.79,-213.25 102.71,-208.32 98.13,-210.98 100.79,-213.25"/>
</g>
<!-- 4574313168 -->
<g id="node11" class="node">
<title>4574313168</title>
<ellipse fill="lightblue" stroke="black" cx="275" cy="-194.09" rx="18" ry="18"/>
<text text-anchor="middle" x="275" y="-190.39" font-family="Helvetica,sans-Serif" font-size="14.00">L</text>
</g>
<!-- 4574307648&#45;&gt;4574313168 -->
<g id="edge10" class="edge">
<title>4574307648&#45;&gt;4574313168</title>
<path fill="none" stroke="black" d="M311.62,-237.97C305.05,-230.27 296.71,-220.51 289.64,-212.24"/>
<polygon fill="black" stroke="black" points="290.87,-210.98 286.29,-208.32 288.21,-213.25 290.87,-210.98"/>
</g>
<!-- 56906 -->
<!-- 4574307648&#45;&gt;56906 -->
<!-- 4574310624 -->
<g id="node13" class="node">
<title>4574310624</title>
<ellipse fill="lightblue" stroke="black" cx="532" cy="-194.09" rx="18" ry="18"/>
<text text-anchor="middle" x="532" y="-190.39" font-family="Helvetica,sans-Serif" font-size="14.00">Y</text>
</g>
<!-- 4574307648&#45;&gt;4574310624 -->
<g id="edge12" class="edge">
<title>4574307648&#45;&gt;4574310624</title>
<path fill="none" stroke="black" d="M340.46,-246.6C378.36,-236.41 468.1,-212.27 509.89,-201.04"/>
<polygon fill="black" stroke="black" points="510.36,-202.72 514.74,-199.74 509.45,-199.34 510.36,-202.72"/>
</g>
<!-- 173349 -->
<!-- 4574300544&#45;&gt;173349 -->
<!-- 12215 -->
<!-- 4574300544&#45;&gt;12215 -->
<!-- 4574339552 -->
<g id="node10" class="node">
<title>4574339552</title>
<ellipse fill="lightblue" stroke="black" cx="162" cy="-135.9" rx="18.4" ry="18.4"/>
<text text-anchor="middle" x="162" y="-132.2" font-family="Helvetica,sans-Serif" font-size="14.00">G</text>
</g>
<!-- 4574300544&#45;&gt;4574339552 -->
<g id="edge9" class="edge">
<title>4574300544&#45;&gt;4574339552</title>
<path fill="none" stroke="black" d="M125.38,-179.78C131.86,-172.19 140.05,-162.59 147.05,-154.4"/>
<polygon fill="black" stroke="black" points="148.46,-155.45 150.37,-150.51 145.79,-153.17 148.46,-155.45"/>
</g>
<!-- 95363 -->
<!-- 4574313168&#45;&gt;95363 -->
<!-- 502895 -->
<!-- 4574313168&#45;&gt;502895 -->
<!-- 4574309808 -->
<g id="node16" class="node">
<title>4574309808</title>
<ellipse fill="lightblue" stroke="black" cx="323" cy="-135.9" rx="18.4" ry="18.4"/>
<text text-anchor="middle" x="323" y="-132.2" font-family="Helvetica,sans-Serif" font-size="14.00">O</text>
</g>
<!-- 4574313168&#45;&gt;4574309808 -->
<g id="edge15" class="edge">
<title>4574313168&#45;&gt;4574309808</title>
<path fill="none" stroke="black" d="M286.38,-179.78C292.86,-172.19 301.05,-162.59 308.05,-154.4"/>
<polygon fill="black" stroke="black" points="309.46,-155.45 311.37,-150.51 306.79,-153.17 309.46,-155.45"/>
</g>
<!-- 4574308416 -->
<g id="node23" class="node">
<title>4574308416</title>
<ellipse fill="lightblue" stroke="black" cx="484" cy="-135.9" rx="18" ry="18"/>
<text text-anchor="middle" x="484" y="-132.2" font-family="Helvetica,sans-Serif" font-size="14.00">T</text>
</g>
<!-- 4574310624&#45;&gt;4574308416 -->
<g id="edge22" class="edge">
<title>4574310624&#45;&gt;4574308416</title>
<path fill="none" stroke="black" d="M520.62,-179.78C514.05,-172.08 505.71,-162.31 498.64,-154.04"/>
<polygon fill="black" stroke="black" points="499.87,-152.78 495.29,-150.12 497.21,-155.06 499.87,-152.78"/>
</g>
<!-- 991374 -->
<!-- 4574310624&#45;&gt;991374 -->
<!-- 484679 -->
<!-- 4574310624&#45;&gt;484679 -->
<!-- 4574345648 -->
<g id="node17" class="node">
<title>4574345648</title>
<ellipse fill="lightblue" stroke="black" cx="275" cy="-77.7" rx="18" ry="18"/>
<text text-anchor="middle" x="275" y="-74" font-family="Helvetica,sans-Serif" font-size="14.00">N</text>
</g>
<!-- 4574309808&#45;&gt;4574345648 -->
<g id="edge16" class="edge">
<title>4574309808&#45;&gt;4574345648</title>
<path fill="none" stroke="black" d="M311.62,-121.58C305.05,-113.88 296.71,-104.11 289.64,-95.84"/>
<polygon fill="black" stroke="black" points="290.87,-94.58 286.29,-91.92 288.21,-96.86 290.87,-94.58"/>
</g>
<!-- 113811 -->
<!-- 4574309808&#45;&gt;113811 -->
<!-- 4574336720 -->
<g id="node19" class="node">
<title>4574336720</title>
<ellipse fill="lightblue" stroke="black" cx="371" cy="-77.7" rx="18" ry="18"/>
<text text-anchor="middle" x="371" y="-74" font-family="Helvetica,sans-Serif" font-size="14.00">P</text>
</g>
<!-- 4574309808&#45;&gt;4574336720 -->
<g id="edge18" class="edge">
<title>4574309808&#45;&gt;4574336720</title>
<path fill="none" stroke="black" d="M334.38,-121.58C340.95,-113.88 349.29,-104.11 356.36,-95.84"/>
<polygon fill="black" stroke="black" points="357.79,-96.86 359.71,-91.92 355.13,-94.58 357.79,-96.86"/>
</g>
<!-- 4574704416 -->
<g id="node20" class="node">
<title>4574704416</title>
<ellipse fill="lightblue" stroke="black" cx="227" cy="-18.85" rx="18.7" ry="18.7"/>
<text text-anchor="middle" x="227" y="-15.15" font-family="Helvetica,sans-Serif" font-size="14.00">M</text>
</g>
<!-- 4574345648&#45;&gt;4574704416 -->
<g id="edge19" class="edge">
<title>4574345648&#45;&gt;4574704416</title>
<path fill="none" stroke="black" d="M263.87,-63.51C257.39,-55.84 249.15,-46.08 242.09,-37.73"/>
<polygon fill="black" stroke="black" points="243.3,-36.45 238.74,-33.75 240.63,-38.7 243.3,-36.45"/>
</g>
<!-- 517563 -->
<!-- 4574345648&#45;&gt;517563 -->
<!-- 146319 -->
<!-- 4574345648&#45;&gt;146319 -->
<!-- 4574300976 -->
<g id="node26" class="node">
<title>4574300976</title>
<ellipse fill="lightblue" stroke="black" cx="436" cy="-77.7" rx="18" ry="18"/>
<text text-anchor="middle" x="436" y="-74" font-family="Helvetica,sans-Serif" font-size="14.00">R</text>
</g>
<!-- 4574308416&#45;&gt;4574300976 -->
<g id="edge25" class="edge">
<title>4574308416&#45;&gt;4574300976</title>
<path fill="none" stroke="black" d="M472.62,-121.58C466.05,-113.88 457.71,-104.11 450.64,-95.84"/>
<polygon fill="black" stroke="black" points="451.87,-94.58 447.29,-91.92 449.21,-96.86 451.87,-94.58"/>
</g>
<!-- 265001 -->
<!-- 4574308416&#45;&gt;265001 -->
<!-- 4574309472 -->
<g id="node28" class="node">
<title>4574309472</title>
<ellipse fill="lightblue" stroke="black" cx="532" cy="-77.7" rx="18" ry="18"/>
<text text-anchor="middle" x="532" y="-74" font-family="Helvetica,sans-Serif" font-size="14.00">X</text>
</g>
<!-- 4574308416&#45;&gt;4574309472 -->
<g id="edge27" class="edge">
<title>4574308416&#45;&gt;4574309472</title>
<path fill="none" stroke="black" d="M495.38,-121.58C501.95,-113.88 510.29,-104.11 517.36,-95.84"/>
<polygon fill="black" stroke="black" points="518.79,-96.86 520.71,-91.92 516.13,-94.58 518.79,-96.86"/>
</g>
<!-- 4574301840 -->
<g id="node29" class="node">
<title>4574301840</title>
<ellipse fill="lightblue" stroke="black" cx="484" cy="-18.85" rx="18" ry="18"/>
<text text-anchor="middle" x="484" y="-15.15" font-family="Helvetica,sans-Serif" font-size="14.00">U</text>
</g>
<!-- 4574309472&#45;&gt;4574301840 -->
<g id="edge28" class="edge">
<title>4574309472&#45;&gt;4574301840</title>
<path fill="none" stroke="black" d="M520.87,-63.51C514.3,-55.73 505.9,-45.79 498.78,-37.36"/>
<polygon fill="black" stroke="black" points="499.97,-36.05 495.41,-33.36 497.29,-38.31 499.97,-36.05"/>
</g>
<!-- 628813 -->
<!-- 4574309472&#45;&gt;628813 -->
<!-- 456782 -->
<!-- 4574309472&#45;&gt;456782 -->
</g>
</svg>
