<?xml version="1.0" encoding="UTF-8" standalone="no"?>
<!DOCTYPE svg PUBLIC "-//W3C//DTD SVG 1.1//EN"
 "http://www.w3.org/Graphics/SVG/1.1/DTD/svg11.dtd">
<!-- Generated by graphviz version 2.50.0 (0)
 -->
<!-- Pages: 1 -->
<svg width="575pt" height="414pt"
 viewBox="0.00 0.00 574.80 414.39" xmlns="http://www.w3.org/2000/svg" xmlns:xlink="http://www.w3.org/1999/xlink">
<g id="graph0" class="graph" transform="scale(1 1) rotate(0) translate(4 410.39)">
<polygon fill="white" stroke="transparent" points="-4,4 -4,-410.39 570.8,-410.39 570.8,4 -4,4"/>
<!-- 4574312304 -->
<g id="node1" class="node">
<title>4574312304</title>
<ellipse fill="lightblue" stroke="black" cx="241" cy="-388.39" rx="18" ry="18"/>
<text text-anchor="middle" x="241" y="-384.69" font-family="Helvetica,sans-Serif" font-size="14.00">5</text>
</g>
<!-- 4573818000 -->
<g id="node2" class="node">
<title>4573818000</title>
<ellipse fill="lightblue" stroke="black" cx="159" cy="-327.59" rx="18" ry="18"/>
<text text-anchor="middle" x="159" y="-323.89" font-family="Helvetica,sans-Serif" font-size="14.00">3</text>
</g>
<!-- 4574312304&#45;&gt;4573818000 -->
<g id="edge1" class="edge">
<title>4574312304&#45;&gt;4573818000</title>
<path fill="none" stroke="black" d="M226.72,-377.14C213.16,-367.42 192.7,-352.75 177.82,-342.08"/>
<polygon fill="black" stroke="black" points="178.48,-340.4 173.39,-338.91 176.44,-343.24 178.48,-340.4"/>
</g>
<!-- 299153 -->
<!-- 4574312304&#45;&gt;299153 -->
<!-- 4574313216 -->
<g id="node4" class="node">
<title>4574313216</title>
<ellipse fill="lightblue" stroke="black" cx="325" cy="-327.59" rx="20.6" ry="20.6"/>
<text text-anchor="middle" x="325" y="-323.89" font-family="Helvetica,sans-Serif" font-size="14.00">22</text>
</g>
<!-- 4574312304&#45;&gt;4574313216 -->
<g id="edge3" class="edge">
<title>4574312304&#45;&gt;4574313216</title>
<path fill="none" stroke="black" d="M255.63,-377.14C269.04,-367.76 289.03,-353.76 304.11,-343.21"/>
<polygon fill="black" stroke="black" points="305.14,-344.63 308.23,-340.33 303.13,-341.76 305.14,-344.63"/>
</g>
<!-- 4574334608 -->
<g id="node5" class="node">
<title>4574334608</title>
<ellipse fill="lightblue" stroke="black" cx="111" cy="-263.99" rx="18" ry="18"/>
<text text-anchor="middle" x="111" y="-260.29" font-family="Helvetica,sans-Serif" font-size="14.00">1</text>
</g>
<!-- 4573818000&#45;&gt;4574334608 -->
<g id="edge4" class="edge">
<title>4573818000&#45;&gt;4574334608</title>
<path fill="none" stroke="black" d="M148.35,-312.92C141.39,-303.99 132.23,-292.24 124.73,-282.61"/>
<polygon fill="black" stroke="black" points="126.08,-281.49 121.62,-278.62 123.32,-283.64 126.08,-281.49"/>
</g>
<!-- 826162 -->
<!-- 4573818000&#45;&gt;826162 -->
<!-- 408017 -->
<!-- 4573818000&#45;&gt;408017 -->
<!-- 4574308032 -->
<g id="node8" class="node">
<title>4574308032</title>
<ellipse fill="lightblue" stroke="black" cx="275" cy="-263.99" rx="20.6" ry="20.6"/>
<text text-anchor="middle" x="275" y="-260.29" font-family="Helvetica,sans-Serif" font-size="14.00">14</text>
</g>
<!-- 4574313216&#45;&gt;4574308032 -->
<g id="edge7" class="edge">
<title>4574313216&#45;&gt;4574308032</title>
<path fill="none" stroke="black" d="M312.38,-311.04C305.92,-303.08 297.98,-293.3 291.08,-284.8"/>
<polygon fill="black" stroke="black" points="292.3,-283.52 287.79,-280.74 289.58,-285.73 292.3,-283.52"/>
</g>
<!-- 859925 -->
<!-- 4574313216&#45;&gt;859925 -->
<!-- 4574335040 -->
<g id="node10" class="node">
<title>4574335040</title>
<ellipse fill="lightblue" stroke="black" cx="446" cy="-263.99" rx="20.6" ry="20.6"/>
<text text-anchor="middle" x="446" y="-260.29" font-family="Helvetica,sans-Serif" font-size="14.00">24</text>
</g>
<!-- 4574313216&#45;&gt;4574335040 -->
<g id="edge9" class="edge">
<title>4574313216&#45;&gt;4574335040</title>
<path fill="none" stroke="black" d="M343.11,-317.37C364.5,-306.48 400.08,-288.36 423.29,-276.55"/>
<polygon fill="black" stroke="black" points="424.1,-278.1 427.76,-274.28 422.51,-274.98 424.1,-278.1"/>
</g>
<!-- 4574335280 -->
<g id="node11" class="node">
<title>4574335280</title>
<ellipse fill="lightblue" stroke="black" cx="164" cy="-200.39" rx="20.6" ry="20.6"/>
<text text-anchor="middle" x="164" y="-196.69" font-family="Helvetica,sans-Serif" font-size="14.00">13</text>
</g>
<!-- 4574308032&#45;&gt;4574335280 -->
<g id="edge10" class="edge">
<title>4574308032&#45;&gt;4574335280</title>
<path fill="none" stroke="black" d="M257.17,-253.09C237.91,-242.41 207.2,-225.36 186.34,-213.79"/>
<polygon fill="black" stroke="black" points="187.01,-212.16 181.79,-211.27 185.31,-215.22 187.01,-212.16"/>
</g>
<!-- 254037 -->
<!-- 4574308032&#45;&gt;254037 -->
<!-- 4574301744 -->
<g id="node13" class="node">
<title>4574301744</title>
<ellipse fill="lightblue" stroke="black" cx="325" cy="-200.39" rx="20.6" ry="20.6"/>
<text text-anchor="middle" x="325" y="-196.69" font-family="Helvetica,sans-Serif" font-size="14.00">16</text>
</g>
<!-- 4574308032&#45;&gt;4574301744 -->
<g id="edge12" class="edge">
<title>4574308032&#45;&gt;4574301744</title>
<path fill="none" stroke="black" d="M287.62,-247.45C294.08,-239.48 302.02,-229.7 308.92,-221.2"/>
<polygon fill="black" stroke="black" points="310.42,-222.13 312.21,-217.15 307.7,-219.93 310.42,-222.13"/>
</g>
<!-- 4574334704 -->
<g id="node26" class="node">
<title>4574334704</title>
<ellipse fill="lightblue" stroke="black" cx="396" cy="-200.39" rx="20.6" ry="20.6"/>
<text text-anchor="middle" x="396" y="-196.69" font-family="Helvetica,sans-Serif" font-size="14.00">23</text>
</g>
<!-- 4574335040&#45;&gt;4574334704 -->
<g id="edge25" class="edge">
<title>4574335040&#45;&gt;4574334704</title>
<path fill="none" stroke="black" d="M433.38,-247.45C426.92,-239.48 418.98,-229.7 412.08,-221.2"/>
<polygon fill="black" stroke="black" points="413.3,-219.93 408.79,-217.15 410.58,-222.13 413.3,-219.93"/>
</g>
<!-- 640884 -->
<!-- 4574335040&#45;&gt;640884 -->
<!-- 4574334944 -->
<g id="node28" class="node">
<title>4574334944</title>
<ellipse fill="lightblue" stroke="black" cx="496" cy="-200.39" rx="20.6" ry="20.6"/>
<text text-anchor="middle" x="496" y="-196.69" font-family="Helvetica,sans-Serif" font-size="14.00">25</text>
</g>
<!-- 4574335040&#45;&gt;4574334944 -->
<g id="edge27" class="edge">
<title>4574335040&#45;&gt;4574334944</title>
<path fill="none" stroke="black" d="M458.62,-247.45C465.08,-239.48 473.02,-229.7 479.92,-221.2"/>
<polygon fill="black" stroke="black" points="481.42,-222.13 483.21,-217.15 478.7,-219.93 481.42,-222.13"/>
</g>
<!-- 4574331344 -->
<g id="node14" class="node">
<title>4574331344</title>
<ellipse fill="lightblue" stroke="black" cx="114" cy="-136.8" rx="20.6" ry="20.6"/>
<text text-anchor="middle" x="114" y="-133.1" font-family="Helvetica,sans-Serif" font-size="14.00">11</text>
</g>
<!-- 4574335280&#45;&gt;4574331344 -->
<g id="edge13" class="edge">
<title>4574335280&#45;&gt;4574331344</title>
<path fill="none" stroke="black" d="M151.38,-183.85C144.92,-175.89 136.98,-166.1 130.08,-157.61"/>
<polygon fill="black" stroke="black" points="131.3,-156.33 126.79,-153.55 128.58,-158.54 131.3,-156.33"/>
</g>
<!-- 58792 -->
<!-- 4574335280&#45;&gt;58792 -->
<!-- 419863 -->
<!-- 4574335280&#45;&gt;419863 -->
<!-- 728893 -->
<!-- 4574301744&#45;&gt;728893 -->
<!-- 31714 -->
<!-- 4574301744&#45;&gt;31714 -->
<!-- 4574332304 -->
<g id="node25" class="node">
<title>4574332304</title>
<ellipse fill="lightblue" stroke="black" cx="375" cy="-136.8" rx="20.6" ry="20.6"/>
<text text-anchor="middle" x="375" y="-133.1" font-family="Helvetica,sans-Serif" font-size="14.00">17</text>
</g>
<!-- 4574301744&#45;&gt;4574332304 -->
<g id="edge24" class="edge">
<title>4574301744&#45;&gt;4574332304</title>
<path fill="none" stroke="black" d="M337.62,-183.85C344.08,-175.89 352.02,-166.1 358.92,-157.61"/>
<polygon fill="black" stroke="black" points="360.42,-158.54 362.21,-153.55 357.7,-156.33 360.42,-158.54"/>
</g>
<!-- 4574334848 -->
<g id="node17" class="node">
<title>4574334848</title>
<ellipse fill="lightblue" stroke="black" cx="66" cy="-76" rx="18" ry="18"/>
<text text-anchor="middle" x="66" y="-72.3" font-family="Helvetica,sans-Serif" font-size="14.00">9</text>
</g>
<!-- 4574331344&#45;&gt;4574334848 -->
<g id="edge16" class="edge">
<title>4574331344&#45;&gt;4574334848</title>
<path fill="none" stroke="black" d="M101.14,-120.04C94.76,-112.23 87.04,-102.78 80.47,-94.72"/>
<polygon fill="black" stroke="black" points="81.46,-93.17 76.94,-90.41 78.75,-95.39 81.46,-93.17"/>
</g>
<!-- 222645 -->
<!-- 4574331344&#45;&gt;222645 -->
<!-- 590873 -->
<!-- 4574331344&#45;&gt;590873 -->
<!-- 4574331488 -->
<g id="node20" class="node">
<title>4574331488</title>
<ellipse fill="lightblue" stroke="black" cx="18" cy="-18" rx="18" ry="18"/>
<text text-anchor="middle" x="18" y="-14.3" font-family="Helvetica,sans-Serif" font-size="14.00">6</text>
</g>
<!-- 4574334848&#45;&gt;4574331488 -->
<g id="edge19" class="edge">
<title>4574334848&#45;&gt;4574331488</title>
<path fill="none" stroke="black" d="M54.62,-61.73C48.05,-54.06 39.71,-44.32 32.64,-36.08"/>
<polygon fill="black" stroke="black" points="33.88,-34.83 29.29,-32.18 31.22,-37.11 33.88,-34.83"/>
</g>
<!-- 784965 -->
<!-- 4574334848&#45;&gt;784965 -->
<!-- 114213 -->
<!-- 4574334848&#45;&gt;114213 -->
<!-- 761705 -->
<!-- 4574334944&#45;&gt;761705 -->
<!-- 602619 -->
<!-- 4574334944&#45;&gt;602619 -->
<!-- 4574334896 -->
<g id="node31" class="node">
<title>4574334896</title>
<ellipse fill="lightblue" stroke="black" cx="546" cy="-136.8" rx="20.6" ry="20.6"/>
<text text-anchor="middle" x="546" y="-133.1" font-family="Helvetica,sans-Serif" font-size="14.00">26</text>
</g>
<!-- 4574334944&#45;&gt;4574334896 -->
<g id="edge30" class="edge">
<title>4574334944&#45;&gt;4574334896</title>
<path fill="none" stroke="black" d="M508.62,-183.85C515.08,-175.89 523.02,-166.1 529.92,-157.61"/>
<polygon fill="black" stroke="black" points="531.42,-158.54 533.21,-153.55 528.7,-156.33 531.42,-158.54"/>
</g>
</g>
</svg>
