<?xml version="1.0" encoding="UTF-8" standalone="no"?>
<!DOCTYPE svg PUBLIC "-//W3C//DTD SVG 1.1//EN"
 "http://www.w3.org/Graphics/SVG/1.1/DTD/svg11.dtd">
<!-- Generated by graphviz version 2.50.0 (0)
 -->
<!-- Pages: 1 -->
<svg width="627pt" height="221pt"
 viewBox="0.00 0.00 626.70 221.00" xmlns="http://www.w3.org/2000/svg" xmlns:xlink="http://www.w3.org/1999/xlink">
<g id="graph0" class="graph" transform="scale(1 1) rotate(0) translate(4 217)">
<polygon fill="white" stroke="transparent" points="-4,4 -4,-217 622.7,-217 622.7,4 -4,4"/>
<!-- 4415845200 -->
<g id="node1" class="node">
<title>4415845200</title>
<ellipse fill="#9bcd9b" stroke="black" cx="307.2" cy="-195" rx="18" ry="18"/>
<text text-anchor="middle" x="307.2" y="-191.3" font-family="Helvetica,sans-Serif" font-size="14.00">B</text>
</g>
<!-- 4574182336 -->
<g id="node2" class="node">
<title>4574182336</title>
<ellipse fill="#9bcd9b" stroke="black" cx="179.2" cy="-137" rx="18" ry="18"/>
<text text-anchor="middle" x="179.2" y="-133.3" font-family="Helvetica,sans-Serif" font-size="14.00">C</text>
</g>
<!-- 4415845200&#45;&gt;4574182336 -->
<g id="edge1" class="edge">
<title>4415845200&#45;&gt;4574182336</title>
<path fill="none" stroke="black" d="M290.99,-186.9C268.03,-176.86 226.02,-158.48 200.55,-147.34"/>
<polygon fill="black" stroke="black" points="200.96,-145.61 195.68,-145.21 199.56,-148.82 200.96,-145.61"/>
</g>
<!-- 902031 -->
<!-- 4415845200&#45;&gt;902031 -->
<!-- 4574181760 -->
<g id="node4" class="node">
<title>4574181760</title>
<ellipse fill="#9bcd9b" stroke="black" cx="436.2" cy="-137" rx="18" ry="18"/>
<text text-anchor="middle" x="436.2" y="-133.3" font-family="Helvetica,sans-Serif" font-size="14.00">Y</text>
</g>
<!-- 4415845200&#45;&gt;4574181760 -->
<g id="edge3" class="edge">
<title>4415845200&#45;&gt;4574181760</title>
<path fill="none" stroke="black" d="M323.54,-186.9C346.8,-176.81 389.48,-158.28 415.11,-147.15"/>
<polygon fill="black" stroke="black" points="416.1,-148.63 419.99,-145.03 414.71,-145.42 416.1,-148.63"/>
</g>
<!-- 4574182240 -->
<g id="node5" class="node">
<title>4574182240</title>
<ellipse fill="#9bcd9b" stroke="black" cx="66.2" cy="-79" rx="18" ry="18"/>
<text text-anchor="middle" x="66.2" y="-75.3" font-family="Helvetica,sans-Serif" font-size="14.00">L</text>
</g>
<!-- 4574182336&#45;&gt;4574182240 -->
<g id="edge4" class="edge">
<title>4574182336&#45;&gt;4574182240</title>
<path fill="none" stroke="black" d="M163.49,-128.21C143.44,-118.28 108.74,-101.08 86.65,-90.13"/>
<polygon fill="black" stroke="black" points="87.4,-88.55 82.14,-87.9 85.84,-91.69 87.4,-88.55"/>
</g>
<!-- 533795 -->
<!-- 4574182336&#45;&gt;533795 -->
<!-- 4574182096 -->
<g id="node7" class="node">
<title>4574182096</title>
<ellipse fill="#9bcd9b" stroke="black" cx="227.2" cy="-79" rx="18" ry="18"/>
<text text-anchor="middle" x="227.2" y="-75.3" font-family="Helvetica,sans-Serif" font-size="14.00">F</text>
</g>
<!-- 4574182336&#45;&gt;4574182096 -->
<g id="edge6" class="edge">
<title>4574182336&#45;&gt;4574182096</title>
<path fill="none" stroke="black" d="M190.57,-122.73C197.15,-115.05 205.49,-105.32 212.55,-97.08"/>
<polygon fill="black" stroke="black" points="213.98,-98.11 215.9,-93.17 211.32,-95.83 213.98,-98.11"/>
</g>
<!-- 4574182288 -->
<g id="node14" class="node">
<title>4574182288</title>
<ellipse fill="#9bcd9b" stroke="black" cx="388.2" cy="-79" rx="18" ry="18"/>
<text text-anchor="middle" x="388.2" y="-75.3" font-family="Helvetica,sans-Serif" font-size="14.00">J</text>
</g>
<!-- 4574181760&#45;&gt;4574182288 -->
<g id="edge13" class="edge">
<title>4574181760&#45;&gt;4574182288</title>
<path fill="none" stroke="black" d="M424.82,-122.73C418.25,-115.05 409.9,-105.32 402.84,-97.08"/>
<polygon fill="black" stroke="black" points="404.07,-95.83 399.49,-93.17 401.42,-98.11 404.07,-95.83"/>
</g>
<!-- 570610 -->
<!-- 4574181760&#45;&gt;570610 -->
<!-- 4574344832 -->
<g id="node16" class="node">
<title>4574344832</title>
<ellipse fill="#9bcd9b" stroke="black" cx="550.2" cy="-79" rx="18" ry="18"/>
<text text-anchor="middle" x="550.2" y="-75.3" font-family="Helvetica,sans-Serif" font-size="14.00">I</text>
</g>
<!-- 4574181760&#45;&gt;4574344832 -->
<g id="edge15" class="edge">
<title>4574181760&#45;&gt;4574344832</title>
<path fill="none" stroke="black" d="M452.05,-128.21C472.27,-118.28 507.28,-101.08 529.56,-90.13"/>
<polygon fill="black" stroke="black" points="530.4,-91.67 534.11,-87.9 528.85,-88.53 530.4,-91.67"/>
</g>
<!-- 4574338064 -->
<g id="node8" class="node">
<title>4574338064</title>
<ellipse fill="#9bcd9b" stroke="black" cx="18.2" cy="-19.5" rx="18.4" ry="18.4"/>
<text text-anchor="middle" x="18.2" y="-15.8" font-family="Helvetica,sans-Serif" font-size="14.00">G</text>
</g>
<!-- 4574182240&#45;&gt;4574338064 -->
<g id="edge7" class="edge">
<title>4574182240&#45;&gt;4574338064</title>
<path fill="none" stroke="black" d="M55.07,-64.66C48.5,-56.79 40.1,-46.74 32.98,-38.21"/>
<polygon fill="black" stroke="black" points="34.15,-36.88 29.6,-34.16 31.47,-39.12 34.15,-36.88"/>
</g>
<!-- 995513 -->
<!-- 4574182240&#45;&gt;995513 -->
<!-- 4574344640 -->
<g id="node10" class="node">
<title>4574344640</title>
<ellipse fill="#9bcd9b" stroke="black" cx="114.2" cy="-19.5" rx="18" ry="18"/>
<text text-anchor="middle" x="114.2" y="-15.8" font-family="Helvetica,sans-Serif" font-size="14.00">Z</text>
</g>
<!-- 4574182240&#45;&gt;4574344640 -->
<g id="edge9" class="edge">
<title>4574182240&#45;&gt;4574344640</title>
<path fill="none" stroke="black" d="M77.33,-64.66C84,-56.68 92.54,-46.44 99.72,-37.84"/>
<polygon fill="black" stroke="black" points="101.27,-38.72 103.13,-33.76 98.58,-36.48 101.27,-38.72"/>
</g>
<!-- 4574344688 -->
<g id="node11" class="node">
<title>4574344688</title>
<ellipse fill="#9bcd9b" stroke="black" cx="179.2" cy="-19.5" rx="18" ry="18"/>
<text text-anchor="middle" x="179.2" y="-15.8" font-family="Helvetica,sans-Serif" font-size="14.00">V</text>
</g>
<!-- 4574182096&#45;&gt;4574344688 -->
<g id="edge10" class="edge">
<title>4574182096&#45;&gt;4574344688</title>
<path fill="none" stroke="black" d="M216.07,-64.66C209.4,-56.68 200.86,-46.44 193.67,-37.84"/>
<polygon fill="black" stroke="black" points="194.82,-36.48 190.27,-33.76 192.13,-38.72 194.82,-36.48"/>
</g>
<!-- 390133 -->
<!-- 4574182096&#45;&gt;390133 -->
<!-- 4574340080 -->
<g id="node13" class="node">
<title>4574340080</title>
<ellipse fill="#9bcd9b" stroke="black" cx="275.2" cy="-19.5" rx="18" ry="18"/>
<text text-anchor="middle" x="275.2" y="-15.8" font-family="Helvetica,sans-Serif" font-size="14.00">N</text>
</g>
<!-- 4574182096&#45;&gt;4574340080 -->
<g id="edge12" class="edge">
<title>4574182096&#45;&gt;4574340080</title>
<path fill="none" stroke="black" d="M238.33,-64.66C245,-56.68 253.54,-46.44 260.72,-37.84"/>
<polygon fill="black" stroke="black" points="262.27,-38.72 264.13,-33.76 259.58,-36.48 262.27,-38.72"/>
</g>
<!-- 4574341712 -->
<g id="node17" class="node">
<title>4574341712</title>
<ellipse fill="#9bcd9b" stroke="black" cx="340.2" cy="-19.5" rx="18" ry="18"/>
<text text-anchor="middle" x="340.2" y="-15.8" font-family="Helvetica,sans-Serif" font-size="14.00">K</text>
</g>
<!-- 4574182288&#45;&gt;4574341712 -->
<g id="edge16" class="edge">
<title>4574182288&#45;&gt;4574341712</title>
<path fill="none" stroke="black" d="M377.07,-64.66C370.4,-56.68 361.86,-46.44 354.67,-37.84"/>
<polygon fill="black" stroke="black" points="355.82,-36.48 351.27,-33.76 353.13,-38.72 355.82,-36.48"/>
</g>
<!-- 981164 -->
<!-- 4574182288&#45;&gt;981164 -->
<!-- 4574343248 -->
<g id="node19" class="node">
<title>4574343248</title>
<ellipse fill="#9bcd9b" stroke="black" cx="436.2" cy="-19.5" rx="18" ry="18"/>
<text text-anchor="middle" x="436.2" y="-15.8" font-family="Helvetica,sans-Serif" font-size="14.00">S</text>
</g>
<!-- 4574182288&#45;&gt;4574343248 -->
<g id="edge18" class="edge">
<title>4574182288&#45;&gt;4574343248</title>
<path fill="none" stroke="black" d="M399.33,-64.66C406,-56.68 414.54,-46.44 421.72,-37.84"/>
<polygon fill="black" stroke="black" points="423.27,-38.72 425.13,-33.76 420.58,-36.48 423.27,-38.72"/>
</g>
<!-- 4574341520 -->
<g id="node20" class="node">
<title>4574341520</title>
<ellipse fill="#9bcd9b" stroke="black" cx="502.2" cy="-19.5" rx="18.7" ry="18.7"/>
<text text-anchor="middle" x="502.2" y="-15.8" font-family="Helvetica,sans-Serif" font-size="14.00">M</text>
</g>
<!-- 4574344832&#45;&gt;4574341520 -->
<g id="edge19" class="edge">
<title>4574344832&#45;&gt;4574341520</title>
<path fill="none" stroke="black" d="M539.07,-64.66C532.59,-56.91 524.35,-47.03 517.29,-38.58"/>
<polygon fill="black" stroke="black" points="518.49,-37.28 513.94,-34.56 515.8,-39.52 518.49,-37.28"/>
</g>
<!-- 466463 -->
<!-- 4574344832&#45;&gt;466463 -->
<!-- 4574344304 -->
<g id="node22" class="node">
<title>4574344304</title>
<ellipse fill="#9bcd9b" stroke="black" cx="599.2" cy="-19.5" rx="19.5" ry="19.5"/>
<text text-anchor="middle" x="599.2" y="-15.8" font-family="Helvetica,sans-Serif" font-size="14.00">W</text>
</g>
<!-- 4574344832&#45;&gt;4574344304 -->
<g id="edge21" class="edge">
<title>4574344832&#45;&gt;4574344304</title>
<path fill="none" stroke="black" d="M561.56,-64.66C568.07,-57.02 576.34,-47.32 583.47,-38.95"/>
<polygon fill="black" stroke="black" points="584.95,-39.91 586.87,-34.97 582.29,-37.64 584.95,-39.91"/>
</g>
</g>
</svg>
