<?xml version="1.0" encoding="UTF-8" standalone="no"?>
<!DOCTYPE svg PUBLIC "-//W3C//DTD SVG 1.1//EN"
 "http://www.w3.org/Graphics/SVG/1.1/DTD/svg11.dtd">
<!-- Generated by graphviz version 2.50.0 (0)
 -->
<!-- Pages: 1 -->
<svg width="623pt" height="281pt"
 viewBox="0.00 0.00 623.00 281.49" xmlns="http://www.w3.org/2000/svg" xmlns:xlink="http://www.w3.org/1999/xlink">
<g id="graph0" class="graph" transform="scale(1 1) rotate(0) translate(4 277.49)">
<polygon fill="white" stroke="transparent" points="-4,4 -4,-277.49 619,-277.49 619,4 -4,4"/>
<!-- 4574335712 -->
<g id="node1" class="node">
<title>4574335712</title>
<ellipse fill="lightblue" stroke="black" cx="307" cy="-254.64" rx="18.7" ry="18.7"/>
<text text-anchor="middle" x="307" y="-250.94" font-family="Helvetica,sans-Serif" font-size="14.00">M</text>
</g>
<!-- 4574339024 -->
<g id="node2" class="node">
<title>4574339024</title>
<ellipse fill="lightblue" stroke="black" cx="179" cy="-195.59" rx="18.4" ry="18.4"/>
<text text-anchor="middle" x="179" y="-191.89" font-family="Helvetica,sans-Serif" font-size="14.00">G</text>
</g>
<!-- 4574335712&#45;&gt;4574339024 -->
<g id="edge1" class="edge">
<title>4574335712&#45;&gt;4574339024</title>
<path fill="none" stroke="black" d="M290,-246.06C266.8,-235.72 225.21,-217.19 200.06,-205.98"/>
<polygon fill="black" stroke="black" points="200.54,-204.27 195.26,-203.84 199.11,-207.47 200.54,-204.27"/>
</g>
<!-- 593411 -->
<!-- 4574335712&#45;&gt;593411 -->
<!-- 4574346320 -->
<g id="node4" class="node">
<title>4574346320</title>
<ellipse fill="lightblue" stroke="black" cx="436" cy="-195.59" rx="18" ry="18"/>
<text text-anchor="middle" x="436" y="-191.89" font-family="Helvetica,sans-Serif" font-size="14.00">U</text>
</g>
<!-- 4574335712&#45;&gt;4574346320 -->
<g id="edge3" class="edge">
<title>4574335712&#45;&gt;4574346320</title>
<path fill="none" stroke="black" d="M323.86,-246.18C347.17,-235.87 389.22,-217.28 414.68,-206.02"/>
<polygon fill="black" stroke="black" points="415.67,-207.49 419.54,-203.87 414.26,-204.29 415.67,-207.49"/>
</g>
<!-- 4574338112 -->
<g id="node5" class="node">
<title>4574338112</title>
<ellipse fill="lightblue" stroke="black" cx="66" cy="-135.9" rx="18" ry="18"/>
<text text-anchor="middle" x="66" y="-132.2" font-family="Helvetica,sans-Serif" font-size="14.00">B</text>
</g>
<!-- 4574339024&#45;&gt;4574338112 -->
<g id="edge4" class="edge">
<title>4574339024&#45;&gt;4574338112</title>
<path fill="none" stroke="black" d="M162.81,-186.33C142.64,-176.03 108.17,-158.43 86.27,-147.24"/>
<polygon fill="black" stroke="black" points="87.04,-145.68 81.8,-144.96 85.45,-148.79 87.04,-145.68"/>
</g>
<!-- 810920 -->
<!-- 4574339024&#45;&gt;810920 -->
<!-- 4574337632 -->
<g id="node7" class="node">
<title>4574337632</title>
<ellipse fill="lightblue" stroke="black" cx="227" cy="-135.9" rx="18" ry="18"/>
<text text-anchor="middle" x="227" y="-132.2" font-family="Helvetica,sans-Serif" font-size="14.00">H</text>
</g>
<!-- 4574339024&#45;&gt;4574337632 -->
<g id="edge6" class="edge">
<title>4574339024&#45;&gt;4574337632</title>
<path fill="none" stroke="black" d="M190.38,-180.92C196.95,-173.01 205.29,-162.99 212.36,-154.5"/>
<polygon fill="black" stroke="black" points="213.85,-155.43 215.71,-150.47 211.16,-153.19 213.85,-155.43"/>
</g>
<!-- 4574345648 -->
<g id="node17" class="node">
<title>4574345648</title>
<ellipse fill="lightblue" stroke="black" cx="388" cy="-135.9" rx="18" ry="18"/>
<text text-anchor="middle" x="388" y="-132.2" font-family="Helvetica,sans-Serif" font-size="14.00">T</text>
</g>
<!-- 4574346320&#45;&gt;4574345648 -->
<g id="edge16" class="edge">
<title>4574346320&#45;&gt;4574345648</title>
<path fill="none" stroke="black" d="M424.87,-181.21C418.2,-173.2 409.66,-162.93 402.48,-154.3"/>
<polygon fill="black" stroke="black" points="403.62,-152.93 399.07,-150.2 400.92,-155.17 403.62,-152.93"/>
</g>
<!-- 857222 -->
<!-- 4574346320&#45;&gt;857222 -->
<!-- 4574341568 -->
<g id="node19" class="node">
<title>4574341568</title>
<ellipse fill="lightblue" stroke="black" cx="549" cy="-135.9" rx="19.5" ry="19.5"/>
<text text-anchor="middle" x="549" y="-132.2" font-family="Helvetica,sans-Serif" font-size="14.00">W</text>
</g>
<!-- 4574346320&#45;&gt;4574341568 -->
<g id="edge18" class="edge">
<title>4574346320&#45;&gt;4574341568</title>
<path fill="none" stroke="black" d="M451.71,-186.57C471.41,-176.51 505.29,-159.21 527.41,-147.92"/>
<polygon fill="black" stroke="black" points="528.29,-149.44 531.95,-145.6 526.7,-146.32 528.29,-149.44"/>
</g>
<!-- 4574300544 -->
<g id="node8" class="node">
<title>4574300544</title>
<ellipse fill="lightblue" stroke="black" cx="18" cy="-76.2" rx="18" ry="18"/>
<text text-anchor="middle" x="18" y="-72.5" font-family="Helvetica,sans-Serif" font-size="14.00">A</text>
</g>
<!-- 4574338112&#45;&gt;4574300544 -->
<g id="edge7" class="edge">
<title>4574338112&#45;&gt;4574300544</title>
<path fill="none" stroke="black" d="M54.87,-121.51C48.2,-113.5 39.66,-103.23 32.48,-94.6"/>
<polygon fill="black" stroke="black" points="33.62,-93.23 29.07,-90.51 30.92,-95.47 33.62,-93.23"/>
</g>
<!-- 135361 -->
<!-- 4574338112&#45;&gt;135361 -->
<!-- 4574304048 -->
<g id="node10" class="node">
<title>4574304048</title>
<ellipse fill="lightblue" stroke="black" cx="114" cy="-76.2" rx="18" ry="18"/>
<text text-anchor="middle" x="114" y="-72.5" font-family="Helvetica,sans-Serif" font-size="14.00">D</text>
</g>
<!-- 4574338112&#45;&gt;4574304048 -->
<g id="edge9" class="edge">
<title>4574338112&#45;&gt;4574304048</title>
<path fill="none" stroke="black" d="M77.13,-121.51C83.8,-113.5 92.34,-103.23 99.52,-94.6"/>
<polygon fill="black" stroke="black" points="101.08,-95.47 102.93,-90.51 98.38,-93.23 101.08,-95.47"/>
</g>
<!-- 574176 -->
<!-- 4574337632&#45;&gt;574176 -->
<!-- 953706 -->
<!-- 4574337632&#45;&gt;953706 -->
<!-- 4574301312 -->
<g id="node16" class="node">
<title>4574301312</title>
<ellipse fill="lightblue" stroke="black" cx="275" cy="-76.2" rx="18" ry="18"/>
<text text-anchor="middle" x="275" y="-72.5" font-family="Helvetica,sans-Serif" font-size="14.00">L</text>
</g>
<!-- 4574337632&#45;&gt;4574301312 -->
<g id="edge15" class="edge">
<title>4574337632&#45;&gt;4574301312</title>
<path fill="none" stroke="black" d="M238.13,-121.51C244.8,-113.5 253.34,-103.23 260.52,-94.6"/>
<polygon fill="black" stroke="black" points="262.08,-95.47 263.93,-90.51 259.38,-93.23 262.08,-95.47"/>
</g>
<!-- 4574313072 -->
<g id="node11" class="node">
<title>4574313072</title>
<ellipse fill="lightblue" stroke="black" cx="66" cy="-18" rx="18" ry="18"/>
<text text-anchor="middle" x="66" y="-14.3" font-family="Helvetica,sans-Serif" font-size="14.00">C</text>
</g>
<!-- 4574304048&#45;&gt;4574313072 -->
<g id="edge10" class="edge">
<title>4574304048&#45;&gt;4574313072</title>
<path fill="none" stroke="black" d="M102.62,-61.88C96.05,-54.18 87.71,-44.41 80.64,-36.15"/>
<polygon fill="black" stroke="black" points="81.87,-34.89 77.29,-32.22 79.21,-37.16 81.87,-34.89"/>
</g>
<!-- 533728 -->
<!-- 4574304048&#45;&gt;533728 -->
<!-- 4574314416 -->
<g id="node13" class="node">
<title>4574314416</title>
<ellipse fill="lightblue" stroke="black" cx="162" cy="-18" rx="18" ry="18"/>
<text text-anchor="middle" x="162" y="-14.3" font-family="Helvetica,sans-Serif" font-size="14.00">F</text>
</g>
<!-- 4574304048&#45;&gt;4574314416 -->
<g id="edge12" class="edge">
<title>4574304048&#45;&gt;4574314416</title>
<path fill="none" stroke="black" d="M125.38,-61.88C131.95,-54.18 140.29,-44.41 147.36,-36.15"/>
<polygon fill="black" stroke="black" points="148.79,-37.16 150.71,-32.22 146.13,-34.89 148.79,-37.16"/>
</g>
<!-- 4574346944 -->
<g id="node20" class="node">
<title>4574346944</title>
<ellipse fill="lightblue" stroke="black" cx="340" cy="-76.2" rx="18.4" ry="18.4"/>
<text text-anchor="middle" x="340" y="-72.5" font-family="Helvetica,sans-Serif" font-size="14.00">Q</text>
</g>
<!-- 4574345648&#45;&gt;4574346944 -->
<g id="edge19" class="edge">
<title>4574345648&#45;&gt;4574346944</title>
<path fill="none" stroke="black" d="M376.87,-121.51C370.3,-113.62 361.9,-103.53 354.78,-94.97"/>
<polygon fill="black" stroke="black" points="355.95,-93.63 351.41,-90.91 353.26,-95.87 355.95,-93.63"/>
</g>
<!-- 423604 -->
<!-- 4574345648&#45;&gt;423604 -->
<!-- 252036 -->
<!-- 4574345648&#45;&gt;252036 -->
<!-- 4574311152 -->
<g id="node23" class="node">
<title>4574311152</title>
<ellipse fill="lightblue" stroke="black" cx="501" cy="-76.2" rx="18" ry="18"/>
<text text-anchor="middle" x="501" y="-72.5" font-family="Helvetica,sans-Serif" font-size="14.00">V</text>
</g>
<!-- 4574341568&#45;&gt;4574311152 -->
<g id="edge22" class="edge">
<title>4574341568&#45;&gt;4574311152</title>
<path fill="none" stroke="black" d="M536.89,-120.34C530.4,-112.53 522.35,-102.86 515.53,-94.66"/>
<polygon fill="black" stroke="black" points="516.83,-93.49 512.28,-90.76 514.14,-95.73 516.83,-93.49"/>
</g>
<!-- 734862 -->
<!-- 4574341568&#45;&gt;734862 -->
<!-- 4574312352 -->
<g id="node25" class="node">
<title>4574312352</title>
<ellipse fill="lightblue" stroke="black" cx="597" cy="-76.2" rx="18" ry="18"/>
<text text-anchor="middle" x="597" y="-72.5" font-family="Helvetica,sans-Serif" font-size="14.00">X</text>
</g>
<!-- 4574341568&#45;&gt;4574312352 -->
<g id="edge24" class="edge">
<title>4574341568&#45;&gt;4574312352</title>
<path fill="none" stroke="black" d="M561.11,-120.34C567.6,-112.53 575.65,-102.86 582.47,-94.66"/>
<polygon fill="black" stroke="black" points="583.86,-95.73 585.72,-90.76 581.17,-93.49 583.86,-95.73"/>
</g>
</g>
</svg>
