<?xml version="1.0" encoding="UTF-8" standalone="no"?>
<!DOCTYPE svg PUBLIC "-//W3C//DTD SVG 1.1//EN"
 "http://www.w3.org/Graphics/SVG/1.1/DTD/svg11.dtd">
<!-- Generated by graphviz version 2.50.0 (0)
 -->
<!-- Pages: 1 -->
<svg width="387pt" height="379pt"
 viewBox="0.00 0.00 387.20 379.28" xmlns="http://www.w3.org/2000/svg" xmlns:xlink="http://www.w3.org/1999/xlink">
<g id="graph0" class="graph" transform="scale(1 1) rotate(0) translate(4 375.28)">
<polygon fill="white" stroke="transparent" points="-4,4 -4,-375.28 383.2,-375.28 383.2,4 -4,4"/>
<!-- 4628147296 -->
<g id="node1" class="node">
<title>4628147296</title>
<ellipse fill="lightblue" stroke="black" cx="308.4" cy="-350.48" rx="20.6" ry="20.6"/>
<text text-anchor="middle" x="308.4" y="-346.78" font-family="Helvetica,sans-Serif" font-size="14.00">10</text>
</g>
<!-- 4628139472 -->
<g id="node2" class="node">
<title>4628139472</title>
<ellipse fill="lightblue" stroke="black" cx="260.4" cy="-286.88" rx="18" ry="18"/>
<text text-anchor="middle" x="260.4" y="-283.18" font-family="Helvetica,sans-Serif" font-size="14.00">2</text>
</g>
<!-- 4628147296&#45;&gt;4628139472 -->
<g id="edge1" class="edge">
<title>4628147296&#45;&gt;4628139472</title>
<path fill="none" stroke="black" d="M296.04,-333.62C289.45,-325.16 281.32,-314.73 274.48,-305.96"/>
<polygon fill="black" stroke="black" points="275.7,-304.67 271.25,-301.8 272.94,-306.82 275.7,-304.67"/>
</g>
<!-- 900897 -->
<!-- 4628147296&#45;&gt;900897 -->
<!-- 4628139760 -->
<g id="node4" class="node">
<title>4628139760</title>
<ellipse fill="lightblue" stroke="black" cx="358.4" cy="-286.88" rx="20.6" ry="20.6"/>
<text text-anchor="middle" x="358.4" y="-283.18" font-family="Helvetica,sans-Serif" font-size="14.00">18</text>
</g>
<!-- 4628147296&#45;&gt;4628139760 -->
<g id="edge3" class="edge">
<title>4628147296&#45;&gt;4628139760</title>
<path fill="none" stroke="black" d="M321.02,-333.94C327.48,-325.97 335.42,-316.19 342.32,-307.69"/>
<polygon fill="black" stroke="black" points="343.82,-308.62 345.61,-303.63 341.1,-306.41 343.82,-308.62"/>
</g>
<!-- 4628148112 -->
<g id="node5" class="node">
<title>4628148112</title>
<ellipse fill="lightblue" stroke="black" cx="212.4" cy="-225.24" rx="18.7" ry="18.7"/>
<text text-anchor="middle" x="212.4" y="-221.54" font-family="Helvetica,sans-Serif" font-size="14.00">&#45;8</text>
</g>
<!-- 4628139472&#45;&gt;4628148112 -->
<g id="edge4" class="edge">
<title>4628139472&#45;&gt;4628148112</title>
<path fill="none" stroke="black" d="M249.51,-272.35C242.95,-264.2 234.5,-253.7 227.32,-244.78"/>
<polygon fill="black" stroke="black" points="228.41,-243.35 223.92,-240.55 225.69,-245.54 228.41,-243.35"/>
</g>
<!-- 192472 -->
<!-- 4628139472&#45;&gt;192472 -->
<!-- 4628148352 -->
<g id="node7" class="node">
<title>4628148352</title>
<ellipse fill="lightblue" stroke="black" cx="308.4" cy="-225.24" rx="18" ry="18"/>
<text text-anchor="middle" x="308.4" y="-221.54" font-family="Helvetica,sans-Serif" font-size="14.00">7</text>
</g>
<!-- 4628139472&#45;&gt;4628148352 -->
<g id="edge6" class="edge">
<title>4628139472&#45;&gt;4628148352</title>
<path fill="none" stroke="black" d="M271.29,-272.35C278.04,-263.96 286.79,-253.09 294.09,-244.01"/>
<polygon fill="black" stroke="black" points="295.78,-244.71 297.55,-239.72 293.05,-242.52 295.78,-244.71"/>
</g>
<!-- 4628152096 -->
<g id="node8" class="node">
<title>4628152096</title>
<ellipse fill="lightblue" stroke="black" cx="129.4" cy="-160.99" rx="23.3" ry="23.3"/>
<text text-anchor="middle" x="129.4" y="-157.29" font-family="Helvetica,sans-Serif" font-size="14.00">&#45;13</text>
</g>
<!-- 4628148112&#45;&gt;4628152096 -->
<g id="edge7" class="edge">
<title>4628148112&#45;&gt;4628152096</title>
<path fill="none" stroke="black" d="M197.56,-213.11C184.97,-203.66 166.69,-189.96 152.24,-179.12"/>
<polygon fill="black" stroke="black" points="152.93,-177.45 147.88,-175.85 150.83,-180.25 152.93,-177.45"/>
</g>
<!-- 235313 -->
<!-- 4628148112&#45;&gt;235313 -->
<!-- 4628142592 -->
<g id="node10" class="node">
<title>4628142592</title>
<ellipse fill="lightblue" stroke="black" cx="290.4" cy="-160.99" rx="18.7" ry="18.7"/>
<text text-anchor="middle" x="290.4" y="-157.29" font-family="Helvetica,sans-Serif" font-size="14.00">&#45;6</text>
</g>
<!-- 4628148112&#45;&gt;4628142592 -->
<g id="edge9" class="edge">
<title>4628148112&#45;&gt;4628142592</title>
<path fill="none" stroke="black" d="M226.7,-212.82C239.38,-202.7 257.96,-187.87 271.79,-176.84"/>
<polygon fill="black" stroke="black" points="273.1,-178.03 275.92,-173.54 270.92,-175.3 273.1,-178.03"/>
</g>
<!-- 4628141008 -->
<g id="node11" class="node">
<title>4628141008</title>
<ellipse fill="lightblue" stroke="black" cx="76.4" cy="-92.19" rx="23.3" ry="23.3"/>
<text text-anchor="middle" x="76.4" y="-88.49" font-family="Helvetica,sans-Serif" font-size="14.00">&#45;16</text>
</g>
<!-- 4628152096&#45;&gt;4628141008 -->
<g id="edge10" class="edge">
<title>4628152096&#45;&gt;4628141008</title>
<path fill="none" stroke="black" d="M115.19,-142.09C108.66,-133.85 100.84,-124 93.94,-115.31"/>
<polygon fill="black" stroke="black" points="95.12,-113.97 90.64,-111.14 92.38,-116.15 95.12,-113.97"/>
</g>
<!-- 958254 -->
<!-- 4628152096&#45;&gt;958254 -->
<!-- 204115 -->
<!-- 4628152096&#45;&gt;204115 -->
<!-- 167047 -->
<!-- 4628142592&#45;&gt;167047 -->
<!-- 51019 -->
<!-- 4628142592&#45;&gt;51019 -->
<!-- 4628137936 -->
<g id="node19" class="node">
<title>4628137936</title>
<ellipse fill="lightblue" stroke="black" cx="338.4" cy="-92.19" rx="18.7" ry="18.7"/>
<text text-anchor="middle" x="338.4" y="-88.49" font-family="Helvetica,sans-Serif" font-size="14.00">&#45;1</text>
</g>
<!-- 4628142592&#45;&gt;4628137936 -->
<g id="edge18" class="edge">
<title>4628142592&#45;&gt;4628137936</title>
<path fill="none" stroke="black" d="M301.05,-145.17C308.01,-135.48 317.17,-122.74 324.67,-112.3"/>
<polygon fill="black" stroke="black" points="326.28,-113.06 327.77,-107.98 323.44,-111.02 326.28,-113.06"/>
</g>
<!-- 4628137456 -->
<g id="node14" class="node">
<title>4628137456</title>
<ellipse fill="lightblue" stroke="black" cx="23.4" cy="-23.4" rx="23.3" ry="23.3"/>
<text text-anchor="middle" x="23.4" y="-19.7" font-family="Helvetica,sans-Serif" font-size="14.00">&#45;20</text>
</g>
<!-- 4628141008&#45;&gt;4628137456 -->
<g id="edge13" class="edge">
<title>4628141008&#45;&gt;4628137456</title>
<path fill="none" stroke="black" d="M62.19,-73.29C55.66,-65.06 47.84,-55.21 40.94,-46.51"/>
<polygon fill="black" stroke="black" points="42.12,-45.18 37.64,-42.35 39.38,-47.35 42.12,-45.18"/>
</g>
<!-- 731868 -->
<!-- 4628141008&#45;&gt;731868 -->
<!-- 231197 -->
<!-- 4628141008&#45;&gt;231197 -->
</g>
</svg>
