<?xml version="1.0" encoding="UTF-8" standalone="no"?>
<!DOCTYPE svg PUBLIC "-//W3C//DTD SVG 1.1//EN"
 "http://www.w3.org/Graphics/SVG/1.1/DTD/svg11.dtd">
<!-- Generated by graphviz version 2.50.0 (0)
 -->
<!-- Pages: 1 -->
<svg width="454pt" height="553pt"
 viewBox="0.00 0.00 453.80 552.77" xmlns="http://www.w3.org/2000/svg" xmlns:xlink="http://www.w3.org/1999/xlink">
<g id="graph0" class="graph" transform="scale(1 1) rotate(0) translate(4 548.77)">
<polygon fill="white" stroke="transparent" points="-4,4 -4,-548.77 449.8,-548.77 449.8,4 -4,4"/>
<!-- 4574305872 -->
<g id="node1" class="node">
<title>4574305872</title>
<ellipse fill="lightblue" stroke="black" cx="193" cy="-526.77" rx="18" ry="18"/>
<text text-anchor="middle" x="193" y="-523.07" font-family="Helvetica,sans-Serif" font-size="14.00">7</text>
</g>
<!-- 4574308032 -->
<g id="node2" class="node">
<title>4574308032</title>
<ellipse fill="lightblue" stroke="black" cx="114" cy="-465.97" rx="18" ry="18"/>
<text text-anchor="middle" x="114" y="-462.27" font-family="Helvetica,sans-Serif" font-size="14.00">6</text>
</g>
<!-- 4574305872&#45;&gt;4574308032 -->
<g id="edge1" class="edge">
<title>4574305872&#45;&gt;4574308032</title>
<path fill="none" stroke="black" d="M178.88,-515.26C165.84,-505.56 146.42,-491.1 132.23,-480.54"/>
<polygon fill="black" stroke="black" points="133.06,-478.97 128,-477.39 130.97,-481.78 133.06,-478.97"/>
</g>
<!-- 503986 -->
<!-- 4574305872&#45;&gt;503986 -->
<!-- 4574313072 -->
<g id="node4" class="node">
<title>4574313072</title>
<ellipse fill="lightblue" stroke="black" cx="275" cy="-465.97" rx="20.6" ry="20.6"/>
<text text-anchor="middle" x="275" y="-462.27" font-family="Helvetica,sans-Serif" font-size="14.00">12</text>
</g>
<!-- 4574305872&#45;&gt;4574313072 -->
<g id="edge3" class="edge">
<title>4574305872&#45;&gt;4574313072</title>
<path fill="none" stroke="black" d="M207.28,-515.53C220.17,-506.29 239.31,-492.57 253.95,-482.07"/>
<polygon fill="black" stroke="black" points="255.29,-483.26 258.34,-478.92 253.26,-480.41 255.29,-483.26"/>
</g>
<!-- 4574331344 -->
<g id="node5" class="node">
<title>4574331344</title>
<ellipse fill="lightblue" stroke="black" cx="66" cy="-402.38" rx="18" ry="18"/>
<text text-anchor="middle" x="66" y="-398.68" font-family="Helvetica,sans-Serif" font-size="14.00">3</text>
</g>
<!-- 4574308032&#45;&gt;4574331344 -->
<g id="edge4" class="edge">
<title>4574308032&#45;&gt;4574331344</title>
<path fill="none" stroke="black" d="M103.35,-451.3C96.39,-442.37 87.23,-430.62 79.73,-420.99"/>
<polygon fill="black" stroke="black" points="81.08,-419.88 76.62,-417.01 78.32,-422.03 81.08,-419.88"/>
</g>
<!-- 532291 -->
<!-- 4574308032&#45;&gt;532291 -->
<!-- 887731 -->
<!-- 4574308032&#45;&gt;887731 -->
<!-- 4574335328 -->
<g id="node11" class="node">
<title>4574335328</title>
<ellipse fill="lightblue" stroke="black" cx="227" cy="-402.38" rx="18" ry="18"/>
<text text-anchor="middle" x="227" y="-398.68" font-family="Helvetica,sans-Serif" font-size="14.00">8</text>
</g>
<!-- 4574313072&#45;&gt;4574335328 -->
<g id="edge10" class="edge">
<title>4574313072&#45;&gt;4574335328</title>
<path fill="none" stroke="black" d="M262.64,-449.11C256.05,-440.66 247.92,-430.22 241.09,-421.45"/>
<polygon fill="black" stroke="black" points="242.3,-420.17 237.85,-417.3 239.54,-422.32 242.3,-420.17"/>
</g>
<!-- 889435 -->
<!-- 4574313072&#45;&gt;889435 -->
<!-- 4574313216 -->
<g id="node13" class="node">
<title>4574313216</title>
<ellipse fill="lightblue" stroke="black" cx="325" cy="-402.38" rx="20.6" ry="20.6"/>
<text text-anchor="middle" x="325" y="-398.68" font-family="Helvetica,sans-Serif" font-size="14.00">13</text>
</g>
<!-- 4574313072&#45;&gt;4574313216 -->
<g id="edge12" class="edge">
<title>4574313072&#45;&gt;4574313216</title>
<path fill="none" stroke="black" d="M287.62,-449.43C294.08,-441.47 302.02,-431.68 308.92,-423.18"/>
<polygon fill="black" stroke="black" points="310.42,-424.11 312.21,-419.13 307.7,-421.91 310.42,-424.11"/>
</g>
<!-- 4574334944 -->
<g id="node8" class="node">
<title>4574334944</title>
<ellipse fill="lightblue" stroke="black" cx="18" cy="-338.78" rx="18" ry="18"/>
<text text-anchor="middle" x="18" y="-335.08" font-family="Helvetica,sans-Serif" font-size="14.00">1</text>
</g>
<!-- 4574331344&#45;&gt;4574334944 -->
<g id="edge7" class="edge">
<title>4574331344&#45;&gt;4574334944</title>
<path fill="none" stroke="black" d="M55.35,-387.71C48.39,-378.77 39.23,-367.02 31.73,-357.39"/>
<polygon fill="black" stroke="black" points="33.08,-356.28 28.62,-353.41 30.32,-358.43 33.08,-356.28"/>
</g>
<!-- 711548 -->
<!-- 4574331344&#45;&gt;711548 -->
<!-- 4574335280 -->
<g id="node10" class="node">
<title>4574335280</title>
<ellipse fill="lightblue" stroke="black" cx="114" cy="-338.78" rx="18" ry="18"/>
<text text-anchor="middle" x="114" y="-335.08" font-family="Helvetica,sans-Serif" font-size="14.00">4</text>
</g>
<!-- 4574331344&#45;&gt;4574335280 -->
<g id="edge9" class="edge">
<title>4574331344&#45;&gt;4574335280</title>
<path fill="none" stroke="black" d="M76.65,-387.71C83.61,-378.77 92.77,-367.02 100.27,-357.39"/>
<polygon fill="black" stroke="black" points="101.68,-358.43 103.38,-353.41 98.92,-356.28 101.68,-358.43"/>
</g>
<!-- 683437 -->
<!-- 4574313216&#45;&gt;683437 -->
<!-- 41980 -->
<!-- 4574313216&#45;&gt;41980 -->
<!-- 4574312784 -->
<g id="node16" class="node">
<title>4574312784</title>
<ellipse fill="lightblue" stroke="black" cx="375" cy="-338.78" rx="20.6" ry="20.6"/>
<text text-anchor="middle" x="375" y="-335.08" font-family="Helvetica,sans-Serif" font-size="14.00">22</text>
</g>
<!-- 4574313216&#45;&gt;4574312784 -->
<g id="edge15" class="edge">
<title>4574313216&#45;&gt;4574312784</title>
<path fill="none" stroke="black" d="M337.62,-385.83C344.08,-377.87 352.02,-368.09 358.92,-359.59"/>
<polygon fill="black" stroke="black" points="360.42,-360.52 362.21,-355.53 357.7,-358.31 360.42,-360.52"/>
</g>
<!-- 4574331248 -->
<g id="node17" class="node">
<title>4574331248</title>
<ellipse fill="lightblue" stroke="black" cx="325" cy="-275.18" rx="20.6" ry="20.6"/>
<text text-anchor="middle" x="325" y="-271.48" font-family="Helvetica,sans-Serif" font-size="14.00">17</text>
</g>
<!-- 4574312784&#45;&gt;4574331248 -->
<g id="edge16" class="edge">
<title>4574312784&#45;&gt;4574331248</title>
<path fill="none" stroke="black" d="M362.38,-322.24C355.92,-314.27 347.98,-304.49 341.08,-295.99"/>
<polygon fill="black" stroke="black" points="342.3,-294.72 337.79,-291.94 339.58,-296.92 342.3,-294.72"/>
</g>
<!-- 126861 -->
<!-- 4574312784&#45;&gt;126861 -->
<!-- 4574331296 -->
<g id="node19" class="node">
<title>4574331296</title>
<ellipse fill="lightblue" stroke="black" cx="425" cy="-275.18" rx="20.6" ry="20.6"/>
<text text-anchor="middle" x="425" y="-271.48" font-family="Helvetica,sans-Serif" font-size="14.00">26</text>
</g>
<!-- 4574312784&#45;&gt;4574331296 -->
<g id="edge18" class="edge">
<title>4574312784&#45;&gt;4574331296</title>
<path fill="none" stroke="black" d="M387.62,-322.24C394.08,-314.27 402.02,-304.49 408.92,-295.99"/>
<polygon fill="black" stroke="black" points="410.42,-296.92 412.21,-291.94 407.7,-294.72 410.42,-296.92"/>
</g>
<!-- 520627 -->
<!-- 4574331248&#45;&gt;520627 -->
<!-- 309458 -->
<!-- 4574331248&#45;&gt;309458 -->
<!-- 4574334992 -->
<g id="node22" class="node">
<title>4574334992</title>
<ellipse fill="lightblue" stroke="black" cx="375" cy="-211.59" rx="20.6" ry="20.6"/>
<text text-anchor="middle" x="375" y="-207.89" font-family="Helvetica,sans-Serif" font-size="14.00">21</text>
</g>
<!-- 4574331248&#45;&gt;4574334992 -->
<g id="edge21" class="edge">
<title>4574331248&#45;&gt;4574334992</title>
<path fill="none" stroke="black" d="M337.62,-258.64C344.08,-250.68 352.02,-240.89 358.92,-232.39"/>
<polygon fill="black" stroke="black" points="360.42,-233.32 362.21,-228.34 357.7,-231.12 360.42,-233.32"/>
</g>
<!-- 4574334800 -->
<g id="node23" class="node">
<title>4574334800</title>
<ellipse fill="lightblue" stroke="black" cx="325" cy="-147.99" rx="20.6" ry="20.6"/>
<text text-anchor="middle" x="325" y="-144.29" font-family="Helvetica,sans-Serif" font-size="14.00">20</text>
</g>
<!-- 4574334992&#45;&gt;4574334800 -->
<g id="edge22" class="edge">
<title>4574334992&#45;&gt;4574334800</title>
<path fill="none" stroke="black" d="M362.38,-195.04C355.92,-187.08 347.98,-177.3 341.08,-168.8"/>
<polygon fill="black" stroke="black" points="342.3,-167.52 337.79,-164.74 339.58,-169.73 342.3,-167.52"/>
</g>
<!-- 859444 -->
<!-- 4574334992&#45;&gt;859444 -->
<!-- 902447 -->
<!-- 4574334992&#45;&gt;902447 -->
<!-- 4574335472 -->
<g id="node26" class="node">
<title>4574335472</title>
<ellipse fill="lightblue" stroke="black" cx="275" cy="-84.39" rx="20.6" ry="20.6"/>
<text text-anchor="middle" x="275" y="-80.69" font-family="Helvetica,sans-Serif" font-size="14.00">19</text>
</g>
<!-- 4574334800&#45;&gt;4574335472 -->
<g id="edge25" class="edge">
<title>4574334800&#45;&gt;4574335472</title>
<path fill="none" stroke="black" d="M312.38,-131.45C305.92,-123.48 297.98,-113.7 291.08,-105.2"/>
<polygon fill="black" stroke="black" points="292.3,-103.93 287.79,-101.15 289.58,-106.13 292.3,-103.93"/>
</g>
<!-- 713220 -->
<!-- 4574334800&#45;&gt;713220 -->
<!-- 372305 -->
<!-- 4574334800&#45;&gt;372305 -->
<!-- 4574334272 -->
<g id="node29" class="node">
<title>4574334272</title>
<ellipse fill="lightblue" stroke="black" cx="225" cy="-20.8" rx="20.6" ry="20.6"/>
<text text-anchor="middle" x="225" y="-17.1" font-family="Helvetica,sans-Serif" font-size="14.00">18</text>
</g>
<!-- 4574335472&#45;&gt;4574334272 -->
<g id="edge28" class="edge">
<title>4574335472&#45;&gt;4574334272</title>
<path fill="none" stroke="black" d="M262.38,-67.85C255.92,-59.89 247.98,-50.1 241.08,-41.61"/>
<polygon fill="black" stroke="black" points="242.3,-40.33 237.79,-37.55 239.58,-42.54 242.3,-40.33"/>
</g>
<!-- 205938 -->
<!-- 4574335472&#45;&gt;205938 -->
<!-- 12505 -->
<!-- 4574335472&#45;&gt;12505 -->
</g>
</svg>
