<?xml version="1.0" encoding="UTF-8" standalone="no"?>
<!DOCTYPE svg PUBLIC "-//W3C//DTD SVG 1.1//EN"
 "http://www.w3.org/Graphics/SVG/1.1/DTD/svg11.dtd">
<!-- Generated by graphviz version 2.50.0 (0)
 -->
<!-- Pages: 1 -->
<svg width="477pt" height="426pt"
 viewBox="0.00 0.00 477.00 425.58" xmlns="http://www.w3.org/2000/svg" xmlns:xlink="http://www.w3.org/1999/xlink">
<g id="graph0" class="graph" transform="scale(1 1) rotate(0) translate(4 421.58)">
<polygon fill="white" stroke="transparent" points="-4,4 -4,-421.58 473,-421.58 473,4 -4,4"/>
<!-- 4573815648 -->
<g id="node1" class="node">
<title>4573815648</title>
<ellipse fill="lightblue" stroke="black" cx="198" cy="-396.78" rx="20.6" ry="20.6"/>
<text text-anchor="middle" x="198" y="-393.08" font-family="Helvetica,sans-Serif" font-size="14.00">13</text>
</g>
<!-- 4574301744 -->
<g id="node2" class="node">
<title>4574301744</title>
<ellipse fill="lightblue" stroke="black" cx="115" cy="-333.18" rx="20.6" ry="20.6"/>
<text text-anchor="middle" x="115" y="-329.48" font-family="Helvetica,sans-Serif" font-size="14.00">11</text>
</g>
<!-- 4573815648&#45;&gt;4574301744 -->
<g id="edge1" class="edge">
<title>4573815648&#45;&gt;4574301744</title>
<path fill="none" stroke="black" d="M181.6,-383.61C168.41,-373.82 149.81,-360.02 135.62,-349.48"/>
<polygon fill="black" stroke="black" points="136.42,-347.9 131.36,-346.33 134.34,-350.71 136.42,-347.9"/>
</g>
<!-- 644754 -->
<!-- 4573815648&#45;&gt;644754 -->
<!-- 4574313216 -->
<g id="node4" class="node">
<title>4574313216</title>
<ellipse fill="lightblue" stroke="black" cx="282" cy="-333.18" rx="20.6" ry="20.6"/>
<text text-anchor="middle" x="282" y="-329.48" font-family="Helvetica,sans-Serif" font-size="14.00">26</text>
</g>
<!-- 4573815648&#45;&gt;4574313216 -->
<g id="edge3" class="edge">
<title>4573815648&#45;&gt;4574313216</title>
<path fill="none" stroke="black" d="M214.6,-383.61C227.94,-373.82 246.77,-360.02 261.13,-349.48"/>
<polygon fill="black" stroke="black" points="262.44,-350.7 265.44,-346.33 260.37,-347.87 262.44,-350.7"/>
</g>
<!-- 4574313984 -->
<g id="node5" class="node">
<title>4574313984</title>
<ellipse fill="lightblue" stroke="black" cx="66" cy="-269.59" rx="18" ry="18"/>
<text text-anchor="middle" x="66" y="-265.89" font-family="Helvetica,sans-Serif" font-size="14.00">3</text>
</g>
<!-- 4574301744&#45;&gt;4574313984 -->
<g id="edge4" class="edge">
<title>4574301744&#45;&gt;4574313984</title>
<path fill="none" stroke="black" d="M102.38,-316.32C95.56,-307.74 87.11,-297.13 80.08,-288.28"/>
<polygon fill="black" stroke="black" points="81.23,-286.92 76.75,-284.1 78.49,-289.1 81.23,-286.92"/>
</g>
<!-- 28014 -->
<!-- 4574301744&#45;&gt;28014 -->
<!-- 658354 -->
<!-- 4574301744&#45;&gt;658354 -->
<!-- 4574334896 -->
<g id="node20" class="node">
<title>4574334896</title>
<ellipse fill="lightblue" stroke="black" cx="232" cy="-269.59" rx="20.6" ry="20.6"/>
<text text-anchor="middle" x="232" y="-265.89" font-family="Helvetica,sans-Serif" font-size="14.00">17</text>
</g>
<!-- 4574313216&#45;&gt;4574334896 -->
<g id="edge19" class="edge">
<title>4574313216&#45;&gt;4574334896</title>
<path fill="none" stroke="black" d="M269.38,-316.64C262.92,-308.68 254.98,-298.89 248.08,-290.39"/>
<polygon fill="black" stroke="black" points="249.3,-289.12 244.79,-286.34 246.58,-291.32 249.3,-289.12"/>
</g>
<!-- 735130 -->
<!-- 4574313216&#45;&gt;735130 -->
<!-- 4574331488 -->
<g id="node22" class="node">
<title>4574331488</title>
<ellipse fill="lightblue" stroke="black" cx="403" cy="-269.59" rx="20.6" ry="20.6"/>
<text text-anchor="middle" x="403" y="-265.89" font-family="Helvetica,sans-Serif" font-size="14.00">28</text>
</g>
<!-- 4574313216&#45;&gt;4574331488 -->
<g id="edge21" class="edge">
<title>4574313216&#45;&gt;4574331488</title>
<path fill="none" stroke="black" d="M300.11,-322.96C321.5,-312.08 357.08,-293.96 380.29,-282.15"/>
<polygon fill="black" stroke="black" points="381.1,-283.7 384.76,-279.87 379.51,-280.58 381.1,-283.7"/>
</g>
<!-- 799957 -->
<!-- 4574313984&#45;&gt;799957 -->
<!-- 300005 -->
<!-- 4574313984&#45;&gt;300005 -->
<!-- 4574335856 -->
<g id="node10" class="node">
<title>4574335856</title>
<ellipse fill="lightblue" stroke="black" cx="114" cy="-205.99" rx="18" ry="18"/>
<text text-anchor="middle" x="114" y="-202.29" font-family="Helvetica,sans-Serif" font-size="14.00">4</text>
</g>
<!-- 4574313984&#45;&gt;4574335856 -->
<g id="edge9" class="edge">
<title>4574313984&#45;&gt;4574335856</title>
<path fill="none" stroke="black" d="M76.65,-254.92C83.61,-245.99 92.77,-234.24 100.27,-224.61"/>
<polygon fill="black" stroke="black" points="101.68,-225.64 103.38,-220.62 98.92,-223.49 101.68,-225.64"/>
</g>
<!-- 46540 -->
<!-- 4574335856&#45;&gt;46540 -->
<!-- 888748 -->
<!-- 4574335856&#45;&gt;888748 -->
<!-- 4574331344 -->
<g id="node13" class="node">
<title>4574331344</title>
<ellipse fill="lightblue" stroke="black" cx="162" cy="-142.39" rx="18" ry="18"/>
<text text-anchor="middle" x="162" y="-138.69" font-family="Helvetica,sans-Serif" font-size="14.00">6</text>
</g>
<!-- 4574335856&#45;&gt;4574331344 -->
<g id="edge12" class="edge">
<title>4574335856&#45;&gt;4574331344</title>
<path fill="none" stroke="black" d="M124.65,-191.32C131.61,-182.39 140.77,-170.64 148.27,-161.01"/>
<polygon fill="black" stroke="black" points="149.68,-162.05 151.38,-157.03 146.92,-159.89 149.68,-162.05"/>
</g>
<!-- 607545 -->
<!-- 4574331344&#45;&gt;607545 -->
<!-- 328051 -->
<!-- 4574331344&#45;&gt;328051 -->
<!-- 4574335520 -->
<g id="node16" class="node">
<title>4574335520</title>
<ellipse fill="lightblue" stroke="black" cx="210" cy="-78.8" rx="18" ry="18"/>
<text text-anchor="middle" x="210" y="-75.1" font-family="Helvetica,sans-Serif" font-size="14.00">8</text>
</g>
<!-- 4574331344&#45;&gt;4574335520 -->
<g id="edge15" class="edge">
<title>4574331344&#45;&gt;4574335520</title>
<path fill="none" stroke="black" d="M172.65,-127.72C179.61,-118.79 188.77,-107.04 196.27,-97.41"/>
<polygon fill="black" stroke="black" points="197.68,-98.45 199.38,-93.43 194.92,-96.3 197.68,-98.45"/>
</g>
<!-- 4574331968 -->
<g id="node17" class="node">
<title>4574331968</title>
<ellipse fill="lightblue" stroke="black" cx="162" cy="-18" rx="18" ry="18"/>
<text text-anchor="middle" x="162" y="-14.3" font-family="Helvetica,sans-Serif" font-size="14.00">7</text>
</g>
<!-- 4574335520&#45;&gt;4574331968 -->
<g id="edge16" class="edge">
<title>4574335520&#45;&gt;4574331968</title>
<path fill="none" stroke="black" d="M199.11,-64.46C192.45,-56.3 183.86,-45.77 176.61,-36.9"/>
<polygon fill="black" stroke="black" points="177.7,-35.46 173.18,-32.7 174.99,-37.68 177.7,-35.46"/>
</g>
<!-- 958995 -->
<!-- 4574335520&#45;&gt;958995 -->
<!-- 868594 -->
<!-- 4574335520&#45;&gt;868594 -->
<!-- 4574335280 -->
<g id="node23" class="node">
<title>4574335280</title>
<ellipse fill="lightblue" stroke="black" cx="182" cy="-205.99" rx="20.6" ry="20.6"/>
<text text-anchor="middle" x="182" y="-202.29" font-family="Helvetica,sans-Serif" font-size="14.00">15</text>
</g>
<!-- 4574334896&#45;&gt;4574335280 -->
<g id="edge22" class="edge">
<title>4574334896&#45;&gt;4574335280</title>
<path fill="none" stroke="black" d="M219.38,-253.04C212.92,-245.08 204.98,-235.3 198.08,-226.8"/>
<polygon fill="black" stroke="black" points="199.3,-225.52 194.79,-222.74 196.58,-227.73 199.3,-225.52"/>
</g>
<!-- 890729 -->
<!-- 4574334896&#45;&gt;890729 -->
<!-- 4574334032 -->
<g id="node25" class="node">
<title>4574334032</title>
<ellipse fill="lightblue" stroke="black" cx="282" cy="-205.99" rx="20.6" ry="20.6"/>
<text text-anchor="middle" x="282" y="-202.29" font-family="Helvetica,sans-Serif" font-size="14.00">18</text>
</g>
<!-- 4574334896&#45;&gt;4574334032 -->
<g id="edge24" class="edge">
<title>4574334896&#45;&gt;4574334032</title>
<path fill="none" stroke="black" d="M244.62,-253.04C251.08,-245.08 259.02,-235.3 265.92,-226.8"/>
<polygon fill="black" stroke="black" points="267.42,-227.73 269.21,-222.74 264.7,-225.52 267.42,-227.73"/>
</g>
<!-- 4574335040 -->
<g id="node32" class="node">
<title>4574335040</title>
<ellipse fill="lightblue" stroke="black" cx="353" cy="-205.99" rx="20.6" ry="20.6"/>
<text text-anchor="middle" x="353" y="-202.29" font-family="Helvetica,sans-Serif" font-size="14.00">27</text>
</g>
<!-- 4574331488&#45;&gt;4574335040 -->
<g id="edge31" class="edge">
<title>4574331488&#45;&gt;4574335040</title>
<path fill="none" stroke="black" d="M390.38,-253.04C383.92,-245.08 375.98,-235.3 369.08,-226.8"/>
<polygon fill="black" stroke="black" points="370.3,-225.52 365.79,-222.74 367.58,-227.73 370.3,-225.52"/>
</g>
<!-- 13303 -->
<!-- 4574331488&#45;&gt;13303 -->
<!-- 334488 -->
<!-- 4574331488&#45;&gt;334488 -->
<!-- 500352 -->
<!-- 4574334032&#45;&gt;500352 -->
<!-- 815714 -->
<!-- 4574334032&#45;&gt;815714 -->
<!-- 4574334128 -->
<g id="node28" class="node">
<title>4574334128</title>
<ellipse fill="lightblue" stroke="black" cx="332" cy="-142.39" rx="20.6" ry="20.6"/>
<text text-anchor="middle" x="332" y="-138.69" font-family="Helvetica,sans-Serif" font-size="14.00">21</text>
</g>
<!-- 4574334032&#45;&gt;4574334128 -->
<g id="edge27" class="edge">
<title>4574334032&#45;&gt;4574334128</title>
<path fill="none" stroke="black" d="M294.62,-189.45C301.08,-181.48 309.02,-171.7 315.92,-163.2"/>
<polygon fill="black" stroke="black" points="317.42,-164.13 319.21,-159.15 314.7,-161.93 317.42,-164.13"/>
</g>
<!-- 4574333312 -->
<g id="node29" class="node">
<title>4574333312</title>
<ellipse fill="lightblue" stroke="black" cx="282" cy="-78.8" rx="20.6" ry="20.6"/>
<text text-anchor="middle" x="282" y="-75.1" font-family="Helvetica,sans-Serif" font-size="14.00">20</text>
</g>
<!-- 4574334128&#45;&gt;4574333312 -->
<g id="edge28" class="edge">
<title>4574334128&#45;&gt;4574333312</title>
<path fill="none" stroke="black" d="M319.38,-125.85C312.92,-117.89 304.98,-108.1 298.08,-99.61"/>
<polygon fill="black" stroke="black" points="299.3,-98.33 294.79,-95.55 296.58,-100.54 299.3,-98.33"/>
</g>
<!-- 946208 -->
<!-- 4574334128&#45;&gt;946208 -->
<!-- 155299 -->
<!-- 4574334128&#45;&gt;155299 -->
</g>
</svg>
