<?xml version="1.0" encoding="UTF-8" standalone="no"?>
<!DOCTYPE svg PUBLIC "-//W3C//DTD SVG 1.1//EN"
 "http://www.w3.org/Graphics/SVG/1.1/DTD/svg11.dtd">
<!-- Generated by graphviz version 2.50.0 (0)
 -->
<!-- Pages: 1 -->
<svg width="430pt" height="394pt"
 viewBox="0.00 0.00 430.00 394.49" xmlns="http://www.w3.org/2000/svg" xmlns:xlink="http://www.w3.org/1999/xlink">
<g id="graph0" class="graph" transform="scale(1 1) rotate(0) translate(4 390.49)">
<polygon fill="white" stroke="transparent" points="-4,4 -4,-390.49 426,-390.49 426,4 -4,4"/>
<!-- 4574345408 -->
<g id="node1" class="node">
<title>4574345408</title>
<ellipse fill="lightblue" stroke="black" cx="146" cy="-368.49" rx="18" ry="18"/>
<text text-anchor="middle" x="146" y="-364.79" font-family="Helvetica,sans-Serif" font-size="14.00">A</text>
</g>
<!-- 715585 -->
<!-- 4574345408&#45;&gt;715585 -->
<!-- 433502 -->
<!-- 4574345408&#45;&gt;433502 -->
<!-- 4574335712 -->
<g id="node4" class="node">
<title>4574335712</title>
<ellipse fill="lightblue" stroke="black" cx="194" cy="-310.29" rx="18.4" ry="18.4"/>
<text text-anchor="middle" x="194" y="-306.59" font-family="Helvetica,sans-Serif" font-size="14.00">G</text>
</g>
<!-- 4574345408&#45;&gt;4574335712 -->
<g id="edge3" class="edge">
<title>4574345408&#45;&gt;4574335712</title>
<path fill="none" stroke="black" d="M157.38,-354.17C163.86,-346.58 172.05,-336.99 179.05,-328.8"/>
<polygon fill="black" stroke="black" points="180.46,-329.84 182.37,-324.9 177.79,-327.57 180.46,-329.84"/>
</g>
<!-- 4574333408 -->
<g id="node5" class="node">
<title>4574333408</title>
<ellipse fill="lightblue" stroke="black" cx="114" cy="-252.09" rx="18" ry="18"/>
<text text-anchor="middle" x="114" y="-248.39" font-family="Helvetica,sans-Serif" font-size="14.00">E</text>
</g>
<!-- 4574335712&#45;&gt;4574333408 -->
<g id="edge4" class="edge">
<title>4574335712&#45;&gt;4574333408</title>
<path fill="none" stroke="black" d="M179.33,-298.98C166.16,-289.74 146.78,-276.12 132.55,-266.12"/>
<polygon fill="black" stroke="black" points="133.41,-264.59 128.31,-263.15 131.4,-267.45 133.41,-264.59"/>
</g>
<!-- 163136 -->
<!-- 4574335712&#45;&gt;163136 -->
<!-- 4574338112 -->
<g id="node7" class="node">
<title>4574338112</title>
<ellipse fill="lightblue" stroke="black" cx="275" cy="-252.09" rx="18" ry="18"/>
<text text-anchor="middle" x="275" y="-248.39" font-family="Helvetica,sans-Serif" font-size="14.00">J</text>
</g>
<!-- 4574335712&#45;&gt;4574338112 -->
<g id="edge6" class="edge">
<title>4574335712&#45;&gt;4574338112</title>
<path fill="none" stroke="black" d="M208.48,-299.24C221.84,-289.97 241.76,-276.16 256.31,-266.06"/>
<polygon fill="black" stroke="black" points="257.53,-267.34 260.64,-263.05 255.54,-264.47 257.53,-267.34"/>
</g>
<!-- 4574339552 -->
<g id="node8" class="node">
<title>4574339552</title>
<ellipse fill="lightblue" stroke="black" cx="66" cy="-194.09" rx="18" ry="18"/>
<text text-anchor="middle" x="66" y="-190.39" font-family="Helvetica,sans-Serif" font-size="14.00">C</text>
</g>
<!-- 4574333408&#45;&gt;4574339552 -->
<g id="edge7" class="edge">
<title>4574333408&#45;&gt;4574339552</title>
<path fill="none" stroke="black" d="M102.62,-237.82C96.05,-230.15 87.71,-220.42 80.64,-212.18"/>
<polygon fill="black" stroke="black" points="81.88,-210.93 77.29,-208.27 79.22,-213.2 81.88,-210.93"/>
</g>
<!-- 805083 -->
<!-- 4574333408&#45;&gt;805083 -->
<!-- 707937 -->
<!-- 4574333408&#45;&gt;707937 -->
<!-- 4574314416 -->
<g id="node14" class="node">
<title>4574314416</title>
<ellipse fill="lightblue" stroke="black" cx="227" cy="-194.09" rx="18" ry="18"/>
<text text-anchor="middle" x="227" y="-190.39" font-family="Helvetica,sans-Serif" font-size="14.00">H</text>
</g>
<!-- 4574338112&#45;&gt;4574314416 -->
<g id="edge13" class="edge">
<title>4574338112&#45;&gt;4574314416</title>
<path fill="none" stroke="black" d="M263.62,-237.82C257.05,-230.15 248.71,-220.42 241.64,-212.18"/>
<polygon fill="black" stroke="black" points="242.88,-210.93 238.29,-208.27 240.22,-213.2 242.88,-210.93"/>
</g>
<!-- 382204 -->
<!-- 4574338112&#45;&gt;382204 -->
<!-- 4574337632 -->
<g id="node16" class="node">
<title>4574337632</title>
<ellipse fill="lightblue" stroke="black" cx="323" cy="-194.09" rx="18" ry="18"/>
<text text-anchor="middle" x="323" y="-190.39" font-family="Helvetica,sans-Serif" font-size="14.00">U</text>
</g>
<!-- 4574338112&#45;&gt;4574337632 -->
<g id="edge15" class="edge">
<title>4574338112&#45;&gt;4574337632</title>
<path fill="none" stroke="black" d="M286.38,-237.82C292.95,-230.15 301.29,-220.42 308.36,-212.18"/>
<polygon fill="black" stroke="black" points="309.78,-213.2 311.71,-208.27 307.12,-210.93 309.78,-213.2"/>
</g>
<!-- 4574309328 -->
<g id="node11" class="node">
<title>4574309328</title>
<ellipse fill="lightblue" stroke="black" cx="18" cy="-135.9" rx="18" ry="18"/>
<text text-anchor="middle" x="18" y="-132.2" font-family="Helvetica,sans-Serif" font-size="14.00">B</text>
</g>
<!-- 4574339552&#45;&gt;4574309328 -->
<g id="edge10" class="edge">
<title>4574339552&#45;&gt;4574309328</title>
<path fill="none" stroke="black" d="M54.62,-179.78C48.05,-172.08 39.71,-162.31 32.64,-154.04"/>
<polygon fill="black" stroke="black" points="33.87,-152.78 29.29,-150.12 31.21,-155.06 33.87,-152.78"/>
</g>
<!-- 493804 -->
<!-- 4574339552&#45;&gt;493804 -->
<!-- 243315 -->
<!-- 4574339552&#45;&gt;243315 -->
<!-- 4574346944 -->
<g id="node17" class="node">
<title>4574346944</title>
<ellipse fill="lightblue" stroke="black" cx="275" cy="-135.9" rx="18.4" ry="18.4"/>
<text text-anchor="middle" x="275" y="-132.2" font-family="Helvetica,sans-Serif" font-size="14.00">O</text>
</g>
<!-- 4574337632&#45;&gt;4574346944 -->
<g id="edge16" class="edge">
<title>4574337632&#45;&gt;4574346944</title>
<path fill="none" stroke="black" d="M311.62,-179.78C305.14,-172.19 296.95,-162.59 289.95,-154.4"/>
<polygon fill="black" stroke="black" points="291.21,-153.17 286.63,-150.51 288.54,-155.45 291.21,-153.17"/>
</g>
<!-- 227839 -->
<!-- 4574337632&#45;&gt;227839 -->
<!-- 834697 -->
<!-- 4574337632&#45;&gt;834697 -->
<!-- 4574313072 -->
<g id="node20" class="node">
<title>4574313072</title>
<ellipse fill="lightblue" stroke="black" cx="195" cy="-76.85" rx="18.7" ry="18.7"/>
<text text-anchor="middle" x="195" y="-73.15" font-family="Helvetica,sans-Serif" font-size="14.00">M</text>
</g>
<!-- 4574346944&#45;&gt;4574313072 -->
<g id="edge19" class="edge">
<title>4574346944&#45;&gt;4574313072</title>
<path fill="none" stroke="black" d="M260.33,-124.43C247.41,-115.22 228.5,-101.74 214.35,-91.65"/>
<polygon fill="black" stroke="black" points="215.21,-90.11 210.12,-88.63 213.18,-92.96 215.21,-90.11"/>
</g>
<!-- 215933 -->
<!-- 4574346944&#45;&gt;215933 -->
<!-- 4574341568 -->
<g id="node22" class="node">
<title>4574341568</title>
<ellipse fill="lightblue" stroke="black" cx="356" cy="-76.85" rx="18" ry="18"/>
<text text-anchor="middle" x="356" y="-73.15" font-family="Helvetica,sans-Serif" font-size="14.00">R</text>
</g>
<!-- 4574346944&#45;&gt;4574341568 -->
<g id="edge21" class="edge">
<title>4574346944&#45;&gt;4574341568</title>
<path fill="none" stroke="black" d="M289.48,-124.7C302.84,-115.29 322.76,-101.26 337.31,-91.01"/>
<polygon fill="black" stroke="black" points="338.56,-92.27 341.64,-87.96 336.55,-89.41 338.56,-92.27"/>
</g>
<!-- 4574311152 -->
<g id="node23" class="node">
<title>4574311152</title>
<ellipse fill="lightblue" stroke="black" cx="147" cy="-18" rx="18" ry="18"/>
<text text-anchor="middle" x="147" y="-14.3" font-family="Helvetica,sans-Serif" font-size="14.00">L</text>
</g>
<!-- 4574313072&#45;&gt;4574311152 -->
<g id="edge22" class="edge">
<title>4574313072&#45;&gt;4574311152</title>
<path fill="none" stroke="black" d="M183.13,-61.8C176.65,-54.11 168.55,-44.52 161.67,-36.37"/>
<polygon fill="black" stroke="black" points="162.96,-35.19 158.4,-32.5 160.29,-37.45 162.96,-35.19"/>
</g>
<!-- 876411 -->
<!-- 4574313072&#45;&gt;876411 -->
<!-- 4574301312 -->
<g id="node25" class="node">
<title>4574301312</title>
<ellipse fill="lightblue" stroke="black" cx="243" cy="-18" rx="18" ry="18"/>
<text text-anchor="middle" x="243" y="-14.3" font-family="Helvetica,sans-Serif" font-size="14.00">N</text>
</g>
<!-- 4574313072&#45;&gt;4574301312 -->
<g id="edge24" class="edge">
<title>4574313072&#45;&gt;4574301312</title>
<path fill="none" stroke="black" d="M206.87,-61.8C213.35,-54.11 221.45,-44.52 228.33,-36.37"/>
<polygon fill="black" stroke="black" points="229.71,-37.45 231.6,-32.5 227.04,-35.19 229.71,-37.45"/>
</g>
<!-- 4574346320 -->
<g id="node26" class="node">
<title>4574346320</title>
<ellipse fill="lightblue" stroke="black" cx="308" cy="-18" rx="18" ry="18"/>
<text text-anchor="middle" x="308" y="-14.3" font-family="Helvetica,sans-Serif" font-size="14.00">P</text>
</g>
<!-- 4574341568&#45;&gt;4574346320 -->
<g id="edge25" class="edge">
<title>4574341568&#45;&gt;4574346320</title>
<path fill="none" stroke="black" d="M344.87,-62.66C338.3,-54.88 329.9,-44.94 322.78,-36.51"/>
<polygon fill="black" stroke="black" points="323.97,-35.2 319.41,-32.51 321.29,-37.46 323.97,-35.2"/>
</g>
<!-- 603817 -->
<!-- 4574341568&#45;&gt;603817 -->
<!-- 4574314224 -->
<g id="node28" class="node">
<title>4574314224</title>
<ellipse fill="lightblue" stroke="black" cx="404" cy="-18" rx="18" ry="18"/>
<text text-anchor="middle" x="404" y="-14.3" font-family="Helvetica,sans-Serif" font-size="14.00">S</text>
</g>
<!-- 4574341568&#45;&gt;4574314224 -->
<g id="edge27" class="edge">
<title>4574341568&#45;&gt;4574314224</title>
<path fill="none" stroke="black" d="M367.13,-62.66C373.7,-54.88 382.1,-44.94 389.22,-36.51"/>
<polygon fill="black" stroke="black" points="390.71,-37.46 392.59,-32.51 388.03,-35.2 390.71,-37.46"/>
</g>
</g>
</svg>
