<?xml version="1.0" encoding="UTF-8" standalone="no"?>
<!DOCTYPE svg PUBLIC "-//W3C//DTD SVG 1.1//EN"
 "http://www.w3.org/Graphics/SVG/1.1/DTD/svg11.dtd">
<!-- Generated by graphviz version 2.50.0 (0)
 -->
<!-- Pages: 1 -->
<svg width="625pt" height="221pt"
 viewBox="0.00 0.00 625.20 221.39" xmlns="http://www.w3.org/2000/svg" xmlns:xlink="http://www.w3.org/1999/xlink">
<g id="graph0" class="graph" transform="scale(1 1) rotate(0) translate(4 217.39)">
<polygon fill="white" stroke="transparent" points="-4,4 -4,-217.39 621.2,-217.39 621.2,4 -4,4"/>
<!-- 4419543904 -->
<g id="node1" class="node">
<title>4419543904</title>
<ellipse fill="#9bcd9b" stroke="black" cx="309.2" cy="-195.39" rx="18" ry="18"/>
<text text-anchor="middle" x="309.2" y="-191.69" font-family="Helvetica,sans-Serif" font-size="14.00">S</text>
</g>
<!-- 4574338064 -->
<g id="node2" class="node">
<title>4574338064</title>
<ellipse fill="#9bcd9b" stroke="black" cx="181.2" cy="-137.39" rx="18" ry="18"/>
<text text-anchor="middle" x="181.2" y="-133.69" font-family="Helvetica,sans-Serif" font-size="14.00">B</text>
</g>
<!-- 4419543904&#45;&gt;4574338064 -->
<g id="edge1" class="edge">
<title>4419543904&#45;&gt;4574338064</title>
<path fill="none" stroke="black" d="M292.99,-187.3C270.03,-177.26 228.02,-158.88 202.55,-147.73"/>
<polygon fill="black" stroke="black" points="202.96,-146.01 197.68,-145.61 201.56,-149.21 202.96,-146.01"/>
</g>
<!-- 79785 -->
<!-- 4419543904&#45;&gt;79785 -->
<!-- 4574341712 -->
<g id="node4" class="node">
<title>4574341712</title>
<ellipse fill="#9bcd9b" stroke="black" cx="438.2" cy="-137.39" rx="18" ry="18"/>
<text text-anchor="middle" x="438.2" y="-133.69" font-family="Helvetica,sans-Serif" font-size="14.00">N</text>
</g>
<!-- 4419543904&#45;&gt;4574341712 -->
<g id="edge3" class="edge">
<title>4419543904&#45;&gt;4574341712</title>
<path fill="none" stroke="black" d="M325.54,-187.3C348.8,-177.2 391.48,-158.67 417.11,-147.55"/>
<polygon fill="black" stroke="black" points="418.1,-149.02 421.99,-145.43 416.71,-145.81 418.1,-149.02"/>
</g>
<!-- 4574344304 -->
<g id="node5" class="node">
<title>4574344304</title>
<ellipse fill="#9bcd9b" stroke="black" cx="66.2" cy="-79.19" rx="18" ry="18"/>
<text text-anchor="middle" x="66.2" y="-75.49" font-family="Helvetica,sans-Serif" font-size="14.00">P</text>
</g>
<!-- 4574338064&#45;&gt;4574344304 -->
<g id="edge4" class="edge">
<title>4574338064&#45;&gt;4574344304</title>
<path fill="none" stroke="black" d="M165.21,-128.58C144.7,-118.56 109.09,-101.16 86.64,-90.18"/>
<polygon fill="black" stroke="black" points="87.31,-88.57 82.05,-87.94 85.78,-91.71 87.31,-88.57"/>
</g>
<!-- 262140 -->
<!-- 4574338064&#45;&gt;262140 -->
<!-- 4574344640 -->
<g id="node7" class="node">
<title>4574344640</title>
<ellipse fill="#9bcd9b" stroke="black" cx="229.2" cy="-79.19" rx="18" ry="18"/>
<text text-anchor="middle" x="229.2" y="-75.49" font-family="Helvetica,sans-Serif" font-size="14.00">Z</text>
</g>
<!-- 4574338064&#45;&gt;4574344640 -->
<g id="edge6" class="edge">
<title>4574338064&#45;&gt;4574344640</title>
<path fill="none" stroke="black" d="M192.57,-123.08C199.15,-115.38 207.49,-105.61 214.55,-97.34"/>
<polygon fill="black" stroke="black" points="215.99,-98.36 217.9,-93.42 213.33,-96.08 215.99,-98.36"/>
</g>
<!-- 4574344688 -->
<g id="node14" class="node">
<title>4574344688</title>
<ellipse fill="#9bcd9b" stroke="black" cx="390.2" cy="-79.19" rx="18" ry="18"/>
<text text-anchor="middle" x="390.2" y="-75.49" font-family="Helvetica,sans-Serif" font-size="14.00">A</text>
</g>
<!-- 4574341712&#45;&gt;4574344688 -->
<g id="edge13" class="edge">
<title>4574341712&#45;&gt;4574344688</title>
<path fill="none" stroke="black" d="M426.82,-123.08C420.25,-115.38 411.9,-105.61 404.84,-97.34"/>
<polygon fill="black" stroke="black" points="406.07,-96.08 401.49,-93.42 403.41,-98.36 406.07,-96.08"/>
</g>
<!-- 781762 -->
<!-- 4574341712&#45;&gt;781762 -->
<!-- 4574340080 -->
<g id="node16" class="node">
<title>4574340080</title>
<ellipse fill="#9bcd9b" stroke="black" cx="551.2" cy="-79.19" rx="18.4" ry="18.4"/>
<text text-anchor="middle" x="551.2" y="-75.49" font-family="Helvetica,sans-Serif" font-size="14.00">G</text>
</g>
<!-- 4574341712&#45;&gt;4574340080 -->
<g id="edge15" class="edge">
<title>4574341712&#45;&gt;4574340080</title>
<path fill="none" stroke="black" d="M453.91,-128.58C473.95,-118.61 508.66,-101.35 530.74,-90.37"/>
<polygon fill="black" stroke="black" points="531.56,-91.92 535.26,-88.12 530,-88.78 531.56,-91.92"/>
</g>
<!-- 4574343248 -->
<g id="node8" class="node">
<title>4574343248</title>
<ellipse fill="#9bcd9b" stroke="black" cx="18.2" cy="-19.5" rx="18.4" ry="18.4"/>
<text text-anchor="middle" x="18.2" y="-15.8" font-family="Helvetica,sans-Serif" font-size="14.00">O</text>
</g>
<!-- 4574344304&#45;&gt;4574343248 -->
<g id="edge7" class="edge">
<title>4574344304&#45;&gt;4574343248</title>
<path fill="none" stroke="black" d="M55.07,-64.81C48.5,-56.92 40.1,-46.83 32.98,-38.27"/>
<polygon fill="black" stroke="black" points="34.15,-36.93 29.6,-34.21 31.46,-39.17 34.15,-36.93"/>
</g>
<!-- 998662 -->
<!-- 4574344304&#45;&gt;998662 -->
<!-- 4574341520 -->
<g id="node10" class="node">
<title>4574341520</title>
<ellipse fill="#9bcd9b" stroke="black" cx="115.2" cy="-19.5" rx="19.5" ry="19.5"/>
<text text-anchor="middle" x="115.2" y="-15.8" font-family="Helvetica,sans-Serif" font-size="14.00">W</text>
</g>
<!-- 4574344304&#45;&gt;4574341520 -->
<g id="edge9" class="edge">
<title>4574344304&#45;&gt;4574341520</title>
<path fill="none" stroke="black" d="M77.56,-64.81C84.07,-57.15 92.34,-47.41 99.47,-39.02"/>
<polygon fill="black" stroke="black" points="100.96,-39.96 102.87,-35.02 98.29,-37.7 100.96,-39.96"/>
</g>
<!-- 4574344832 -->
<g id="node11" class="node">
<title>4574344832</title>
<ellipse fill="#9bcd9b" stroke="black" cx="181.2" cy="-19.5" rx="18" ry="18"/>
<text text-anchor="middle" x="181.2" y="-15.8" font-family="Helvetica,sans-Serif" font-size="14.00">I</text>
</g>
<!-- 4574344640&#45;&gt;4574344832 -->
<g id="edge10" class="edge">
<title>4574344640&#45;&gt;4574344832</title>
<path fill="none" stroke="black" d="M218.07,-64.81C211.4,-56.8 202.86,-46.53 195.67,-37.9"/>
<polygon fill="black" stroke="black" points="196.81,-36.53 192.27,-33.81 194.12,-38.77 196.81,-36.53"/>
</g>
<!-- 999100 -->
<!-- 4574344640&#45;&gt;999100 -->
<!-- 4573817424 -->
<g id="node13" class="node">
<title>4573817424</title>
<ellipse fill="#9bcd9b" stroke="black" cx="277.2" cy="-19.5" rx="18" ry="18"/>
<text text-anchor="middle" x="277.2" y="-15.8" font-family="Helvetica,sans-Serif" font-size="14.00">F</text>
</g>
<!-- 4574344640&#45;&gt;4573817424 -->
<g id="edge12" class="edge">
<title>4574344640&#45;&gt;4573817424</title>
<path fill="none" stroke="black" d="M240.33,-64.81C247,-56.8 255.54,-46.53 262.72,-37.9"/>
<polygon fill="black" stroke="black" points="264.27,-38.77 266.13,-33.81 261.58,-36.53 264.27,-38.77"/>
</g>
<!-- 4574182720 -->
<g id="node17" class="node">
<title>4574182720</title>
<ellipse fill="#9bcd9b" stroke="black" cx="342.2" cy="-19.5" rx="18" ry="18"/>
<text text-anchor="middle" x="342.2" y="-15.8" font-family="Helvetica,sans-Serif" font-size="14.00">U</text>
</g>
<!-- 4574344688&#45;&gt;4574182720 -->
<g id="edge16" class="edge">
<title>4574344688&#45;&gt;4574182720</title>
<path fill="none" stroke="black" d="M379.07,-64.81C372.4,-56.8 363.86,-46.53 356.67,-37.9"/>
<polygon fill="black" stroke="black" points="357.81,-36.53 353.27,-33.81 355.12,-38.77 357.81,-36.53"/>
</g>
<!-- 378702 -->
<!-- 4574344688&#45;&gt;378702 -->
<!-- 4574182144 -->
<g id="node19" class="node">
<title>4574182144</title>
<ellipse fill="#9bcd9b" stroke="black" cx="438.2" cy="-19.5" rx="18.4" ry="18.4"/>
<text text-anchor="middle" x="438.2" y="-15.8" font-family="Helvetica,sans-Serif" font-size="14.00">Q</text>
</g>
<!-- 4574344688&#45;&gt;4574182144 -->
<g id="edge18" class="edge">
<title>4574344688&#45;&gt;4574182144</title>
<path fill="none" stroke="black" d="M401.33,-64.81C407.9,-56.92 416.29,-46.83 423.41,-38.27"/>
<polygon fill="black" stroke="black" points="424.94,-39.17 426.79,-34.21 422.25,-36.93 424.94,-39.17"/>
</g>
<!-- 4574182240 -->
<g id="node20" class="node">
<title>4574182240</title>
<ellipse fill="#9bcd9b" stroke="black" cx="503.2" cy="-19.5" rx="18" ry="18"/>
<text text-anchor="middle" x="503.2" y="-15.8" font-family="Helvetica,sans-Serif" font-size="14.00">H</text>
</g>
<!-- 4574340080&#45;&gt;4574182240 -->
<g id="edge19" class="edge">
<title>4574340080&#45;&gt;4574182240</title>
<path fill="none" stroke="black" d="M539.82,-64.52C533.25,-56.62 524.9,-46.59 517.84,-38.1"/>
<polygon fill="black" stroke="black" points="519.04,-36.8 514.49,-34.07 516.34,-39.04 519.04,-36.8"/>
</g>
<!-- 46720 -->
<!-- 4574340080&#45;&gt;46720 -->
<!-- 4574182336 -->
<g id="node22" class="node">
<title>4574182336</title>
<ellipse fill="#9bcd9b" stroke="black" cx="599.2" cy="-19.5" rx="18" ry="18"/>
<text text-anchor="middle" x="599.2" y="-15.8" font-family="Helvetica,sans-Serif" font-size="14.00">R</text>
</g>
<!-- 4574340080&#45;&gt;4574182336 -->
<g id="edge21" class="edge">
<title>4574340080&#45;&gt;4574182336</title>
<path fill="none" stroke="black" d="M562.57,-64.52C569.15,-56.62 577.49,-46.59 584.55,-38.1"/>
<polygon fill="black" stroke="black" points="586.05,-39.04 587.9,-34.07 583.36,-36.8 586.05,-39.04"/>
</g>
</g>
</svg>
