<?xml version="1.0" encoding="UTF-8" standalone="no"?>
<!DOCTYPE svg PUBLIC "-//W3C//DTD SVG 1.1//EN"
 "http://www.w3.org/Graphics/SVG/1.1/DTD/svg11.dtd">
<!-- Generated by graphviz version 2.50.0 (0)
 -->
<!-- Pages: 1 -->
<svg width="349pt" height="451pt"
 viewBox="0.00 0.00 349.00 450.79" xmlns="http://www.w3.org/2000/svg" xmlns:xlink="http://www.w3.org/1999/xlink">
<g id="graph0" class="graph" transform="scale(1 1) rotate(0) translate(4 446.79)">
<polygon fill="white" stroke="transparent" points="-4,4 -4,-446.79 345,-446.79 345,4 -4,4"/>
<!-- 4574299440 -->
<g id="node1" class="node">
<title>4574299440</title>
<ellipse fill="lightblue" stroke="black" cx="242" cy="-424.79" rx="18" ry="18"/>
<text text-anchor="middle" x="242" y="-421.09" font-family="Helvetica,sans-Serif" font-size="14.00">X</text>
</g>
<!-- 4574311056 -->
<g id="node2" class="node">
<title>4574311056</title>
<ellipse fill="lightblue" stroke="black" cx="194" cy="-366.79" rx="18" ry="18"/>
<text text-anchor="middle" x="194" y="-363.09" font-family="Helvetica,sans-Serif" font-size="14.00">T</text>
</g>
<!-- 4574299440&#45;&gt;4574311056 -->
<g id="edge1" class="edge">
<title>4574299440&#45;&gt;4574311056</title>
<path fill="none" stroke="black" d="M230.62,-410.52C224.05,-402.85 215.71,-393.12 208.64,-384.88"/>
<polygon fill="black" stroke="black" points="209.88,-383.63 205.29,-380.97 207.22,-385.9 209.88,-383.63"/>
</g>
<!-- 808241 -->
<!-- 4574299440&#45;&gt;808241 -->
<!-- 4574312640 -->
<g id="node4" class="node">
<title>4574312640</title>
<ellipse fill="lightblue" stroke="black" cx="290" cy="-366.79" rx="18" ry="18"/>
<text text-anchor="middle" x="290" y="-363.09" font-family="Helvetica,sans-Serif" font-size="14.00">Y</text>
</g>
<!-- 4574299440&#45;&gt;4574312640 -->
<g id="edge3" class="edge">
<title>4574299440&#45;&gt;4574312640</title>
<path fill="none" stroke="black" d="M253.38,-410.52C259.95,-402.85 268.29,-393.12 275.36,-384.88"/>
<polygon fill="black" stroke="black" points="276.78,-385.9 278.71,-380.97 274.12,-383.63 276.78,-385.9"/>
</g>
<!-- 4574312112 -->
<g id="node5" class="node">
<title>4574312112</title>
<ellipse fill="lightblue" stroke="black" cx="146" cy="-308.79" rx="18" ry="18"/>
<text text-anchor="middle" x="146" y="-305.09" font-family="Helvetica,sans-Serif" font-size="14.00">N</text>
</g>
<!-- 4574311056&#45;&gt;4574312112 -->
<g id="edge4" class="edge">
<title>4574311056&#45;&gt;4574312112</title>
<path fill="none" stroke="black" d="M182.62,-352.52C176.05,-344.85 167.71,-335.12 160.64,-326.88"/>
<polygon fill="black" stroke="black" points="161.88,-325.63 157.29,-322.97 159.22,-327.9 161.88,-325.63"/>
</g>
<!-- 635881 -->
<!-- 4574311056&#45;&gt;635881 -->
<!-- 4574313984 -->
<g id="node7" class="node">
<title>4574313984</title>
<ellipse fill="lightblue" stroke="black" cx="242" cy="-308.79" rx="18" ry="18"/>
<text text-anchor="middle" x="242" y="-305.09" font-family="Helvetica,sans-Serif" font-size="14.00">U</text>
</g>
<!-- 4574311056&#45;&gt;4574313984 -->
<g id="edge6" class="edge">
<title>4574311056&#45;&gt;4574313984</title>
<path fill="none" stroke="black" d="M205.38,-352.52C211.95,-344.85 220.29,-335.12 227.36,-326.88"/>
<polygon fill="black" stroke="black" points="228.78,-327.9 230.71,-322.97 226.12,-325.63 228.78,-327.9"/>
</g>
<!-- 4574298720 -->
<g id="node8" class="node">
<title>4574298720</title>
<ellipse fill="lightblue" stroke="black" cx="66" cy="-250.6" rx="18" ry="18"/>
<text text-anchor="middle" x="66" y="-246.9" font-family="Helvetica,sans-Serif" font-size="14.00">A</text>
</g>
<!-- 4574312112&#45;&gt;4574298720 -->
<g id="edge7" class="edge">
<title>4574312112&#45;&gt;4574298720</title>
<path fill="none" stroke="black" d="M131.7,-297.75C118.58,-288.53 99.08,-274.83 84.72,-264.75"/>
<polygon fill="black" stroke="black" points="85.55,-263.19 80.45,-261.74 83.53,-266.05 85.55,-263.19"/>
</g>
<!-- 810504 -->
<!-- 4574312112&#45;&gt;810504 -->
<!-- 4574312832 -->
<g id="node10" class="node">
<title>4574312832</title>
<ellipse fill="lightblue" stroke="black" cx="227" cy="-250.6" rx="18.4" ry="18.4"/>
<text text-anchor="middle" x="227" y="-246.9" font-family="Helvetica,sans-Serif" font-size="14.00">O</text>
</g>
<!-- 4574312112&#45;&gt;4574312832 -->
<g id="edge9" class="edge">
<title>4574312112&#45;&gt;4574312832</title>
<path fill="none" stroke="black" d="M160.48,-297.75C173.76,-288.53 193.51,-274.83 208.04,-264.75"/>
<polygon fill="black" stroke="black" points="209.26,-266.03 212.37,-261.74 207.27,-263.16 209.26,-266.03"/>
</g>
<!-- 621151 -->
<!-- 4574298720&#45;&gt;621151 -->
<!-- 210062 -->
<!-- 4574298720&#45;&gt;210062 -->
<!-- 4574311152 -->
<g id="node13" class="node">
<title>4574311152</title>
<ellipse fill="lightblue" stroke="black" cx="114" cy="-192.4" rx="18" ry="18"/>
<text text-anchor="middle" x="114" y="-188.7" font-family="Helvetica,sans-Serif" font-size="14.00">C</text>
</g>
<!-- 4574298720&#45;&gt;4574311152 -->
<g id="edge12" class="edge">
<title>4574298720&#45;&gt;4574311152</title>
<path fill="none" stroke="black" d="M77.38,-236.28C83.95,-228.58 92.29,-218.81 99.36,-210.54"/>
<polygon fill="black" stroke="black" points="100.79,-211.56 102.71,-206.62 98.13,-209.28 100.79,-211.56"/>
</g>
<!-- 688625 -->
<!-- 4574312832&#45;&gt;688625 -->
<!-- 356097 -->
<!-- 4574312832&#45;&gt;356097 -->
<!-- 4574343104 -->
<g id="node25" class="node">
<title>4574343104</title>
<ellipse fill="lightblue" stroke="black" cx="275" cy="-192.4" rx="18" ry="18"/>
<text text-anchor="middle" x="275" y="-188.7" font-family="Helvetica,sans-Serif" font-size="14.00">R</text>
</g>
<!-- 4574312832&#45;&gt;4574343104 -->
<g id="edge24" class="edge">
<title>4574312832&#45;&gt;4574343104</title>
<path fill="none" stroke="black" d="M238.38,-236.28C244.95,-228.58 253.29,-218.81 260.36,-210.54"/>
<polygon fill="black" stroke="black" points="261.79,-211.56 263.71,-206.62 259.13,-209.28 261.79,-211.56"/>
</g>
<!-- 4574314416 -->
<g id="node14" class="node">
<title>4574314416</title>
<ellipse fill="lightblue" stroke="black" cx="66" cy="-134.2" rx="18" ry="18"/>
<text text-anchor="middle" x="66" y="-130.5" font-family="Helvetica,sans-Serif" font-size="14.00">B</text>
</g>
<!-- 4574311152&#45;&gt;4574314416 -->
<g id="edge13" class="edge">
<title>4574311152&#45;&gt;4574314416</title>
<path fill="none" stroke="black" d="M102.62,-178.08C96.05,-170.38 87.71,-160.61 80.64,-152.34"/>
<polygon fill="black" stroke="black" points="81.87,-151.09 77.29,-148.42 79.21,-153.36 81.87,-151.09"/>
</g>
<!-- 291732 -->
<!-- 4574311152&#45;&gt;291732 -->
<!-- 4574300544 -->
<g id="node16" class="node">
<title>4574300544</title>
<ellipse fill="lightblue" stroke="black" cx="162" cy="-134.2" rx="18.4" ry="18.4"/>
<text text-anchor="middle" x="162" y="-130.5" font-family="Helvetica,sans-Serif" font-size="14.00">G</text>
</g>
<!-- 4574311152&#45;&gt;4574300544 -->
<g id="edge15" class="edge">
<title>4574311152&#45;&gt;4574300544</title>
<path fill="none" stroke="black" d="M125.38,-178.08C131.86,-170.49 140.05,-160.89 147.05,-152.7"/>
<polygon fill="black" stroke="black" points="148.46,-153.75 150.37,-148.81 145.79,-151.48 148.46,-153.75"/>
</g>
<!-- 4574705616 -->
<g id="node17" class="node">
<title>4574705616</title>
<ellipse fill="lightblue" stroke="black" cx="114" cy="-76" rx="18" ry="18"/>
<text text-anchor="middle" x="114" y="-72.3" font-family="Helvetica,sans-Serif" font-size="14.00">D</text>
</g>
<!-- 4574300544&#45;&gt;4574705616 -->
<g id="edge16" class="edge">
<title>4574300544&#45;&gt;4574705616</title>
<path fill="none" stroke="black" d="M150.62,-119.88C144.05,-112.18 135.71,-102.41 128.64,-94.15"/>
<polygon fill="black" stroke="black" points="129.87,-92.89 125.29,-90.22 127.21,-95.16 129.87,-92.89"/>
</g>
<!-- 734747 -->
<!-- 4574300544&#45;&gt;734747 -->
<!-- 4574338304 -->
<g id="node19" class="node">
<title>4574338304</title>
<ellipse fill="lightblue" stroke="black" cx="210" cy="-76" rx="18" ry="18"/>
<text text-anchor="middle" x="210" y="-72.3" font-family="Helvetica,sans-Serif" font-size="14.00">J</text>
</g>
<!-- 4574300544&#45;&gt;4574338304 -->
<g id="edge18" class="edge">
<title>4574300544&#45;&gt;4574338304</title>
<path fill="none" stroke="black" d="M173.38,-119.88C179.95,-112.18 188.29,-102.41 195.36,-94.15"/>
<polygon fill="black" stroke="black" points="196.79,-95.16 198.71,-90.22 194.13,-92.89 196.79,-95.16"/>
</g>
<!-- 621546 -->
<!-- 4574338304&#45;&gt;621546 -->
<!-- 321721 -->
<!-- 4574338304&#45;&gt;321721 -->
<!-- 4574339552 -->
<g id="node22" class="node">
<title>4574339552</title>
<ellipse fill="lightblue" stroke="black" cx="258" cy="-18" rx="18" ry="18"/>
<text text-anchor="middle" x="258" y="-14.3" font-family="Helvetica,sans-Serif" font-size="14.00">L</text>
</g>
<!-- 4574338304&#45;&gt;4574339552 -->
<g id="edge21" class="edge">
<title>4574338304&#45;&gt;4574339552</title>
<path fill="none" stroke="black" d="M221.38,-61.73C227.95,-54.06 236.29,-44.32 243.36,-36.08"/>
<polygon fill="black" stroke="black" points="244.78,-37.11 246.71,-32.18 242.12,-34.83 244.78,-37.11"/>
</g>
<!-- 4574693856 -->
<g id="node26" class="node">
<title>4574693856</title>
<ellipse fill="lightblue" stroke="black" cx="227" cy="-134.2" rx="18.4" ry="18.4"/>
<text text-anchor="middle" x="227" y="-130.5" font-family="Helvetica,sans-Serif" font-size="14.00">Q</text>
</g>
<!-- 4574343104&#45;&gt;4574693856 -->
<g id="edge25" class="edge">
<title>4574343104&#45;&gt;4574693856</title>
<path fill="none" stroke="black" d="M263.62,-178.08C257.14,-170.49 248.95,-160.89 241.95,-152.7"/>
<polygon fill="black" stroke="black" points="243.21,-151.48 238.63,-148.81 240.54,-153.75 243.21,-151.48"/>
</g>
<!-- 96396 -->
<!-- 4574343104&#45;&gt;96396 -->
<!-- 7032 -->
<!-- 4574343104&#45;&gt;7032 -->
</g>
</svg>
