<?xml version="1.0" encoding="UTF-8" standalone="no"?>
<!DOCTYPE svg PUBLIC "-//W3C//DTD SVG 1.1//EN"
 "http://www.w3.org/Graphics/SVG/1.1/DTD/svg11.dtd">
<!-- Generated by graphviz version 2.50.0 (0)
 -->
<!-- Pages: 1 -->
<svg width="301pt" height="160pt"
 viewBox="0.00 0.00 301.00 160.40" xmlns="http://www.w3.org/2000/svg" xmlns:xlink="http://www.w3.org/1999/xlink">
<g id="graph0" class="graph" transform="scale(1 1) rotate(0) translate(4 156.4)">
<polygon fill="white" stroke="transparent" points="-4,4 -4,-156.4 297,-156.4 297,4 -4,4"/>
<!-- 4636204864 -->
<g id="node1" class="node">
<title>4636204864</title>
<ellipse fill="bisque" stroke="black" cx="146" cy="-134.4" rx="18" ry="18"/>
<text text-anchor="middle" x="146" y="-130.7" font-family="Helvetica,sans-Serif" font-size="14.00">T</text>
</g>
<!-- 4636203952 -->
<g id="node2" class="node">
<title>4636203952</title>
<ellipse fill="bisque" stroke="black" cx="66" cy="-76.4" rx="18" ry="18"/>
<text text-anchor="middle" x="66" y="-72.7" font-family="Helvetica,sans-Serif" font-size="14.00">I</text>
</g>
<!-- 4636204864&#45;&gt;4636203952 -->
<g id="edge1" class="edge">
<title>4636204864&#45;&gt;4636203952</title>
<path fill="none" stroke="black" d="M131.7,-123.39C118.58,-114.2 99.08,-100.55 84.72,-90.5"/>
<polygon fill="black" stroke="black" points="85.55,-88.94 80.45,-87.51 83.54,-91.81 85.55,-88.94"/>
</g>
<!-- 881168 -->
<!-- 4636204864&#45;&gt;881168 -->
<!-- 4636197376 -->
<g id="node4" class="node">
<title>4636197376</title>
<ellipse fill="bisque" stroke="black" cx="227" cy="-76.4" rx="18" ry="18"/>
<text text-anchor="middle" x="227" y="-72.7" font-family="Helvetica,sans-Serif" font-size="14.00">X</text>
</g>
<!-- 4636204864&#45;&gt;4636197376 -->
<g id="edge3" class="edge">
<title>4636204864&#45;&gt;4636197376</title>
<path fill="none" stroke="black" d="M160.48,-123.39C173.84,-114.15 193.76,-100.38 208.31,-90.32"/>
<polygon fill="black" stroke="black" points="209.53,-91.6 212.64,-87.32 207.54,-88.73 209.53,-91.6"/>
</g>
<!-- 4636197184 -->
<g id="node5" class="node">
<title>4636197184</title>
<ellipse fill="bisque" stroke="black" cx="18" cy="-18.2" rx="18" ry="18"/>
<text text-anchor="middle" x="18" y="-14.5" font-family="Helvetica,sans-Serif" font-size="14.00">L</text>
</g>
<!-- 4636203952&#45;&gt;4636197184 -->
<g id="edge4" class="edge">
<title>4636203952&#45;&gt;4636197184</title>
<path fill="none" stroke="black" d="M54.62,-62.08C48.05,-54.38 39.71,-44.61 32.64,-36.34"/>
<polygon fill="black" stroke="black" points="33.87,-35.09 29.29,-32.42 31.21,-37.36 33.87,-35.09"/>
</g>
<!-- 488240 -->
<!-- 4636203952&#45;&gt;488240 -->
<!-- 4636199584 -->
<g id="node7" class="node">
<title>4636199584</title>
<ellipse fill="bisque" stroke="black" cx="114" cy="-18.2" rx="18" ry="18"/>
<text text-anchor="middle" x="114" y="-14.5" font-family="Helvetica,sans-Serif" font-size="14.00">U</text>
</g>
<!-- 4636203952&#45;&gt;4636199584 -->
<g id="edge6" class="edge">
<title>4636203952&#45;&gt;4636199584</title>
<path fill="none" stroke="black" d="M77.38,-62.08C83.95,-54.38 92.29,-44.61 99.36,-36.34"/>
<polygon fill="black" stroke="black" points="100.79,-37.36 102.71,-32.42 98.13,-35.09 100.79,-37.36"/>
</g>
<!-- 4636204624 -->
<g id="node8" class="node">
<title>4636204624</title>
<ellipse fill="bisque" stroke="black" cx="179" cy="-18.2" rx="18.4" ry="18.4"/>
<text text-anchor="middle" x="179" y="-14.5" font-family="Helvetica,sans-Serif" font-size="14.00">Q</text>
</g>
<!-- 4636197376&#45;&gt;4636204624 -->
<g id="edge7" class="edge">
<title>4636197376&#45;&gt;4636204624</title>
<path fill="none" stroke="black" d="M215.62,-62.08C209.14,-54.49 200.95,-44.89 193.95,-36.7"/>
<polygon fill="black" stroke="black" points="195.21,-35.48 190.63,-32.81 192.54,-37.75 195.21,-35.48"/>
</g>
<!-- 813651 -->
<!-- 4636197376&#45;&gt;813651 -->
<!-- 4636201312 -->
<g id="node10" class="node">
<title>4636201312</title>
<ellipse fill="bisque" stroke="black" cx="275" cy="-18.2" rx="18" ry="18"/>
<text text-anchor="middle" x="275" y="-14.5" font-family="Helvetica,sans-Serif" font-size="14.00">A</text>
</g>
<!-- 4636197376&#45;&gt;4636201312 -->
<g id="edge9" class="edge">
<title>4636197376&#45;&gt;4636201312</title>
<path fill="none" stroke="black" d="M238.38,-62.08C244.95,-54.38 253.29,-44.61 260.36,-36.34"/>
<polygon fill="black" stroke="black" points="261.79,-37.36 263.71,-32.42 259.13,-35.09 261.79,-37.36"/>
</g>
</g>
</svg>
