<?xml version="1.0" encoding="UTF-8" standalone="no"?>
<!DOCTYPE svg PUBLIC "-//W3C//DTD SVG 1.1//EN"
 "http://www.w3.org/Graphics/SVG/1.1/DTD/svg11.dtd">
<!-- Generated by graphviz version 2.50.0 (0)
 -->
<!-- Pages: 1 -->
<svg width="478pt" height="396pt"
 viewBox="0.00 0.00 478.00 395.79" xmlns="http://www.w3.org/2000/svg" xmlns:xlink="http://www.w3.org/1999/xlink">
<g id="graph0" class="graph" transform="scale(1 1) rotate(0) translate(4 391.79)">
<polygon fill="white" stroke="transparent" points="-4,4 -4,-391.79 474,-391.79 474,4 -4,4"/>
<!-- 4574307648 -->
<g id="node1" class="node">
<title>4574307648</title>
<ellipse fill="lightblue" stroke="black" cx="274" cy="-369.79" rx="18" ry="18"/>
<text text-anchor="middle" x="274" y="-366.09" font-family="Helvetica,sans-Serif" font-size="14.00">R</text>
</g>
<!-- 4574312112 -->
<g id="node2" class="node">
<title>4574312112</title>
<ellipse fill="lightblue" stroke="black" cx="194" cy="-311.79" rx="18" ry="18"/>
<text text-anchor="middle" x="194" y="-308.09" font-family="Helvetica,sans-Serif" font-size="14.00">P</text>
</g>
<!-- 4574307648&#45;&gt;4574312112 -->
<g id="edge1" class="edge">
<title>4574307648&#45;&gt;4574312112</title>
<path fill="none" stroke="black" d="M259.7,-358.78C246.58,-349.6 227.08,-335.94 212.72,-325.9"/>
<polygon fill="black" stroke="black" points="213.55,-324.34 208.45,-322.9 211.54,-327.2 213.55,-324.34"/>
</g>
<!-- 606718 -->
<!-- 4574307648&#45;&gt;606718 -->
<!-- 4574313072 -->
<g id="node4" class="node">
<title>4574313072</title>
<ellipse fill="lightblue" stroke="black" cx="355" cy="-311.79" rx="18" ry="18"/>
<text text-anchor="middle" x="355" y="-308.09" font-family="Helvetica,sans-Serif" font-size="14.00">T</text>
</g>
<!-- 4574307648&#45;&gt;4574313072 -->
<g id="edge3" class="edge">
<title>4574307648&#45;&gt;4574313072</title>
<path fill="none" stroke="black" d="M288.48,-358.78C301.84,-349.54 321.76,-335.77 336.31,-325.71"/>
<polygon fill="black" stroke="black" points="337.53,-327 340.64,-322.72 335.54,-324.12 337.53,-327"/>
</g>
<!-- 4574305104 -->
<g id="node5" class="node">
<title>4574305104</title>
<ellipse fill="lightblue" stroke="black" cx="146" cy="-252.29" rx="18" ry="18"/>
<text text-anchor="middle" x="146" y="-248.59" font-family="Helvetica,sans-Serif" font-size="14.00">H</text>
</g>
<!-- 4574312112&#45;&gt;4574305104 -->
<g id="edge4" class="edge">
<title>4574312112&#45;&gt;4574305104</title>
<path fill="none" stroke="black" d="M182.87,-297.45C176.2,-289.47 167.66,-279.24 160.48,-270.63"/>
<polygon fill="black" stroke="black" points="161.62,-269.27 157.07,-266.56 158.93,-271.52 161.62,-269.27"/>
</g>
<!-- 143096 -->
<!-- 4574312112&#45;&gt;143096 -->
<!-- 598328 -->
<!-- 4574312112&#45;&gt;598328 -->
<!-- 4574311776 -->
<g id="node26" class="node">
<title>4574311776</title>
<ellipse fill="lightblue" stroke="black" cx="307" cy="-252.29" rx="18" ry="18"/>
<text text-anchor="middle" x="307" y="-248.59" font-family="Helvetica,sans-Serif" font-size="14.00">S</text>
</g>
<!-- 4574313072&#45;&gt;4574311776 -->
<g id="edge25" class="edge">
<title>4574313072&#45;&gt;4574311776</title>
<path fill="none" stroke="black" d="M343.87,-297.45C337.2,-289.47 328.66,-279.24 321.48,-270.63"/>
<polygon fill="black" stroke="black" points="322.62,-269.27 318.07,-266.56 319.93,-271.52 322.62,-269.27"/>
</g>
<!-- 122080 -->
<!-- 4574313072&#45;&gt;122080 -->
<!-- 4574305632 -->
<g id="node28" class="node">
<title>4574305632</title>
<ellipse fill="lightblue" stroke="black" cx="404" cy="-252.29" rx="19.5" ry="19.5"/>
<text text-anchor="middle" x="404" y="-248.59" font-family="Helvetica,sans-Serif" font-size="14.00">W</text>
</g>
<!-- 4574313072&#45;&gt;4574305632 -->
<g id="edge27" class="edge">
<title>4574313072&#45;&gt;4574305632</title>
<path fill="none" stroke="black" d="M366.36,-297.45C372.88,-289.81 381.14,-280.11 388.27,-271.75"/>
<polygon fill="black" stroke="black" points="389.76,-272.7 391.67,-267.76 387.09,-270.43 389.76,-272.7"/>
</g>
<!-- 4574301648 -->
<g id="node8" class="node">
<title>4574301648</title>
<ellipse fill="lightblue" stroke="black" cx="66" cy="-192.79" rx="18" ry="18"/>
<text text-anchor="middle" x="66" y="-189.09" font-family="Helvetica,sans-Serif" font-size="14.00">E</text>
</g>
<!-- 4574305104&#45;&gt;4574301648 -->
<g id="edge7" class="edge">
<title>4574305104&#45;&gt;4574301648</title>
<path fill="none" stroke="black" d="M131.7,-241.01C118.5,-231.53 98.83,-217.39 84.46,-207.06"/>
<polygon fill="black" stroke="black" points="85.26,-205.48 80.18,-203.98 83.22,-208.32 85.26,-205.48"/>
</g>
<!-- 518977 -->
<!-- 4574305104&#45;&gt;518977 -->
<!-- 4574301024 -->
<g id="node10" class="node">
<title>4574301024</title>
<ellipse fill="lightblue" stroke="black" cx="227" cy="-192.79" rx="18" ry="18"/>
<text text-anchor="middle" x="227" y="-189.09" font-family="Helvetica,sans-Serif" font-size="14.00">K</text>
</g>
<!-- 4574305104&#45;&gt;4574301024 -->
<g id="edge9" class="edge">
<title>4574305104&#45;&gt;4574301024</title>
<path fill="none" stroke="black" d="M160.48,-241.01C173.84,-231.53 193.76,-217.39 208.31,-207.06"/>
<polygon fill="black" stroke="black" points="209.58,-208.31 212.64,-203.98 207.55,-205.45 209.58,-208.31"/>
</g>
<!-- 34360 -->
<!-- 4574301648&#45;&gt;34360 -->
<!-- 529149 -->
<!-- 4574301648&#45;&gt;529149 -->
<!-- 4574181376 -->
<g id="node13" class="node">
<title>4574181376</title>
<ellipse fill="lightblue" stroke="black" cx="114" cy="-134.6" rx="18" ry="18"/>
<text text-anchor="middle" x="114" y="-130.9" font-family="Helvetica,sans-Serif" font-size="14.00">F</text>
</g>
<!-- 4574301648&#45;&gt;4574181376 -->
<g id="edge12" class="edge">
<title>4574301648&#45;&gt;4574181376</title>
<path fill="none" stroke="black" d="M77.38,-178.48C83.95,-170.78 92.29,-161.01 99.36,-152.74"/>
<polygon fill="black" stroke="black" points="100.79,-153.76 102.71,-148.82 98.13,-151.48 100.79,-153.76"/>
</g>
<!-- 4574347184 -->
<g id="node17" class="node">
<title>4574347184</title>
<ellipse fill="lightblue" stroke="black" cx="179" cy="-134.6" rx="18" ry="18"/>
<text text-anchor="middle" x="179" y="-130.9" font-family="Helvetica,sans-Serif" font-size="14.00">J</text>
</g>
<!-- 4574301024&#45;&gt;4574347184 -->
<g id="edge16" class="edge">
<title>4574301024&#45;&gt;4574347184</title>
<path fill="none" stroke="black" d="M215.62,-178.48C209.05,-170.78 200.71,-161.01 193.64,-152.74"/>
<polygon fill="black" stroke="black" points="194.87,-151.48 190.29,-148.82 192.21,-153.76 194.87,-151.48"/>
</g>
<!-- 357232 -->
<!-- 4574301024&#45;&gt;357232 -->
<!-- 4574181760 -->
<g id="node19" class="node">
<title>4574181760</title>
<ellipse fill="lightblue" stroke="black" cx="275" cy="-134.6" rx="18.4" ry="18.4"/>
<text text-anchor="middle" x="275" y="-130.9" font-family="Helvetica,sans-Serif" font-size="14.00">O</text>
</g>
<!-- 4574301024&#45;&gt;4574181760 -->
<g id="edge18" class="edge">
<title>4574301024&#45;&gt;4574181760</title>
<path fill="none" stroke="black" d="M238.38,-178.48C244.86,-170.89 253.05,-161.29 260.05,-153.1"/>
<polygon fill="black" stroke="black" points="261.46,-154.15 263.37,-149.21 258.79,-151.87 261.46,-154.15"/>
</g>
<!-- 985773 -->
<!-- 4574181376&#45;&gt;985773 -->
<!-- 550791 -->
<!-- 4574181376&#45;&gt;550791 -->
<!-- 4574334608 -->
<g id="node16" class="node">
<title>4574334608</title>
<ellipse fill="lightblue" stroke="black" cx="162" cy="-76.2" rx="18.4" ry="18.4"/>
<text text-anchor="middle" x="162" y="-72.5" font-family="Helvetica,sans-Serif" font-size="14.00">G</text>
</g>
<!-- 4574181376&#45;&gt;4574334608 -->
<g id="edge15" class="edge">
<title>4574181376&#45;&gt;4574334608</title>
<path fill="none" stroke="black" d="M125.38,-120.23C131.86,-112.62 140.05,-102.99 147.05,-94.77"/>
<polygon fill="black" stroke="black" points="148.46,-95.8 150.37,-90.86 145.8,-93.53 148.46,-95.8"/>
</g>
<!-- 4574181280 -->
<g id="node20" class="node">
<title>4574181280</title>
<ellipse fill="lightblue" stroke="black" cx="227" cy="-76.2" rx="18" ry="18"/>
<text text-anchor="middle" x="227" y="-72.5" font-family="Helvetica,sans-Serif" font-size="14.00">L</text>
</g>
<!-- 4574181760&#45;&gt;4574181280 -->
<g id="edge19" class="edge">
<title>4574181760&#45;&gt;4574181280</title>
<path fill="none" stroke="black" d="M263.62,-120.23C257.05,-112.5 248.71,-102.7 241.64,-94.4"/>
<polygon fill="black" stroke="black" points="242.87,-93.14 238.29,-90.47 240.2,-95.41 242.87,-93.14"/>
</g>
<!-- 113505 -->
<!-- 4574181760&#45;&gt;113505 -->
<!-- 66609 -->
<!-- 4574181760&#45;&gt;66609 -->
<!-- 892420 -->
<!-- 4574181280&#45;&gt;892420 -->
<!-- 131454 -->
<!-- 4574181280&#45;&gt;131454 -->
<!-- 4574342624 -->
<g id="node25" class="node">
<title>4574342624</title>
<ellipse fill="lightblue" stroke="black" cx="275" cy="-18" rx="18" ry="18"/>
<text text-anchor="middle" x="275" y="-14.3" font-family="Helvetica,sans-Serif" font-size="14.00">N</text>
</g>
<!-- 4574181280&#45;&gt;4574342624 -->
<g id="edge24" class="edge">
<title>4574181280&#45;&gt;4574342624</title>
<path fill="none" stroke="black" d="M238.38,-61.88C244.95,-54.18 253.29,-44.41 260.36,-36.15"/>
<polygon fill="black" stroke="black" points="261.79,-37.16 263.71,-32.22 259.13,-34.89 261.79,-37.16"/>
</g>
<!-- 4574298720 -->
<g id="node29" class="node">
<title>4574298720</title>
<ellipse fill="lightblue" stroke="black" cx="356" cy="-192.79" rx="18" ry="18"/>
<text text-anchor="middle" x="356" y="-189.09" font-family="Helvetica,sans-Serif" font-size="14.00">U</text>
</g>
<!-- 4574305632&#45;&gt;4574298720 -->
<g id="edge28" class="edge">
<title>4574305632&#45;&gt;4574298720</title>
<path fill="none" stroke="black" d="M391.89,-236.78C385.4,-229.01 377.35,-219.37 370.53,-211.19"/>
<polygon fill="black" stroke="black" points="371.83,-210.03 367.28,-207.31 369.15,-212.27 371.83,-210.03"/>
</g>
<!-- 675452 -->
<!-- 4574305632&#45;&gt;675452 -->
<!-- 90937 -->
<!-- 4574305632&#45;&gt;90937 -->
</g>
</svg>
