<?xml version="1.0" encoding="UTF-8" standalone="no"?>
<!DOCTYPE svg PUBLIC "-//W3C//DTD SVG 1.1//EN"
 "http://www.w3.org/Graphics/SVG/1.1/DTD/svg11.dtd">
<!-- Generated by graphviz version 2.50.0 (0)
 -->
<!-- Pages: 1 -->
<svg width="349pt" height="338pt"
 viewBox="0.00 0.00 349.00 338.19" xmlns="http://www.w3.org/2000/svg" xmlns:xlink="http://www.w3.org/1999/xlink">
<g id="graph0" class="graph" transform="scale(1 1) rotate(0) translate(4 334.19)">
<polygon fill="white" stroke="transparent" points="-4,4 -4,-334.19 345,-334.19 345,4 -4,4"/>
<!-- 4574339552 -->
<g id="node1" class="node">
<title>4574339552</title>
<ellipse fill="lightblue" stroke="black" cx="194" cy="-312.19" rx="18" ry="18"/>
<text text-anchor="middle" x="194" y="-308.49" font-family="Helvetica,sans-Serif" font-size="14.00">V</text>
</g>
<!-- 4574299440 -->
<g id="node2" class="node">
<title>4574299440</title>
<ellipse fill="lightblue" stroke="black" cx="146" cy="-252.69" rx="18" ry="18"/>
<text text-anchor="middle" x="146" y="-248.99" font-family="Helvetica,sans-Serif" font-size="14.00">K</text>
</g>
<!-- 4574339552&#45;&gt;4574299440 -->
<g id="edge1" class="edge">
<title>4574339552&#45;&gt;4574299440</title>
<path fill="none" stroke="black" d="M182.87,-297.85C176.2,-289.87 167.66,-279.63 160.48,-271.03"/>
<polygon fill="black" stroke="black" points="161.62,-269.67 157.07,-266.95 158.93,-271.91 161.62,-269.67"/>
</g>
<!-- 743831 -->
<!-- 4574339552&#45;&gt;743831 -->
<!-- 4574312832 -->
<g id="node4" class="node">
<title>4574312832</title>
<ellipse fill="lightblue" stroke="black" cx="243" cy="-252.69" rx="19.5" ry="19.5"/>
<text text-anchor="middle" x="243" y="-248.99" font-family="Helvetica,sans-Serif" font-size="14.00">W</text>
</g>
<!-- 4574339552&#45;&gt;4574312832 -->
<g id="edge3" class="edge">
<title>4574339552&#45;&gt;4574312832</title>
<path fill="none" stroke="black" d="M205.36,-297.85C211.88,-290.21 220.14,-280.51 227.27,-272.14"/>
<polygon fill="black" stroke="black" points="228.76,-273.1 230.67,-268.16 226.09,-270.83 228.76,-273.1"/>
</g>
<!-- 4574298720 -->
<g id="node5" class="node">
<title>4574298720</title>
<ellipse fill="lightblue" stroke="black" cx="66" cy="-193.19" rx="18" ry="18"/>
<text text-anchor="middle" x="66" y="-189.49" font-family="Helvetica,sans-Serif" font-size="14.00">B</text>
</g>
<!-- 4574299440&#45;&gt;4574298720 -->
<g id="edge4" class="edge">
<title>4574299440&#45;&gt;4574298720</title>
<path fill="none" stroke="black" d="M131.7,-241.41C118.5,-231.92 98.83,-217.79 84.46,-207.46"/>
<polygon fill="black" stroke="black" points="85.26,-205.88 80.18,-204.38 83.22,-208.72 85.26,-205.88"/>
</g>
<!-- 318693 -->
<!-- 4574299440&#45;&gt;318693 -->
<!-- 4574312640 -->
<g id="node7" class="node">
<title>4574312640</title>
<ellipse fill="lightblue" stroke="black" cx="227" cy="-193.19" rx="18" ry="18"/>
<text text-anchor="middle" x="227" y="-189.49" font-family="Helvetica,sans-Serif" font-size="14.00">N</text>
</g>
<!-- 4574299440&#45;&gt;4574312640 -->
<g id="edge6" class="edge">
<title>4574299440&#45;&gt;4574312640</title>
<path fill="none" stroke="black" d="M160.48,-241.41C173.84,-231.92 193.76,-217.79 208.31,-207.46"/>
<polygon fill="black" stroke="black" points="209.58,-208.7 212.64,-204.38 207.55,-205.85 209.58,-208.7"/>
</g>
<!-- 363949 -->
<!-- 4574298720&#45;&gt;363949 -->
<!-- 758817 -->
<!-- 4574298720&#45;&gt;758817 -->
<!-- 4574311056 -->
<g id="node10" class="node">
<title>4574311056</title>
<ellipse fill="lightblue" stroke="black" cx="114" cy="-134.99" rx="18" ry="18"/>
<text text-anchor="middle" x="114" y="-131.29" font-family="Helvetica,sans-Serif" font-size="14.00">I</text>
</g>
<!-- 4574298720&#45;&gt;4574311056 -->
<g id="edge9" class="edge">
<title>4574298720&#45;&gt;4574311056</title>
<path fill="none" stroke="black" d="M77.38,-178.87C83.95,-171.17 92.29,-161.41 99.36,-153.14"/>
<polygon fill="black" stroke="black" points="100.79,-154.15 102.71,-149.21 98.13,-151.88 100.79,-154.15"/>
</g>
<!-- 4574308416 -->
<g id="node17" class="node">
<title>4574308416</title>
<ellipse fill="lightblue" stroke="black" cx="179" cy="-134.99" rx="18" ry="18"/>
<text text-anchor="middle" x="179" y="-131.29" font-family="Helvetica,sans-Serif" font-size="14.00">L</text>
</g>
<!-- 4574312640&#45;&gt;4574308416 -->
<g id="edge16" class="edge">
<title>4574312640&#45;&gt;4574308416</title>
<path fill="none" stroke="black" d="M215.62,-178.87C209.05,-171.17 200.71,-161.41 193.64,-153.14"/>
<polygon fill="black" stroke="black" points="194.87,-151.88 190.29,-149.21 192.21,-154.15 194.87,-151.88"/>
</g>
<!-- 715073 -->
<!-- 4574312640&#45;&gt;715073 -->
<!-- 4574307648 -->
<g id="node19" class="node">
<title>4574307648</title>
<ellipse fill="lightblue" stroke="black" cx="275" cy="-134.99" rx="18.4" ry="18.4"/>
<text text-anchor="middle" x="275" y="-131.29" font-family="Helvetica,sans-Serif" font-size="14.00">Q</text>
</g>
<!-- 4574312640&#45;&gt;4574307648 -->
<g id="edge18" class="edge">
<title>4574312640&#45;&gt;4574307648</title>
<path fill="none" stroke="black" d="M238.38,-178.87C244.86,-171.28 253.05,-161.69 260.05,-153.5"/>
<polygon fill="black" stroke="black" points="261.46,-154.54 263.37,-149.6 258.79,-152.27 261.46,-154.54"/>
</g>
<!-- 4574300544 -->
<g id="node11" class="node">
<title>4574300544</title>
<ellipse fill="lightblue" stroke="black" cx="66" cy="-76.6" rx="18" ry="18"/>
<text text-anchor="middle" x="66" y="-72.9" font-family="Helvetica,sans-Serif" font-size="14.00">E</text>
</g>
<!-- 4574311056&#45;&gt;4574300544 -->
<g id="edge10" class="edge">
<title>4574311056&#45;&gt;4574300544</title>
<path fill="none" stroke="black" d="M102.62,-120.63C96.05,-112.9 87.71,-103.1 80.64,-94.8"/>
<polygon fill="black" stroke="black" points="81.87,-93.54 77.29,-90.86 79.2,-95.81 81.87,-93.54"/>
</g>
<!-- 782104 -->
<!-- 4574311056&#45;&gt;782104 -->
<!-- 4574313792 -->
<g id="node13" class="node">
<title>4574313792</title>
<ellipse fill="lightblue" stroke="black" cx="162" cy="-76.6" rx="18" ry="18"/>
<text text-anchor="middle" x="162" y="-72.9" font-family="Helvetica,sans-Serif" font-size="14.00">J</text>
</g>
<!-- 4574311056&#45;&gt;4574313792 -->
<g id="edge12" class="edge">
<title>4574311056&#45;&gt;4574313792</title>
<path fill="none" stroke="black" d="M125.38,-120.63C131.95,-112.9 140.29,-103.1 147.36,-94.8"/>
<polygon fill="black" stroke="black" points="148.8,-95.81 150.71,-90.86 146.13,-93.54 148.8,-95.81"/>
</g>
<!-- 4574692752 -->
<g id="node14" class="node">
<title>4574692752</title>
<ellipse fill="lightblue" stroke="black" cx="18" cy="-18.2" rx="18" ry="18"/>
<text text-anchor="middle" x="18" y="-14.5" font-family="Helvetica,sans-Serif" font-size="14.00">C</text>
</g>
<!-- 4574300544&#45;&gt;4574692752 -->
<g id="edge13" class="edge">
<title>4574300544&#45;&gt;4574692752</title>
<path fill="none" stroke="black" d="M54.62,-62.23C48.05,-54.5 39.71,-44.7 32.64,-36.4"/>
<polygon fill="black" stroke="black" points="33.87,-35.14 29.29,-32.47 31.2,-37.41 33.87,-35.14"/>
</g>
<!-- 555186 -->
<!-- 4574300544&#45;&gt;555186 -->
<!-- 4574312112 -->
<g id="node16" class="node">
<title>4574312112</title>
<ellipse fill="lightblue" stroke="black" cx="114" cy="-18.2" rx="18.4" ry="18.4"/>
<text text-anchor="middle" x="114" y="-14.5" font-family="Helvetica,sans-Serif" font-size="14.00">G</text>
</g>
<!-- 4574300544&#45;&gt;4574312112 -->
<g id="edge15" class="edge">
<title>4574300544&#45;&gt;4574312112</title>
<path fill="none" stroke="black" d="M77.38,-62.23C83.86,-54.62 92.05,-44.99 99.05,-36.77"/>
<polygon fill="black" stroke="black" points="100.46,-37.8 102.37,-32.86 97.8,-35.53 100.46,-37.8"/>
</g>
<!-- 4574304864 -->
<g id="node20" class="node">
<title>4574304864</title>
<ellipse fill="lightblue" stroke="black" cx="227" cy="-76.6" rx="18.4" ry="18.4"/>
<text text-anchor="middle" x="227" y="-72.9" font-family="Helvetica,sans-Serif" font-size="14.00">O</text>
</g>
<!-- 4574307648&#45;&gt;4574304864 -->
<g id="edge19" class="edge">
<title>4574307648&#45;&gt;4574304864</title>
<path fill="none" stroke="black" d="M263.62,-120.63C257.14,-113.01 248.95,-103.38 241.95,-95.16"/>
<polygon fill="black" stroke="black" points="243.2,-93.93 238.63,-91.26 240.54,-96.2 243.2,-93.93"/>
</g>
<!-- 650018 -->
<!-- 4574307648&#45;&gt;650018 -->
<!-- 4574702160 -->
<g id="node22" class="node">
<title>4574702160</title>
<ellipse fill="lightblue" stroke="black" cx="323" cy="-76.6" rx="18" ry="18"/>
<text text-anchor="middle" x="323" y="-72.9" font-family="Helvetica,sans-Serif" font-size="14.00">S</text>
</g>
<!-- 4574307648&#45;&gt;4574702160 -->
<g id="edge21" class="edge">
<title>4574307648&#45;&gt;4574702160</title>
<path fill="none" stroke="black" d="M286.38,-120.63C292.95,-112.9 301.29,-103.1 308.36,-94.8"/>
<polygon fill="black" stroke="black" points="309.8,-95.81 311.71,-90.86 307.13,-93.54 309.8,-95.81"/>
</g>
<!-- 493577 -->
<!-- 4574304864&#45;&gt;493577 -->
<!-- 703173 -->
<!-- 4574304864&#45;&gt;703173 -->
<!-- 4574695536 -->
<g id="node25" class="node">
<title>4574695536</title>
<ellipse fill="lightblue" stroke="black" cx="275" cy="-18.2" rx="18" ry="18"/>
<text text-anchor="middle" x="275" y="-14.5" font-family="Helvetica,sans-Serif" font-size="14.00">P</text>
</g>
<!-- 4574304864&#45;&gt;4574695536 -->
<g id="edge24" class="edge">
<title>4574304864&#45;&gt;4574695536</title>
<path fill="none" stroke="black" d="M238.38,-62.23C244.95,-54.5 253.29,-44.7 260.36,-36.4"/>
<polygon fill="black" stroke="black" points="261.8,-37.41 263.71,-32.47 259.13,-35.14 261.8,-37.41"/>
</g>
</g>
</svg>
