<?xml version="1.0" encoding="UTF-8" standalone="no"?>
<!DOCTYPE svg PUBLIC "-//W3C//DTD SVG 1.1//EN"
 "http://www.w3.org/Graphics/SVG/1.1/DTD/svg11.dtd">
<!-- Generated by graphviz version 2.50.0 (0)
 -->
<!-- Pages: 1 -->
<svg width="449pt" height="426pt"
 viewBox="0.00 0.00 449.00 425.58" xmlns="http://www.w3.org/2000/svg" xmlns:xlink="http://www.w3.org/1999/xlink">
<g id="graph0" class="graph" transform="scale(1 1) rotate(0) translate(4 421.58)">
<polygon fill="white" stroke="transparent" points="-4,4 -4,-421.58 445,-421.58 445,4 -4,4"/>
<!-- 4574307648 -->
<g id="node1" class="node">
<title>4574307648</title>
<ellipse fill="lightblue" stroke="black" cx="194" cy="-396.78" rx="20.6" ry="20.6"/>
<text text-anchor="middle" x="194" y="-393.08" font-family="Helvetica,sans-Serif" font-size="14.00">15</text>
</g>
<!-- 4574301744 -->
<g id="node2" class="node">
<title>4574301744</title>
<ellipse fill="lightblue" stroke="black" cx="87" cy="-333.18" rx="18" ry="18"/>
<text text-anchor="middle" x="87" y="-329.48" font-family="Helvetica,sans-Serif" font-size="14.00">1</text>
</g>
<!-- 4574307648&#45;&gt;4574301744 -->
<g id="edge1" class="edge">
<title>4574307648&#45;&gt;4574301744</title>
<path fill="none" stroke="black" d="M176.33,-385.61C157.21,-374.6 126.78,-357.08 106.85,-345.61"/>
<polygon fill="black" stroke="black" points="107.47,-343.95 102.27,-342.97 105.73,-346.98 107.47,-343.95"/>
</g>
<!-- 416311 -->
<!-- 4574307648&#45;&gt;416311 -->
<!-- 4574311488 -->
<g id="node4" class="node">
<title>4574311488</title>
<ellipse fill="lightblue" stroke="black" cx="303" cy="-333.18" rx="20.6" ry="20.6"/>
<text text-anchor="middle" x="303" y="-329.48" font-family="Helvetica,sans-Serif" font-size="14.00">23</text>
</g>
<!-- 4574307648&#45;&gt;4574311488 -->
<g id="edge3" class="edge">
<title>4574307648&#45;&gt;4574311488</title>
<path fill="none" stroke="black" d="M212,-385.61C230.89,-374.93 260.6,-358.14 280.9,-346.67"/>
<polygon fill="black" stroke="black" points="281.84,-348.15 285.34,-344.17 280.12,-345.1 281.84,-348.15"/>
</g>
<!-- 513255 -->
<!-- 4574301744&#45;&gt;513255 -->
<!-- 940772 -->
<!-- 4574301744&#45;&gt;940772 -->
<!-- 4574331968 -->
<g id="node7" class="node">
<title>4574331968</title>
<ellipse fill="lightblue" stroke="black" cx="137" cy="-269.59" rx="20.6" ry="20.6"/>
<text text-anchor="middle" x="137" y="-265.89" font-family="Helvetica,sans-Serif" font-size="14.00">10</text>
</g>
<!-- 4574301744&#45;&gt;4574331968 -->
<g id="edge6" class="edge">
<title>4574301744&#45;&gt;4574331968</title>
<path fill="none" stroke="black" d="M97.85,-318.82C104.52,-310.59 113.21,-299.9 120.7,-290.67"/>
<polygon fill="black" stroke="black" points="122.25,-291.53 124.04,-286.55 119.53,-289.33 122.25,-291.53"/>
</g>
<!-- 4574313984 -->
<g id="node20" class="node">
<title>4574313984</title>
<ellipse fill="lightblue" stroke="black" cx="253" cy="-269.59" rx="20.6" ry="20.6"/>
<text text-anchor="middle" x="253" y="-265.89" font-family="Helvetica,sans-Serif" font-size="14.00">20</text>
</g>
<!-- 4574311488&#45;&gt;4574313984 -->
<g id="edge19" class="edge">
<title>4574311488&#45;&gt;4574313984</title>
<path fill="none" stroke="black" d="M290.38,-316.64C283.92,-308.68 275.98,-298.89 269.08,-290.39"/>
<polygon fill="black" stroke="black" points="270.3,-289.12 265.79,-286.34 267.58,-291.32 270.3,-289.12"/>
</g>
<!-- 398593 -->
<!-- 4574311488&#45;&gt;398593 -->
<!-- 4574334992 -->
<g id="node22" class="node">
<title>4574334992</title>
<ellipse fill="lightblue" stroke="black" cx="375" cy="-269.59" rx="20.6" ry="20.6"/>
<text text-anchor="middle" x="375" y="-265.89" font-family="Helvetica,sans-Serif" font-size="14.00">29</text>
</g>
<!-- 4574311488&#45;&gt;4574334992 -->
<g id="edge21" class="edge">
<title>4574311488&#45;&gt;4574334992</title>
<path fill="none" stroke="black" d="M318.62,-318.82C329.47,-309.54 344.01,-297.1 355.6,-287.19"/>
<polygon fill="black" stroke="black" points="356.75,-288.51 359.41,-283.93 354.47,-285.85 356.75,-288.51"/>
</g>
<!-- 4574331296 -->
<g id="node8" class="node">
<title>4574331296</title>
<ellipse fill="lightblue" stroke="black" cx="66" cy="-205.99" rx="18" ry="18"/>
<text text-anchor="middle" x="66" y="-202.29" font-family="Helvetica,sans-Serif" font-size="14.00">3</text>
</g>
<!-- 4574331968&#45;&gt;4574331296 -->
<g id="edge7" class="edge">
<title>4574331968&#45;&gt;4574331296</title>
<path fill="none" stroke="black" d="M121.59,-255.22C110.31,-245.43 94.98,-232.13 83.28,-221.98"/>
<polygon fill="black" stroke="black" points="84.39,-220.62 79.46,-218.67 82.09,-223.27 84.39,-220.62"/>
</g>
<!-- 288615 -->
<!-- 4574331968&#45;&gt;288615 -->
<!-- 4574331248 -->
<g id="node10" class="node">
<title>4574331248</title>
<ellipse fill="lightblue" stroke="black" cx="187" cy="-205.99" rx="20.6" ry="20.6"/>
<text text-anchor="middle" x="187" y="-202.29" font-family="Helvetica,sans-Serif" font-size="14.00">14</text>
</g>
<!-- 4574331968&#45;&gt;4574331248 -->
<g id="edge9" class="edge">
<title>4574331968&#45;&gt;4574331248</title>
<path fill="none" stroke="black" d="M149.62,-253.04C156.08,-245.08 164.02,-235.3 170.92,-226.8"/>
<polygon fill="black" stroke="black" points="172.42,-227.73 174.21,-222.74 169.7,-225.52 172.42,-227.73"/>
</g>
<!-- 4574335472 -->
<g id="node11" class="node">
<title>4574335472</title>
<ellipse fill="lightblue" stroke="black" cx="18" cy="-142.39" rx="18" ry="18"/>
<text text-anchor="middle" x="18" y="-138.69" font-family="Helvetica,sans-Serif" font-size="14.00">2</text>
</g>
<!-- 4574331296&#45;&gt;4574335472 -->
<g id="edge10" class="edge">
<title>4574331296&#45;&gt;4574335472</title>
<path fill="none" stroke="black" d="M55.35,-191.32C48.39,-182.39 39.23,-170.64 31.73,-161.01"/>
<polygon fill="black" stroke="black" points="33.08,-159.89 28.62,-157.03 30.32,-162.05 33.08,-159.89"/>
</g>
<!-- 550181 -->
<!-- 4574331296&#45;&gt;550181 -->
<!-- 4574334800 -->
<g id="node13" class="node">
<title>4574334800</title>
<ellipse fill="lightblue" stroke="black" cx="114" cy="-142.39" rx="18" ry="18"/>
<text text-anchor="middle" x="114" y="-138.69" font-family="Helvetica,sans-Serif" font-size="14.00">8</text>
</g>
<!-- 4574331296&#45;&gt;4574334800 -->
<g id="edge12" class="edge">
<title>4574331296&#45;&gt;4574334800</title>
<path fill="none" stroke="black" d="M76.65,-191.32C83.61,-182.39 92.77,-170.64 100.27,-161.01"/>
<polygon fill="black" stroke="black" points="101.68,-162.05 103.38,-157.03 98.92,-159.89 101.68,-162.05"/>
</g>
<!-- 4574335328 -->
<g id="node14" class="node">
<title>4574335328</title>
<ellipse fill="lightblue" stroke="black" cx="66" cy="-78.8" rx="18" ry="18"/>
<text text-anchor="middle" x="66" y="-75.1" font-family="Helvetica,sans-Serif" font-size="14.00">5</text>
</g>
<!-- 4574334800&#45;&gt;4574335328 -->
<g id="edge13" class="edge">
<title>4574334800&#45;&gt;4574335328</title>
<path fill="none" stroke="black" d="M103.35,-127.72C96.39,-118.79 87.23,-107.04 79.73,-97.41"/>
<polygon fill="black" stroke="black" points="81.08,-96.3 76.62,-93.43 78.32,-98.45 81.08,-96.3"/>
</g>
<!-- 239422 -->
<!-- 4574334800&#45;&gt;239422 -->
<!-- 189128 -->
<!-- 4574334800&#45;&gt;189128 -->
<!-- 479675 -->
<!-- 4574335328&#45;&gt;479675 -->
<!-- 557732 -->
<!-- 4574335328&#45;&gt;557732 -->
<!-- 4574333648 -->
<g id="node19" class="node">
<title>4574333648</title>
<ellipse fill="lightblue" stroke="black" cx="114" cy="-18" rx="18" ry="18"/>
<text text-anchor="middle" x="114" y="-14.3" font-family="Helvetica,sans-Serif" font-size="14.00">6</text>
</g>
<!-- 4574335328&#45;&gt;4574333648 -->
<g id="edge18" class="edge">
<title>4574335328&#45;&gt;4574333648</title>
<path fill="none" stroke="black" d="M76.89,-64.46C83.55,-56.3 92.14,-45.77 99.39,-36.9"/>
<polygon fill="black" stroke="black" points="101.01,-37.68 102.82,-32.7 98.3,-35.46 101.01,-37.68"/>
</g>
<!-- 4574334272 -->
<g id="node23" class="node">
<title>4574334272</title>
<ellipse fill="lightblue" stroke="black" cx="325" cy="-205.99" rx="20.6" ry="20.6"/>
<text text-anchor="middle" x="325" y="-202.29" font-family="Helvetica,sans-Serif" font-size="14.00">28</text>
</g>
<!-- 4574334992&#45;&gt;4574334272 -->
<g id="edge22" class="edge">
<title>4574334992&#45;&gt;4574334272</title>
<path fill="none" stroke="black" d="M362.38,-253.04C355.92,-245.08 347.98,-235.3 341.08,-226.8"/>
<polygon fill="black" stroke="black" points="342.3,-225.52 337.79,-222.74 339.58,-227.73 342.3,-225.52"/>
</g>
<!-- 319235 -->
<!-- 4574334992&#45;&gt;319235 -->
<!-- 509822 -->
<!-- 4574334992&#45;&gt;509822 -->
<!-- 4574334032 -->
<g id="node26" class="node">
<title>4574334032</title>
<ellipse fill="lightblue" stroke="black" cx="275" cy="-142.39" rx="20.6" ry="20.6"/>
<text text-anchor="middle" x="275" y="-138.69" font-family="Helvetica,sans-Serif" font-size="14.00">25</text>
</g>
<!-- 4574334272&#45;&gt;4574334032 -->
<g id="edge25" class="edge">
<title>4574334272&#45;&gt;4574334032</title>
<path fill="none" stroke="black" d="M312.38,-189.45C305.92,-181.48 297.98,-171.7 291.08,-163.2"/>
<polygon fill="black" stroke="black" points="292.3,-161.93 287.79,-159.15 289.58,-164.13 292.3,-161.93"/>
</g>
<!-- 520098 -->
<!-- 4574334272&#45;&gt;520098 -->
<!-- 50442 -->
<!-- 4574334272&#45;&gt;50442 -->
<!-- 875482 -->
<!-- 4574334032&#45;&gt;875482 -->
<!-- 114989 -->
<!-- 4574334032&#45;&gt;114989 -->
<!-- 4574333312 -->
<g id="node31" class="node">
<title>4574333312</title>
<ellipse fill="lightblue" stroke="black" cx="325" cy="-78.8" rx="20.6" ry="20.6"/>
<text text-anchor="middle" x="325" y="-75.1" font-family="Helvetica,sans-Serif" font-size="14.00">26</text>
</g>
<!-- 4574334032&#45;&gt;4574333312 -->
<g id="edge30" class="edge">
<title>4574334032&#45;&gt;4574333312</title>
<path fill="none" stroke="black" d="M287.62,-125.85C294.08,-117.89 302.02,-108.1 308.92,-99.61"/>
<polygon fill="black" stroke="black" points="310.42,-100.54 312.21,-95.55 307.7,-98.33 310.42,-100.54"/>
</g>
</g>
</svg>
