<?xml version="1.0" encoding="UTF-8" standalone="no"?>
<!DOCTYPE svg PUBLIC "-//W3C//DTD SVG 1.1//EN"
 "http://www.w3.org/Graphics/SVG/1.1/DTD/svg11.dtd">
<!-- Generated by graphviz version 2.50.0 (0)
 -->
<!-- Pages: 1 -->
<svg width="510pt" height="395pt"
 viewBox="0.00 0.00 510.00 395.39" xmlns="http://www.w3.org/2000/svg" xmlns:xlink="http://www.w3.org/1999/xlink">
<g id="graph0" class="graph" transform="scale(1 1) rotate(0) translate(4 391.39)">
<polygon fill="white" stroke="transparent" points="-4,4 -4,-391.39 506,-391.39 506,4 -4,4"/>
<!-- 4574337632 -->
<g id="node1" class="node">
<title>4574337632</title>
<ellipse fill="lightblue" stroke="black" cx="283" cy="-367.9" rx="19.5" ry="19.5"/>
<text text-anchor="middle" x="283" y="-364.2" font-family="Helvetica,sans-Serif" font-size="14.00">W</text>
</g>
<!-- 4574337104 -->
<g id="node2" class="node">
<title>4574337104</title>
<ellipse fill="lightblue" stroke="black" cx="235" cy="-308.4" rx="18" ry="18"/>
<text text-anchor="middle" x="235" y="-304.7" font-family="Helvetica,sans-Serif" font-size="14.00">H</text>
</g>
<!-- 4574337632&#45;&gt;4574337104 -->
<g id="edge1" class="edge">
<title>4574337632&#45;&gt;4574337104</title>
<path fill="none" stroke="black" d="M270.89,-352.39C264.4,-344.61 256.35,-334.97 249.53,-326.8"/>
<polygon fill="black" stroke="black" points="250.83,-325.63 246.28,-322.91 248.15,-327.87 250.83,-325.63"/>
</g>
<!-- 239860 -->
<!-- 4574337632&#45;&gt;239860 -->
<!-- 4574313072 -->
<g id="node4" class="node">
<title>4574313072</title>
<ellipse fill="lightblue" stroke="black" cx="331" cy="-308.4" rx="18" ry="18"/>
<text text-anchor="middle" x="331" y="-304.7" font-family="Helvetica,sans-Serif" font-size="14.00">Y</text>
</g>
<!-- 4574337632&#45;&gt;4574313072 -->
<g id="edge3" class="edge">
<title>4574337632&#45;&gt;4574313072</title>
<path fill="none" stroke="black" d="M295.11,-352.39C301.6,-344.61 309.65,-334.97 316.47,-326.8"/>
<polygon fill="black" stroke="black" points="317.85,-327.87 319.72,-322.91 315.17,-325.63 317.85,-327.87"/>
</g>
<!-- 4574312640 -->
<g id="node5" class="node">
<title>4574312640</title>
<ellipse fill="lightblue" stroke="black" cx="131" cy="-250.4" rx="18" ry="18"/>
<text text-anchor="middle" x="131" y="-246.7" font-family="Helvetica,sans-Serif" font-size="14.00">A</text>
</g>
<!-- 4574337104&#45;&gt;4574312640 -->
<g id="edge4" class="edge">
<title>4574337104&#45;&gt;4574312640</title>
<path fill="none" stroke="black" d="M219.2,-298.89C201,-289.09 171.05,-272.96 151.18,-262.26"/>
<polygon fill="black" stroke="black" points="151.84,-260.63 146.6,-259.8 150.18,-263.71 151.84,-260.63"/>
</g>
<!-- 286473 -->
<!-- 4574337104&#45;&gt;286473 -->
<!-- 4574300832 -->
<g id="node7" class="node">
<title>4574300832</title>
<ellipse fill="lightblue" stroke="black" cx="340" cy="-250.4" rx="18" ry="18"/>
<text text-anchor="middle" x="340" y="-246.7" font-family="Helvetica,sans-Serif" font-size="14.00">I</text>
</g>
<!-- 4574337104&#45;&gt;4574300832 -->
<g id="edge6" class="edge">
<title>4574337104&#45;&gt;4574300832</title>
<path fill="none" stroke="black" d="M250.49,-299.13C268.87,-289.33 299.56,-272.96 319.79,-262.17"/>
<polygon fill="black" stroke="black" points="320.86,-263.59 324.44,-259.69 319.21,-260.5 320.86,-263.59"/>
</g>
<!-- 855794 -->
<!-- 4574312640&#45;&gt;855794 -->
<!-- 867590 -->
<!-- 4574312640&#45;&gt;867590 -->
<!-- 4574308416 -->
<g id="node10" class="node">
<title>4574308416</title>
<ellipse fill="lightblue" stroke="black" cx="179" cy="-192.4" rx="18" ry="18"/>
<text text-anchor="middle" x="179" y="-188.7" font-family="Helvetica,sans-Serif" font-size="14.00">D</text>
</g>
<!-- 4574312640&#45;&gt;4574308416 -->
<g id="edge9" class="edge">
<title>4574312640&#45;&gt;4574308416</title>
<path fill="none" stroke="black" d="M142.38,-236.13C148.95,-228.45 157.29,-218.72 164.36,-210.48"/>
<polygon fill="black" stroke="black" points="165.78,-211.51 167.71,-206.57 163.12,-209.23 165.78,-211.51"/>
</g>
<!-- 448491 -->
<!-- 4574300832&#45;&gt;448491 -->
<!-- 215046 -->
<!-- 4574300832&#45;&gt;215046 -->
<!-- 4574309472 -->
<g id="node25" class="node">
<title>4574309472</title>
<ellipse fill="lightblue" stroke="black" cx="436" cy="-192.4" rx="18" ry="18"/>
<text text-anchor="middle" x="436" y="-188.7" font-family="Helvetica,sans-Serif" font-size="14.00">U</text>
</g>
<!-- 4574300832&#45;&gt;4574309472 -->
<g id="edge24" class="edge">
<title>4574300832&#45;&gt;4574309472</title>
<path fill="none" stroke="black" d="M355.42,-240.4C371.94,-230.77 398.2,-215.45 416.22,-204.94"/>
<polygon fill="black" stroke="black" points="417.18,-206.4 420.61,-202.37 415.41,-203.38 417.18,-206.4"/>
</g>
<!-- 4574298720 -->
<g id="node11" class="node">
<title>4574298720</title>
<ellipse fill="lightblue" stroke="black" cx="66" cy="-134.4" rx="18" ry="18"/>
<text text-anchor="middle" x="66" y="-130.7" font-family="Helvetica,sans-Serif" font-size="14.00">B</text>
</g>
<!-- 4574308416&#45;&gt;4574298720 -->
<g id="edge10" class="edge">
<title>4574308416&#45;&gt;4574298720</title>
<path fill="none" stroke="black" d="M163.29,-183.61C143.25,-173.68 108.54,-156.48 86.45,-145.53"/>
<polygon fill="black" stroke="black" points="87.2,-143.95 81.94,-143.3 85.65,-147.09 87.2,-143.95"/>
</g>
<!-- 48209 -->
<!-- 4574308416&#45;&gt;48209 -->
<!-- 4574312352 -->
<g id="node13" class="node">
<title>4574312352</title>
<ellipse fill="lightblue" stroke="black" cx="227" cy="-134.4" rx="18" ry="18"/>
<text text-anchor="middle" x="227" y="-130.7" font-family="Helvetica,sans-Serif" font-size="14.00">E</text>
</g>
<!-- 4574308416&#45;&gt;4574312352 -->
<g id="edge12" class="edge">
<title>4574308416&#45;&gt;4574312352</title>
<path fill="none" stroke="black" d="M190.38,-178.13C196.95,-170.45 205.29,-160.72 212.36,-152.48"/>
<polygon fill="black" stroke="black" points="213.78,-153.51 215.71,-148.57 211.12,-151.23 213.78,-153.51"/>
</g>
<!-- 478313 -->
<!-- 4574298720&#45;&gt;478313 -->
<!-- 975322 -->
<!-- 4574298720&#45;&gt;975322 -->
<!-- 4574301840 -->
<g id="node16" class="node">
<title>4574301840</title>
<ellipse fill="lightblue" stroke="black" cx="114" cy="-76.4" rx="18" ry="18"/>
<text text-anchor="middle" x="114" y="-72.7" font-family="Helvetica,sans-Serif" font-size="14.00">C</text>
</g>
<!-- 4574298720&#45;&gt;4574301840 -->
<g id="edge15" class="edge">
<title>4574298720&#45;&gt;4574301840</title>
<path fill="none" stroke="black" d="M77.38,-120.13C83.95,-112.45 92.29,-102.72 99.36,-94.48"/>
<polygon fill="black" stroke="black" points="100.78,-95.51 102.71,-90.57 98.12,-93.23 100.78,-95.51"/>
</g>
<!-- 708606 -->
<!-- 4574312352&#45;&gt;708606 -->
<!-- 932340 -->
<!-- 4574312352&#45;&gt;932340 -->
<!-- 4574313792 -->
<g id="node19" class="node">
<title>4574313792</title>
<ellipse fill="lightblue" stroke="black" cx="275" cy="-76.4" rx="18" ry="18"/>
<text text-anchor="middle" x="275" y="-72.7" font-family="Helvetica,sans-Serif" font-size="14.00">F</text>
</g>
<!-- 4574312352&#45;&gt;4574313792 -->
<g id="edge18" class="edge">
<title>4574312352&#45;&gt;4574313792</title>
<path fill="none" stroke="black" d="M238.38,-120.13C244.95,-112.45 253.29,-102.72 260.36,-94.48"/>
<polygon fill="black" stroke="black" points="261.78,-95.51 263.71,-90.57 259.12,-93.23 261.78,-95.51"/>
</g>
<!-- 946494 -->
<!-- 4574313792&#45;&gt;946494 -->
<!-- 577567 -->
<!-- 4574313792&#45;&gt;577567 -->
<!-- 4574312832 -->
<g id="node22" class="node">
<title>4574312832</title>
<ellipse fill="lightblue" stroke="black" cx="323" cy="-18.2" rx="18.4" ry="18.4"/>
<text text-anchor="middle" x="323" y="-14.5" font-family="Helvetica,sans-Serif" font-size="14.00">G</text>
</g>
<!-- 4574313792&#45;&gt;4574312832 -->
<g id="edge21" class="edge">
<title>4574313792&#45;&gt;4574312832</title>
<path fill="none" stroke="black" d="M286.38,-62.08C292.86,-54.49 301.05,-44.89 308.05,-36.7"/>
<polygon fill="black" stroke="black" points="309.46,-37.75 311.37,-32.81 306.79,-35.48 309.46,-37.75"/>
</g>
<!-- 4574299440 -->
<g id="node26" class="node">
<title>4574299440</title>
<ellipse fill="lightblue" stroke="black" cx="388" cy="-134.4" rx="18" ry="18"/>
<text text-anchor="middle" x="388" y="-130.7" font-family="Helvetica,sans-Serif" font-size="14.00">P</text>
</g>
<!-- 4574309472&#45;&gt;4574299440 -->
<g id="edge25" class="edge">
<title>4574309472&#45;&gt;4574299440</title>
<path fill="none" stroke="black" d="M424.62,-178.13C418.05,-170.45 409.71,-160.72 402.64,-152.48"/>
<polygon fill="black" stroke="black" points="403.88,-151.23 399.29,-148.57 401.22,-153.51 403.88,-151.23"/>
</g>
<!-- 329606 -->
<!-- 4574309472&#45;&gt;329606 -->
<!-- 4574311056 -->
<g id="node28" class="node">
<title>4574311056</title>
<ellipse fill="lightblue" stroke="black" cx="484" cy="-134.4" rx="18" ry="18"/>
<text text-anchor="middle" x="484" y="-130.7" font-family="Helvetica,sans-Serif" font-size="14.00">V</text>
</g>
<!-- 4574309472&#45;&gt;4574311056 -->
<g id="edge27" class="edge">
<title>4574309472&#45;&gt;4574311056</title>
<path fill="none" stroke="black" d="M447.38,-178.13C453.95,-170.45 462.29,-160.72 469.36,-152.48"/>
<polygon fill="black" stroke="black" points="470.78,-153.51 472.71,-148.57 468.12,-151.23 470.78,-153.51"/>
</g>
<!-- 222702 -->
<!-- 4574299440&#45;&gt;222702 -->
<!-- 48240 -->
<!-- 4574299440&#45;&gt;48240 -->
<!-- 4574704992 -->
<g id="node31" class="node">
<title>4574704992</title>
<ellipse fill="lightblue" stroke="black" cx="436" cy="-76.4" rx="18" ry="18"/>
<text text-anchor="middle" x="436" y="-72.7" font-family="Helvetica,sans-Serif" font-size="14.00">S</text>
</g>
<!-- 4574299440&#45;&gt;4574704992 -->
<g id="edge30" class="edge">
<title>4574299440&#45;&gt;4574704992</title>
<path fill="none" stroke="black" d="M399.38,-120.13C405.95,-112.45 414.29,-102.72 421.36,-94.48"/>
<polygon fill="black" stroke="black" points="422.78,-95.51 424.71,-90.57 420.12,-93.23 422.78,-95.51"/>
</g>
</g>
</svg>
