<?xml version="1.0" encoding="UTF-8" standalone="no"?>
<!DOCTYPE svg PUBLIC "-//W3C//DTD SVG 1.1//EN"
 "http://www.w3.org/Graphics/SVG/1.1/DTD/svg11.dtd">
<!-- Generated by graphviz version 2.50.0 (0)
 -->
<!-- Pages: 1 -->
<svg width="577pt" height="368pt"
 viewBox="0.00 0.00 577.00 367.58" xmlns="http://www.w3.org/2000/svg" xmlns:xlink="http://www.w3.org/1999/xlink">
<g id="graph0" class="graph" transform="scale(1 1) rotate(0) translate(4 363.58)">
<polygon fill="white" stroke="transparent" points="-4,4 -4,-363.58 573,-363.58 573,4 -4,4"/>
<!-- 4574312352 -->
<g id="node1" class="node">
<title>4574312352</title>
<ellipse fill="lightblue" stroke="black" cx="264" cy="-338.78" rx="20.6" ry="20.6"/>
<text text-anchor="middle" x="264" y="-335.08" font-family="Helvetica,sans-Serif" font-size="14.00">19</text>
</g>
<!-- 4574310864 -->
<g id="node2" class="node">
<title>4574310864</title>
<ellipse fill="lightblue" stroke="black" cx="182" cy="-275.18" rx="18" ry="18"/>
<text text-anchor="middle" x="182" y="-271.48" font-family="Helvetica,sans-Serif" font-size="14.00">9</text>
</g>
<!-- 4574312352&#45;&gt;4574310864 -->
<g id="edge1" class="edge">
<title>4574312352&#45;&gt;4574310864</title>
<path fill="none" stroke="black" d="M247.8,-325.61C234.09,-315.32 214.47,-300.57 200.22,-289.87"/>
<polygon fill="black" stroke="black" points="201.03,-288.29 195.98,-286.69 198.93,-291.09 201.03,-288.29"/>
</g>
<!-- 847674 -->
<!-- 4574312352&#45;&gt;847674 -->
<!-- 4574311152 -->
<g id="node4" class="node">
<title>4574311152</title>
<ellipse fill="lightblue" stroke="black" cx="349" cy="-275.18" rx="20.6" ry="20.6"/>
<text text-anchor="middle" x="349" y="-271.48" font-family="Helvetica,sans-Serif" font-size="14.00">22</text>
</g>
<!-- 4574312352&#45;&gt;4574311152 -->
<g id="edge3" class="edge">
<title>4574312352&#45;&gt;4574311152</title>
<path fill="none" stroke="black" d="M280.39,-325.9C293.94,-316.08 313.28,-302.07 327.97,-291.42"/>
<polygon fill="black" stroke="black" points="329.35,-292.58 332.37,-288.23 327.3,-289.75 329.35,-292.58"/>
</g>
<!-- 4574300496 -->
<g id="node5" class="node">
<title>4574300496</title>
<ellipse fill="lightblue" stroke="black" cx="66" cy="-211.59" rx="18" ry="18"/>
<text text-anchor="middle" x="66" y="-207.89" font-family="Helvetica,sans-Serif" font-size="14.00">3</text>
</g>
<!-- 4574310864&#45;&gt;4574300496 -->
<g id="edge4" class="edge">
<title>4574310864&#45;&gt;4574300496</title>
<path fill="none" stroke="black" d="M166.36,-265.88C145.69,-254.9 109.24,-235.55 86.42,-223.43"/>
<polygon fill="black" stroke="black" points="87,-221.76 81.77,-220.96 85.36,-224.85 87,-221.76"/>
</g>
<!-- 558414 -->
<!-- 4574310864&#45;&gt;558414 -->
<!-- 4574310288 -->
<g id="node7" class="node">
<title>4574310288</title>
<ellipse fill="lightblue" stroke="black" cx="232" cy="-211.59" rx="20.6" ry="20.6"/>
<text text-anchor="middle" x="232" y="-207.89" font-family="Helvetica,sans-Serif" font-size="14.00">13</text>
</g>
<!-- 4574310864&#45;&gt;4574310288 -->
<g id="edge6" class="edge">
<title>4574310864&#45;&gt;4574310288</title>
<path fill="none" stroke="black" d="M192.85,-260.82C199.52,-252.59 208.21,-241.9 215.7,-232.67"/>
<polygon fill="black" stroke="black" points="217.25,-233.53 219.04,-228.55 214.53,-231.33 217.25,-233.53"/>
</g>
<!-- 490426 -->
<!-- 4574311152&#45;&gt;490426 -->
<!-- 962394 -->
<!-- 4574311152&#45;&gt;962394 -->
<!-- 4574311296 -->
<g id="node22" class="node">
<title>4574311296</title>
<ellipse fill="lightblue" stroke="black" cx="399" cy="-211.59" rx="20.6" ry="20.6"/>
<text text-anchor="middle" x="399" y="-207.89" font-family="Helvetica,sans-Serif" font-size="14.00">23</text>
</g>
<!-- 4574311152&#45;&gt;4574311296 -->
<g id="edge21" class="edge">
<title>4574311152&#45;&gt;4574311296</title>
<path fill="none" stroke="black" d="M361.62,-258.64C368.08,-250.68 376.02,-240.89 382.92,-232.39"/>
<polygon fill="black" stroke="black" points="384.42,-233.32 386.21,-228.34 381.7,-231.12 384.42,-233.32"/>
</g>
<!-- 4574311344 -->
<g id="node8" class="node">
<title>4574311344</title>
<ellipse fill="lightblue" stroke="black" cx="18" cy="-147.99" rx="18" ry="18"/>
<text text-anchor="middle" x="18" y="-144.29" font-family="Helvetica,sans-Serif" font-size="14.00">2</text>
</g>
<!-- 4574300496&#45;&gt;4574311344 -->
<g id="edge7" class="edge">
<title>4574300496&#45;&gt;4574311344</title>
<path fill="none" stroke="black" d="M55.35,-196.92C48.39,-187.99 39.23,-176.24 31.73,-166.61"/>
<polygon fill="black" stroke="black" points="33.08,-165.49 28.62,-162.62 30.32,-167.64 33.08,-165.49"/>
</g>
<!-- 483692 -->
<!-- 4574300496&#45;&gt;483692 -->
<!-- 4574306592 -->
<g id="node10" class="node">
<title>4574306592</title>
<ellipse fill="lightblue" stroke="black" cx="114" cy="-147.99" rx="18" ry="18"/>
<text text-anchor="middle" x="114" y="-144.29" font-family="Helvetica,sans-Serif" font-size="14.00">6</text>
</g>
<!-- 4574300496&#45;&gt;4574306592 -->
<g id="edge9" class="edge">
<title>4574300496&#45;&gt;4574306592</title>
<path fill="none" stroke="black" d="M76.65,-196.92C83.61,-187.99 92.77,-176.24 100.27,-166.61"/>
<polygon fill="black" stroke="black" points="101.68,-167.64 103.38,-162.62 98.92,-165.49 101.68,-167.64"/>
</g>
<!-- 4574314272 -->
<g id="node11" class="node">
<title>4574314272</title>
<ellipse fill="lightblue" stroke="black" cx="182" cy="-147.99" rx="20.6" ry="20.6"/>
<text text-anchor="middle" x="182" y="-144.29" font-family="Helvetica,sans-Serif" font-size="14.00">10</text>
</g>
<!-- 4574310288&#45;&gt;4574314272 -->
<g id="edge10" class="edge">
<title>4574310288&#45;&gt;4574314272</title>
<path fill="none" stroke="black" d="M219.38,-195.04C212.92,-187.08 204.98,-177.3 198.08,-168.8"/>
<polygon fill="black" stroke="black" points="199.3,-167.52 194.79,-164.74 196.58,-169.73 199.3,-167.52"/>
</g>
<!-- 187589 -->
<!-- 4574310288&#45;&gt;187589 -->
<!-- 4574311776 -->
<g id="node13" class="node">
<title>4574311776</title>
<ellipse fill="lightblue" stroke="black" cx="282" cy="-147.99" rx="20.6" ry="20.6"/>
<text text-anchor="middle" x="282" y="-144.29" font-family="Helvetica,sans-Serif" font-size="14.00">14</text>
</g>
<!-- 4574310288&#45;&gt;4574311776 -->
<g id="edge12" class="edge">
<title>4574310288&#45;&gt;4574311776</title>
<path fill="none" stroke="black" d="M244.62,-195.04C251.08,-187.08 259.02,-177.3 265.92,-168.8"/>
<polygon fill="black" stroke="black" points="267.42,-169.73 269.21,-164.74 264.7,-167.52 267.42,-169.73"/>
</g>
<!-- 625037 -->
<!-- 4574311776&#45;&gt;625037 -->
<!-- 781349 -->
<!-- 4574311776&#45;&gt;781349 -->
<!-- 4574311872 -->
<g id="node16" class="node">
<title>4574311872</title>
<ellipse fill="lightblue" stroke="black" cx="332" cy="-84.39" rx="20.6" ry="20.6"/>
<text text-anchor="middle" x="332" y="-80.69" font-family="Helvetica,sans-Serif" font-size="14.00">16</text>
</g>
<!-- 4574311776&#45;&gt;4574311872 -->
<g id="edge15" class="edge">
<title>4574311776&#45;&gt;4574311872</title>
<path fill="none" stroke="black" d="M294.62,-131.45C301.08,-123.48 309.02,-113.7 315.92,-105.2"/>
<polygon fill="black" stroke="black" points="317.42,-106.13 319.21,-101.15 314.7,-103.93 317.42,-106.13"/>
</g>
<!-- 687350 -->
<!-- 4574311872&#45;&gt;687350 -->
<!-- 366077 -->
<!-- 4574311872&#45;&gt;366077 -->
<!-- 4574312640 -->
<g id="node19" class="node">
<title>4574312640</title>
<ellipse fill="lightblue" stroke="black" cx="382" cy="-20.8" rx="20.6" ry="20.6"/>
<text text-anchor="middle" x="382" y="-17.1" font-family="Helvetica,sans-Serif" font-size="14.00">18</text>
</g>
<!-- 4574311872&#45;&gt;4574312640 -->
<g id="edge18" class="edge">
<title>4574311872&#45;&gt;4574312640</title>
<path fill="none" stroke="black" d="M344.62,-67.85C351.08,-59.89 359.02,-50.1 365.92,-41.61"/>
<polygon fill="black" stroke="black" points="367.42,-42.54 369.21,-37.55 364.7,-40.33 367.42,-42.54"/>
</g>
<!-- 750541 -->
<!-- 4574311296&#45;&gt;750541 -->
<!-- 50935 -->
<!-- 4574311296&#45;&gt;50935 -->
<!-- 4574310912 -->
<g id="node25" class="node">
<title>4574310912</title>
<ellipse fill="lightblue" stroke="black" cx="450" cy="-147.99" rx="20.6" ry="20.6"/>
<text text-anchor="middle" x="450" y="-144.29" font-family="Helvetica,sans-Serif" font-size="14.00">25</text>
</g>
<!-- 4574311296&#45;&gt;4574310912 -->
<g id="edge24" class="edge">
<title>4574311296&#45;&gt;4574310912</title>
<path fill="none" stroke="black" d="M411.87,-195.04C418.46,-187.08 426.56,-177.3 433.6,-168.8"/>
<polygon fill="black" stroke="black" points="435.12,-169.71 436.96,-164.74 432.42,-167.48 435.12,-169.71"/>
</g>
<!-- 828201 -->
<!-- 4574310912&#45;&gt;828201 -->
<!-- 936157 -->
<!-- 4574310912&#45;&gt;936157 -->
<!-- 4574311584 -->
<g id="node28" class="node">
<title>4574311584</title>
<ellipse fill="lightblue" stroke="black" cx="503" cy="-84.39" rx="20.6" ry="20.6"/>
<text text-anchor="middle" x="503" y="-80.69" font-family="Helvetica,sans-Serif" font-size="14.00">28</text>
</g>
<!-- 4574310912&#45;&gt;4574311584 -->
<g id="edge27" class="edge">
<title>4574310912&#45;&gt;4574311584</title>
<path fill="none" stroke="black" d="M463.1,-131.76C470.06,-123.68 478.68,-113.66 486.13,-105"/>
<polygon fill="black" stroke="black" points="487.75,-105.8 489.68,-100.87 485.09,-103.52 487.75,-105.8"/>
</g>
<!-- 4574307408 -->
<g id="node29" class="node">
<title>4574307408</title>
<ellipse fill="lightblue" stroke="black" cx="453" cy="-20.8" rx="20.6" ry="20.6"/>
<text text-anchor="middle" x="453" y="-17.1" font-family="Helvetica,sans-Serif" font-size="14.00">27</text>
</g>
<!-- 4574311584&#45;&gt;4574307408 -->
<g id="edge28" class="edge">
<title>4574311584&#45;&gt;4574307408</title>
<path fill="none" stroke="black" d="M490.38,-67.85C483.92,-59.89 475.98,-50.1 469.08,-41.61"/>
<polygon fill="black" stroke="black" points="470.3,-40.33 465.79,-37.55 467.58,-42.54 470.3,-40.33"/>
</g>
<!-- 339112 -->
<!-- 4574311584&#45;&gt;339112 -->
<!-- 379725 -->
<!-- 4574311584&#45;&gt;379725 -->
</g>
</svg>
