<?xml version="1.0" encoding="UTF-8" standalone="no"?>
<!DOCTYPE svg PUBLIC "-//W3C//DTD SVG 1.1//EN"
 "http://www.w3.org/Graphics/SVG/1.1/DTD/svg11.dtd">
<!-- Generated by graphviz version 2.50.0 (0)
 -->
<!-- Pages: 1 -->
<svg width="375pt" height="319pt"
 viewBox="0.00 0.00 375.20 319.18" xmlns="http://www.w3.org/2000/svg" xmlns:xlink="http://www.w3.org/1999/xlink">
<g id="graph0" class="graph" transform="scale(1 1) rotate(0) translate(4 315.18)">
<polygon fill="white" stroke="transparent" points="-4,4 -4,-315.18 371.2,-315.18 371.2,4 -4,4"/>
<!-- 4628150608 -->
<g id="node1" class="node">
<title>4628150608</title>
<ellipse fill="lightblue" stroke="black" cx="166.4" cy="-287.79" rx="23.3" ry="23.3"/>
<text text-anchor="middle" x="166.4" y="-284.09" font-family="Helvetica,sans-Serif" font-size="14.00">&#45;18</text>
</g>
<!-- 668788 -->
<!-- 4628150608&#45;&gt;668788 -->
<!-- 105757 -->
<!-- 4628150608&#45;&gt;105757 -->
<!-- 4628147296 -->
<g id="node4" class="node">
<title>4628147296</title>
<ellipse fill="lightblue" stroke="black" cx="214.4" cy="-224.39" rx="18" ry="18"/>
<text text-anchor="middle" x="214.4" y="-220.69" font-family="Helvetica,sans-Serif" font-size="14.00">2</text>
</g>
<!-- 4628150608&#45;&gt;4628147296 -->
<g id="edge3" class="edge">
<title>4628150608&#45;&gt;4628147296</title>
<path fill="none" stroke="black" d="M180.54,-268.7C186.79,-260.7 194.13,-251.32 200.37,-243.33"/>
<polygon fill="black" stroke="black" points="202.01,-244.08 203.71,-239.06 199.25,-241.92 202.01,-244.08"/>
</g>
<!-- 4628139472 -->
<g id="node5" class="node">
<title>4628139472</title>
<ellipse fill="lightblue" stroke="black" cx="129.4" cy="-160.99" rx="23.3" ry="23.3"/>
<text text-anchor="middle" x="129.4" y="-157.29" font-family="Helvetica,sans-Serif" font-size="14.00">&#45;10</text>
</g>
<!-- 4628147296&#45;&gt;4628139472 -->
<g id="edge4" class="edge">
<title>4628147296&#45;&gt;4628139472</title>
<path fill="none" stroke="black" d="M199.98,-212.97C186.9,-203.53 167.41,-189.45 152.22,-178.48"/>
<polygon fill="black" stroke="black" points="153.14,-176.98 148.06,-175.47 151.09,-179.82 153.14,-176.98"/>
</g>
<!-- 952766 -->
<!-- 4628147296&#45;&gt;952766 -->
<!-- 4628139760 -->
<g id="node7" class="node">
<title>4628139760</title>
<ellipse fill="lightblue" stroke="black" cx="296.4" cy="-160.99" rx="20.6" ry="20.6"/>
<text text-anchor="middle" x="296.4" y="-157.29" font-family="Helvetica,sans-Serif" font-size="14.00">14</text>
</g>
<!-- 4628147296&#45;&gt;4628139760 -->
<g id="edge6" class="edge">
<title>4628147296&#45;&gt;4628139760</title>
<path fill="none" stroke="black" d="M228.68,-212.69C241.77,-202.89 261.28,-188.28 276.01,-177.26"/>
<polygon fill="black" stroke="black" points="277.07,-178.65 280.03,-174.25 274.97,-175.84 277.07,-178.65"/>
</g>
<!-- 4628152096 -->
<g id="node8" class="node">
<title>4628152096</title>
<ellipse fill="lightblue" stroke="black" cx="76.4" cy="-92.19" rx="23.3" ry="23.3"/>
<text text-anchor="middle" x="76.4" y="-88.49" font-family="Helvetica,sans-Serif" font-size="14.00">&#45;13</text>
</g>
<!-- 4628139472&#45;&gt;4628152096 -->
<g id="edge7" class="edge">
<title>4628139472&#45;&gt;4628152096</title>
<path fill="none" stroke="black" d="M115.19,-142.09C108.66,-133.85 100.84,-124 93.94,-115.31"/>
<polygon fill="black" stroke="black" points="95.12,-113.97 90.64,-111.14 92.38,-116.15 95.12,-113.97"/>
</g>
<!-- 916498 -->
<!-- 4628139472&#45;&gt;916498 -->
<!-- 4628141008 -->
<g id="node10" class="node">
<title>4628141008</title>
<ellipse fill="lightblue" stroke="black" cx="177.4" cy="-92.19" rx="18.7" ry="18.7"/>
<text text-anchor="middle" x="177.4" y="-88.49" font-family="Helvetica,sans-Serif" font-size="14.00">&#45;3</text>
</g>
<!-- 4628139472&#45;&gt;4628141008 -->
<g id="edge9" class="edge">
<title>4628139472&#45;&gt;4628141008</title>
<path fill="none" stroke="black" d="M142.77,-141.38C149.25,-132.36 157.03,-121.53 163.58,-112.43"/>
<polygon fill="black" stroke="black" points="165.18,-113.19 166.68,-108.11 162.34,-111.15 165.18,-113.19"/>
</g>
<!-- 4628148352 -->
<g id="node14" class="node">
<title>4628148352</title>
<ellipse fill="lightblue" stroke="black" cx="246.4" cy="-92.19" rx="20.6" ry="20.6"/>
<text text-anchor="middle" x="246.4" y="-88.49" font-family="Helvetica,sans-Serif" font-size="14.00">10</text>
</g>
<!-- 4628139760&#45;&gt;4628148352 -->
<g id="edge13" class="edge">
<title>4628139760&#45;&gt;4628148352</title>
<path fill="none" stroke="black" d="M284.29,-143.82C277.42,-134.63 268.74,-123.05 261.43,-113.28"/>
<polygon fill="black" stroke="black" points="262.79,-112.17 258.39,-109.21 259.99,-114.27 262.79,-112.17"/>
</g>
<!-- 170777 -->
<!-- 4628139760&#45;&gt;170777 -->
<!-- 4628137936 -->
<g id="node16" class="node">
<title>4628137936</title>
<ellipse fill="lightblue" stroke="black" cx="346.4" cy="-92.19" rx="20.6" ry="20.6"/>
<text text-anchor="middle" x="346.4" y="-88.49" font-family="Helvetica,sans-Serif" font-size="14.00">16</text>
</g>
<!-- 4628139760&#45;&gt;4628137936 -->
<g id="edge15" class="edge">
<title>4628139760&#45;&gt;4628137936</title>
<path fill="none" stroke="black" d="M308.5,-143.82C315.38,-134.63 324.05,-123.05 331.36,-113.28"/>
<polygon fill="black" stroke="black" points="332.81,-114.27 334.41,-109.21 330.01,-112.17 332.81,-114.27"/>
</g>
<!-- 4628148112 -->
<g id="node11" class="node">
<title>4628148112</title>
<ellipse fill="lightblue" stroke="black" cx="23.4" cy="-23.4" rx="23.3" ry="23.3"/>
<text text-anchor="middle" x="23.4" y="-19.7" font-family="Helvetica,sans-Serif" font-size="14.00">&#45;15</text>
</g>
<!-- 4628152096&#45;&gt;4628148112 -->
<g id="edge10" class="edge">
<title>4628152096&#45;&gt;4628148112</title>
<path fill="none" stroke="black" d="M62.19,-73.29C55.66,-65.06 47.84,-55.21 40.94,-46.51"/>
<polygon fill="black" stroke="black" points="42.12,-45.18 37.64,-42.35 39.38,-47.35 42.12,-45.18"/>
</g>
<!-- 39844 -->
<!-- 4628152096&#45;&gt;39844 -->
<!-- 350622 -->
<!-- 4628152096&#45;&gt;350622 -->
<!-- 970438 -->
<!-- 4628148352&#45;&gt;970438 -->
<!-- 368311 -->
<!-- 4628148352&#45;&gt;368311 -->
<!-- 4628142592 -->
<g id="node19" class="node">
<title>4628142592</title>
<ellipse fill="lightblue" stroke="black" cx="296.4" cy="-23.4" rx="20.6" ry="20.6"/>
<text text-anchor="middle" x="296.4" y="-19.7" font-family="Helvetica,sans-Serif" font-size="14.00">11</text>
</g>
<!-- 4628148352&#45;&gt;4628142592 -->
<g id="edge18" class="edge">
<title>4628148352&#45;&gt;4628142592</title>
<path fill="none" stroke="black" d="M258.5,-75.02C265.38,-65.84 274.05,-54.25 281.36,-44.48"/>
<polygon fill="black" stroke="black" points="282.81,-45.47 284.41,-40.42 280.01,-43.37 282.81,-45.47"/>
</g>
</g>
</svg>
