<?xml version="1.0" encoding="UTF-8" standalone="no"?>
<!DOCTYPE svg PUBLIC "-//W3C//DTD SVG 1.1//EN"
 "http://www.w3.org/Graphics/SVG/1.1/DTD/svg11.dtd">
<!-- Generated by graphviz version 2.50.0 (0)
 -->
<!-- Pages: 1 -->
<svg width="249pt" height="449pt"
 viewBox="0.00 0.00 249.40 449.37" xmlns="http://www.w3.org/2000/svg" xmlns:xlink="http://www.w3.org/1999/xlink">
<g id="graph0" class="graph" transform="scale(1 1) rotate(0) translate(4 445.37)">
<polygon fill="white" stroke="transparent" points="-4,4 -4,-445.37 245.4,-445.37 245.4,4 -4,4"/>
<!-- 4628141488 -->
<g id="node1" class="node">
<title>4628141488</title>
<ellipse fill="lightblue" stroke="black" cx="125.4" cy="-417.97" rx="23.3" ry="23.3"/>
<text text-anchor="middle" x="125.4" y="-414.27" font-family="Helvetica,sans-Serif" font-size="14.00">&#45;19</text>
</g>
<!-- 4628147632 -->
<g id="node2" class="node">
<title>4628147632</title>
<ellipse fill="lightblue" stroke="black" cx="72.4" cy="-349.18" rx="23.3" ry="23.3"/>
<text text-anchor="middle" x="72.4" y="-345.48" font-family="Helvetica,sans-Serif" font-size="14.00">&#45;20</text>
</g>
<!-- 4628141488&#45;&gt;4628147632 -->
<g id="edge1" class="edge">
<title>4628141488&#45;&gt;4628147632</title>
<path fill="none" stroke="black" d="M111.19,-399.07C104.66,-390.84 96.84,-380.99 89.94,-372.29"/>
<polygon fill="black" stroke="black" points="91.12,-370.96 86.64,-368.13 88.38,-373.13 91.12,-370.96"/>
</g>
<!-- 595131 -->
<!-- 4628141488&#45;&gt;595131 -->
<!-- 4628148016 -->
<g id="node4" class="node">
<title>4628148016</title>
<ellipse fill="lightblue" stroke="black" cx="175.4" cy="-349.18" rx="20.6" ry="20.6"/>
<text text-anchor="middle" x="175.4" y="-345.48" font-family="Helvetica,sans-Serif" font-size="14.00">18</text>
</g>
<!-- 4628141488&#45;&gt;4628148016 -->
<g id="edge3" class="edge">
<title>4628141488&#45;&gt;4628148016</title>
<path fill="none" stroke="black" d="M139.06,-398.72C145.52,-390.09 153.26,-379.75 159.94,-370.83"/>
<polygon fill="black" stroke="black" points="161.52,-371.63 163.12,-366.58 158.72,-369.54 161.52,-371.63"/>
</g>
<!-- 4628141152 -->
<g id="node5" class="node">
<title>4628141152</title>
<ellipse fill="lightblue" stroke="black" cx="122.4" cy="-280.38" rx="23.3" ry="23.3"/>
<text text-anchor="middle" x="122.4" y="-276.68" font-family="Helvetica,sans-Serif" font-size="14.00">&#45;12</text>
</g>
<!-- 4628148016&#45;&gt;4628141152 -->
<g id="edge4" class="edge">
<title>4628148016&#45;&gt;4628141152</title>
<path fill="none" stroke="black" d="M162.84,-332.35C155.98,-323.71 147.38,-312.87 139.88,-303.42"/>
<polygon fill="black" stroke="black" points="141.22,-302.29 136.74,-299.46 138.48,-304.46 141.22,-302.29"/>
</g>
<!-- 544669 -->
<!-- 4628148016&#45;&gt;544669 -->
<!-- 873731 -->
<!-- 4628148016&#45;&gt;873731 -->
<!-- 4628151328 -->
<g id="node8" class="node">
<title>4628151328</title>
<ellipse fill="lightblue" stroke="black" cx="69.4" cy="-211.59" rx="23.3" ry="23.3"/>
<text text-anchor="middle" x="69.4" y="-207.89" font-family="Helvetica,sans-Serif" font-size="14.00">&#45;14</text>
</g>
<!-- 4628141152&#45;&gt;4628151328 -->
<g id="edge7" class="edge">
<title>4628141152&#45;&gt;4628151328</title>
<path fill="none" stroke="black" d="M108.19,-261.48C101.66,-253.25 93.84,-243.4 86.94,-234.7"/>
<polygon fill="black" stroke="black" points="88.12,-233.37 83.64,-230.54 85.38,-235.54 88.12,-233.37"/>
</g>
<!-- 51463 -->
<!-- 4628141152&#45;&gt;51463 -->
<!-- 4628138032 -->
<g id="node10" class="node">
<title>4628138032</title>
<ellipse fill="lightblue" stroke="black" cx="172.4" cy="-211.59" rx="20.6" ry="20.6"/>
<text text-anchor="middle" x="172.4" y="-207.89" font-family="Helvetica,sans-Serif" font-size="14.00">16</text>
</g>
<!-- 4628141152&#45;&gt;4628138032 -->
<g id="edge9" class="edge">
<title>4628141152&#45;&gt;4628138032</title>
<path fill="none" stroke="black" d="M136.06,-261.13C142.52,-252.5 150.26,-242.16 156.94,-233.24"/>
<polygon fill="black" stroke="black" points="158.52,-234.04 160.12,-228.99 155.72,-231.95 158.52,-234.04"/>
</g>
<!-- 4628140912 -->
<g id="node11" class="node">
<title>4628140912</title>
<ellipse fill="lightblue" stroke="black" cx="124.4" cy="-147.34" rx="18.7" ry="18.7"/>
<text text-anchor="middle" x="124.4" y="-143.64" font-family="Helvetica,sans-Serif" font-size="14.00">&#45;1</text>
</g>
<!-- 4628138032&#45;&gt;4628140912 -->
<g id="edge10" class="edge">
<title>4628138032&#45;&gt;4628140912</title>
<path fill="none" stroke="black" d="M160.04,-194.56C153.54,-186.14 145.55,-175.77 138.78,-166.99"/>
<polygon fill="black" stroke="black" points="140.01,-165.72 135.57,-162.83 137.24,-167.85 140.01,-165.72"/>
</g>
<!-- 303589 -->
<!-- 4628138032&#45;&gt;303589 -->
<!-- 84397 -->
<!-- 4628138032&#45;&gt;84397 -->
<!-- 4628144704 -->
<g id="node14" class="node">
<title>4628144704</title>
<ellipse fill="lightblue" stroke="black" cx="76.4" cy="-87.64" rx="18.7" ry="18.7"/>
<text text-anchor="middle" x="76.4" y="-83.94" font-family="Helvetica,sans-Serif" font-size="14.00">&#45;8</text>
</g>
<!-- 4628140912&#45;&gt;4628144704 -->
<g id="edge13" class="edge">
<title>4628140912&#45;&gt;4628144704</title>
<path fill="none" stroke="black" d="M112.78,-132.37C106.39,-124.69 98.39,-115.07 91.51,-106.81"/>
<polygon fill="black" stroke="black" points="92.79,-105.61 88.24,-102.88 90.1,-107.85 92.79,-105.61"/>
</g>
<!-- 456922 -->
<!-- 4628140912&#45;&gt;456922 -->
<!-- 4628141296 -->
<g id="node16" class="node">
<title>4628141296</title>
<ellipse fill="lightblue" stroke="black" cx="172.4" cy="-87.64" rx="18" ry="18"/>
<text text-anchor="middle" x="172.4" y="-83.94" font-family="Helvetica,sans-Serif" font-size="14.00">0</text>
</g>
<!-- 4628140912&#45;&gt;4628141296 -->
<g id="edge15" class="edge">
<title>4628140912&#45;&gt;4628141296</title>
<path fill="none" stroke="black" d="M136.02,-132.37C142.6,-124.46 150.89,-114.5 157.89,-106.08"/>
<polygon fill="black" stroke="black" points="159.36,-107.05 161.22,-102.09 156.67,-104.81 159.36,-107.05"/>
</g>
<!-- 4628149552 -->
<g id="node17" class="node">
<title>4628149552</title>
<ellipse fill="lightblue" stroke="black" cx="23.4" cy="-23.4" rx="23.3" ry="23.3"/>
<text text-anchor="middle" x="23.4" y="-19.7" font-family="Helvetica,sans-Serif" font-size="14.00">&#45;10</text>
</g>
<!-- 4628144704&#45;&gt;4628149552 -->
<g id="edge16" class="edge">
<title>4628144704&#45;&gt;4628149552</title>
<path fill="none" stroke="black" d="M64.64,-72.83C57.93,-64.95 49.37,-54.9 41.79,-46"/>
<polygon fill="black" stroke="black" points="42.74,-44.41 38.16,-41.74 40.07,-46.68 42.74,-44.41"/>
</g>
<!-- 391960 -->
<!-- 4628144704&#45;&gt;391960 -->
<!-- 450039 -->
<!-- 4628144704&#45;&gt;450039 -->
</g>
</svg>
