<?xml version="1.0" encoding="UTF-8" standalone="no"?>
<!DOCTYPE svg PUBLIC "-//W3C//DTD SVG 1.1//EN"
 "http://www.w3.org/Graphics/SVG/1.1/DTD/svg11.dtd">
<!-- Generated by graphviz version 2.50.0 (0)
 -->
<!-- Pages: 1 -->
<svg width="384pt" height="45pt"
 viewBox="0.00 0.00 384.00 45.00" xmlns="http://www.w3.org/2000/svg" xmlns:xlink="http://www.w3.org/1999/xlink">
<g id="graph0" class="graph" transform="scale(1 1) rotate(0) translate(4 41)">
<polygon fill="white" stroke="transparent" points="-4,4 -4,-41 380,-41 380,4 -4,4"/>
<!-- 2981545380992 -->
<g id="node1" class="node">
<title>2981545380992</title>
<polygon fill="none" stroke="black" points="0,-0.5 0,-36.5 63,-36.5 63,-0.5 0,-0.5"/>
<text text-anchor="middle" x="21.5" y="-14.8" font-family="Times New Roman,serif" font-size="14.00">Dina</text>
<polyline fill="none" stroke="black" points="43,-0.5 43,-36.5 "/>
<text text-anchor="middle" x="53" y="-14.8" font-family="Times New Roman,serif" font-size="14.00"> </text>
</g>
<!-- 2981546539968 -->
<g id="node2" class="node">
<title>2981546539968</title>
<polygon fill="none" stroke="black" points="99,-0.5 99,-36.5 164,-36.5 164,-0.5 99,-0.5"/>
<text text-anchor="middle" x="121.5" y="-14.8" font-family="Times New Roman,serif" font-size="14.00">Coco</text>
<polyline fill="none" stroke="black" points="144,-0.5 144,-36.5 "/>
<text text-anchor="middle" x="154" y="-14.8" font-family="Times New Roman,serif" font-size="14.00"> </text>
</g>
<!-- 2981545380992&#45;&gt;2981546539968 -->
<g id="edge1" class="edge">
<title>2981545380992:c&#45;&gt;2981546539968</title>
<path fill="none" stroke="black" d="M61.56,-18.5C68.19,-18.5 78.15,-18.5 88.44,-18.5"/>
<ellipse fill="black" stroke="black" cx="57.5" cy="-18.5" rx="4" ry="4"/>
<polygon fill="black" stroke="black" points="88.74,-22 98.74,-18.5 88.74,-15 88.74,-22"/>
</g>
<!-- 2981546539840 -->
<g id="node3" class="node">
<title>2981546539840</title>
<polygon fill="none" stroke="black" points="200,-0.5 200,-36.5 260,-36.5 260,-0.5 200,-0.5"/>
<text text-anchor="middle" x="220" y="-14.8" font-family="Times New Roman,serif" font-size="14.00">Bibi</text>
<polyline fill="none" stroke="black" points="240,-0.5 240,-36.5 "/>
<text text-anchor="middle" x="250" y="-14.8" font-family="Times New Roman,serif" font-size="14.00"> </text>
</g>
<!-- 2981546539968&#45;&gt;2981546539840 -->
<g id="edge2" class="edge">
<title>2981546539968:c&#45;&gt;2981546539840</title>
<path fill="none" stroke="black" d="M162.71,-18.5C169.44,-18.5 179.5,-18.5 189.77,-18.5"/>
<ellipse fill="black" stroke="black" cx="158.5" cy="-18.5" rx="4" ry="4"/>
<polygon fill="black" stroke="black" points="189.98,-22 199.98,-18.5 189.98,-15 189.98,-22"/>
</g>
<!-- 2981564527744 -->
<g id="node4" class="node">
<title>2981564527744</title>
<polygon fill="none" stroke="black" points="296,-0.5 296,-36.5 376,-36.5 376,-0.5 296,-0.5"/>
<text text-anchor="middle" x="319" y="-14.8" font-family="Times New Roman,serif" font-size="14.00">Anna</text>
<polyline fill="none" stroke="black" points="342,-0.5 342,-36.5 "/>
<text text-anchor="middle" x="359" y="-14.8" font-family="Times New Roman,serif" font-size="14.00">╳</text>
</g>
<!-- 2981546539840&#45;&gt;2981564527744 -->
<g id="edge3" class="edge">
<title>2981546539840:c&#45;&gt;2981564527744</title>
<path fill="none" stroke="black" d="M258,-18.5C264.76,-18.5 275.04,-18.5 285.91,-18.5"/>
<ellipse fill="black" stroke="black" cx="254" cy="-18.5" rx="4" ry="4"/>
<polygon fill="black" stroke="black" points="285.98,-22 295.98,-18.5 285.98,-15 285.98,-22"/>
</g>
</g>
</svg>
