<?xml version="1.0" encoding="UTF-8" standalone="no"?>
<!DOCTYPE svg PUBLIC "-//W3C//DTD SVG 1.1//EN"
 "http://www.w3.org/Graphics/SVG/1.1/DTD/svg11.dtd">
<!-- Generated by graphviz version 2.50.0 (0)
 -->
<!-- Pages: 1 -->
<svg width="206pt" height="112pt"
 viewBox="0.00 0.00 206.00 112.00" xmlns="http://www.w3.org/2000/svg" xmlns:xlink="http://www.w3.org/1999/xlink">
<g id="graph0" class="graph" transform="scale(1 1) rotate(0) translate(4 108)">
<polygon fill="white" stroke="transparent" points="-4,4 -4,-108 202,-108 202,4 -4,4"/>
<!-- 13840031312 -->
<g id="node1" class="node">
<title>13840031312</title>
<polygon fill="yellowgreen" stroke="black" stroke-width="0" points="126,-104 72,-104 72,-68 126,-68 126,-104"/>
<text text-anchor="middle" x="99" y="-83.8" font-family="Helvetica,sans-Serif" font-size="9.00">Kamera</text>
</g>
<!-- 4451163440 -->
<!-- 13840031312&#45;&gt;4451163440 -->
<g id="edge1" class="edge">
<title>13840031312&#45;&gt;4451163440</title>
<path fill="none" stroke="black" stroke-width="0.5" d="M81.94,-67.7C69.38,-54.97 52.54,-37.89 40.82,-26.01"/>
<polygon fill="black" stroke="black" stroke-width="0.5" points="41.82,-24.53 37.06,-22.2 39.32,-26.99 41.82,-24.53"/>
<text text-anchor="middle" x="74" y="-42.8" font-family="Helvetica,sans-Serif" font-size="9.00">mittel</text>
</g>
<!-- 4748809936 -->
<!-- 13840031312&#45;&gt;4748809936 -->
<g id="edge2" class="edge">
<title>13840031312&#45;&gt;4748809936</title>
<path fill="none" stroke="black" stroke-width="0.5" d="M99,-67.7C99,-55.41 99,-39.07 99,-27.27"/>
<polygon fill="black" stroke="black" stroke-width="0.5" points="100.75,-27.2 99,-22.2 97.25,-27.2 100.75,-27.2"/>
<text text-anchor="middle" x="113.5" y="-42.8" font-family="Helvetica,sans-Serif" font-size="9.00">wichtig</text>
</g>
<!-- 13840032176 -->
<!-- 13840031312&#45;&gt;13840032176 -->
<g id="edge3" class="edge">
<title>13840031312&#45;&gt;13840032176</title>
<path fill="none" stroke="black" stroke-width="0.5" d="M116.06,-67.7C128.62,-54.97 145.46,-37.89 157.18,-26.01"/>
<polygon fill="black" stroke="black" stroke-width="0.5" points="158.68,-26.99 160.94,-22.2 156.18,-24.53 158.68,-26.99"/>
<text text-anchor="middle" x="150.5" y="-42.8" font-family="Helvetica,sans-Serif" font-size="9.00">egal</text>
</g>
</g>
</svg>
