<?xml version="1.0" encoding="UTF-8" standalone="no"?>
<!DOCTYPE svg PUBLIC "-//W3C//DTD SVG 1.1//EN"
 "http://www.w3.org/Graphics/SVG/1.1/DTD/svg11.dtd">
<!-- Generated by graphviz version 2.50.0 (0)
 -->
<!-- Pages: 1 -->
<svg width="239pt" height="160pt"
 viewBox="0.00 0.00 239.00 160.00" xmlns="http://www.w3.org/2000/svg" xmlns:xlink="http://www.w3.org/1999/xlink">
<g id="graph0" class="graph" transform="scale(1 1) rotate(0) translate(4 156)">
<polygon fill="white" stroke="transparent" points="-4,4 -4,-156 235,-156 235,4 -4,4"/>
<!-- 4414140304 -->
<g id="node1" class="node">
<title>4414140304</title>
<ellipse fill="lightblue" stroke="black" cx="115" cy="-134" rx="18" ry="18"/>
<text text-anchor="middle" x="115" y="-130.9" font-family="Helvetica,sans-Serif" font-size="12.00">1</text>
</g>
<!-- 4414134928 -->
<g id="node2" class="node">
<title>4414134928</title>
<ellipse fill="lightblue" stroke="black" cx="83" cy="-76" rx="18" ry="18"/>
<text text-anchor="middle" x="83" y="-72.9" font-family="Helvetica,sans-Serif" font-size="12.00">2</text>
</g>
<!-- 4414140304&#45;&gt;4414134928 -->
<g id="edge1" class="edge">
<title>4414140304&#45;&gt;4414134928</title>
<path fill="none" stroke="black" d="M106.42,-117.99C102.84,-111.72 98.61,-104.32 94.74,-97.55"/>
<polygon fill="black" stroke="black" points="96.4,-96.22 91.6,-92.05 92.75,-98.3 96.4,-96.22"/>
</g>
<!-- 4414136224 -->
<g id="node3" class="node">
<title>4414136224</title>
<ellipse fill="lightblue" stroke="black" cx="148" cy="-76" rx="18" ry="18"/>
<text text-anchor="middle" x="148" y="-72.9" font-family="Helvetica,sans-Serif" font-size="12.00">3</text>
</g>
<!-- 4414140304&#45;&gt;4414136224 -->
<g id="edge2" class="edge">
<title>4414140304&#45;&gt;4414136224</title>
<path fill="none" stroke="black" d="M123.84,-117.99C127.54,-111.72 131.9,-104.32 135.89,-97.55"/>
<polygon fill="black" stroke="black" points="137.9,-98.28 139.13,-92.05 134.28,-96.15 137.9,-98.28"/>
</g>
<!-- 4414137184 -->
<g id="node4" class="node">
<title>4414137184</title>
<ellipse fill="lightblue" stroke="black" cx="18" cy="-18" rx="18" ry="18"/>
<text text-anchor="middle" x="18" y="-14.9" font-family="Helvetica,sans-Serif" font-size="12.00">4</text>
</g>
<!-- 4414134928&#45;&gt;4414137184 -->
<g id="edge3" class="edge">
<title>4414134928&#45;&gt;4414137184</title>
<path fill="none" stroke="black" d="M69.85,-63.67C60.07,-55.24 46.61,-43.65 35.86,-34.39"/>
<polygon fill="black" stroke="black" points="37.05,-32.64 31.13,-30.32 34.31,-35.82 37.05,-32.64"/>
</g>
<!-- 4414140160 -->
<g id="node5" class="node">
<title>4414140160</title>
<ellipse fill="lightblue" stroke="black" cx="83" cy="-18" rx="18" ry="18"/>
<text text-anchor="middle" x="83" y="-14.9" font-family="Helvetica,sans-Serif" font-size="12.00">5</text>
</g>
<!-- 4414134928&#45;&gt;4414140160 -->
<g id="edge4" class="edge">
<title>4414134928&#45;&gt;4414140160</title>
<path fill="none" stroke="black" d="M83,-57.89C83,-52.9 83,-47.36 83,-42.06"/>
<polygon fill="black" stroke="black" points="85.1,-42 83,-36 80.9,-42 85.1,-42"/>
</g>
<!-- 4414137088 -->
<g id="node6" class="node">
<title>4414137088</title>
<ellipse fill="lightblue" stroke="black" cx="148" cy="-18" rx="18" ry="18"/>
<text text-anchor="middle" x="148" y="-14.9" font-family="Helvetica,sans-Serif" font-size="12.00">6</text>
</g>
<!-- 4414136224&#45;&gt;4414137088 -->
<g id="edge5" class="edge">
<title>4414136224&#45;&gt;4414137088</title>
<path fill="none" stroke="black" d="M148,-57.89C148,-52.9 148,-47.36 148,-42.06"/>
<polygon fill="black" stroke="black" points="150.1,-42 148,-36 145.9,-42 150.1,-42"/>
</g>
<!-- 4414129264 -->
<g id="node7" class="node">
<title>4414129264</title>
<ellipse fill="lightblue" stroke="black" cx="213" cy="-18" rx="18" ry="18"/>
<text text-anchor="middle" x="213" y="-14.9" font-family="Helvetica,sans-Serif" font-size="12.00">7</text>
</g>
<!-- 4414136224&#45;&gt;4414129264 -->
<g id="edge6" class="edge">
<title>4414136224&#45;&gt;4414129264</title>
<path fill="none" stroke="black" d="M161.15,-63.67C170.93,-55.24 184.39,-43.65 195.14,-34.39"/>
<polygon fill="black" stroke="black" points="196.69,-35.82 199.87,-30.32 193.95,-32.64 196.69,-35.82"/>
</g>
</g>
</svg>
