<?xml version="1.0" encoding="UTF-8" standalone="no"?>
<!DOCTYPE svg PUBLIC "-//W3C//DTD SVG 1.1//EN"
 "http://www.w3.org/Graphics/SVG/1.1/DTD/svg11.dtd">
<!-- Generated by graphviz version 2.50.0 (0)
 -->
<!-- Pages: 1 -->
<svg width="693pt" height="160pt"
 viewBox="0.00 0.00 693.00 160.00" xmlns="http://www.w3.org/2000/svg" xmlns:xlink="http://www.w3.org/1999/xlink">
<g id="graph0" class="graph" transform="scale(1 1) rotate(0) translate(4 156)">
<polygon fill="white" stroke="transparent" points="-4,4 -4,-156 689,-156 689,4 -4,4"/>
<!-- 4634652704 -->
<g id="node1" class="node">
<title>4634652704</title>
<polygon fill="white" stroke="black" points="374,-152 306,-152 306,-116 374,-116 374,-152"/>
<text text-anchor="middle" x="340" y="-130.9" font-family="Helvetica,sans-Serif" font-size="12.00">Säugetier</text>
</g>
<!-- 4634651792 -->
<g id="node2" class="node">
<title>4634651792</title>
<polygon fill="white" stroke="black" points="179,-94 125,-94 125,-58 179,-58 179,-94"/>
<text text-anchor="middle" x="152" y="-72.9" font-family="Helvetica,sans-Serif" font-size="12.00">Hund</text>
</g>
<!-- 4634652704&#45;&gt;4634651792 -->
<g id="edge1" class="edge">
<title>4634652704&#45;&gt;4634651792</title>
<path fill="none" stroke="black" d="M305.95,-122.86C271.69,-112.65 219.18,-97.01 185.21,-86.89"/>
<polygon fill="black" stroke="black" points="185.44,-84.77 179.09,-85.07 184.24,-88.8 185.44,-84.77"/>
</g>
<!-- 4636197280 -->
<g id="node3" class="node">
<title>4636197280</title>
<polygon fill="white" stroke="black" points="367,-94 313,-94 313,-58 367,-58 367,-94"/>
<text text-anchor="middle" x="340" y="-72.9" font-family="Helvetica,sans-Serif" font-size="12.00">Affe</text>
</g>
<!-- 4634652704&#45;&gt;4636197280 -->
<g id="edge2" class="edge">
<title>4634652704&#45;&gt;4636197280</title>
<path fill="none" stroke="black" d="M340,-115.89C340,-110.9 340,-105.36 340,-100.06"/>
<polygon fill="black" stroke="black" points="342.1,-100 340,-94 337.9,-100 342.1,-100"/>
</g>
<!-- 4636201504 -->
<g id="node4" class="node">
<title>4636201504</title>
<polygon fill="white" stroke="black" points="555,-94 501,-94 501,-58 555,-58 555,-94"/>
<text text-anchor="middle" x="528" y="-72.9" font-family="Helvetica,sans-Serif" font-size="12.00">Katze</text>
</g>
<!-- 4634652704&#45;&gt;4636201504 -->
<g id="edge3" class="edge">
<title>4634652704&#45;&gt;4636201504</title>
<path fill="none" stroke="black" d="M374.05,-122.86C408.31,-112.65 460.82,-97.01 494.79,-86.89"/>
<polygon fill="black" stroke="black" points="495.76,-88.8 500.91,-85.07 494.56,-84.77 495.76,-88.8"/>
</g>
<!-- 4636198384 -->
<g id="node5" class="node">
<title>4636198384</title>
<polygon fill="white" stroke="black" points="54,-36 0,-36 0,0 54,0 54,-36"/>
<text text-anchor="middle" x="27" y="-14.9" font-family="Helvetica,sans-Serif" font-size="12.00">Collie</text>
</g>
<!-- 4634651792&#45;&gt;4636198384 -->
<g id="edge4" class="edge">
<title>4634651792&#45;&gt;4636198384</title>
<path fill="none" stroke="black" d="M124.88,-62.85C105.71,-54.26 79.93,-42.71 59.64,-33.62"/>
<polygon fill="black" stroke="black" points="60.4,-31.66 54.07,-31.13 58.69,-35.5 60.4,-31.66"/>
</g>
<!-- 4636197904 -->
<g id="node6" class="node">
<title>4636197904</title>
<polygon fill="white" stroke="black" points="137,-36 83,-36 83,0 137,0 137,-36"/>
<text text-anchor="middle" x="110" y="-14.9" font-family="Helvetica,sans-Serif" font-size="12.00">Dackel</text>
</g>
<!-- 4634651792&#45;&gt;4636197904 -->
<g id="edge5" class="edge">
<title>4634651792&#45;&gt;4636197904</title>
<path fill="none" stroke="black" d="M139.17,-57.89C135.18,-52.57 130.73,-46.63 126.52,-41.03"/>
<polygon fill="black" stroke="black" points="128.03,-39.54 122.75,-36 124.67,-42.06 128.03,-39.54"/>
</g>
<!-- 4636198240 -->
<g id="node7" class="node">
<title>4636198240</title>
<polygon fill="white" stroke="black" points="220,-36 166,-36 166,0 220,0 220,-36"/>
<text text-anchor="middle" x="193" y="-14.9" font-family="Helvetica,sans-Serif" font-size="12.00">Mops</text>
</g>
<!-- 4634651792&#45;&gt;4636198240 -->
<g id="edge6" class="edge">
<title>4634651792&#45;&gt;4636198240</title>
<path fill="none" stroke="black" d="M164.52,-57.89C168.42,-52.57 172.77,-46.63 176.87,-41.03"/>
<polygon fill="black" stroke="black" points="178.7,-42.08 180.55,-36 175.31,-39.6 178.7,-42.08"/>
</g>
<!-- 4636198000 -->
<g id="node8" class="node">
<title>4636198000</title>
<polygon fill="white" stroke="black" points="332.5,-36 249.5,-36 249.5,0 332.5,0 332.5,-36"/>
<text text-anchor="middle" x="291" y="-14.9" font-family="Helvetica,sans-Serif" font-size="12.00">Schimpanse</text>
</g>
<!-- 4636197280&#45;&gt;4636198000 -->
<g id="edge7" class="edge">
<title>4636197280&#45;&gt;4636198000</title>
<path fill="none" stroke="black" d="M325.03,-57.89C320.28,-52.47 314.97,-46.39 309.97,-40.69"/>
<polygon fill="black" stroke="black" points="311.41,-39.13 305.88,-36 308.25,-41.9 311.41,-39.13"/>
</g>
<!-- 4636199632 -->
<g id="node9" class="node">
<title>4636199632</title>
<polygon fill="white" stroke="black" points="416,-36 362,-36 362,0 416,0 416,-36"/>
<text text-anchor="middle" x="389" y="-14.9" font-family="Helvetica,sans-Serif" font-size="12.00">Gorilla</text>
</g>
<!-- 4636197280&#45;&gt;4636199632 -->
<g id="edge8" class="edge">
<title>4636197280&#45;&gt;4636199632</title>
<path fill="none" stroke="black" d="M354.97,-57.89C359.72,-52.47 365.03,-46.39 370.03,-40.69"/>
<polygon fill="black" stroke="black" points="371.75,-41.9 374.12,-36 368.59,-39.13 371.75,-41.9"/>
</g>
<!-- 4636204000 -->
<g id="node10" class="node">
<title>4636204000</title>
<polygon fill="white" stroke="black" points="519,-36 445,-36 445,0 519,0 519,-36"/>
<text text-anchor="middle" x="482" y="-14.9" font-family="Helvetica,sans-Serif" font-size="12.00">Hauskatze</text>
</g>
<!-- 4636201504&#45;&gt;4636204000 -->
<g id="edge9" class="edge">
<title>4636201504&#45;&gt;4636204000</title>
<path fill="none" stroke="black" d="M513.95,-57.89C509.49,-52.47 504.5,-46.39 499.81,-40.69"/>
<polygon fill="black" stroke="black" points="501.4,-39.3 495.97,-36 498.15,-41.97 501.4,-39.3"/>
</g>
<!-- 4636203952 -->
<g id="node11" class="node">
<title>4636203952</title>
<polygon fill="white" stroke="black" points="602,-36 548,-36 548,0 602,0 602,-36"/>
<text text-anchor="middle" x="575" y="-14.9" font-family="Helvetica,sans-Serif" font-size="12.00">Löwe</text>
</g>
<!-- 4636201504&#45;&gt;4636203952 -->
<g id="edge10" class="edge">
<title>4636201504&#45;&gt;4636203952</title>
<path fill="none" stroke="black" d="M542.36,-57.89C546.91,-52.47 552.01,-46.39 556.8,-40.69"/>
<polygon fill="black" stroke="black" points="558.48,-41.95 560.73,-36 555.27,-39.25 558.48,-41.95"/>
</g>
<!-- 4636204192 -->
<g id="node12" class="node">
<title>4636204192</title>
<polygon fill="white" stroke="black" points="685,-36 631,-36 631,0 685,0 685,-36"/>
<text text-anchor="middle" x="658" y="-14.9" font-family="Helvetica,sans-Serif" font-size="12.00">Tiger</text>
</g>
<!-- 4636201504&#45;&gt;4636204192 -->
<g id="edge11" class="edge">
<title>4636201504&#45;&gt;4636204192</title>
<path fill="none" stroke="black" d="M555.25,-63.26C575.62,-54.49 603.55,-42.45 625.15,-33.15"/>
<polygon fill="black" stroke="black" points="626.1,-35.03 630.78,-30.72 624.44,-31.17 626.1,-35.03"/>
</g>
</g>
</svg>
