<?xml version="1.0" encoding="UTF-8" standalone="no"?>
<!DOCTYPE svg PUBLIC "-//W3C//DTD SVG 1.1//EN"
 "http://www.w3.org/Graphics/SVG/1.1/DTD/svg11.dtd">
<!-- Generated by graphviz version 2.50.0 (0)
 -->
<!-- Pages: 1 -->
<svg width="525pt" height="397pt"
 viewBox="0.00 0.00 525.00 397.49" xmlns="http://www.w3.org/2000/svg" xmlns:xlink="http://www.w3.org/1999/xlink">
<g id="graph0" class="graph" transform="scale(1 1) rotate(0) translate(4 393.49)">
<polygon fill="white" stroke="transparent" points="-4,4 -4,-393.49 521,-393.49 521,4 -4,4"/>
<!-- 4574304048 -->
<g id="node1" class="node">
<title>4574304048</title>
<ellipse fill="lightblue" stroke="black" cx="370" cy="-369.99" rx="19.5" ry="19.5"/>
<text text-anchor="middle" x="370" y="-366.29" font-family="Helvetica,sans-Serif" font-size="14.00">W</text>
</g>
<!-- 4574300976 -->
<g id="node2" class="node">
<title>4574300976</title>
<ellipse fill="lightblue" stroke="black" cx="290" cy="-310.49" rx="18" ry="18"/>
<text text-anchor="middle" x="290" y="-306.79" font-family="Helvetica,sans-Serif" font-size="14.00">V</text>
</g>
<!-- 4574304048&#45;&gt;4574300976 -->
<g id="edge1" class="edge">
<title>4574304048&#45;&gt;4574300976</title>
<path fill="none" stroke="black" d="M354.58,-357.9C341.41,-348.44 322.44,-334.81 308.47,-324.76"/>
<polygon fill="black" stroke="black" points="309.38,-323.27 304.3,-321.77 307.34,-326.11 309.38,-323.27"/>
</g>
<!-- 5215 -->
<!-- 4574304048&#45;&gt;5215 -->
<!-- 4574306064 -->
<g id="node4" class="node">
<title>4574306064</title>
<ellipse fill="lightblue" stroke="black" cx="451" cy="-310.49" rx="18" ry="18"/>
<text text-anchor="middle" x="451" y="-306.79" font-family="Helvetica,sans-Serif" font-size="14.00">Y</text>
</g>
<!-- 4574304048&#45;&gt;4574306064 -->
<g id="edge3" class="edge">
<title>4574304048&#45;&gt;4574306064</title>
<path fill="none" stroke="black" d="M385.62,-357.9C399.03,-348.38 418.39,-334.64 432.57,-324.57"/>
<polygon fill="black" stroke="black" points="433.72,-325.9 436.79,-321.58 431.7,-323.05 433.72,-325.9"/>
</g>
<!-- 4574314416 -->
<g id="node5" class="node">
<title>4574314416</title>
<ellipse fill="lightblue" stroke="black" cx="242" cy="-252.29" rx="18.4" ry="18.4"/>
<text text-anchor="middle" x="242" y="-248.59" font-family="Helvetica,sans-Serif" font-size="14.00">Q</text>
</g>
<!-- 4574300976&#45;&gt;4574314416 -->
<g id="edge4" class="edge">
<title>4574300976&#45;&gt;4574314416</title>
<path fill="none" stroke="black" d="M278.62,-296.17C272.14,-288.58 263.95,-278.99 256.95,-270.8"/>
<polygon fill="black" stroke="black" points="258.21,-269.57 253.63,-266.9 255.54,-271.84 258.21,-269.57"/>
</g>
<!-- 748207 -->
<!-- 4574300976&#45;&gt;748207 -->
<!-- 624299 -->
<!-- 4574300976&#45;&gt;624299 -->
<!-- 4574307648 -->
<g id="node29" class="node">
<title>4574307648</title>
<ellipse fill="lightblue" stroke="black" cx="403" cy="-252.29" rx="18" ry="18"/>
<text text-anchor="middle" x="403" y="-248.59" font-family="Helvetica,sans-Serif" font-size="14.00">X</text>
</g>
<!-- 4574306064&#45;&gt;4574307648 -->
<g id="edge28" class="edge">
<title>4574306064&#45;&gt;4574307648</title>
<path fill="none" stroke="black" d="M439.62,-296.17C433.05,-288.47 424.71,-278.71 417.64,-270.44"/>
<polygon fill="black" stroke="black" points="418.87,-269.18 414.29,-266.51 416.21,-271.45 418.87,-269.18"/>
</g>
<!-- 538697 -->
<!-- 4574306064&#45;&gt;538697 -->
<!-- 377198 -->
<!-- 4574306064&#45;&gt;377198 -->
<!-- 4574300544 -->
<g id="node8" class="node">
<title>4574300544</title>
<ellipse fill="lightblue" stroke="black" cx="194" cy="-194.09" rx="18" ry="18"/>
<text text-anchor="middle" x="194" y="-190.39" font-family="Helvetica,sans-Serif" font-size="14.00">I</text>
</g>
<!-- 4574314416&#45;&gt;4574300544 -->
<g id="edge7" class="edge">
<title>4574314416&#45;&gt;4574300544</title>
<path fill="none" stroke="black" d="M230.62,-237.97C224.05,-230.27 215.71,-220.51 208.64,-212.24"/>
<polygon fill="black" stroke="black" points="209.87,-210.98 205.29,-208.32 207.21,-213.25 209.87,-210.98"/>
</g>
<!-- 162774 -->
<!-- 4574314416&#45;&gt;162774 -->
<!-- 4574339552 -->
<g id="node10" class="node">
<title>4574339552</title>
<ellipse fill="lightblue" stroke="black" cx="290" cy="-194.09" rx="18" ry="18"/>
<text text-anchor="middle" x="290" y="-190.39" font-family="Helvetica,sans-Serif" font-size="14.00">T</text>
</g>
<!-- 4574314416&#45;&gt;4574339552 -->
<g id="edge9" class="edge">
<title>4574314416&#45;&gt;4574339552</title>
<path fill="none" stroke="black" d="M253.38,-237.97C259.95,-230.27 268.29,-220.51 275.36,-212.24"/>
<polygon fill="black" stroke="black" points="276.79,-213.25 278.71,-208.32 274.13,-210.98 276.79,-213.25"/>
</g>
<!-- 4574311152 -->
<g id="node11" class="node">
<title>4574311152</title>
<ellipse fill="lightblue" stroke="black" cx="114" cy="-136.09" rx="18" ry="18"/>
<text text-anchor="middle" x="114" y="-132.39" font-family="Helvetica,sans-Serif" font-size="14.00">D</text>
</g>
<!-- 4574300544&#45;&gt;4574311152 -->
<g id="edge10" class="edge">
<title>4574300544&#45;&gt;4574311152</title>
<path fill="none" stroke="black" d="M179.7,-183.08C166.58,-173.9 147.08,-160.25 132.72,-150.2"/>
<polygon fill="black" stroke="black" points="133.55,-148.64 128.45,-147.21 131.54,-151.51 133.55,-148.64"/>
</g>
<!-- 401547 -->
<!-- 4574300544&#45;&gt;401547 -->
<!-- 4574310624 -->
<g id="node13" class="node">
<title>4574310624</title>
<ellipse fill="lightblue" stroke="black" cx="275" cy="-136.09" rx="18" ry="18"/>
<text text-anchor="middle" x="275" y="-132.39" font-family="Helvetica,sans-Serif" font-size="14.00">L</text>
</g>
<!-- 4574300544&#45;&gt;4574310624 -->
<g id="edge12" class="edge">
<title>4574300544&#45;&gt;4574310624</title>
<path fill="none" stroke="black" d="M208.48,-183.08C221.84,-173.84 241.76,-160.08 256.31,-150.01"/>
<polygon fill="black" stroke="black" points="257.53,-151.3 260.64,-147.02 255.54,-148.42 257.53,-151.3"/>
</g>
<!-- 4574343104 -->
<g id="node14" class="node">
<title>4574343104</title>
<ellipse fill="lightblue" stroke="black" cx="66" cy="-77.25" rx="18" ry="18"/>
<text text-anchor="middle" x="66" y="-73.55" font-family="Helvetica,sans-Serif" font-size="14.00">A</text>
</g>
<!-- 4574311152&#45;&gt;4574343104 -->
<g id="edge13" class="edge">
<title>4574311152&#45;&gt;4574343104</title>
<path fill="none" stroke="black" d="M102.87,-121.91C96.3,-114.13 87.9,-104.19 80.78,-95.76"/>
<polygon fill="black" stroke="black" points="81.97,-94.44 77.41,-91.75 79.29,-96.7 81.97,-94.44"/>
</g>
<!-- 558766 -->
<!-- 4574311152&#45;&gt;558766 -->
<!-- 923114 -->
<!-- 4574311152&#45;&gt;923114 -->
<!-- 4574312112 -->
<g id="node20" class="node">
<title>4574312112</title>
<ellipse fill="lightblue" stroke="black" cx="227" cy="-77.25" rx="18" ry="18"/>
<text text-anchor="middle" x="227" y="-73.55" font-family="Helvetica,sans-Serif" font-size="14.00">J</text>
</g>
<!-- 4574310624&#45;&gt;4574312112 -->
<g id="edge19" class="edge">
<title>4574310624&#45;&gt;4574312112</title>
<path fill="none" stroke="black" d="M263.87,-121.91C257.3,-114.13 248.9,-104.19 241.78,-95.76"/>
<polygon fill="black" stroke="black" points="242.97,-94.44 238.41,-91.75 240.29,-96.7 242.97,-94.44"/>
</g>
<!-- 582023 -->
<!-- 4574310624&#45;&gt;582023 -->
<!-- 4574313168 -->
<g id="node22" class="node">
<title>4574313168</title>
<ellipse fill="lightblue" stroke="black" cx="388" cy="-77.25" rx="18.7" ry="18.7"/>
<text text-anchor="middle" x="388" y="-73.55" font-family="Helvetica,sans-Serif" font-size="14.00">M</text>
</g>
<!-- 4574310624&#45;&gt;4574313168 -->
<g id="edge21" class="edge">
<title>4574310624&#45;&gt;4574313168</title>
<path fill="none" stroke="black" d="M290.71,-127.19C310.53,-117.22 344.68,-100.04 366.79,-88.91"/>
<polygon fill="black" stroke="black" points="367.64,-90.45 371.32,-86.64 366.07,-87.32 367.64,-90.45"/>
</g>
<!-- 629812 -->
<!-- 4574343104&#45;&gt;629812 -->
<!-- 850950 -->
<!-- 4574343104&#45;&gt;850950 -->
<!-- 4574705616 -->
<g id="node19" class="node">
<title>4574705616</title>
<ellipse fill="lightblue" stroke="black" cx="114" cy="-18.2" rx="18" ry="18"/>
<text text-anchor="middle" x="114" y="-14.5" font-family="Helvetica,sans-Serif" font-size="14.00">C</text>
</g>
<!-- 4574343104&#45;&gt;4574705616 -->
<g id="edge18" class="edge">
<title>4574343104&#45;&gt;4574705616</title>
<path fill="none" stroke="black" d="M77.13,-63.01C83.7,-55.21 92.1,-45.23 99.22,-36.77"/>
<polygon fill="black" stroke="black" points="100.71,-37.71 102.59,-32.75 98.04,-35.45 100.71,-37.71"/>
</g>
<!-- 995492 -->
<!-- 4574312112&#45;&gt;995492 -->
<!-- 316282 -->
<!-- 4574312112&#45;&gt;316282 -->
<!-- 4574313984 -->
<g id="node25" class="node">
<title>4574313984</title>
<ellipse fill="lightblue" stroke="black" cx="275" cy="-18.2" rx="18" ry="18"/>
<text text-anchor="middle" x="275" y="-14.5" font-family="Helvetica,sans-Serif" font-size="14.00">K</text>
</g>
<!-- 4574312112&#45;&gt;4574313984 -->
<g id="edge24" class="edge">
<title>4574312112&#45;&gt;4574313984</title>
<path fill="none" stroke="black" d="M238.13,-63.01C244.7,-55.21 253.1,-45.23 260.22,-36.77"/>
<polygon fill="black" stroke="black" points="261.71,-37.71 263.59,-32.75 259.04,-35.45 261.71,-37.71"/>
</g>
<!-- 129127 -->
<!-- 4574313168&#45;&gt;129127 -->
<!-- 681343 -->
<!-- 4574313168&#45;&gt;681343 -->
<!-- 4574309472 -->
<g id="node28" class="node">
<title>4574309472</title>
<ellipse fill="lightblue" stroke="black" cx="436" cy="-18.2" rx="18.4" ry="18.4"/>
<text text-anchor="middle" x="436" y="-14.5" font-family="Helvetica,sans-Serif" font-size="14.00">O</text>
</g>
<!-- 4574313168&#45;&gt;4574309472 -->
<g id="edge27" class="edge">
<title>4574313168&#45;&gt;4574309472</title>
<path fill="none" stroke="black" d="M399.87,-62.14C406.35,-54.43 414.45,-44.81 421.33,-36.63"/>
<polygon fill="black" stroke="black" points="422.72,-37.7 424.6,-32.74 420.04,-35.44 422.72,-37.7"/>
</g>
</g>
</svg>
