<?xml version="1.0" encoding="UTF-8" standalone="no"?>
<!DOCTYPE svg PUBLIC "-//W3C//DTD SVG 1.1//EN"
 "http://www.w3.org/Graphics/SVG/1.1/DTD/svg11.dtd">
<!-- Generated by graphviz version 2.50.0 (0)
 -->
<!-- Pages: 1 -->
<svg width="510pt" height="334pt"
 viewBox="0.00 0.00 510.00 334.40" xmlns="http://www.w3.org/2000/svg" xmlns:xlink="http://www.w3.org/1999/xlink">
<g id="graph0" class="graph" transform="scale(1 1) rotate(0) translate(4 330.4)">
<polygon fill="white" stroke="transparent" points="-4,4 -4,-330.4 506,-330.4 506,4 -4,4"/>
<!-- 4574346608 -->
<g id="node1" class="node">
<title>4574346608</title>
<ellipse fill="lightblue" stroke="black" cx="307" cy="-308.2" rx="18.4" ry="18.4"/>
<text text-anchor="middle" x="307" y="-304.5" font-family="Helvetica,sans-Serif" font-size="14.00">O</text>
</g>
<!-- 4574337104 -->
<g id="node2" class="node">
<title>4574337104</title>
<ellipse fill="lightblue" stroke="black" cx="179" cy="-250" rx="18" ry="18"/>
<text text-anchor="middle" x="179" y="-246.3" font-family="Helvetica,sans-Serif" font-size="14.00">H</text>
</g>
<!-- 4574346608&#45;&gt;4574337104 -->
<g id="edge1" class="edge">
<title>4574346608&#45;&gt;4574337104</title>
<path fill="none" stroke="black" d="M290.53,-299.97C267.49,-289.85 225.62,-271.47 200.25,-260.33"/>
<polygon fill="black" stroke="black" points="200.69,-258.61 195.41,-258.2 199.28,-261.82 200.69,-258.61"/>
</g>
<!-- 663222 -->
<!-- 4574346608&#45;&gt;663222 -->
<!-- 4574333408 -->
<g id="node4" class="node">
<title>4574333408</title>
<ellipse fill="lightblue" stroke="black" cx="436" cy="-250" rx="18" ry="18"/>
<text text-anchor="middle" x="436" y="-246.3" font-family="Helvetica,sans-Serif" font-size="14.00">X</text>
</g>
<!-- 4574346608&#45;&gt;4574333408 -->
<g id="edge3" class="edge">
<title>4574346608&#45;&gt;4574333408</title>
<path fill="none" stroke="black" d="M323.34,-300.08C346.6,-289.95 389.28,-271.35 414.91,-260.19"/>
<polygon fill="black" stroke="black" points="415.91,-261.66 419.79,-258.06 414.51,-258.45 415.91,-261.66"/>
</g>
<!-- 4574300544 -->
<g id="node5" class="node">
<title>4574300544</title>
<ellipse fill="lightblue" stroke="black" cx="66" cy="-192" rx="18" ry="18"/>
<text text-anchor="middle" x="66" y="-188.3" font-family="Helvetica,sans-Serif" font-size="14.00">B</text>
</g>
<!-- 4574337104&#45;&gt;4574300544 -->
<g id="edge4" class="edge">
<title>4574337104&#45;&gt;4574300544</title>
<path fill="none" stroke="black" d="M163.29,-241.21C143.25,-231.28 108.54,-214.08 86.45,-203.14"/>
<polygon fill="black" stroke="black" points="87.2,-201.55 81.94,-200.9 85.65,-204.69 87.2,-201.55"/>
</g>
<!-- 820700 -->
<!-- 4574337104&#45;&gt;820700 -->
<!-- 4574309472 -->
<g id="node7" class="node">
<title>4574309472</title>
<ellipse fill="lightblue" stroke="black" cx="227" cy="-192" rx="18" ry="18"/>
<text text-anchor="middle" x="227" y="-188.3" font-family="Helvetica,sans-Serif" font-size="14.00">K</text>
</g>
<!-- 4574337104&#45;&gt;4574309472 -->
<g id="edge6" class="edge">
<title>4574337104&#45;&gt;4574309472</title>
<path fill="none" stroke="black" d="M190.38,-235.73C196.95,-228.06 205.29,-218.32 212.36,-210.08"/>
<polygon fill="black" stroke="black" points="213.78,-211.11 215.71,-206.18 211.12,-208.83 213.78,-211.11"/>
</g>
<!-- 4574339552 -->
<g id="node20" class="node">
<title>4574339552</title>
<ellipse fill="lightblue" stroke="black" cx="388" cy="-192" rx="18" ry="18"/>
<text text-anchor="middle" x="388" y="-188.3" font-family="Helvetica,sans-Serif" font-size="14.00">P</text>
</g>
<!-- 4574333408&#45;&gt;4574339552 -->
<g id="edge19" class="edge">
<title>4574333408&#45;&gt;4574339552</title>
<path fill="none" stroke="black" d="M424.62,-235.73C418.05,-228.06 409.71,-218.32 402.64,-210.08"/>
<polygon fill="black" stroke="black" points="403.88,-208.83 399.29,-206.18 401.22,-211.11 403.88,-208.83"/>
</g>
<!-- 65531 -->
<!-- 4574333408&#45;&gt;65531 -->
<!-- 904962 -->
<!-- 4574333408&#45;&gt;904962 -->
<!-- 4574304048 -->
<g id="node8" class="node">
<title>4574304048</title>
<ellipse fill="lightblue" stroke="black" cx="18" cy="-134" rx="18" ry="18"/>
<text text-anchor="middle" x="18" y="-130.3" font-family="Helvetica,sans-Serif" font-size="14.00">A</text>
</g>
<!-- 4574300544&#45;&gt;4574304048 -->
<g id="edge7" class="edge">
<title>4574300544&#45;&gt;4574304048</title>
<path fill="none" stroke="black" d="M54.62,-177.73C48.05,-170.06 39.71,-160.32 32.64,-152.08"/>
<polygon fill="black" stroke="black" points="33.88,-150.83 29.29,-148.18 31.22,-153.11 33.88,-150.83"/>
</g>
<!-- 716203 -->
<!-- 4574300544&#45;&gt;716203 -->
<!-- 4574298720 -->
<g id="node10" class="node">
<title>4574298720</title>
<ellipse fill="lightblue" stroke="black" cx="114" cy="-134" rx="18" ry="18"/>
<text text-anchor="middle" x="114" y="-130.3" font-family="Helvetica,sans-Serif" font-size="14.00">C</text>
</g>
<!-- 4574300544&#45;&gt;4574298720 -->
<g id="edge9" class="edge">
<title>4574300544&#45;&gt;4574298720</title>
<path fill="none" stroke="black" d="M77.38,-177.73C83.95,-170.06 92.29,-160.32 99.36,-152.08"/>
<polygon fill="black" stroke="black" points="100.78,-153.11 102.71,-148.18 98.12,-150.83 100.78,-153.11"/>
</g>
<!-- 4574311152 -->
<g id="node17" class="node">
<title>4574311152</title>
<ellipse fill="lightblue" stroke="black" cx="179" cy="-134" rx="18" ry="18"/>
<text text-anchor="middle" x="179" y="-130.3" font-family="Helvetica,sans-Serif" font-size="14.00">J</text>
</g>
<!-- 4574309472&#45;&gt;4574311152 -->
<g id="edge16" class="edge">
<title>4574309472&#45;&gt;4574311152</title>
<path fill="none" stroke="black" d="M215.62,-177.73C209.05,-170.06 200.71,-160.32 193.64,-152.08"/>
<polygon fill="black" stroke="black" points="194.88,-150.83 190.29,-148.18 192.22,-153.11 194.88,-150.83"/>
</g>
<!-- 762975 -->
<!-- 4574309472&#45;&gt;762975 -->
<!-- 238963 -->
<!-- 4574309472&#45;&gt;238963 -->
<!-- 180150 -->
<!-- 4574298720&#45;&gt;180150 -->
<!-- 877548 -->
<!-- 4574298720&#45;&gt;877548 -->
<!-- 4574312832 -->
<g id="node13" class="node">
<title>4574312832</title>
<ellipse fill="lightblue" stroke="black" cx="162" cy="-76" rx="18" ry="18"/>
<text text-anchor="middle" x="162" y="-72.3" font-family="Helvetica,sans-Serif" font-size="14.00">E</text>
</g>
<!-- 4574298720&#45;&gt;4574312832 -->
<g id="edge12" class="edge">
<title>4574298720&#45;&gt;4574312832</title>
<path fill="none" stroke="black" d="M125.38,-119.73C131.95,-112.06 140.29,-102.32 147.36,-94.08"/>
<polygon fill="black" stroke="black" points="148.78,-95.11 150.71,-90.18 146.12,-92.83 148.78,-95.11"/>
</g>
<!-- 680173 -->
<!-- 4574312832&#45;&gt;680173 -->
<!-- 9708 -->
<!-- 4574312832&#45;&gt;9708 -->
<!-- 4574313792 -->
<g id="node16" class="node">
<title>4574313792</title>
<ellipse fill="lightblue" stroke="black" cx="210" cy="-18" rx="18" ry="18"/>
<text text-anchor="middle" x="210" y="-14.3" font-family="Helvetica,sans-Serif" font-size="14.00">F</text>
</g>
<!-- 4574312832&#45;&gt;4574313792 -->
<g id="edge15" class="edge">
<title>4574312832&#45;&gt;4574313792</title>
<path fill="none" stroke="black" d="M173.38,-61.73C179.95,-54.06 188.29,-44.32 195.36,-36.08"/>
<polygon fill="black" stroke="black" points="196.78,-37.11 198.71,-32.18 194.12,-34.83 196.78,-37.11"/>
</g>
<!-- 244115 -->
<!-- 4574339552&#45;&gt;244115 -->
<!-- 29930 -->
<!-- 4574339552&#45;&gt;29930 -->
<!-- 4574313984 -->
<g id="node25" class="node">
<title>4574313984</title>
<ellipse fill="lightblue" stroke="black" cx="436" cy="-134" rx="18" ry="18"/>
<text text-anchor="middle" x="436" y="-130.3" font-family="Helvetica,sans-Serif" font-size="14.00">U</text>
</g>
<!-- 4574339552&#45;&gt;4574313984 -->
<g id="edge24" class="edge">
<title>4574339552&#45;&gt;4574313984</title>
<path fill="none" stroke="black" d="M399.38,-177.73C405.95,-170.06 414.29,-160.32 421.36,-152.08"/>
<polygon fill="black" stroke="black" points="422.78,-153.11 424.71,-148.18 420.12,-150.83 422.78,-153.11"/>
</g>
<!-- 4574306064 -->
<g id="node26" class="node">
<title>4574306064</title>
<ellipse fill="lightblue" stroke="black" cx="388" cy="-76" rx="18" ry="18"/>
<text text-anchor="middle" x="388" y="-72.3" font-family="Helvetica,sans-Serif" font-size="14.00">R</text>
</g>
<!-- 4574313984&#45;&gt;4574306064 -->
<g id="edge25" class="edge">
<title>4574313984&#45;&gt;4574306064</title>
<path fill="none" stroke="black" d="M424.62,-119.73C418.05,-112.06 409.71,-102.32 402.64,-94.08"/>
<polygon fill="black" stroke="black" points="403.88,-92.83 399.29,-90.18 401.22,-95.11 403.88,-92.83"/>
</g>
<!-- 579470 -->
<!-- 4574313984&#45;&gt;579470 -->
<!-- 4574314416 -->
<g id="node28" class="node">
<title>4574314416</title>
<ellipse fill="lightblue" stroke="black" cx="484" cy="-76" rx="18" ry="18"/>
<text text-anchor="middle" x="484" y="-72.3" font-family="Helvetica,sans-Serif" font-size="14.00">V</text>
</g>
<!-- 4574313984&#45;&gt;4574314416 -->
<g id="edge27" class="edge">
<title>4574313984&#45;&gt;4574314416</title>
<path fill="none" stroke="black" d="M447.38,-119.73C453.95,-112.06 462.29,-102.32 469.36,-94.08"/>
<polygon fill="black" stroke="black" points="470.78,-95.11 472.71,-90.18 468.12,-92.83 470.78,-95.11"/>
</g>
<!-- 438364 -->
<!-- 4574306064&#45;&gt;438364 -->
<!-- 272006 -->
<!-- 4574306064&#45;&gt;272006 -->
<!-- 4574313072 -->
<g id="node31" class="node">
<title>4574313072</title>
<ellipse fill="lightblue" stroke="black" cx="436" cy="-18" rx="18" ry="18"/>
<text text-anchor="middle" x="436" y="-14.3" font-family="Helvetica,sans-Serif" font-size="14.00">T</text>
</g>
<!-- 4574306064&#45;&gt;4574313072 -->
<g id="edge30" class="edge">
<title>4574306064&#45;&gt;4574313072</title>
<path fill="none" stroke="black" d="M399.38,-61.73C405.95,-54.06 414.29,-44.32 421.36,-36.08"/>
<polygon fill="black" stroke="black" points="422.78,-37.11 424.71,-32.18 420.12,-34.83 422.78,-37.11"/>
</g>
</g>
</svg>
