<?xml version="1.0" encoding="UTF-8" standalone="no"?>
<!DOCTYPE svg PUBLIC "-//W3C//DTD SVG 1.1//EN"
 "http://www.w3.org/Graphics/SVG/1.1/DTD/svg11.dtd">
<!-- Generated by graphviz version 2.50.0 (0)
 -->
<!-- Pages: 1 -->
<svg width="532pt" height="362pt"
 viewBox="0.00 0.00 531.80 361.98" xmlns="http://www.w3.org/2000/svg" xmlns:xlink="http://www.w3.org/1999/xlink">
<g id="graph0" class="graph" transform="scale(1 1) rotate(0) translate(4 357.98)">
<polygon fill="white" stroke="transparent" points="-4,4 -4,-357.98 527.8,-357.98 527.8,4 -4,4"/>
<!-- 4574313216 -->
<g id="node1" class="node">
<title>4574313216</title>
<ellipse fill="lightblue" stroke="black" cx="270" cy="-335.98" rx="18" ry="18"/>
<text text-anchor="middle" x="270" y="-332.28" font-family="Helvetica,sans-Serif" font-size="14.00">3</text>
</g>
<!-- 4574336192 -->
<g id="node2" class="node">
<title>4574336192</title>
<ellipse fill="lightblue" stroke="black" cx="222" cy="-275.18" rx="18" ry="18"/>
<text text-anchor="middle" x="222" y="-271.48" font-family="Helvetica,sans-Serif" font-size="14.00">1</text>
</g>
<!-- 4574313216&#45;&gt;4574336192 -->
<g id="edge1" class="edge">
<title>4574313216&#45;&gt;4574336192</title>
<path fill="none" stroke="black" d="M259.11,-321.64C252.45,-313.49 243.86,-302.96 236.61,-294.09"/>
<polygon fill="black" stroke="black" points="237.7,-292.65 233.18,-289.88 234.99,-294.86 237.7,-292.65"/>
</g>
<!-- 481777 -->
<!-- 4574313216&#45;&gt;481777 -->
<!-- 4574301744 -->
<g id="node4" class="node">
<title>4574301744</title>
<ellipse fill="lightblue" stroke="black" cx="320" cy="-275.18" rx="20.6" ry="20.6"/>
<text text-anchor="middle" x="320" y="-271.48" font-family="Helvetica,sans-Serif" font-size="14.00">19</text>
</g>
<!-- 4574313216&#45;&gt;4574301744 -->
<g id="edge3" class="edge">
<title>4574313216&#45;&gt;4574301744</title>
<path fill="none" stroke="black" d="M281.35,-321.64C287.88,-313.95 296.22,-304.15 303.47,-295.62"/>
<polygon fill="black" stroke="black" points="305.03,-296.49 306.93,-291.55 302.36,-294.23 305.03,-296.49"/>
</g>
<!-- 4574335616 -->
<g id="node5" class="node">
<title>4574335616</title>
<ellipse fill="lightblue" stroke="black" cx="187" cy="-211.59" rx="20.6" ry="20.6"/>
<text text-anchor="middle" x="187" y="-207.89" font-family="Helvetica,sans-Serif" font-size="14.00">14</text>
</g>
<!-- 4574301744&#45;&gt;4574335616 -->
<g id="edge4" class="edge">
<title>4574301744&#45;&gt;4574335616</title>
<path fill="none" stroke="black" d="M301.51,-265.62C277.72,-254.6 236.39,-235.46 210.43,-223.44"/>
<polygon fill="black" stroke="black" points="211.04,-221.79 205.76,-221.28 209.57,-224.97 211.04,-221.79"/>
</g>
<!-- 713304 -->
<!-- 4574301744&#45;&gt;713304 -->
<!-- 4574313984 -->
<g id="node7" class="node">
<title>4574313984</title>
<ellipse fill="lightblue" stroke="black" cx="453" cy="-211.59" rx="20.6" ry="20.6"/>
<text text-anchor="middle" x="453" y="-207.89" font-family="Helvetica,sans-Serif" font-size="14.00">26</text>
</g>
<!-- 4574301744&#45;&gt;4574313984 -->
<g id="edge6" class="edge">
<title>4574301744&#45;&gt;4574313984</title>
<path fill="none" stroke="black" d="M338.49,-265.62C362.28,-254.6 403.61,-235.46 429.57,-223.44"/>
<polygon fill="black" stroke="black" points="430.43,-224.97 434.24,-221.28 428.96,-221.79 430.43,-224.97"/>
</g>
<!-- 4574332112 -->
<g id="node8" class="node">
<title>4574332112</title>
<ellipse fill="lightblue" stroke="black" cx="66" cy="-147.99" rx="20.6" ry="20.6"/>
<text text-anchor="middle" x="66" y="-144.29" font-family="Helvetica,sans-Serif" font-size="14.00">10</text>
</g>
<!-- 4574335616&#45;&gt;4574332112 -->
<g id="edge7" class="edge">
<title>4574335616&#45;&gt;4574332112</title>
<path fill="none" stroke="black" d="M168.89,-201.37C147.5,-190.48 111.92,-172.36 88.71,-160.55"/>
<polygon fill="black" stroke="black" points="89.49,-158.98 84.24,-158.28 87.9,-162.1 89.49,-158.98"/>
</g>
<!-- 190082 -->
<!-- 4574335616&#45;&gt;190082 -->
<!-- 4574333648 -->
<g id="node10" class="node">
<title>4574333648</title>
<ellipse fill="lightblue" stroke="black" cx="237" cy="-147.99" rx="20.6" ry="20.6"/>
<text text-anchor="middle" x="237" y="-144.29" font-family="Helvetica,sans-Serif" font-size="14.00">18</text>
</g>
<!-- 4574335616&#45;&gt;4574333648 -->
<g id="edge9" class="edge">
<title>4574335616&#45;&gt;4574333648</title>
<path fill="none" stroke="black" d="M199.62,-195.04C206.08,-187.08 214.02,-177.3 220.92,-168.8"/>
<polygon fill="black" stroke="black" points="222.42,-169.73 224.21,-164.74 219.7,-167.52 222.42,-169.73"/>
</g>
<!-- 4574336048 -->
<g id="node17" class="node">
<title>4574336048</title>
<ellipse fill="lightblue" stroke="black" cx="403" cy="-147.99" rx="20.6" ry="20.6"/>
<text text-anchor="middle" x="403" y="-144.29" font-family="Helvetica,sans-Serif" font-size="14.00">22</text>
</g>
<!-- 4574313984&#45;&gt;4574336048 -->
<g id="edge16" class="edge">
<title>4574313984&#45;&gt;4574336048</title>
<path fill="none" stroke="black" d="M440.38,-195.04C433.92,-187.08 425.98,-177.3 419.08,-168.8"/>
<polygon fill="black" stroke="black" points="420.3,-167.52 415.79,-164.74 417.58,-169.73 420.3,-167.52"/>
</g>
<!-- 154387 -->
<!-- 4574313984&#45;&gt;154387 -->
<!-- 4574334848 -->
<g id="node19" class="node">
<title>4574334848</title>
<ellipse fill="lightblue" stroke="black" cx="503" cy="-147.99" rx="20.6" ry="20.6"/>
<text text-anchor="middle" x="503" y="-144.29" font-family="Helvetica,sans-Serif" font-size="14.00">29</text>
</g>
<!-- 4574313984&#45;&gt;4574334848 -->
<g id="edge18" class="edge">
<title>4574313984&#45;&gt;4574334848</title>
<path fill="none" stroke="black" d="M465.62,-195.04C472.08,-187.08 480.02,-177.3 486.92,-168.8"/>
<polygon fill="black" stroke="black" points="488.42,-169.73 490.21,-164.74 485.7,-167.52 488.42,-169.73"/>
</g>
<!-- 4574334944 -->
<g id="node11" class="node">
<title>4574334944</title>
<ellipse fill="lightblue" stroke="black" cx="18" cy="-84.39" rx="18" ry="18"/>
<text text-anchor="middle" x="18" y="-80.69" font-family="Helvetica,sans-Serif" font-size="14.00">5</text>
</g>
<!-- 4574332112&#45;&gt;4574334944 -->
<g id="edge10" class="edge">
<title>4574332112&#45;&gt;4574334944</title>
<path fill="none" stroke="black" d="M53.64,-131.13C47.05,-122.67 38.92,-112.24 32.09,-103.47"/>
<polygon fill="black" stroke="black" points="33.3,-102.18 28.85,-99.32 30.54,-104.34 33.3,-102.18"/>
</g>
<!-- 676526 -->
<!-- 4574332112&#45;&gt;676526 -->
<!-- 4574334128 -->
<g id="node13" class="node">
<title>4574334128</title>
<ellipse fill="lightblue" stroke="black" cx="116" cy="-84.39" rx="20.6" ry="20.6"/>
<text text-anchor="middle" x="116" y="-80.69" font-family="Helvetica,sans-Serif" font-size="14.00">13</text>
</g>
<!-- 4574332112&#45;&gt;4574334128 -->
<g id="edge12" class="edge">
<title>4574332112&#45;&gt;4574334128</title>
<path fill="none" stroke="black" d="M78.62,-131.45C85.08,-123.48 93.02,-113.7 99.92,-105.2"/>
<polygon fill="black" stroke="black" points="101.42,-106.13 103.21,-101.15 98.7,-103.93 101.42,-106.13"/>
</g>
<!-- 4574334896 -->
<g id="node14" class="node">
<title>4574334896</title>
<ellipse fill="lightblue" stroke="black" cx="187" cy="-84.39" rx="20.6" ry="20.6"/>
<text text-anchor="middle" x="187" y="-80.69" font-family="Helvetica,sans-Serif" font-size="14.00">16</text>
</g>
<!-- 4574333648&#45;&gt;4574334896 -->
<g id="edge13" class="edge">
<title>4574333648&#45;&gt;4574334896</title>
<path fill="none" stroke="black" d="M224.38,-131.45C217.92,-123.48 209.98,-113.7 203.08,-105.2"/>
<polygon fill="black" stroke="black" points="204.3,-103.93 199.79,-101.15 201.58,-106.13 204.3,-103.93"/>
</g>
<!-- 347655 -->
<!-- 4574333648&#45;&gt;347655 -->
<!-- 697275 -->
<!-- 4574333648&#45;&gt;697275 -->
<!-- 4574333312 -->
<g id="node20" class="node">
<title>4574333312</title>
<ellipse fill="lightblue" stroke="black" cx="353" cy="-84.39" rx="20.6" ry="20.6"/>
<text text-anchor="middle" x="353" y="-80.69" font-family="Helvetica,sans-Serif" font-size="14.00">20</text>
</g>
<!-- 4574336048&#45;&gt;4574333312 -->
<g id="edge19" class="edge">
<title>4574336048&#45;&gt;4574333312</title>
<path fill="none" stroke="black" d="M390.38,-131.45C383.92,-123.48 375.98,-113.7 369.08,-105.2"/>
<polygon fill="black" stroke="black" points="370.3,-103.93 365.79,-101.15 367.58,-106.13 370.3,-103.93"/>
</g>
<!-- 396103 -->
<!-- 4574336048&#45;&gt;396103 -->
<!-- 4574331488 -->
<g id="node22" class="node">
<title>4574331488</title>
<ellipse fill="lightblue" stroke="black" cx="453" cy="-84.39" rx="20.6" ry="20.6"/>
<text text-anchor="middle" x="453" y="-80.69" font-family="Helvetica,sans-Serif" font-size="14.00">25</text>
</g>
<!-- 4574336048&#45;&gt;4574331488 -->
<g id="edge21" class="edge">
<title>4574336048&#45;&gt;4574331488</title>
<path fill="none" stroke="black" d="M415.62,-131.45C422.08,-123.48 430.02,-113.7 436.92,-105.2"/>
<polygon fill="black" stroke="black" points="438.42,-106.13 440.21,-101.15 435.7,-103.93 438.42,-106.13"/>
</g>
<!-- 4574334032 -->
<g id="node23" class="node">
<title>4574334032</title>
<ellipse fill="lightblue" stroke="black" cx="403" cy="-20.8" rx="20.6" ry="20.6"/>
<text text-anchor="middle" x="403" y="-17.1" font-family="Helvetica,sans-Serif" font-size="14.00">23</text>
</g>
<!-- 4574331488&#45;&gt;4574334032 -->
<g id="edge22" class="edge">
<title>4574331488&#45;&gt;4574334032</title>
<path fill="none" stroke="black" d="M440.38,-67.85C433.92,-59.89 425.98,-50.1 419.08,-41.61"/>
<polygon fill="black" stroke="black" points="420.3,-40.33 415.79,-37.55 417.58,-42.54 420.3,-40.33"/>
</g>
<!-- 728002 -->
<!-- 4574331488&#45;&gt;728002 -->
<!-- 498502 -->
<!-- 4574331488&#45;&gt;498502 -->
</g>
</svg>
