<?xml version="1.0" encoding="UTF-8" standalone="no"?>
<!DOCTYPE svg PUBLIC "-//W3C//DTD SVG 1.1//EN"
 "http://www.w3.org/Graphics/SVG/1.1/DTD/svg11.dtd">
<!-- Generated by graphviz version 2.50.0 (0)
 -->
<!-- Pages: 1 -->
<svg width="623pt" height="220pt"
 viewBox="0.00 0.00 623.00 220.09" xmlns="http://www.w3.org/2000/svg" xmlns:xlink="http://www.w3.org/1999/xlink">
<g id="graph0" class="graph" transform="scale(1 1) rotate(0) translate(4 216.09)">
<polygon fill="white" stroke="transparent" points="-4,4 -4,-216.09 619,-216.09 619,4 -4,4"/>
<!-- 4419543904 -->
<g id="node1" class="node">
<title>4419543904</title>
<ellipse fill="#9bcd9b" stroke="black" cx="307" cy="-193.25" rx="18.7" ry="18.7"/>
<text text-anchor="middle" x="307" y="-189.55" font-family="Helvetica,sans-Serif" font-size="14.00">M</text>
</g>
<!-- 4574344832 -->
<g id="node2" class="node">
<title>4574344832</title>
<ellipse fill="#9bcd9b" stroke="black" cx="179" cy="-134.4" rx="18" ry="18"/>
<text text-anchor="middle" x="179" y="-130.7" font-family="Helvetica,sans-Serif" font-size="14.00">Y</text>
</g>
<!-- 4419543904&#45;&gt;4574344832 -->
<g id="edge1" class="edge">
<title>4419543904&#45;&gt;4574344832</title>
<path fill="none" stroke="black" d="M290,-184.7C266.8,-174.39 225.21,-155.92 200.06,-144.75"/>
<polygon fill="black" stroke="black" points="200.54,-143.05 195.26,-142.62 199.12,-146.25 200.54,-143.05"/>
</g>
<!-- 295528 -->
<!-- 4419543904&#45;&gt;295528 -->
<!-- 4574343248 -->
<g id="node4" class="node">
<title>4574343248</title>
<ellipse fill="#9bcd9b" stroke="black" cx="436" cy="-134.4" rx="18" ry="18"/>
<text text-anchor="middle" x="436" y="-130.7" font-family="Helvetica,sans-Serif" font-size="14.00">N</text>
</g>
<!-- 4419543904&#45;&gt;4574343248 -->
<g id="edge3" class="edge">
<title>4419543904&#45;&gt;4574343248</title>
<path fill="none" stroke="black" d="M323.86,-184.81C347.17,-174.54 389.22,-156.01 414.68,-144.79"/>
<polygon fill="black" stroke="black" points="415.67,-146.27 419.54,-142.65 414.26,-143.07 415.67,-146.27"/>
</g>
<!-- 4574341712 -->
<g id="node5" class="node">
<title>4574341712</title>
<ellipse fill="#9bcd9b" stroke="black" cx="66" cy="-76.2" rx="18" ry="18"/>
<text text-anchor="middle" x="66" y="-72.5" font-family="Helvetica,sans-Serif" font-size="14.00">B</text>
</g>
<!-- 4574344832&#45;&gt;4574341712 -->
<g id="edge4" class="edge">
<title>4574344832&#45;&gt;4574341712</title>
<path fill="none" stroke="black" d="M163.29,-125.58C143.25,-115.62 108.54,-98.36 86.45,-87.37"/>
<polygon fill="black" stroke="black" points="87.2,-85.79 81.94,-85.13 85.64,-88.92 87.2,-85.79"/>
</g>
<!-- 146534 -->
<!-- 4574344832&#45;&gt;146534 -->
<!-- 4574344304 -->
<g id="node7" class="node">
<title>4574344304</title>
<ellipse fill="#9bcd9b" stroke="black" cx="227" cy="-76.2" rx="18" ry="18"/>
<text text-anchor="middle" x="227" y="-72.5" font-family="Helvetica,sans-Serif" font-size="14.00">I</text>
</g>
<!-- 4574344832&#45;&gt;4574344304 -->
<g id="edge6" class="edge">
<title>4574344832&#45;&gt;4574344304</title>
<path fill="none" stroke="black" d="M190.38,-120.08C196.95,-112.38 205.29,-102.61 212.36,-94.34"/>
<polygon fill="black" stroke="black" points="213.79,-95.36 215.71,-90.42 211.13,-93.09 213.79,-95.36"/>
</g>
<!-- 4574341520 -->
<g id="node14" class="node">
<title>4574341520</title>
<ellipse fill="#9bcd9b" stroke="black" cx="388" cy="-76.2" rx="18.4" ry="18.4"/>
<text text-anchor="middle" x="388" y="-72.5" font-family="Helvetica,sans-Serif" font-size="14.00">Q</text>
</g>
<!-- 4574343248&#45;&gt;4574341520 -->
<g id="edge13" class="edge">
<title>4574343248&#45;&gt;4574341520</title>
<path fill="none" stroke="black" d="M424.62,-120.08C418.14,-112.49 409.95,-102.89 402.95,-94.7"/>
<polygon fill="black" stroke="black" points="404.21,-93.48 399.63,-90.81 401.54,-95.75 404.21,-93.48"/>
</g>
<!-- 648406 -->
<!-- 4574343248&#45;&gt;648406 -->
<!-- 4574338064 -->
<g id="node16" class="node">
<title>4574338064</title>
<ellipse fill="#9bcd9b" stroke="black" cx="549" cy="-76.2" rx="18" ry="18"/>
<text text-anchor="middle" x="549" y="-72.5" font-family="Helvetica,sans-Serif" font-size="14.00">P</text>
</g>
<!-- 4574343248&#45;&gt;4574338064 -->
<g id="edge15" class="edge">
<title>4574343248&#45;&gt;4574338064</title>
<path fill="none" stroke="black" d="M451.71,-125.58C471.75,-115.62 506.46,-98.36 528.55,-87.37"/>
<polygon fill="black" stroke="black" points="529.36,-88.92 533.06,-85.13 527.8,-85.79 529.36,-88.92"/>
</g>
<!-- 4574344640 -->
<g id="node8" class="node">
<title>4574344640</title>
<ellipse fill="#9bcd9b" stroke="black" cx="18" cy="-18" rx="18" ry="18"/>
<text text-anchor="middle" x="18" y="-14.3" font-family="Helvetica,sans-Serif" font-size="14.00">Z</text>
</g>
<!-- 4574341712&#45;&gt;4574344640 -->
<g id="edge7" class="edge">
<title>4574341712&#45;&gt;4574344640</title>
<path fill="none" stroke="black" d="M54.62,-61.88C48.05,-54.18 39.71,-44.41 32.64,-36.15"/>
<polygon fill="black" stroke="black" points="33.87,-34.89 29.29,-32.22 31.21,-37.16 33.87,-34.89"/>
</g>
<!-- 792518 -->
<!-- 4574341712&#45;&gt;792518 -->
<!-- 4574344688 -->
<g id="node10" class="node">
<title>4574344688</title>
<ellipse fill="#9bcd9b" stroke="black" cx="114" cy="-18" rx="18" ry="18"/>
<text text-anchor="middle" x="114" y="-14.3" font-family="Helvetica,sans-Serif" font-size="14.00">J</text>
</g>
<!-- 4574341712&#45;&gt;4574344688 -->
<g id="edge9" class="edge">
<title>4574341712&#45;&gt;4574344688</title>
<path fill="none" stroke="black" d="M77.38,-61.88C83.95,-54.18 92.29,-44.41 99.36,-36.15"/>
<polygon fill="black" stroke="black" points="100.79,-37.16 102.71,-32.22 98.13,-34.89 100.79,-37.16"/>
</g>
<!-- 4574340080 -->
<g id="node11" class="node">
<title>4574340080</title>
<ellipse fill="#9bcd9b" stroke="black" cx="179" cy="-18" rx="18" ry="18"/>
<text text-anchor="middle" x="179" y="-14.3" font-family="Helvetica,sans-Serif" font-size="14.00">T</text>
</g>
<!-- 4574344304&#45;&gt;4574340080 -->
<g id="edge10" class="edge">
<title>4574344304&#45;&gt;4574340080</title>
<path fill="none" stroke="black" d="M215.62,-61.88C209.05,-54.18 200.71,-44.41 193.64,-36.15"/>
<polygon fill="black" stroke="black" points="194.87,-34.89 190.29,-32.22 192.21,-37.16 194.87,-34.89"/>
</g>
<!-- 99437 -->
<!-- 4574344304&#45;&gt;99437 -->
<!-- 4574181184 -->
<g id="node13" class="node">
<title>4574181184</title>
<ellipse fill="#9bcd9b" stroke="black" cx="275" cy="-18" rx="18" ry="18"/>
<text text-anchor="middle" x="275" y="-14.3" font-family="Helvetica,sans-Serif" font-size="14.00">L</text>
</g>
<!-- 4574344304&#45;&gt;4574181184 -->
<g id="edge12" class="edge">
<title>4574344304&#45;&gt;4574181184</title>
<path fill="none" stroke="black" d="M238.38,-61.88C244.95,-54.18 253.29,-44.41 260.36,-36.15"/>
<polygon fill="black" stroke="black" points="261.79,-37.16 263.71,-32.22 259.13,-34.89 261.79,-37.16"/>
</g>
<!-- 4574182336 -->
<g id="node17" class="node">
<title>4574182336</title>
<ellipse fill="#9bcd9b" stroke="black" cx="340" cy="-18" rx="18" ry="18"/>
<text text-anchor="middle" x="340" y="-14.3" font-family="Helvetica,sans-Serif" font-size="14.00">R</text>
</g>
<!-- 4574341520&#45;&gt;4574182336 -->
<g id="edge16" class="edge">
<title>4574341520&#45;&gt;4574182336</title>
<path fill="none" stroke="black" d="M376.62,-61.88C370.05,-54.18 361.71,-44.41 354.64,-36.15"/>
<polygon fill="black" stroke="black" points="355.87,-34.89 351.29,-32.22 353.21,-37.16 355.87,-34.89"/>
</g>
<!-- 838234 -->
<!-- 4574341520&#45;&gt;838234 -->
<!-- 4574182144 -->
<g id="node19" class="node">
<title>4574182144</title>
<ellipse fill="#9bcd9b" stroke="black" cx="436" cy="-18" rx="18" ry="18"/>
<text text-anchor="middle" x="436" y="-14.3" font-family="Helvetica,sans-Serif" font-size="14.00">D</text>
</g>
<!-- 4574341520&#45;&gt;4574182144 -->
<g id="edge18" class="edge">
<title>4574341520&#45;&gt;4574182144</title>
<path fill="none" stroke="black" d="M399.38,-61.88C405.95,-54.18 414.29,-44.41 421.36,-36.15"/>
<polygon fill="black" stroke="black" points="422.79,-37.16 424.71,-32.22 420.13,-34.89 422.79,-37.16"/>
</g>
<!-- 4574182720 -->
<g id="node20" class="node">
<title>4574182720</title>
<ellipse fill="#9bcd9b" stroke="black" cx="501" cy="-18" rx="18" ry="18"/>
<text text-anchor="middle" x="501" y="-14.3" font-family="Helvetica,sans-Serif" font-size="14.00">V</text>
</g>
<!-- 4574338064&#45;&gt;4574182720 -->
<g id="edge19" class="edge">
<title>4574338064&#45;&gt;4574182720</title>
<path fill="none" stroke="black" d="M537.62,-61.88C531.05,-54.18 522.71,-44.41 515.64,-36.15"/>
<polygon fill="black" stroke="black" points="516.87,-34.89 512.29,-32.22 514.21,-37.16 516.87,-34.89"/>
</g>
<!-- 262674 -->
<!-- 4574338064&#45;&gt;262674 -->
<!-- 4574182240 -->
<g id="node22" class="node">
<title>4574182240</title>
<ellipse fill="#9bcd9b" stroke="black" cx="597" cy="-18" rx="18" ry="18"/>
<text text-anchor="middle" x="597" y="-14.3" font-family="Helvetica,sans-Serif" font-size="14.00">C</text>
</g>
<!-- 4574338064&#45;&gt;4574182240 -->
<g id="edge21" class="edge">
<title>4574338064&#45;&gt;4574182240</title>
<path fill="none" stroke="black" d="M560.38,-61.88C566.95,-54.18 575.29,-44.41 582.36,-36.15"/>
<polygon fill="black" stroke="black" points="583.79,-37.16 585.71,-32.22 581.13,-34.89 583.79,-37.16"/>
</g>
</g>
</svg>
