<?xml version="1.0" encoding="UTF-8" standalone="no"?>
<!DOCTYPE svg PUBLIC "-//W3C//DTD SVG 1.1//EN"
 "http://www.w3.org/Graphics/SVG/1.1/DTD/svg11.dtd">
<!-- Generated by graphviz version 2.50.0 (0)
 -->
<!-- Pages: 1 -->
<svg width="414pt" height="395pt"
 viewBox="0.00 0.00 414.00 395.39" xmlns="http://www.w3.org/2000/svg" xmlns:xlink="http://www.w3.org/1999/xlink">
<g id="graph0" class="graph" transform="scale(1 1) rotate(0) translate(4 391.39)">
<polygon fill="white" stroke="transparent" points="-4,4 -4,-391.39 410,-391.39 410,4 -4,4"/>
<!-- 4574312112 -->
<g id="node1" class="node">
<title>4574312112</title>
<ellipse fill="lightblue" stroke="black" cx="307" cy="-369.39" rx="18" ry="18"/>
<text text-anchor="middle" x="307" y="-365.69" font-family="Helvetica,sans-Serif" font-size="14.00">X</text>
</g>
<!-- 4574314416 -->
<g id="node2" class="node">
<title>4574314416</title>
<ellipse fill="lightblue" stroke="black" cx="259" cy="-311.39" rx="18" ry="18"/>
<text text-anchor="middle" x="259" y="-307.69" font-family="Helvetica,sans-Serif" font-size="14.00">T</text>
</g>
<!-- 4574312112&#45;&gt;4574314416 -->
<g id="edge1" class="edge">
<title>4574312112&#45;&gt;4574314416</title>
<path fill="none" stroke="black" d="M295.62,-355.12C289.05,-347.45 280.71,-337.72 273.64,-329.48"/>
<polygon fill="black" stroke="black" points="274.88,-328.23 270.29,-325.57 272.22,-330.5 274.88,-328.23"/>
</g>
<!-- 350506 -->
<!-- 4574312112&#45;&gt;350506 -->
<!-- 4574309808 -->
<g id="node4" class="node">
<title>4574309808</title>
<ellipse fill="lightblue" stroke="black" cx="355" cy="-311.39" rx="18" ry="18"/>
<text text-anchor="middle" x="355" y="-307.69" font-family="Helvetica,sans-Serif" font-size="14.00">Y</text>
</g>
<!-- 4574312112&#45;&gt;4574309808 -->
<g id="edge3" class="edge">
<title>4574312112&#45;&gt;4574309808</title>
<path fill="none" stroke="black" d="M318.38,-355.12C324.95,-347.45 333.29,-337.72 340.36,-329.48"/>
<polygon fill="black" stroke="black" points="341.78,-330.5 343.71,-325.57 339.12,-328.23 341.78,-330.5"/>
</g>
<!-- 4574300976 -->
<g id="node5" class="node">
<title>4574300976</title>
<ellipse fill="lightblue" stroke="black" cx="179" cy="-251.9" rx="18" ry="18"/>
<text text-anchor="middle" x="179" y="-248.2" font-family="Helvetica,sans-Serif" font-size="14.00">C</text>
</g>
<!-- 4574314416&#45;&gt;4574300976 -->
<g id="edge4" class="edge">
<title>4574314416&#45;&gt;4574300976</title>
<path fill="none" stroke="black" d="M244.7,-300.11C231.5,-290.63 211.83,-276.49 197.46,-266.16"/>
<polygon fill="black" stroke="black" points="198.26,-264.58 193.18,-263.09 196.22,-267.42 198.26,-264.58"/>
</g>
<!-- 413718 -->
<!-- 4574314416&#45;&gt;413718 -->
<!-- 4574311056 -->
<g id="node7" class="node">
<title>4574311056</title>
<ellipse fill="lightblue" stroke="black" cx="340" cy="-251.9" rx="19.5" ry="19.5"/>
<text text-anchor="middle" x="340" y="-248.2" font-family="Helvetica,sans-Serif" font-size="14.00">W</text>
</g>
<!-- 4574314416&#45;&gt;4574311056 -->
<g id="edge6" class="edge">
<title>4574314416&#45;&gt;4574311056</title>
<path fill="none" stroke="black" d="M273.48,-300.11C286.51,-290.86 305.78,-277.19 320.22,-266.93"/>
<polygon fill="black" stroke="black" points="321.48,-268.19 324.54,-263.87 319.45,-265.34 321.48,-268.19"/>
</g>
<!-- 4574309472 -->
<g id="node8" class="node">
<title>4574309472</title>
<ellipse fill="lightblue" stroke="black" cx="66" cy="-192.4" rx="18" ry="18"/>
<text text-anchor="middle" x="66" y="-188.7" font-family="Helvetica,sans-Serif" font-size="14.00">A</text>
</g>
<!-- 4574300976&#45;&gt;4574309472 -->
<g id="edge7" class="edge">
<title>4574300976&#45;&gt;4574309472</title>
<path fill="none" stroke="black" d="M163.29,-242.9C143.25,-232.7 108.54,-215.04 86.45,-203.8"/>
<polygon fill="black" stroke="black" points="87.19,-202.22 81.94,-201.51 85.61,-205.34 87.19,-202.22"/>
</g>
<!-- 446624 -->
<!-- 4574300976&#45;&gt;446624 -->
<!-- 4574313168 -->
<g id="node10" class="node">
<title>4574313168</title>
<ellipse fill="lightblue" stroke="black" cx="227" cy="-192.4" rx="18" ry="18"/>
<text text-anchor="middle" x="227" y="-188.7" font-family="Helvetica,sans-Serif" font-size="14.00">N</text>
</g>
<!-- 4574300976&#45;&gt;4574313168 -->
<g id="edge9" class="edge">
<title>4574300976&#45;&gt;4574313168</title>
<path fill="none" stroke="black" d="M190.13,-237.56C196.8,-229.58 205.34,-219.34 212.52,-210.74"/>
<polygon fill="black" stroke="black" points="214.07,-211.62 215.93,-206.66 211.38,-209.38 214.07,-211.62"/>
</g>
<!-- 4574345648 -->
<g id="node26" class="node">
<title>4574345648</title>
<ellipse fill="lightblue" stroke="black" cx="292" cy="-192.4" rx="18" ry="18"/>
<text text-anchor="middle" x="292" y="-188.7" font-family="Helvetica,sans-Serif" font-size="14.00">V</text>
</g>
<!-- 4574311056&#45;&gt;4574345648 -->
<g id="edge25" class="edge">
<title>4574311056&#45;&gt;4574345648</title>
<path fill="none" stroke="black" d="M327.89,-236.39C321.4,-228.61 313.35,-218.97 306.53,-210.8"/>
<polygon fill="black" stroke="black" points="307.83,-209.63 303.28,-206.91 305.15,-211.87 307.83,-209.63"/>
</g>
<!-- 573441 -->
<!-- 4574311056&#45;&gt;573441 -->
<!-- 18542 -->
<!-- 4574311056&#45;&gt;18542 -->
<!-- 623927 -->
<!-- 4574309472&#45;&gt;623927 -->
<!-- 10008 -->
<!-- 4574309472&#45;&gt;10008 -->
<!-- 4574313792 -->
<g id="node13" class="node">
<title>4574313792</title>
<ellipse fill="lightblue" stroke="black" cx="114" cy="-134.4" rx="18" ry="18"/>
<text text-anchor="middle" x="114" y="-130.7" font-family="Helvetica,sans-Serif" font-size="14.00">B</text>
</g>
<!-- 4574309472&#45;&gt;4574313792 -->
<g id="edge12" class="edge">
<title>4574309472&#45;&gt;4574313792</title>
<path fill="none" stroke="black" d="M77.38,-178.13C83.95,-170.45 92.29,-160.72 99.36,-152.48"/>
<polygon fill="black" stroke="black" points="100.78,-153.51 102.71,-148.57 98.12,-151.23 100.78,-153.51"/>
</g>
<!-- 4574307648 -->
<g id="node14" class="node">
<title>4574307648</title>
<ellipse fill="lightblue" stroke="black" cx="179" cy="-134.4" rx="18" ry="18"/>
<text text-anchor="middle" x="179" y="-130.7" font-family="Helvetica,sans-Serif" font-size="14.00">F</text>
</g>
<!-- 4574313168&#45;&gt;4574307648 -->
<g id="edge13" class="edge">
<title>4574313168&#45;&gt;4574307648</title>
<path fill="none" stroke="black" d="M215.62,-178.13C209.05,-170.45 200.71,-160.72 193.64,-152.48"/>
<polygon fill="black" stroke="black" points="194.88,-151.23 190.29,-148.57 192.22,-153.51 194.88,-151.23"/>
</g>
<!-- 253988 -->
<!-- 4574313168&#45;&gt;253988 -->
<!-- 4574313984 -->
<g id="node16" class="node">
<title>4574313984</title>
<ellipse fill="lightblue" stroke="black" cx="340" cy="-134.4" rx="18" ry="18"/>
<text text-anchor="middle" x="340" y="-130.7" font-family="Helvetica,sans-Serif" font-size="14.00">S</text>
</g>
<!-- 4574313168&#45;&gt;4574313984 -->
<g id="edge15" class="edge">
<title>4574313168&#45;&gt;4574313984</title>
<path fill="none" stroke="black" d="M242.71,-183.61C262.75,-173.68 297.46,-156.48 319.55,-145.53"/>
<polygon fill="black" stroke="black" points="320.35,-147.09 324.06,-143.3 318.8,-143.95 320.35,-147.09"/>
</g>
<!-- 4574336720 -->
<g id="node17" class="node">
<title>4574336720</title>
<ellipse fill="lightblue" stroke="black" cx="131" cy="-76.2" rx="18" ry="18"/>
<text text-anchor="middle" x="131" y="-72.5" font-family="Helvetica,sans-Serif" font-size="14.00">E</text>
</g>
<!-- 4574307648&#45;&gt;4574336720 -->
<g id="edge16" class="edge">
<title>4574307648&#45;&gt;4574336720</title>
<path fill="none" stroke="black" d="M167.62,-120.08C161.05,-112.38 152.71,-102.61 145.64,-94.34"/>
<polygon fill="black" stroke="black" points="146.87,-93.09 142.29,-90.42 144.21,-95.36 146.87,-93.09"/>
</g>
<!-- 66864 -->
<!-- 4574307648&#45;&gt;66864 -->
<!-- 4574337104 -->
<g id="node19" class="node">
<title>4574337104</title>
<ellipse fill="lightblue" stroke="black" cx="227" cy="-76.2" rx="18" ry="18"/>
<text text-anchor="middle" x="227" y="-72.5" font-family="Helvetica,sans-Serif" font-size="14.00">L</text>
</g>
<!-- 4574307648&#45;&gt;4574337104 -->
<g id="edge18" class="edge">
<title>4574307648&#45;&gt;4574337104</title>
<path fill="none" stroke="black" d="M190.38,-120.08C196.95,-112.38 205.29,-102.61 212.36,-94.34"/>
<polygon fill="black" stroke="black" points="213.79,-95.36 215.71,-90.42 211.13,-93.09 213.79,-95.36"/>
</g>
<!-- 4574343104 -->
<g id="node20" class="node">
<title>4574343104</title>
<ellipse fill="lightblue" stroke="black" cx="292" cy="-76.2" rx="18.4" ry="18.4"/>
<text text-anchor="middle" x="292" y="-72.5" font-family="Helvetica,sans-Serif" font-size="14.00">O</text>
</g>
<!-- 4574313984&#45;&gt;4574343104 -->
<g id="edge19" class="edge">
<title>4574313984&#45;&gt;4574343104</title>
<path fill="none" stroke="black" d="M328.62,-120.08C322.14,-112.49 313.95,-102.89 306.95,-94.7"/>
<polygon fill="black" stroke="black" points="308.21,-93.48 303.63,-90.81 305.54,-95.75 308.21,-93.48"/>
</g>
<!-- 262202 -->
<!-- 4574313984&#45;&gt;262202 -->
<!-- 195513 -->
<!-- 4574313984&#45;&gt;195513 -->
<!-- 208665 -->
<!-- 4574343104&#45;&gt;208665 -->
<!-- 287715 -->
<!-- 4574343104&#45;&gt;287715 -->
<!-- 4574341568 -->
<g id="node25" class="node">
<title>4574341568</title>
<ellipse fill="lightblue" stroke="black" cx="340" cy="-18" rx="18" ry="18"/>
<text text-anchor="middle" x="340" y="-14.3" font-family="Helvetica,sans-Serif" font-size="14.00">R</text>
</g>
<!-- 4574343104&#45;&gt;4574341568 -->
<g id="edge24" class="edge">
<title>4574343104&#45;&gt;4574341568</title>
<path fill="none" stroke="black" d="M303.38,-61.88C309.95,-54.18 318.29,-44.41 325.36,-36.15"/>
<polygon fill="black" stroke="black" points="326.79,-37.16 328.71,-32.22 324.13,-34.89 326.79,-37.16"/>
</g>
</g>
</svg>
