<?xml version="1.0" encoding="UTF-8" standalone="no"?>
<!DOCTYPE svg PUBLIC "-//W3C//DTD SVG 1.1//EN"
 "http://www.w3.org/Graphics/SVG/1.1/DTD/svg11.dtd">
<!-- Generated by graphviz version 2.50.0 (0)
 -->
<!-- Pages: 1 -->
<svg width="623pt" height="338pt"
 viewBox="0.00 0.00 623.00 338.19" xmlns="http://www.w3.org/2000/svg" xmlns:xlink="http://www.w3.org/1999/xlink">
<g id="graph0" class="graph" transform="scale(1 1) rotate(0) translate(4 334.19)">
<polygon fill="white" stroke="transparent" points="-4,4 -4,-334.19 619,-334.19 619,4 -4,4"/>
<!-- 4419546400 -->
<g id="node1" class="node">
<title>4419546400</title>
<ellipse fill="lightblue" stroke="black" cx="420" cy="-312.19" rx="18" ry="18"/>
<text text-anchor="middle" x="420" y="-308.49" font-family="Helvetica,sans-Serif" font-size="14.00">R</text>
</g>
<!-- 4574312640 -->
<g id="node2" class="node">
<title>4574312640</title>
<ellipse fill="lightblue" stroke="black" cx="340" cy="-253.99" rx="18.4" ry="18.4"/>
<text text-anchor="middle" x="340" y="-250.29" font-family="Helvetica,sans-Serif" font-size="14.00">O</text>
</g>
<!-- 4419546400&#45;&gt;4574312640 -->
<g id="edge1" class="edge">
<title>4419546400&#45;&gt;4574312640</title>
<path fill="none" stroke="black" d="M405.7,-301.14C392.58,-291.93 373.08,-278.22 358.72,-268.14"/>
<polygon fill="black" stroke="black" points="359.55,-266.58 354.45,-265.14 357.53,-269.44 359.55,-266.58"/>
</g>
<!-- 942600 -->
<!-- 4419546400&#45;&gt;942600 -->
<!-- 4574308416 -->
<g id="node4" class="node">
<title>4574308416</title>
<ellipse fill="lightblue" stroke="black" cx="501" cy="-253.99" rx="18" ry="18"/>
<text text-anchor="middle" x="501" y="-250.29" font-family="Helvetica,sans-Serif" font-size="14.00">V</text>
</g>
<!-- 4419546400&#45;&gt;4574308416 -->
<g id="edge3" class="edge">
<title>4419546400&#45;&gt;4574308416</title>
<path fill="none" stroke="black" d="M434.48,-301.14C447.84,-291.87 467.76,-278.05 482.31,-267.95"/>
<polygon fill="black" stroke="black" points="483.53,-269.24 486.64,-264.95 481.54,-266.36 483.53,-269.24"/>
</g>
<!-- 4574310624 -->
<g id="node5" class="node">
<title>4574310624</title>
<ellipse fill="lightblue" stroke="black" cx="227" cy="-195.79" rx="18" ry="18"/>
<text text-anchor="middle" x="227" y="-192.09" font-family="Helvetica,sans-Serif" font-size="14.00">J</text>
</g>
<!-- 4574312640&#45;&gt;4574310624 -->
<g id="edge4" class="edge">
<title>4574312640&#45;&gt;4574310624</title>
<path fill="none" stroke="black" d="M323.81,-244.94C303.73,-234.95 269.46,-217.91 247.55,-207.01"/>
<polygon fill="black" stroke="black" points="248.05,-205.31 242.8,-204.65 246.49,-208.44 248.05,-205.31"/>
</g>
<!-- 801969 -->
<!-- 4574312640&#45;&gt;801969 -->
<!-- 4574311152 -->
<g id="node7" class="node">
<title>4574311152</title>
<ellipse fill="lightblue" stroke="black" cx="388" cy="-195.79" rx="18" ry="18"/>
<text text-anchor="middle" x="388" y="-192.09" font-family="Helvetica,sans-Serif" font-size="14.00">P</text>
</g>
<!-- 4574312640&#45;&gt;4574311152 -->
<g id="edge6" class="edge">
<title>4574312640&#45;&gt;4574311152</title>
<path fill="none" stroke="black" d="M351.38,-239.67C357.95,-231.97 366.29,-222.2 373.36,-213.94"/>
<polygon fill="black" stroke="black" points="374.79,-214.95 376.71,-210.01 372.13,-212.68 374.79,-214.95"/>
</g>
<!-- 579447 -->
<!-- 4574308416&#45;&gt;579447 -->
<!-- 241661 -->
<!-- 4574308416&#45;&gt;241661 -->
<!-- 4574312352 -->
<g id="node25" class="node">
<title>4574312352</title>
<ellipse fill="lightblue" stroke="black" cx="549" cy="-195.79" rx="18" ry="18"/>
<text text-anchor="middle" x="549" y="-192.09" font-family="Helvetica,sans-Serif" font-size="14.00">Y</text>
</g>
<!-- 4574308416&#45;&gt;4574312352 -->
<g id="edge24" class="edge">
<title>4574308416&#45;&gt;4574312352</title>
<path fill="none" stroke="black" d="M512.38,-239.67C518.95,-231.97 527.29,-222.2 534.36,-213.94"/>
<polygon fill="black" stroke="black" points="535.79,-214.95 537.71,-210.01 533.13,-212.68 535.79,-214.95"/>
</g>
<!-- 4574300544 -->
<g id="node8" class="node">
<title>4574300544</title>
<ellipse fill="lightblue" stroke="black" cx="114" cy="-137.59" rx="18" ry="18"/>
<text text-anchor="middle" x="114" y="-133.89" font-family="Helvetica,sans-Serif" font-size="14.00">I</text>
</g>
<!-- 4574310624&#45;&gt;4574300544 -->
<g id="edge7" class="edge">
<title>4574310624&#45;&gt;4574300544</title>
<path fill="none" stroke="black" d="M211.29,-186.98C191.25,-177.01 156.54,-159.75 134.45,-148.76"/>
<polygon fill="black" stroke="black" points="135.2,-147.18 129.94,-146.52 133.64,-150.31 135.2,-147.18"/>
</g>
<!-- 864744 -->
<!-- 4574310624&#45;&gt;864744 -->
<!-- 4574301840 -->
<g id="node10" class="node">
<title>4574301840</title>
<ellipse fill="lightblue" stroke="black" cx="275" cy="-137.59" rx="18" ry="18"/>
<text text-anchor="middle" x="275" y="-133.89" font-family="Helvetica,sans-Serif" font-size="14.00">N</text>
</g>
<!-- 4574310624&#45;&gt;4574301840 -->
<g id="edge9" class="edge">
<title>4574310624&#45;&gt;4574301840</title>
<path fill="none" stroke="black" d="M238.38,-181.47C244.95,-173.77 253.29,-164.01 260.36,-155.74"/>
<polygon fill="black" stroke="black" points="261.79,-156.75 263.71,-151.81 259.13,-154.48 261.79,-156.75"/>
</g>
<!-- 661351 -->
<!-- 4574311152&#45;&gt;661351 -->
<!-- 967540 -->
<!-- 4574311152&#45;&gt;967540 -->
<!-- 4574298720 -->
<g id="node22" class="node">
<title>4574298720</title>
<ellipse fill="lightblue" stroke="black" cx="436" cy="-137.59" rx="18.4" ry="18.4"/>
<text text-anchor="middle" x="436" y="-133.89" font-family="Helvetica,sans-Serif" font-size="14.00">Q</text>
</g>
<!-- 4574311152&#45;&gt;4574298720 -->
<g id="edge21" class="edge">
<title>4574311152&#45;&gt;4574298720</title>
<path fill="none" stroke="black" d="M399.38,-181.47C405.86,-173.88 414.05,-164.29 421.05,-156.1"/>
<polygon fill="black" stroke="black" points="422.46,-157.14 424.37,-152.2 419.79,-154.87 422.46,-157.14"/>
</g>
<!-- 4574312832 -->
<g id="node11" class="node">
<title>4574312832</title>
<ellipse fill="lightblue" stroke="black" cx="66" cy="-77.9" rx="18" ry="18"/>
<text text-anchor="middle" x="66" y="-74.2" font-family="Helvetica,sans-Serif" font-size="14.00">F</text>
</g>
<!-- 4574300544&#45;&gt;4574312832 -->
<g id="edge10" class="edge">
<title>4574300544&#45;&gt;4574312832</title>
<path fill="none" stroke="black" d="M102.87,-123.21C96.2,-115.2 87.66,-104.93 80.48,-96.3"/>
<polygon fill="black" stroke="black" points="81.62,-94.93 77.07,-92.2 78.92,-97.17 81.62,-94.93"/>
</g>
<!-- 670379 -->
<!-- 4574300544&#45;&gt;670379 -->
<!-- 862861 -->
<!-- 4574300544&#45;&gt;862861 -->
<!-- 4574333408 -->
<g id="node17" class="node">
<title>4574333408</title>
<ellipse fill="lightblue" stroke="black" cx="227" cy="-77.9" rx="18" ry="18"/>
<text text-anchor="middle" x="227" y="-74.2" font-family="Helvetica,sans-Serif" font-size="14.00">L</text>
</g>
<!-- 4574301840&#45;&gt;4574333408 -->
<g id="edge16" class="edge">
<title>4574301840&#45;&gt;4574333408</title>
<path fill="none" stroke="black" d="M263.87,-123.21C257.2,-115.2 248.66,-104.93 241.48,-96.3"/>
<polygon fill="black" stroke="black" points="242.62,-94.93 238.07,-92.2 239.92,-97.17 242.62,-94.93"/>
</g>
<!-- 665264 -->
<!-- 4574301840&#45;&gt;665264 -->
<!-- 682567 -->
<!-- 4574301840&#45;&gt;682567 -->
<!-- 4574340944 -->
<g id="node14" class="node">
<title>4574340944</title>
<ellipse fill="lightblue" stroke="black" cx="18" cy="-18.2" rx="18" ry="18"/>
<text text-anchor="middle" x="18" y="-14.5" font-family="Helvetica,sans-Serif" font-size="14.00">C</text>
</g>
<!-- 4574312832&#45;&gt;4574340944 -->
<g id="edge13" class="edge">
<title>4574312832&#45;&gt;4574340944</title>
<path fill="none" stroke="black" d="M54.87,-63.51C48.2,-55.5 39.66,-45.23 32.48,-36.6"/>
<polygon fill="black" stroke="black" points="33.62,-35.23 29.07,-32.51 30.92,-37.47 33.62,-35.23"/>
</g>
<!-- 396447 -->
<!-- 4574312832&#45;&gt;396447 -->
<!-- 4574338304 -->
<g id="node16" class="node">
<title>4574338304</title>
<ellipse fill="lightblue" stroke="black" cx="114" cy="-18.2" rx="18.4" ry="18.4"/>
<text text-anchor="middle" x="114" y="-14.5" font-family="Helvetica,sans-Serif" font-size="14.00">G</text>
</g>
<!-- 4574312832&#45;&gt;4574338304 -->
<g id="edge15" class="edge">
<title>4574312832&#45;&gt;4574338304</title>
<path fill="none" stroke="black" d="M77.13,-63.51C83.7,-55.62 92.1,-45.53 99.22,-36.97"/>
<polygon fill="black" stroke="black" points="100.74,-37.87 102.59,-32.91 98.05,-35.63 100.74,-37.87"/>
</g>
<!-- 4574339552 -->
<g id="node26" class="node">
<title>4574339552</title>
<ellipse fill="lightblue" stroke="black" cx="501" cy="-137.59" rx="18" ry="18"/>
<text text-anchor="middle" x="501" y="-133.89" font-family="Helvetica,sans-Serif" font-size="14.00">X</text>
</g>
<!-- 4574312352&#45;&gt;4574339552 -->
<g id="edge25" class="edge">
<title>4574312352&#45;&gt;4574339552</title>
<path fill="none" stroke="black" d="M537.62,-181.47C531.05,-173.77 522.71,-164.01 515.64,-155.74"/>
<polygon fill="black" stroke="black" points="516.87,-154.48 512.29,-151.81 514.21,-156.75 516.87,-154.48"/>
</g>
<!-- 388969 -->
<!-- 4574312352&#45;&gt;388969 -->
<!-- 187904 -->
<!-- 4574312352&#45;&gt;187904 -->
<!-- 4574692800 -->
<g id="node29" class="node">
<title>4574692800</title>
<ellipse fill="lightblue" stroke="black" cx="452" cy="-77.9" rx="19.5" ry="19.5"/>
<text text-anchor="middle" x="452" y="-74.2" font-family="Helvetica,sans-Serif" font-size="14.00">W</text>
</g>
<!-- 4574339552&#45;&gt;4574692800 -->
<g id="edge28" class="edge">
<title>4574339552&#45;&gt;4574692800</title>
<path fill="none" stroke="black" d="M489.64,-123.21C483.12,-115.54 474.86,-105.81 467.73,-97.41"/>
<polygon fill="black" stroke="black" points="468.9,-96.1 464.33,-93.42 466.24,-98.36 468.9,-96.1"/>
</g>
<!-- 639327 -->
<!-- 4574339552&#45;&gt;639327 -->
<!-- 193353 -->
<!-- 4574339552&#45;&gt;193353 -->
</g>
</svg>
