<?xml version="1.0" encoding="UTF-8" standalone="no"?>
<!DOCTYPE svg PUBLIC "-//W3C//DTD SVG 1.1//EN"
 "http://www.w3.org/Graphics/SVG/1.1/DTD/svg11.dtd">
<!-- Generated by graphviz version 2.50.0 (0)
 -->
<!-- Pages: 1 -->
<svg width="397pt" height="392pt"
 viewBox="0.00 0.00 397.00 392.40" xmlns="http://www.w3.org/2000/svg" xmlns:xlink="http://www.w3.org/1999/xlink">
<g id="graph0" class="graph" transform="scale(1 1) rotate(0) translate(4 388.4)">
<polygon fill="white" stroke="transparent" points="-4,4 -4,-388.4 393,-388.4 393,4 -4,4"/>
<!-- 4574341952 -->
<g id="node1" class="node">
<title>4574341952</title>
<ellipse fill="lightblue" stroke="black" cx="242" cy="-366.4" rx="18" ry="18"/>
<text text-anchor="middle" x="242" y="-362.7" font-family="Helvetica,sans-Serif" font-size="14.00">R</text>
</g>
<!-- 4574338304 -->
<g id="node2" class="node">
<title>4574338304</title>
<ellipse fill="lightblue" stroke="black" cx="162" cy="-308.4" rx="18" ry="18"/>
<text text-anchor="middle" x="162" y="-304.7" font-family="Helvetica,sans-Serif" font-size="14.00">L</text>
</g>
<!-- 4574341952&#45;&gt;4574338304 -->
<g id="edge1" class="edge">
<title>4574341952&#45;&gt;4574338304</title>
<path fill="none" stroke="black" d="M227.7,-355.39C214.58,-346.2 195.08,-332.55 180.72,-322.5"/>
<polygon fill="black" stroke="black" points="181.55,-320.94 176.45,-319.51 179.54,-323.81 181.55,-320.94"/>
</g>
<!-- 225735 -->
<!-- 4574341952&#45;&gt;225735 -->
<!-- 4574347232 -->
<g id="node4" class="node">
<title>4574347232</title>
<ellipse fill="lightblue" stroke="black" cx="323" cy="-308.4" rx="18" ry="18"/>
<text text-anchor="middle" x="323" y="-304.7" font-family="Helvetica,sans-Serif" font-size="14.00">Y</text>
</g>
<!-- 4574341952&#45;&gt;4574347232 -->
<g id="edge3" class="edge">
<title>4574341952&#45;&gt;4574347232</title>
<path fill="none" stroke="black" d="M256.48,-355.39C269.84,-346.15 289.76,-332.38 304.31,-322.32"/>
<polygon fill="black" stroke="black" points="305.53,-323.6 308.64,-319.32 303.54,-320.73 305.53,-323.6"/>
</g>
<!-- 4574343104 -->
<g id="node5" class="node">
<title>4574343104</title>
<ellipse fill="lightblue" stroke="black" cx="114" cy="-250.2" rx="18.4" ry="18.4"/>
<text text-anchor="middle" x="114" y="-246.5" font-family="Helvetica,sans-Serif" font-size="14.00">G</text>
</g>
<!-- 4574338304&#45;&gt;4574343104 -->
<g id="edge4" class="edge">
<title>4574338304&#45;&gt;4574343104</title>
<path fill="none" stroke="black" d="M150.62,-294.08C144.14,-286.49 135.95,-276.89 128.95,-268.7"/>
<polygon fill="black" stroke="black" points="130.21,-267.48 125.63,-264.81 127.54,-269.75 130.21,-267.48"/>
</g>
<!-- 678960 -->
<!-- 4574338304&#45;&gt;678960 -->
<!-- 4574301840 -->
<g id="node7" class="node">
<title>4574301840</title>
<ellipse fill="lightblue" stroke="black" cx="210" cy="-250.2" rx="18" ry="18"/>
<text text-anchor="middle" x="210" y="-246.5" font-family="Helvetica,sans-Serif" font-size="14.00">P</text>
</g>
<!-- 4574338304&#45;&gt;4574301840 -->
<g id="edge6" class="edge">
<title>4574338304&#45;&gt;4574301840</title>
<path fill="none" stroke="black" d="M173.38,-294.08C179.95,-286.38 188.29,-276.61 195.36,-268.34"/>
<polygon fill="black" stroke="black" points="196.79,-269.36 198.71,-264.42 194.13,-267.09 196.79,-269.36"/>
</g>
<!-- 4574333408 -->
<g id="node20" class="node">
<title>4574333408</title>
<ellipse fill="lightblue" stroke="black" cx="275" cy="-250.2" rx="18" ry="18"/>
<text text-anchor="middle" x="275" y="-246.5" font-family="Helvetica,sans-Serif" font-size="14.00">X</text>
</g>
<!-- 4574347232&#45;&gt;4574333408 -->
<g id="edge19" class="edge">
<title>4574347232&#45;&gt;4574333408</title>
<path fill="none" stroke="black" d="M311.62,-294.08C305.05,-286.38 296.71,-276.61 289.64,-268.34"/>
<polygon fill="black" stroke="black" points="290.87,-267.09 286.29,-264.42 288.21,-269.36 290.87,-267.09"/>
</g>
<!-- 754493 -->
<!-- 4574347232&#45;&gt;754493 -->
<!-- 665600 -->
<!-- 4574347232&#45;&gt;665600 -->
<!-- 4574346608 -->
<g id="node8" class="node">
<title>4574346608</title>
<ellipse fill="lightblue" stroke="black" cx="66" cy="-192" rx="18" ry="18"/>
<text text-anchor="middle" x="66" y="-188.3" font-family="Helvetica,sans-Serif" font-size="14.00">A</text>
</g>
<!-- 4574343104&#45;&gt;4574346608 -->
<g id="edge7" class="edge">
<title>4574343104&#45;&gt;4574346608</title>
<path fill="none" stroke="black" d="M102.62,-235.88C96.05,-228.18 87.71,-218.41 80.64,-210.15"/>
<polygon fill="black" stroke="black" points="81.87,-208.89 77.29,-206.22 79.21,-211.16 81.87,-208.89"/>
</g>
<!-- 959638 -->
<!-- 4574343104&#45;&gt;959638 -->
<!-- 4574310624 -->
<g id="node10" class="node">
<title>4574310624</title>
<ellipse fill="lightblue" stroke="black" cx="162" cy="-192" rx="18" ry="18"/>
<text text-anchor="middle" x="162" y="-188.3" font-family="Helvetica,sans-Serif" font-size="14.00">J</text>
</g>
<!-- 4574343104&#45;&gt;4574310624 -->
<g id="edge9" class="edge">
<title>4574343104&#45;&gt;4574310624</title>
<path fill="none" stroke="black" d="M125.38,-235.88C131.95,-228.18 140.29,-218.41 147.36,-210.15"/>
<polygon fill="black" stroke="black" points="148.79,-211.16 150.71,-206.22 146.13,-208.89 148.79,-211.16"/>
</g>
<!-- 749781 -->
<!-- 4574346608&#45;&gt;749781 -->
<!-- 719922 -->
<!-- 4574346608&#45;&gt;719922 -->
<!-- 4574337104 -->
<g id="node13" class="node">
<title>4574337104</title>
<ellipse fill="lightblue" stroke="black" cx="114" cy="-134" rx="18" ry="18"/>
<text text-anchor="middle" x="114" y="-130.3" font-family="Helvetica,sans-Serif" font-size="14.00">C</text>
</g>
<!-- 4574346608&#45;&gt;4574337104 -->
<g id="edge12" class="edge">
<title>4574346608&#45;&gt;4574337104</title>
<path fill="none" stroke="black" d="M77.38,-177.73C83.95,-170.06 92.29,-160.32 99.36,-152.08"/>
<polygon fill="black" stroke="black" points="100.78,-153.11 102.71,-148.18 98.12,-150.83 100.78,-153.11"/>
</g>
<!-- 4574306064 -->
<g id="node14" class="node">
<title>4574306064</title>
<ellipse fill="lightblue" stroke="black" cx="66" cy="-76" rx="18" ry="18"/>
<text text-anchor="middle" x="66" y="-72.3" font-family="Helvetica,sans-Serif" font-size="14.00">B</text>
</g>
<!-- 4574337104&#45;&gt;4574306064 -->
<g id="edge13" class="edge">
<title>4574337104&#45;&gt;4574306064</title>
<path fill="none" stroke="black" d="M102.62,-119.73C96.05,-112.06 87.71,-102.32 80.64,-94.08"/>
<polygon fill="black" stroke="black" points="81.88,-92.83 77.29,-90.18 79.22,-95.11 81.88,-92.83"/>
</g>
<!-- 593808 -->
<!-- 4574337104&#45;&gt;593808 -->
<!-- 4574313984 -->
<g id="node16" class="node">
<title>4574313984</title>
<ellipse fill="lightblue" stroke="black" cx="162" cy="-76" rx="18" ry="18"/>
<text text-anchor="middle" x="162" y="-72.3" font-family="Helvetica,sans-Serif" font-size="14.00">F</text>
</g>
<!-- 4574337104&#45;&gt;4574313984 -->
<g id="edge15" class="edge">
<title>4574337104&#45;&gt;4574313984</title>
<path fill="none" stroke="black" d="M125.38,-119.73C131.95,-112.06 140.29,-102.32 147.36,-94.08"/>
<polygon fill="black" stroke="black" points="148.78,-95.11 150.71,-90.18 146.12,-92.83 148.78,-95.11"/>
</g>
<!-- 4574312640 -->
<g id="node17" class="node">
<title>4574312640</title>
<ellipse fill="lightblue" stroke="black" cx="114" cy="-18" rx="18" ry="18"/>
<text text-anchor="middle" x="114" y="-14.3" font-family="Helvetica,sans-Serif" font-size="14.00">E</text>
</g>
<!-- 4574313984&#45;&gt;4574312640 -->
<g id="edge16" class="edge">
<title>4574313984&#45;&gt;4574312640</title>
<path fill="none" stroke="black" d="M150.62,-61.73C144.05,-54.06 135.71,-44.32 128.64,-36.08"/>
<polygon fill="black" stroke="black" points="129.88,-34.83 125.29,-32.18 127.22,-37.11 129.88,-34.83"/>
</g>
<!-- 504677 -->
<!-- 4574313984&#45;&gt;504677 -->
<!-- 797416 -->
<!-- 4574313984&#45;&gt;797416 -->
<!-- 4574339552 -->
<g id="node23" class="node">
<title>4574339552</title>
<ellipse fill="lightblue" stroke="black" cx="227" cy="-192" rx="18" ry="18"/>
<text text-anchor="middle" x="227" y="-188.3" font-family="Helvetica,sans-Serif" font-size="14.00">T</text>
</g>
<!-- 4574333408&#45;&gt;4574339552 -->
<g id="edge22" class="edge">
<title>4574333408&#45;&gt;4574339552</title>
<path fill="none" stroke="black" d="M263.62,-235.88C257.05,-228.18 248.71,-218.41 241.64,-210.15"/>
<polygon fill="black" stroke="black" points="242.87,-208.89 238.29,-206.22 240.21,-211.16 242.87,-208.89"/>
</g>
<!-- 498455 -->
<!-- 4574333408&#45;&gt;498455 -->
<!-- 265858 -->
<!-- 4574333408&#45;&gt;265858 -->
<!-- 349877 -->
<!-- 4574339552&#45;&gt;349877 -->
<!-- 821969 -->
<!-- 4574339552&#45;&gt;821969 -->
<!-- 4574314224 -->
<g id="node28" class="node">
<title>4574314224</title>
<ellipse fill="lightblue" stroke="black" cx="275" cy="-134" rx="18" ry="18"/>
<text text-anchor="middle" x="275" y="-130.3" font-family="Helvetica,sans-Serif" font-size="14.00">U</text>
</g>
<!-- 4574339552&#45;&gt;4574314224 -->
<g id="edge27" class="edge">
<title>4574339552&#45;&gt;4574314224</title>
<path fill="none" stroke="black" d="M238.38,-177.73C244.95,-170.06 253.29,-160.32 260.36,-152.08"/>
<polygon fill="black" stroke="black" points="261.78,-153.11 263.71,-148.18 259.12,-150.83 261.78,-153.11"/>
</g>
<!-- 154266 -->
<!-- 4574314224&#45;&gt;154266 -->
<!-- 350053 -->
<!-- 4574314224&#45;&gt;350053 -->
<!-- 4574313792 -->
<g id="node31" class="node">
<title>4574313792</title>
<ellipse fill="lightblue" stroke="black" cx="323" cy="-76" rx="18" ry="18"/>
<text text-anchor="middle" x="323" y="-72.3" font-family="Helvetica,sans-Serif" font-size="14.00">V</text>
</g>
<!-- 4574314224&#45;&gt;4574313792 -->
<g id="edge30" class="edge">
<title>4574314224&#45;&gt;4574313792</title>
<path fill="none" stroke="black" d="M286.38,-119.73C292.95,-112.06 301.29,-102.32 308.36,-94.08"/>
<polygon fill="black" stroke="black" points="309.78,-95.11 311.71,-90.18 307.12,-92.83 309.78,-95.11"/>
</g>
</g>
</svg>
