<?xml version="1.0" encoding="UTF-8" standalone="no"?>
<!DOCTYPE svg PUBLIC "-//W3C//DTD SVG 1.1//EN"
 "http://www.w3.org/Graphics/SVG/1.1/DTD/svg11.dtd">
<!-- Generated by graphviz version 2.50.0 (0)
 -->
<!-- Pages: 1 -->
<svg width="606pt" height="335pt"
 viewBox="0.00 0.00 606.00 335.19" xmlns="http://www.w3.org/2000/svg" xmlns:xlink="http://www.w3.org/1999/xlink">
<g id="graph0" class="graph" transform="scale(1 1) rotate(0) translate(4 331.19)">
<polygon fill="white" stroke="transparent" points="-4,4 -4,-331.19 602,-331.19 602,4 -4,4"/>
<!-- 4574338304 -->
<g id="node1" class="node">
<title>4574338304</title>
<ellipse fill="lightblue" stroke="black" cx="355" cy="-309.19" rx="18" ry="18"/>
<text text-anchor="middle" x="355" y="-305.49" font-family="Helvetica,sans-Serif" font-size="14.00">L</text>
</g>
<!-- 4574340944 -->
<g id="node2" class="node">
<title>4574340944</title>
<ellipse fill="lightblue" stroke="black" cx="275" cy="-251.19" rx="18" ry="18"/>
<text text-anchor="middle" x="275" y="-247.49" font-family="Helvetica,sans-Serif" font-size="14.00">K</text>
</g>
<!-- 4574338304&#45;&gt;4574340944 -->
<g id="edge1" class="edge">
<title>4574338304&#45;&gt;4574340944</title>
<path fill="none" stroke="black" d="M340.7,-298.18C327.58,-289 308.08,-275.34 293.72,-265.3"/>
<polygon fill="black" stroke="black" points="294.55,-263.74 289.45,-262.3 292.54,-266.61 294.55,-263.74"/>
</g>
<!-- 226693 -->
<!-- 4574338304&#45;&gt;226693 -->
<!-- 4574312112 -->
<g id="node4" class="node">
<title>4574312112</title>
<ellipse fill="lightblue" stroke="black" cx="532" cy="-251.19" rx="18" ry="18"/>
<text text-anchor="middle" x="532" y="-247.49" font-family="Helvetica,sans-Serif" font-size="14.00">T</text>
</g>
<!-- 4574338304&#45;&gt;4574312112 -->
<g id="edge3" class="edge">
<title>4574338304&#45;&gt;4574312112</title>
<path fill="none" stroke="black" d="M371.97,-302.82C404.22,-292.62 474.3,-270.44 510.06,-259.13"/>
<polygon fill="black" stroke="black" points="510.84,-260.72 515.08,-257.54 509.78,-257.38 510.84,-260.72"/>
</g>
<!-- 4574339552 -->
<g id="node5" class="node">
<title>4574339552</title>
<ellipse fill="lightblue" stroke="black" cx="131" cy="-192.99" rx="18" ry="18"/>
<text text-anchor="middle" x="131" y="-189.29" font-family="Helvetica,sans-Serif" font-size="14.00">B</text>
</g>
<!-- 4574340944&#45;&gt;4574339552 -->
<g id="edge4" class="edge">
<title>4574340944&#45;&gt;4574339552</title>
<path fill="none" stroke="black" d="M258.48,-243.74C232.36,-233.55 181.53,-213.71 152.57,-202.41"/>
<polygon fill="black" stroke="black" points="153.06,-200.72 147.77,-200.54 151.79,-203.98 153.06,-200.72"/>
</g>
<!-- 521671 -->
<!-- 4574340944&#45;&gt;521671 -->
<!-- 261488 -->
<!-- 4574340944&#45;&gt;261488 -->
<!-- 4574311152 -->
<g id="node20" class="node">
<title>4574311152</title>
<ellipse fill="lightblue" stroke="black" cx="484" cy="-192.99" rx="18.4" ry="18.4"/>
<text text-anchor="middle" x="484" y="-189.29" font-family="Helvetica,sans-Serif" font-size="14.00">Q</text>
</g>
<!-- 4574312112&#45;&gt;4574311152 -->
<g id="edge19" class="edge">
<title>4574312112&#45;&gt;4574311152</title>
<path fill="none" stroke="black" d="M520.62,-236.87C514.14,-229.28 505.95,-219.69 498.95,-211.5"/>
<polygon fill="black" stroke="black" points="500.21,-210.27 495.63,-207.6 497.54,-212.54 500.21,-210.27"/>
</g>
<!-- 22980 -->
<!-- 4574312112&#45;&gt;22980 -->
<!-- 4574309808 -->
<g id="node22" class="node">
<title>4574309808</title>
<ellipse fill="lightblue" stroke="black" cx="580" cy="-192.99" rx="18" ry="18"/>
<text text-anchor="middle" x="580" y="-189.29" font-family="Helvetica,sans-Serif" font-size="14.00">Y</text>
</g>
<!-- 4574312112&#45;&gt;4574309808 -->
<g id="edge21" class="edge">
<title>4574312112&#45;&gt;4574309808</title>
<path fill="none" stroke="black" d="M543.38,-236.87C549.95,-229.17 558.29,-219.41 565.36,-211.14"/>
<polygon fill="black" stroke="black" points="566.79,-212.15 568.71,-207.21 564.13,-209.88 566.79,-212.15"/>
</g>
<!-- 4574314416 -->
<g id="node8" class="node">
<title>4574314416</title>
<ellipse fill="lightblue" stroke="black" cx="83" cy="-134.6" rx="18" ry="18"/>
<text text-anchor="middle" x="83" y="-130.9" font-family="Helvetica,sans-Serif" font-size="14.00">A</text>
</g>
<!-- 4574339552&#45;&gt;4574314416 -->
<g id="edge7" class="edge">
<title>4574339552&#45;&gt;4574314416</title>
<path fill="none" stroke="black" d="M119.62,-178.63C113.05,-170.9 104.71,-161.1 97.64,-152.8"/>
<polygon fill="black" stroke="black" points="98.87,-151.54 94.29,-148.86 96.2,-153.81 98.87,-151.54"/>
</g>
<!-- 346553 -->
<!-- 4574339552&#45;&gt;346553 -->
<!-- 4574333408 -->
<g id="node10" class="node">
<title>4574333408</title>
<ellipse fill="lightblue" stroke="black" cx="179" cy="-134.6" rx="18.4" ry="18.4"/>
<text text-anchor="middle" x="179" y="-130.9" font-family="Helvetica,sans-Serif" font-size="14.00">G</text>
</g>
<!-- 4574339552&#45;&gt;4574333408 -->
<g id="edge9" class="edge">
<title>4574339552&#45;&gt;4574333408</title>
<path fill="none" stroke="black" d="M142.38,-178.63C148.86,-171.01 157.05,-161.38 164.05,-153.16"/>
<polygon fill="black" stroke="black" points="165.46,-154.2 167.37,-149.26 162.8,-151.93 165.46,-154.2"/>
</g>
<!-- 4574310624 -->
<g id="node11" class="node">
<title>4574310624</title>
<ellipse fill="lightblue" stroke="black" cx="66" cy="-76.2" rx="18" ry="18"/>
<text text-anchor="middle" x="66" y="-72.5" font-family="Helvetica,sans-Serif" font-size="14.00">D</text>
</g>
<!-- 4574333408&#45;&gt;4574310624 -->
<g id="edge10" class="edge">
<title>4574333408&#45;&gt;4574310624</title>
<path fill="none" stroke="black" d="M162.81,-125.51C142.73,-115.49 108.46,-98.39 86.55,-87.45"/>
<polygon fill="black" stroke="black" points="87.05,-85.75 81.8,-85.08 85.49,-88.88 87.05,-85.75"/>
</g>
<!-- 490162 -->
<!-- 4574333408&#45;&gt;490162 -->
<!-- 4574313984 -->
<g id="node13" class="node">
<title>4574313984</title>
<ellipse fill="lightblue" stroke="black" cx="227" cy="-76.2" rx="18" ry="18"/>
<text text-anchor="middle" x="227" y="-72.5" font-family="Helvetica,sans-Serif" font-size="14.00">I</text>
</g>
<!-- 4574333408&#45;&gt;4574313984 -->
<g id="edge12" class="edge">
<title>4574333408&#45;&gt;4574313984</title>
<path fill="none" stroke="black" d="M190.38,-120.23C196.95,-112.5 205.29,-102.7 212.36,-94.4"/>
<polygon fill="black" stroke="black" points="213.8,-95.41 215.71,-90.47 211.13,-93.14 213.8,-95.41"/>
</g>
<!-- 445921 -->
<!-- 4574310624&#45;&gt;445921 -->
<!-- 921033 -->
<!-- 4574310624&#45;&gt;921033 -->
<!-- 4574311056 -->
<g id="node16" class="node">
<title>4574311056</title>
<ellipse fill="lightblue" stroke="black" cx="114" cy="-18" rx="18" ry="18"/>
<text text-anchor="middle" x="114" y="-14.3" font-family="Helvetica,sans-Serif" font-size="14.00">F</text>
</g>
<!-- 4574310624&#45;&gt;4574311056 -->
<g id="edge15" class="edge">
<title>4574310624&#45;&gt;4574311056</title>
<path fill="none" stroke="black" d="M77.38,-61.88C83.95,-54.18 92.29,-44.41 99.36,-36.15"/>
<polygon fill="black" stroke="black" points="100.79,-37.16 102.71,-32.22 98.13,-34.89 100.79,-37.16"/>
</g>
<!-- 491498 -->
<!-- 4574313984&#45;&gt;491498 -->
<!-- 829733 -->
<!-- 4574313984&#45;&gt;829733 -->
<!-- 4574298720 -->
<g id="node19" class="node">
<title>4574298720</title>
<ellipse fill="lightblue" stroke="black" cx="275" cy="-18" rx="18" ry="18"/>
<text text-anchor="middle" x="275" y="-14.3" font-family="Helvetica,sans-Serif" font-size="14.00">J</text>
</g>
<!-- 4574313984&#45;&gt;4574298720 -->
<g id="edge18" class="edge">
<title>4574313984&#45;&gt;4574298720</title>
<path fill="none" stroke="black" d="M238.38,-61.88C244.95,-54.18 253.29,-44.41 260.36,-36.15"/>
<polygon fill="black" stroke="black" points="261.79,-37.16 263.71,-32.22 259.13,-34.89 261.79,-37.16"/>
</g>
<!-- 4574313168 -->
<g id="node23" class="node">
<title>4574313168</title>
<ellipse fill="lightblue" stroke="black" cx="436" cy="-134.6" rx="18" ry="18"/>
<text text-anchor="middle" x="436" y="-130.9" font-family="Helvetica,sans-Serif" font-size="14.00">P</text>
</g>
<!-- 4574311152&#45;&gt;4574313168 -->
<g id="edge22" class="edge">
<title>4574311152&#45;&gt;4574313168</title>
<path fill="none" stroke="black" d="M472.62,-178.63C466.05,-170.9 457.71,-161.1 450.64,-152.8"/>
<polygon fill="black" stroke="black" points="451.87,-151.54 447.29,-148.86 449.2,-153.81 451.87,-151.54"/>
</g>
<!-- 69472 -->
<!-- 4574311152&#45;&gt;69472 -->
<!-- 321625 -->
<!-- 4574311152&#45;&gt;321625 -->
<!-- 4574300976 -->
<g id="node26" class="node">
<title>4574300976</title>
<ellipse fill="lightblue" stroke="black" cx="388" cy="-76.2" rx="18.4" ry="18.4"/>
<text text-anchor="middle" x="388" y="-72.5" font-family="Helvetica,sans-Serif" font-size="14.00">O</text>
</g>
<!-- 4574313168&#45;&gt;4574300976 -->
<g id="edge25" class="edge">
<title>4574313168&#45;&gt;4574300976</title>
<path fill="none" stroke="black" d="M424.62,-120.23C418.14,-112.62 409.95,-102.99 402.95,-94.77"/>
<polygon fill="black" stroke="black" points="404.2,-93.53 399.63,-90.86 401.54,-95.8 404.2,-93.53"/>
</g>
<!-- 321732 -->
<!-- 4574313168&#45;&gt;321732 -->
<!-- 350440 -->
<!-- 4574313168&#45;&gt;350440 -->
<!-- 4574705616 -->
<g id="node29" class="node">
<title>4574705616</title>
<ellipse fill="lightblue" stroke="black" cx="340" cy="-18" rx="18" ry="18"/>
<text text-anchor="middle" x="340" y="-14.3" font-family="Helvetica,sans-Serif" font-size="14.00">N</text>
</g>
<!-- 4574300976&#45;&gt;4574705616 -->
<g id="edge28" class="edge">
<title>4574300976&#45;&gt;4574705616</title>
<path fill="none" stroke="black" d="M376.62,-61.88C370.05,-54.18 361.71,-44.41 354.64,-36.15"/>
<polygon fill="black" stroke="black" points="355.87,-34.89 351.29,-32.22 353.21,-37.16 355.87,-34.89"/>
</g>
<!-- 768802 -->
<!-- 4574300976&#45;&gt;768802 -->
<!-- 303369 -->
<!-- 4574300976&#45;&gt;303369 -->
</g>
</svg>
