<?xml version="1.0" encoding="UTF-8" standalone="no"?>
<!DOCTYPE svg PUBLIC "-//W3C//DTD SVG 1.1//EN"
 "http://www.w3.org/Graphics/SVG/1.1/DTD/svg11.dtd">
<!-- Generated by graphviz version 2.50.0 (0)
 -->
<!-- Pages: 1 -->
<svg width="331pt" height="388pt"
 viewBox="0.00 0.00 330.80 388.38" xmlns="http://www.w3.org/2000/svg" xmlns:xlink="http://www.w3.org/1999/xlink">
<g id="graph0" class="graph" transform="scale(1 1) rotate(0) translate(4 384.38)">
<polygon fill="white" stroke="transparent" points="-4,4 -4,-384.38 326.8,-384.38 326.8,4 -4,4"/>
<!-- 4628138272 -->
<g id="node1" class="node">
<title>4628138272</title>
<ellipse fill="lightblue" stroke="black" cx="252" cy="-359.58" rx="20.6" ry="20.6"/>
<text text-anchor="middle" x="252" y="-355.88" font-family="Helvetica,sans-Serif" font-size="14.00">15</text>
</g>
<!-- 4628141488 -->
<g id="node2" class="node">
<title>4628141488</title>
<ellipse fill="lightblue" stroke="black" cx="204" cy="-295.98" rx="18.7" ry="18.7"/>
<text text-anchor="middle" x="204" y="-292.28" font-family="Helvetica,sans-Serif" font-size="14.00">&#45;8</text>
</g>
<!-- 4628138272&#45;&gt;4628141488 -->
<g id="edge1" class="edge">
<title>4628138272&#45;&gt;4628141488</title>
<path fill="none" stroke="black" d="M239.64,-342.72C233.15,-334.38 225.15,-324.13 218.38,-315.44"/>
<polygon fill="black" stroke="black" points="219.62,-314.18 215.17,-311.32 216.86,-316.34 219.62,-314.18"/>
</g>
<!-- 52451 -->
<!-- 4628138272&#45;&gt;52451 -->
<!-- 4628141296 -->
<g id="node4" class="node">
<title>4628141296</title>
<ellipse fill="lightblue" stroke="black" cx="302" cy="-295.98" rx="20.6" ry="20.6"/>
<text text-anchor="middle" x="302" y="-292.28" font-family="Helvetica,sans-Serif" font-size="14.00">16</text>
</g>
<!-- 4628138272&#45;&gt;4628141296 -->
<g id="edge3" class="edge">
<title>4628138272&#45;&gt;4628141296</title>
<path fill="none" stroke="black" d="M264.62,-343.03C271.08,-335.07 279.02,-325.29 285.92,-316.79"/>
<polygon fill="black" stroke="black" points="287.42,-317.72 289.21,-312.73 284.7,-315.51 287.42,-317.72"/>
</g>
<!-- 4628148016 -->
<g id="node5" class="node">
<title>4628148016</title>
<ellipse fill="lightblue" stroke="black" cx="151" cy="-229.79" rx="23.3" ry="23.3"/>
<text text-anchor="middle" x="151" y="-226.09" font-family="Helvetica,sans-Serif" font-size="14.00">&#45;12</text>
</g>
<!-- 4628141488&#45;&gt;4628148016 -->
<g id="edge4" class="edge">
<title>4628141488&#45;&gt;4628148016</title>
<path fill="none" stroke="black" d="M192.24,-280.73C185.41,-272.46 176.66,-261.87 168.98,-252.56"/>
<polygon fill="black" stroke="black" points="170.3,-251.41 165.76,-248.67 167.6,-253.64 170.3,-251.41"/>
</g>
<!-- 99211 -->
<!-- 4628141488&#45;&gt;99211 -->
<!-- 4628144704 -->
<g id="node7" class="node">
<title>4628144704</title>
<ellipse fill="lightblue" stroke="black" cx="252" cy="-229.79" rx="18" ry="18"/>
<text text-anchor="middle" x="252" y="-226.09" font-family="Helvetica,sans-Serif" font-size="14.00">2</text>
</g>
<!-- 4628141488&#45;&gt;4628144704 -->
<g id="edge6" class="edge">
<title>4628141488&#45;&gt;4628144704</title>
<path fill="none" stroke="black" d="M214.89,-280.41C221.86,-271.09 230.96,-258.92 238.4,-248.97"/>
<polygon fill="black" stroke="black" points="239.89,-249.91 241.48,-244.85 237.09,-247.81 239.89,-249.91"/>
</g>
<!-- 4628138032 -->
<g id="node8" class="node">
<title>4628138032</title>
<ellipse fill="lightblue" stroke="black" cx="66" cy="-160.99" rx="23.3" ry="23.3"/>
<text text-anchor="middle" x="66" y="-157.29" font-family="Helvetica,sans-Serif" font-size="14.00">&#45;20</text>
</g>
<!-- 4628148016&#45;&gt;4628138032 -->
<g id="edge7" class="edge">
<title>4628148016&#45;&gt;4628138032</title>
<path fill="none" stroke="black" d="M132.97,-214.62C119.9,-204.35 102.14,-190.39 88.2,-179.43"/>
<polygon fill="black" stroke="black" points="89.01,-177.85 84,-176.13 86.85,-180.6 89.01,-177.85"/>
</g>
<!-- 517725 -->
<!-- 4628148016&#45;&gt;517725 -->
<!-- 4628149552 -->
<g id="node10" class="node">
<title>4628149552</title>
<ellipse fill="lightblue" stroke="black" cx="237" cy="-160.99" rx="23.3" ry="23.3"/>
<text text-anchor="middle" x="237" y="-157.29" font-family="Helvetica,sans-Serif" font-size="14.00">&#45;11</text>
</g>
<!-- 4628148016&#45;&gt;4628149552 -->
<g id="edge9" class="edge">
<title>4628148016&#45;&gt;4628149552</title>
<path fill="none" stroke="black" d="M169.24,-214.62C182.46,-204.35 200.43,-190.39 214.54,-179.43"/>
<polygon fill="black" stroke="black" points="215.91,-180.58 218.79,-176.13 213.77,-177.82 215.91,-180.58"/>
</g>
<!-- 448619 -->
<!-- 4628138032&#45;&gt;448619 -->
<!-- 104059 -->
<!-- 4628138032&#45;&gt;104059 -->
<!-- 4628140912 -->
<g id="node13" class="node">
<title>4628140912</title>
<ellipse fill="lightblue" stroke="black" cx="119" cy="-92.19" rx="23.3" ry="23.3"/>
<text text-anchor="middle" x="119" y="-88.49" font-family="Helvetica,sans-Serif" font-size="14.00">&#45;18</text>
</g>
<!-- 4628138032&#45;&gt;4628140912 -->
<g id="edge12" class="edge">
<title>4628138032&#45;&gt;4628140912</title>
<path fill="none" stroke="black" d="M80.2,-142.09C86.74,-133.85 94.55,-124 101.45,-115.31"/>
<polygon fill="black" stroke="black" points="103.02,-116.15 104.76,-111.14 100.28,-113.97 103.02,-116.15"/>
</g>
<!-- 739244 -->
<!-- 4628149552&#45;&gt;739244 -->
<!-- 290975 -->
<!-- 4628149552&#45;&gt;290975 -->
<!-- 4628151328 -->
<g id="node19" class="node">
<title>4628151328</title>
<ellipse fill="lightblue" stroke="black" cx="285" cy="-92.19" rx="18.7" ry="18.7"/>
<text text-anchor="middle" x="285" y="-88.49" font-family="Helvetica,sans-Serif" font-size="14.00">&#45;9</text>
</g>
<!-- 4628149552&#45;&gt;4628151328 -->
<g id="edge18" class="edge">
<title>4628149552&#45;&gt;4628151328</title>
<path fill="none" stroke="black" d="M250.37,-141.38C256.85,-132.36 264.64,-121.53 271.18,-112.43"/>
<polygon fill="black" stroke="black" points="272.78,-113.19 274.28,-108.11 269.94,-111.15 272.78,-113.19"/>
</g>
<!-- 364217 -->
<!-- 4628140912&#45;&gt;364217 -->
<!-- 772819 -->
<!-- 4628140912&#45;&gt;772819 -->
<!-- 4628147632 -->
<g id="node16" class="node">
<title>4628147632</title>
<ellipse fill="lightblue" stroke="black" cx="172" cy="-23.4" rx="23.3" ry="23.3"/>
<text text-anchor="middle" x="172" y="-19.7" font-family="Helvetica,sans-Serif" font-size="14.00">&#45;17</text>
</g>
<!-- 4628140912&#45;&gt;4628147632 -->
<g id="edge15" class="edge">
<title>4628140912&#45;&gt;4628147632</title>
<path fill="none" stroke="black" d="M133.2,-73.29C139.74,-65.06 147.55,-55.21 154.45,-46.51"/>
<polygon fill="black" stroke="black" points="156.02,-47.35 157.76,-42.35 153.28,-45.18 156.02,-47.35"/>
</g>
</g>
</svg>
