<?xml version="1.0" encoding="UTF-8" standalone="no"?>
<!DOCTYPE svg PUBLIC "-//W3C//DTD SVG 1.1//EN"
 "http://www.w3.org/Graphics/SVG/1.1/DTD/svg11.dtd">
<!-- Generated by graphviz version 2.50.0 (0)
 -->
<!-- Pages: 1 -->
<svg width="510pt" height="339pt"
 viewBox="0.00 0.00 510.00 338.69" xmlns="http://www.w3.org/2000/svg" xmlns:xlink="http://www.w3.org/1999/xlink">
<g id="graph0" class="graph" transform="scale(1 1) rotate(0) translate(4 334.69)">
<polygon fill="white" stroke="transparent" points="-4,4 -4,-334.69 506,-334.69 506,4 -4,4"/>
<!-- 4574307648 -->
<g id="node1" class="node">
<title>4574307648</title>
<ellipse fill="lightblue" stroke="black" cx="194" cy="-312.69" rx="18" ry="18"/>
<text text-anchor="middle" x="194" y="-308.99" font-family="Helvetica,sans-Serif" font-size="14.00">N</text>
</g>
<!-- 4574313168 -->
<g id="node2" class="node">
<title>4574313168</title>
<ellipse fill="lightblue" stroke="black" cx="66" cy="-254.69" rx="18" ry="18"/>
<text text-anchor="middle" x="66" y="-250.99" font-family="Helvetica,sans-Serif" font-size="14.00">B</text>
</g>
<!-- 4574307648&#45;&gt;4574313168 -->
<g id="edge1" class="edge">
<title>4574307648&#45;&gt;4574313168</title>
<path fill="none" stroke="black" d="M177.79,-304.6C154.83,-294.56 112.82,-276.18 87.35,-265.03"/>
<polygon fill="black" stroke="black" points="87.77,-263.31 82.48,-262.9 86.36,-266.51 87.77,-263.31"/>
</g>
<!-- 859580 -->
<!-- 4574307648&#45;&gt;859580 -->
<!-- 4574314416 -->
<g id="node4" class="node">
<title>4574314416</title>
<ellipse fill="lightblue" stroke="black" cx="323" cy="-254.69" rx="18" ry="18"/>
<text text-anchor="middle" x="323" y="-250.99" font-family="Helvetica,sans-Serif" font-size="14.00">U</text>
</g>
<!-- 4574307648&#45;&gt;4574314416 -->
<g id="edge3" class="edge">
<title>4574307648&#45;&gt;4574314416</title>
<path fill="none" stroke="black" d="M210.34,-304.6C233.6,-294.5 276.28,-275.97 301.91,-264.85"/>
<polygon fill="black" stroke="black" points="302.91,-266.32 306.79,-262.73 301.51,-263.11 302.91,-266.32"/>
</g>
<!-- 4574333408 -->
<g id="node5" class="node">
<title>4574333408</title>
<ellipse fill="lightblue" stroke="black" cx="18" cy="-195.19" rx="18" ry="18"/>
<text text-anchor="middle" x="18" y="-191.49" font-family="Helvetica,sans-Serif" font-size="14.00">A</text>
</g>
<!-- 4574313168&#45;&gt;4574333408 -->
<g id="edge4" class="edge">
<title>4574313168&#45;&gt;4574333408</title>
<path fill="none" stroke="black" d="M54.87,-240.36C48.2,-232.37 39.66,-222.14 32.48,-213.54"/>
<polygon fill="black" stroke="black" points="33.62,-212.18 29.07,-209.46 30.93,-214.42 33.62,-212.18"/>
</g>
<!-- 625119 -->
<!-- 4574313168&#45;&gt;625119 -->
<!-- 4574313984 -->
<g id="node7" class="node">
<title>4574313984</title>
<ellipse fill="lightblue" stroke="black" cx="114" cy="-195.19" rx="18.4" ry="18.4"/>
<text text-anchor="middle" x="114" y="-191.49" font-family="Helvetica,sans-Serif" font-size="14.00">G</text>
</g>
<!-- 4574313168&#45;&gt;4574313984 -->
<g id="edge6" class="edge">
<title>4574313168&#45;&gt;4574313984</title>
<path fill="none" stroke="black" d="M77.13,-240.36C83.7,-232.49 92.1,-222.43 99.22,-213.91"/>
<polygon fill="black" stroke="black" points="100.73,-214.82 102.59,-209.86 98.05,-212.57 100.73,-214.82"/>
</g>
<!-- 4574309808 -->
<g id="node17" class="node">
<title>4574309808</title>
<ellipse fill="lightblue" stroke="black" cx="275" cy="-195.19" rx="18" ry="18"/>
<text text-anchor="middle" x="275" y="-191.49" font-family="Helvetica,sans-Serif" font-size="14.00">S</text>
</g>
<!-- 4574314416&#45;&gt;4574309808 -->
<g id="edge16" class="edge">
<title>4574314416&#45;&gt;4574309808</title>
<path fill="none" stroke="black" d="M311.87,-240.36C305.2,-232.37 296.66,-222.14 289.48,-213.54"/>
<polygon fill="black" stroke="black" points="290.62,-212.18 286.07,-209.46 287.93,-214.42 290.62,-212.18"/>
</g>
<!-- 811140 -->
<!-- 4574314416&#45;&gt;811140 -->
<!-- 4574311056 -->
<g id="node19" class="node">
<title>4574311056</title>
<ellipse fill="lightblue" stroke="black" cx="436" cy="-195.19" rx="19.5" ry="19.5"/>
<text text-anchor="middle" x="436" y="-191.49" font-family="Helvetica,sans-Serif" font-size="14.00">W</text>
</g>
<!-- 4574314416&#45;&gt;4574311056 -->
<g id="edge18" class="edge">
<title>4574314416&#45;&gt;4574311056</title>
<path fill="none" stroke="black" d="M338.71,-245.7C358.41,-235.67 392.29,-218.44 414.41,-207.18"/>
<polygon fill="black" stroke="black" points="415.28,-208.7 418.95,-204.87 413.7,-205.58 415.28,-208.7"/>
</g>
<!-- 4574692080 -->
<g id="node8" class="node">
<title>4574692080</title>
<ellipse fill="lightblue" stroke="black" cx="66" cy="-135.7" rx="18" ry="18"/>
<text text-anchor="middle" x="66" y="-132" font-family="Helvetica,sans-Serif" font-size="14.00">D</text>
</g>
<!-- 4574313984&#45;&gt;4574692080 -->
<g id="edge7" class="edge">
<title>4574313984&#45;&gt;4574692080</title>
<path fill="none" stroke="black" d="M102.62,-180.57C96.05,-172.69 87.71,-162.7 80.64,-154.24"/>
<polygon fill="black" stroke="black" points="81.84,-152.94 77.29,-150.23 79.15,-155.18 81.84,-152.94"/>
</g>
<!-- 751270 -->
<!-- 4574313984&#45;&gt;751270 -->
<!-- 4574312112 -->
<g id="node10" class="node">
<title>4574312112</title>
<ellipse fill="lightblue" stroke="black" cx="162" cy="-135.7" rx="18" ry="18"/>
<text text-anchor="middle" x="162" y="-132" font-family="Helvetica,sans-Serif" font-size="14.00">I</text>
</g>
<!-- 4574313984&#45;&gt;4574312112 -->
<g id="edge9" class="edge">
<title>4574313984&#45;&gt;4574312112</title>
<path fill="none" stroke="black" d="M125.38,-180.57C131.95,-172.69 140.29,-162.7 147.36,-154.24"/>
<polygon fill="black" stroke="black" points="148.85,-155.18 150.71,-150.23 146.16,-152.94 148.85,-155.18"/>
</g>
<!-- 4574312832 -->
<g id="node11" class="node">
<title>4574312832</title>
<ellipse fill="lightblue" stroke="black" cx="114" cy="-76.85" rx="18" ry="18"/>
<text text-anchor="middle" x="114" y="-73.15" font-family="Helvetica,sans-Serif" font-size="14.00">H</text>
</g>
<!-- 4574312112&#45;&gt;4574312832 -->
<g id="edge10" class="edge">
<title>4574312112&#45;&gt;4574312832</title>
<path fill="none" stroke="black" d="M150.87,-121.51C144.3,-113.73 135.9,-103.79 128.78,-95.36"/>
<polygon fill="black" stroke="black" points="129.97,-94.05 125.41,-91.36 127.29,-96.31 129.97,-94.05"/>
</g>
<!-- 65195 -->
<!-- 4574312112&#45;&gt;65195 -->
<!-- 4574309472 -->
<g id="node13" class="node">
<title>4574309472</title>
<ellipse fill="lightblue" stroke="black" cx="210" cy="-76.85" rx="18.7" ry="18.7"/>
<text text-anchor="middle" x="210" y="-73.15" font-family="Helvetica,sans-Serif" font-size="14.00">M</text>
</g>
<!-- 4574312112&#45;&gt;4574309472 -->
<g id="edge12" class="edge">
<title>4574312112&#45;&gt;4574309472</title>
<path fill="none" stroke="black" d="M173.13,-121.51C179.61,-113.84 187.85,-104.08 194.91,-95.73"/>
<polygon fill="black" stroke="black" points="196.37,-96.7 198.26,-91.75 193.7,-94.45 196.37,-96.7"/>
</g>
<!-- 4574339552 -->
<g id="node14" class="node">
<title>4574339552</title>
<ellipse fill="lightblue" stroke="black" cx="162" cy="-18" rx="18" ry="18"/>
<text text-anchor="middle" x="162" y="-14.3" font-family="Helvetica,sans-Serif" font-size="14.00">L</text>
</g>
<!-- 4574309472&#45;&gt;4574339552 -->
<g id="edge13" class="edge">
<title>4574309472&#45;&gt;4574339552</title>
<path fill="none" stroke="black" d="M198.13,-61.8C191.65,-54.11 183.55,-44.52 176.67,-36.37"/>
<polygon fill="black" stroke="black" points="177.96,-35.19 173.4,-32.5 175.29,-37.45 177.96,-35.19"/>
</g>
<!-- 600614 -->
<!-- 4574309472&#45;&gt;600614 -->
<!-- 286589 -->
<!-- 4574309472&#45;&gt;286589 -->
<!-- 4574340944 -->
<g id="node20" class="node">
<title>4574340944</title>
<ellipse fill="lightblue" stroke="black" cx="227" cy="-135.7" rx="18" ry="18"/>
<text text-anchor="middle" x="227" y="-132" font-family="Helvetica,sans-Serif" font-size="14.00">R</text>
</g>
<!-- 4574309808&#45;&gt;4574340944 -->
<g id="edge19" class="edge">
<title>4574309808&#45;&gt;4574340944</title>
<path fill="none" stroke="black" d="M263.87,-180.86C257.2,-172.88 248.66,-162.64 241.48,-154.04"/>
<polygon fill="black" stroke="black" points="242.62,-152.68 238.07,-149.96 239.93,-154.92 242.62,-152.68"/>
</g>
<!-- 757832 -->
<!-- 4574309808&#45;&gt;757832 -->
<!-- 124568 -->
<!-- 4574309808&#45;&gt;124568 -->
<!-- 4574300976 -->
<g id="node23" class="node">
<title>4574300976</title>
<ellipse fill="lightblue" stroke="black" cx="388" cy="-135.7" rx="18" ry="18"/>
<text text-anchor="middle" x="388" y="-132" font-family="Helvetica,sans-Serif" font-size="14.00">V</text>
</g>
<!-- 4574311056&#45;&gt;4574300976 -->
<g id="edge22" class="edge">
<title>4574311056&#45;&gt;4574300976</title>
<path fill="none" stroke="black" d="M423.89,-179.69C417.4,-171.91 409.35,-162.27 402.53,-154.1"/>
<polygon fill="black" stroke="black" points="403.83,-152.93 399.28,-150.21 401.15,-155.17 403.83,-152.93"/>
</g>
<!-- 355075 -->
<!-- 4574311056&#45;&gt;355075 -->
<!-- 4574338304 -->
<g id="node25" class="node">
<title>4574338304</title>
<ellipse fill="lightblue" stroke="black" cx="484" cy="-135.7" rx="18" ry="18"/>
<text text-anchor="middle" x="484" y="-132" font-family="Helvetica,sans-Serif" font-size="14.00">Y</text>
</g>
<!-- 4574311056&#45;&gt;4574338304 -->
<g id="edge24" class="edge">
<title>4574311056&#45;&gt;4574338304</title>
<path fill="none" stroke="black" d="M448.11,-179.69C454.6,-171.91 462.65,-162.27 469.47,-154.1"/>
<polygon fill="black" stroke="black" points="470.85,-155.17 472.72,-150.21 468.17,-152.93 470.85,-155.17"/>
</g>
</g>
</svg>
