<?xml version="1.0" encoding="UTF-8" standalone="no"?>
<!DOCTYPE svg PUBLIC "-//W3C//DTD SVG 1.1//EN"
 "http://www.w3.org/Graphics/SVG/1.1/DTD/svg11.dtd">
<!-- Generated by graphviz version 2.50.0 (0)
 -->
<!-- Pages: 1 -->
<svg width="671pt" height="280pt"
 viewBox="0.00 0.00 671.00 280.19" xmlns="http://www.w3.org/2000/svg" xmlns:xlink="http://www.w3.org/1999/xlink">
<g id="graph0" class="graph" transform="scale(1 1) rotate(0) translate(4 276.19)">
<polygon fill="white" stroke="transparent" points="-4,4 -4,-276.19 667,-276.19 667,4 -4,4"/>
<!-- 4573819632 -->
<g id="node1" class="node">
<title>4573819632</title>
<ellipse fill="lightblue" stroke="black" cx="355" cy="-253.99" rx="18.4" ry="18.4"/>
<text text-anchor="middle" x="355" y="-250.29" font-family="Helvetica,sans-Serif" font-size="14.00">Q</text>
</g>
<!-- 4574305920 -->
<g id="node2" class="node">
<title>4574305920</title>
<ellipse fill="lightblue" stroke="black" cx="227" cy="-194.29" rx="18" ry="18"/>
<text text-anchor="middle" x="227" y="-190.59" font-family="Helvetica,sans-Serif" font-size="14.00">H</text>
</g>
<!-- 4573819632&#45;&gt;4574305920 -->
<g id="edge1" class="edge">
<title>4573819632&#45;&gt;4574305920</title>
<path fill="none" stroke="black" d="M338.79,-245.68C315.71,-235.28 273.36,-216.19 247.93,-204.73"/>
<polygon fill="black" stroke="black" points="248.36,-203 243.08,-202.54 246.92,-206.19 248.36,-203"/>
</g>
<!-- 15632 -->
<!-- 4573819632&#45;&gt;15632 -->
<!-- 4574307408 -->
<g id="node4" class="node">
<title>4574307408</title>
<ellipse fill="lightblue" stroke="black" cx="484" cy="-194.29" rx="19.5" ry="19.5"/>
<text text-anchor="middle" x="484" y="-190.59" font-family="Helvetica,sans-Serif" font-size="14.00">W</text>
</g>
<!-- 4573819632&#45;&gt;4574307408 -->
<g id="edge3" class="edge">
<title>4573819632&#45;&gt;4574307408</title>
<path fill="none" stroke="black" d="M371.34,-245.68C394.31,-235.4 436.24,-216.65 461.96,-205.15"/>
<polygon fill="black" stroke="black" points="462.71,-206.73 466.56,-203.09 461.28,-203.54 462.71,-206.73"/>
</g>
<!-- 4574307648 -->
<g id="node5" class="node">
<title>4574307648</title>
<ellipse fill="lightblue" stroke="black" cx="114" cy="-134.6" rx="18.4" ry="18.4"/>
<text text-anchor="middle" x="114" y="-130.9" font-family="Helvetica,sans-Serif" font-size="14.00">G</text>
</g>
<!-- 4574305920&#45;&gt;4574307648 -->
<g id="edge4" class="edge">
<title>4574305920&#45;&gt;4574307648</title>
<path fill="none" stroke="black" d="M211.29,-185.27C191.25,-175.04 156.54,-157.32 134.45,-146.04"/>
<polygon fill="black" stroke="black" points="135.19,-144.45 129.94,-143.74 133.6,-147.57 135.19,-144.45"/>
</g>
<!-- 928595 -->
<!-- 4574305920&#45;&gt;928595 -->
<!-- 4574301312 -->
<g id="node7" class="node">
<title>4574301312</title>
<ellipse fill="lightblue" stroke="black" cx="275" cy="-134.6" rx="18" ry="18"/>
<text text-anchor="middle" x="275" y="-130.9" font-family="Helvetica,sans-Serif" font-size="14.00">L</text>
</g>
<!-- 4574305920&#45;&gt;4574301312 -->
<g id="edge6" class="edge">
<title>4574305920&#45;&gt;4574301312</title>
<path fill="none" stroke="black" d="M238.13,-179.91C244.8,-171.9 253.34,-161.63 260.52,-153"/>
<polygon fill="black" stroke="black" points="262.08,-153.87 263.93,-148.9 259.38,-151.63 262.08,-153.87"/>
</g>
<!-- 4574314416 -->
<g id="node20" class="node">
<title>4574314416</title>
<ellipse fill="lightblue" stroke="black" cx="436" cy="-134.6" rx="18" ry="18"/>
<text text-anchor="middle" x="436" y="-130.9" font-family="Helvetica,sans-Serif" font-size="14.00">T</text>
</g>
<!-- 4574307408&#45;&gt;4574314416 -->
<g id="edge19" class="edge">
<title>4574307408&#45;&gt;4574314416</title>
<path fill="none" stroke="black" d="M471.89,-178.73C465.4,-170.93 457.35,-161.26 450.53,-153.05"/>
<polygon fill="black" stroke="black" points="451.83,-151.88 447.28,-149.16 449.14,-154.12 451.83,-151.88"/>
</g>
<!-- 81370 -->
<!-- 4574307408&#45;&gt;81370 -->
<!-- 4574311152 -->
<g id="node22" class="node">
<title>4574311152</title>
<ellipse fill="lightblue" stroke="black" cx="597" cy="-134.6" rx="18" ry="18"/>
<text text-anchor="middle" x="597" y="-130.9" font-family="Helvetica,sans-Serif" font-size="14.00">Y</text>
</g>
<!-- 4574307408&#45;&gt;4574311152 -->
<g id="edge21" class="edge">
<title>4574307408&#45;&gt;4574311152</title>
<path fill="none" stroke="black" d="M501.16,-184.53C521.37,-174.21 554.9,-157.09 576.46,-146.08"/>
<polygon fill="black" stroke="black" points="577.48,-147.53 581.14,-143.69 575.89,-144.41 577.48,-147.53"/>
</g>
<!-- 4574300880 -->
<g id="node8" class="node">
<title>4574300880</title>
<ellipse fill="lightblue" stroke="black" cx="66" cy="-76.2" rx="18" ry="18"/>
<text text-anchor="middle" x="66" y="-72.5" font-family="Helvetica,sans-Serif" font-size="14.00">B</text>
</g>
<!-- 4574307648&#45;&gt;4574300880 -->
<g id="edge7" class="edge">
<title>4574307648&#45;&gt;4574300880</title>
<path fill="none" stroke="black" d="M102.62,-120.23C96.05,-112.5 87.71,-102.7 80.64,-94.4"/>
<polygon fill="black" stroke="black" points="81.87,-93.14 77.29,-90.47 79.2,-95.41 81.87,-93.14"/>
</g>
<!-- 844994 -->
<!-- 4574307648&#45;&gt;844994 -->
<!-- 441749 -->
<!-- 4574307648&#45;&gt;441749 -->
<!-- 4574311056 -->
<g id="node14" class="node">
<title>4574311056</title>
<ellipse fill="lightblue" stroke="black" cx="227" cy="-76.2" rx="18" ry="18"/>
<text text-anchor="middle" x="227" y="-72.5" font-family="Helvetica,sans-Serif" font-size="14.00">J</text>
</g>
<!-- 4574301312&#45;&gt;4574311056 -->
<g id="edge13" class="edge">
<title>4574301312&#45;&gt;4574311056</title>
<path fill="none" stroke="black" d="M263.62,-120.23C257.05,-112.5 248.71,-102.7 241.64,-94.4"/>
<polygon fill="black" stroke="black" points="242.87,-93.14 238.29,-90.47 240.2,-95.41 242.87,-93.14"/>
</g>
<!-- 489921 -->
<!-- 4574301312&#45;&gt;489921 -->
<!-- 4574309328 -->
<g id="node16" class="node">
<title>4574309328</title>
<ellipse fill="lightblue" stroke="black" cx="323" cy="-76.2" rx="18.4" ry="18.4"/>
<text text-anchor="middle" x="323" y="-72.5" font-family="Helvetica,sans-Serif" font-size="14.00">O</text>
</g>
<!-- 4574301312&#45;&gt;4574309328 -->
<g id="edge15" class="edge">
<title>4574301312&#45;&gt;4574309328</title>
<path fill="none" stroke="black" d="M286.38,-120.23C292.86,-112.62 301.05,-102.99 308.05,-94.77"/>
<polygon fill="black" stroke="black" points="309.46,-95.8 311.37,-90.86 306.8,-93.53 309.46,-95.8"/>
</g>
<!-- 51384 -->
<!-- 4574300880&#45;&gt;51384 -->
<!-- 41751 -->
<!-- 4574300880&#45;&gt;41751 -->
<!-- 4574311776 -->
<g id="node13" class="node">
<title>4574311776</title>
<ellipse fill="lightblue" stroke="black" cx="114" cy="-18" rx="18" ry="18"/>
<text text-anchor="middle" x="114" y="-14.3" font-family="Helvetica,sans-Serif" font-size="14.00">F</text>
</g>
<!-- 4574300880&#45;&gt;4574311776 -->
<g id="edge12" class="edge">
<title>4574300880&#45;&gt;4574311776</title>
<path fill="none" stroke="black" d="M77.38,-61.88C83.95,-54.18 92.29,-44.41 99.36,-36.15"/>
<polygon fill="black" stroke="black" points="100.79,-37.16 102.71,-32.22 98.13,-34.89 100.79,-37.16"/>
</g>
<!-- 36569 -->
<!-- 4574309328&#45;&gt;36569 -->
<!-- 842673 -->
<!-- 4574309328&#45;&gt;842673 -->
<!-- 4574308272 -->
<g id="node19" class="node">
<title>4574308272</title>
<ellipse fill="lightblue" stroke="black" cx="371" cy="-18" rx="18" ry="18"/>
<text text-anchor="middle" x="371" y="-14.3" font-family="Helvetica,sans-Serif" font-size="14.00">P</text>
</g>
<!-- 4574309328&#45;&gt;4574308272 -->
<g id="edge18" class="edge">
<title>4574309328&#45;&gt;4574308272</title>
<path fill="none" stroke="black" d="M334.38,-61.88C340.95,-54.18 349.29,-44.41 356.36,-36.15"/>
<polygon fill="black" stroke="black" points="357.79,-37.16 359.71,-32.22 355.13,-34.89 357.79,-37.16"/>
</g>
<!-- 4574310672 -->
<g id="node23" class="node">
<title>4574310672</title>
<ellipse fill="lightblue" stroke="black" cx="388" cy="-76.2" rx="18" ry="18"/>
<text text-anchor="middle" x="388" y="-72.5" font-family="Helvetica,sans-Serif" font-size="14.00">S</text>
</g>
<!-- 4574314416&#45;&gt;4574310672 -->
<g id="edge22" class="edge">
<title>4574314416&#45;&gt;4574310672</title>
<path fill="none" stroke="black" d="M424.62,-120.23C418.05,-112.5 409.71,-102.7 402.64,-94.4"/>
<polygon fill="black" stroke="black" points="403.87,-93.14 399.29,-90.47 401.2,-95.41 403.87,-93.14"/>
</g>
<!-- 521621 -->
<!-- 4574314416&#45;&gt;521621 -->
<!-- 4574311680 -->
<g id="node25" class="node">
<title>4574311680</title>
<ellipse fill="lightblue" stroke="black" cx="484" cy="-76.2" rx="18" ry="18"/>
<text text-anchor="middle" x="484" y="-72.5" font-family="Helvetica,sans-Serif" font-size="14.00">U</text>
</g>
<!-- 4574314416&#45;&gt;4574311680 -->
<g id="edge24" class="edge">
<title>4574314416&#45;&gt;4574311680</title>
<path fill="none" stroke="black" d="M447.38,-120.23C453.95,-112.5 462.29,-102.7 469.36,-94.4"/>
<polygon fill="black" stroke="black" points="470.8,-95.41 472.71,-90.47 468.13,-93.14 470.8,-95.41"/>
</g>
<!-- 4574314224 -->
<g id="node26" class="node">
<title>4574314224</title>
<ellipse fill="lightblue" stroke="black" cx="549" cy="-76.2" rx="18" ry="18"/>
<text text-anchor="middle" x="549" y="-72.5" font-family="Helvetica,sans-Serif" font-size="14.00">X</text>
</g>
<!-- 4574311152&#45;&gt;4574314224 -->
<g id="edge25" class="edge">
<title>4574311152&#45;&gt;4574314224</title>
<path fill="none" stroke="black" d="M585.62,-120.23C579.05,-112.5 570.71,-102.7 563.64,-94.4"/>
<polygon fill="black" stroke="black" points="564.87,-93.14 560.29,-90.47 562.2,-95.41 564.87,-93.14"/>
</g>
<!-- 510871 -->
<!-- 4574311152&#45;&gt;510871 -->
<!-- 624319 -->
<!-- 4574311152&#45;&gt;624319 -->
</g>
</svg>
