<?xml version="1.0" encoding="UTF-8" standalone="no"?>
<!DOCTYPE svg PUBLIC "-//W3C//DTD SVG 1.1//EN"
 "http://www.w3.org/Graphics/SVG/1.1/DTD/svg11.dtd">
<!-- Generated by graphviz version 2.50.0 (0)
 -->
<!-- Pages: 1 -->
<svg width="445pt" height="379pt"
 viewBox="0.00 0.00 445.40 379.28" xmlns="http://www.w3.org/2000/svg" xmlns:xlink="http://www.w3.org/1999/xlink">
<g id="graph0" class="graph" transform="scale(1 1) rotate(0) translate(4 375.28)">
<polygon fill="white" stroke="transparent" points="-4,4 -4,-375.28 441.4,-375.28 441.4,4 -4,4"/>
<!-- 4628141152 -->
<g id="node1" class="node">
<title>4628141152</title>
<ellipse fill="lightblue" stroke="black" cx="111.4" cy="-347.88" rx="23.3" ry="23.3"/>
<text text-anchor="middle" x="111.4" y="-344.18" font-family="Helvetica,sans-Serif" font-size="14.00">&#45;20</text>
</g>
<!-- 894889 -->
<!-- 4628141152&#45;&gt;894889 -->
<!-- 586686 -->
<!-- 4628141152&#45;&gt;586686 -->
<!-- 4628138272 -->
<g id="node4" class="node">
<title>4628138272</title>
<ellipse fill="lightblue" stroke="black" cx="159.4" cy="-283.63" rx="18.7" ry="18.7"/>
<text text-anchor="middle" x="159.4" y="-279.93" font-family="Helvetica,sans-Serif" font-size="14.00">&#45;4</text>
</g>
<!-- 4628141152&#45;&gt;4628138272 -->
<g id="edge3" class="edge">
<title>4628141152&#45;&gt;4628138272</title>
<path fill="none" stroke="black" d="M125.28,-328.87C131.45,-320.88 138.71,-311.46 144.94,-303.38"/>
<polygon fill="black" stroke="black" points="146.62,-304.07 148.28,-299.05 143.84,-301.94 146.62,-304.07"/>
</g>
<!-- 4628141296 -->
<g id="node5" class="node">
<title>4628141296</title>
<ellipse fill="lightblue" stroke="black" cx="76.4" cy="-219.39" rx="23.3" ry="23.3"/>
<text text-anchor="middle" x="76.4" y="-215.69" font-family="Helvetica,sans-Serif" font-size="14.00">&#45;10</text>
</g>
<!-- 4628138272&#45;&gt;4628141296 -->
<g id="edge4" class="edge">
<title>4628138272&#45;&gt;4628141296</title>
<path fill="none" stroke="black" d="M144.56,-271.5C131.97,-262.06 113.69,-248.36 99.24,-237.52"/>
<polygon fill="black" stroke="black" points="99.93,-235.85 94.88,-234.25 97.83,-238.65 99.93,-235.85"/>
</g>
<!-- 157907 -->
<!-- 4628138272&#45;&gt;157907 -->
<!-- 4628141488 -->
<g id="node7" class="node">
<title>4628141488</title>
<ellipse fill="lightblue" stroke="black" cx="237.4" cy="-219.39" rx="18.7" ry="18.7"/>
<text text-anchor="middle" x="237.4" y="-215.69" font-family="Helvetica,sans-Serif" font-size="14.00">&#45;2</text>
</g>
<!-- 4628138272&#45;&gt;4628141488 -->
<g id="edge6" class="edge">
<title>4628138272&#45;&gt;4628141488</title>
<path fill="none" stroke="black" d="M173.7,-271.22C186.38,-261.1 204.96,-246.27 218.79,-235.23"/>
<polygon fill="black" stroke="black" points="220.1,-236.43 222.92,-231.94 217.92,-233.69 220.1,-236.43"/>
</g>
<!-- 4628148016 -->
<g id="node8" class="node">
<title>4628148016</title>
<ellipse fill="lightblue" stroke="black" cx="23.4" cy="-150.59" rx="23.3" ry="23.3"/>
<text text-anchor="middle" x="23.4" y="-146.89" font-family="Helvetica,sans-Serif" font-size="14.00">&#45;17</text>
</g>
<!-- 4628141296&#45;&gt;4628148016 -->
<g id="edge7" class="edge">
<title>4628141296&#45;&gt;4628148016</title>
<path fill="none" stroke="black" d="M62.19,-200.49C55.66,-192.25 47.84,-182.4 40.94,-173.7"/>
<polygon fill="black" stroke="black" points="42.12,-172.37 37.64,-169.54 39.38,-174.54 42.12,-172.37"/>
</g>
<!-- 993210 -->
<!-- 4628141296&#45;&gt;993210 -->
<!-- 394766 -->
<!-- 4628141296&#45;&gt;394766 -->
<!-- 708355 -->
<!-- 4628141488&#45;&gt;708355 -->
<!-- 800861 -->
<!-- 4628141488&#45;&gt;800861 -->
<!-- 4628138032 -->
<g id="node13" class="node">
<title>4628138032</title>
<ellipse fill="lightblue" stroke="black" cx="287.4" cy="-150.59" rx="20.6" ry="20.6"/>
<text text-anchor="middle" x="287.4" y="-146.89" font-family="Helvetica,sans-Serif" font-size="14.00">11</text>
</g>
<!-- 4628141488&#45;&gt;4628138032 -->
<g id="edge12" class="edge">
<title>4628141488&#45;&gt;4628138032</title>
<path fill="none" stroke="black" d="M248.25,-203.89C255.18,-194.63 264.29,-182.47 271.97,-172.2"/>
<polygon fill="black" stroke="black" points="273.57,-172.98 275.16,-167.93 270.77,-170.89 273.57,-172.98"/>
</g>
<!-- 4628147632 -->
<g id="node14" class="node">
<title>4628147632</title>
<ellipse fill="lightblue" stroke="black" cx="205.4" cy="-84.39" rx="18" ry="18"/>
<text text-anchor="middle" x="205.4" y="-80.69" font-family="Helvetica,sans-Serif" font-size="14.00">5</text>
</g>
<!-- 4628138032&#45;&gt;4628147632 -->
<g id="edge13" class="edge">
<title>4628138032&#45;&gt;4628147632</title>
<path fill="none" stroke="black" d="M271.2,-136.91C257.41,-126.11 237.62,-110.62 223.35,-99.45"/>
<polygon fill="black" stroke="black" points="224.13,-97.84 219.12,-96.13 221.97,-100.59 224.13,-97.84"/>
</g>
<!-- 311630 -->
<!-- 4628138032&#45;&gt;311630 -->
<!-- 4628149552 -->
<g id="node16" class="node">
<title>4628149552</title>
<ellipse fill="lightblue" stroke="black" cx="371.4" cy="-84.39" rx="20.6" ry="20.6"/>
<text text-anchor="middle" x="371.4" y="-80.69" font-family="Helvetica,sans-Serif" font-size="14.00">16</text>
</g>
<!-- 4628138032&#45;&gt;4628149552 -->
<g id="edge15" class="edge">
<title>4628138032&#45;&gt;4628149552</title>
<path fill="none" stroke="black" d="M303.59,-137.21C317.19,-126.82 336.68,-111.93 351.27,-100.77"/>
<polygon fill="black" stroke="black" points="352.34,-102.16 355.25,-97.73 350.22,-99.38 352.34,-102.16"/>
</g>
<!-- 4628151328 -->
<g id="node17" class="node">
<title>4628151328</title>
<ellipse fill="lightblue" stroke="black" cx="157.4" cy="-20.8" rx="18" ry="18"/>
<text text-anchor="middle" x="157.4" y="-17.1" font-family="Helvetica,sans-Serif" font-size="14.00">0</text>
</g>
<!-- 4628147632&#45;&gt;4628151328 -->
<g id="edge16" class="edge">
<title>4628147632&#45;&gt;4628151328</title>
<path fill="none" stroke="black" d="M194.75,-69.72C187.79,-60.79 178.63,-49.04 171.12,-39.41"/>
<polygon fill="black" stroke="black" points="172.47,-38.3 168.02,-35.43 169.71,-40.45 172.47,-38.3"/>
</g>
<!-- 852253 -->
<!-- 4628147632&#45;&gt;852253 -->
<!-- 792763 -->
<!-- 4628147632&#45;&gt;792763 -->
<!-- 4628140912 -->
<g id="node20" class="node">
<title>4628140912</title>
<ellipse fill="lightblue" stroke="black" cx="321.4" cy="-20.8" rx="20.6" ry="20.6"/>
<text text-anchor="middle" x="321.4" y="-17.1" font-family="Helvetica,sans-Serif" font-size="14.00">15</text>
</g>
<!-- 4628149552&#45;&gt;4628140912 -->
<g id="edge19" class="edge">
<title>4628149552&#45;&gt;4628140912</title>
<path fill="none" stroke="black" d="M358.78,-67.85C352.32,-59.89 344.38,-50.1 337.48,-41.61"/>
<polygon fill="black" stroke="black" points="338.69,-40.33 334.18,-37.55 335.98,-42.54 338.69,-40.33"/>
</g>
<!-- 460399 -->
<!-- 4628149552&#45;&gt;460399 -->
<!-- 786624 -->
<!-- 4628149552&#45;&gt;786624 -->
</g>
</svg>
