<?xml version="1.0" encoding="UTF-8" standalone="no"?>
<!DOCTYPE svg PUBLIC "-//W3C//DTD SVG 1.1//EN"
 "http://www.w3.org/Graphics/SVG/1.1/DTD/svg11.dtd">
<!-- Generated by graphviz version 2.50.0 (0)
 -->
<!-- Pages: 1 -->
<svg width="558pt" height="453pt"
 viewBox="0.00 0.00 558.00 453.39" xmlns="http://www.w3.org/2000/svg" xmlns:xlink="http://www.w3.org/1999/xlink">
<g id="graph0" class="graph" transform="scale(1 1) rotate(0) translate(4 449.39)">
<polygon fill="white" stroke="transparent" points="-4,4 -4,-449.39 554,-449.39 554,4 -4,4"/>
<!-- 4574301840 -->
<g id="node1" class="node">
<title>4574301840</title>
<ellipse fill="lightblue" stroke="black" cx="242" cy="-427.39" rx="18" ry="18"/>
<text text-anchor="middle" x="242" y="-423.69" font-family="Helvetica,sans-Serif" font-size="14.00">L</text>
</g>
<!-- 4574314416 -->
<g id="node2" class="node">
<title>4574314416</title>
<ellipse fill="lightblue" stroke="black" cx="114" cy="-367.9" rx="18" ry="18"/>
<text text-anchor="middle" x="114" y="-364.2" font-family="Helvetica,sans-Serif" font-size="14.00">A</text>
</g>
<!-- 4574301840&#45;&gt;4574314416 -->
<g id="edge1" class="edge">
<title>4574301840&#45;&gt;4574314416</title>
<path fill="none" stroke="black" d="M225.79,-419.11C202.71,-408.74 160.36,-389.72 134.93,-378.3"/>
<polygon fill="black" stroke="black" points="135.36,-376.57 130.08,-376.12 133.92,-379.76 135.36,-376.57"/>
</g>
<!-- 604900 -->
<!-- 4574301840&#45;&gt;604900 -->
<!-- 4574313168 -->
<g id="node4" class="node">
<title>4574313168</title>
<ellipse fill="lightblue" stroke="black" cx="371" cy="-367.9" rx="19.5" ry="19.5"/>
<text text-anchor="middle" x="371" y="-364.2" font-family="Helvetica,sans-Serif" font-size="14.00">W</text>
</g>
<!-- 4574301840&#45;&gt;4574313168 -->
<g id="edge3" class="edge">
<title>4574301840&#45;&gt;4574313168</title>
<path fill="none" stroke="black" d="M258.08,-419.23C280.97,-409.02 323.03,-390.28 348.86,-378.77"/>
<polygon fill="black" stroke="black" points="349.63,-380.34 353.48,-376.7 348.2,-377.14 349.63,-380.34"/>
</g>
<!-- 984211 -->
<!-- 4574314416&#45;&gt;984211 -->
<!-- 926510 -->
<!-- 4574314416&#45;&gt;926510 -->
<!-- 4574309472 -->
<g id="node7" class="node">
<title>4574309472</title>
<ellipse fill="lightblue" stroke="black" cx="162" cy="-308.4" rx="18" ry="18"/>
<text text-anchor="middle" x="162" y="-304.7" font-family="Helvetica,sans-Serif" font-size="14.00">J</text>
</g>
<!-- 4574314416&#45;&gt;4574309472 -->
<g id="edge6" class="edge">
<title>4574314416&#45;&gt;4574309472</title>
<path fill="none" stroke="black" d="M125.13,-353.56C131.8,-345.58 140.34,-335.34 147.52,-326.74"/>
<polygon fill="black" stroke="black" points="149.07,-327.62 150.93,-322.66 146.38,-325.38 149.07,-327.62"/>
</g>
<!-- 4574702160 -->
<g id="node23" class="node">
<title>4574702160</title>
<ellipse fill="lightblue" stroke="black" cx="323" cy="-308.4" rx="18" ry="18"/>
<text text-anchor="middle" x="323" y="-304.7" font-family="Helvetica,sans-Serif" font-size="14.00">S</text>
</g>
<!-- 4574313168&#45;&gt;4574702160 -->
<g id="edge22" class="edge">
<title>4574313168&#45;&gt;4574702160</title>
<path fill="none" stroke="black" d="M358.89,-352.39C352.4,-344.61 344.35,-334.97 337.53,-326.8"/>
<polygon fill="black" stroke="black" points="338.83,-325.63 334.28,-322.91 336.15,-327.87 338.83,-325.63"/>
</g>
<!-- 940458 -->
<!-- 4574313168&#45;&gt;940458 -->
<!-- 4574310624 -->
<g id="node25" class="node">
<title>4574310624</title>
<ellipse fill="lightblue" stroke="black" cx="484" cy="-308.4" rx="18" ry="18"/>
<text text-anchor="middle" x="484" y="-304.7" font-family="Helvetica,sans-Serif" font-size="14.00">Y</text>
</g>
<!-- 4574313168&#45;&gt;4574310624 -->
<g id="edge24" class="edge">
<title>4574313168&#45;&gt;4574310624</title>
<path fill="none" stroke="black" d="M388.16,-358.16C408.37,-347.88 441.9,-330.82 463.46,-319.85"/>
<polygon fill="black" stroke="black" points="464.48,-321.29 468.14,-317.47 462.89,-318.18 464.48,-321.29"/>
</g>
<!-- 4574313984 -->
<g id="node8" class="node">
<title>4574313984</title>
<ellipse fill="lightblue" stroke="black" cx="114" cy="-250.4" rx="18" ry="18"/>
<text text-anchor="middle" x="114" y="-246.7" font-family="Helvetica,sans-Serif" font-size="14.00">B</text>
</g>
<!-- 4574309472&#45;&gt;4574313984 -->
<g id="edge7" class="edge">
<title>4574309472&#45;&gt;4574313984</title>
<path fill="none" stroke="black" d="M150.62,-294.13C144.05,-286.45 135.71,-276.72 128.64,-268.48"/>
<polygon fill="black" stroke="black" points="129.88,-267.23 125.29,-264.57 127.22,-269.51 129.88,-267.23"/>
</g>
<!-- 570543 -->
<!-- 4574309472&#45;&gt;570543 -->
<!-- 4574304864 -->
<g id="node10" class="node">
<title>4574304864</title>
<ellipse fill="lightblue" stroke="black" cx="210" cy="-250.4" rx="18" ry="18"/>
<text text-anchor="middle" x="210" y="-246.7" font-family="Helvetica,sans-Serif" font-size="14.00">K</text>
</g>
<!-- 4574309472&#45;&gt;4574304864 -->
<g id="edge9" class="edge">
<title>4574309472&#45;&gt;4574304864</title>
<path fill="none" stroke="black" d="M173.38,-294.13C179.95,-286.45 188.29,-276.72 195.36,-268.48"/>
<polygon fill="black" stroke="black" points="196.78,-269.51 198.71,-264.57 194.12,-267.23 196.78,-269.51"/>
</g>
<!-- 782473 -->
<!-- 4574313984&#45;&gt;782473 -->
<!-- 227532 -->
<!-- 4574313984&#45;&gt;227532 -->
<!-- 4574307648 -->
<g id="node13" class="node">
<title>4574307648</title>
<ellipse fill="lightblue" stroke="black" cx="162" cy="-192.4" rx="18" ry="18"/>
<text text-anchor="middle" x="162" y="-188.7" font-family="Helvetica,sans-Serif" font-size="14.00">I</text>
</g>
<!-- 4574313984&#45;&gt;4574307648 -->
<g id="edge12" class="edge">
<title>4574313984&#45;&gt;4574307648</title>
<path fill="none" stroke="black" d="M125.38,-236.13C131.95,-228.45 140.29,-218.72 147.36,-210.48"/>
<polygon fill="black" stroke="black" points="148.78,-211.51 150.71,-206.57 146.12,-209.23 148.78,-211.51"/>
</g>
<!-- 4574298720 -->
<g id="node14" class="node">
<title>4574298720</title>
<ellipse fill="lightblue" stroke="black" cx="114" cy="-134.2" rx="18.4" ry="18.4"/>
<text text-anchor="middle" x="114" y="-130.5" font-family="Helvetica,sans-Serif" font-size="14.00">G</text>
</g>
<!-- 4574307648&#45;&gt;4574298720 -->
<g id="edge13" class="edge">
<title>4574307648&#45;&gt;4574298720</title>
<path fill="none" stroke="black" d="M150.62,-178.08C144.14,-170.49 135.95,-160.89 128.95,-152.7"/>
<polygon fill="black" stroke="black" points="130.21,-151.48 125.63,-148.81 127.54,-153.75 130.21,-151.48"/>
</g>
<!-- 53447 -->
<!-- 4574307648&#45;&gt;53447 -->
<!-- 333049 -->
<!-- 4574307648&#45;&gt;333049 -->
<!-- 4574313792 -->
<g id="node17" class="node">
<title>4574313792</title>
<ellipse fill="lightblue" stroke="black" cx="66" cy="-76" rx="18" ry="18"/>
<text text-anchor="middle" x="66" y="-72.3" font-family="Helvetica,sans-Serif" font-size="14.00">E</text>
</g>
<!-- 4574298720&#45;&gt;4574313792 -->
<g id="edge16" class="edge">
<title>4574298720&#45;&gt;4574313792</title>
<path fill="none" stroke="black" d="M102.62,-119.88C96.05,-112.18 87.71,-102.41 80.64,-94.15"/>
<polygon fill="black" stroke="black" points="81.87,-92.89 77.29,-90.22 79.21,-95.16 81.87,-92.89"/>
</g>
<!-- 623545 -->
<!-- 4574298720&#45;&gt;623545 -->
<!-- 4574705040 -->
<g id="node19" class="node">
<title>4574705040</title>
<ellipse fill="lightblue" stroke="black" cx="162" cy="-76" rx="18" ry="18"/>
<text text-anchor="middle" x="162" y="-72.3" font-family="Helvetica,sans-Serif" font-size="14.00">H</text>
</g>
<!-- 4574298720&#45;&gt;4574705040 -->
<g id="edge18" class="edge">
<title>4574298720&#45;&gt;4574705040</title>
<path fill="none" stroke="black" d="M125.38,-119.88C131.95,-112.18 140.29,-102.41 147.36,-94.15"/>
<polygon fill="black" stroke="black" points="148.79,-95.16 150.71,-90.22 146.13,-92.89 148.79,-95.16"/>
</g>
<!-- 4574705328 -->
<g id="node20" class="node">
<title>4574705328</title>
<ellipse fill="lightblue" stroke="black" cx="18" cy="-18" rx="18" ry="18"/>
<text text-anchor="middle" x="18" y="-14.3" font-family="Helvetica,sans-Serif" font-size="14.00">C</text>
</g>
<!-- 4574313792&#45;&gt;4574705328 -->
<g id="edge19" class="edge">
<title>4574313792&#45;&gt;4574705328</title>
<path fill="none" stroke="black" d="M54.62,-61.73C48.05,-54.06 39.71,-44.32 32.64,-36.08"/>
<polygon fill="black" stroke="black" points="33.88,-34.83 29.29,-32.18 31.22,-37.11 33.88,-34.83"/>
</g>
<!-- 796606 -->
<!-- 4574313792&#45;&gt;796606 -->
<!-- 804497 -->
<!-- 4574313792&#45;&gt;804497 -->
<!-- 4574695536 -->
<g id="node26" class="node">
<title>4574695536</title>
<ellipse fill="lightblue" stroke="black" cx="275" cy="-250.4" rx="18" ry="18"/>
<text text-anchor="middle" x="275" y="-246.7" font-family="Helvetica,sans-Serif" font-size="14.00">R</text>
</g>
<!-- 4574702160&#45;&gt;4574695536 -->
<g id="edge25" class="edge">
<title>4574702160&#45;&gt;4574695536</title>
<path fill="none" stroke="black" d="M311.62,-294.13C305.05,-286.45 296.71,-276.72 289.64,-268.48"/>
<polygon fill="black" stroke="black" points="290.88,-267.23 286.29,-264.57 288.22,-269.51 290.88,-267.23"/>
</g>
<!-- 519776 -->
<!-- 4574702160&#45;&gt;519776 -->
<!-- 400414 -->
<!-- 4574702160&#45;&gt;400414 -->
<!-- 4574692368 -->
<g id="node29" class="node">
<title>4574692368</title>
<ellipse fill="lightblue" stroke="black" cx="436" cy="-250.4" rx="18" ry="18"/>
<text text-anchor="middle" x="436" y="-246.7" font-family="Helvetica,sans-Serif" font-size="14.00">X</text>
</g>
<!-- 4574310624&#45;&gt;4574692368 -->
<g id="edge28" class="edge">
<title>4574310624&#45;&gt;4574692368</title>
<path fill="none" stroke="black" d="M472.62,-294.13C466.05,-286.45 457.71,-276.72 450.64,-268.48"/>
<polygon fill="black" stroke="black" points="451.88,-267.23 447.29,-264.57 449.22,-269.51 451.88,-267.23"/>
</g>
<!-- 981131 -->
<!-- 4574310624&#45;&gt;981131 -->
<!-- 485462 -->
<!-- 4574310624&#45;&gt;485462 -->
</g>
</svg>
