<?xml version="1.0" encoding="UTF-8" standalone="no"?>
<!DOCTYPE svg PUBLIC "-//W3C//DTD SVG 1.1//EN"
 "http://www.w3.org/Graphics/SVG/1.1/DTD/svg11.dtd">
<!-- Generated by graphviz version 2.50.0 (0)
 -->
<!-- Pages: 1 -->
<svg width="606pt" height="397pt"
 viewBox="0.00 0.00 606.00 397.09" xmlns="http://www.w3.org/2000/svg" xmlns:xlink="http://www.w3.org/1999/xlink">
<g id="graph0" class="graph" transform="scale(1 1) rotate(0) translate(4 393.09)">
<polygon fill="white" stroke="transparent" points="-4,4 -4,-393.09 602,-393.09 602,4 -4,4"/>
<!-- 4574345408 -->
<g id="node1" class="node">
<title>4574345408</title>
<ellipse fill="lightblue" stroke="black" cx="355" cy="-369.59" rx="19.5" ry="19.5"/>
<text text-anchor="middle" x="355" y="-365.89" font-family="Helvetica,sans-Serif" font-size="14.00">W</text>
</g>
<!-- 4574338304 -->
<g id="node2" class="node">
<title>4574338304</title>
<ellipse fill="lightblue" stroke="black" cx="307" cy="-310.09" rx="18" ry="18"/>
<text text-anchor="middle" x="307" y="-306.39" font-family="Helvetica,sans-Serif" font-size="14.00">J</text>
</g>
<!-- 4574345408&#45;&gt;4574338304 -->
<g id="edge1" class="edge">
<title>4574345408&#45;&gt;4574338304</title>
<path fill="none" stroke="black" d="M342.89,-354.08C336.4,-346.31 328.35,-336.67 321.53,-328.49"/>
<polygon fill="black" stroke="black" points="322.83,-327.33 318.28,-324.61 320.15,-329.57 322.83,-327.33"/>
</g>
<!-- 71255 -->
<!-- 4574345408&#45;&gt;71255 -->
<!-- 4574308416 -->
<g id="node4" class="node">
<title>4574308416</title>
<ellipse fill="lightblue" stroke="black" cx="403" cy="-310.09" rx="18" ry="18"/>
<text text-anchor="middle" x="403" y="-306.39" font-family="Helvetica,sans-Serif" font-size="14.00">Y</text>
</g>
<!-- 4574345408&#45;&gt;4574308416 -->
<g id="edge3" class="edge">
<title>4574345408&#45;&gt;4574308416</title>
<path fill="none" stroke="black" d="M367.11,-354.08C373.6,-346.31 381.65,-336.67 388.47,-328.49"/>
<polygon fill="black" stroke="black" points="389.85,-329.57 391.72,-324.61 387.17,-327.33 389.85,-329.57"/>
</g>
<!-- 4574333408 -->
<g id="node5" class="node">
<title>4574333408</title>
<ellipse fill="lightblue" stroke="black" cx="227" cy="-251.9" rx="18.4" ry="18.4"/>
<text text-anchor="middle" x="227" y="-248.2" font-family="Helvetica,sans-Serif" font-size="14.00">G</text>
</g>
<!-- 4574338304&#45;&gt;4574333408 -->
<g id="edge4" class="edge">
<title>4574338304&#45;&gt;4574333408</title>
<path fill="none" stroke="black" d="M292.7,-299.05C279.58,-289.83 260.08,-276.13 245.72,-266.05"/>
<polygon fill="black" stroke="black" points="246.55,-264.49 241.45,-263.04 244.53,-267.35 246.55,-264.49"/>
</g>
<!-- 652350 -->
<!-- 4574338304&#45;&gt;652350 -->
<!-- 4574312640 -->
<g id="node7" class="node">
<title>4574312640</title>
<ellipse fill="lightblue" stroke="black" cx="388" cy="-251.9" rx="18" ry="18"/>
<text text-anchor="middle" x="388" y="-248.2" font-family="Helvetica,sans-Serif" font-size="14.00">L</text>
</g>
<!-- 4574338304&#45;&gt;4574312640 -->
<g id="edge6" class="edge">
<title>4574338304&#45;&gt;4574312640</title>
<path fill="none" stroke="black" d="M321.48,-299.05C334.84,-289.78 354.76,-275.96 369.31,-265.86"/>
<polygon fill="black" stroke="black" points="370.53,-267.14 373.64,-262.86 368.54,-264.27 370.53,-267.14"/>
</g>
<!-- 4574340944 -->
<g id="node8" class="node">
<title>4574340944</title>
<ellipse fill="lightblue" stroke="black" cx="114" cy="-192.85" rx="18" ry="18"/>
<text text-anchor="middle" x="114" y="-189.15" font-family="Helvetica,sans-Serif" font-size="14.00">D</text>
</g>
<!-- 4574333408&#45;&gt;4574340944 -->
<g id="edge7" class="edge">
<title>4574333408&#45;&gt;4574340944</title>
<path fill="none" stroke="black" d="M210.81,-242.72C190.64,-232.54 156.17,-215.14 134.27,-204.08"/>
<polygon fill="black" stroke="black" points="135.05,-202.51 129.8,-201.82 133.47,-205.64 135.05,-202.51"/>
</g>
<!-- 907725 -->
<!-- 4574333408&#45;&gt;907725 -->
<!-- 4574310624 -->
<g id="node10" class="node">
<title>4574310624</title>
<ellipse fill="lightblue" stroke="black" cx="275" cy="-192.85" rx="18" ry="18"/>
<text text-anchor="middle" x="275" y="-189.15" font-family="Helvetica,sans-Serif" font-size="14.00">I</text>
</g>
<!-- 4574333408&#45;&gt;4574310624 -->
<g id="edge9" class="edge">
<title>4574333408&#45;&gt;4574310624</title>
<path fill="none" stroke="black" d="M238.38,-237.38C244.95,-229.56 253.29,-219.65 260.36,-211.25"/>
<polygon fill="black" stroke="black" points="261.83,-212.22 263.71,-207.27 259.15,-209.97 261.83,-212.22"/>
</g>
<!-- 914441 -->
<!-- 4574312640&#45;&gt;914441 -->
<!-- 80874 -->
<!-- 4574312640&#45;&gt;80874 -->
<!-- 4574312352 -->
<g id="node22" class="node">
<title>4574312352</title>
<ellipse fill="lightblue" stroke="black" cx="436" cy="-192.85" rx="18.7" ry="18.7"/>
<text text-anchor="middle" x="436" y="-189.15" font-family="Helvetica,sans-Serif" font-size="14.00">M</text>
</g>
<!-- 4574312640&#45;&gt;4574312352 -->
<g id="edge21" class="edge">
<title>4574312640&#45;&gt;4574312352</title>
<path fill="none" stroke="black" d="M399.13,-237.66C405.61,-229.97 413.85,-220.17 420.91,-211.79"/>
<polygon fill="black" stroke="black" points="422.38,-212.76 424.26,-207.8 419.7,-210.5 422.38,-212.76"/>
</g>
<!-- 4574339552 -->
<g id="node11" class="node">
<title>4574339552</title>
<ellipse fill="lightblue" stroke="black" cx="66" cy="-134" rx="18" ry="18"/>
<text text-anchor="middle" x="66" y="-130.3" font-family="Helvetica,sans-Serif" font-size="14.00">B</text>
</g>
<!-- 4574340944&#45;&gt;4574339552 -->
<g id="edge10" class="edge">
<title>4574340944&#45;&gt;4574339552</title>
<path fill="none" stroke="black" d="M102.87,-178.66C96.3,-170.88 87.9,-160.94 80.78,-152.51"/>
<polygon fill="black" stroke="black" points="81.97,-151.2 77.41,-148.51 79.29,-153.46 81.97,-151.2"/>
</g>
<!-- 675971 -->
<!-- 4574340944&#45;&gt;675971 -->
<!-- 4574311152 -->
<g id="node13" class="node">
<title>4574311152</title>
<ellipse fill="lightblue" stroke="black" cx="162" cy="-134" rx="18" ry="18"/>
<text text-anchor="middle" x="162" y="-130.3" font-family="Helvetica,sans-Serif" font-size="14.00">F</text>
</g>
<!-- 4574340944&#45;&gt;4574311152 -->
<g id="edge12" class="edge">
<title>4574340944&#45;&gt;4574311152</title>
<path fill="none" stroke="black" d="M125.13,-178.66C131.7,-170.88 140.1,-160.94 147.22,-152.51"/>
<polygon fill="black" stroke="black" points="148.71,-153.46 150.59,-148.51 146.03,-151.2 148.71,-153.46"/>
</g>
<!-- 4574298720 -->
<g id="node17" class="node">
<title>4574298720</title>
<ellipse fill="lightblue" stroke="black" cx="227" cy="-134" rx="18" ry="18"/>
<text text-anchor="middle" x="227" y="-130.3" font-family="Helvetica,sans-Serif" font-size="14.00">H</text>
</g>
<!-- 4574310624&#45;&gt;4574298720 -->
<g id="edge16" class="edge">
<title>4574310624&#45;&gt;4574298720</title>
<path fill="none" stroke="black" d="M263.87,-178.66C257.3,-170.88 248.9,-160.94 241.78,-152.51"/>
<polygon fill="black" stroke="black" points="242.97,-151.2 238.41,-148.51 240.29,-153.46 242.97,-151.2"/>
</g>
<!-- 499129 -->
<!-- 4574310624&#45;&gt;499129 -->
<!-- 631683 -->
<!-- 4574310624&#45;&gt;631683 -->
<!-- 4574304864 -->
<g id="node14" class="node">
<title>4574304864</title>
<ellipse fill="lightblue" stroke="black" cx="18" cy="-76" rx="18" ry="18"/>
<text text-anchor="middle" x="18" y="-72.3" font-family="Helvetica,sans-Serif" font-size="14.00">A</text>
</g>
<!-- 4574339552&#45;&gt;4574304864 -->
<g id="edge13" class="edge">
<title>4574339552&#45;&gt;4574304864</title>
<path fill="none" stroke="black" d="M54.62,-119.73C48.05,-112.06 39.71,-102.32 32.64,-94.08"/>
<polygon fill="black" stroke="black" points="33.88,-92.83 29.29,-90.18 31.22,-95.11 33.88,-92.83"/>
</g>
<!-- 452114 -->
<!-- 4574339552&#45;&gt;452114 -->
<!-- 110598 -->
<!-- 4574339552&#45;&gt;110598 -->
<!-- 609719 -->
<!-- 4574312352&#45;&gt;609719 -->
<!-- 993099 -->
<!-- 4574312352&#45;&gt;993099 -->
<!-- 4574300544 -->
<g id="node25" class="node">
<title>4574300544</title>
<ellipse fill="lightblue" stroke="black" cx="484" cy="-134" rx="18" ry="18"/>
<text text-anchor="middle" x="484" y="-130.3" font-family="Helvetica,sans-Serif" font-size="14.00">P</text>
</g>
<!-- 4574312352&#45;&gt;4574300544 -->
<g id="edge24" class="edge">
<title>4574312352&#45;&gt;4574300544</title>
<path fill="none" stroke="black" d="M447.87,-177.8C454.35,-170.11 462.45,-160.52 469.33,-152.37"/>
<polygon fill="black" stroke="black" points="470.71,-153.45 472.6,-148.5 468.04,-151.19 470.71,-153.45"/>
</g>
<!-- 334597 -->
<!-- 4574300544&#45;&gt;334597 -->
<!-- 608878 -->
<!-- 4574300544&#45;&gt;608878 -->
<!-- 4574312832 -->
<g id="node28" class="node">
<title>4574312832</title>
<ellipse fill="lightblue" stroke="black" cx="532" cy="-76" rx="18" ry="18"/>
<text text-anchor="middle" x="532" y="-72.3" font-family="Helvetica,sans-Serif" font-size="14.00">R</text>
</g>
<!-- 4574300544&#45;&gt;4574312832 -->
<g id="edge27" class="edge">
<title>4574300544&#45;&gt;4574312832</title>
<path fill="none" stroke="black" d="M495.38,-119.73C501.95,-112.06 510.29,-102.32 517.36,-94.08"/>
<polygon fill="black" stroke="black" points="518.78,-95.11 520.71,-90.18 516.12,-92.83 518.78,-95.11"/>
</g>
<!-- 715285 -->
<!-- 4574312832&#45;&gt;715285 -->
<!-- 137460 -->
<!-- 4574312832&#45;&gt;137460 -->
<!-- 4574301840 -->
<g id="node31" class="node">
<title>4574301840</title>
<ellipse fill="lightblue" stroke="black" cx="580" cy="-18" rx="18" ry="18"/>
<text text-anchor="middle" x="580" y="-14.3" font-family="Helvetica,sans-Serif" font-size="14.00">U</text>
</g>
<!-- 4574312832&#45;&gt;4574301840 -->
<g id="edge30" class="edge">
<title>4574312832&#45;&gt;4574301840</title>
<path fill="none" stroke="black" d="M543.38,-61.73C549.95,-54.06 558.29,-44.32 565.36,-36.08"/>
<polygon fill="black" stroke="black" points="566.78,-37.11 568.71,-32.18 564.12,-34.83 566.78,-37.11"/>
</g>
</g>
</svg>
