<?xml version="1.0" encoding="UTF-8" standalone="no"?>
<!DOCTYPE svg PUBLIC "-//W3C//DTD SVG 1.1//EN"
 "http://www.w3.org/Graphics/SVG/1.1/DTD/svg11.dtd">
<!-- Generated by graphviz version 2.50.0 (0)
 -->
<!-- Pages: 1 -->
<svg width="572pt" height="368pt"
 viewBox="0.00 0.00 572.00 367.58" xmlns="http://www.w3.org/2000/svg" xmlns:xlink="http://www.w3.org/1999/xlink">
<g id="graph0" class="graph" transform="scale(1 1) rotate(0) translate(4 363.58)">
<polygon fill="white" stroke="transparent" points="-4,4 -4,-363.58 568,-363.58 568,4 -4,4"/>
<!-- 4574311488 -->
<g id="node1" class="node">
<title>4574311488</title>
<ellipse fill="lightblue" stroke="black" cx="195" cy="-338.78" rx="20.6" ry="20.6"/>
<text text-anchor="middle" x="195" y="-335.08" font-family="Helvetica,sans-Serif" font-size="14.00">14</text>
</g>
<!-- 4574313984 -->
<g id="node2" class="node">
<title>4574313984</title>
<ellipse fill="lightblue" stroke="black" cx="66" cy="-275.18" rx="18" ry="18"/>
<text text-anchor="middle" x="66" y="-271.48" font-family="Helvetica,sans-Serif" font-size="14.00">4</text>
</g>
<!-- 4574311488&#45;&gt;4574313984 -->
<g id="edge1" class="edge">
<title>4574311488&#45;&gt;4574313984</title>
<path fill="none" stroke="black" d="M176.52,-328.95C152.74,-317.6 111.57,-297.94 86.74,-286.09"/>
<polygon fill="black" stroke="black" points="87.27,-284.4 82.01,-283.83 85.77,-287.56 87.27,-284.4"/>
</g>
<!-- 814442 -->
<!-- 4574311488&#45;&gt;814442 -->
<!-- 4574312784 -->
<g id="node4" class="node">
<title>4574312784</title>
<ellipse fill="lightblue" stroke="black" cx="327" cy="-275.18" rx="20.6" ry="20.6"/>
<text text-anchor="middle" x="327" y="-271.48" font-family="Helvetica,sans-Serif" font-size="14.00">20</text>
</g>
<!-- 4574311488&#45;&gt;4574312784 -->
<g id="edge3" class="edge">
<title>4574311488&#45;&gt;4574312784</title>
<path fill="none" stroke="black" d="M213.63,-329.09C237.32,-318.03 278.2,-298.96 303.86,-286.98"/>
<polygon fill="black" stroke="black" points="304.67,-288.53 308.46,-284.83 303.19,-285.36 304.67,-288.53"/>
</g>
<!-- 4574334848 -->
<g id="node5" class="node">
<title>4574334848</title>
<ellipse fill="lightblue" stroke="black" cx="18" cy="-211.59" rx="18" ry="18"/>
<text text-anchor="middle" x="18" y="-207.89" font-family="Helvetica,sans-Serif" font-size="14.00">2</text>
</g>
<!-- 4574313984&#45;&gt;4574334848 -->
<g id="edge4" class="edge">
<title>4574313984&#45;&gt;4574334848</title>
<path fill="none" stroke="black" d="M55.35,-260.51C48.39,-251.58 39.23,-239.83 31.73,-230.2"/>
<polygon fill="black" stroke="black" points="33.08,-229.09 28.62,-226.22 30.32,-231.24 33.08,-229.09"/>
</g>
<!-- 38277 -->
<!-- 4574313984&#45;&gt;38277 -->
<!-- 4574334368 -->
<g id="node7" class="node">
<title>4574334368</title>
<ellipse fill="lightblue" stroke="black" cx="116" cy="-211.59" rx="20.6" ry="20.6"/>
<text text-anchor="middle" x="116" y="-207.89" font-family="Helvetica,sans-Serif" font-size="14.00">11</text>
</g>
<!-- 4574313984&#45;&gt;4574334368 -->
<g id="edge6" class="edge">
<title>4574313984&#45;&gt;4574334368</title>
<path fill="none" stroke="black" d="M76.85,-260.82C83.52,-252.59 92.21,-241.9 99.7,-232.67"/>
<polygon fill="black" stroke="black" points="101.25,-233.53 103.04,-228.55 98.53,-231.33 101.25,-233.53"/>
</g>
<!-- 4574312064 -->
<g id="node14" class="node">
<title>4574312064</title>
<ellipse fill="lightblue" stroke="black" cx="277" cy="-211.59" rx="20.6" ry="20.6"/>
<text text-anchor="middle" x="277" y="-207.89" font-family="Helvetica,sans-Serif" font-size="14.00">16</text>
</g>
<!-- 4574312784&#45;&gt;4574312064 -->
<g id="edge13" class="edge">
<title>4574312784&#45;&gt;4574312064</title>
<path fill="none" stroke="black" d="M314.38,-258.64C307.92,-250.68 299.98,-240.89 293.08,-232.39"/>
<polygon fill="black" stroke="black" points="294.3,-231.12 289.79,-228.34 291.58,-233.32 294.3,-231.12"/>
</g>
<!-- 839668 -->
<!-- 4574312784&#45;&gt;839668 -->
<!-- 4574334896 -->
<g id="node16" class="node">
<title>4574334896</title>
<ellipse fill="lightblue" stroke="black" cx="448" cy="-211.59" rx="20.6" ry="20.6"/>
<text text-anchor="middle" x="448" y="-207.89" font-family="Helvetica,sans-Serif" font-size="14.00">23</text>
</g>
<!-- 4574312784&#45;&gt;4574334896 -->
<g id="edge15" class="edge">
<title>4574312784&#45;&gt;4574334896</title>
<path fill="none" stroke="black" d="M345.11,-264.96C366.5,-254.08 402.08,-235.96 425.29,-224.15"/>
<polygon fill="black" stroke="black" points="426.1,-225.7 429.76,-221.87 424.51,-222.58 426.1,-225.7"/>
</g>
<!-- 4574334608 -->
<g id="node8" class="node">
<title>4574334608</title>
<ellipse fill="lightblue" stroke="black" cx="68" cy="-147.99" rx="18" ry="18"/>
<text text-anchor="middle" x="68" y="-144.29" font-family="Helvetica,sans-Serif" font-size="14.00">6</text>
</g>
<!-- 4574334368&#45;&gt;4574334608 -->
<g id="edge7" class="edge">
<title>4574334368&#45;&gt;4574334608</title>
<path fill="none" stroke="black" d="M103.64,-194.72C97.05,-186.27 88.92,-175.83 82.09,-167.07"/>
<polygon fill="black" stroke="black" points="83.3,-165.78 78.85,-162.91 80.54,-167.93 83.3,-165.78"/>
</g>
<!-- 325357 -->
<!-- 4574334368&#45;&gt;325357 -->
<!-- 665377 -->
<!-- 4574334368&#45;&gt;665377 -->
<!-- 40359 -->
<!-- 4574334608&#45;&gt;40359 -->
<!-- 915557 -->
<!-- 4574334608&#45;&gt;915557 -->
<!-- 4574332304 -->
<g id="node13" class="node">
<title>4574332304</title>
<ellipse fill="lightblue" stroke="black" cx="116" cy="-84.39" rx="18" ry="18"/>
<text text-anchor="middle" x="116" y="-80.69" font-family="Helvetica,sans-Serif" font-size="14.00">7</text>
</g>
<!-- 4574334608&#45;&gt;4574332304 -->
<g id="edge12" class="edge">
<title>4574334608&#45;&gt;4574332304</title>
<path fill="none" stroke="black" d="M78.65,-133.32C85.61,-124.39 94.77,-112.64 102.27,-103.01"/>
<polygon fill="black" stroke="black" points="103.68,-104.05 105.38,-99.03 100.92,-101.89 103.68,-104.05"/>
</g>
<!-- 156258 -->
<!-- 4574312064&#45;&gt;156258 -->
<!-- 413334 -->
<!-- 4574312064&#45;&gt;413334 -->
<!-- 4573815648 -->
<g id="node19" class="node">
<title>4573815648</title>
<ellipse fill="lightblue" stroke="black" cx="327" cy="-147.99" rx="20.6" ry="20.6"/>
<text text-anchor="middle" x="327" y="-144.29" font-family="Helvetica,sans-Serif" font-size="14.00">17</text>
</g>
<!-- 4574312064&#45;&gt;4573815648 -->
<g id="edge18" class="edge">
<title>4574312064&#45;&gt;4573815648</title>
<path fill="none" stroke="black" d="M289.62,-195.04C296.08,-187.08 304.02,-177.3 310.92,-168.8"/>
<polygon fill="black" stroke="black" points="312.42,-169.73 314.21,-164.74 309.7,-167.52 312.42,-169.73"/>
</g>
<!-- 4574331344 -->
<g id="node23" class="node">
<title>4574331344</title>
<ellipse fill="lightblue" stroke="black" cx="398" cy="-147.99" rx="20.6" ry="20.6"/>
<text text-anchor="middle" x="398" y="-144.29" font-family="Helvetica,sans-Serif" font-size="14.00">21</text>
</g>
<!-- 4574334896&#45;&gt;4574331344 -->
<g id="edge22" class="edge">
<title>4574334896&#45;&gt;4574331344</title>
<path fill="none" stroke="black" d="M435.38,-195.04C428.92,-187.08 420.98,-177.3 414.08,-168.8"/>
<polygon fill="black" stroke="black" points="415.3,-167.52 410.79,-164.74 412.58,-169.73 415.3,-167.52"/>
</g>
<!-- 464014 -->
<!-- 4574334896&#45;&gt;464014 -->
<!-- 4574331488 -->
<g id="node25" class="node">
<title>4574331488</title>
<ellipse fill="lightblue" stroke="black" cx="498" cy="-147.99" rx="20.6" ry="20.6"/>
<text text-anchor="middle" x="498" y="-144.29" font-family="Helvetica,sans-Serif" font-size="14.00">29</text>
</g>
<!-- 4574334896&#45;&gt;4574331488 -->
<g id="edge24" class="edge">
<title>4574334896&#45;&gt;4574331488</title>
<path fill="none" stroke="black" d="M460.62,-195.04C467.08,-187.08 475.02,-177.3 481.92,-168.8"/>
<polygon fill="black" stroke="black" points="483.42,-169.73 485.21,-164.74 480.7,-167.52 483.42,-169.73"/>
</g>
<!-- 218740 -->
<!-- 4573815648&#45;&gt;218740 -->
<!-- 938383 -->
<!-- 4573815648&#45;&gt;938383 -->
<!-- 4574334944 -->
<g id="node22" class="node">
<title>4574334944</title>
<ellipse fill="lightblue" stroke="black" cx="377" cy="-84.39" rx="20.6" ry="20.6"/>
<text text-anchor="middle" x="377" y="-80.69" font-family="Helvetica,sans-Serif" font-size="14.00">19</text>
</g>
<!-- 4573815648&#45;&gt;4574334944 -->
<g id="edge21" class="edge">
<title>4573815648&#45;&gt;4574334944</title>
<path fill="none" stroke="black" d="M339.62,-131.45C346.08,-123.48 354.02,-113.7 360.92,-105.2"/>
<polygon fill="black" stroke="black" points="362.42,-106.13 364.21,-101.15 359.7,-103.93 362.42,-106.13"/>
</g>
<!-- 4574335280 -->
<g id="node26" class="node">
<title>4574335280</title>
<ellipse fill="lightblue" stroke="black" cx="448" cy="-84.39" rx="20.6" ry="20.6"/>
<text text-anchor="middle" x="448" y="-80.69" font-family="Helvetica,sans-Serif" font-size="14.00">26</text>
</g>
<!-- 4574331488&#45;&gt;4574335280 -->
<g id="edge25" class="edge">
<title>4574331488&#45;&gt;4574335280</title>
<path fill="none" stroke="black" d="M485.38,-131.45C478.92,-123.48 470.98,-113.7 464.08,-105.2"/>
<polygon fill="black" stroke="black" points="465.3,-103.93 460.79,-101.15 462.58,-106.13 465.3,-103.93"/>
</g>
<!-- 468305 -->
<!-- 4574331488&#45;&gt;468305 -->
<!-- 61215 -->
<!-- 4574331488&#45;&gt;61215 -->
<!-- 4574335040 -->
<g id="node29" class="node">
<title>4574335040</title>
<ellipse fill="lightblue" stroke="black" cx="398" cy="-20.8" rx="20.6" ry="20.6"/>
<text text-anchor="middle" x="398" y="-17.1" font-family="Helvetica,sans-Serif" font-size="14.00">25</text>
</g>
<!-- 4574335280&#45;&gt;4574335040 -->
<g id="edge28" class="edge">
<title>4574335280&#45;&gt;4574335040</title>
<path fill="none" stroke="black" d="M435.38,-67.85C428.92,-59.89 420.98,-50.1 414.08,-41.61"/>
<polygon fill="black" stroke="black" points="415.3,-40.33 410.79,-37.55 412.58,-42.54 415.3,-40.33"/>
</g>
<!-- 256927 -->
<!-- 4574335280&#45;&gt;256927 -->
<!-- 55621 -->
<!-- 4574335280&#45;&gt;55621 -->
</g>
</svg>
