<?xml version="1.0" encoding="UTF-8" standalone="no"?>
<!DOCTYPE svg PUBLIC "-//W3C//DTD SVG 1.1//EN"
 "http://www.w3.org/Graphics/SVG/1.1/DTD/svg11.dtd">
<!-- Generated by graphviz version 2.50.0 (0)
 -->
<!-- Pages: 1 -->
<svg width="558pt" height="339pt"
 viewBox="0.00 0.00 558.00 339.09" xmlns="http://www.w3.org/2000/svg" xmlns:xlink="http://www.w3.org/1999/xlink">
<g id="graph0" class="graph" transform="scale(1 1) rotate(0) translate(4 335.09)">
<polygon fill="white" stroke="transparent" points="-4,4 -4,-335.09 554,-335.09 554,4 -4,4"/>
<!-- 4573819728 -->
<g id="node1" class="node">
<title>4573819728</title>
<ellipse fill="lightblue" stroke="black" cx="194" cy="-313.09" rx="18" ry="18"/>
<text text-anchor="middle" x="194" y="-309.39" font-family="Helvetica,sans-Serif" font-size="14.00">C</text>
</g>
<!-- 4574311776 -->
<g id="node2" class="node">
<title>4574311776</title>
<ellipse fill="lightblue" stroke="black" cx="113" cy="-255.09" rx="18" ry="18"/>
<text text-anchor="middle" x="113" y="-251.39" font-family="Helvetica,sans-Serif" font-size="14.00">A</text>
</g>
<!-- 4573819728&#45;&gt;4574311776 -->
<g id="edge1" class="edge">
<title>4573819728&#45;&gt;4574311776</title>
<path fill="none" stroke="black" d="M179.52,-302.08C166.16,-292.84 146.24,-279.07 131.69,-269.01"/>
<polygon fill="black" stroke="black" points="132.46,-267.42 127.36,-266.01 130.47,-270.3 132.46,-267.42"/>
</g>
<!-- 677848 -->
<!-- 4573819728&#45;&gt;677848 -->
<!-- 4574308272 -->
<g id="node4" class="node">
<title>4574308272</title>
<ellipse fill="lightblue" stroke="black" cx="275" cy="-255.09" rx="18" ry="18"/>
<text text-anchor="middle" x="275" y="-251.39" font-family="Helvetica,sans-Serif" font-size="14.00">U</text>
</g>
<!-- 4573819728&#45;&gt;4574308272 -->
<g id="edge3" class="edge">
<title>4573819728&#45;&gt;4574308272</title>
<path fill="none" stroke="black" d="M208.48,-302.08C221.84,-292.84 241.76,-279.07 256.31,-269.01"/>
<polygon fill="black" stroke="black" points="257.53,-270.3 260.64,-266.01 255.54,-267.42 257.53,-270.3"/>
</g>
<!-- 495555 -->
<!-- 4574311776&#45;&gt;495555 -->
<!-- 124028 -->
<!-- 4574311776&#45;&gt;124028 -->
<!-- 4574307408 -->
<g id="node7" class="node">
<title>4574307408</title>
<ellipse fill="lightblue" stroke="black" cx="161" cy="-196.24" rx="18" ry="18"/>
<text text-anchor="middle" x="161" y="-192.54" font-family="Helvetica,sans-Serif" font-size="14.00">B</text>
</g>
<!-- 4574311776&#45;&gt;4574307408 -->
<g id="edge6" class="edge">
<title>4574311776&#45;&gt;4574307408</title>
<path fill="none" stroke="black" d="M124.13,-240.9C130.7,-233.13 139.1,-223.18 146.22,-214.75"/>
<polygon fill="black" stroke="black" points="147.71,-215.7 149.59,-210.75 145.03,-213.44 147.71,-215.7"/>
</g>
<!-- 4574310672 -->
<g id="node8" class="node">
<title>4574310672</title>
<ellipse fill="lightblue" stroke="black" cx="227" cy="-196.24" rx="18.7" ry="18.7"/>
<text text-anchor="middle" x="227" y="-192.54" font-family="Helvetica,sans-Serif" font-size="14.00">M</text>
</g>
<!-- 4574308272&#45;&gt;4574310672 -->
<g id="edge7" class="edge">
<title>4574308272&#45;&gt;4574310672</title>
<path fill="none" stroke="black" d="M263.87,-240.9C257.39,-233.24 249.15,-223.47 242.09,-215.12"/>
<polygon fill="black" stroke="black" points="243.3,-213.84 238.74,-211.15 240.63,-216.1 243.3,-213.84"/>
</g>
<!-- 691884 -->
<!-- 4574308272&#45;&gt;691884 -->
<!-- 4574311680 -->
<g id="node10" class="node">
<title>4574311680</title>
<ellipse fill="lightblue" stroke="black" cx="484" cy="-196.24" rx="18" ry="18"/>
<text text-anchor="middle" x="484" y="-192.54" font-family="Helvetica,sans-Serif" font-size="14.00">X</text>
</g>
<!-- 4574308272&#45;&gt;4574311680 -->
<g id="edge9" class="edge">
<title>4574308272&#45;&gt;4574311680</title>
<path fill="none" stroke="black" d="M292.1,-249.44C329.76,-239.19 419.83,-214.7 461.79,-203.28"/>
<polygon fill="black" stroke="black" points="462.29,-204.96 466.66,-201.96 461.38,-201.58 462.29,-204.96"/>
</g>
<!-- 4574314224 -->
<g id="node11" class="node">
<title>4574314224</title>
<ellipse fill="lightblue" stroke="black" cx="114" cy="-137.39" rx="18" ry="18"/>
<text text-anchor="middle" x="114" y="-133.69" font-family="Helvetica,sans-Serif" font-size="14.00">I</text>
</g>
<!-- 4574310672&#45;&gt;4574314224 -->
<g id="edge10" class="edge">
<title>4574310672&#45;&gt;4574314224</title>
<path fill="none" stroke="black" d="M210.33,-186.85C190.24,-176.75 156.48,-159.76 134.73,-148.82"/>
<polygon fill="black" stroke="black" points="135.26,-147.13 130.01,-146.45 133.69,-150.26 135.26,-147.13"/>
</g>
<!-- 572243 -->
<!-- 4574310672&#45;&gt;572243 -->
<!-- 4574301312 -->
<g id="node13" class="node">
<title>4574301312</title>
<ellipse fill="lightblue" stroke="black" cx="275" cy="-137.39" rx="18" ry="18"/>
<text text-anchor="middle" x="275" y="-133.69" font-family="Helvetica,sans-Serif" font-size="14.00">S</text>
</g>
<!-- 4574310672&#45;&gt;4574301312 -->
<g id="edge12" class="edge">
<title>4574310672&#45;&gt;4574301312</title>
<path fill="none" stroke="black" d="M238.87,-181.19C245.35,-173.5 253.45,-163.92 260.33,-155.76"/>
<polygon fill="black" stroke="black" points="261.71,-156.84 263.6,-151.89 259.04,-154.58 261.71,-156.84"/>
</g>
<!-- 4574302944 -->
<g id="node26" class="node">
<title>4574302944</title>
<ellipse fill="lightblue" stroke="black" cx="436" cy="-137.39" rx="18" ry="18"/>
<text text-anchor="middle" x="436" y="-133.69" font-family="Helvetica,sans-Serif" font-size="14.00">V</text>
</g>
<!-- 4574311680&#45;&gt;4574302944 -->
<g id="edge25" class="edge">
<title>4574311680&#45;&gt;4574302944</title>
<path fill="none" stroke="black" d="M472.87,-182.06C466.3,-174.28 457.9,-164.33 450.78,-155.9"/>
<polygon fill="black" stroke="black" points="451.97,-154.59 447.41,-151.9 449.29,-156.85 451.97,-154.59"/>
</g>
<!-- 746305 -->
<!-- 4574311680&#45;&gt;746305 -->
<!-- 4574311152 -->
<g id="node28" class="node">
<title>4574311152</title>
<ellipse fill="lightblue" stroke="black" cx="532" cy="-137.39" rx="18" ry="18"/>
<text text-anchor="middle" x="532" y="-133.69" font-family="Helvetica,sans-Serif" font-size="14.00">Y</text>
</g>
<!-- 4574311680&#45;&gt;4574311152 -->
<g id="edge27" class="edge">
<title>4574311680&#45;&gt;4574311152</title>
<path fill="none" stroke="black" d="M495.13,-182.06C501.7,-174.28 510.1,-164.33 517.22,-155.9"/>
<polygon fill="black" stroke="black" points="518.71,-156.85 520.59,-151.9 516.03,-154.59 518.71,-156.85"/>
</g>
<!-- 4574311056 -->
<g id="node14" class="node">
<title>4574311056</title>
<ellipse fill="lightblue" stroke="black" cx="66" cy="-77.9" rx="18" ry="18"/>
<text text-anchor="middle" x="66" y="-74.2" font-family="Helvetica,sans-Serif" font-size="14.00">D</text>
</g>
<!-- 4574314224&#45;&gt;4574311056 -->
<g id="edge13" class="edge">
<title>4574314224&#45;&gt;4574311056</title>
<path fill="none" stroke="black" d="M102.87,-123.06C96.2,-115.07 87.66,-104.84 80.48,-96.24"/>
<polygon fill="black" stroke="black" points="81.62,-94.88 77.07,-92.16 78.93,-97.12 81.62,-94.88"/>
</g>
<!-- 332392 -->
<!-- 4574314224&#45;&gt;332392 -->
<!-- 860975 -->
<!-- 4574314224&#45;&gt;860975 -->
<!-- 4574300880 -->
<g id="node20" class="node">
<title>4574300880</title>
<ellipse fill="lightblue" stroke="black" cx="227" cy="-77.9" rx="18" ry="18"/>
<text text-anchor="middle" x="227" y="-74.2" font-family="Helvetica,sans-Serif" font-size="14.00">N</text>
</g>
<!-- 4574301312&#45;&gt;4574300880 -->
<g id="edge19" class="edge">
<title>4574301312&#45;&gt;4574300880</title>
<path fill="none" stroke="black" d="M263.87,-123.06C257.2,-115.07 248.66,-104.84 241.48,-96.24"/>
<polygon fill="black" stroke="black" points="242.62,-94.88 238.07,-92.16 239.93,-97.12 242.62,-94.88"/>
</g>
<!-- 123172 -->
<!-- 4574301312&#45;&gt;123172 -->
<!-- 545163 -->
<!-- 4574301312&#45;&gt;545163 -->
<!-- 568765 -->
<!-- 4574311056&#45;&gt;568765 -->
<!-- 392999 -->
<!-- 4574311056&#45;&gt;392999 -->
<!-- 4574312592 -->
<g id="node19" class="node">
<title>4574312592</title>
<ellipse fill="lightblue" stroke="black" cx="114" cy="-18.2" rx="18" ry="18"/>
<text text-anchor="middle" x="114" y="-14.5" font-family="Helvetica,sans-Serif" font-size="14.00">H</text>
</g>
<!-- 4574311056&#45;&gt;4574312592 -->
<g id="edge18" class="edge">
<title>4574311056&#45;&gt;4574312592</title>
<path fill="none" stroke="black" d="M77.13,-63.51C83.8,-55.5 92.34,-45.23 99.52,-36.6"/>
<polygon fill="black" stroke="black" points="101.08,-37.47 102.93,-32.51 98.38,-35.23 101.08,-37.47"/>
</g>
<!-- 846596 -->
<!-- 4574300880&#45;&gt;846596 -->
<!-- 116237 -->
<!-- 4574300880&#45;&gt;116237 -->
<!-- 4574307648 -->
<g id="node25" class="node">
<title>4574307648</title>
<ellipse fill="lightblue" stroke="black" cx="275" cy="-18.2" rx="18.4" ry="18.4"/>
<text text-anchor="middle" x="275" y="-14.5" font-family="Helvetica,sans-Serif" font-size="14.00">Q</text>
</g>
<!-- 4574300880&#45;&gt;4574307648 -->
<g id="edge24" class="edge">
<title>4574300880&#45;&gt;4574307648</title>
<path fill="none" stroke="black" d="M238.13,-63.51C244.7,-55.62 253.1,-45.53 260.22,-36.97"/>
<polygon fill="black" stroke="black" points="261.74,-37.87 263.59,-32.91 259.05,-35.63 261.74,-37.87"/>
</g>
<!-- 862312 -->
<!-- 4574302944&#45;&gt;862312 -->
<!-- 913789 -->
<!-- 4574302944&#45;&gt;913789 -->
<!-- 4574309328 -->
<g id="node31" class="node">
<title>4574309328</title>
<ellipse fill="lightblue" stroke="black" cx="485" cy="-77.9" rx="19.5" ry="19.5"/>
<text text-anchor="middle" x="485" y="-74.2" font-family="Helvetica,sans-Serif" font-size="14.00">W</text>
</g>
<!-- 4574302944&#45;&gt;4574309328 -->
<g id="edge30" class="edge">
<title>4574302944&#45;&gt;4574309328</title>
<path fill="none" stroke="black" d="M447.36,-123.06C453.88,-115.42 462.14,-105.71 469.27,-97.35"/>
<polygon fill="black" stroke="black" points="470.76,-98.31 472.67,-93.37 468.09,-96.04 470.76,-98.31"/>
</g>
</g>
</svg>
