<?xml version="1.0" encoding="UTF-8" standalone="no"?>
<!DOCTYPE svg PUBLIC "-//W3C//DTD SVG 1.1//EN"
 "http://www.w3.org/Graphics/SVG/1.1/DTD/svg11.dtd">
<!-- Generated by graphviz version 2.50.0 (0)
 -->
<!-- Pages: 1 -->
<svg width="311pt" height="229pt"
 viewBox="0.00 0.00 310.80 229.19" xmlns="http://www.w3.org/2000/svg" xmlns:xlink="http://www.w3.org/1999/xlink">
<g id="graph0" class="graph" transform="scale(1 1) rotate(0) translate(4 225.19)">
<polygon fill="white" stroke="transparent" points="-4,4 -4,-225.19 306.8,-225.19 306.8,4 -4,4"/>
<!-- 4636134624 -->
<g id="node1" class="node">
<title>4636134624</title>
<ellipse fill="lightblue" stroke="black" cx="148" cy="-203.19" rx="18" ry="18"/>
<text text-anchor="middle" x="148" y="-199.49" font-family="Helvetica,sans-Serif" font-size="14.00">5</text>
</g>
<!-- 4634654816 -->
<g id="node2" class="node">
<title>4634654816</title>
<ellipse fill="lightblue" stroke="black" cx="66" cy="-142.39" rx="18" ry="18"/>
<text text-anchor="middle" x="66" y="-138.69" font-family="Helvetica,sans-Serif" font-size="14.00">2</text>
</g>
<!-- 4636134624&#45;&gt;4634654816 -->
<g id="edge1" class="edge">
<title>4636134624&#45;&gt;4634654816</title>
<path fill="none" stroke="black" d="M133.72,-191.95C120.16,-182.23 99.7,-167.56 84.82,-156.89"/>
<polygon fill="black" stroke="black" points="85.48,-155.21 80.39,-153.72 83.44,-158.05 85.48,-155.21"/>
</g>
<!-- 995410 -->
<!-- 4636134624&#45;&gt;995410 -->
<!-- 4636134672 -->
<g id="node4" class="node">
<title>4636134672</title>
<ellipse fill="lightblue" stroke="black" cx="232" cy="-142.39" rx="20.6" ry="20.6"/>
<text text-anchor="middle" x="232" y="-138.69" font-family="Helvetica,sans-Serif" font-size="14.00">15</text>
</g>
<!-- 4636134624&#45;&gt;4636134672 -->
<g id="edge3" class="edge">
<title>4636134624&#45;&gt;4636134672</title>
<path fill="none" stroke="black" d="M162.63,-191.95C176.04,-182.57 196.03,-168.57 211.11,-158.01"/>
<polygon fill="black" stroke="black" points="212.14,-159.44 215.23,-155.13 210.13,-156.57 212.14,-159.44"/>
</g>
<!-- 4636134576 -->
<g id="node5" class="node">
<title>4636134576</title>
<ellipse fill="lightblue" stroke="black" cx="18" cy="-78.8" rx="18" ry="18"/>
<text text-anchor="middle" x="18" y="-75.1" font-family="Helvetica,sans-Serif" font-size="14.00">0</text>
</g>
<!-- 4634654816&#45;&gt;4636134576 -->
<g id="edge4" class="edge">
<title>4634654816&#45;&gt;4636134576</title>
<path fill="none" stroke="black" d="M55.35,-127.72C48.39,-118.79 39.23,-107.04 31.73,-97.41"/>
<polygon fill="black" stroke="black" points="33.08,-96.3 28.62,-93.43 30.32,-98.45 33.08,-96.3"/>
</g>
<!-- 706638 -->
<!-- 4634654816&#45;&gt;706638 -->
<!-- 4636134000 -->
<g id="node7" class="node">
<title>4636134000</title>
<ellipse fill="lightblue" stroke="black" cx="114" cy="-78.8" rx="18" ry="18"/>
<text text-anchor="middle" x="114" y="-75.1" font-family="Helvetica,sans-Serif" font-size="14.00">3</text>
</g>
<!-- 4634654816&#45;&gt;4636134000 -->
<g id="edge6" class="edge">
<title>4634654816&#45;&gt;4636134000</title>
<path fill="none" stroke="black" d="M76.65,-127.72C83.61,-118.79 92.77,-107.04 100.27,-97.41"/>
<polygon fill="black" stroke="black" points="101.68,-98.45 103.38,-93.43 98.92,-96.3 101.68,-98.45"/>
</g>
<!-- 4636134720 -->
<g id="node11" class="node">
<title>4636134720</title>
<ellipse fill="lightblue" stroke="black" cx="182" cy="-78.8" rx="20.6" ry="20.6"/>
<text text-anchor="middle" x="182" y="-75.1" font-family="Helvetica,sans-Serif" font-size="14.00">14</text>
</g>
<!-- 4636134672&#45;&gt;4636134720 -->
<g id="edge10" class="edge">
<title>4636134672&#45;&gt;4636134720</title>
<path fill="none" stroke="black" d="M219.38,-125.85C212.92,-117.89 204.98,-108.1 198.08,-99.61"/>
<polygon fill="black" stroke="black" points="199.3,-98.33 194.79,-95.55 196.58,-100.54 199.3,-98.33"/>
</g>
<!-- 963091 -->
<!-- 4636134672&#45;&gt;963091 -->
<!-- 4636134192 -->
<g id="node13" class="node">
<title>4636134192</title>
<ellipse fill="lightblue" stroke="black" cx="282" cy="-78.8" rx="20.6" ry="20.6"/>
<text text-anchor="middle" x="282" y="-75.1" font-family="Helvetica,sans-Serif" font-size="14.00">20</text>
</g>
<!-- 4636134672&#45;&gt;4636134192 -->
<g id="edge12" class="edge">
<title>4636134672&#45;&gt;4636134192</title>
<path fill="none" stroke="black" d="M244.62,-125.85C251.08,-117.89 259.02,-108.1 265.92,-99.61"/>
<polygon fill="black" stroke="black" points="267.42,-100.54 269.21,-95.55 264.7,-98.33 267.42,-100.54"/>
</g>
<!-- 943045 -->
<!-- 4636134000&#45;&gt;943045 -->
<!-- 229566 -->
<!-- 4636134000&#45;&gt;229566 -->
<!-- 4636139808 -->
<g id="node10" class="node">
<title>4636139808</title>
<ellipse fill="lightblue" stroke="black" cx="162" cy="-18" rx="18" ry="18"/>
<text text-anchor="middle" x="162" y="-14.3" font-family="Helvetica,sans-Serif" font-size="14.00">4</text>
</g>
<!-- 4636134000&#45;&gt;4636139808 -->
<g id="edge9" class="edge">
<title>4636134000&#45;&gt;4636139808</title>
<path fill="none" stroke="black" d="M124.89,-64.46C131.55,-56.3 140.14,-45.77 147.39,-36.9"/>
<polygon fill="black" stroke="black" points="149.01,-37.68 150.82,-32.7 146.3,-35.46 149.01,-37.68"/>
</g>
</g>
</svg>
