<?xml version="1.0" encoding="UTF-8" standalone="no"?>
<!DOCTYPE svg PUBLIC "-//W3C//DTD SVG 1.1//EN"
 "http://www.w3.org/Graphics/SVG/1.1/DTD/svg11.dtd">
<!-- Generated by graphviz version 2.50.0 (0)
 -->
<!-- Pages: 1 -->
<svg width="451pt" height="166pt"
 viewBox="0.00 0.00 450.91 165.96" xmlns="http://www.w3.org/2000/svg" xmlns:xlink="http://www.w3.org/1999/xlink">
<g id="graph0" class="graph" transform="scale(1 1) rotate(0) translate(4 161.96)">
<polygon fill="white" stroke="transparent" points="-4,4 -4,-161.96 446.91,-161.96 446.91,4 -4,4"/>
<!-- 4636140960 -->
<g id="node1" class="node">
<title>4636140960</title>
<ellipse fill="mistyrose" stroke="black" cx="219.76" cy="-139.89" rx="18.13" ry="18.13"/>
<text text-anchor="middle" x="219.76" y="-136.39" font-family="Helvetica,sans-Serif" font-size="15.00">A</text>
</g>
<!-- 4636141296 -->
<g id="node2" class="node">
<title>4636141296</title>
<ellipse fill="mistyrose" stroke="black" cx="95.76" cy="-81.06" rx="18.13" ry="18.13"/>
<text text-anchor="middle" x="95.76" y="-77.56" font-family="Helvetica,sans-Serif" font-size="15.00">B</text>
</g>
<!-- 4636140960&#45;&gt;4636141296 -->
<g id="edge1" class="edge">
<title>4636140960&#45;&gt;4636141296</title>
<path fill="none" stroke="black" d="M203.55,-131.46C181.55,-121.38 142.17,-103.33 117.59,-92.07"/>
<polygon fill="black" stroke="black" points="118.31,-90.09 111.98,-89.5 116.56,-93.91 118.31,-90.09"/>
</g>
<!-- 50866 -->
<!-- 4636140960&#45;&gt;50866 -->
<!-- 4636141536 -->
<g id="node4" class="node">
<title>4636141536</title>
<ellipse fill="mistyrose" stroke="black" cx="343.76" cy="-81.06" rx="18.53" ry="18.53"/>
<text text-anchor="middle" x="343.76" y="-77.56" font-family="Helvetica,sans-Serif" font-size="15.00">C</text>
</g>
<!-- 4636140960&#45;&gt;4636141536 -->
<g id="edge3" class="edge">
<title>4636140960&#45;&gt;4636141536</title>
<path fill="none" stroke="black" d="M235.97,-131.46C257.73,-121.49 296.49,-103.73 321.12,-92.44"/>
<polygon fill="black" stroke="black" points="322.17,-94.27 326.75,-89.86 320.42,-90.45 322.17,-94.27"/>
</g>
<!-- 4636141344 -->
<g id="node5" class="node">
<title>4636141344</title>
<ellipse fill="mistyrose" stroke="black" cx="18.76" cy="-20.15" rx="18.53" ry="18.53"/>
<text text-anchor="middle" x="18.76" y="-16.65" font-family="Helvetica,sans-Serif" font-size="15.00">D</text>
</g>
<!-- 4636141296&#45;&gt;4636141344 -->
<g id="edge4" class="edge">
<title>4636141296&#45;&gt;4636141344</title>
<path fill="none" stroke="black" d="M81.64,-69.26C69.42,-59.91 51.64,-46.3 38.1,-35.94"/>
<polygon fill="black" stroke="black" points="39.36,-34.27 33.32,-32.29 36.81,-37.6 39.36,-34.27"/>
</g>
<!-- 792275 -->
<!-- 4636141296&#45;&gt;792275 -->
<!-- 4636141440 -->
<g id="node7" class="node">
<title>4636141440</title>
<ellipse fill="mistyrose" stroke="black" cx="172.76" cy="-20.15" rx="18.13" ry="18.13"/>
<text text-anchor="middle" x="172.76" y="-16.65" font-family="Helvetica,sans-Serif" font-size="15.00">E</text>
</g>
<!-- 4636141296&#45;&gt;4636141440 -->
<g id="edge6" class="edge">
<title>4636141296&#45;&gt;4636141440</title>
<path fill="none" stroke="black" d="M109.88,-69.26C122.26,-59.79 140.34,-45.96 153.94,-35.55"/>
<polygon fill="black" stroke="black" points="155.24,-37.2 158.73,-31.89 152.69,-33.87 155.24,-37.2"/>
</g>
<!-- 4636134336 -->
<g id="node8" class="node">
<title>4636134336</title>
<ellipse fill="mistyrose" stroke="black" cx="266.76" cy="-20.15" rx="18.13" ry="18.13"/>
<text text-anchor="middle" x="266.76" y="-16.65" font-family="Helvetica,sans-Serif" font-size="15.00">F</text>
</g>
<!-- 4636141536&#45;&gt;4636134336 -->
<g id="edge7" class="edge">
<title>4636141536&#45;&gt;4636134336</title>
<path fill="none" stroke="black" d="M329.28,-68.98C316.97,-59.57 299.21,-45.98 285.77,-35.69"/>
<polygon fill="black" stroke="black" points="286.7,-33.76 280.66,-31.79 284.15,-37.1 286.7,-33.76"/>
</g>
<!-- 382928 -->
<!-- 4636141536&#45;&gt;382928 -->
<!-- 4636134768 -->
<g id="node10" class="node">
<title>4636134768</title>
<ellipse fill="mistyrose" stroke="black" cx="422.76" cy="-20.15" rx="20.3" ry="20.3"/>
<text text-anchor="middle" x="422.76" y="-16.65" font-family="Helvetica,sans-Serif" font-size="15.00">G</text>
</g>
<!-- 4636141536&#45;&gt;4636134768 -->
<g id="edge9" class="edge">
<title>4636141536&#45;&gt;4636134768</title>
<path fill="none" stroke="black" d="M358.62,-68.98C370.88,-59.84 388.42,-46.76 402.05,-36.59"/>
<polygon fill="black" stroke="black" points="403.33,-38.26 406.88,-32.99 400.82,-34.9 403.33,-38.26"/>
</g>
</g>
</svg>
