<svg width="584" height="297" xmlns="http://www.w3.org/2000/svg" xmlns:xlink="http://www.w3.org/1999/xlink" xml:space="preserve" overflow="hidden"><g><g><g><path d="M0.494915 0.494915 97.9932 0.494915 97.9932 28.7051 0.494915 28.7051Z" stroke="#000000" stroke-width="0.98983" stroke-linecap="square" stroke-linejoin="miter" stroke-miterlimit="10" stroke-opacity="1" fill="none" fill-rule="nonzero" transform="matrix(1 0 0 1.00017 356.339 247.5)"/></g><g><text fill="#000000" fill-opacity="1" font-family="Arial,Arial_MSFontService,sans-serif" font-style="normal" font-variant="normal" font-weight="400" font-stretch="normal" font-size="14" text-anchor="start" direction="ltr" writing-mode="lr-tb" unicode-bidi="normal" text-decoration="none" transform="matrix(0.98983 0 0 0.99 393.953 265)">Typ</text></g><g><path d="M0.494915 0.494915 236.569 0.494915 236.569 127.688 0.494915 127.688Z" stroke="#000000" stroke-width="0.98983" stroke-linecap="square" stroke-linejoin="miter" stroke-miterlimit="10" stroke-opacity="1" fill="none" fill-rule="nonzero" transform="matrix(1 0 0 1.00017 277.153 69.3)"/></g><g><text fill="#000000" fill-opacity="1" font-family="Arial,Arial_MSFontService,sans-serif" font-style="normal" font-variant="normal" font-weight="400" font-stretch="normal" font-size="14" text-anchor="start" direction="ltr" writing-mode="lr-tb" unicode-bidi="normal" text-decoration="none" transform="matrix(0.98983 0 0 0.99 353.369 87)">Knoten&lt;Typ&gt;</text></g><g><path d="M0.98983 23.725 236.569 23.725" stroke="#000000" stroke-width="0.98983" stroke-linecap="square" stroke-linejoin="miter" stroke-miterlimit="10" stroke-opacity="1" fill="none" fill-rule="nonzero" transform="matrix(1 0 0 1.00017 277.153 69.3)"/></g><g><path d="M0.98983 44.4805 236.569 44.4805" stroke="#000000" stroke-width="0.98983" stroke-linecap="square" stroke-linejoin="miter" stroke-miterlimit="10" stroke-opacity="1" fill="none" fill-rule="nonzero" transform="matrix(1 0 0 1.00017 277.153 69.3)"/></g><g><text fill="#000000" fill-opacity="1" font-family="Arial,Arial_MSFontService,sans-serif" font-style="normal" font-variant="normal" font-weight="400" font-stretch="normal" font-size="14" text-anchor="start" direction="ltr" writing-mode="lr-tb" unicode-bidi="normal" text-decoration="none" transform="matrix(0.98983 0 0 0.99 282.102 129)">+Knoten&lt;Typ&gt;(pInhalt:Typ)</text></g><g><text fill="#000000" fill-opacity="1" font-family="Arial,Arial_MSFontService,sans-serif" font-style="normal" font-variant="normal" font-weight="400" font-stretch="normal" font-size="14" text-anchor="start" direction="ltr" writing-mode="lr-tb" unicode-bidi="normal" text-decoration="none" transform="matrix(0.98983 0 0 0.99 282.102 160)">+setzeNaechsten(pKn:Knoten&lt;Typ&gt;)</text></g><g><text fill="#000000" fill-opacity="1" font-family="Arial,Arial_MSFontService,sans-serif" font-style="normal" font-variant="normal" font-weight="400" font-stretch="normal" font-size="14" text-anchor="start" direction="ltr" writing-mode="lr-tb" unicode-bidi="normal" text-decoration="none" transform="matrix(0.98983 0 0 0.99 282.102 176)">+gibNaechsten( ):Knoten&lt;Typ&gt;</text></g><g><text fill="#000000" fill-opacity="1" font-family="Arial,Arial_MSFontService,sans-serif" font-style="normal" font-variant="normal" font-weight="400" font-stretch="normal" font-size="14" text-anchor="start" direction="ltr" writing-mode="lr-tb" unicode-bidi="normal" text-decoration="none" transform="matrix(0.98983 0 0 0.99 282.102 192)">+gibInhalt( ):Typ</text></g><g><path d="M0.494915 0.494915 167.281 0.494915 167.281 147.485 0.494915 147.485Z" stroke="#000000" stroke-width="0.98983" stroke-linecap="square" stroke-linejoin="miter" stroke-miterlimit="10" stroke-opacity="1" fill="none" fill-rule="nonzero" transform="matrix(1 0 0 1.00017 19.7966 69.3)"/></g><g><text fill="#000000" fill-opacity="1" font-family="Arial,Arial_MSFontService,sans-serif" font-style="normal" font-variant="normal" font-weight="400" font-stretch="normal" font-size="14" text-anchor="start" direction="ltr" writing-mode="lr-tb" unicode-bidi="normal" text-decoration="none" transform="matrix(0.98983 0 0 0.99 37.6136 87)">Warteschlange&lt;Typ&gt;</text></g><g><path d="M0.98983 23.725 167.281 23.725" stroke="#000000" stroke-width="0.98983" stroke-linecap="square" stroke-linejoin="miter" stroke-miterlimit="10" stroke-opacity="1" fill="none" fill-rule="nonzero" transform="matrix(1 0 0 1.00017 19.7966 69.3)"/></g><g><path d="M0.98983 44.4805 167.281 44.4805" stroke="#000000" stroke-width="0.98983" stroke-linecap="square" stroke-linejoin="miter" stroke-miterlimit="10" stroke-opacity="1" fill="none" fill-rule="nonzero" transform="matrix(1 0 0 1.00017 19.7966 69.3)"/></g><g><text fill="#000000" fill-opacity="1" font-family="Arial,Arial_MSFontService,sans-serif" font-style="normal" font-variant="normal" font-weight="400" font-stretch="normal" font-size="14" text-anchor="start" direction="ltr" writing-mode="lr-tb" unicode-bidi="normal" text-decoration="none" transform="matrix(0.98983 0 0 0.99 24.7458 129)">+Warteschlange&lt;Typ&gt;( )</text></g><g><text fill="#000000" fill-opacity="1" font-family="Arial,Arial_MSFontService,sans-serif" font-style="normal" font-variant="normal" font-weight="400" font-stretch="normal" font-size="14" text-anchor="start" direction="ltr" writing-mode="lr-tb" unicode-bidi="normal" text-decoration="none" transform="matrix(0.98983 0 0 0.99 24.7458 160)">+istLeer( ):Boolean</text></g><g><text fill="#000000" fill-opacity="1" font-family="Arial,Arial_MSFontService,sans-serif" font-style="normal" font-variant="normal" font-weight="400" font-stretch="normal" font-size="14" text-anchor="start" direction="ltr" writing-mode="lr-tb" unicode-bidi="normal" text-decoration="none" transform="matrix(0.98983 0 0 0.99 24.7458 176)">+enqueue(pInhalt:Typ)</text></g><g><text fill="#000000" fill-opacity="1" font-family="Arial,Arial_MSFontService,sans-serif" font-style="normal" font-variant="normal" font-weight="400" font-stretch="normal" font-size="14" text-anchor="start" direction="ltr" writing-mode="lr-tb" unicode-bidi="normal" text-decoration="none" transform="matrix(0.98983 0 0 0.99 24.7458 192)">+dequeue( ):Typ</text></g><g><text fill="#000000" fill-opacity="1" font-family="Arial,Arial_MSFontService,sans-serif" font-style="normal" font-variant="normal" font-weight="400" font-stretch="normal" font-size="14" text-anchor="start" direction="ltr" writing-mode="lr-tb" unicode-bidi="normal" text-decoration="none" transform="matrix(0.98983 0 0 0.99 24.7458 208)">+anzahlElemente( ):GZ</text></g><g><path d="M98.4881 20.2915 10.3932 20.2915" stroke="#000000" stroke-width="0.98983" stroke-linecap="square" stroke-linejoin="miter" stroke-miterlimit="10" stroke-opacity="1" fill="none" fill-rule="nonzero" transform="matrix(1 0 0 1.00017 178.169 118.8)"/></g><g><path d="M87.8392 13.8576 98.983 20.2915 87.8392 26.7254" stroke="#000000" stroke-width="0.98983" stroke-linecap="square" stroke-linejoin="miter" stroke-miterlimit="10" stroke-opacity="1" fill="none" fill-rule="nonzero" transform="matrix(1 0 0 1.00017 178.169 118.8)"/></g><g><text fill="#000000" fill-opacity="1" font-family="Arial,Arial_MSFontService,sans-serif" font-style="normal" font-variant="normal" font-weight="400" font-stretch="normal" font-size="14" text-anchor="start" direction="ltr" writing-mode="lr-tb" unicode-bidi="normal" text-decoration="none" transform="matrix(0.98983 0 0 0.99 234.242 152)">0..1</text></g><g><text fill="#000000" fill-opacity="1" font-family="Arial,Arial_MSFontService,sans-serif" font-style="normal" font-variant="normal" font-weight="400" font-stretch="normal" font-size="14" text-anchor="start" direction="ltr" writing-mode="lr-tb" unicode-bidi="normal" text-decoration="none" transform="matrix(0.98983 0 0 0.99 226.528 135)">ende</text></g><g><path d="M49.9864 58.8949 49.9864 10.3932" stroke="#000000" stroke-width="0.98983" stroke-linecap="square" stroke-linejoin="miter" stroke-miterlimit="10" stroke-opacity="1" fill="none" fill-rule="nonzero" transform="matrix(1 0 0 1.00017 356.339 188.1)"/></g><g><path d="M56.4203 48.246 49.9864 59.3898 43.5525 48.246" stroke="#000000" stroke-width="0.98983" stroke-linecap="square" stroke-linejoin="miter" stroke-miterlimit="10" stroke-opacity="1" fill="none" fill-rule="nonzero" transform="matrix(1 0 0 1.00017 356.339 188.1)"/></g><g><text fill="#000000" fill-opacity="1" font-family="Arial,Arial_MSFontService,sans-serif" font-style="normal" font-variant="normal" font-weight="400" font-stretch="normal" font-size="14" text-anchor="start" direction="ltr" writing-mode="lr-tb" unicode-bidi="normal" text-decoration="none" transform="matrix(0.98983 0 0 0.99 409.79 232)">1</text></g><g><text fill="#000000" fill-opacity="1" font-family="Arial,Arial_MSFontService,sans-serif" font-style="normal" font-variant="normal" font-weight="400" font-stretch="normal" font-size="14" text-anchor="start" direction="ltr" writing-mode="lr-tb" unicode-bidi="normal" text-decoration="none" transform="matrix(0.98983 0 0 0.99 363.268 231)">inhalt</text></g><g><path d="M69.7831 48.9966 69.7831 10.3932" stroke="#000000" stroke-width="0.98983" stroke-linecap="square" stroke-linejoin="miter" stroke-miterlimit="10" stroke-opacity="1" fill="none" fill-rule="nonzero" transform="matrix(1 0 0 1.00017 405.831 19.8)"/></g><g><path d="M69.7831 10.3932 139.071 10.3932" stroke="#000000" stroke-width="0.98983" stroke-linecap="square" stroke-linejoin="miter" stroke-miterlimit="10" stroke-opacity="1" fill="none" fill-rule="nonzero" transform="matrix(1 0 0 1.00017 405.831 19.8)"/></g><g><path d="M139.071 10.3932 139.071 59.8847" stroke="#000000" stroke-width="0.98983" stroke-linecap="square" stroke-linejoin="miter" stroke-miterlimit="10" stroke-opacity="1" fill="none" fill-rule="nonzero" transform="matrix(1 0 0 1.00017 405.831 19.8)"/></g><g><path d="M139.071 59.8847 109.376 59.8847" stroke="#000000" stroke-width="0.98983" stroke-linecap="square" stroke-linejoin="miter" stroke-miterlimit="10" stroke-opacity="1" fill="none" fill-rule="nonzero" transform="matrix(1 0 0 1.00017 405.831 19.8)"/></g><g><path d="M76.2169 38.3477 69.7831 49.4915 63.3492 38.3477" stroke="#000000" stroke-width="0.98983" stroke-linecap="square" stroke-linejoin="miter" stroke-miterlimit="10" stroke-opacity="1" fill="none" fill-rule="nonzero" transform="matrix(1 0 0 1.00017 405.831 19.8)"/></g><g><text fill="#000000" fill-opacity="1" font-family="Arial,Arial_MSFontService,sans-serif" font-style="normal" font-variant="normal" font-weight="400" font-stretch="normal" font-size="14" text-anchor="start" direction="ltr" writing-mode="lr-tb" unicode-bidi="normal" text-decoration="none" transform="matrix(0.98983 0 0 0.99 479.078 53)">0..1</text></g><g><text fill="#000000" fill-opacity="1" font-family="Arial,Arial_MSFontService,sans-serif" font-style="normal" font-variant="normal" font-weight="400" font-stretch="normal" font-size="14" text-anchor="start" direction="ltr" writing-mode="lr-tb" unicode-bidi="normal" text-decoration="none" transform="matrix(0.98983 0 0 0.99 411.77 53)">naechster</text></g><g><path d="M98.4881 20.2915 10.3932 20.2915" stroke="#000000" stroke-width="0.98983" stroke-linecap="square" stroke-linejoin="miter" stroke-miterlimit="10" stroke-opacity="1" fill="none" fill-rule="nonzero" transform="matrix(1 0 0 1.00017 178.169 59.4)"/></g><g><path d="M87.8392 13.8576 98.983 20.2915 87.8392 26.7254" stroke="#000000" stroke-width="0.98983" stroke-linecap="square" stroke-linejoin="miter" stroke-miterlimit="10" stroke-opacity="1" fill="none" fill-rule="nonzero" transform="matrix(1 0 0 1.00017 178.169 59.4)"/></g><g><text fill="#000000" fill-opacity="1" font-family="Arial,Arial_MSFontService,sans-serif" font-style="normal" font-variant="normal" font-weight="400" font-stretch="normal" font-size="14" text-anchor="start" direction="ltr" writing-mode="lr-tb" unicode-bidi="normal" text-decoration="none" transform="matrix(0.98983 0 0 0.99 234.242 93)">0..1</text></g><g><text fill="#000000" fill-opacity="1" font-family="Arial,Arial_MSFontService,sans-serif" font-style="normal" font-variant="normal" font-weight="400" font-stretch="normal" font-size="14" text-anchor="start" direction="ltr" writing-mode="lr-tb" unicode-bidi="normal" text-decoration="none" transform="matrix(0.98983 0 0 0.99 231.163 75)">kopf</text></g></g></g></svg>