<svg width="578" height="304" xmlns="http://www.w3.org/2000/svg" xmlns:xlink="http://www.w3.org/1999/xlink" xml:space="preserve" overflow="hidden"><g><g><g><path d="M0.506667 0.506667 100.32 0.506667 100.32 29.3867 0.506667 29.3867Z" stroke="#000000" stroke-width="1.01333" stroke-linecap="square" stroke-linejoin="miter" stroke-miterlimit="10" stroke-opacity="1" fill="none" fill-rule="nonzero" transform="matrix(1.00069 0 0 1 324.491 253.333)"/></g><g><text fill="#000000" fill-opacity="1" font-family="Arial,Arial_MSFontService,sans-serif" font-style="normal" font-variant="normal" font-weight="400" font-stretch="normal" font-size="14" text-anchor="start" direction="ltr" writing-mode="lr-tb" unicode-bidi="normal" text-decoration="none" transform="matrix(1.01404 0 0 1.01333 363.025 272)">Typ</text></g><g><path d="M0.506667 0.506667 242.187 0.506667 242.187 140.853 0.506667 140.853Z" stroke="#000000" stroke-width="1.01333" stroke-linecap="square" stroke-linejoin="miter" stroke-miterlimit="10" stroke-opacity="1" fill="none" fill-rule="nonzero" transform="matrix(1.00069 0 0 1 273.789 70.9333)"/></g><g><text fill="#000000" fill-opacity="1" font-family="Arial,Arial_MSFontService,sans-serif" font-style="normal" font-variant="normal" font-weight="400" font-stretch="normal" font-size="14" text-anchor="start" direction="ltr" writing-mode="lr-tb" unicode-bidi="normal" text-decoration="none" transform="matrix(1.01404 0 0 1.01333 351.87 89)">Knoten&lt;Typ&gt;</text></g><g><path d="M1.01333 24.2884 242.187 24.2884" stroke="#000000" stroke-width="1.01333" stroke-linecap="square" stroke-linejoin="miter" stroke-miterlimit="10" stroke-opacity="1" fill="none" fill-rule="nonzero" transform="matrix(1.00069 0 0 1 273.789 70.9333)"/></g><g><path d="M1.01333 45.5367 242.187 45.5367" stroke="#000000" stroke-width="1.01333" stroke-linecap="square" stroke-linejoin="miter" stroke-miterlimit="10" stroke-opacity="1" fill="none" fill-rule="nonzero" transform="matrix(1.00069 0 0 1 273.789 70.9333)"/></g><g><text fill="#000000" fill-opacity="1" font-family="Arial,Arial_MSFontService,sans-serif" font-style="normal" font-variant="normal" font-weight="400" font-stretch="normal" font-size="14" text-anchor="start" direction="ltr" writing-mode="lr-tb" unicode-bidi="normal" text-decoration="none" transform="matrix(1.01404 0 0 1.01333 278.86 132)">+Knoten&lt;Typ&gt;(pInhalt:Typ)</text></g><g><text fill="#000000" fill-opacity="1" font-family="Arial,Arial_MSFontService,sans-serif" font-style="normal" font-variant="normal" font-weight="400" font-stretch="normal" font-size="14" text-anchor="start" direction="ltr" writing-mode="lr-tb" unicode-bidi="normal" text-decoration="none" transform="matrix(1.01404 0 0 1.01333 278.86 164)">+setzeNaechsten(pKn:Knoten&lt;Typ&gt;)</text></g><g><text fill="#000000" fill-opacity="1" font-family="Arial,Arial_MSFontService,sans-serif" font-style="normal" font-variant="normal" font-weight="400" font-stretch="normal" font-size="14" text-anchor="start" direction="ltr" writing-mode="lr-tb" unicode-bidi="normal" text-decoration="none" transform="matrix(1.01404 0 0 1.01333 278.86 180)">+gibNaechsten( ):Knoten&lt;Typ&gt;</text></g><g><text fill="#000000" fill-opacity="1" font-family="Arial,Arial_MSFontService,sans-serif" font-style="normal" font-variant="normal" font-weight="400" font-stretch="normal" font-size="14" text-anchor="start" direction="ltr" writing-mode="lr-tb" unicode-bidi="normal" text-decoration="none" transform="matrix(1.01404 0 0 1.01333 278.86 196)">+gibInhalt( ):Typ</text></g><g><path d="M0.506667 0.506667 161.12 0.506667 161.12 171.253 0.506667 171.253Z" stroke="#000000" stroke-width="1.01333" stroke-linecap="square" stroke-linejoin="miter" stroke-miterlimit="10" stroke-opacity="1" fill="none" fill-rule="nonzero" transform="matrix(1.00069 0 0 1 20.2807 70.9333)"/></g><g><text fill="#000000" fill-opacity="1" font-family="Arial,Arial_MSFontService,sans-serif" font-style="normal" font-variant="normal" font-weight="400" font-stretch="normal" font-size="14" text-anchor="start" direction="ltr" writing-mode="lr-tb" unicode-bidi="normal" text-decoration="none" transform="matrix(1.01404 0 0 1.01333 60.8421 89)">Stapel&lt;Typ&gt;</text></g><g><path d="M1.01333 24.2884 161.12 24.2884" stroke="#000000" stroke-width="1.01333" stroke-linecap="square" stroke-linejoin="miter" stroke-miterlimit="10" stroke-opacity="1" fill="none" fill-rule="nonzero" transform="matrix(1.00069 0 0 1 20.2807 70.9333)"/></g><g><path d="M1.01333 45.5367 161.12 45.5367" stroke="#000000" stroke-width="1.01333" stroke-linecap="square" stroke-linejoin="miter" stroke-miterlimit="10" stroke-opacity="1" fill="none" fill-rule="nonzero" transform="matrix(1.00069 0 0 1 20.2807 70.9333)"/></g><g><text fill="#000000" fill-opacity="1" font-family="Arial,Arial_MSFontService,sans-serif" font-style="normal" font-variant="normal" font-weight="400" font-stretch="normal" font-size="14" text-anchor="start" direction="ltr" writing-mode="lr-tb" unicode-bidi="normal" text-decoration="none" transform="matrix(1.01404 0 0 1.01333 25.3509 132)">+Stapel&lt;Typ&gt;( )</text></g><g><text fill="#000000" fill-opacity="1" font-family="Arial,Arial_MSFontService,sans-serif" font-style="normal" font-variant="normal" font-weight="400" font-stretch="normal" font-size="14" text-anchor="start" direction="ltr" writing-mode="lr-tb" unicode-bidi="normal" text-decoration="none" transform="matrix(1.01404 0 0 1.01333 25.3509 164)">+istLeer( ):Boolean</text></g><g><text fill="#000000" fill-opacity="1" font-family="Arial,Arial_MSFontService,sans-serif" font-style="normal" font-variant="normal" font-weight="400" font-stretch="normal" font-size="14" text-anchor="start" direction="ltr" writing-mode="lr-tb" unicode-bidi="normal" text-decoration="none" transform="matrix(1.01404 0 0 1.01333 25.3509 180)">+push(pInhalt:Typ)</text></g><g><text fill="#000000" fill-opacity="1" font-family="Arial,Arial_MSFontService,sans-serif" font-style="normal" font-variant="normal" font-weight="400" font-stretch="normal" font-size="14" text-anchor="start" direction="ltr" writing-mode="lr-tb" unicode-bidi="normal" text-decoration="none" transform="matrix(1.01404 0 0 1.01333 25.3509 196)">+pop( ):Typ</text></g><g><text fill="#000000" fill-opacity="1" font-family="Arial,Arial_MSFontService,sans-serif" font-style="normal" font-variant="normal" font-weight="400" font-stretch="normal" font-size="14" text-anchor="start" direction="ltr" writing-mode="lr-tb" unicode-bidi="normal" text-decoration="none" transform="matrix(1.01404 0 0 1.01333 25.3509 213)">+top( ):Typ</text></g><g><text fill="#000000" fill-opacity="1" font-family="Arial,Arial_MSFontService,sans-serif" font-style="normal" font-variant="normal" font-weight="400" font-stretch="normal" font-size="14" text-anchor="start" direction="ltr" writing-mode="lr-tb" unicode-bidi="normal" text-decoration="none" transform="matrix(1.01404 0 0 1.01333 25.3509 229)">+anzahlElemente( ):GZ</text></g><g><path d="M51.1733 50.16 51.1733 10.64" stroke="#000000" stroke-width="1.01333" stroke-linecap="square" stroke-linejoin="miter" stroke-miterlimit="10" stroke-opacity="1" fill="none" fill-rule="nonzero" transform="matrix(1.00069 0 0 1 324.491 202.667)"/></g><g><path d="M57.76 39.2583 51.1733 50.6667 44.5867 39.2583" stroke="#000000" stroke-width="1.01333" stroke-linecap="square" stroke-linejoin="miter" stroke-miterlimit="10" stroke-opacity="1" fill="none" fill-rule="nonzero" transform="matrix(1.00069 0 0 1 324.491 202.667)"/></g><g><text fill="#000000" fill-opacity="1" font-family="Arial,Arial_MSFontService,sans-serif" font-style="normal" font-variant="normal" font-weight="400" font-stretch="normal" font-size="14" text-anchor="start" direction="ltr" writing-mode="lr-tb" unicode-bidi="normal" text-decoration="none" transform="matrix(1.01404 0 0 1.01333 379.249 237)">1</text></g><g><text fill="#000000" fill-opacity="1" font-family="Arial,Arial_MSFontService,sans-serif" font-style="normal" font-variant="normal" font-weight="400" font-stretch="normal" font-size="14" text-anchor="start" direction="ltr" writing-mode="lr-tb" unicode-bidi="normal" text-decoration="none" transform="matrix(1.01404 0 0 1.01333 331.589 236)">inhalt</text></g><g><path d="M71.44 50.16 71.44 10.64" stroke="#000000" stroke-width="1.01333" stroke-linecap="square" stroke-linejoin="miter" stroke-miterlimit="10" stroke-opacity="1" fill="none" fill-rule="nonzero" transform="matrix(1.00069 0 0 1 405.614 20.2667)"/></g><g><path d="M71.44 10.64 132.24 10.64" stroke="#000000" stroke-width="1.01333" stroke-linecap="square" stroke-linejoin="miter" stroke-miterlimit="10" stroke-opacity="1" fill="none" fill-rule="nonzero" transform="matrix(1.00069 0 0 1 405.614 20.2667)"/></g><g><path d="M132.24 10.64 132.24 61.3067" stroke="#000000" stroke-width="1.01333" stroke-linecap="square" stroke-linejoin="miter" stroke-miterlimit="10" stroke-opacity="1" fill="none" fill-rule="nonzero" transform="matrix(1.00069 0 0 1 405.614 20.2667)"/></g><g><path d="M132.24 61.3067 111.973 61.3067" stroke="#000000" stroke-width="1.01333" stroke-linecap="square" stroke-linejoin="miter" stroke-miterlimit="10" stroke-opacity="1" fill="none" fill-rule="nonzero" transform="matrix(1.00069 0 0 1 405.614 20.2667)"/></g><g><path d="M78.0267 39.2583 71.44 50.6667 64.8533 39.2583" stroke="#000000" stroke-width="1.01333" stroke-linecap="square" stroke-linejoin="miter" stroke-miterlimit="10" stroke-opacity="1" fill="none" fill-rule="nonzero" transform="matrix(1.00069 0 0 1 405.614 20.2667)"/></g><g><text fill="#000000" fill-opacity="1" font-family="Arial,Arial_MSFontService,sans-serif" font-style="normal" font-variant="normal" font-weight="400" font-stretch="normal" font-size="14" text-anchor="start" direction="ltr" writing-mode="lr-tb" unicode-bidi="normal" text-decoration="none" transform="matrix(1.01404 0 0 1.01333 480.653 55)">0..1</text></g><g><text fill="#000000" fill-opacity="1" font-family="Arial,Arial_MSFontService,sans-serif" font-style="normal" font-variant="normal" font-weight="400" font-stretch="normal" font-size="14" text-anchor="start" direction="ltr" writing-mode="lr-tb" unicode-bidi="normal" text-decoration="none" transform="matrix(1.01404 0 0 1.01333 414.74 54)">naechster</text></g><g><path d="M100.827 20.7733 10.64 20.7733" stroke="#000000" stroke-width="1.01333" stroke-linecap="square" stroke-linejoin="miter" stroke-miterlimit="10" stroke-opacity="1" fill="none" fill-rule="nonzero" transform="matrix(1.00069 0 0 1 172.386 60.8)"/></g><g><path d="M89.9249 14.1867 101.333 20.7733 89.9249 27.36" stroke="#000000" stroke-width="1.01333" stroke-linecap="square" stroke-linejoin="miter" stroke-miterlimit="10" stroke-opacity="1" fill="none" fill-rule="nonzero" transform="matrix(1.00069 0 0 1 172.386 60.8)"/></g><g><text fill="#000000" fill-opacity="1" font-family="Arial,Arial_MSFontService,sans-serif" font-style="normal" font-variant="normal" font-weight="400" font-stretch="normal" font-size="14" text-anchor="start" direction="ltr" writing-mode="lr-tb" unicode-bidi="normal" text-decoration="none" transform="matrix(1.01404 0 0 1.01333 229.829 95)">0..1</text></g><g><text fill="#000000" fill-opacity="1" font-family="Arial,Arial_MSFontService,sans-serif" font-style="normal" font-variant="normal" font-weight="400" font-stretch="normal" font-size="14" text-anchor="start" direction="ltr" writing-mode="lr-tb" unicode-bidi="normal" text-decoration="none" transform="matrix(1.01404 0 0 1.01333 210.087 77)">anfang</text></g></g></g></svg>