<?xml version="1.0" encoding="utf-8" standalone="no"?>
<!DOCTYPE svg PUBLIC "-//W3C//DTD SVG 1.1//EN"
  "http://www.w3.org/Graphics/SVG/1.1/DTD/svg11.dtd">
<svg xmlns:xlink="http://www.w3.org/1999/xlink" width="576pt" height="432pt" viewBox="0 0 576 432" xmlns="http://www.w3.org/2000/svg" version="1.1">
 <metadata>
  <rdf:RDF xmlns:dc="http://purl.org/dc/elements/1.1/" xmlns:cc="http://creativecommons.org/ns#" xmlns:rdf="http://www.w3.org/1999/02/22-rdf-syntax-ns#">
   <cc:Work>
    <dc:type rdf:resource="http://purl.org/dc/dcmitype/StillImage"/>
    <dc:date>2024-11-30T13:50:41.531766</dc:date>
    <dc:format>image/svg+xml</dc:format>
    <dc:creator>
     <cc:Agent>
      <dc:title>Matplotlib v3.9.2, https://matplotlib.org/</dc:title>
     </cc:Agent>
    </dc:creator>
   </cc:Work>
  </rdf:RDF>
 </metadata>
 <defs>
  <style type="text/css">*{stroke-linejoin: round; stroke-linecap: butt}</style>
 </defs>
 <g id="figure_1">
  <g id="patch_1">
   <path d="M 0 432 
L 576 432 
L 576 0 
L 0 0 
z
" style="fill: #ffffff"/>
  </g>
  <g id="axes_1">
   <g id="patch_2">
    <path d="M 72 384.48 
L 518.4 384.48 
L 518.4 51.84 
L 72 51.84 
z
" style="fill: #ffffff"/>
   </g>
   <g id="PathCollection_1">
    <defs>
     <path id="ma81a239878" d="M 0 1.118034 
C 0.296506 1.118034 0.580908 1.000231 0.790569 0.790569 
C 1.000231 0.580908 1.118034 0.296506 1.118034 0 
C 1.118034 -0.296506 1.000231 -0.580908 0.790569 -0.790569 
C 0.580908 -1.000231 0.296506 -1.118034 0 -1.118034 
C -0.296506 -1.118034 -0.580908 -1.000231 -0.790569 -0.790569 
C -1.000231 -0.580908 -1.118034 -0.296506 -1.118034 0 
C -1.118034 0.296506 -1.000231 0.580908 -0.790569 0.790569 
C -0.580908 1.000231 -0.296506 1.118034 0 1.118034 
z
" style="stroke: #0000ff"/>
    </defs>
    <g clip-path="url(#p9852ceec22)">
     <use xlink:href="#ma81a239878" x="171.949394" y="322.199079" style="fill: #0000ff; stroke: #0000ff"/>
     <use xlink:href="#ma81a239878" x="242.654525" y="236.101678" style="fill: #0000ff; stroke: #0000ff"/>
     <use xlink:href="#ma81a239878" x="212.20314" y="286.629161" style="fill: #0000ff; stroke: #0000ff"/>
     <use xlink:href="#ma81a239878" x="231.334364" y="270.458304" style="fill: #0000ff; stroke: #0000ff"/>
     <use xlink:href="#ma81a239878" x="232.228273" y="219.358023" style="fill: #0000ff; stroke: #0000ff"/>
     <use xlink:href="#ma81a239878" x="267.914386" y="329.298776" style="fill: #0000ff; stroke: #0000ff"/>
     <use xlink:href="#ma81a239878" x="216.031326" y="240.129083" style="fill: #0000ff; stroke: #0000ff"/>
     <use xlink:href="#ma81a239878" x="215.028855" y="263.629326" style="fill: #0000ff; stroke: #0000ff"/>
     <use xlink:href="#ma81a239878" x="266.669315" y="307.67569" style="fill: #0000ff; stroke: #0000ff"/>
     <use xlink:href="#ma81a239878" x="128.858587" y="265.151779" style="fill: #0000ff; stroke: #0000ff"/>
     <use xlink:href="#ma81a239878" x="219.59302" y="231.359196" style="fill: #0000ff; stroke: #0000ff"/>
     <use xlink:href="#ma81a239878" x="210.892358" y="280.434564" style="fill: #0000ff; stroke: #0000ff"/>
     <use xlink:href="#ma81a239878" x="183.753966" y="291.585696" style="fill: #0000ff; stroke: #0000ff"/>
     <use xlink:href="#ma81a239878" x="232.027721" y="307.763416" style="fill: #0000ff; stroke: #0000ff"/>
     <use xlink:href="#ma81a239878" x="206.887073" y="265.355846" style="fill: #0000ff; stroke: #0000ff"/>
     <use xlink:href="#ma81a239878" x="246.315261" y="243.805611" style="fill: #0000ff; stroke: #0000ff"/>
     <use xlink:href="#ma81a239878" x="92.290909" y="292.763894" style="fill: #0000ff; stroke: #0000ff"/>
     <use xlink:href="#ma81a239878" x="291.195598" y="304.099255" style="fill: #0000ff; stroke: #0000ff"/>
     <use xlink:href="#ma81a239878" x="196.683674" y="234.739674" style="fill: #0000ff; stroke: #0000ff"/>
     <use xlink:href="#ma81a239878" x="167.263118" y="244.54669" style="fill: #0000ff; stroke: #0000ff"/>
     <use xlink:href="#ma81a239878" x="211.022691" y="335.117621" style="fill: #0000ff; stroke: #0000ff"/>
     <use xlink:href="#ma81a239878" x="238.359777" y="239.743046" style="fill: #0000ff; stroke: #0000ff"/>
    </g>
   </g>
   <g id="PathCollection_2">
    <defs>
     <path id="me6c2bd9923" d="M 0 1.118034 
C 0.296506 1.118034 0.580908 1.000231 0.790569 0.790569 
C 1.000231 0.580908 1.118034 0.296506 1.118034 0 
C 1.118034 -0.296506 1.000231 -0.580908 0.790569 -0.790569 
C 0.580908 -1.000231 0.296506 -1.118034 0 -1.118034 
C -0.296506 -1.118034 -0.580908 -1.000231 -0.790569 -0.790569 
C -1.000231 -0.580908 -1.118034 -0.296506 -1.118034 0 
C -1.118034 0.296506 -1.000231 0.580908 -0.790569 0.790569 
C -0.580908 1.000231 -0.296506 1.118034 0 1.118034 
z
" style="stroke: #008000"/>
    </defs>
    <g clip-path="url(#p9852ceec22)">
     <use xlink:href="#me6c2bd9923" x="287.447964" y="246.15781" style="fill: #008000; stroke: #008000"/>
     <use xlink:href="#me6c2bd9923" x="335.715915" y="221.141502" style="fill: #008000; stroke: #008000"/>
     <use xlink:href="#me6c2bd9923" x="297.913167" y="248.542575" style="fill: #008000; stroke: #008000"/>
     <use xlink:href="#me6c2bd9923" x="301.63046" y="216.992719" style="fill: #008000; stroke: #008000"/>
     <use xlink:href="#me6c2bd9923" x="327.12738" y="241.560315" style="fill: #008000; stroke: #008000"/>
     <use xlink:href="#me6c2bd9923" x="406.320733" y="242.446877" style="fill: #008000; stroke: #008000"/>
     <use xlink:href="#me6c2bd9923" x="297.244451" y="230.683228" style="fill: #008000; stroke: #008000"/>
     <use xlink:href="#me6c2bd9923" x="381.131378" y="254.063434" style="fill: #008000; stroke: #008000"/>
     <use xlink:href="#me6c2bd9923" x="449.238873" y="188.396681" style="fill: #008000; stroke: #008000"/>
     <use xlink:href="#me6c2bd9923" x="392.320382" y="276.693229" style="fill: #008000; stroke: #008000"/>
     <use xlink:href="#me6c2bd9923" x="337.541766" y="201.47935" style="fill: #008000; stroke: #008000"/>
     <use xlink:href="#me6c2bd9923" x="278.718624" y="234.151286" style="fill: #008000; stroke: #008000"/>
     <use xlink:href="#me6c2bd9923" x="385.415758" y="240.265984" style="fill: #008000; stroke: #008000"/>
     <use xlink:href="#me6c2bd9923" x="321.252453" y="271.240955" style="fill: #008000; stroke: #008000"/>
     <use xlink:href="#me6c2bd9923" x="312.650066" y="260.336501" style="fill: #008000; stroke: #008000"/>
     <use xlink:href="#me6c2bd9923" x="315.559416" y="207.187908" style="fill: #008000; stroke: #008000"/>
     <use xlink:href="#me6c2bd9923" x="326.705224" y="272.381751" style="fill: #008000; stroke: #008000"/>
     <use xlink:href="#me6c2bd9923" x="294.153573" y="265.800688" style="fill: #008000; stroke: #008000"/>
     <use xlink:href="#me6c2bd9923" x="331.764768" y="275.944296" style="fill: #008000; stroke: #008000"/>
     <use xlink:href="#me6c2bd9923" x="367.874986" y="225.192471" style="fill: #008000; stroke: #008000"/>
     <use xlink:href="#me6c2bd9923" x="362.102392" y="208.83709" style="fill: #008000; stroke: #008000"/>
     <use xlink:href="#me6c2bd9923" x="348.667894" y="203.14732" style="fill: #008000; stroke: #008000"/>
     <use xlink:href="#me6c2bd9923" x="373.064356" y="233.578808" style="fill: #008000; stroke: #008000"/>
     <use xlink:href="#me6c2bd9923" x="386.936439" y="230.667141" style="fill: #008000; stroke: #008000"/>
     <use xlink:href="#me6c2bd9923" x="345.13452" y="288.056833" style="fill: #008000; stroke: #008000"/>
     <use xlink:href="#me6c2bd9923" x="354.003962" y="283.171136" style="fill: #008000; stroke: #008000"/>
     <use xlink:href="#me6c2bd9923" x="448.949643" y="259.765607" style="fill: #008000; stroke: #008000"/>
     <use xlink:href="#me6c2bd9923" x="301.850759" y="300.80901" style="fill: #008000; stroke: #008000"/>
     <use xlink:href="#me6c2bd9923" x="375.117387" y="213.240988" style="fill: #008000; stroke: #008000"/>
     <use xlink:href="#me6c2bd9923" x="292.581226" y="283.479598" style="fill: #008000; stroke: #008000"/>
     <use xlink:href="#me6c2bd9923" x="344.749868" y="245.631871" style="fill: #008000; stroke: #008000"/>
    </g>
   </g>
   <g id="PathCollection_3">
    <defs>
     <path id="m396915c892" d="M 0 1.118034 
C 0.296506 1.118034 0.580908 1.000231 0.790569 0.790569 
C 1.000231 0.580908 1.118034 0.296506 1.118034 0 
C 1.118034 -0.296506 1.000231 -0.580908 0.790569 -0.790569 
C 0.580908 -1.000231 0.296506 -1.118034 0 -1.118034 
C -0.296506 -1.118034 -0.580908 -1.000231 -0.790569 -0.790569 
C -1.000231 -0.580908 -1.118034 -0.296506 -1.118034 0 
C -1.118034 0.296506 -1.000231 0.580908 -0.790569 0.790569 
C -0.580908 1.000231 -0.296506 1.118034 0 1.118034 
z
" style="stroke: #ff0000"/>
    </defs>
    <g clip-path="url(#p9852ceec22)">
     <use xlink:href="#m396915c892" x="297.913994" y="79.120425" style="fill: #ff0000; stroke: #ff0000"/>
     <use xlink:href="#m396915c892" x="224.089902" y="194.211793" style="fill: #ff0000; stroke: #ff0000"/>
     <use xlink:href="#m396915c892" x="242.68296" y="217.337531" style="fill: #ff0000; stroke: #ff0000"/>
     <use xlink:href="#m396915c892" x="297.902939" y="210.933293" style="fill: #ff0000; stroke: #ff0000"/>
     <use xlink:href="#m396915c892" x="268.781023" y="197.67538" style="fill: #ff0000; stroke: #ff0000"/>
     <use xlink:href="#m396915c892" x="208.464913" y="201.554536" style="fill: #ff0000; stroke: #ff0000"/>
     <use xlink:href="#m396915c892" x="313.370485" y="142.159342" style="fill: #ff0000; stroke: #ff0000"/>
     <use xlink:href="#m396915c892" x="262.245357" y="167.176936" style="fill: #ff0000; stroke: #ff0000"/>
     <use xlink:href="#m396915c892" x="300.046974" y="183.389771" style="fill: #ff0000; stroke: #ff0000"/>
     <use xlink:href="#m396915c892" x="249.149229" y="117.376999" style="fill: #ff0000; stroke: #ff0000"/>
     <use xlink:href="#m396915c892" x="318.56973" y="131.851804" style="fill: #ff0000; stroke: #ff0000"/>
     <use xlink:href="#m396915c892" x="350.518972" y="172.06451" style="fill: #ff0000; stroke: #ff0000"/>
     <use xlink:href="#m396915c892" x="309.021918" y="188.873582" style="fill: #ff0000; stroke: #ff0000"/>
     <use xlink:href="#m396915c892" x="285.210409" y="179.733887" style="fill: #ff0000; stroke: #ff0000"/>
     <use xlink:href="#m396915c892" x="270.091707" y="142.93128" style="fill: #ff0000; stroke: #ff0000"/>
     <use xlink:href="#m396915c892" x="209.181969" y="66.96" style="fill: #ff0000; stroke: #ff0000"/>
     <use xlink:href="#m396915c892" x="340.711303" y="132.960344" style="fill: #ff0000; stroke: #ff0000"/>
     <use xlink:href="#m396915c892" x="305.172991" y="141.247256" style="fill: #ff0000; stroke: #ff0000"/>
     <use xlink:href="#m396915c892" x="262.821355" y="218.658046" style="fill: #ff0000; stroke: #ff0000"/>
     <use xlink:href="#m396915c892" x="268.68137" y="207.490277" style="fill: #ff0000; stroke: #ff0000"/>
     <use xlink:href="#m396915c892" x="328.532829" y="180.59214" style="fill: #ff0000; stroke: #ff0000"/>
     <use xlink:href="#m396915c892" x="208.697701" y="189.437778" style="fill: #ff0000; stroke: #ff0000"/>
     <use xlink:href="#m396915c892" x="291.117928" y="201.734338" style="fill: #ff0000; stroke: #ff0000"/>
     <use xlink:href="#m396915c892" x="208.915779" y="160.765285" style="fill: #ff0000; stroke: #ff0000"/>
     <use xlink:href="#m396915c892" x="279.939485" y="198.853182" style="fill: #ff0000; stroke: #ff0000"/>
     <use xlink:href="#m396915c892" x="232.287741" y="161.355775" style="fill: #ff0000; stroke: #ff0000"/>
     <use xlink:href="#m396915c892" x="215.822318" y="183.960838" style="fill: #ff0000; stroke: #ff0000"/>
     <use xlink:href="#m396915c892" x="264.508249" y="215.509733" style="fill: #ff0000; stroke: #ff0000"/>
    </g>
   </g>
   <g id="PathCollection_4">
    <defs>
     <path id="m1ed7d57ae9" d="M 0 1.118034 
C 0.296506 1.118034 0.580908 1.000231 0.790569 0.790569 
C 1.000231 0.580908 1.118034 0.296506 1.118034 0 
C 1.118034 -0.296506 1.000231 -0.580908 0.790569 -0.790569 
C 0.580908 -1.000231 0.296506 -1.118034 0 -1.118034 
C -0.296506 -1.118034 -0.580908 -1.000231 -0.790569 -0.790569 
C -1.000231 -0.580908 -1.118034 -0.296506 -1.118034 0 
C -1.118034 0.296506 -1.000231 0.580908 -0.790569 0.790569 
C -0.580908 1.000231 -0.296506 1.118034 0 1.118034 
z
" style="stroke: #ffa500"/>
    </defs>
    <g clip-path="url(#p9852ceec22)">
     <use xlink:href="#m1ed7d57ae9" x="417.682167" y="369.36" style="fill: #ffa500; stroke: #ffa500"/>
     <use xlink:href="#m1ed7d57ae9" x="309.308573" y="356.443858" style="fill: #ffa500; stroke: #ffa500"/>
     <use xlink:href="#m1ed7d57ae9" x="416.645243" y="313.352331" style="fill: #ffa500; stroke: #ffa500"/>
     <use xlink:href="#m1ed7d57ae9" x="403.924576" y="313.64261" style="fill: #ffa500; stroke: #ffa500"/>
     <use xlink:href="#m1ed7d57ae9" x="413.557585" y="303.593483" style="fill: #ffa500; stroke: #ffa500"/>
     <use xlink:href="#m1ed7d57ae9" x="449.962774" y="339.836526" style="fill: #ffa500; stroke: #ffa500"/>
     <use xlink:href="#m1ed7d57ae9" x="409.451941" y="316.555649" style="fill: #ffa500; stroke: #ffa500"/>
     <use xlink:href="#m1ed7d57ae9" x="351.107182" y="359.30973" style="fill: #ffa500; stroke: #ffa500"/>
     <use xlink:href="#m1ed7d57ae9" x="351.140663" y="323.087063" style="fill: #ffa500; stroke: #ffa500"/>
     <use xlink:href="#m1ed7d57ae9" x="373.850404" y="350.414876" style="fill: #ffa500; stroke: #ffa500"/>
     <use xlink:href="#m1ed7d57ae9" x="398.303397" y="328.798587" style="fill: #ffa500; stroke: #ffa500"/>
     <use xlink:href="#m1ed7d57ae9" x="367.286615" y="307.80122" style="fill: #ffa500; stroke: #ffa500"/>
     <use xlink:href="#m1ed7d57ae9" x="358.873319" y="347.663628" style="fill: #ffa500; stroke: #ffa500"/>
     <use xlink:href="#m1ed7d57ae9" x="495.671915" y="347.37632" style="fill: #ffa500; stroke: #ffa500"/>
     <use xlink:href="#m1ed7d57ae9" x="410.427665" y="299.137178" style="fill: #ffa500; stroke: #ffa500"/>
     <use xlink:href="#m1ed7d57ae9" x="498.109091" y="349.45421" style="fill: #ffa500; stroke: #ffa500"/>
     <use xlink:href="#m1ed7d57ae9" x="296.487367" y="338.854084" style="fill: #ffa500; stroke: #ffa500"/>
     <use xlink:href="#m1ed7d57ae9" x="415.62561" y="337.712965" style="fill: #ffa500; stroke: #ffa500"/>
     <use xlink:href="#m1ed7d57ae9" x="430.867161" y="332.246716" style="fill: #ffa500; stroke: #ffa500"/>
    </g>
   </g>
   <g id="matplotlib.axis_1">
    <g id="xtick_1">
     <g id="line2d_1">
      <defs>
       <path id="m46330434d1" d="M 0 0 
L 0 3.5 
" style="stroke: #000000; stroke-width: 0.8"/>
      </defs>
      <g>
       <use xlink:href="#m46330434d1" x="86.163709" y="384.48" style="stroke: #000000; stroke-width: 0.8"/>
      </g>
     </g>
     <g id="text_1">
      <!-- 0 -->
      <g transform="translate(82.982459 399.078438) scale(0.1 -0.1)">
       <defs>
        <path id="DejaVuSans-30" d="M 2034 4250 
Q 1547 4250 1301 3770 
Q 1056 3291 1056 2328 
Q 1056 1369 1301 889 
Q 1547 409 2034 409 
Q 2525 409 2770 889 
Q 3016 1369 3016 2328 
Q 3016 3291 2770 3770 
Q 2525 4250 2034 4250 
z
M 2034 4750 
Q 2819 4750 3233 4129 
Q 3647 3509 3647 2328 
Q 3647 1150 3233 529 
Q 2819 -91 2034 -91 
Q 1250 -91 836 529 
Q 422 1150 422 2328 
Q 422 3509 836 4129 
Q 1250 4750 2034 4750 
z
" transform="scale(0.015625)"/>
       </defs>
       <use xlink:href="#DejaVuSans-30"/>
      </g>
     </g>
    </g>
    <g id="xtick_2">
     <g id="line2d_2">
      <g>
       <use xlink:href="#m46330434d1" x="174.900057" y="384.48" style="stroke: #000000; stroke-width: 0.8"/>
      </g>
     </g>
     <g id="text_2">
      <!-- 2 -->
      <g transform="translate(171.718807 399.078438) scale(0.1 -0.1)">
       <defs>
        <path id="DejaVuSans-32" d="M 1228 531 
L 3431 531 
L 3431 0 
L 469 0 
L 469 531 
Q 828 903 1448 1529 
Q 2069 2156 2228 2338 
Q 2531 2678 2651 2914 
Q 2772 3150 2772 3378 
Q 2772 3750 2511 3984 
Q 2250 4219 1831 4219 
Q 1534 4219 1204 4116 
Q 875 4013 500 3803 
L 500 4441 
Q 881 4594 1212 4672 
Q 1544 4750 1819 4750 
Q 2544 4750 2975 4387 
Q 3406 4025 3406 3419 
Q 3406 3131 3298 2873 
Q 3191 2616 2906 2266 
Q 2828 2175 2409 1742 
Q 1991 1309 1228 531 
z
" transform="scale(0.015625)"/>
       </defs>
       <use xlink:href="#DejaVuSans-32"/>
      </g>
     </g>
    </g>
    <g id="xtick_3">
     <g id="line2d_3">
      <g>
       <use xlink:href="#m46330434d1" x="263.636406" y="384.48" style="stroke: #000000; stroke-width: 0.8"/>
      </g>
     </g>
     <g id="text_3">
      <!-- 4 -->
      <g transform="translate(260.455156 399.078438) scale(0.1 -0.1)">
       <defs>
        <path id="DejaVuSans-34" d="M 2419 4116 
L 825 1625 
L 2419 1625 
L 2419 4116 
z
M 2253 4666 
L 3047 4666 
L 3047 1625 
L 3713 1625 
L 3713 1100 
L 3047 1100 
L 3047 0 
L 2419 0 
L 2419 1100 
L 313 1100 
L 313 1709 
L 2253 4666 
z
" transform="scale(0.015625)"/>
       </defs>
       <use xlink:href="#DejaVuSans-34"/>
      </g>
     </g>
    </g>
    <g id="xtick_4">
     <g id="line2d_4">
      <g>
       <use xlink:href="#m46330434d1" x="352.372754" y="384.48" style="stroke: #000000; stroke-width: 0.8"/>
      </g>
     </g>
     <g id="text_4">
      <!-- 6 -->
      <g transform="translate(349.191504 399.078438) scale(0.1 -0.1)">
       <defs>
        <path id="DejaVuSans-36" d="M 2113 2584 
Q 1688 2584 1439 2293 
Q 1191 2003 1191 1497 
Q 1191 994 1439 701 
Q 1688 409 2113 409 
Q 2538 409 2786 701 
Q 3034 994 3034 1497 
Q 3034 2003 2786 2293 
Q 2538 2584 2113 2584 
z
M 3366 4563 
L 3366 3988 
Q 3128 4100 2886 4159 
Q 2644 4219 2406 4219 
Q 1781 4219 1451 3797 
Q 1122 3375 1075 2522 
Q 1259 2794 1537 2939 
Q 1816 3084 2150 3084 
Q 2853 3084 3261 2657 
Q 3669 2231 3669 1497 
Q 3669 778 3244 343 
Q 2819 -91 2113 -91 
Q 1303 -91 875 529 
Q 447 1150 447 2328 
Q 447 3434 972 4092 
Q 1497 4750 2381 4750 
Q 2619 4750 2861 4703 
Q 3103 4656 3366 4563 
z
" transform="scale(0.015625)"/>
       </defs>
       <use xlink:href="#DejaVuSans-36"/>
      </g>
     </g>
    </g>
    <g id="xtick_5">
     <g id="line2d_5">
      <g>
       <use xlink:href="#m46330434d1" x="441.109102" y="384.48" style="stroke: #000000; stroke-width: 0.8"/>
      </g>
     </g>
     <g id="text_5">
      <!-- 8 -->
      <g transform="translate(437.927852 399.078438) scale(0.1 -0.1)">
       <defs>
        <path id="DejaVuSans-38" d="M 2034 2216 
Q 1584 2216 1326 1975 
Q 1069 1734 1069 1313 
Q 1069 891 1326 650 
Q 1584 409 2034 409 
Q 2484 409 2743 651 
Q 3003 894 3003 1313 
Q 3003 1734 2745 1975 
Q 2488 2216 2034 2216 
z
M 1403 2484 
Q 997 2584 770 2862 
Q 544 3141 544 3541 
Q 544 4100 942 4425 
Q 1341 4750 2034 4750 
Q 2731 4750 3128 4425 
Q 3525 4100 3525 3541 
Q 3525 3141 3298 2862 
Q 3072 2584 2669 2484 
Q 3125 2378 3379 2068 
Q 3634 1759 3634 1313 
Q 3634 634 3220 271 
Q 2806 -91 2034 -91 
Q 1263 -91 848 271 
Q 434 634 434 1313 
Q 434 1759 690 2068 
Q 947 2378 1403 2484 
z
M 1172 3481 
Q 1172 3119 1398 2916 
Q 1625 2713 2034 2713 
Q 2441 2713 2670 2916 
Q 2900 3119 2900 3481 
Q 2900 3844 2670 4047 
Q 2441 4250 2034 4250 
Q 1625 4250 1398 4047 
Q 1172 3844 1172 3481 
z
" transform="scale(0.015625)"/>
       </defs>
       <use xlink:href="#DejaVuSans-38"/>
      </g>
     </g>
    </g>
   </g>
   <g id="matplotlib.axis_2">
    <g id="ytick_1">
     <g id="line2d_6">
      <defs>
       <path id="mc70381b6fd" d="M 0 0 
L -3.5 0 
" style="stroke: #000000; stroke-width: 0.8"/>
      </defs>
      <g>
       <use xlink:href="#mc70381b6fd" x="72" y="342.267649" style="stroke: #000000; stroke-width: 0.8"/>
      </g>
     </g>
     <g id="text_6">
      <!-- 2 -->
      <g transform="translate(58.6375 346.066868) scale(0.1 -0.1)">
       <use xlink:href="#DejaVuSans-32"/>
      </g>
     </g>
    </g>
    <g id="ytick_2">
     <g id="line2d_7">
      <g>
       <use xlink:href="#mc70381b6fd" x="72" y="274.612698" style="stroke: #000000; stroke-width: 0.8"/>
      </g>
     </g>
     <g id="text_7">
      <!-- 4 -->
      <g transform="translate(58.6375 278.411916) scale(0.1 -0.1)">
       <use xlink:href="#DejaVuSans-34"/>
      </g>
     </g>
    </g>
    <g id="ytick_3">
     <g id="line2d_8">
      <g>
       <use xlink:href="#mc70381b6fd" x="72" y="206.957746" style="stroke: #000000; stroke-width: 0.8"/>
      </g>
     </g>
     <g id="text_8">
      <!-- 6 -->
      <g transform="translate(58.6375 210.756965) scale(0.1 -0.1)">
       <use xlink:href="#DejaVuSans-36"/>
      </g>
     </g>
    </g>
    <g id="ytick_4">
     <g id="line2d_9">
      <g>
       <use xlink:href="#mc70381b6fd" x="72" y="139.302794" style="stroke: #000000; stroke-width: 0.8"/>
      </g>
     </g>
     <g id="text_9">
      <!-- 8 -->
      <g transform="translate(58.6375 143.102013) scale(0.1 -0.1)">
       <use xlink:href="#DejaVuSans-38"/>
      </g>
     </g>
    </g>
    <g id="ytick_5">
     <g id="line2d_10">
      <g>
       <use xlink:href="#mc70381b6fd" x="72" y="71.647843" style="stroke: #000000; stroke-width: 0.8"/>
      </g>
     </g>
     <g id="text_10">
      <!-- 10 -->
      <g transform="translate(52.275 75.447061) scale(0.1 -0.1)">
       <defs>
        <path id="DejaVuSans-31" d="M 794 531 
L 1825 531 
L 1825 4091 
L 703 3866 
L 703 4441 
L 1819 4666 
L 2450 4666 
L 2450 531 
L 3481 531 
L 3481 0 
L 794 0 
L 794 531 
z
" transform="scale(0.015625)"/>
       </defs>
       <use xlink:href="#DejaVuSans-31"/>
       <use xlink:href="#DejaVuSans-30" x="63.623047"/>
      </g>
     </g>
    </g>
   </g>
   <g id="patch_3">
    <path d="M 72 384.48 
L 72 51.84 
" style="fill: none; stroke: #000000; stroke-width: 0.8; stroke-linejoin: miter; stroke-linecap: square"/>
   </g>
   <g id="patch_4">
    <path d="M 518.4 384.48 
L 518.4 51.84 
" style="fill: none; stroke: #000000; stroke-width: 0.8; stroke-linejoin: miter; stroke-linecap: square"/>
   </g>
   <g id="patch_5">
    <path d="M 72 384.48 
L 518.4 384.48 
" style="fill: none; stroke: #000000; stroke-width: 0.8; stroke-linejoin: miter; stroke-linecap: square"/>
   </g>
   <g id="patch_6">
    <path d="M 72 51.84 
L 518.4 51.84 
" style="fill: none; stroke: #000000; stroke-width: 0.8; stroke-linejoin: miter; stroke-linecap: square"/>
   </g>
  </g>
 </g>
 <defs>
  <clipPath id="p9852ceec22">
   <rect x="72" y="51.84" width="446.4" height="332.64"/>
  </clipPath>
 </defs>
</svg>
