<?xml version="1.0" encoding="UTF-8" standalone="no"?>
<!DOCTYPE svg PUBLIC "-//W3C//DTD SVG 1.1//EN"
 "http://www.w3.org/Graphics/SVG/1.1/DTD/svg11.dtd">
<!-- Generated by graphviz version 2.50.0 (0)
 -->
<!-- Pages: 1 -->
<svg width="587pt" height="304pt"
 viewBox="0.00 0.00 586.80 303.98" xmlns="http://www.w3.org/2000/svg" xmlns:xlink="http://www.w3.org/1999/xlink">
<g id="graph0" class="graph" transform="scale(1 1) rotate(0) translate(4 299.98)">
<polygon fill="white" stroke="transparent" points="-4,4 -4,-299.98 582.8,-299.98 582.8,4 -4,4"/>
<!-- 4398923456 -->
<g id="node1" class="node">
<title>4398923456</title>
<ellipse fill="lightblue" stroke="black" cx="255.8" cy="-275.18" rx="20.6" ry="20.6"/>
<text text-anchor="middle" x="255.8" y="-271.48" font-family="Helvetica,sans-Serif" font-size="14.00">58</text>
</g>
<!-- 4398921584 -->
<g id="node2" class="node">
<title>4398921584</title>
<ellipse fill="lightblue" stroke="black" cx="170.8" cy="-211.59" rx="20.6" ry="20.6"/>
<text text-anchor="middle" x="170.8" y="-207.89" font-family="Helvetica,sans-Serif" font-size="14.00">25</text>
</g>
<!-- 4398923456&#45;&gt;4398921584 -->
<g id="edge1" class="edge">
<title>4398923456&#45;&gt;4398921584</title>
<path fill="none" stroke="black" d="M239.41,-262.31C225.86,-252.49 206.52,-238.47 191.83,-227.83"/>
<polygon fill="black" stroke="black" points="192.5,-226.15 187.43,-224.64 190.45,-228.99 192.5,-226.15"/>
</g>
<!-- 848973 -->
<!-- 4398923456&#45;&gt;848973 -->
<!-- 4398918368 -->
<g id="node4" class="node">
<title>4398918368</title>
<ellipse fill="lightblue" stroke="black" cx="341.8" cy="-211.59" rx="20.6" ry="20.6"/>
<text text-anchor="middle" x="341.8" y="-207.89" font-family="Helvetica,sans-Serif" font-size="14.00">72</text>
</g>
<!-- 4398923456&#45;&gt;4398918368 -->
<g id="edge3" class="edge">
<title>4398923456&#45;&gt;4398918368</title>
<path fill="none" stroke="black" d="M272.38,-262.31C286.3,-252.34 306.25,-238.05 321.19,-227.34"/>
<polygon fill="black" stroke="black" points="322.22,-228.76 325.27,-224.43 320.18,-225.92 322.22,-228.76"/>
</g>
<!-- 4398915968 -->
<g id="node5" class="node">
<title>4398915968</title>
<ellipse fill="lightblue" stroke="black" cx="120.8" cy="-147.99" rx="20.6" ry="20.6"/>
<text text-anchor="middle" x="120.8" y="-144.29" font-family="Helvetica,sans-Serif" font-size="14.00">24</text>
</g>
<!-- 4398921584&#45;&gt;4398915968 -->
<g id="edge4" class="edge">
<title>4398921584&#45;&gt;4398915968</title>
<path fill="none" stroke="black" d="M158.18,-195.04C151.72,-187.08 143.78,-177.3 136.88,-168.8"/>
<polygon fill="black" stroke="black" points="138.1,-167.52 133.59,-164.74 135.38,-169.73 138.1,-167.52"/>
</g>
<!-- 933631 -->
<!-- 4398921584&#45;&gt;933631 -->
<!-- 4398912032 -->
<g id="node7" class="node">
<title>4398912032</title>
<ellipse fill="lightblue" stroke="black" cx="220.8" cy="-147.99" rx="20.6" ry="20.6"/>
<text text-anchor="middle" x="220.8" y="-144.29" font-family="Helvetica,sans-Serif" font-size="14.00">39</text>
</g>
<!-- 4398921584&#45;&gt;4398912032 -->
<g id="edge6" class="edge">
<title>4398921584&#45;&gt;4398912032</title>
<path fill="none" stroke="black" d="M183.42,-195.04C189.88,-187.08 197.82,-177.3 204.72,-168.8"/>
<polygon fill="black" stroke="black" points="206.22,-169.73 208.01,-164.74 203.5,-167.52 206.22,-169.73"/>
</g>
<!-- 4398911888 -->
<g id="node14" class="node">
<title>4398911888</title>
<ellipse fill="lightblue" stroke="black" cx="291.8" cy="-147.99" rx="20.6" ry="20.6"/>
<text text-anchor="middle" x="291.8" y="-144.29" font-family="Helvetica,sans-Serif" font-size="14.00">60</text>
</g>
<!-- 4398918368&#45;&gt;4398911888 -->
<g id="edge13" class="edge">
<title>4398918368&#45;&gt;4398911888</title>
<path fill="none" stroke="black" d="M329.18,-195.04C322.72,-187.08 314.78,-177.3 307.88,-168.8"/>
<polygon fill="black" stroke="black" points="309.1,-167.52 304.59,-164.74 306.38,-169.73 309.1,-167.52"/>
</g>
<!-- 624360 -->
<!-- 4398918368&#45;&gt;624360 -->
<!-- 4398912896 -->
<g id="node16" class="node">
<title>4398912896</title>
<ellipse fill="lightblue" stroke="black" cx="460.8" cy="-147.99" rx="20.6" ry="20.6"/>
<text text-anchor="middle" x="460.8" y="-144.29" font-family="Helvetica,sans-Serif" font-size="14.00">76</text>
</g>
<!-- 4398918368&#45;&gt;4398912896 -->
<g id="edge15" class="edge">
<title>4398918368&#45;&gt;4398912896</title>
<path fill="none" stroke="black" d="M359.87,-201.23C380.75,-190.42 415.15,-172.62 437.89,-160.85"/>
<polygon fill="black" stroke="black" points="438.92,-162.29 442.55,-158.43 437.31,-159.18 438.92,-162.29"/>
</g>
<!-- 4398923504 -->
<g id="node8" class="node">
<title>4398923504</title>
<ellipse fill="lightblue" stroke="black" cx="70.8" cy="-84.39" rx="20.6" ry="20.6"/>
<text text-anchor="middle" x="70.8" y="-80.69" font-family="Helvetica,sans-Serif" font-size="14.00">13</text>
</g>
<!-- 4398915968&#45;&gt;4398923504 -->
<g id="edge7" class="edge">
<title>4398915968&#45;&gt;4398923504</title>
<path fill="none" stroke="black" d="M108.18,-131.45C101.72,-123.48 93.78,-113.7 86.88,-105.2"/>
<polygon fill="black" stroke="black" points="88.1,-103.93 83.59,-101.15 85.38,-106.13 88.1,-103.93"/>
</g>
<!-- 727122 -->
<!-- 4398915968&#45;&gt;727122 -->
<!-- 665271 -->
<!-- 4398915968&#45;&gt;665271 -->
<!-- 4398922352 -->
<g id="node11" class="node">
<title>4398922352</title>
<ellipse fill="lightblue" stroke="black" cx="20.8" cy="-20.8" rx="20.6" ry="20.6"/>
<text text-anchor="middle" x="20.8" y="-17.1" font-family="Helvetica,sans-Serif" font-size="14.00">12</text>
</g>
<!-- 4398923504&#45;&gt;4398922352 -->
<g id="edge10" class="edge">
<title>4398923504&#45;&gt;4398922352</title>
<path fill="none" stroke="black" d="M58.18,-67.85C51.72,-59.89 43.78,-50.1 36.88,-41.61"/>
<polygon fill="black" stroke="black" points="38.1,-40.33 33.59,-37.55 35.38,-42.54 38.1,-40.33"/>
</g>
<!-- 43914 -->
<!-- 4398923504&#45;&gt;43914 -->
<!-- 4398921632 -->
<g id="node13" class="node">
<title>4398921632</title>
<ellipse fill="lightblue" stroke="black" cx="120.8" cy="-20.8" rx="20.6" ry="20.6"/>
<text text-anchor="middle" x="120.8" y="-17.1" font-family="Helvetica,sans-Serif" font-size="14.00">19</text>
</g>
<!-- 4398923504&#45;&gt;4398921632 -->
<g id="edge12" class="edge">
<title>4398923504&#45;&gt;4398921632</title>
<path fill="none" stroke="black" d="M83.42,-67.85C89.88,-59.89 97.82,-50.1 104.72,-41.61"/>
<polygon fill="black" stroke="black" points="106.22,-42.54 108.01,-37.55 103.5,-40.33 106.22,-42.54"/>
</g>
<!-- 415403 -->
<!-- 4398911888&#45;&gt;415403 -->
<!-- 474999 -->
<!-- 4398911888&#45;&gt;474999 -->
<!-- 4398913136 -->
<g id="node19" class="node">
<title>4398913136</title>
<ellipse fill="lightblue" stroke="black" cx="341.8" cy="-84.39" rx="20.6" ry="20.6"/>
<text text-anchor="middle" x="341.8" y="-80.69" font-family="Helvetica,sans-Serif" font-size="14.00">66</text>
</g>
<!-- 4398911888&#45;&gt;4398913136 -->
<g id="edge18" class="edge">
<title>4398911888&#45;&gt;4398913136</title>
<path fill="none" stroke="black" d="M304.42,-131.45C310.88,-123.48 318.82,-113.7 325.72,-105.2"/>
<polygon fill="black" stroke="black" points="327.22,-106.13 329.01,-101.15 324.5,-103.93 327.22,-106.13"/>
</g>
<!-- 774809 -->
<!-- 4398912896&#45;&gt;774809 -->
<!-- 645464 -->
<!-- 4398912896&#45;&gt;645464 -->
<!-- 4398911504 -->
<g id="node25" class="node">
<title>4398911504</title>
<ellipse fill="lightblue" stroke="black" cx="512.8" cy="-84.39" rx="20.6" ry="20.6"/>
<text text-anchor="middle" x="512.8" y="-80.69" font-family="Helvetica,sans-Serif" font-size="14.00">81</text>
</g>
<!-- 4398912896&#45;&gt;4398911504 -->
<g id="edge24" class="edge">
<title>4398912896&#45;&gt;4398911504</title>
<path fill="none" stroke="black" d="M473.92,-131.45C480.75,-123.36 489.16,-113.4 496.41,-104.81"/>
<polygon fill="black" stroke="black" points="497.97,-105.67 499.86,-100.72 495.3,-103.41 497.97,-105.67"/>
</g>
<!-- 4398911792 -->
<g id="node20" class="node">
<title>4398911792</title>
<ellipse fill="lightblue" stroke="black" cx="291.8" cy="-20.8" rx="20.6" ry="20.6"/>
<text text-anchor="middle" x="291.8" y="-17.1" font-family="Helvetica,sans-Serif" font-size="14.00">61</text>
</g>
<!-- 4398913136&#45;&gt;4398911792 -->
<g id="edge19" class="edge">
<title>4398913136&#45;&gt;4398911792</title>
<path fill="none" stroke="black" d="M329.18,-67.85C322.72,-59.89 314.78,-50.1 307.88,-41.61"/>
<polygon fill="black" stroke="black" points="309.1,-40.33 304.59,-37.55 306.38,-42.54 309.1,-40.33"/>
</g>
<!-- 685687 -->
<!-- 4398913136&#45;&gt;685687 -->
<!-- 4398923552 -->
<g id="node22" class="node">
<title>4398923552</title>
<ellipse fill="lightblue" stroke="black" cx="391.8" cy="-20.8" rx="20.6" ry="20.6"/>
<text text-anchor="middle" x="391.8" y="-17.1" font-family="Helvetica,sans-Serif" font-size="14.00">69</text>
</g>
<!-- 4398913136&#45;&gt;4398923552 -->
<g id="edge21" class="edge">
<title>4398913136&#45;&gt;4398923552</title>
<path fill="none" stroke="black" d="M354.42,-67.85C360.88,-59.89 368.82,-50.1 375.72,-41.61"/>
<polygon fill="black" stroke="black" points="377.22,-42.54 379.01,-37.55 374.5,-40.33 377.22,-42.54"/>
</g>
<!-- 4398923264 -->
<g id="node26" class="node">
<title>4398923264</title>
<ellipse fill="lightblue" stroke="black" cx="462.8" cy="-20.8" rx="20.6" ry="20.6"/>
<text text-anchor="middle" x="462.8" y="-17.1" font-family="Helvetica,sans-Serif" font-size="14.00">79</text>
</g>
<!-- 4398911504&#45;&gt;4398923264 -->
<g id="edge25" class="edge">
<title>4398911504&#45;&gt;4398923264</title>
<path fill="none" stroke="black" d="M500.18,-67.85C493.72,-59.89 485.78,-50.1 478.88,-41.61"/>
<polygon fill="black" stroke="black" points="480.1,-40.33 475.59,-37.55 477.38,-42.54 480.1,-40.33"/>
</g>
<!-- 681648 -->
<!-- 4398911504&#45;&gt;681648 -->
<!-- 165144 -->
<!-- 4398911504&#45;&gt;165144 -->
</g>
</svg>
