<?xml version="1.0" encoding="UTF-8" standalone="no"?>
<!DOCTYPE svg PUBLIC "-//W3C//DTD SVG 1.1//EN"
 "http://www.w3.org/Graphics/SVG/1.1/DTD/svg11.dtd">
<!-- Generated by graphviz version 2.50.0 (0)
 -->
<!-- Pages: 1 -->
<svg width="422pt" height="194pt"
 viewBox="0.00 0.00 422.00 194.00" xmlns="http://www.w3.org/2000/svg" xmlns:xlink="http://www.w3.org/1999/xlink">
<g id="graph0" class="graph" transform="scale(1 1) rotate(0) translate(4 190)">
<polygon fill="white" stroke="transparent" points="-4,4 -4,-190 418,-190 418,4 -4,4"/>
<!-- 13443421952 -->
<g id="node1" class="node">
<title>13443421952</title>
<polygon fill="yellowgreen" stroke="black" stroke-width="0" points="306,-186 252,-186 252,-150 306,-150 306,-186"/>
<text text-anchor="middle" x="279" y="-165.8" font-family="Helvetica,sans-Serif" font-size="9.00">Kamera</text>
</g>
<!-- 13438224528 -->
<g id="node2" class="node">
<title>13438224528</title>
<polygon fill="yellowgreen" stroke="black" stroke-width="0" points="162,-104 108,-104 108,-68 162,-68 162,-104"/>
<text text-anchor="middle" x="135" y="-83.8" font-family="Helvetica,sans-Serif" font-size="9.00">Budget</text>
</g>
<!-- 13443421952&#45;&gt;13438224528 -->
<g id="edge1" class="edge">
<title>13443421952&#45;&gt;13438224528</title>
<path fill="none" stroke="black" stroke-width="0.5" d="M251.91,-151.95C227.83,-138.57 192.59,-118.99 167.09,-104.83"/>
<polygon fill="black" stroke="black" stroke-width="0.5" points="167.67,-103.15 162.45,-102.25 165.97,-106.21 167.67,-103.15"/>
<text text-anchor="middle" x="227" y="-124.8" font-family="Helvetica,sans-Serif" font-size="9.00">mittel</text>
</g>
<!-- 6083524272 -->
<g id="node3" class="node">
<title>6083524272</title>
<polygon fill="yellowgreen" stroke="black" stroke-width="0" points="306,-104 252,-104 252,-68 306,-68 306,-104"/>
<text text-anchor="middle" x="279" y="-83.8" font-family="Helvetica,sans-Serif" font-size="9.00">Budget</text>
</g>
<!-- 13443421952&#45;&gt;6083524272 -->
<g id="edge2" class="edge">
<title>13443421952&#45;&gt;6083524272</title>
<path fill="none" stroke="black" stroke-width="0.5" d="M279,-149.64C279,-137.82 279,-122.06 279,-109.31"/>
<polygon fill="black" stroke="black" stroke-width="0.5" points="280.75,-109.05 279,-104.05 277.25,-109.05 280.75,-109.05"/>
<text text-anchor="middle" x="293.5" y="-124.8" font-family="Helvetica,sans-Serif" font-size="9.00">wichtig</text>
</g>
<!-- 13435828368 -->
<g id="node4" class="node">
<title>13435828368</title>
<path fill="gold" stroke="black" stroke-width="0" d="M370.67,-97C370.67,-97 331.33,-97 331.33,-97 327.67,-97 324,-93.33 324,-89.67 324,-89.67 324,-82.33 324,-82.33 324,-78.67 327.67,-75 331.33,-75 331.33,-75 370.67,-75 370.67,-75 374.33,-75 378,-78.67 378,-82.33 378,-82.33 378,-89.67 378,-89.67 378,-93.33 374.33,-97 370.67,-97"/>
<text text-anchor="middle" x="351" y="-83.8" font-family="Helvetica,sans-Serif" font-size="9.00">Modell A</text>
</g>
<!-- 13443421952&#45;&gt;13435828368 -->
<g id="edge3" class="edge">
<title>13443421952&#45;&gt;13435828368</title>
<path fill="none" stroke="black" stroke-width="0.5" d="M295.59,-149.69C300.89,-144.09 306.74,-137.82 312,-132 321.18,-121.85 331.29,-110.17 338.91,-101.25"/>
<polygon fill="black" stroke="black" stroke-width="0.5" points="340.53,-102.05 342.44,-97.11 337.87,-99.78 340.53,-102.05"/>
<text text-anchor="middle" x="329.5" y="-124.8" font-family="Helvetica,sans-Serif" font-size="9.00">egal</text>
</g>
<!-- 13426190976 -->
<g id="node5" class="node">
<title>13426190976</title>
<path fill="gold" stroke="black" stroke-width="0" d="M46.67,-22C46.67,-22 7.33,-22 7.33,-22 3.67,-22 0,-18.33 0,-14.67 0,-14.67 0,-7.33 0,-7.33 0,-3.67 3.67,0 7.33,0 7.33,0 46.67,0 46.67,0 50.33,0 54,-3.67 54,-7.33 54,-7.33 54,-14.67 54,-14.67 54,-18.33 50.33,-22 46.67,-22"/>
<text text-anchor="middle" x="27" y="-8.8" font-family="Helvetica,sans-Serif" font-size="9.00">Modell A</text>
</g>
<!-- 13438224528&#45;&gt;13426190976 -->
<g id="edge4" class="edge">
<title>13438224528&#45;&gt;13426190976</title>
<path fill="none" stroke="black" stroke-width="0.5" d="M108.23,-67.93C99.5,-62.29 89.79,-55.94 81,-50 69.03,-41.91 55.76,-32.58 45.37,-25.19"/>
<polygon fill="black" stroke="black" stroke-width="0.5" points="46.2,-23.63 41.11,-22.15 44.16,-26.48 46.2,-23.63"/>
<text text-anchor="middle" x="95.5" y="-42.8" font-family="Helvetica,sans-Serif" font-size="9.00">niedrig</text>
</g>
<!-- 6403710160 -->
<g id="node6" class="node">
<title>6403710160</title>
<path fill="gold" stroke="black" stroke-width="0" d="M118.67,-22C118.67,-22 79.33,-22 79.33,-22 75.67,-22 72,-18.33 72,-14.67 72,-14.67 72,-7.33 72,-7.33 72,-3.67 75.67,0 79.33,0 79.33,0 118.67,0 118.67,0 122.33,0 126,-3.67 126,-7.33 126,-7.33 126,-14.67 126,-14.67 126,-18.33 122.33,-22 118.67,-22"/>
<text text-anchor="middle" x="99" y="-8.8" font-family="Helvetica,sans-Serif" font-size="9.00">Modell C</text>
</g>
<!-- 13438224528&#45;&gt;6403710160 -->
<g id="edge5" class="edge">
<title>13438224528&#45;&gt;6403710160</title>
<path fill="none" stroke="black" stroke-width="0.5" d="M126.47,-67.7C120.36,-55.3 112.21,-38.78 106.37,-26.95"/>
<polygon fill="black" stroke="black" stroke-width="0.5" points="107.81,-25.91 104.03,-22.2 104.67,-27.46 107.81,-25.91"/>
<text text-anchor="middle" x="128" y="-42.8" font-family="Helvetica,sans-Serif" font-size="9.00">mittel</text>
</g>
<!-- 13443821792 -->
<g id="node7" class="node">
<title>13443821792</title>
<path fill="gold" stroke="black" stroke-width="0" d="M190.67,-22C190.67,-22 151.33,-22 151.33,-22 147.67,-22 144,-18.33 144,-14.67 144,-14.67 144,-7.33 144,-7.33 144,-3.67 147.67,0 151.33,0 151.33,0 190.67,0 190.67,0 194.33,0 198,-3.67 198,-7.33 198,-7.33 198,-14.67 198,-14.67 198,-18.33 194.33,-22 190.67,-22"/>
<text text-anchor="middle" x="171" y="-8.8" font-family="Helvetica,sans-Serif" font-size="9.00">Modell B</text>
</g>
<!-- 13438224528&#45;&gt;13443821792 -->
<g id="edge6" class="edge">
<title>13438224528&#45;&gt;13443821792</title>
<path fill="none" stroke="black" stroke-width="0.5" d="M143.53,-67.7C149.64,-55.3 157.79,-38.78 163.63,-26.95"/>
<polygon fill="black" stroke="black" stroke-width="0.5" points="165.33,-27.46 165.97,-22.2 162.19,-25.91 165.33,-27.46"/>
<text text-anchor="middle" x="167.5" y="-42.8" font-family="Helvetica,sans-Serif" font-size="9.00">hoch</text>
</g>
<!-- 13444019792 -->
<g id="node8" class="node">
<title>13444019792</title>
<path fill="gold" stroke="black" stroke-width="0" d="M262.67,-22C262.67,-22 223.33,-22 223.33,-22 219.67,-22 216,-18.33 216,-14.67 216,-14.67 216,-7.33 216,-7.33 216,-3.67 219.67,0 223.33,0 223.33,0 262.67,0 262.67,0 266.33,0 270,-3.67 270,-7.33 270,-7.33 270,-14.67 270,-14.67 270,-18.33 266.33,-22 262.67,-22"/>
<text text-anchor="middle" x="243" y="-8.8" font-family="Helvetica,sans-Serif" font-size="9.00">Modell B</text>
</g>
<!-- 6083524272&#45;&gt;13444019792 -->
<g id="edge7" class="edge">
<title>6083524272&#45;&gt;13444019792</title>
<path fill="none" stroke="black" stroke-width="0.5" d="M270.47,-67.7C264.36,-55.3 256.21,-38.78 250.37,-26.95"/>
<polygon fill="black" stroke="black" stroke-width="0.5" points="251.81,-25.91 248.03,-22.2 248.67,-27.46 251.81,-25.91"/>
<text text-anchor="middle" x="271.5" y="-42.8" font-family="Helvetica,sans-Serif" font-size="9.00">hoch</text>
</g>
<!-- 4624294080 -->
<g id="node9" class="node">
<title>4624294080</title>
<path fill="gold" stroke="black" stroke-width="0" d="M334.67,-22C334.67,-22 295.33,-22 295.33,-22 291.67,-22 288,-18.33 288,-14.67 288,-14.67 288,-7.33 288,-7.33 288,-3.67 291.67,0 295.33,0 295.33,0 334.67,0 334.67,0 338.33,0 342,-3.67 342,-7.33 342,-7.33 342,-14.67 342,-14.67 342,-18.33 338.33,-22 334.67,-22"/>
<text text-anchor="middle" x="315" y="-8.8" font-family="Helvetica,sans-Serif" font-size="9.00">Modell C</text>
</g>
<!-- 6083524272&#45;&gt;4624294080 -->
<g id="edge8" class="edge">
<title>6083524272&#45;&gt;4624294080</title>
<path fill="none" stroke="black" stroke-width="0.5" d="M287.53,-67.7C293.64,-55.3 301.79,-38.78 307.63,-26.95"/>
<polygon fill="black" stroke="black" stroke-width="0.5" points="309.33,-27.46 309.97,-22.2 306.19,-25.91 309.33,-27.46"/>
<text text-anchor="middle" x="311" y="-42.8" font-family="Helvetica,sans-Serif" font-size="9.00">mittel</text>
</g>
<!-- 13447028208 -->
<g id="node10" class="node">
<title>13447028208</title>
<path fill="gold" stroke="black" stroke-width="0" d="M406.67,-22C406.67,-22 367.33,-22 367.33,-22 363.67,-22 360,-18.33 360,-14.67 360,-14.67 360,-7.33 360,-7.33 360,-3.67 363.67,0 367.33,0 367.33,0 406.67,0 406.67,0 410.33,0 414,-3.67 414,-7.33 414,-7.33 414,-14.67 414,-14.67 414,-18.33 410.33,-22 406.67,-22"/>
<text text-anchor="middle" x="387" y="-8.8" font-family="Helvetica,sans-Serif" font-size="9.00">Modell B</text>
</g>
<!-- 6083524272&#45;&gt;13447028208 -->
<g id="edge9" class="edge">
<title>6083524272&#45;&gt;13447028208</title>
<path fill="none" stroke="black" stroke-width="0.5" d="M304.32,-67.88C323.75,-54.75 350.15,-36.91 367.84,-24.95"/>
<polygon fill="black" stroke="black" stroke-width="0.5" points="368.98,-26.29 372.15,-22.04 367.02,-23.39 368.98,-26.29"/>
<text text-anchor="middle" x="356.5" y="-42.8" font-family="Helvetica,sans-Serif" font-size="9.00">niedrig</text>
</g>
</g>
</svg>
