<?xml version="1.0" encoding="UTF-8" standalone="no"?>
<!DOCTYPE svg PUBLIC "-//W3C//DTD SVG 1.1//EN"
 "http://www.w3.org/Graphics/SVG/1.1/DTD/svg11.dtd">
<!-- Generated by graphviz version 2.50.0 (0)
 -->
<!-- Pages: 1 -->
<svg width="626pt" height="221pt"
 viewBox="0.00 0.00 625.85 221.00" xmlns="http://www.w3.org/2000/svg" xmlns:xlink="http://www.w3.org/1999/xlink">
<g id="graph0" class="graph" transform="scale(1 1) rotate(0) translate(4 217)">
<polygon fill="white" stroke="transparent" points="-4,4 -4,-217 621.85,-217 621.85,4 -4,4"/>
<!-- 4419536944 -->
<g id="node1" class="node">
<title>4419536944</title>
<ellipse fill="#9bcd9b" stroke="black" cx="308" cy="-195" rx="18" ry="18"/>
<text text-anchor="middle" x="308" y="-191.3" font-family="Helvetica,sans-Serif" font-size="14.00">H</text>
</g>
<!-- 4573817424 -->
<g id="node2" class="node">
<title>4573817424</title>
<ellipse fill="#9bcd9b" stroke="black" cx="179" cy="-137" rx="18" ry="18"/>
<text text-anchor="middle" x="179" y="-133.3" font-family="Helvetica,sans-Serif" font-size="14.00">S</text>
</g>
<!-- 4419536944&#45;&gt;4573817424 -->
<g id="edge1" class="edge">
<title>4419536944&#45;&gt;4573817424</title>
<path fill="none" stroke="black" d="M291.66,-186.9C268.4,-176.81 225.72,-158.28 200.09,-147.15"/>
<polygon fill="black" stroke="black" points="200.49,-145.42 195.21,-145.03 199.09,-148.63 200.49,-145.42"/>
</g>
<!-- 751984 -->
<!-- 4419536944&#45;&gt;751984 -->
<!-- 4574182336 -->
<g id="node4" class="node">
<title>4574182336</title>
<ellipse fill="#9bcd9b" stroke="black" cx="438" cy="-137" rx="18" ry="18"/>
<text text-anchor="middle" x="438" y="-133.3" font-family="Helvetica,sans-Serif" font-size="14.00">R</text>
</g>
<!-- 4419536944&#45;&gt;4574182336 -->
<g id="edge3" class="edge">
<title>4419536944&#45;&gt;4574182336</title>
<path fill="none" stroke="black" d="M324.2,-187.02C347.65,-176.92 391.08,-158.21 416.97,-147.05"/>
<polygon fill="black" stroke="black" points="417.69,-148.65 421.59,-145.06 416.31,-145.43 417.69,-148.65"/>
</g>
<!-- 4574182240 -->
<g id="node5" class="node">
<title>4574182240</title>
<ellipse fill="#9bcd9b" stroke="black" cx="66" cy="-79" rx="18" ry="18"/>
<text text-anchor="middle" x="66" y="-75.3" font-family="Helvetica,sans-Serif" font-size="14.00">E</text>
</g>
<!-- 4573817424&#45;&gt;4574182240 -->
<g id="edge4" class="edge">
<title>4573817424&#45;&gt;4574182240</title>
<path fill="none" stroke="black" d="M163.29,-128.21C143.25,-118.28 108.54,-101.08 86.45,-90.13"/>
<polygon fill="black" stroke="black" points="87.2,-88.55 81.94,-87.9 85.65,-91.69 87.2,-88.55"/>
</g>
<!-- 493107 -->
<!-- 4573817424&#45;&gt;493107 -->
<!-- 4574182720 -->
<g id="node7" class="node">
<title>4574182720</title>
<ellipse fill="#9bcd9b" stroke="black" cx="227" cy="-79" rx="18" ry="18"/>
<text text-anchor="middle" x="227" y="-75.3" font-family="Helvetica,sans-Serif" font-size="14.00">L</text>
</g>
<!-- 4573817424&#45;&gt;4574182720 -->
<g id="edge6" class="edge">
<title>4573817424&#45;&gt;4574182720</title>
<path fill="none" stroke="black" d="M190.38,-122.73C196.95,-115.05 205.29,-105.32 212.36,-97.08"/>
<polygon fill="black" stroke="black" points="213.78,-98.11 215.71,-93.17 211.12,-95.83 213.78,-98.11"/>
</g>
<!-- 4574182144 -->
<g id="node14" class="node">
<title>4574182144</title>
<ellipse fill="#9bcd9b" stroke="black" cx="390" cy="-79" rx="18" ry="18"/>
<text text-anchor="middle" x="390" y="-75.3" font-family="Helvetica,sans-Serif" font-size="14.00">T</text>
</g>
<!-- 4574182336&#45;&gt;4574182144 -->
<g id="edge13" class="edge">
<title>4574182336&#45;&gt;4574182144</title>
<path fill="none" stroke="black" d="M426.62,-122.73C420.05,-115.05 411.71,-105.32 404.64,-97.08"/>
<polygon fill="black" stroke="black" points="405.88,-95.83 401.29,-93.17 403.22,-98.11 405.88,-95.83"/>
</g>
<!-- 576330 -->
<!-- 4574182336&#45;&gt;576330 -->
<!-- 4415845200 -->
<g id="node16" class="node">
<title>4415845200</title>
<ellipse fill="#9bcd9b" stroke="black" cx="551" cy="-79" rx="18" ry="18"/>
<text text-anchor="middle" x="551" y="-75.3" font-family="Helvetica,sans-Serif" font-size="14.00">P</text>
</g>
<!-- 4574182336&#45;&gt;4415845200 -->
<g id="edge15" class="edge">
<title>4574182336&#45;&gt;4415845200</title>
<path fill="none" stroke="black" d="M453.71,-128.21C473.75,-118.28 508.46,-101.08 530.55,-90.13"/>
<polygon fill="black" stroke="black" points="531.35,-91.69 535.06,-87.9 529.8,-88.55 531.35,-91.69"/>
</g>
<!-- 4574343056 -->
<g id="node8" class="node">
<title>4574343056</title>
<ellipse fill="#9bcd9b" stroke="black" cx="18" cy="-19.5" rx="18" ry="18"/>
<text text-anchor="middle" x="18" y="-15.8" font-family="Helvetica,sans-Serif" font-size="14.00">Y</text>
</g>
<!-- 4574182240&#45;&gt;4574343056 -->
<g id="edge7" class="edge">
<title>4574182240&#45;&gt;4574343056</title>
<path fill="none" stroke="black" d="M54.87,-64.66C48.2,-56.68 39.66,-46.44 32.48,-37.84"/>
<polygon fill="black" stroke="black" points="33.62,-36.48 29.07,-33.76 30.93,-38.72 33.62,-36.48"/>
</g>
<!-- 567252 -->
<!-- 4574182240&#45;&gt;567252 -->
<!-- 4574336672 -->
<g id="node10" class="node">
<title>4574336672</title>
<ellipse fill="#9bcd9b" stroke="black" cx="114" cy="-19.5" rx="18" ry="18"/>
<text text-anchor="middle" x="114" y="-15.8" font-family="Helvetica,sans-Serif" font-size="14.00">C</text>
</g>
<!-- 4574182240&#45;&gt;4574336672 -->
<g id="edge9" class="edge">
<title>4574182240&#45;&gt;4574336672</title>
<path fill="none" stroke="black" d="M77.13,-64.66C83.8,-56.68 92.34,-46.44 99.52,-37.84"/>
<polygon fill="black" stroke="black" points="101.07,-38.72 102.93,-33.76 98.38,-36.48 101.07,-38.72"/>
</g>
<!-- 4574346512 -->
<g id="node11" class="node">
<title>4574346512</title>
<ellipse fill="#9bcd9b" stroke="black" cx="179" cy="-19.5" rx="18" ry="18"/>
<text text-anchor="middle" x="179" y="-15.8" font-family="Helvetica,sans-Serif" font-size="14.00">A</text>
</g>
<!-- 4574182720&#45;&gt;4574346512 -->
<g id="edge10" class="edge">
<title>4574182720&#45;&gt;4574346512</title>
<path fill="none" stroke="black" d="M215.87,-64.66C209.2,-56.68 200.66,-46.44 193.48,-37.84"/>
<polygon fill="black" stroke="black" points="194.62,-36.48 190.07,-33.76 191.93,-38.72 194.62,-36.48"/>
</g>
<!-- 877093 -->
<!-- 4574182720&#45;&gt;877093 -->
<!-- 4574332544 -->
<g id="node13" class="node">
<title>4574332544</title>
<ellipse fill="#9bcd9b" stroke="black" cx="275" cy="-19.5" rx="18" ry="18"/>
<text text-anchor="middle" x="275" y="-15.8" font-family="Helvetica,sans-Serif" font-size="14.00">U</text>
</g>
<!-- 4574182720&#45;&gt;4574332544 -->
<g id="edge12" class="edge">
<title>4574182720&#45;&gt;4574332544</title>
<path fill="none" stroke="black" d="M238.13,-64.66C244.8,-56.68 253.34,-46.44 260.52,-37.84"/>
<polygon fill="black" stroke="black" points="262.07,-38.72 263.93,-33.76 259.38,-36.48 262.07,-38.72"/>
</g>
<!-- 4574331200 -->
<g id="node17" class="node">
<title>4574331200</title>
<ellipse fill="#9bcd9b" stroke="black" cx="341" cy="-19.5" rx="19.5" ry="19.5"/>
<text text-anchor="middle" x="341" y="-15.8" font-family="Helvetica,sans-Serif" font-size="14.00">W</text>
</g>
<!-- 4574182144&#45;&gt;4574331200 -->
<g id="edge16" class="edge">
<title>4574182144&#45;&gt;4574331200</title>
<path fill="none" stroke="black" d="M378.64,-64.66C372.12,-57.02 363.86,-47.32 356.73,-38.95"/>
<polygon fill="black" stroke="black" points="357.91,-37.64 353.33,-34.97 355.24,-39.91 357.91,-37.64"/>
</g>
<!-- 499492 -->
<!-- 4574182144&#45;&gt;499492 -->
<!-- 4574342384 -->
<g id="node19" class="node">
<title>4574342384</title>
<ellipse fill="#9bcd9b" stroke="black" cx="438" cy="-19.5" rx="18" ry="18"/>
<text text-anchor="middle" x="438" y="-15.8" font-family="Helvetica,sans-Serif" font-size="14.00">I</text>
</g>
<!-- 4574182144&#45;&gt;4574342384 -->
<g id="edge18" class="edge">
<title>4574182144&#45;&gt;4574342384</title>
<path fill="none" stroke="black" d="M401.13,-64.66C407.8,-56.68 416.34,-46.44 423.52,-37.84"/>
<polygon fill="black" stroke="black" points="425.07,-38.72 426.93,-33.76 422.38,-36.48 425.07,-38.72"/>
</g>
<!-- 4574346224 -->
<g id="node20" class="node">
<title>4574346224</title>
<ellipse fill="#9bcd9b" stroke="black" cx="503" cy="-19.5" rx="18" ry="18"/>
<text text-anchor="middle" x="503" y="-15.8" font-family="Helvetica,sans-Serif" font-size="14.00">D</text>
</g>
<!-- 4415845200&#45;&gt;4574346224 -->
<g id="edge19" class="edge">
<title>4415845200&#45;&gt;4574346224</title>
<path fill="none" stroke="black" d="M539.87,-64.66C533.2,-56.68 524.66,-46.44 517.48,-37.84"/>
<polygon fill="black" stroke="black" points="518.62,-36.48 514.07,-33.76 515.93,-38.72 518.62,-36.48"/>
</g>
<!-- 416425 -->
<!-- 4415845200&#45;&gt;416425 -->
<!-- 4574342768 -->
<g id="node22" class="node">
<title>4574342768</title>
<ellipse fill="#9bcd9b" stroke="black" cx="599" cy="-19.5" rx="18.7" ry="18.7"/>
<text text-anchor="middle" x="599" y="-15.8" font-family="Helvetica,sans-Serif" font-size="14.00">M</text>
</g>
<!-- 4415845200&#45;&gt;4574342768 -->
<g id="edge21" class="edge">
<title>4415845200&#45;&gt;4574342768</title>
<path fill="none" stroke="black" d="M562.13,-64.66C568.61,-56.91 576.85,-47.03 583.91,-38.58"/>
<polygon fill="black" stroke="black" points="585.4,-39.52 587.26,-34.56 582.71,-37.28 585.4,-39.52"/>
</g>
</g>
</svg>
