<?xml version="1.0" encoding="UTF-8" standalone="no"?>
<!DOCTYPE svg PUBLIC "-//W3C//DTD SVG 1.1//EN"
 "http://www.w3.org/Graphics/SVG/1.1/DTD/svg11.dtd">
<!-- Generated by graphviz version 2.50.0 (0)
 -->
<!-- Pages: 1 -->
<svg width="354pt" height="372pt"
 viewBox="0.00 0.00 354.00 371.98" xmlns="http://www.w3.org/2000/svg" xmlns:xlink="http://www.w3.org/1999/xlink">
<g id="graph0" class="graph" transform="scale(1 1) rotate(0) translate(4 367.98)">
<polygon fill="white" stroke="transparent" points="-4,4 -4,-367.98 350,-367.98 350,4 -4,4"/>
<!-- 4628139088 -->
<g id="node1" class="node">
<title>4628139088</title>
<ellipse fill="lightblue" stroke="black" cx="101" cy="-340.59" rx="23.3" ry="23.3"/>
<text text-anchor="middle" x="101" y="-336.89" font-family="Helvetica,sans-Serif" font-size="14.00">&#45;20</text>
</g>
<!-- 321129 -->
<!-- 4628139088&#45;&gt;321129 -->
<!-- 768658 -->
<!-- 4628139088&#45;&gt;768658 -->
<!-- 4628143456 -->
<g id="node4" class="node">
<title>4628143456</title>
<ellipse fill="lightblue" stroke="black" cx="149" cy="-277.19" rx="18" ry="18"/>
<text text-anchor="middle" x="149" y="-273.49" font-family="Helvetica,sans-Serif" font-size="14.00">7</text>
</g>
<!-- 4628139088&#45;&gt;4628143456 -->
<g id="edge3" class="edge">
<title>4628139088&#45;&gt;4628143456</title>
<path fill="none" stroke="black" d="M115.14,-321.5C121.4,-313.5 128.73,-304.12 134.97,-296.13"/>
<polygon fill="black" stroke="black" points="136.61,-296.88 138.31,-291.86 133.85,-294.72 136.61,-296.88"/>
</g>
<!-- 4628142592 -->
<g id="node5" class="node">
<title>4628142592</title>
<ellipse fill="lightblue" stroke="black" cx="66" cy="-213.79" rx="23.3" ry="23.3"/>
<text text-anchor="middle" x="66" y="-210.09" font-family="Helvetica,sans-Serif" font-size="14.00">&#45;16</text>
</g>
<!-- 4628143456&#45;&gt;4628142592 -->
<g id="edge4" class="edge">
<title>4628143456&#45;&gt;4628142592</title>
<path fill="none" stroke="black" d="M134.92,-265.77C122.24,-256.39 103.37,-242.43 88.58,-231.49"/>
<polygon fill="black" stroke="black" points="89.59,-230.06 84.53,-228.49 87.51,-232.88 89.59,-230.06"/>
</g>
<!-- 950340 -->
<!-- 4628143456&#45;&gt;950340 -->
<!-- 4628152048 -->
<g id="node7" class="node">
<title>4628152048</title>
<ellipse fill="lightblue" stroke="black" cx="229" cy="-213.79" rx="20.6" ry="20.6"/>
<text text-anchor="middle" x="229" y="-210.09" font-family="Helvetica,sans-Serif" font-size="14.00">12</text>
</g>
<!-- 4628143456&#45;&gt;4628152048 -->
<g id="edge6" class="edge">
<title>4628143456&#45;&gt;4628152048</title>
<path fill="none" stroke="black" d="M162.93,-265.49C175.51,-255.84 194.18,-241.52 208.46,-230.55"/>
<polygon fill="black" stroke="black" points="209.84,-231.7 212.74,-227.27 207.71,-228.92 209.84,-231.7"/>
</g>
<!-- 69503 -->
<!-- 4628142592&#45;&gt;69503 -->
<!-- 100337 -->
<!-- 4628142592&#45;&gt;100337 -->
<!-- 4628148352 -->
<g id="node10" class="node">
<title>4628148352</title>
<ellipse fill="lightblue" stroke="black" cx="114" cy="-147.59" rx="18.7" ry="18.7"/>
<text text-anchor="middle" x="114" y="-143.89" font-family="Helvetica,sans-Serif" font-size="14.00">&#45;9</text>
</g>
<!-- 4628142592&#45;&gt;4628148352 -->
<g id="edge9" class="edge">
<title>4628142592&#45;&gt;4628148352</title>
<path fill="none" stroke="black" d="M79.63,-194.57C86.01,-186.03 93.61,-175.87 100.03,-167.28"/>
<polygon fill="black" stroke="black" points="101.49,-168.25 103.08,-163.2 98.69,-166.15 101.49,-168.25"/>
</g>
<!-- 397966 -->
<!-- 4628152048&#45;&gt;397966 -->
<!-- 540808 -->
<!-- 4628152048&#45;&gt;540808 -->
<!-- 4628137072 -->
<g id="node19" class="node">
<title>4628137072</title>
<ellipse fill="lightblue" stroke="black" cx="280" cy="-147.59" rx="20.6" ry="20.6"/>
<text text-anchor="middle" x="280" y="-143.89" font-family="Helvetica,sans-Serif" font-size="14.00">16</text>
</g>
<!-- 4628152048&#45;&gt;4628137072 -->
<g id="edge18" class="edge">
<title>4628152048&#45;&gt;4628137072</title>
<path fill="none" stroke="black" d="M241.61,-196.92C248.4,-188.37 256.85,-177.73 264.09,-168.62"/>
<polygon fill="black" stroke="black" points="265.8,-169.28 267.54,-164.28 263.06,-167.11 265.8,-169.28"/>
</g>
<!-- 4628152096 -->
<g id="node11" class="node">
<title>4628152096</title>
<ellipse fill="lightblue" stroke="black" cx="61" cy="-81.4" rx="23.3" ry="23.3"/>
<text text-anchor="middle" x="61" y="-77.7" font-family="Helvetica,sans-Serif" font-size="14.00">&#45;11</text>
</g>
<!-- 4628148352&#45;&gt;4628152096 -->
<g id="edge10" class="edge">
<title>4628148352&#45;&gt;4628152096</title>
<path fill="none" stroke="black" d="M102.24,-132.35C95.41,-124.07 86.66,-113.48 78.98,-104.18"/>
<polygon fill="black" stroke="black" points="80.3,-103.02 75.76,-100.28 77.6,-105.25 80.3,-103.02"/>
</g>
<!-- 884435 -->
<!-- 4628148352&#45;&gt;884435 -->
<!-- 4628141008 -->
<g id="node13" class="node">
<title>4628141008</title>
<ellipse fill="lightblue" stroke="black" cx="162" cy="-81.4" rx="18" ry="18"/>
<text text-anchor="middle" x="162" y="-77.7" font-family="Helvetica,sans-Serif" font-size="14.00">2</text>
</g>
<!-- 4628148352&#45;&gt;4628141008 -->
<g id="edge12" class="edge">
<title>4628148352&#45;&gt;4628141008</title>
<path fill="none" stroke="black" d="M124.89,-132.03C131.86,-122.7 140.96,-110.54 148.4,-100.58"/>
<polygon fill="black" stroke="black" points="149.89,-101.52 151.48,-96.47 147.09,-99.42 149.89,-101.52"/>
</g>
<!-- 4628139760 -->
<g id="node14" class="node">
<title>4628139760</title>
<ellipse fill="lightblue" stroke="black" cx="114" cy="-18" rx="18" ry="18"/>
<text text-anchor="middle" x="114" y="-14.3" font-family="Helvetica,sans-Serif" font-size="14.00">0</text>
</g>
<!-- 4628141008&#45;&gt;4628139760 -->
<g id="edge13" class="edge">
<title>4628141008&#45;&gt;4628139760</title>
<path fill="none" stroke="black" d="M151.35,-66.77C144.39,-57.87 135.23,-46.16 127.73,-36.56"/>
<polygon fill="black" stroke="black" points="129.08,-35.45 124.62,-32.59 126.32,-37.61 129.08,-35.45"/>
</g>
<!-- 745230 -->
<!-- 4628141008&#45;&gt;745230 -->
<!-- 968953 -->
<!-- 4628141008&#45;&gt;968953 -->
<!-- 4628148112 -->
<g id="node20" class="node">
<title>4628148112</title>
<ellipse fill="lightblue" stroke="black" cx="230" cy="-81.4" rx="20.6" ry="20.6"/>
<text text-anchor="middle" x="230" y="-77.7" font-family="Helvetica,sans-Serif" font-size="14.00">15</text>
</g>
<!-- 4628137072&#45;&gt;4628148112 -->
<g id="edge19" class="edge">
<title>4628137072&#45;&gt;4628148112</title>
<path fill="none" stroke="black" d="M267.64,-130.73C261.08,-122.3 252.94,-111.85 245.91,-102.83"/>
<polygon fill="black" stroke="black" points="247.02,-101.4 242.56,-98.53 244.26,-103.55 247.02,-101.4"/>
</g>
<!-- 855473 -->
<!-- 4628137072&#45;&gt;855473 -->
<!-- 807731 -->
<!-- 4628137072&#45;&gt;807731 -->
</g>
</svg>
