<?xml version="1.0" encoding="UTF-8" standalone="no"?>
<!DOCTYPE svg PUBLIC "-//W3C//DTD SVG 1.1//EN"
 "http://www.w3.org/Graphics/SVG/1.1/DTD/svg11.dtd">
<!-- Generated by graphviz version 2.50.0 (0)
 -->
<!-- Pages: 1 -->
<svg width="510pt" height="393pt"
 viewBox="0.00 0.00 510.00 392.79" xmlns="http://www.w3.org/2000/svg" xmlns:xlink="http://www.w3.org/1999/xlink">
<g id="graph0" class="graph" transform="scale(1 1) rotate(0) translate(4 388.79)">
<polygon fill="white" stroke="transparent" points="-4,4 -4,-388.79 506,-388.79 506,4 -4,4"/>
<!-- 4573816896 -->
<g id="node1" class="node">
<title>4573816896</title>
<ellipse fill="lightblue" stroke="black" cx="307" cy="-366.79" rx="18" ry="18"/>
<text text-anchor="middle" x="307" y="-363.09" font-family="Helvetica,sans-Serif" font-size="14.00">N</text>
</g>
<!-- 4574300880 -->
<g id="node2" class="node">
<title>4574300880</title>
<ellipse fill="lightblue" stroke="black" cx="179" cy="-308.6" rx="18.4" ry="18.4"/>
<text text-anchor="middle" x="179" y="-304.9" font-family="Helvetica,sans-Serif" font-size="14.00">G</text>
</g>
<!-- 4573816896&#45;&gt;4574300880 -->
<g id="edge1" class="edge">
<title>4573816896&#45;&gt;4574300880</title>
<path fill="none" stroke="black" d="M290.79,-358.68C267.83,-348.6 225.82,-330.15 200.35,-318.97"/>
<polygon fill="black" stroke="black" points="200.77,-317.24 195.48,-316.83 199.36,-320.44 200.77,-317.24"/>
</g>
<!-- 540184 -->
<!-- 4573816896&#45;&gt;540184 -->
<!-- 4573819728 -->
<g id="node4" class="node">
<title>4573819728</title>
<ellipse fill="lightblue" stroke="black" cx="436" cy="-308.6" rx="18" ry="18"/>
<text text-anchor="middle" x="436" y="-304.9" font-family="Helvetica,sans-Serif" font-size="14.00">Y</text>
</g>
<!-- 4573816896&#45;&gt;4573819728 -->
<g id="edge3" class="edge">
<title>4573816896&#45;&gt;4573819728</title>
<path fill="none" stroke="black" d="M323.34,-358.68C346.6,-348.54 389.28,-329.95 414.91,-318.78"/>
<polygon fill="black" stroke="black" points="415.91,-320.26 419.79,-316.65 414.51,-317.05 415.91,-320.26"/>
</g>
<!-- 4574312592 -->
<g id="node5" class="node">
<title>4574312592</title>
<ellipse fill="lightblue" stroke="black" cx="66" cy="-250.4" rx="18" ry="18"/>
<text text-anchor="middle" x="66" y="-246.7" font-family="Helvetica,sans-Serif" font-size="14.00">B</text>
</g>
<!-- 4574300880&#45;&gt;4574312592 -->
<g id="edge4" class="edge">
<title>4574300880&#45;&gt;4574312592</title>
<path fill="none" stroke="black" d="M162.81,-299.54C142.73,-289.55 108.46,-272.51 86.55,-261.61"/>
<polygon fill="black" stroke="black" points="87.05,-259.91 81.8,-259.25 85.49,-263.05 87.05,-259.91"/>
</g>
<!-- 178930 -->
<!-- 4574300880&#45;&gt;178930 -->
<!-- 4574311056 -->
<g id="node7" class="node">
<title>4574311056</title>
<ellipse fill="lightblue" stroke="black" cx="227" cy="-250.4" rx="18" ry="18"/>
<text text-anchor="middle" x="227" y="-246.7" font-family="Helvetica,sans-Serif" font-size="14.00">I</text>
</g>
<!-- 4574300880&#45;&gt;4574311056 -->
<g id="edge6" class="edge">
<title>4574300880&#45;&gt;4574311056</title>
<path fill="none" stroke="black" d="M190.38,-294.28C196.95,-286.58 205.29,-276.81 212.36,-268.54"/>
<polygon fill="black" stroke="black" points="213.79,-269.56 215.71,-264.62 211.13,-267.28 213.79,-269.56"/>
</g>
<!-- 4574310672 -->
<g id="node17" class="node">
<title>4574310672</title>
<ellipse fill="lightblue" stroke="black" cx="388" cy="-250.4" rx="18" ry="18"/>
<text text-anchor="middle" x="388" y="-246.7" font-family="Helvetica,sans-Serif" font-size="14.00">V</text>
</g>
<!-- 4573819728&#45;&gt;4574310672 -->
<g id="edge16" class="edge">
<title>4573819728&#45;&gt;4574310672</title>
<path fill="none" stroke="black" d="M424.62,-294.28C418.05,-286.58 409.71,-276.81 402.64,-268.54"/>
<polygon fill="black" stroke="black" points="403.87,-267.28 399.29,-264.62 401.21,-269.56 403.87,-267.28"/>
</g>
<!-- 932336 -->
<!-- 4573819728&#45;&gt;932336 -->
<!-- 290654 -->
<!-- 4573819728&#45;&gt;290654 -->
<!-- 916705 -->
<!-- 4574312592&#45;&gt;916705 -->
<!-- 727629 -->
<!-- 4574312592&#45;&gt;727629 -->
<!-- 4574302944 -->
<g id="node10" class="node">
<title>4574302944</title>
<ellipse fill="lightblue" stroke="black" cx="114" cy="-192.2" rx="18" ry="18"/>
<text text-anchor="middle" x="114" y="-188.5" font-family="Helvetica,sans-Serif" font-size="14.00">D</text>
</g>
<!-- 4574312592&#45;&gt;4574302944 -->
<g id="edge9" class="edge">
<title>4574312592&#45;&gt;4574302944</title>
<path fill="none" stroke="black" d="M77.38,-236.08C83.95,-228.38 92.29,-218.61 99.36,-210.34"/>
<polygon fill="black" stroke="black" points="100.79,-211.36 102.71,-206.42 98.13,-209.09 100.79,-211.36"/>
</g>
<!-- 304369 -->
<!-- 4574311056&#45;&gt;304369 -->
<!-- 36222 -->
<!-- 4574311056&#45;&gt;36222 -->
<!-- 4574307648 -->
<g id="node16" class="node">
<title>4574307648</title>
<ellipse fill="lightblue" stroke="black" cx="275" cy="-192.2" rx="18" ry="18"/>
<text text-anchor="middle" x="275" y="-188.5" font-family="Helvetica,sans-Serif" font-size="14.00">J</text>
</g>
<!-- 4574311056&#45;&gt;4574307648 -->
<g id="edge15" class="edge">
<title>4574311056&#45;&gt;4574307648</title>
<path fill="none" stroke="black" d="M238.38,-236.08C244.95,-228.38 253.29,-218.61 260.36,-210.34"/>
<polygon fill="black" stroke="black" points="261.79,-211.36 263.71,-206.42 259.13,-209.09 261.79,-211.36"/>
</g>
<!-- 907942 -->
<!-- 4574302944&#45;&gt;907942 -->
<!-- 358753 -->
<!-- 4574302944&#45;&gt;358753 -->
<!-- 4574312112 -->
<g id="node13" class="node">
<title>4574312112</title>
<ellipse fill="lightblue" stroke="black" cx="162" cy="-134" rx="18" ry="18"/>
<text text-anchor="middle" x="162" y="-130.3" font-family="Helvetica,sans-Serif" font-size="14.00">E</text>
</g>
<!-- 4574302944&#45;&gt;4574312112 -->
<g id="edge12" class="edge">
<title>4574302944&#45;&gt;4574312112</title>
<path fill="none" stroke="black" d="M125.38,-177.88C131.95,-170.18 140.29,-160.41 147.36,-152.15"/>
<polygon fill="black" stroke="black" points="148.79,-153.16 150.71,-148.22 146.13,-150.89 148.79,-153.16"/>
</g>
<!-- 4574301312 -->
<g id="node20" class="node">
<title>4574301312</title>
<ellipse fill="lightblue" stroke="black" cx="340" cy="-192.2" rx="18.4" ry="18.4"/>
<text text-anchor="middle" x="340" y="-188.5" font-family="Helvetica,sans-Serif" font-size="14.00">Q</text>
</g>
<!-- 4574310672&#45;&gt;4574301312 -->
<g id="edge19" class="edge">
<title>4574310672&#45;&gt;4574301312</title>
<path fill="none" stroke="black" d="M376.62,-236.08C370.14,-228.49 361.95,-218.89 354.95,-210.7"/>
<polygon fill="black" stroke="black" points="356.21,-209.48 351.63,-206.81 353.54,-211.75 356.21,-209.48"/>
</g>
<!-- 570787 -->
<!-- 4574310672&#45;&gt;570787 -->
<!-- 4574311776 -->
<g id="node22" class="node">
<title>4574311776</title>
<ellipse fill="lightblue" stroke="black" cx="436" cy="-192.2" rx="18" ry="18"/>
<text text-anchor="middle" x="436" y="-188.5" font-family="Helvetica,sans-Serif" font-size="14.00">X</text>
</g>
<!-- 4574310672&#45;&gt;4574311776 -->
<g id="edge21" class="edge">
<title>4574310672&#45;&gt;4574311776</title>
<path fill="none" stroke="black" d="M399.38,-236.08C405.95,-228.38 414.29,-218.61 421.36,-210.34"/>
<polygon fill="black" stroke="black" points="422.79,-211.36 424.71,-206.42 420.13,-209.09 422.79,-211.36"/>
</g>
<!-- 4574307408 -->
<g id="node23" class="node">
<title>4574307408</title>
<ellipse fill="lightblue" stroke="black" cx="292" cy="-134" rx="18" ry="18"/>
<text text-anchor="middle" x="292" y="-130.3" font-family="Helvetica,sans-Serif" font-size="14.00">P</text>
</g>
<!-- 4574301312&#45;&gt;4574307408 -->
<g id="edge22" class="edge">
<title>4574301312&#45;&gt;4574307408</title>
<path fill="none" stroke="black" d="M328.62,-177.88C322.05,-170.18 313.71,-160.41 306.64,-152.15"/>
<polygon fill="black" stroke="black" points="307.87,-150.89 303.29,-148.22 305.21,-153.16 307.87,-150.89"/>
</g>
<!-- 532865 -->
<!-- 4574301312&#45;&gt;532865 -->
<!-- 4574311152 -->
<g id="node25" class="node">
<title>4574311152</title>
<ellipse fill="lightblue" stroke="black" cx="388" cy="-134" rx="18" ry="18"/>
<text text-anchor="middle" x="388" y="-130.3" font-family="Helvetica,sans-Serif" font-size="14.00">R</text>
</g>
<!-- 4574301312&#45;&gt;4574311152 -->
<g id="edge24" class="edge">
<title>4574301312&#45;&gt;4574311152</title>
<path fill="none" stroke="black" d="M351.38,-177.88C357.95,-170.18 366.29,-160.41 373.36,-152.15"/>
<polygon fill="black" stroke="black" points="374.79,-153.16 376.71,-148.22 372.13,-150.89 374.79,-153.16"/>
</g>
<!-- 938573 -->
<!-- 4574311152&#45;&gt;938573 -->
<!-- 71890 -->
<!-- 4574311152&#45;&gt;71890 -->
<!-- 4574314224 -->
<g id="node28" class="node">
<title>4574314224</title>
<ellipse fill="lightblue" stroke="black" cx="436" cy="-76" rx="18" ry="18"/>
<text text-anchor="middle" x="436" y="-72.3" font-family="Helvetica,sans-Serif" font-size="14.00">T</text>
</g>
<!-- 4574311152&#45;&gt;4574314224 -->
<g id="edge27" class="edge">
<title>4574311152&#45;&gt;4574314224</title>
<path fill="none" stroke="black" d="M399.38,-119.73C405.95,-112.06 414.29,-102.32 421.36,-94.08"/>
<polygon fill="black" stroke="black" points="422.78,-95.11 424.71,-90.18 420.12,-92.83 422.78,-95.11"/>
</g>
<!-- 4574309328 -->
<g id="node29" class="node">
<title>4574309328</title>
<ellipse fill="lightblue" stroke="black" cx="388" cy="-18" rx="18" ry="18"/>
<text text-anchor="middle" x="388" y="-14.3" font-family="Helvetica,sans-Serif" font-size="14.00">S</text>
</g>
<!-- 4574314224&#45;&gt;4574309328 -->
<g id="edge28" class="edge">
<title>4574314224&#45;&gt;4574309328</title>
<path fill="none" stroke="black" d="M424.62,-61.73C418.05,-54.06 409.71,-44.32 402.64,-36.08"/>
<polygon fill="black" stroke="black" points="403.88,-34.83 399.29,-32.18 401.22,-37.11 403.88,-34.83"/>
</g>
<!-- 541696 -->
<!-- 4574314224&#45;&gt;541696 -->
<!-- 760607 -->
<!-- 4574314224&#45;&gt;760607 -->
</g>
</svg>
