<?xml version="1.0" encoding="UTF-8" standalone="no"?>
<!DOCTYPE svg PUBLIC "-//W3C//DTD SVG 1.1//EN"
 "http://www.w3.org/Graphics/SVG/1.1/DTD/svg11.dtd">
<!-- Generated by graphviz version 2.50.0 (0)
 -->
<!-- Pages: 1 -->
<svg width="525pt" height="393pt"
 viewBox="0.00 0.00 525.00 392.79" xmlns="http://www.w3.org/2000/svg" xmlns:xlink="http://www.w3.org/1999/xlink">
<g id="graph0" class="graph" transform="scale(1 1) rotate(0) translate(4 388.79)">
<polygon fill="white" stroke="transparent" points="-4,4 -4,-388.79 521,-388.79 521,4 -4,4"/>
<!-- 4573816032 -->
<g id="node1" class="node">
<title>4573816032</title>
<ellipse fill="lightblue" stroke="black" cx="451" cy="-366.79" rx="18" ry="18"/>
<text text-anchor="middle" x="451" y="-363.09" font-family="Helvetica,sans-Serif" font-size="14.00">V</text>
</g>
<!-- 4574310624 -->
<g id="node2" class="node">
<title>4574310624</title>
<ellipse fill="lightblue" stroke="black" cx="403" cy="-308.79" rx="18" ry="18"/>
<text text-anchor="middle" x="403" y="-305.09" font-family="Helvetica,sans-Serif" font-size="14.00">S</text>
</g>
<!-- 4573816032&#45;&gt;4574310624 -->
<g id="edge1" class="edge">
<title>4573816032&#45;&gt;4574310624</title>
<path fill="none" stroke="black" d="M439.62,-352.52C433.05,-344.85 424.71,-335.12 417.64,-326.88"/>
<polygon fill="black" stroke="black" points="418.88,-325.63 414.29,-322.97 416.22,-327.9 418.88,-325.63"/>
</g>
<!-- 697563 -->
<!-- 4573816032&#45;&gt;697563 -->
<!-- 4574308272 -->
<g id="node4" class="node">
<title>4574308272</title>
<ellipse fill="lightblue" stroke="black" cx="499" cy="-308.79" rx="18" ry="18"/>
<text text-anchor="middle" x="499" y="-305.09" font-family="Helvetica,sans-Serif" font-size="14.00">Y</text>
</g>
<!-- 4573816032&#45;&gt;4574308272 -->
<g id="edge3" class="edge">
<title>4573816032&#45;&gt;4574308272</title>
<path fill="none" stroke="black" d="M462.38,-352.52C468.95,-344.85 477.29,-335.12 484.36,-326.88"/>
<polygon fill="black" stroke="black" points="485.78,-327.9 487.71,-322.97 483.12,-325.63 485.78,-327.9"/>
</g>
<!-- 4574300544 -->
<g id="node5" class="node">
<title>4574300544</title>
<ellipse fill="lightblue" stroke="black" cx="355" cy="-250.79" rx="18" ry="18"/>
<text text-anchor="middle" x="355" y="-247.09" font-family="Helvetica,sans-Serif" font-size="14.00">N</text>
</g>
<!-- 4574310624&#45;&gt;4574300544 -->
<g id="edge4" class="edge">
<title>4574310624&#45;&gt;4574300544</title>
<path fill="none" stroke="black" d="M391.62,-294.52C385.05,-286.85 376.71,-277.12 369.64,-268.88"/>
<polygon fill="black" stroke="black" points="370.88,-267.63 366.29,-264.97 368.22,-269.9 370.88,-267.63"/>
</g>
<!-- 489923 -->
<!-- 4574310624&#45;&gt;489923 -->
<!-- 333687 -->
<!-- 4574310624&#45;&gt;333687 -->
<!-- 4574313168 -->
<g id="node8" class="node">
<title>4574313168</title>
<ellipse fill="lightblue" stroke="black" cx="275" cy="-192.79" rx="18" ry="18"/>
<text text-anchor="middle" x="275" y="-189.09" font-family="Helvetica,sans-Serif" font-size="14.00">E</text>
</g>
<!-- 4574300544&#45;&gt;4574313168 -->
<g id="edge7" class="edge">
<title>4574300544&#45;&gt;4574313168</title>
<path fill="none" stroke="black" d="M340.7,-239.78C327.58,-230.6 308.08,-216.95 293.72,-206.9"/>
<polygon fill="black" stroke="black" points="294.55,-205.34 289.45,-203.91 292.54,-208.21 294.55,-205.34"/>
</g>
<!-- 79557 -->
<!-- 4574300544&#45;&gt;79557 -->
<!-- 4574307648 -->
<g id="node10" class="node">
<title>4574307648</title>
<ellipse fill="lightblue" stroke="black" cx="436" cy="-192.79" rx="18" ry="18"/>
<text text-anchor="middle" x="436" y="-189.09" font-family="Helvetica,sans-Serif" font-size="14.00">P</text>
</g>
<!-- 4574300544&#45;&gt;4574307648 -->
<g id="edge9" class="edge">
<title>4574300544&#45;&gt;4574307648</title>
<path fill="none" stroke="black" d="M369.48,-239.78C382.84,-230.54 402.76,-216.78 417.31,-206.71"/>
<polygon fill="black" stroke="black" points="418.53,-208 421.64,-203.72 416.54,-205.12 418.53,-208"/>
</g>
<!-- 4574300928 -->
<g id="node11" class="node">
<title>4574300928</title>
<ellipse fill="lightblue" stroke="black" cx="66" cy="-134.6" rx="18" ry="18"/>
<text text-anchor="middle" x="66" y="-130.9" font-family="Helvetica,sans-Serif" font-size="14.00">A</text>
</g>
<!-- 4574313168&#45;&gt;4574300928 -->
<g id="edge10" class="edge">
<title>4574313168&#45;&gt;4574300928</title>
<path fill="none" stroke="black" d="M257.54,-187.1C219.64,-176.91 129.9,-152.78 88.11,-141.54"/>
<polygon fill="black" stroke="black" points="88.55,-139.85 83.26,-140.24 87.64,-143.23 88.55,-139.85"/>
</g>
<!-- 552759 -->
<!-- 4574313168&#45;&gt;552759 -->
<!-- 4574309808 -->
<g id="node13" class="node">
<title>4574309808</title>
<ellipse fill="lightblue" stroke="black" cx="323" cy="-134.6" rx="18" ry="18"/>
<text text-anchor="middle" x="323" y="-130.9" font-family="Helvetica,sans-Serif" font-size="14.00">H</text>
</g>
<!-- 4574313168&#45;&gt;4574309808 -->
<g id="edge12" class="edge">
<title>4574313168&#45;&gt;4574309808</title>
<path fill="none" stroke="black" d="M286.38,-178.48C292.95,-170.78 301.29,-161.01 308.36,-152.74"/>
<polygon fill="black" stroke="black" points="309.79,-153.76 311.71,-148.82 307.13,-151.48 309.79,-153.76"/>
</g>
<!-- 443186 -->
<!-- 4574307648&#45;&gt;443186 -->
<!-- 46212 -->
<!-- 4574307648&#45;&gt;46212 -->
<!-- 4574304864 -->
<g id="node31" class="node">
<title>4574304864</title>
<ellipse fill="lightblue" stroke="black" cx="484" cy="-134.6" rx="18.4" ry="18.4"/>
<text text-anchor="middle" x="484" y="-130.9" font-family="Helvetica,sans-Serif" font-size="14.00">Q</text>
</g>
<!-- 4574307648&#45;&gt;4574304864 -->
<g id="edge30" class="edge">
<title>4574307648&#45;&gt;4574304864</title>
<path fill="none" stroke="black" d="M447.38,-178.48C453.86,-170.89 462.05,-161.29 469.05,-153.1"/>
<polygon fill="black" stroke="black" points="470.46,-154.15 472.37,-149.21 467.79,-151.87 470.46,-154.15"/>
</g>
<!-- 410463 -->
<!-- 4574300928&#45;&gt;410463 -->
<!-- 364436 -->
<!-- 4574300928&#45;&gt;364436 -->
<!-- 4574313984 -->
<g id="node16" class="node">
<title>4574313984</title>
<ellipse fill="lightblue" stroke="black" cx="114" cy="-76.4" rx="18" ry="18"/>
<text text-anchor="middle" x="114" y="-72.7" font-family="Helvetica,sans-Serif" font-size="14.00">D</text>
</g>
<!-- 4574300928&#45;&gt;4574313984 -->
<g id="edge15" class="edge">
<title>4574300928&#45;&gt;4574313984</title>
<path fill="none" stroke="black" d="M77.38,-120.28C83.95,-112.58 92.29,-102.81 99.36,-94.54"/>
<polygon fill="black" stroke="black" points="100.79,-95.56 102.71,-90.62 98.13,-93.28 100.79,-95.56"/>
</g>
<!-- 4574704944 -->
<g id="node20" class="node">
<title>4574704944</title>
<ellipse fill="lightblue" stroke="black" cx="275" cy="-76.4" rx="18" ry="18"/>
<text text-anchor="middle" x="275" y="-72.7" font-family="Helvetica,sans-Serif" font-size="14.00">F</text>
</g>
<!-- 4574309808&#45;&gt;4574704944 -->
<g id="edge19" class="edge">
<title>4574309808&#45;&gt;4574704944</title>
<path fill="none" stroke="black" d="M311.62,-120.28C305.05,-112.58 296.71,-102.81 289.64,-94.54"/>
<polygon fill="black" stroke="black" points="290.87,-93.28 286.29,-90.62 288.21,-95.56 290.87,-93.28"/>
</g>
<!-- 278012 -->
<!-- 4574309808&#45;&gt;278012 -->
<!-- 4574692272 -->
<g id="node22" class="node">
<title>4574692272</title>
<ellipse fill="lightblue" stroke="black" cx="436" cy="-76.4" rx="18" ry="18"/>
<text text-anchor="middle" x="436" y="-72.7" font-family="Helvetica,sans-Serif" font-size="14.00">L</text>
</g>
<!-- 4574309808&#45;&gt;4574692272 -->
<g id="edge21" class="edge">
<title>4574309808&#45;&gt;4574692272</title>
<path fill="none" stroke="black" d="M338.71,-125.78C358.75,-115.81 393.46,-98.55 415.55,-87.57"/>
<polygon fill="black" stroke="black" points="416.36,-89.12 420.06,-85.33 414.8,-85.99 416.36,-89.12"/>
</g>
<!-- 4574312352 -->
<g id="node17" class="node">
<title>4574312352</title>
<ellipse fill="lightblue" stroke="black" cx="66" cy="-18.2" rx="18" ry="18"/>
<text text-anchor="middle" x="66" y="-14.5" font-family="Helvetica,sans-Serif" font-size="14.00">C</text>
</g>
<!-- 4574313984&#45;&gt;4574312352 -->
<g id="edge16" class="edge">
<title>4574313984&#45;&gt;4574312352</title>
<path fill="none" stroke="black" d="M102.62,-62.08C96.05,-54.38 87.71,-44.61 80.64,-36.34"/>
<polygon fill="black" stroke="black" points="81.87,-35.09 77.29,-32.42 79.21,-37.36 81.87,-35.09"/>
</g>
<!-- 653985 -->
<!-- 4574313984&#45;&gt;653985 -->
<!-- 144567 -->
<!-- 4574313984&#45;&gt;144567 -->
<!-- 390566 -->
<!-- 4574704944&#45;&gt;390566 -->
<!-- 110126 -->
<!-- 4574704944&#45;&gt;110126 -->
<!-- 4574697552 -->
<g id="node25" class="node">
<title>4574697552</title>
<ellipse fill="lightblue" stroke="black" cx="323" cy="-18.2" rx="18.4" ry="18.4"/>
<text text-anchor="middle" x="323" y="-14.5" font-family="Helvetica,sans-Serif" font-size="14.00">G</text>
</g>
<!-- 4574704944&#45;&gt;4574697552 -->
<g id="edge24" class="edge">
<title>4574704944&#45;&gt;4574697552</title>
<path fill="none" stroke="black" d="M286.38,-62.08C292.86,-54.49 301.05,-44.89 308.05,-36.7"/>
<polygon fill="black" stroke="black" points="309.46,-37.75 311.37,-32.81 306.79,-35.48 309.46,-37.75"/>
</g>
<!-- 4574693808 -->
<g id="node26" class="node">
<title>4574693808</title>
<ellipse fill="lightblue" stroke="black" cx="388" cy="-18.2" rx="18" ry="18"/>
<text text-anchor="middle" x="388" y="-14.5" font-family="Helvetica,sans-Serif" font-size="14.00">I</text>
</g>
<!-- 4574692272&#45;&gt;4574693808 -->
<g id="edge25" class="edge">
<title>4574692272&#45;&gt;4574693808</title>
<path fill="none" stroke="black" d="M424.62,-62.08C418.05,-54.38 409.71,-44.61 402.64,-36.34"/>
<polygon fill="black" stroke="black" points="403.87,-35.09 399.29,-32.42 401.21,-37.36 403.87,-35.09"/>
</g>
<!-- 552440 -->
<!-- 4574692272&#45;&gt;552440 -->
<!-- 194477 -->
<!-- 4574692272&#45;&gt;194477 -->
</g>
</svg>
