<?xml version="1.0" encoding="UTF-8" standalone="no"?>
<!DOCTYPE svg PUBLIC "-//W3C//DTD SVG 1.1//EN"
 "http://www.w3.org/Graphics/SVG/1.1/DTD/svg11.dtd">
<!-- Generated by graphviz version 2.50.0 (0)
 -->
<!-- Pages: 1 -->
<svg width="525pt" height="397pt"
 viewBox="0.00 0.00 525.00 397.09" xmlns="http://www.w3.org/2000/svg" xmlns:xlink="http://www.w3.org/1999/xlink">
<g id="graph0" class="graph" transform="scale(1 1) rotate(0) translate(4 393.09)">
<polygon fill="white" stroke="transparent" points="-4,4 -4,-393.09 521,-393.09 521,4 -4,4"/>
<!-- 4573819632 -->
<g id="node1" class="node">
<title>4573819632</title>
<ellipse fill="lightblue" stroke="black" cx="242" cy="-369.59" rx="19.5" ry="19.5"/>
<text text-anchor="middle" x="242" y="-365.89" font-family="Helvetica,sans-Serif" font-size="14.00">W</text>
</g>
<!-- 4574307408 -->
<g id="node2" class="node">
<title>4574307408</title>
<ellipse fill="lightblue" stroke="black" cx="194" cy="-310.09" rx="18" ry="18"/>
<text text-anchor="middle" x="194" y="-306.39" font-family="Helvetica,sans-Serif" font-size="14.00">I</text>
</g>
<!-- 4573819632&#45;&gt;4574307408 -->
<g id="edge1" class="edge">
<title>4573819632&#45;&gt;4574307408</title>
<path fill="none" stroke="black" d="M229.89,-354.08C223.4,-346.31 215.35,-336.67 208.53,-328.49"/>
<polygon fill="black" stroke="black" points="209.83,-327.33 205.28,-324.61 207.15,-329.57 209.83,-327.33"/>
</g>
<!-- 641307 -->
<!-- 4573819632&#45;&gt;641307 -->
<!-- 4574311152 -->
<g id="node4" class="node">
<title>4574311152</title>
<ellipse fill="lightblue" stroke="black" cx="290" cy="-310.09" rx="18" ry="18"/>
<text text-anchor="middle" x="290" y="-306.39" font-family="Helvetica,sans-Serif" font-size="14.00">Y</text>
</g>
<!-- 4573819632&#45;&gt;4574311152 -->
<g id="edge3" class="edge">
<title>4573819632&#45;&gt;4574311152</title>
<path fill="none" stroke="black" d="M254.11,-354.08C260.6,-346.31 268.65,-336.67 275.47,-328.49"/>
<polygon fill="black" stroke="black" points="276.85,-329.57 278.72,-324.61 274.17,-327.33 276.85,-329.57"/>
</g>
<!-- 4574305920 -->
<g id="node5" class="node">
<title>4574305920</title>
<ellipse fill="lightblue" stroke="black" cx="114" cy="-252.09" rx="18" ry="18"/>
<text text-anchor="middle" x="114" y="-248.39" font-family="Helvetica,sans-Serif" font-size="14.00">C</text>
</g>
<!-- 4574307408&#45;&gt;4574305920 -->
<g id="edge4" class="edge">
<title>4574307408&#45;&gt;4574305920</title>
<path fill="none" stroke="black" d="M179.7,-299.08C166.58,-289.9 147.08,-276.25 132.72,-266.2"/>
<polygon fill="black" stroke="black" points="133.55,-264.64 128.45,-263.21 131.54,-267.51 133.55,-264.64"/>
</g>
<!-- 629232 -->
<!-- 4574307408&#45;&gt;629232 -->
<!-- 4574314224 -->
<g id="node7" class="node">
<title>4574314224</title>
<ellipse fill="lightblue" stroke="black" cx="275" cy="-252.09" rx="18" ry="18"/>
<text text-anchor="middle" x="275" y="-248.39" font-family="Helvetica,sans-Serif" font-size="14.00">L</text>
</g>
<!-- 4574307408&#45;&gt;4574314224 -->
<g id="edge6" class="edge">
<title>4574307408&#45;&gt;4574314224</title>
<path fill="none" stroke="black" d="M208.48,-299.08C221.84,-289.84 241.76,-276.08 256.31,-266.01"/>
<polygon fill="black" stroke="black" points="257.53,-267.3 260.64,-263.02 255.54,-264.42 257.53,-267.3"/>
</g>
<!-- 4574308272 -->
<g id="node8" class="node">
<title>4574308272</title>
<ellipse fill="lightblue" stroke="black" cx="66" cy="-194.09" rx="18" ry="18"/>
<text text-anchor="middle" x="66" y="-190.39" font-family="Helvetica,sans-Serif" font-size="14.00">A</text>
</g>
<!-- 4574305920&#45;&gt;4574308272 -->
<g id="edge7" class="edge">
<title>4574305920&#45;&gt;4574308272</title>
<path fill="none" stroke="black" d="M102.62,-237.82C96.05,-230.15 87.71,-220.42 80.64,-212.18"/>
<polygon fill="black" stroke="black" points="81.88,-210.93 77.29,-208.27 79.22,-213.2 81.88,-210.93"/>
</g>
<!-- 365922 -->
<!-- 4574305920&#45;&gt;365922 -->
<!-- 4574307648 -->
<g id="node10" class="node">
<title>4574307648</title>
<ellipse fill="lightblue" stroke="black" cx="162" cy="-194.09" rx="18" ry="18"/>
<text text-anchor="middle" x="162" y="-190.39" font-family="Helvetica,sans-Serif" font-size="14.00">D</text>
</g>
<!-- 4574305920&#45;&gt;4574307648 -->
<g id="edge9" class="edge">
<title>4574305920&#45;&gt;4574307648</title>
<path fill="none" stroke="black" d="M125.38,-237.82C131.95,-230.15 140.29,-220.42 147.36,-212.18"/>
<polygon fill="black" stroke="black" points="148.78,-213.2 150.71,-208.27 146.12,-210.93 148.78,-213.2"/>
</g>
<!-- 4574310672 -->
<g id="node14" class="node">
<title>4574310672</title>
<ellipse fill="lightblue" stroke="black" cx="227" cy="-194.09" rx="18" ry="18"/>
<text text-anchor="middle" x="227" y="-190.39" font-family="Helvetica,sans-Serif" font-size="14.00">J</text>
</g>
<!-- 4574314224&#45;&gt;4574310672 -->
<g id="edge13" class="edge">
<title>4574314224&#45;&gt;4574310672</title>
<path fill="none" stroke="black" d="M263.62,-237.82C257.05,-230.15 248.71,-220.42 241.64,-212.18"/>
<polygon fill="black" stroke="black" points="242.88,-210.93 238.29,-208.27 240.22,-213.2 242.88,-210.93"/>
</g>
<!-- 77223 -->
<!-- 4574314224&#45;&gt;77223 -->
<!-- 4574314416 -->
<g id="node16" class="node">
<title>4574314416</title>
<ellipse fill="lightblue" stroke="black" cx="323" cy="-194.09" rx="18" ry="18"/>
<text text-anchor="middle" x="323" y="-190.39" font-family="Helvetica,sans-Serif" font-size="14.00">R</text>
</g>
<!-- 4574314224&#45;&gt;4574314416 -->
<g id="edge15" class="edge">
<title>4574314224&#45;&gt;4574314416</title>
<path fill="none" stroke="black" d="M286.38,-237.82C292.95,-230.15 301.29,-220.42 308.36,-212.18"/>
<polygon fill="black" stroke="black" points="309.78,-213.2 311.71,-208.27 307.12,-210.93 309.78,-213.2"/>
</g>
<!-- 218734 -->
<!-- 4574308272&#45;&gt;218734 -->
<!-- 517541 -->
<!-- 4574308272&#45;&gt;517541 -->
<!-- 4574311776 -->
<g id="node13" class="node">
<title>4574311776</title>
<ellipse fill="lightblue" stroke="black" cx="114" cy="-135.9" rx="18" ry="18"/>
<text text-anchor="middle" x="114" y="-132.2" font-family="Helvetica,sans-Serif" font-size="14.00">B</text>
</g>
<!-- 4574308272&#45;&gt;4574311776 -->
<g id="edge12" class="edge">
<title>4574308272&#45;&gt;4574311776</title>
<path fill="none" stroke="black" d="M77.38,-179.78C83.95,-172.08 92.29,-162.31 99.36,-154.04"/>
<polygon fill="black" stroke="black" points="100.79,-155.06 102.71,-150.12 98.13,-152.78 100.79,-155.06"/>
</g>
<!-- 4574311680 -->
<g id="node17" class="node">
<title>4574311680</title>
<ellipse fill="lightblue" stroke="black" cx="242" cy="-135.9" rx="18.4" ry="18.4"/>
<text text-anchor="middle" x="242" y="-132.2" font-family="Helvetica,sans-Serif" font-size="14.00">Q</text>
</g>
<!-- 4574314416&#45;&gt;4574311680 -->
<g id="edge16" class="edge">
<title>4574314416&#45;&gt;4574311680</title>
<path fill="none" stroke="black" d="M308.52,-183.05C295.24,-173.83 275.49,-160.13 260.96,-150.05"/>
<polygon fill="black" stroke="black" points="261.73,-148.46 256.63,-147.04 259.74,-151.33 261.73,-148.46"/>
</g>
<!-- 520326 -->
<!-- 4574314416&#45;&gt;520326 -->
<!-- 4574301312 -->
<g id="node19" class="node">
<title>4574301312</title>
<ellipse fill="lightblue" stroke="black" cx="403" cy="-135.9" rx="18" ry="18"/>
<text text-anchor="middle" x="403" y="-132.2" font-family="Helvetica,sans-Serif" font-size="14.00">S</text>
</g>
<!-- 4574314416&#45;&gt;4574301312 -->
<g id="edge18" class="edge">
<title>4574314416&#45;&gt;4574301312</title>
<path fill="none" stroke="black" d="M337.3,-183.05C350.42,-173.83 369.92,-160.13 384.28,-150.05"/>
<polygon fill="black" stroke="black" points="385.47,-151.35 388.55,-147.04 383.45,-148.49 385.47,-151.35"/>
</g>
<!-- 4574311056 -->
<g id="node20" class="node">
<title>4574311056</title>
<ellipse fill="lightblue" stroke="black" cx="194" cy="-76.85" rx="18.7" ry="18.7"/>
<text text-anchor="middle" x="194" y="-73.15" font-family="Helvetica,sans-Serif" font-size="14.00">M</text>
</g>
<!-- 4574311680&#45;&gt;4574311056 -->
<g id="edge19" class="edge">
<title>4574311680&#45;&gt;4574311056</title>
<path fill="none" stroke="black" d="M230.62,-121.38C224.24,-113.79 216.19,-104.22 209.26,-95.99"/>
<polygon fill="black" stroke="black" points="210.52,-94.77 205.96,-92.07 207.84,-97.02 210.52,-94.77"/>
</g>
<!-- 765310 -->
<!-- 4574311680&#45;&gt;765310 -->
<!-- 327767 -->
<!-- 4574311680&#45;&gt;327767 -->
<!-- 873758 -->
<!-- 4574301312&#45;&gt;873758 -->
<!-- 602427 -->
<!-- 4574301312&#45;&gt;602427 -->
<!-- 4574309328 -->
<g id="node25" class="node">
<title>4574309328</title>
<ellipse fill="lightblue" stroke="black" cx="451" cy="-76.85" rx="18" ry="18"/>
<text text-anchor="middle" x="451" y="-73.15" font-family="Helvetica,sans-Serif" font-size="14.00">T</text>
</g>
<!-- 4574301312&#45;&gt;4574309328 -->
<g id="edge24" class="edge">
<title>4574301312&#45;&gt;4574309328</title>
<path fill="none" stroke="black" d="M414.13,-121.66C420.7,-113.86 429.1,-103.88 436.22,-95.42"/>
<polygon fill="black" stroke="black" points="437.71,-96.36 439.59,-91.4 435.04,-94.1 437.71,-96.36"/>
</g>
<!-- 431649 -->
<!-- 4574309328&#45;&gt;431649 -->
<!-- 412321 -->
<!-- 4574309328&#45;&gt;412321 -->
<!-- 4574300880 -->
<g id="node28" class="node">
<title>4574300880</title>
<ellipse fill="lightblue" stroke="black" cx="499" cy="-18" rx="18" ry="18"/>
<text text-anchor="middle" x="499" y="-14.3" font-family="Helvetica,sans-Serif" font-size="14.00">U</text>
</g>
<!-- 4574309328&#45;&gt;4574300880 -->
<g id="edge27" class="edge">
<title>4574309328&#45;&gt;4574300880</title>
<path fill="none" stroke="black" d="M462.13,-62.66C468.7,-54.88 477.1,-44.94 484.22,-36.51"/>
<polygon fill="black" stroke="black" points="485.71,-37.46 487.59,-32.51 483.03,-35.2 485.71,-37.46"/>
</g>
</g>
</svg>
