<?xml version="1.0" encoding="UTF-8" standalone="no"?>
<!DOCTYPE svg PUBLIC "-//W3C//DTD SVG 1.1//EN"
 "http://www.w3.org/Graphics/SVG/1.1/DTD/svg11.dtd">
<!-- Generated by graphviz version 2.50.0 (0)
 -->
<!-- Pages: 1 -->
<svg width="520pt" height="431pt"
 viewBox="0.00 0.00 520.00 431.17" xmlns="http://www.w3.org/2000/svg" xmlns:xlink="http://www.w3.org/1999/xlink">
<g id="graph0" class="graph" transform="scale(1 1) rotate(0) translate(4 427.17)">
<polygon fill="white" stroke="transparent" points="-4,4 -4,-427.17 516,-427.17 516,4 -4,4"/>
<!-- 4574311104 -->
<g id="node1" class="node">
<title>4574311104</title>
<ellipse fill="lightblue" stroke="black" cx="360" cy="-402.38" rx="20.6" ry="20.6"/>
<text text-anchor="middle" x="360" y="-398.68" font-family="Helvetica,sans-Serif" font-size="14.00">24</text>
</g>
<!-- 4574307648 -->
<g id="node2" class="node">
<title>4574307648</title>
<ellipse fill="lightblue" stroke="black" cx="310" cy="-338.78" rx="20.6" ry="20.6"/>
<text text-anchor="middle" x="310" y="-335.08" font-family="Helvetica,sans-Serif" font-size="14.00">16</text>
</g>
<!-- 4574311104&#45;&gt;4574307648 -->
<g id="edge1" class="edge">
<title>4574311104&#45;&gt;4574307648</title>
<path fill="none" stroke="black" d="M347.38,-385.83C340.92,-377.87 332.98,-368.09 326.08,-359.59"/>
<polygon fill="black" stroke="black" points="327.3,-358.31 322.79,-355.53 324.58,-360.52 327.3,-358.31"/>
</g>
<!-- 588278 -->
<!-- 4574311104&#45;&gt;588278 -->
<!-- 4574335088 -->
<g id="node4" class="node">
<title>4574335088</title>
<ellipse fill="lightblue" stroke="black" cx="410" cy="-338.78" rx="20.6" ry="20.6"/>
<text text-anchor="middle" x="410" y="-335.08" font-family="Helvetica,sans-Serif" font-size="14.00">27</text>
</g>
<!-- 4574311104&#45;&gt;4574335088 -->
<g id="edge3" class="edge">
<title>4574311104&#45;&gt;4574335088</title>
<path fill="none" stroke="black" d="M372.62,-385.83C379.08,-377.87 387.02,-368.09 393.92,-359.59"/>
<polygon fill="black" stroke="black" points="395.42,-360.52 397.21,-355.53 392.7,-358.31 395.42,-360.52"/>
</g>
<!-- 4574301744 -->
<g id="node5" class="node">
<title>4574301744</title>
<ellipse fill="lightblue" stroke="black" cx="225" cy="-275.18" rx="20.6" ry="20.6"/>
<text text-anchor="middle" x="225" y="-271.48" font-family="Helvetica,sans-Serif" font-size="14.00">10</text>
</g>
<!-- 4574307648&#45;&gt;4574301744 -->
<g id="edge4" class="edge">
<title>4574307648&#45;&gt;4574301744</title>
<path fill="none" stroke="black" d="M293.61,-325.9C280.06,-316.08 260.72,-302.07 246.03,-291.42"/>
<polygon fill="black" stroke="black" points="246.7,-289.75 241.63,-288.23 244.65,-292.58 246.7,-289.75"/>
</g>
<!-- 166895 -->
<!-- 4574307648&#45;&gt;166895 -->
<!-- 4574311488 -->
<g id="node7" class="node">
<title>4574311488</title>
<ellipse fill="lightblue" stroke="black" cx="396" cy="-275.18" rx="20.6" ry="20.6"/>
<text text-anchor="middle" x="396" y="-271.48" font-family="Helvetica,sans-Serif" font-size="14.00">18</text>
</g>
<!-- 4574307648&#45;&gt;4574311488 -->
<g id="edge6" class="edge">
<title>4574307648&#45;&gt;4574311488</title>
<path fill="none" stroke="black" d="M326.58,-325.9C340.5,-315.93 360.45,-301.64 375.4,-290.94"/>
<polygon fill="black" stroke="black" points="376.42,-292.36 379.47,-288.02 374.39,-289.51 376.42,-292.36"/>
</g>
<!-- 4574331488 -->
<g id="node8" class="node">
<title>4574331488</title>
<ellipse fill="lightblue" stroke="black" cx="114" cy="-211.59" rx="18" ry="18"/>
<text text-anchor="middle" x="114" y="-207.89" font-family="Helvetica,sans-Serif" font-size="14.00">8</text>
</g>
<!-- 4574301744&#45;&gt;4574331488 -->
<g id="edge7" class="edge">
<title>4574301744&#45;&gt;4574331488</title>
<path fill="none" stroke="black" d="M207.17,-264.29C187.22,-253.22 155,-235.34 134.16,-223.77"/>
<polygon fill="black" stroke="black" points="134.86,-222.16 129.64,-221.26 133.16,-225.22 134.86,-222.16"/>
</g>
<!-- 196620 -->
<!-- 4574301744&#45;&gt;196620 -->
<!-- 4574334848 -->
<g id="node10" class="node">
<title>4574334848</title>
<ellipse fill="lightblue" stroke="black" cx="275" cy="-211.59" rx="20.6" ry="20.6"/>
<text text-anchor="middle" x="275" y="-207.89" font-family="Helvetica,sans-Serif" font-size="14.00">11</text>
</g>
<!-- 4574301744&#45;&gt;4574334848 -->
<g id="edge9" class="edge">
<title>4574301744&#45;&gt;4574334848</title>
<path fill="none" stroke="black" d="M237.62,-258.64C244.08,-250.68 252.02,-240.89 258.92,-232.39"/>
<polygon fill="black" stroke="black" points="260.42,-233.32 262.21,-228.34 257.7,-231.12 260.42,-233.32"/>
</g>
<!-- 4574334608 -->
<g id="node26" class="node">
<title>4574334608</title>
<ellipse fill="lightblue" stroke="black" cx="346" cy="-211.59" rx="20.6" ry="20.6"/>
<text text-anchor="middle" x="346" y="-207.89" font-family="Helvetica,sans-Serif" font-size="14.00">17</text>
</g>
<!-- 4574311488&#45;&gt;4574334608 -->
<g id="edge25" class="edge">
<title>4574311488&#45;&gt;4574334608</title>
<path fill="none" stroke="black" d="M383.38,-258.64C376.92,-250.68 368.98,-240.89 362.08,-232.39"/>
<polygon fill="black" stroke="black" points="363.3,-231.12 358.79,-228.34 360.58,-233.32 363.3,-231.12"/>
</g>
<!-- 817687 -->
<!-- 4574311488&#45;&gt;817687 -->
<!-- 4574313984 -->
<g id="node28" class="node">
<title>4574313984</title>
<ellipse fill="lightblue" stroke="black" cx="446" cy="-211.59" rx="20.6" ry="20.6"/>
<text text-anchor="middle" x="446" y="-207.89" font-family="Helvetica,sans-Serif" font-size="14.00">21</text>
</g>
<!-- 4574311488&#45;&gt;4574313984 -->
<g id="edge27" class="edge">
<title>4574311488&#45;&gt;4574313984</title>
<path fill="none" stroke="black" d="M408.62,-258.64C415.08,-250.68 423.02,-240.89 429.92,-232.39"/>
<polygon fill="black" stroke="black" points="431.42,-233.32 433.21,-228.34 428.7,-231.12 431.42,-233.32"/>
</g>
<!-- 4574333312 -->
<g id="node11" class="node">
<title>4574333312</title>
<ellipse fill="lightblue" stroke="black" cx="66" cy="-147.99" rx="18" ry="18"/>
<text text-anchor="middle" x="66" y="-144.29" font-family="Helvetica,sans-Serif" font-size="14.00">2</text>
</g>
<!-- 4574331488&#45;&gt;4574333312 -->
<g id="edge10" class="edge">
<title>4574331488&#45;&gt;4574333312</title>
<path fill="none" stroke="black" d="M103.35,-196.92C96.39,-187.99 87.23,-176.24 79.73,-166.61"/>
<polygon fill="black" stroke="black" points="81.08,-165.49 76.62,-162.62 78.32,-167.64 81.08,-165.49"/>
</g>
<!-- 971348 -->
<!-- 4574331488&#45;&gt;971348 -->
<!-- 315275 -->
<!-- 4574331488&#45;&gt;315275 -->
<!-- 829488 -->
<!-- 4574334848&#45;&gt;829488 -->
<!-- 450379 -->
<!-- 4574334848&#45;&gt;450379 -->
<!-- 4574334032 -->
<g id="node19" class="node">
<title>4574334032</title>
<ellipse fill="lightblue" stroke="black" cx="325" cy="-147.99" rx="20.6" ry="20.6"/>
<text text-anchor="middle" x="325" y="-144.29" font-family="Helvetica,sans-Serif" font-size="14.00">15</text>
</g>
<!-- 4574334848&#45;&gt;4574334032 -->
<g id="edge18" class="edge">
<title>4574334848&#45;&gt;4574334032</title>
<path fill="none" stroke="black" d="M287.62,-195.04C294.08,-187.08 302.02,-177.3 308.92,-168.8"/>
<polygon fill="black" stroke="black" points="310.42,-169.73 312.21,-164.74 307.7,-167.52 310.42,-169.73"/>
</g>
<!-- 198908 -->
<!-- 4574333312&#45;&gt;198908 -->
<!-- 610349 -->
<!-- 4574333312&#45;&gt;610349 -->
<!-- 4574334896 -->
<g id="node16" class="node">
<title>4574334896</title>
<ellipse fill="lightblue" stroke="black" cx="114" cy="-84.39" rx="18" ry="18"/>
<text text-anchor="middle" x="114" y="-80.69" font-family="Helvetica,sans-Serif" font-size="14.00">4</text>
</g>
<!-- 4574333312&#45;&gt;4574334896 -->
<g id="edge15" class="edge">
<title>4574333312&#45;&gt;4574334896</title>
<path fill="none" stroke="black" d="M76.65,-133.32C83.61,-124.39 92.77,-112.64 100.27,-103.01"/>
<polygon fill="black" stroke="black" points="101.68,-104.05 103.38,-99.03 98.92,-101.89 101.68,-104.05"/>
</g>
<!-- 4574331920 -->
<g id="node20" class="node">
<title>4574331920</title>
<ellipse fill="lightblue" stroke="black" cx="275" cy="-84.39" rx="20.6" ry="20.6"/>
<text text-anchor="middle" x="275" y="-80.69" font-family="Helvetica,sans-Serif" font-size="14.00">14</text>
</g>
<!-- 4574334032&#45;&gt;4574331920 -->
<g id="edge19" class="edge">
<title>4574334032&#45;&gt;4574331920</title>
<path fill="none" stroke="black" d="M312.38,-131.45C305.92,-123.48 297.98,-113.7 291.08,-105.2"/>
<polygon fill="black" stroke="black" points="292.3,-103.93 287.79,-101.15 289.58,-106.13 292.3,-103.93"/>
</g>
<!-- 363460 -->
<!-- 4574334032&#45;&gt;363460 -->
<!-- 527592 -->
<!-- 4574334032&#45;&gt;527592 -->
<!-- 4574331728 -->
<g id="node23" class="node">
<title>4574331728</title>
<ellipse fill="lightblue" stroke="black" cx="225" cy="-20.8" rx="20.6" ry="20.6"/>
<text text-anchor="middle" x="225" y="-17.1" font-family="Helvetica,sans-Serif" font-size="14.00">12</text>
</g>
<!-- 4574331920&#45;&gt;4574331728 -->
<g id="edge22" class="edge">
<title>4574331920&#45;&gt;4574331728</title>
<path fill="none" stroke="black" d="M262.38,-67.85C255.92,-59.89 247.98,-50.1 241.08,-41.61"/>
<polygon fill="black" stroke="black" points="242.3,-40.33 237.79,-37.55 239.58,-42.54 242.3,-40.33"/>
</g>
<!-- 890648 -->
<!-- 4574331920&#45;&gt;890648 -->
<!-- 21720 -->
<!-- 4574331920&#45;&gt;21720 -->
<!-- 4574334704 -->
<g id="node29" class="node">
<title>4574334704</title>
<ellipse fill="lightblue" stroke="black" cx="396" cy="-147.99" rx="20.6" ry="20.6"/>
<text text-anchor="middle" x="396" y="-144.29" font-family="Helvetica,sans-Serif" font-size="14.00">20</text>
</g>
<!-- 4574313984&#45;&gt;4574334704 -->
<g id="edge28" class="edge">
<title>4574313984&#45;&gt;4574334704</title>
<path fill="none" stroke="black" d="M433.38,-195.04C426.92,-187.08 418.98,-177.3 412.08,-168.8"/>
<polygon fill="black" stroke="black" points="413.3,-167.52 408.79,-164.74 410.58,-169.73 413.3,-167.52"/>
</g>
<!-- 919464 -->
<!-- 4574313984&#45;&gt;919464 -->
<!-- 408387 -->
<!-- 4574313984&#45;&gt;408387 -->
</g>
</svg>
