<?xml version="1.0" encoding="UTF-8" standalone="no"?>
<!DOCTYPE svg PUBLIC "-//W3C//DTD SVG 1.1//EN"
 "http://www.w3.org/Graphics/SVG/1.1/DTD/svg11.dtd">
<!-- Generated by graphviz version 2.50.0 (0)
 -->
<!-- Pages: 1 -->
<svg width="415pt" height="300pt"
 viewBox="0.00 0.00 415.20 299.69" xmlns="http://www.w3.org/2000/svg" xmlns:xlink="http://www.w3.org/1999/xlink">
<g id="graph0" class="graph" transform="scale(1 1) rotate(0) translate(4 295.69)">
<polygon fill="white" stroke="transparent" points="-4,4 -4,-295.69 411.2,-295.69 411.2,4 -4,4"/>
<!-- 4627591776 -->
<g id="node1" class="node">
<title>4627591776</title>
<ellipse fill="lightblue" stroke="black" cx="253.4" cy="-270.89" rx="20.6" ry="20.6"/>
<text text-anchor="middle" x="253.4" y="-267.19" font-family="Helvetica,sans-Serif" font-size="14.00">18</text>
</g>
<!-- 4628148016 -->
<g id="node2" class="node">
<title>4628148016</title>
<ellipse fill="lightblue" stroke="black" cx="205.4" cy="-210.09" rx="18" ry="18"/>
<text text-anchor="middle" x="205.4" y="-206.39" font-family="Helvetica,sans-Serif" font-size="14.00">4</text>
</g>
<!-- 4627591776&#45;&gt;4628148016 -->
<g id="edge1" class="edge">
<title>4627591776&#45;&gt;4628148016</title>
<path fill="none" stroke="black" d="M240.53,-254.13C234.16,-246.32 226.44,-236.87 219.86,-228.81"/>
<polygon fill="black" stroke="black" points="220.86,-227.26 216.34,-224.5 218.15,-229.48 220.86,-227.26"/>
</g>
<!-- 374111 -->
<!-- 4627591776&#45;&gt;374111 -->
<!-- 860577 -->
<!-- 4627591776&#45;&gt;860577 -->
<!-- 4628144704 -->
<g id="node5" class="node">
<title>4628144704</title>
<ellipse fill="lightblue" stroke="black" cx="124.4" cy="-151.24" rx="18.7" ry="18.7"/>
<text text-anchor="middle" x="124.4" y="-147.54" font-family="Helvetica,sans-Serif" font-size="14.00">&#45;4</text>
</g>
<!-- 4628148016&#45;&gt;4628144704 -->
<g id="edge4" class="edge">
<title>4628148016&#45;&gt;4628144704</title>
<path fill="none" stroke="black" d="M190.92,-198.93C177.8,-189.72 158.38,-176.09 143.9,-165.93"/>
<polygon fill="black" stroke="black" points="144.68,-164.33 139.58,-162.89 142.67,-167.2 144.68,-164.33"/>
</g>
<!-- 211850 -->
<!-- 4628148016&#45;&gt;211850 -->
<!-- 4628141296 -->
<g id="node7" class="node">
<title>4628141296</title>
<ellipse fill="lightblue" stroke="black" cx="286.4" cy="-151.24" rx="18" ry="18"/>
<text text-anchor="middle" x="286.4" y="-147.54" font-family="Helvetica,sans-Serif" font-size="14.00">5</text>
</g>
<!-- 4628148016&#45;&gt;4628141296 -->
<g id="edge6" class="edge">
<title>4628148016&#45;&gt;4628141296</title>
<path fill="none" stroke="black" d="M219.88,-198.93C233.24,-189.55 253.15,-175.57 267.71,-165.36"/>
<polygon fill="black" stroke="black" points="268.95,-166.62 272.04,-162.32 266.94,-163.76 268.95,-166.62"/>
</g>
<!-- 4628145856 -->
<g id="node8" class="node">
<title>4628145856</title>
<ellipse fill="lightblue" stroke="black" cx="76.4" cy="-89.59" rx="18.7" ry="18.7"/>
<text text-anchor="middle" x="76.4" y="-85.89" font-family="Helvetica,sans-Serif" font-size="14.00">&#45;9</text>
</g>
<!-- 4628144704&#45;&gt;4628145856 -->
<g id="edge7" class="edge">
<title>4628144704&#45;&gt;4628145856</title>
<path fill="none" stroke="black" d="M113.02,-136.11C106.54,-128.05 98.35,-117.87 91.35,-109.17"/>
<polygon fill="black" stroke="black" points="92.52,-107.84 88.03,-105.04 89.8,-110.03 92.52,-107.84"/>
</g>
<!-- 109526 -->
<!-- 4628144704&#45;&gt;109526 -->
<!-- 4628149552 -->
<g id="node10" class="node">
<title>4628149552</title>
<ellipse fill="lightblue" stroke="black" cx="172.4" cy="-89.59" rx="18.7" ry="18.7"/>
<text text-anchor="middle" x="172.4" y="-85.89" font-family="Helvetica,sans-Serif" font-size="14.00">&#45;3</text>
</g>
<!-- 4628144704&#45;&gt;4628149552 -->
<g id="edge9" class="edge">
<title>4628144704&#45;&gt;4628149552</title>
<path fill="none" stroke="black" d="M135.77,-136.11C142.25,-128.05 150.45,-117.87 157.45,-109.17"/>
<polygon fill="black" stroke="black" points="159,-110.03 160.77,-105.04 156.27,-107.84 159,-110.03"/>
</g>
<!-- 308938 -->
<!-- 4628141296&#45;&gt;308938 -->
<!-- 224134 -->
<!-- 4628141296&#45;&gt;224134 -->
<!-- 4628141152 -->
<g id="node16" class="node">
<title>4628141152</title>
<ellipse fill="lightblue" stroke="black" cx="336.4" cy="-89.59" rx="20.6" ry="20.6"/>
<text text-anchor="middle" x="336.4" y="-85.89" font-family="Helvetica,sans-Serif" font-size="14.00">13</text>
</g>
<!-- 4628141296&#45;&gt;4628141152 -->
<g id="edge15" class="edge">
<title>4628141296&#45;&gt;4628141152</title>
<path fill="none" stroke="black" d="M297.49,-137C304.02,-129.22 312.4,-119.22 319.71,-110.5"/>
<polygon fill="black" stroke="black" points="321.33,-111.29 323.2,-106.33 318.65,-109.04 321.33,-111.29"/>
</g>
<!-- 4628151328 -->
<g id="node11" class="node">
<title>4628151328</title>
<ellipse fill="lightblue" stroke="black" cx="23.4" cy="-23.4" rx="23.3" ry="23.3"/>
<text text-anchor="middle" x="23.4" y="-19.7" font-family="Helvetica,sans-Serif" font-size="14.00">&#45;18</text>
</g>
<!-- 4628145856&#45;&gt;4628151328 -->
<g id="edge10" class="edge">
<title>4628145856&#45;&gt;4628151328</title>
<path fill="none" stroke="black" d="M64.64,-74.35C57.8,-66.07 49.06,-55.48 41.38,-46.18"/>
<polygon fill="black" stroke="black" points="42.69,-45.02 38.16,-42.28 40,-47.25 42.69,-45.02"/>
</g>
<!-- 258851 -->
<!-- 4628145856&#45;&gt;258851 -->
<!-- 4628140912 -->
<g id="node13" class="node">
<title>4628140912</title>
<ellipse fill="lightblue" stroke="black" cx="124.4" cy="-23.4" rx="18.7" ry="18.7"/>
<text text-anchor="middle" x="124.4" y="-19.7" font-family="Helvetica,sans-Serif" font-size="14.00">&#45;7</text>
</g>
<!-- 4628145856&#45;&gt;4628140912 -->
<g id="edge12" class="edge">
<title>4628145856&#45;&gt;4628140912</title>
<path fill="none" stroke="black" d="M87.29,-74.03C94.16,-64.83 103.11,-52.87 110.49,-43"/>
<polygon fill="black" stroke="black" points="111.96,-43.96 113.55,-38.91 109.15,-41.86 111.96,-43.96"/>
</g>
<!-- 419341 -->
<!-- 4628141152&#45;&gt;419341 -->
<!-- 708858 -->
<!-- 4628141152&#45;&gt;708858 -->
<!-- 4628138032 -->
<g id="node19" class="node">
<title>4628138032</title>
<ellipse fill="lightblue" stroke="black" cx="386.4" cy="-23.4" rx="20.6" ry="20.6"/>
<text text-anchor="middle" x="386.4" y="-19.7" font-family="Helvetica,sans-Serif" font-size="14.00">16</text>
</g>
<!-- 4628141152&#45;&gt;4628138032 -->
<g id="edge18" class="edge">
<title>4628141152&#45;&gt;4628138032</title>
<path fill="none" stroke="black" d="M348.76,-72.73C355.32,-64.3 363.46,-53.85 370.48,-44.83"/>
<polygon fill="black" stroke="black" points="372.14,-45.55 373.83,-40.53 369.38,-43.4 372.14,-45.55"/>
</g>
</g>
</svg>
