<?xml version="1.0" encoding="UTF-8" standalone="no"?>
<!DOCTYPE svg PUBLIC "-//W3C//DTD SVG 1.1//EN"
 "http://www.w3.org/Graphics/SVG/1.1/DTD/svg11.dtd">
<!-- Generated by graphviz version 2.50.0 (0)
 -->
<!-- Pages: 1 -->
<svg width="430pt" height="397pt"
 viewBox="0.00 0.00 430.00 397.09" xmlns="http://www.w3.org/2000/svg" xmlns:xlink="http://www.w3.org/1999/xlink">
<g id="graph0" class="graph" transform="scale(1 1) rotate(0) translate(4 393.09)">
<polygon fill="white" stroke="transparent" points="-4,4 -4,-393.09 426,-393.09 426,4 -4,4"/>
<!-- 4574345216 -->
<g id="node1" class="node">
<title>4574345216</title>
<ellipse fill="lightblue" stroke="black" cx="194" cy="-371.09" rx="18" ry="18"/>
<text text-anchor="middle" x="194" y="-367.39" font-family="Helvetica,sans-Serif" font-size="14.00">I</text>
</g>
<!-- 4574347232 -->
<g id="node2" class="node">
<title>4574347232</title>
<ellipse fill="lightblue" stroke="black" cx="114" cy="-313.09" rx="18" ry="18"/>
<text text-anchor="middle" x="114" y="-309.39" font-family="Helvetica,sans-Serif" font-size="14.00">E</text>
</g>
<!-- 4574345216&#45;&gt;4574347232 -->
<g id="edge1" class="edge">
<title>4574345216&#45;&gt;4574347232</title>
<path fill="none" stroke="black" d="M179.7,-360.08C166.58,-350.9 147.08,-337.24 132.72,-327.2"/>
<polygon fill="black" stroke="black" points="133.55,-325.64 128.45,-324.2 131.54,-328.5 133.55,-325.64"/>
</g>
<!-- 612387 -->
<!-- 4574345216&#45;&gt;612387 -->
<!-- 4574341952 -->
<g id="node4" class="node">
<title>4574341952</title>
<ellipse fill="lightblue" stroke="black" cx="275" cy="-313.09" rx="18" ry="18"/>
<text text-anchor="middle" x="275" y="-309.39" font-family="Helvetica,sans-Serif" font-size="14.00">Y</text>
</g>
<!-- 4574345216&#45;&gt;4574341952 -->
<g id="edge3" class="edge">
<title>4574345216&#45;&gt;4574341952</title>
<path fill="none" stroke="black" d="M208.48,-360.08C221.84,-350.84 241.76,-337.07 256.31,-327.01"/>
<polygon fill="black" stroke="black" points="257.53,-328.3 260.64,-324.01 255.54,-325.42 257.53,-328.3"/>
</g>
<!-- 4574312352 -->
<g id="node5" class="node">
<title>4574312352</title>
<ellipse fill="lightblue" stroke="black" cx="66" cy="-254.89" rx="18" ry="18"/>
<text text-anchor="middle" x="66" y="-251.19" font-family="Helvetica,sans-Serif" font-size="14.00">D</text>
</g>
<!-- 4574347232&#45;&gt;4574312352 -->
<g id="edge4" class="edge">
<title>4574347232&#45;&gt;4574312352</title>
<path fill="none" stroke="black" d="M102.62,-298.77C96.05,-291.07 87.71,-281.3 80.64,-273.04"/>
<polygon fill="black" stroke="black" points="81.87,-271.78 77.29,-269.11 79.21,-274.05 81.87,-271.78"/>
</g>
<!-- 643195 -->
<!-- 4574347232&#45;&gt;643195 -->
<!-- 4574313792 -->
<g id="node7" class="node">
<title>4574313792</title>
<ellipse fill="lightblue" stroke="black" cx="162" cy="-254.89" rx="18.4" ry="18.4"/>
<text text-anchor="middle" x="162" y="-251.19" font-family="Helvetica,sans-Serif" font-size="14.00">G</text>
</g>
<!-- 4574347232&#45;&gt;4574313792 -->
<g id="edge6" class="edge">
<title>4574347232&#45;&gt;4574313792</title>
<path fill="none" stroke="black" d="M125.38,-298.77C131.86,-291.18 140.05,-281.59 147.05,-273.4"/>
<polygon fill="black" stroke="black" points="148.46,-274.44 150.37,-269.5 145.79,-272.17 148.46,-274.44"/>
</g>
<!-- 4574338304 -->
<g id="node11" class="node">
<title>4574338304</title>
<ellipse fill="lightblue" stroke="black" cx="227" cy="-254.89" rx="18" ry="18"/>
<text text-anchor="middle" x="227" y="-251.19" font-family="Helvetica,sans-Serif" font-size="14.00">K</text>
</g>
<!-- 4574341952&#45;&gt;4574338304 -->
<g id="edge10" class="edge">
<title>4574341952&#45;&gt;4574338304</title>
<path fill="none" stroke="black" d="M263.62,-298.77C257.05,-291.07 248.71,-281.3 241.64,-273.04"/>
<polygon fill="black" stroke="black" points="242.87,-271.78 238.29,-269.11 240.21,-274.05 242.87,-271.78"/>
</g>
<!-- 137724 -->
<!-- 4574341952&#45;&gt;137724 -->
<!-- 403528 -->
<!-- 4574341952&#45;&gt;403528 -->
<!-- 4574310624 -->
<g id="node8" class="node">
<title>4574310624</title>
<ellipse fill="lightblue" stroke="black" cx="18" cy="-196.69" rx="18" ry="18"/>
<text text-anchor="middle" x="18" y="-192.99" font-family="Helvetica,sans-Serif" font-size="14.00">A</text>
</g>
<!-- 4574312352&#45;&gt;4574310624 -->
<g id="edge7" class="edge">
<title>4574312352&#45;&gt;4574310624</title>
<path fill="none" stroke="black" d="M54.62,-240.57C48.05,-232.87 39.71,-223.11 32.64,-214.84"/>
<polygon fill="black" stroke="black" points="33.87,-213.58 29.29,-210.92 31.21,-215.85 33.87,-213.58"/>
</g>
<!-- 223399 -->
<!-- 4574312352&#45;&gt;223399 -->
<!-- 108794 -->
<!-- 4574312352&#45;&gt;108794 -->
<!-- 513264 -->
<!-- 4574338304&#45;&gt;513264 -->
<!-- 343466 -->
<!-- 4574338304&#45;&gt;343466 -->
<!-- 4574343104 -->
<g id="node16" class="node">
<title>4574343104</title>
<ellipse fill="lightblue" stroke="black" cx="275" cy="-196.69" rx="18" ry="18"/>
<text text-anchor="middle" x="275" y="-192.99" font-family="Helvetica,sans-Serif" font-size="14.00">V</text>
</g>
<!-- 4574338304&#45;&gt;4574343104 -->
<g id="edge15" class="edge">
<title>4574338304&#45;&gt;4574343104</title>
<path fill="none" stroke="black" d="M238.38,-240.57C244.95,-232.87 253.29,-223.11 260.36,-214.84"/>
<polygon fill="black" stroke="black" points="261.79,-215.85 263.71,-210.92 259.13,-213.58 261.79,-215.85"/>
</g>
<!-- 4574339024 -->
<g id="node17" class="node">
<title>4574339024</title>
<ellipse fill="lightblue" stroke="black" cx="195" cy="-137.19" rx="18" ry="18"/>
<text text-anchor="middle" x="195" y="-133.49" font-family="Helvetica,sans-Serif" font-size="14.00">P</text>
</g>
<!-- 4574343104&#45;&gt;4574339024 -->
<g id="edge16" class="edge">
<title>4574343104&#45;&gt;4574339024</title>
<path fill="none" stroke="black" d="M260.7,-185.41C247.5,-175.93 227.83,-161.79 213.46,-151.46"/>
<polygon fill="black" stroke="black" points="214.26,-149.88 209.18,-148.39 212.22,-152.72 214.26,-149.88"/>
</g>
<!-- 664545 -->
<!-- 4574343104&#45;&gt;664545 -->
<!-- 4574346608 -->
<g id="node19" class="node">
<title>4574346608</title>
<ellipse fill="lightblue" stroke="black" cx="356" cy="-137.19" rx="19.5" ry="19.5"/>
<text text-anchor="middle" x="356" y="-133.49" font-family="Helvetica,sans-Serif" font-size="14.00">W</text>
</g>
<!-- 4574343104&#45;&gt;4574346608 -->
<g id="edge18" class="edge">
<title>4574343104&#45;&gt;4574346608</title>
<path fill="none" stroke="black" d="M289.48,-185.41C302.51,-176.16 321.78,-162.49 336.22,-152.23"/>
<polygon fill="black" stroke="black" points="337.48,-153.49 340.54,-149.17 335.45,-150.64 337.48,-153.49"/>
</g>
<!-- 4574337104 -->
<g id="node20" class="node">
<title>4574337104</title>
<ellipse fill="lightblue" stroke="black" cx="82" cy="-77.7" rx="18" ry="18"/>
<text text-anchor="middle" x="82" y="-74" font-family="Helvetica,sans-Serif" font-size="14.00">N</text>
</g>
<!-- 4574339024&#45;&gt;4574337104 -->
<g id="edge19" class="edge">
<title>4574339024&#45;&gt;4574337104</title>
<path fill="none" stroke="black" d="M179.29,-128.2C159.25,-118 124.54,-100.34 102.45,-89.1"/>
<polygon fill="black" stroke="black" points="103.19,-87.52 97.94,-86.81 101.61,-90.64 103.19,-87.52"/>
</g>
<!-- 364408 -->
<!-- 4574339024&#45;&gt;364408 -->
<!-- 4574345648 -->
<g id="node22" class="node">
<title>4574345648</title>
<ellipse fill="lightblue" stroke="black" cx="243" cy="-77.7" rx="18" ry="18"/>
<text text-anchor="middle" x="243" y="-74" font-family="Helvetica,sans-Serif" font-size="14.00">U</text>
</g>
<!-- 4574339024&#45;&gt;4574345648 -->
<g id="edge21" class="edge">
<title>4574339024&#45;&gt;4574345648</title>
<path fill="none" stroke="black" d="M206.13,-122.86C212.8,-114.88 221.34,-104.64 228.52,-96.04"/>
<polygon fill="black" stroke="black" points="230.07,-96.92 231.93,-91.96 227.38,-94.68 230.07,-96.92"/>
</g>
<!-- 420929 -->
<!-- 4574346608&#45;&gt;420929 -->
<!-- 198914 -->
<!-- 4574346608&#45;&gt;198914 -->
<!-- 4574312640 -->
<g id="node31" class="node">
<title>4574312640</title>
<ellipse fill="lightblue" stroke="black" cx="404" cy="-77.7" rx="18" ry="18"/>
<text text-anchor="middle" x="404" y="-74" font-family="Helvetica,sans-Serif" font-size="14.00">X</text>
</g>
<!-- 4574346608&#45;&gt;4574312640 -->
<g id="edge30" class="edge">
<title>4574346608&#45;&gt;4574312640</title>
<path fill="none" stroke="black" d="M368.11,-121.69C374.6,-113.91 382.65,-104.27 389.47,-96.1"/>
<polygon fill="black" stroke="black" points="390.85,-97.17 392.72,-92.21 388.17,-94.93 390.85,-97.17"/>
</g>
<!-- 4574301024 -->
<g id="node23" class="node">
<title>4574301024</title>
<ellipse fill="lightblue" stroke="black" cx="34" cy="-18.85" rx="18.7" ry="18.7"/>
<text text-anchor="middle" x="34" y="-15.15" font-family="Helvetica,sans-Serif" font-size="14.00">M</text>
</g>
<!-- 4574337104&#45;&gt;4574301024 -->
<g id="edge22" class="edge">
<title>4574337104&#45;&gt;4574301024</title>
<path fill="none" stroke="black" d="M70.87,-63.51C64.39,-55.84 56.15,-46.08 49.09,-37.73"/>
<polygon fill="black" stroke="black" points="50.3,-36.45 45.74,-33.75 47.63,-38.7 50.3,-36.45"/>
</g>
<!-- 896983 -->
<!-- 4574337104&#45;&gt;896983 -->
<!-- 394535 -->
<!-- 4574337104&#45;&gt;394535 -->
<!-- 4574306064 -->
<g id="node26" class="node">
<title>4574306064</title>
<ellipse fill="lightblue" stroke="black" cx="195" cy="-18.85" rx="18" ry="18"/>
<text text-anchor="middle" x="195" y="-15.15" font-family="Helvetica,sans-Serif" font-size="14.00">S</text>
</g>
<!-- 4574345648&#45;&gt;4574306064 -->
<g id="edge25" class="edge">
<title>4574345648&#45;&gt;4574306064</title>
<path fill="none" stroke="black" d="M231.87,-63.51C225.3,-55.73 216.9,-45.79 209.78,-37.36"/>
<polygon fill="black" stroke="black" points="210.97,-36.05 206.41,-33.36 208.29,-38.31 210.97,-36.05"/>
</g>
<!-- 421254 -->
<!-- 4574345648&#45;&gt;421254 -->
<!-- 958746 -->
<!-- 4574345648&#45;&gt;958746 -->
</g>
</svg>
