<?xml version="1.0" encoding="UTF-8" standalone="no"?>
<!DOCTYPE svg PUBLIC "-//W3C//DTD SVG 1.1//EN"
 "http://www.w3.org/Graphics/SVG/1.1/DTD/svg11.dtd">
<!-- Generated by graphviz version 2.50.0 (0)
 -->
<!-- Pages: 1 -->
<svg width="654pt" height="394pt"
 viewBox="0.00 0.00 654.00 394.49" xmlns="http://www.w3.org/2000/svg" xmlns:xlink="http://www.w3.org/1999/xlink">
<g id="graph0" class="graph" transform="scale(1 1) rotate(0) translate(4 390.49)">
<polygon fill="white" stroke="transparent" points="-4,4 -4,-390.49 650,-390.49 650,4 -4,4"/>
<!-- 4573817280 -->
<g id="node1" class="node">
<title>4573817280</title>
<ellipse fill="lightblue" stroke="black" cx="355" cy="-368.49" rx="18" ry="18"/>
<text text-anchor="middle" x="355" y="-364.79" font-family="Helvetica,sans-Serif" font-size="14.00">A</text>
</g>
<!-- 401067 -->
<!-- 4573817280&#45;&gt;401067 -->
<!-- 186476 -->
<!-- 4573817280&#45;&gt;186476 -->
<!-- 4573820688 -->
<g id="node4" class="node">
<title>4573820688</title>
<ellipse fill="lightblue" stroke="black" cx="403" cy="-310.29" rx="18.4" ry="18.4"/>
<text text-anchor="middle" x="403" y="-306.59" font-family="Helvetica,sans-Serif" font-size="14.00">Q</text>
</g>
<!-- 4573817280&#45;&gt;4573820688 -->
<g id="edge3" class="edge">
<title>4573817280&#45;&gt;4573820688</title>
<path fill="none" stroke="black" d="M366.38,-354.17C372.86,-346.58 381.05,-336.99 388.05,-328.8"/>
<polygon fill="black" stroke="black" points="389.46,-329.84 391.37,-324.9 386.79,-327.57 389.46,-329.84"/>
</g>
<!-- 4574310672 -->
<g id="node5" class="node">
<title>4574310672</title>
<ellipse fill="lightblue" stroke="black" cx="227" cy="-252.09" rx="18" ry="18"/>
<text text-anchor="middle" x="227" y="-248.39" font-family="Helvetica,sans-Serif" font-size="14.00">L</text>
</g>
<!-- 4573820688&#45;&gt;4574310672 -->
<g id="edge4" class="edge">
<title>4573820688&#45;&gt;4574310672</title>
<path fill="none" stroke="black" d="M385.8,-303.8C353.65,-293.53 284.48,-271.45 248.99,-260.12"/>
<polygon fill="black" stroke="black" points="249.3,-258.38 244.01,-258.52 248.24,-261.71 249.3,-258.38"/>
</g>
<!-- 329425 -->
<!-- 4573820688&#45;&gt;329425 -->
<!-- 4573817664 -->
<g id="node7" class="node">
<title>4573817664</title>
<ellipse fill="lightblue" stroke="black" cx="580" cy="-252.09" rx="18" ry="18"/>
<text text-anchor="middle" x="580" y="-248.39" font-family="Helvetica,sans-Serif" font-size="14.00">Y</text>
</g>
<!-- 4573820688&#45;&gt;4573817664 -->
<g id="edge6" class="edge">
<title>4573820688&#45;&gt;4573817664</title>
<path fill="none" stroke="black" d="M420.29,-303.8C452.71,-293.51 522.55,-271.33 558.16,-260.03"/>
<polygon fill="black" stroke="black" points="558.92,-261.62 563.16,-258.44 557.86,-258.29 558.92,-261.62"/>
</g>
<!-- 4574307408 -->
<g id="node8" class="node">
<title>4574307408</title>
<ellipse fill="lightblue" stroke="black" cx="114" cy="-193.25" rx="18" ry="18"/>
<text text-anchor="middle" x="114" y="-189.55" font-family="Helvetica,sans-Serif" font-size="14.00">K</text>
</g>
<!-- 4574310672&#45;&gt;4574307408 -->
<g id="edge7" class="edge">
<title>4574310672&#45;&gt;4574307408</title>
<path fill="none" stroke="black" d="M211.29,-243.19C191.25,-233.11 156.54,-215.65 134.45,-204.54"/>
<polygon fill="black" stroke="black" points="135.2,-202.95 129.94,-202.27 133.62,-206.08 135.2,-202.95"/>
</g>
<!-- 366166 -->
<!-- 4574310672&#45;&gt;366166 -->
<!-- 4574311152 -->
<g id="node10" class="node">
<title>4574311152</title>
<ellipse fill="lightblue" stroke="black" cx="275" cy="-193.25" rx="18.7" ry="18.7"/>
<text text-anchor="middle" x="275" y="-189.55" font-family="Helvetica,sans-Serif" font-size="14.00">M</text>
</g>
<!-- 4574310672&#45;&gt;4574311152 -->
<g id="edge9" class="edge">
<title>4574310672&#45;&gt;4574311152</title>
<path fill="none" stroke="black" d="M238.13,-237.91C244.61,-230.24 252.85,-220.47 259.91,-212.12"/>
<polygon fill="black" stroke="black" points="261.37,-213.1 263.26,-208.15 258.7,-210.84 261.37,-213.1"/>
</g>
<!-- 4574301312 -->
<g id="node26" class="node">
<title>4574301312</title>
<ellipse fill="lightblue" stroke="black" cx="532" cy="-193.25" rx="18" ry="18"/>
<text text-anchor="middle" x="532" y="-189.55" font-family="Helvetica,sans-Serif" font-size="14.00">T</text>
</g>
<!-- 4573817664&#45;&gt;4574301312 -->
<g id="edge25" class="edge">
<title>4573817664&#45;&gt;4574301312</title>
<path fill="none" stroke="black" d="M568.87,-237.91C562.3,-230.13 553.9,-220.19 546.78,-211.76"/>
<polygon fill="black" stroke="black" points="547.97,-210.44 543.41,-207.75 545.29,-212.7 547.97,-210.44"/>
</g>
<!-- 727130 -->
<!-- 4573817664&#45;&gt;727130 -->
<!-- 868502 -->
<!-- 4573817664&#45;&gt;868502 -->
<!-- 4574307648 -->
<g id="node11" class="node">
<title>4574307648</title>
<ellipse fill="lightblue" stroke="black" cx="66" cy="-134.4" rx="18" ry="18"/>
<text text-anchor="middle" x="66" y="-130.7" font-family="Helvetica,sans-Serif" font-size="14.00">H</text>
</g>
<!-- 4574307408&#45;&gt;4574307648 -->
<g id="edge10" class="edge">
<title>4574307408&#45;&gt;4574307648</title>
<path fill="none" stroke="black" d="M102.87,-179.06C96.3,-171.28 87.9,-161.34 80.78,-152.91"/>
<polygon fill="black" stroke="black" points="81.97,-151.6 77.41,-148.91 79.29,-153.85 81.97,-151.6"/>
</g>
<!-- 296958 -->
<!-- 4574307408&#45;&gt;296958 -->
<!-- 34159 -->
<!-- 4574307408&#45;&gt;34159 -->
<!-- 977646 -->
<!-- 4574311152&#45;&gt;977646 -->
<!-- 407415 -->
<!-- 4574311152&#45;&gt;407415 -->
<!-- 4574312112 -->
<g id="node22" class="node">
<title>4574312112</title>
<ellipse fill="lightblue" stroke="black" cx="323" cy="-134.4" rx="18" ry="18"/>
<text text-anchor="middle" x="323" y="-130.7" font-family="Helvetica,sans-Serif" font-size="14.00">P</text>
</g>
<!-- 4574311152&#45;&gt;4574312112 -->
<g id="edge21" class="edge">
<title>4574311152&#45;&gt;4574312112</title>
<path fill="none" stroke="black" d="M286.87,-178.19C293.35,-170.51 301.45,-160.92 308.33,-152.77"/>
<polygon fill="black" stroke="black" points="309.71,-153.85 311.6,-148.9 307.04,-151.59 309.71,-153.85"/>
</g>
<!-- 4574314224 -->
<g id="node14" class="node">
<title>4574314224</title>
<ellipse fill="lightblue" stroke="black" cx="18" cy="-76.2" rx="18" ry="18"/>
<text text-anchor="middle" x="18" y="-72.5" font-family="Helvetica,sans-Serif" font-size="14.00">B</text>
</g>
<!-- 4574307648&#45;&gt;4574314224 -->
<g id="edge13" class="edge">
<title>4574307648&#45;&gt;4574314224</title>
<path fill="none" stroke="black" d="M54.62,-120.08C48.05,-112.38 39.71,-102.61 32.64,-94.34"/>
<polygon fill="black" stroke="black" points="33.87,-93.09 29.29,-90.42 31.21,-95.36 33.87,-93.09"/>
</g>
<!-- 787378 -->
<!-- 4574307648&#45;&gt;787378 -->
<!-- 4574302944 -->
<g id="node16" class="node">
<title>4574302944</title>
<ellipse fill="lightblue" stroke="black" cx="114" cy="-76.2" rx="18" ry="18"/>
<text text-anchor="middle" x="114" y="-72.5" font-family="Helvetica,sans-Serif" font-size="14.00">J</text>
</g>
<!-- 4574307648&#45;&gt;4574302944 -->
<g id="edge15" class="edge">
<title>4574307648&#45;&gt;4574302944</title>
<path fill="none" stroke="black" d="M77.38,-120.08C83.95,-112.38 92.29,-102.61 99.36,-94.34"/>
<polygon fill="black" stroke="black" points="100.79,-95.36 102.71,-90.42 98.13,-93.09 100.79,-95.36"/>
</g>
<!-- 4574302224 -->
<g id="node17" class="node">
<title>4574302224</title>
<ellipse fill="lightblue" stroke="black" cx="66" cy="-18" rx="18" ry="18"/>
<text text-anchor="middle" x="66" y="-14.3" font-family="Helvetica,sans-Serif" font-size="14.00">I</text>
</g>
<!-- 4574302944&#45;&gt;4574302224 -->
<g id="edge16" class="edge">
<title>4574302944&#45;&gt;4574302224</title>
<path fill="none" stroke="black" d="M102.62,-61.88C96.05,-54.18 87.71,-44.41 80.64,-36.15"/>
<polygon fill="black" stroke="black" points="81.87,-34.89 77.29,-32.22 79.21,-37.16 81.87,-34.89"/>
</g>
<!-- 397672 -->
<!-- 4574302944&#45;&gt;397672 -->
<!-- 396834 -->
<!-- 4574302944&#45;&gt;396834 -->
<!-- 4574311056 -->
<g id="node23" class="node">
<title>4574311056</title>
<ellipse fill="lightblue" stroke="black" cx="275" cy="-76.2" rx="18.4" ry="18.4"/>
<text text-anchor="middle" x="275" y="-72.5" font-family="Helvetica,sans-Serif" font-size="14.00">O</text>
</g>
<!-- 4574312112&#45;&gt;4574311056 -->
<g id="edge22" class="edge">
<title>4574312112&#45;&gt;4574311056</title>
<path fill="none" stroke="black" d="M311.62,-120.08C305.14,-112.49 296.95,-102.89 289.95,-94.7"/>
<polygon fill="black" stroke="black" points="291.21,-93.48 286.63,-90.81 288.54,-95.75 291.21,-93.48"/>
</g>
<!-- 451193 -->
<!-- 4574312112&#45;&gt;451193 -->
<!-- 337655 -->
<!-- 4574312112&#45;&gt;337655 -->
<!-- 4574309328 -->
<g id="node29" class="node">
<title>4574309328</title>
<ellipse fill="lightblue" stroke="black" cx="484" cy="-134.4" rx="18" ry="18"/>
<text text-anchor="middle" x="484" y="-130.7" font-family="Helvetica,sans-Serif" font-size="14.00">S</text>
</g>
<!-- 4574301312&#45;&gt;4574309328 -->
<g id="edge28" class="edge">
<title>4574301312&#45;&gt;4574309328</title>
<path fill="none" stroke="black" d="M520.87,-179.06C514.3,-171.28 505.9,-161.34 498.78,-152.91"/>
<polygon fill="black" stroke="black" points="499.97,-151.6 495.41,-148.91 497.29,-153.85 499.97,-151.6"/>
</g>
<!-- 234567 -->
<!-- 4574301312&#45;&gt;234567 -->
<!-- 307007 -->
<!-- 4574301312&#45;&gt;307007 -->
<!-- 4574312592 -->
<g id="node32" class="node">
<title>4574312592</title>
<ellipse fill="lightblue" stroke="black" cx="436" cy="-76.2" rx="18" ry="18"/>
<text text-anchor="middle" x="436" y="-72.5" font-family="Helvetica,sans-Serif" font-size="14.00">R</text>
</g>
<!-- 4574309328&#45;&gt;4574312592 -->
<g id="edge31" class="edge">
<title>4574309328&#45;&gt;4574312592</title>
<path fill="none" stroke="black" d="M472.62,-120.08C466.05,-112.38 457.71,-102.61 450.64,-94.34"/>
<polygon fill="black" stroke="black" points="451.87,-93.09 447.29,-90.42 449.21,-95.36 451.87,-93.09"/>
</g>
<!-- 349831 -->
<!-- 4574309328&#45;&gt;349831 -->
<!-- 467956 -->
<!-- 4574309328&#45;&gt;467956 -->
</g>
</svg>
