<?xml version="1.0" encoding="UTF-8" standalone="no"?>
<!DOCTYPE svg PUBLIC "-//W3C//DTD SVG 1.1//EN"
 "http://www.w3.org/Graphics/SVG/1.1/DTD/svg11.dtd">
<!-- Generated by graphviz version 2.50.0 (0)
 -->
<!-- Pages: 1 -->
<svg width="526pt" height="279pt"
 viewBox="0.00 0.00 526.00 279.39" xmlns="http://www.w3.org/2000/svg" xmlns:xlink="http://www.w3.org/1999/xlink">
<g id="graph0" class="graph" transform="scale(1 1) rotate(0) translate(4 275.39)">
<polygon fill="white" stroke="transparent" points="-4,4 -4,-275.39 522,-275.39 522,4 -4,4"/>
<!-- 4634652704 -->
<g id="node1" class="node">
<title>4634652704</title>
<ellipse fill="lightblue" stroke="black" cx="242" cy="-253.39" rx="18" ry="18"/>
<text text-anchor="middle" x="242" y="-249.69" font-family="Helvetica,sans-Serif" font-size="14.00">J</text>
</g>
<!-- 4634651792 -->
<g id="node2" class="node">
<title>4634651792</title>
<ellipse fill="lightblue" stroke="black" cx="162" cy="-195.39" rx="18" ry="18"/>
<text text-anchor="middle" x="162" y="-191.69" font-family="Helvetica,sans-Serif" font-size="14.00">F</text>
</g>
<!-- 4634652704&#45;&gt;4634651792 -->
<g id="edge1" class="edge">
<title>4634652704&#45;&gt;4634651792</title>
<path fill="none" stroke="black" d="M227.7,-242.38C214.58,-233.2 195.08,-219.55 180.72,-209.5"/>
<polygon fill="black" stroke="black" points="181.55,-207.94 176.45,-206.51 179.54,-210.81 181.55,-207.94"/>
</g>
<!-- 128426 -->
<!-- 4634652704&#45;&gt;128426 -->
<!-- 4636140816 -->
<g id="node4" class="node">
<title>4636140816</title>
<ellipse fill="lightblue" stroke="black" cx="323" cy="-195.39" rx="18" ry="18"/>
<text text-anchor="middle" x="323" y="-191.69" font-family="Helvetica,sans-Serif" font-size="14.00">P</text>
</g>
<!-- 4634652704&#45;&gt;4636140816 -->
<g id="edge3" class="edge">
<title>4634652704&#45;&gt;4636140816</title>
<path fill="none" stroke="black" d="M256.48,-242.38C269.84,-233.14 289.76,-219.38 304.31,-209.31"/>
<polygon fill="black" stroke="black" points="305.53,-210.6 308.64,-206.32 303.54,-207.72 305.53,-210.6"/>
</g>
<!-- 4636198000 -->
<g id="node5" class="node">
<title>4636198000</title>
<ellipse fill="lightblue" stroke="black" cx="114" cy="-137.19" rx="18" ry="18"/>
<text text-anchor="middle" x="114" y="-133.49" font-family="Helvetica,sans-Serif" font-size="14.00">D</text>
</g>
<!-- 4634651792&#45;&gt;4636198000 -->
<g id="edge4" class="edge">
<title>4634651792&#45;&gt;4636198000</title>
<path fill="none" stroke="black" d="M150.62,-181.08C144.05,-173.38 135.71,-163.61 128.64,-155.34"/>
<polygon fill="black" stroke="black" points="129.87,-154.08 125.29,-151.42 127.21,-156.36 129.87,-154.08"/>
</g>
<!-- 968526 -->
<!-- 4634651792&#45;&gt;968526 -->
<!-- 4636204144 -->
<g id="node7" class="node">
<title>4636204144</title>
<ellipse fill="lightblue" stroke="black" cx="210" cy="-137.19" rx="18" ry="18"/>
<text text-anchor="middle" x="210" y="-133.49" font-family="Helvetica,sans-Serif" font-size="14.00">I</text>
</g>
<!-- 4634651792&#45;&gt;4636204144 -->
<g id="edge6" class="edge">
<title>4634651792&#45;&gt;4636204144</title>
<path fill="none" stroke="black" d="M173.38,-181.08C179.95,-173.38 188.29,-163.61 195.36,-155.34"/>
<polygon fill="black" stroke="black" points="196.79,-156.36 198.71,-151.42 194.13,-154.08 196.79,-156.36"/>
</g>
<!-- 4636204576 -->
<g id="node14" class="node">
<title>4636204576</title>
<ellipse fill="lightblue" stroke="black" cx="275" cy="-137.19" rx="18.4" ry="18.4"/>
<text text-anchor="middle" x="275" y="-133.49" font-family="Helvetica,sans-Serif" font-size="14.00">O</text>
</g>
<!-- 4636140816&#45;&gt;4636204576 -->
<g id="edge13" class="edge">
<title>4636140816&#45;&gt;4636204576</title>
<path fill="none" stroke="black" d="M311.62,-181.08C305.14,-173.49 296.95,-163.89 289.95,-155.7"/>
<polygon fill="black" stroke="black" points="291.21,-154.47 286.63,-151.81 288.54,-156.75 291.21,-154.47"/>
</g>
<!-- 219083 -->
<!-- 4636140816&#45;&gt;219083 -->
<!-- 4636142160 -->
<g id="node16" class="node">
<title>4636142160</title>
<ellipse fill="lightblue" stroke="black" cx="371" cy="-137.19" rx="18" ry="18"/>
<text text-anchor="middle" x="371" y="-133.49" font-family="Helvetica,sans-Serif" font-size="14.00">U</text>
</g>
<!-- 4636140816&#45;&gt;4636142160 -->
<g id="edge15" class="edge">
<title>4636140816&#45;&gt;4636142160</title>
<path fill="none" stroke="black" d="M334.38,-181.08C340.95,-173.38 349.29,-163.61 356.36,-155.34"/>
<polygon fill="black" stroke="black" points="357.79,-156.36 359.71,-151.42 355.13,-154.08 357.79,-156.36"/>
</g>
<!-- 4636201504 -->
<g id="node8" class="node">
<title>4636201504</title>
<ellipse fill="lightblue" stroke="black" cx="66" cy="-79" rx="18" ry="18"/>
<text text-anchor="middle" x="66" y="-75.3" font-family="Helvetica,sans-Serif" font-size="14.00">B</text>
</g>
<!-- 4636198000&#45;&gt;4636201504 -->
<g id="edge7" class="edge">
<title>4636198000&#45;&gt;4636201504</title>
<path fill="none" stroke="black" d="M102.62,-122.88C96.05,-115.18 87.71,-105.41 80.64,-97.14"/>
<polygon fill="black" stroke="black" points="81.87,-95.88 77.29,-93.22 79.21,-98.16 81.87,-95.88"/>
</g>
<!-- 191527 -->
<!-- 4636198000&#45;&gt;191527 -->
<!-- 4636199392 -->
<g id="node10" class="node">
<title>4636199392</title>
<ellipse fill="lightblue" stroke="black" cx="162" cy="-79" rx="18" ry="18"/>
<text text-anchor="middle" x="162" y="-75.3" font-family="Helvetica,sans-Serif" font-size="14.00">E</text>
</g>
<!-- 4636198000&#45;&gt;4636199392 -->
<g id="edge9" class="edge">
<title>4636198000&#45;&gt;4636199392</title>
<path fill="none" stroke="black" d="M125.38,-122.88C131.95,-115.18 140.29,-105.41 147.36,-97.14"/>
<polygon fill="black" stroke="black" points="148.79,-98.16 150.71,-93.22 146.13,-95.88 148.79,-98.16"/>
</g>
<!-- 4636203952 -->
<g id="node11" class="node">
<title>4636203952</title>
<ellipse fill="lightblue" stroke="black" cx="18" cy="-19.5" rx="18" ry="18"/>
<text text-anchor="middle" x="18" y="-15.8" font-family="Helvetica,sans-Serif" font-size="14.00">A</text>
</g>
<!-- 4636201504&#45;&gt;4636203952 -->
<g id="edge10" class="edge">
<title>4636201504&#45;&gt;4636203952</title>
<path fill="none" stroke="black" d="M54.87,-64.66C48.2,-56.68 39.66,-46.44 32.48,-37.84"/>
<polygon fill="black" stroke="black" points="33.62,-36.48 29.07,-33.76 30.93,-38.72 33.62,-36.48"/>
</g>
<!-- 580068 -->
<!-- 4636201504&#45;&gt;580068 -->
<!-- 868021 -->
<!-- 4636201504&#45;&gt;868021 -->
<!-- 4636198576 -->
<g id="node17" class="node">
<title>4636198576</title>
<ellipse fill="lightblue" stroke="black" cx="289" cy="-79" rx="18" ry="18"/>
<text text-anchor="middle" x="289" y="-75.3" font-family="Helvetica,sans-Serif" font-size="14.00">T</text>
</g>
<!-- 4636142160&#45;&gt;4636198576 -->
<g id="edge16" class="edge">
<title>4636142160&#45;&gt;4636198576</title>
<path fill="none" stroke="black" d="M356.34,-126.15C342.81,-116.88 322.65,-103.06 307.92,-92.96"/>
<polygon fill="black" stroke="black" points="308.65,-91.34 303.53,-89.96 306.67,-94.23 308.65,-91.34"/>
</g>
<!-- 499481 -->
<!-- 4636142160&#45;&gt;499481 -->
<!-- 4636204048 -->
<g id="node19" class="node">
<title>4636204048</title>
<ellipse fill="lightblue" stroke="black" cx="452" cy="-79" rx="18" ry="18"/>
<text text-anchor="middle" x="452" y="-75.3" font-family="Helvetica,sans-Serif" font-size="14.00">X</text>
</g>
<!-- 4636142160&#45;&gt;4636204048 -->
<g id="edge18" class="edge">
<title>4636142160&#45;&gt;4636204048</title>
<path fill="none" stroke="black" d="M385.48,-126.15C398.84,-116.88 418.76,-103.06 433.31,-92.96"/>
<polygon fill="black" stroke="black" points="434.53,-94.24 437.64,-89.96 432.54,-91.37 434.53,-94.24"/>
</g>
<!-- 4636204864 -->
<g id="node20" class="node">
<title>4636204864</title>
<ellipse fill="lightblue" stroke="black" cx="241" cy="-19.5" rx="18" ry="18"/>
<text text-anchor="middle" x="241" y="-15.8" font-family="Helvetica,sans-Serif" font-size="14.00">R</text>
</g>
<!-- 4636198576&#45;&gt;4636204864 -->
<g id="edge19" class="edge">
<title>4636198576&#45;&gt;4636204864</title>
<path fill="none" stroke="black" d="M277.87,-64.66C271.2,-56.68 262.66,-46.44 255.48,-37.84"/>
<polygon fill="black" stroke="black" points="256.62,-36.48 252.07,-33.76 253.93,-38.72 256.62,-36.48"/>
</g>
<!-- 652239 -->
<!-- 4636198576&#45;&gt;652239 -->
<!-- 806007 -->
<!-- 4636198576&#45;&gt;806007 -->
<!-- 4636204480 -->
<g id="node23" class="node">
<title>4636204480</title>
<ellipse fill="lightblue" stroke="black" cx="403" cy="-19.5" rx="19.5" ry="19.5"/>
<text text-anchor="middle" x="403" y="-15.8" font-family="Helvetica,sans-Serif" font-size="14.00">W</text>
</g>
<!-- 4636204048&#45;&gt;4636204480 -->
<g id="edge22" class="edge">
<title>4636204048&#45;&gt;4636204480</title>
<path fill="none" stroke="black" d="M440.64,-64.66C434.12,-57.02 425.86,-47.32 418.73,-38.95"/>
<polygon fill="black" stroke="black" points="419.91,-37.64 415.33,-34.97 417.24,-39.91 419.91,-37.64"/>
</g>
<!-- 490415 -->
<!-- 4636204048&#45;&gt;490415 -->
<!-- 4636204432 -->
<g id="node25" class="node">
<title>4636204432</title>
<ellipse fill="lightblue" stroke="black" cx="500" cy="-19.5" rx="18" ry="18"/>
<text text-anchor="middle" x="500" y="-15.8" font-family="Helvetica,sans-Serif" font-size="14.00">Y</text>
</g>
<!-- 4636204048&#45;&gt;4636204432 -->
<g id="edge24" class="edge">
<title>4636204048&#45;&gt;4636204432</title>
<path fill="none" stroke="black" d="M463.13,-64.66C469.8,-56.68 478.34,-46.44 485.52,-37.84"/>
<polygon fill="black" stroke="black" points="487.07,-38.72 488.93,-33.76 484.38,-36.48 487.07,-38.72"/>
</g>
</g>
</svg>
