<?xml version="1.0" encoding="UTF-8" standalone="no"?>
<!DOCTYPE svg PUBLIC "-//W3C//DTD SVG 1.1//EN"
 "http://www.w3.org/Graphics/SVG/1.1/DTD/svg11.dtd">
<!-- Generated by graphviz version 2.50.0 (0)
 -->
<!-- Pages: 1 -->
<svg width="593pt" height="304pt"
 viewBox="0.00 0.00 592.80 303.98" xmlns="http://www.w3.org/2000/svg" xmlns:xlink="http://www.w3.org/1999/xlink">
<g id="graph0" class="graph" transform="scale(1 1) rotate(0) translate(4 299.98)">
<polygon fill="white" stroke="transparent" points="-4,4 -4,-299.98 588.8,-299.98 588.8,4 -4,4"/>
<!-- 4627582032 -->
<g id="node1" class="node">
<title>4627582032</title>
<ellipse fill="lightblue" stroke="black" cx="260" cy="-275.18" rx="20.6" ry="20.6"/>
<text text-anchor="middle" x="260" y="-271.48" font-family="Helvetica,sans-Serif" font-size="14.00">15</text>
</g>
<!-- 4627859312 -->
<g id="node2" class="node">
<title>4627859312</title>
<ellipse fill="lightblue" stroke="black" cx="129" cy="-211.59" rx="18" ry="18"/>
<text text-anchor="middle" x="129" y="-207.89" font-family="Helvetica,sans-Serif" font-size="14.00">2</text>
</g>
<!-- 4627582032&#45;&gt;4627859312 -->
<g id="edge1" class="edge">
<title>4627582032&#45;&gt;4627859312</title>
<path fill="none" stroke="black" d="M241.51,-265.49C217.31,-254.11 175.01,-234.22 149.75,-222.34"/>
<polygon fill="black" stroke="black" points="150.2,-220.62 144.93,-220.08 148.71,-223.79 150.2,-220.62"/>
</g>
<!-- 939714 -->
<!-- 4627582032&#45;&gt;939714 -->
<!-- 4627585584 -->
<g id="node4" class="node">
<title>4627585584</title>
<ellipse fill="lightblue" stroke="black" cx="393" cy="-211.59" rx="20.6" ry="20.6"/>
<text text-anchor="middle" x="393" y="-207.89" font-family="Helvetica,sans-Serif" font-size="14.00">19</text>
</g>
<!-- 4627582032&#45;&gt;4627585584 -->
<g id="edge3" class="edge">
<title>4627582032&#45;&gt;4627585584</title>
<path fill="none" stroke="black" d="M278.49,-265.62C302.28,-254.6 343.61,-235.46 369.57,-223.44"/>
<polygon fill="black" stroke="black" points="370.43,-224.97 374.24,-221.28 368.96,-221.79 370.43,-224.97"/>
</g>
<!-- 4627872704 -->
<g id="node5" class="node">
<title>4627872704</title>
<ellipse fill="lightblue" stroke="black" cx="81" cy="-147.99" rx="18" ry="18"/>
<text text-anchor="middle" x="81" y="-144.29" font-family="Helvetica,sans-Serif" font-size="14.00">1</text>
</g>
<!-- 4627859312&#45;&gt;4627872704 -->
<g id="edge4" class="edge">
<title>4627859312&#45;&gt;4627872704</title>
<path fill="none" stroke="black" d="M118.35,-196.92C111.39,-187.99 102.23,-176.24 94.73,-166.61"/>
<polygon fill="black" stroke="black" points="96.08,-165.49 91.62,-162.62 93.32,-167.64 96.08,-165.49"/>
</g>
<!-- 772420 -->
<!-- 4627859312&#45;&gt;772420 -->
<!-- 4627857680 -->
<g id="node7" class="node">
<title>4627857680</title>
<ellipse fill="lightblue" stroke="black" cx="177" cy="-147.99" rx="18" ry="18"/>
<text text-anchor="middle" x="177" y="-144.29" font-family="Helvetica,sans-Serif" font-size="14.00">8</text>
</g>
<!-- 4627859312&#45;&gt;4627857680 -->
<g id="edge6" class="edge">
<title>4627859312&#45;&gt;4627857680</title>
<path fill="none" stroke="black" d="M139.65,-196.92C146.61,-187.99 155.77,-176.24 163.27,-166.61"/>
<polygon fill="black" stroke="black" points="164.68,-167.64 166.38,-162.62 161.92,-165.49 164.68,-167.64"/>
</g>
<!-- 4627868624 -->
<g id="node17" class="node">
<title>4627868624</title>
<ellipse fill="lightblue" stroke="black" cx="343" cy="-147.99" rx="20.6" ry="20.6"/>
<text text-anchor="middle" x="343" y="-144.29" font-family="Helvetica,sans-Serif" font-size="14.00">17</text>
</g>
<!-- 4627585584&#45;&gt;4627868624 -->
<g id="edge16" class="edge">
<title>4627585584&#45;&gt;4627868624</title>
<path fill="none" stroke="black" d="M380.38,-195.04C373.92,-187.08 365.98,-177.3 359.08,-168.8"/>
<polygon fill="black" stroke="black" points="360.3,-167.52 355.79,-164.74 357.58,-169.73 360.3,-167.52"/>
</g>
<!-- 649676 -->
<!-- 4627585584&#45;&gt;649676 -->
<!-- 4627862912 -->
<g id="node19" class="node">
<title>4627862912</title>
<ellipse fill="lightblue" stroke="black" cx="514" cy="-147.99" rx="20.6" ry="20.6"/>
<text text-anchor="middle" x="514" y="-144.29" font-family="Helvetica,sans-Serif" font-size="14.00">22</text>
</g>
<!-- 4627585584&#45;&gt;4627862912 -->
<g id="edge18" class="edge">
<title>4627585584&#45;&gt;4627862912</title>
<path fill="none" stroke="black" d="M411.11,-201.37C432.5,-190.48 468.08,-172.36 491.29,-160.55"/>
<polygon fill="black" stroke="black" points="492.1,-162.1 495.76,-158.28 490.51,-158.98 492.1,-162.1"/>
</g>
<!-- 4627857920 -->
<g id="node8" class="node">
<title>4627857920</title>
<ellipse fill="lightblue" stroke="black" cx="66" cy="-84.39" rx="18" ry="18"/>
<text text-anchor="middle" x="66" y="-80.69" font-family="Helvetica,sans-Serif" font-size="14.00">7</text>
</g>
<!-- 4627857680&#45;&gt;4627857920 -->
<g id="edge7" class="edge">
<title>4627857680&#45;&gt;4627857920</title>
<path fill="none" stroke="black" d="M161.57,-138.43C141.77,-127.44 107.4,-108.37 85.73,-96.34"/>
<polygon fill="black" stroke="black" points="86.52,-94.78 81.3,-93.89 84.83,-97.84 86.52,-94.78"/>
</g>
<!-- 136182 -->
<!-- 4627857680&#45;&gt;136182 -->
<!-- 4627859552 -->
<g id="node10" class="node">
<title>4627859552</title>
<ellipse fill="lightblue" stroke="black" cx="227" cy="-84.39" rx="20.6" ry="20.6"/>
<text text-anchor="middle" x="227" y="-80.69" font-family="Helvetica,sans-Serif" font-size="14.00">10</text>
</g>
<!-- 4627857680&#45;&gt;4627859552 -->
<g id="edge9" class="edge">
<title>4627857680&#45;&gt;4627859552</title>
<path fill="none" stroke="black" d="M187.85,-133.63C194.52,-125.4 203.21,-114.71 210.7,-105.48"/>
<polygon fill="black" stroke="black" points="212.25,-106.34 214.04,-101.35 209.53,-104.13 212.25,-106.34"/>
</g>
<!-- 4627859792 -->
<g id="node11" class="node">
<title>4627859792</title>
<ellipse fill="lightblue" stroke="black" cx="18" cy="-20.8" rx="18" ry="18"/>
<text text-anchor="middle" x="18" y="-17.1" font-family="Helvetica,sans-Serif" font-size="14.00">5</text>
</g>
<!-- 4627857920&#45;&gt;4627859792 -->
<g id="edge10" class="edge">
<title>4627857920&#45;&gt;4627859792</title>
<path fill="none" stroke="black" d="M55.35,-69.72C48.39,-60.79 39.23,-49.04 31.73,-39.41"/>
<polygon fill="black" stroke="black" points="33.08,-38.3 28.62,-35.43 30.32,-40.45 33.08,-38.3"/>
</g>
<!-- 62189 -->
<!-- 4627857920&#45;&gt;62189 -->
<!-- 672416 -->
<!-- 4627857920&#45;&gt;672416 -->
<!-- 4627858160 -->
<g id="node14" class="node">
<title>4627858160</title>
<ellipse fill="lightblue" stroke="black" cx="179" cy="-20.8" rx="18" ry="18"/>
<text text-anchor="middle" x="179" y="-17.1" font-family="Helvetica,sans-Serif" font-size="14.00">9</text>
</g>
<!-- 4627859552&#45;&gt;4627858160 -->
<g id="edge13" class="edge">
<title>4627859552&#45;&gt;4627858160</title>
<path fill="none" stroke="black" d="M214.64,-67.53C208.05,-59.08 199.92,-48.64 193.09,-39.87"/>
<polygon fill="black" stroke="black" points="194.3,-38.59 189.85,-35.72 191.54,-40.74 194.3,-38.59"/>
</g>
<!-- 211794 -->
<!-- 4627859552&#45;&gt;211794 -->
<!-- 4627861760 -->
<g id="node16" class="node">
<title>4627861760</title>
<ellipse fill="lightblue" stroke="black" cx="277" cy="-20.8" rx="20.6" ry="20.6"/>
<text text-anchor="middle" x="277" y="-17.1" font-family="Helvetica,sans-Serif" font-size="14.00">12</text>
</g>
<!-- 4627859552&#45;&gt;4627861760 -->
<g id="edge15" class="edge">
<title>4627859552&#45;&gt;4627861760</title>
<path fill="none" stroke="black" d="M239.62,-67.85C246.08,-59.89 254.02,-50.1 260.92,-41.61"/>
<polygon fill="black" stroke="black" points="262.42,-42.54 264.21,-37.55 259.7,-40.33 262.42,-42.54"/>
</g>
<!-- 741469 -->
<!-- 4627868624&#45;&gt;741469 -->
<!-- 483043 -->
<!-- 4627868624&#45;&gt;483043 -->
<!-- 4627859600 -->
<g id="node22" class="node">
<title>4627859600</title>
<ellipse fill="lightblue" stroke="black" cx="393" cy="-84.39" rx="20.6" ry="20.6"/>
<text text-anchor="middle" x="393" y="-80.69" font-family="Helvetica,sans-Serif" font-size="14.00">18</text>
</g>
<!-- 4627868624&#45;&gt;4627859600 -->
<g id="edge21" class="edge">
<title>4627868624&#45;&gt;4627859600</title>
<path fill="none" stroke="black" d="M355.62,-131.45C362.08,-123.48 370.02,-113.7 376.92,-105.2"/>
<polygon fill="black" stroke="black" points="378.42,-106.13 380.21,-101.15 375.7,-103.93 378.42,-106.13"/>
</g>
<!-- 4627859408 -->
<g id="node23" class="node">
<title>4627859408</title>
<ellipse fill="lightblue" stroke="black" cx="464" cy="-84.39" rx="20.6" ry="20.6"/>
<text text-anchor="middle" x="464" y="-80.69" font-family="Helvetica,sans-Serif" font-size="14.00">21</text>
</g>
<!-- 4627862912&#45;&gt;4627859408 -->
<g id="edge22" class="edge">
<title>4627862912&#45;&gt;4627859408</title>
<path fill="none" stroke="black" d="M501.38,-131.45C494.92,-123.48 486.98,-113.7 480.08,-105.2"/>
<polygon fill="black" stroke="black" points="481.3,-103.93 476.79,-101.15 478.58,-106.13 481.3,-103.93"/>
</g>
<!-- 891183 -->
<!-- 4627862912&#45;&gt;891183 -->
<!-- 4627873616 -->
<g id="node25" class="node">
<title>4627873616</title>
<ellipse fill="lightblue" stroke="black" cx="564" cy="-84.39" rx="20.6" ry="20.6"/>
<text text-anchor="middle" x="564" y="-80.69" font-family="Helvetica,sans-Serif" font-size="14.00">29</text>
</g>
<!-- 4627862912&#45;&gt;4627873616 -->
<g id="edge24" class="edge">
<title>4627862912&#45;&gt;4627873616</title>
<path fill="none" stroke="black" d="M526.62,-131.45C533.08,-123.48 541.02,-113.7 547.92,-105.2"/>
<polygon fill="black" stroke="black" points="549.42,-106.13 551.21,-101.15 546.7,-103.93 549.42,-106.13"/>
</g>
</g>
</svg>
