<?xml version="1.0" encoding="UTF-8" standalone="no"?>
<!DOCTYPE svg PUBLIC "-//W3C//DTD SVG 1.1//EN"
 "http://www.w3.org/Graphics/SVG/1.1/DTD/svg11.dtd">
<!-- Generated by graphviz version 2.50.0 (0)
 -->
<!-- Pages: 1 -->
<svg width="559pt" height="395pt"
 viewBox="0.00 0.00 559.00 395.39" xmlns="http://www.w3.org/2000/svg" xmlns:xlink="http://www.w3.org/1999/xlink">
<g id="graph0" class="graph" transform="scale(1 1) rotate(0) translate(4 391.39)">
<polygon fill="white" stroke="transparent" points="-4,4 -4,-391.39 555,-391.39 555,4 -4,4"/>
<!-- 4574345648 -->
<g id="node1" class="node">
<title>4574345648</title>
<ellipse fill="lightblue" stroke="black" cx="355" cy="-369.39" rx="18" ry="18"/>
<text text-anchor="middle" x="355" y="-365.69" font-family="Helvetica,sans-Serif" font-size="14.00">S</text>
</g>
<!-- 4574309808 -->
<g id="node2" class="node">
<title>4574309808</title>
<ellipse fill="lightblue" stroke="black" cx="227" cy="-311.39" rx="18" ry="18"/>
<text text-anchor="middle" x="227" y="-307.69" font-family="Helvetica,sans-Serif" font-size="14.00">E</text>
</g>
<!-- 4574345648&#45;&gt;4574309808 -->
<g id="edge1" class="edge">
<title>4574345648&#45;&gt;4574309808</title>
<path fill="none" stroke="black" d="M338.79,-361.3C315.83,-351.26 273.82,-332.88 248.35,-321.73"/>
<polygon fill="black" stroke="black" points="248.77,-320.01 243.48,-319.61 247.36,-323.21 248.77,-320.01"/>
</g>
<!-- 759333 -->
<!-- 4574345648&#45;&gt;759333 -->
<!-- 4574336720 -->
<g id="node4" class="node">
<title>4574336720</title>
<ellipse fill="lightblue" stroke="black" cx="484" cy="-311.39" rx="18" ry="18"/>
<text text-anchor="middle" x="484" y="-307.69" font-family="Helvetica,sans-Serif" font-size="14.00">Y</text>
</g>
<!-- 4574345648&#45;&gt;4574336720 -->
<g id="edge3" class="edge">
<title>4574345648&#45;&gt;4574336720</title>
<path fill="none" stroke="black" d="M371.34,-361.3C394.6,-351.2 437.28,-332.67 462.91,-321.55"/>
<polygon fill="black" stroke="black" points="463.91,-323.02 467.79,-319.43 462.51,-319.81 463.91,-323.02"/>
</g>
<!-- 4574301840 -->
<g id="node5" class="node">
<title>4574301840</title>
<ellipse fill="lightblue" stroke="black" cx="114" cy="-253.19" rx="18" ry="18"/>
<text text-anchor="middle" x="114" y="-249.49" font-family="Helvetica,sans-Serif" font-size="14.00">D</text>
</g>
<!-- 4574309808&#45;&gt;4574301840 -->
<g id="edge4" class="edge">
<title>4574309808&#45;&gt;4574301840</title>
<path fill="none" stroke="black" d="M211.29,-302.58C191.25,-292.61 156.54,-275.35 134.45,-264.37"/>
<polygon fill="black" stroke="black" points="135.2,-262.78 129.94,-262.12 133.64,-265.92 135.2,-262.78"/>
</g>
<!-- 225750 -->
<!-- 4574309808&#45;&gt;225750 -->
<!-- 4574313168 -->
<g id="node7" class="node">
<title>4574313168</title>
<ellipse fill="lightblue" stroke="black" cx="275" cy="-253.19" rx="18.4" ry="18.4"/>
<text text-anchor="middle" x="275" y="-249.49" font-family="Helvetica,sans-Serif" font-size="14.00">O</text>
</g>
<!-- 4574309808&#45;&gt;4574313168 -->
<g id="edge6" class="edge">
<title>4574309808&#45;&gt;4574313168</title>
<path fill="none" stroke="black" d="M238.38,-297.08C244.86,-289.49 253.05,-279.89 260.05,-271.7"/>
<polygon fill="black" stroke="black" points="261.46,-272.75 263.37,-267.81 258.79,-270.47 261.46,-272.75"/>
</g>
<!-- 4574337104 -->
<g id="node26" class="node">
<title>4574337104</title>
<ellipse fill="lightblue" stroke="black" cx="436" cy="-253.19" rx="18" ry="18"/>
<text text-anchor="middle" x="436" y="-249.49" font-family="Helvetica,sans-Serif" font-size="14.00">U</text>
</g>
<!-- 4574336720&#45;&gt;4574337104 -->
<g id="edge25" class="edge">
<title>4574336720&#45;&gt;4574337104</title>
<path fill="none" stroke="black" d="M472.62,-297.08C466.05,-289.38 457.71,-279.61 450.64,-271.34"/>
<polygon fill="black" stroke="black" points="451.87,-270.08 447.29,-267.42 449.21,-272.36 451.87,-270.08"/>
</g>
<!-- 863723 -->
<!-- 4574336720&#45;&gt;863723 -->
<!-- 795443 -->
<!-- 4574336720&#45;&gt;795443 -->
<!-- 4574313792 -->
<g id="node8" class="node">
<title>4574313792</title>
<ellipse fill="lightblue" stroke="black" cx="66" cy="-193.5" rx="18" ry="18"/>
<text text-anchor="middle" x="66" y="-189.8" font-family="Helvetica,sans-Serif" font-size="14.00">B</text>
</g>
<!-- 4574301840&#45;&gt;4574313792 -->
<g id="edge7" class="edge">
<title>4574301840&#45;&gt;4574313792</title>
<path fill="none" stroke="black" d="M102.87,-238.81C96.2,-230.8 87.66,-220.53 80.48,-211.9"/>
<polygon fill="black" stroke="black" points="81.62,-210.53 77.07,-207.81 78.92,-212.77 81.62,-210.53"/>
</g>
<!-- 783264 -->
<!-- 4574301840&#45;&gt;783264 -->
<!-- 898805 -->
<!-- 4574301840&#45;&gt;898805 -->
<!-- 4574313984 -->
<g id="node14" class="node">
<title>4574313984</title>
<ellipse fill="lightblue" stroke="black" cx="227" cy="-193.5" rx="18.4" ry="18.4"/>
<text text-anchor="middle" x="227" y="-189.8" font-family="Helvetica,sans-Serif" font-size="14.00">G</text>
</g>
<!-- 4574313168&#45;&gt;4574313984 -->
<g id="edge13" class="edge">
<title>4574313168&#45;&gt;4574313984</title>
<path fill="none" stroke="black" d="M263.62,-238.52C257.05,-230.62 248.71,-220.59 241.64,-212.1"/>
<polygon fill="black" stroke="black" points="242.84,-210.8 238.29,-208.07 240.15,-213.04 242.84,-210.8"/>
</g>
<!-- 920947 -->
<!-- 4574313168&#45;&gt;920947 -->
<!-- 372236 -->
<!-- 4574313168&#45;&gt;372236 -->
<!-- 4574311152 -->
<g id="node11" class="node">
<title>4574311152</title>
<ellipse fill="lightblue" stroke="black" cx="18" cy="-134" rx="18" ry="18"/>
<text text-anchor="middle" x="18" y="-130.3" font-family="Helvetica,sans-Serif" font-size="14.00">A</text>
</g>
<!-- 4574313792&#45;&gt;4574311152 -->
<g id="edge10" class="edge">
<title>4574313792&#45;&gt;4574311152</title>
<path fill="none" stroke="black" d="M54.87,-179.16C48.2,-171.18 39.66,-160.95 32.48,-152.34"/>
<polygon fill="black" stroke="black" points="33.62,-150.98 29.07,-148.26 30.93,-153.22 33.62,-150.98"/>
</g>
<!-- 601122 -->
<!-- 4574313792&#45;&gt;601122 -->
<!-- 601071 -->
<!-- 4574313792&#45;&gt;601071 -->
<!-- 818769 -->
<!-- 4574313984&#45;&gt;818769 -->
<!-- 875002 -->
<!-- 4574313984&#45;&gt;875002 -->
<!-- 4574312112 -->
<g id="node19" class="node">
<title>4574312112</title>
<ellipse fill="lightblue" stroke="black" cx="275" cy="-134" rx="18" ry="18"/>
<text text-anchor="middle" x="275" y="-130.3" font-family="Helvetica,sans-Serif" font-size="14.00">N</text>
</g>
<!-- 4574313984&#45;&gt;4574312112 -->
<g id="edge18" class="edge">
<title>4574313984&#45;&gt;4574312112</title>
<path fill="none" stroke="black" d="M238.38,-178.87C244.95,-171 253.29,-161 260.36,-152.54"/>
<polygon fill="black" stroke="black" points="261.85,-153.49 263.71,-148.53 259.16,-151.25 261.85,-153.49"/>
</g>
<!-- 4574692272 -->
<g id="node20" class="node">
<title>4574692272</title>
<ellipse fill="lightblue" stroke="black" cx="227" cy="-76" rx="18" ry="18"/>
<text text-anchor="middle" x="227" y="-72.3" font-family="Helvetica,sans-Serif" font-size="14.00">K</text>
</g>
<!-- 4574312112&#45;&gt;4574692272 -->
<g id="edge19" class="edge">
<title>4574312112&#45;&gt;4574692272</title>
<path fill="none" stroke="black" d="M263.62,-119.73C257.05,-112.06 248.71,-102.32 241.64,-94.08"/>
<polygon fill="black" stroke="black" points="242.88,-92.83 238.29,-90.18 240.22,-95.11 242.88,-92.83"/>
</g>
<!-- 342733 -->
<!-- 4574312112&#45;&gt;342733 -->
<!-- 486670 -->
<!-- 4574312112&#45;&gt;486670 -->
<!-- 4574692752 -->
<g id="node23" class="node">
<title>4574692752</title>
<ellipse fill="lightblue" stroke="black" cx="179" cy="-18" rx="18" ry="18"/>
<text text-anchor="middle" x="179" y="-14.3" font-family="Helvetica,sans-Serif" font-size="14.00">J</text>
</g>
<!-- 4574692272&#45;&gt;4574692752 -->
<g id="edge22" class="edge">
<title>4574692272&#45;&gt;4574692752</title>
<path fill="none" stroke="black" d="M215.62,-61.73C209.05,-54.06 200.71,-44.32 193.64,-36.08"/>
<polygon fill="black" stroke="black" points="194.88,-34.83 190.29,-32.18 192.22,-37.11 194.88,-34.83"/>
</g>
<!-- 638200 -->
<!-- 4574692272&#45;&gt;638200 -->
<!-- 938073 -->
<!-- 4574692272&#45;&gt;938073 -->
<!-- 4574311056 -->
<g id="node29" class="node">
<title>4574311056</title>
<ellipse fill="lightblue" stroke="black" cx="388" cy="-193.5" rx="18" ry="18"/>
<text text-anchor="middle" x="388" y="-189.8" font-family="Helvetica,sans-Serif" font-size="14.00">T</text>
</g>
<!-- 4574337104&#45;&gt;4574311056 -->
<g id="edge28" class="edge">
<title>4574337104&#45;&gt;4574311056</title>
<path fill="none" stroke="black" d="M424.87,-238.81C418.2,-230.8 409.66,-220.53 402.48,-211.9"/>
<polygon fill="black" stroke="black" points="403.62,-210.53 399.07,-207.81 400.92,-212.77 403.62,-210.53"/>
</g>
<!-- 726241 -->
<!-- 4574337104&#45;&gt;726241 -->
<!-- 4574307648 -->
<g id="node31" class="node">
<title>4574307648</title>
<ellipse fill="lightblue" stroke="black" cx="485" cy="-193.5" rx="19.5" ry="19.5"/>
<text text-anchor="middle" x="485" y="-189.8" font-family="Helvetica,sans-Serif" font-size="14.00">W</text>
</g>
<!-- 4574337104&#45;&gt;4574307648 -->
<g id="edge30" class="edge">
<title>4574337104&#45;&gt;4574307648</title>
<path fill="none" stroke="black" d="M447.36,-238.81C453.88,-231.15 462.14,-221.41 469.27,-213.02"/>
<polygon fill="black" stroke="black" points="470.76,-213.96 472.67,-209.02 468.1,-211.7 470.76,-213.96"/>
</g>
<!-- 4574314416 -->
<g id="node32" class="node">
<title>4574314416</title>
<ellipse fill="lightblue" stroke="black" cx="437" cy="-134" rx="18" ry="18"/>
<text text-anchor="middle" x="437" y="-130.3" font-family="Helvetica,sans-Serif" font-size="14.00">V</text>
</g>
<!-- 4574307648&#45;&gt;4574314416 -->
<g id="edge31" class="edge">
<title>4574307648&#45;&gt;4574314416</title>
<path fill="none" stroke="black" d="M472.89,-177.99C466.4,-170.21 458.35,-160.58 451.53,-152.4"/>
<polygon fill="black" stroke="black" points="452.83,-151.23 448.28,-148.52 450.15,-153.48 452.83,-151.23"/>
</g>
<!-- 241263 -->
<!-- 4574307648&#45;&gt;241263 -->
<!-- 694284 -->
<!-- 4574307648&#45;&gt;694284 -->
</g>
</svg>
