<?xml version="1.0" encoding="UTF-8" standalone="no"?>
<!DOCTYPE svg PUBLIC "-//W3C//DTD SVG 1.1//EN"
 "http://www.w3.org/Graphics/SVG/1.1/DTD/svg11.dtd">
<!-- Generated by graphviz version 2.50.0 (0)
 -->
<!-- Pages: 1 -->
<svg width="474pt" height="388pt"
 viewBox="0.00 0.00 474.40 388.38" xmlns="http://www.w3.org/2000/svg" xmlns:xlink="http://www.w3.org/1999/xlink">
<g id="graph0" class="graph" transform="scale(1 1) rotate(0) translate(4 384.38)">
<polygon fill="white" stroke="transparent" points="-4,4 -4,-384.38 470.4,-384.38 470.4,4 -4,4"/>
<!-- 4628137936 -->
<g id="node1" class="node">
<title>4628137936</title>
<ellipse fill="lightblue" stroke="black" cx="163.4" cy="-356.98" rx="23.3" ry="23.3"/>
<text text-anchor="middle" x="163.4" y="-353.28" font-family="Helvetica,sans-Serif" font-size="14.00">&#45;12</text>
</g>
<!-- 4628137264 -->
<g id="node2" class="node">
<title>4628137264</title>
<ellipse fill="lightblue" stroke="black" cx="76.4" cy="-288.18" rx="23.3" ry="23.3"/>
<text text-anchor="middle" x="76.4" y="-284.48" font-family="Helvetica,sans-Serif" font-size="14.00">&#45;18</text>
</g>
<!-- 4628137936&#45;&gt;4628137264 -->
<g id="edge1" class="edge">
<title>4628137936&#45;&gt;4628137264</title>
<path fill="none" stroke="black" d="M144.95,-341.81C131.48,-331.47 113.15,-317.4 98.83,-306.4"/>
<polygon fill="black" stroke="black" points="99.56,-304.76 94.52,-303.1 97.42,-307.53 99.56,-304.76"/>
</g>
<!-- 30121 -->
<!-- 4628137936&#45;&gt;30121 -->
<!-- 4628137456 -->
<g id="node4" class="node">
<title>4628137456</title>
<ellipse fill="lightblue" stroke="black" cx="250.4" cy="-288.18" rx="23.3" ry="23.3"/>
<text text-anchor="middle" x="250.4" y="-284.48" font-family="Helvetica,sans-Serif" font-size="14.00">&#45;10</text>
</g>
<!-- 4628137936&#45;&gt;4628137456 -->
<g id="edge3" class="edge">
<title>4628137936&#45;&gt;4628137456</title>
<path fill="none" stroke="black" d="M181.85,-341.81C195.32,-331.47 213.65,-317.4 227.97,-306.4"/>
<polygon fill="black" stroke="black" points="229.37,-307.53 232.27,-303.1 227.24,-304.76 229.37,-307.53"/>
</g>
<!-- 4628141008 -->
<g id="node5" class="node">
<title>4628141008</title>
<ellipse fill="lightblue" stroke="black" cx="23.4" cy="-219.39" rx="23.3" ry="23.3"/>
<text text-anchor="middle" x="23.4" y="-215.69" font-family="Helvetica,sans-Serif" font-size="14.00">&#45;20</text>
</g>
<!-- 4628137264&#45;&gt;4628141008 -->
<g id="edge4" class="edge">
<title>4628137264&#45;&gt;4628141008</title>
<path fill="none" stroke="black" d="M62.19,-269.28C55.66,-261.05 47.84,-251.19 40.94,-242.5"/>
<polygon fill="black" stroke="black" points="42.12,-241.16 37.64,-238.34 39.38,-243.34 42.12,-241.16"/>
</g>
<!-- 438878 -->
<!-- 4628137264&#45;&gt;438878 -->
<!-- 4628148352 -->
<g id="node7" class="node">
<title>4628148352</title>
<ellipse fill="lightblue" stroke="black" cx="129.4" cy="-219.39" rx="23.3" ry="23.3"/>
<text text-anchor="middle" x="129.4" y="-215.69" font-family="Helvetica,sans-Serif" font-size="14.00">&#45;14</text>
</g>
<!-- 4628137264&#45;&gt;4628148352 -->
<g id="edge6" class="edge">
<title>4628137264&#45;&gt;4628148352</title>
<path fill="none" stroke="black" d="M90.6,-269.28C97.14,-261.05 104.95,-251.19 111.85,-242.5"/>
<polygon fill="black" stroke="black" points="113.42,-243.34 115.16,-238.34 110.68,-241.16 113.42,-243.34"/>
</g>
<!-- 416831 -->
<!-- 4628137456&#45;&gt;416831 -->
<!-- 38556 -->
<!-- 4628137456&#45;&gt;38556 -->
<!-- 4628148112 -->
<g id="node13" class="node">
<title>4628148112</title>
<ellipse fill="lightblue" stroke="black" cx="300.4" cy="-219.39" rx="18" ry="18"/>
<text text-anchor="middle" x="300.4" y="-215.69" font-family="Helvetica,sans-Serif" font-size="14.00">4</text>
</g>
<!-- 4628137456&#45;&gt;4628148112 -->
<g id="edge12" class="edge">
<title>4628137456&#45;&gt;4628148112</title>
<path fill="none" stroke="black" d="M264.06,-268.93C271.18,-259.42 279.86,-247.82 286.95,-238.35"/>
<polygon fill="black" stroke="black" points="288.49,-239.22 290.08,-234.17 285.69,-237.12 288.49,-239.22"/>
</g>
<!-- 840414 -->
<!-- 4628148352&#45;&gt;840414 -->
<!-- 684443 -->
<!-- 4628148352&#45;&gt;684443 -->
<!-- 4628152096 -->
<g id="node10" class="node">
<title>4628152096</title>
<ellipse fill="lightblue" stroke="black" cx="182.4" cy="-150.59" rx="23.3" ry="23.3"/>
<text text-anchor="middle" x="182.4" y="-146.89" font-family="Helvetica,sans-Serif" font-size="14.00">&#45;13</text>
</g>
<!-- 4628148352&#45;&gt;4628152096 -->
<g id="edge9" class="edge">
<title>4628148352&#45;&gt;4628152096</title>
<path fill="none" stroke="black" d="M143.6,-200.49C150.14,-192.25 157.95,-182.4 164.85,-173.7"/>
<polygon fill="black" stroke="black" points="166.42,-174.54 168.16,-169.54 163.68,-172.37 166.42,-174.54"/>
</g>
<!-- 746235 -->
<!-- 4628148112&#45;&gt;746235 -->
<!-- 862040 -->
<!-- 4628148112&#45;&gt;862040 -->
<!-- 4628142592 -->
<g id="node16" class="node">
<title>4628142592</title>
<ellipse fill="lightblue" stroke="black" cx="350.4" cy="-150.59" rx="20.6" ry="20.6"/>
<text text-anchor="middle" x="350.4" y="-146.89" font-family="Helvetica,sans-Serif" font-size="14.00">13</text>
</g>
<!-- 4628148112&#45;&gt;4628142592 -->
<g id="edge15" class="edge">
<title>4628148112&#45;&gt;4628142592</title>
<path fill="none" stroke="black" d="M310.76,-204.55C317.83,-195.1 327.31,-182.43 335.23,-171.85"/>
<polygon fill="black" stroke="black" points="336.69,-172.82 338.29,-167.77 333.89,-170.72 336.69,-172.82"/>
</g>
<!-- 996159 -->
<!-- 4628142592&#45;&gt;996159 -->
<!-- 852870 -->
<!-- 4628142592&#45;&gt;852870 -->
<!-- 4628139760 -->
<g id="node19" class="node">
<title>4628139760</title>
<ellipse fill="lightblue" stroke="black" cx="400.4" cy="-84.39" rx="20.6" ry="20.6"/>
<text text-anchor="middle" x="400.4" y="-80.69" font-family="Helvetica,sans-Serif" font-size="14.00">18</text>
</g>
<!-- 4628142592&#45;&gt;4628139760 -->
<g id="edge18" class="edge">
<title>4628142592&#45;&gt;4628139760</title>
<path fill="none" stroke="black" d="M362.76,-133.72C369.32,-125.3 377.46,-114.85 384.48,-105.83"/>
<polygon fill="black" stroke="black" points="386.14,-106.55 387.83,-101.53 383.38,-104.4 386.14,-106.55"/>
</g>
<!-- 4628139088 -->
<g id="node20" class="node">
<title>4628139088</title>
<ellipse fill="lightblue" stroke="black" cx="350.4" cy="-20.8" rx="20.6" ry="20.6"/>
<text text-anchor="middle" x="350.4" y="-17.1" font-family="Helvetica,sans-Serif" font-size="14.00">14</text>
</g>
<!-- 4628139760&#45;&gt;4628139088 -->
<g id="edge19" class="edge">
<title>4628139760&#45;&gt;4628139088</title>
<path fill="none" stroke="black" d="M387.78,-67.85C381.32,-59.89 373.38,-50.1 366.48,-41.61"/>
<polygon fill="black" stroke="black" points="367.69,-40.33 363.18,-37.55 364.98,-42.54 367.69,-40.33"/>
</g>
<!-- 45796 -->
<!-- 4628139760&#45;&gt;45796 -->
<!-- 773742 -->
<!-- 4628139760&#45;&gt;773742 -->
</g>
</svg>
