<?xml version="1.0" encoding="UTF-8" standalone="no"?>
<!DOCTYPE svg PUBLIC "-//W3C//DTD SVG 1.1//EN"
 "http://www.w3.org/Graphics/SVG/1.1/DTD/svg11.dtd">
<!-- Generated by graphviz version 2.50.0 (0)
 -->
<!-- Pages: 1 -->
<svg width="366pt" height="314pt"
 viewBox="0.00 0.00 366.00 313.98" xmlns="http://www.w3.org/2000/svg" xmlns:xlink="http://www.w3.org/1999/xlink">
<g id="graph0" class="graph" transform="scale(1 1) rotate(0) translate(4 309.98)">
<polygon fill="white" stroke="transparent" points="-4,4 -4,-309.98 362,-309.98 362,4 -4,4"/>
<!-- 4628137456 -->
<g id="node1" class="node">
<title>4628137456</title>
<ellipse fill="lightblue" stroke="black" cx="155" cy="-287.98" rx="18" ry="18"/>
<text text-anchor="middle" x="155" y="-284.28" font-family="Helvetica,sans-Serif" font-size="14.00">9</text>
</g>
<!-- 4628150608 -->
<g id="node2" class="node">
<title>4628150608</title>
<ellipse fill="lightblue" stroke="black" cx="66" cy="-224.59" rx="23.3" ry="23.3"/>
<text text-anchor="middle" x="66" y="-220.89" font-family="Helvetica,sans-Serif" font-size="14.00">&#45;18</text>
</g>
<!-- 4628137456&#45;&gt;4628150608 -->
<g id="edge1" class="edge">
<title>4628137456&#45;&gt;4628150608</title>
<path fill="none" stroke="black" d="M140.3,-276.85C126.49,-267.32 105.6,-252.9 89.48,-241.78"/>
<polygon fill="black" stroke="black" points="90.18,-240.14 85.07,-238.74 88.19,-243.02 90.18,-240.14"/>
</g>
<!-- 244725 -->
<!-- 4628137456&#45;&gt;244725 -->
<!-- 4628137936 -->
<g id="node4" class="node">
<title>4628137936</title>
<ellipse fill="lightblue" stroke="black" cx="242" cy="-224.59" rx="20.6" ry="20.6"/>
<text text-anchor="middle" x="242" y="-220.89" font-family="Helvetica,sans-Serif" font-size="14.00">13</text>
</g>
<!-- 4628137456&#45;&gt;4628137936 -->
<g id="edge3" class="edge">
<title>4628137456&#45;&gt;4628137936</title>
<path fill="none" stroke="black" d="M169.37,-276.85C183.39,-266.94 204.91,-251.76 220.88,-240.49"/>
<polygon fill="black" stroke="black" points="222.15,-241.73 225.23,-237.42 220.13,-238.88 222.15,-241.73"/>
</g>
<!-- 717336 -->
<!-- 4628150608&#45;&gt;717336 -->
<!-- 717495 -->
<!-- 4628150608&#45;&gt;717495 -->
<!-- 4628147296 -->
<g id="node7" class="node">
<title>4628147296</title>
<ellipse fill="lightblue" stroke="black" cx="119" cy="-155.79" rx="23.3" ry="23.3"/>
<text text-anchor="middle" x="119" y="-152.09" font-family="Helvetica,sans-Serif" font-size="14.00">&#45;11</text>
</g>
<!-- 4628150608&#45;&gt;4628147296 -->
<g id="edge6" class="edge">
<title>4628150608&#45;&gt;4628147296</title>
<path fill="none" stroke="black" d="M80.2,-205.69C86.74,-197.45 94.55,-187.6 101.45,-178.9"/>
<polygon fill="black" stroke="black" points="103.02,-179.74 104.76,-174.74 100.28,-177.57 103.02,-179.74"/>
</g>
<!-- 4628139472 -->
<g id="node14" class="node">
<title>4628139472</title>
<ellipse fill="lightblue" stroke="black" cx="192" cy="-155.79" rx="20.6" ry="20.6"/>
<text text-anchor="middle" x="192" y="-152.09" font-family="Helvetica,sans-Serif" font-size="14.00">12</text>
</g>
<!-- 4628137936&#45;&gt;4628139472 -->
<g id="edge13" class="edge">
<title>4628137936&#45;&gt;4628139472</title>
<path fill="none" stroke="black" d="M229.9,-207.42C223.02,-198.23 214.35,-186.64 207.03,-176.87"/>
<polygon fill="black" stroke="black" points="208.39,-175.76 203.99,-172.81 205.59,-177.86 208.39,-175.76"/>
</g>
<!-- 640039 -->
<!-- 4628137936&#45;&gt;640039 -->
<!-- 4628142592 -->
<g id="node16" class="node">
<title>4628142592</title>
<ellipse fill="lightblue" stroke="black" cx="292" cy="-155.79" rx="20.6" ry="20.6"/>
<text text-anchor="middle" x="292" y="-152.09" font-family="Helvetica,sans-Serif" font-size="14.00">19</text>
</g>
<!-- 4628137936&#45;&gt;4628142592 -->
<g id="edge15" class="edge">
<title>4628137936&#45;&gt;4628142592</title>
<path fill="none" stroke="black" d="M254.1,-207.42C260.98,-198.23 269.65,-186.64 276.97,-176.87"/>
<polygon fill="black" stroke="black" points="278.41,-177.86 280.01,-172.81 275.61,-175.76 278.41,-177.86"/>
</g>
<!-- 818387 -->
<!-- 4628147296&#45;&gt;818387 -->
<!-- 998686 -->
<!-- 4628147296&#45;&gt;998686 -->
<!-- 4628139760 -->
<g id="node10" class="node">
<title>4628139760</title>
<ellipse fill="lightblue" stroke="black" cx="167" cy="-89.59" rx="18" ry="18"/>
<text text-anchor="middle" x="167" y="-85.89" font-family="Helvetica,sans-Serif" font-size="14.00">2</text>
</g>
<!-- 4628147296&#45;&gt;4628139760 -->
<g id="edge9" class="edge">
<title>4628147296&#45;&gt;4628139760</title>
<path fill="none" stroke="black" d="M132.63,-136.57C139.2,-127.77 147.06,-117.26 153.6,-108.51"/>
<polygon fill="black" stroke="black" points="155.11,-109.42 156.7,-104.37 152.3,-107.33 155.11,-109.42"/>
</g>
<!-- 4628148352 -->
<g id="node11" class="node">
<title>4628148352</title>
<ellipse fill="lightblue" stroke="black" cx="114" cy="-23.4" rx="23.3" ry="23.3"/>
<text text-anchor="middle" x="114" y="-19.7" font-family="Helvetica,sans-Serif" font-size="14.00">&#45;10</text>
</g>
<!-- 4628139760&#45;&gt;4628148352 -->
<g id="edge10" class="edge">
<title>4628139760&#45;&gt;4628148352</title>
<path fill="none" stroke="black" d="M156.02,-75.29C149.12,-66.94 140.06,-55.96 132.11,-46.34"/>
<polygon fill="black" stroke="black" points="133.32,-45.05 128.79,-42.31 130.62,-47.28 133.32,-45.05"/>
</g>
<!-- 589434 -->
<!-- 4628139760&#45;&gt;589434 -->
<!-- 4628141008 -->
<g id="node13" class="node">
<title>4628141008</title>
<ellipse fill="lightblue" stroke="black" cx="215" cy="-23.4" rx="18" ry="18"/>
<text text-anchor="middle" x="215" y="-19.7" font-family="Helvetica,sans-Serif" font-size="14.00">7</text>
</g>
<!-- 4628139760&#45;&gt;4628141008 -->
<g id="edge12" class="edge">
<title>4628139760&#45;&gt;4628141008</title>
<path fill="none" stroke="black" d="M177.42,-74.66C184.46,-65.24 193.83,-52.71 201.46,-42.51"/>
<polygon fill="black" stroke="black" points="203.01,-43.35 204.61,-38.3 200.21,-41.26 203.01,-43.35"/>
</g>
<!-- 4628152096 -->
<g id="node17" class="node">
<title>4628152096</title>
<ellipse fill="lightblue" stroke="black" cx="242" cy="-89.59" rx="20.6" ry="20.6"/>
<text text-anchor="middle" x="242" y="-85.89" font-family="Helvetica,sans-Serif" font-size="14.00">14</text>
</g>
<!-- 4628142592&#45;&gt;4628152096 -->
<g id="edge16" class="edge">
<title>4628142592&#45;&gt;4628152096</title>
<path fill="none" stroke="black" d="M279.64,-138.92C273.08,-130.5 264.94,-120.05 257.91,-111.03"/>
<polygon fill="black" stroke="black" points="259.02,-109.6 254.56,-106.73 256.26,-111.75 259.02,-109.6"/>
</g>
<!-- 956322 -->
<!-- 4628142592&#45;&gt;956322 -->
<!-- 297128 -->
<!-- 4628142592&#45;&gt;297128 -->
</g>
</svg>
