<?xml version="1.0" encoding="UTF-8" standalone="no"?>
<!DOCTYPE svg PUBLIC "-//W3C//DTD SVG 1.1//EN"
 "http://www.w3.org/Graphics/SVG/1.1/DTD/svg11.dtd">
<!-- Generated by graphviz version 2.50.0 (0)
 -->
<!-- Pages: 1 -->
<svg width="401pt" height="278pt"
 viewBox="0.00 0.00 401.47 277.87" xmlns="http://www.w3.org/2000/svg" xmlns:xlink="http://www.w3.org/1999/xlink">
<g id="graph0" class="graph" transform="scale(1 1) rotate(0) translate(4 273.87)">
<polygon fill="white" stroke="transparent" points="-4,4 -4,-273.87 397.47,-273.87 397.47,4 -4,4"/>
<!-- 4427737632 -->
<g id="node1" class="node">
<title>4427737632</title>
<ellipse fill="#ffa500" stroke="black" cx="115" cy="-251.87" rx="18" ry="18"/>
<text text-anchor="middle" x="115" y="-248.77" font-family="Helvetica,sans-Serif" font-size="12.00">1</text>
</g>
<!-- 4427740176 -->
<g id="node2" class="node">
<title>4427740176</title>
<ellipse fill="#ffa500" stroke="black" cx="83" cy="-193.87" rx="18" ry="18"/>
<text text-anchor="middle" x="83" y="-190.77" font-family="Helvetica,sans-Serif" font-size="12.00">2</text>
</g>
<!-- 4427737632&#45;&gt;4427740176 -->
<g id="edge1" class="edge">
<title>4427737632&#45;&gt;4427740176</title>
<path fill="none" stroke="black" d="M106.42,-235.86C102.69,-229.34 98.27,-221.6 94.28,-214.61"/>
<polygon fill="black" stroke="black" points="95.6,-213.39 91.6,-209.92 92.56,-215.13 95.6,-213.39"/>
</g>
<!-- 4427740944 -->
<g id="node3" class="node">
<title>4427740944</title>
<ellipse fill="#ffa500" stroke="black" cx="148" cy="-193.87" rx="18" ry="18"/>
<text text-anchor="middle" x="148" y="-190.77" font-family="Helvetica,sans-Serif" font-size="12.00">3</text>
</g>
<!-- 4427737632&#45;&gt;4427740944 -->
<g id="edge2" class="edge">
<title>4427737632&#45;&gt;4427740944</title>
<path fill="none" stroke="black" d="M123.84,-235.86C127.69,-229.34 132.25,-221.6 136.37,-214.61"/>
<polygon fill="black" stroke="black" points="138.1,-215.12 139.13,-209.92 135.09,-213.34 138.1,-215.12"/>
</g>
<!-- 4427741568 -->
<g id="node4" class="node">
<title>4427741568</title>
<ellipse fill="#ffa500" stroke="black" cx="18" cy="-135.87" rx="18" ry="18"/>
<text text-anchor="middle" x="18" y="-132.77" font-family="Helvetica,sans-Serif" font-size="12.00">4</text>
</g>
<!-- 4427740176&#45;&gt;4427741568 -->
<g id="edge3" class="edge">
<title>4427740176&#45;&gt;4427741568</title>
<path fill="none" stroke="black" d="M69.85,-181.54C59.8,-172.88 45.88,-160.89 35,-151.51"/>
<polygon fill="black" stroke="black" points="36.06,-150.12 31.13,-148.19 33.78,-152.78 36.06,-150.12"/>
</g>
<!-- 4427738832 -->
<g id="node5" class="node">
<title>4427738832</title>
<ellipse fill="#ffa500" stroke="black" cx="83" cy="-135.87" rx="18" ry="18"/>
<text text-anchor="middle" x="83" y="-132.77" font-family="Helvetica,sans-Serif" font-size="12.00">5</text>
</g>
<!-- 4427740176&#45;&gt;4427738832 -->
<g id="edge4" class="edge">
<title>4427740176&#45;&gt;4427738832</title>
<path fill="none" stroke="black" d="M83,-175.76C83,-170.44 83,-164.5 83,-158.9"/>
<polygon fill="black" stroke="black" points="84.75,-158.87 83,-153.87 81.25,-158.87 84.75,-158.87"/>
</g>
<!-- 4427741712 -->
<g id="node6" class="node">
<title>4427741712</title>
<ellipse fill="#ffa500" stroke="black" cx="148" cy="-135.87" rx="18" ry="18"/>
<text text-anchor="middle" x="148" y="-132.77" font-family="Helvetica,sans-Serif" font-size="12.00">6</text>
</g>
<!-- 4427740944&#45;&gt;4427741712 -->
<g id="edge5" class="edge">
<title>4427740944&#45;&gt;4427741712</title>
<path fill="none" stroke="black" d="M148,-175.76C148,-170.44 148,-164.5 148,-158.9"/>
<polygon fill="black" stroke="black" points="149.75,-158.87 148,-153.87 146.25,-158.87 149.75,-158.87"/>
</g>
<!-- 4427742144 -->
<g id="node7" class="node">
<title>4427742144</title>
<ellipse fill="#ffa500" stroke="black" cx="245" cy="-135.87" rx="18" ry="18"/>
<text text-anchor="middle" x="245" y="-132.77" font-family="Helvetica,sans-Serif" font-size="12.00">7</text>
</g>
<!-- 4427740944&#45;&gt;4427742144 -->
<g id="edge6" class="edge">
<title>4427740944&#45;&gt;4427742144</title>
<path fill="none" stroke="black" d="M163.16,-184.12C179.86,-174.48 206.78,-158.93 225.15,-148.33"/>
<polygon fill="black" stroke="black" points="226.17,-149.76 229.63,-145.74 224.42,-146.73 226.17,-149.76"/>
</g>
<!-- 4427739648 -->
<g id="node8" class="node">
<title>4427739648</title>
<ellipse fill="#ffa500" stroke="black" cx="115" cy="-77.4" rx="18" ry="18"/>
<text text-anchor="middle" x="115" y="-74.3" font-family="Helvetica,sans-Serif" font-size="12.00">8</text>
</g>
<!-- 4427741712&#45;&gt;4427739648 -->
<g id="edge7" class="edge">
<title>4427741712&#45;&gt;4427739648</title>
<path fill="none" stroke="black" d="M139.33,-120.03C135.34,-113.22 130.57,-105.04 126.3,-97.74"/>
<polygon fill="black" stroke="black" points="127.76,-96.77 123.73,-93.34 124.74,-98.54 127.76,-96.77"/>
</g>
<!-- 4427742240 -->
<g id="node9" class="node">
<title>4427742240</title>
<ellipse fill="#ffa500" stroke="black" cx="180" cy="-77.4" rx="18" ry="18"/>
<text text-anchor="middle" x="180" y="-74.3" font-family="Helvetica,sans-Serif" font-size="12.00">9</text>
</g>
<!-- 4427742144&#45;&gt;4427742240 -->
<g id="edge8" class="edge">
<title>4427742144&#45;&gt;4427742240</title>
<path fill="none" stroke="black" d="M231.85,-123.44C221.8,-114.72 207.88,-102.63 197,-93.17"/>
<polygon fill="black" stroke="black" points="198.06,-91.77 193.13,-89.81 195.76,-94.41 198.06,-91.77"/>
</g>
<!-- 4427742432 -->
<g id="node10" class="node">
<title>4427742432</title>
<ellipse fill="#ffa500" stroke="black" cx="245" cy="-77.4" rx="18.44" ry="18.44"/>
<text text-anchor="middle" x="245" y="-74.3" font-family="Helvetica,sans-Serif" font-size="12.00">10</text>
</g>
<!-- 4427742144&#45;&gt;4427742432 -->
<g id="edge9" class="edge">
<title>4427742144&#45;&gt;4427742432</title>
<path fill="none" stroke="black" d="M245,-117.62C245,-112.46 245,-106.73 245,-101.27"/>
<polygon fill="black" stroke="black" points="246.75,-100.94 245,-95.94 243.25,-100.94 246.75,-100.94"/>
</g>
<!-- 4427742528 -->
<g id="node11" class="node">
<title>4427742528</title>
<ellipse fill="#ffa500" stroke="black" cx="310" cy="-77.4" rx="18" ry="18"/>
<text text-anchor="middle" x="310" y="-74.3" font-family="Helvetica,sans-Serif" font-size="12.00">11</text>
</g>
<!-- 4427742144&#45;&gt;4427742528 -->
<g id="edge10" class="edge">
<title>4427742144&#45;&gt;4427742528</title>
<path fill="none" stroke="black" d="M258.15,-123.44C268.2,-114.72 282.12,-102.63 293,-93.17"/>
<polygon fill="black" stroke="black" points="294.24,-94.41 296.87,-89.81 291.94,-91.77 294.24,-94.41"/>
</g>
<!-- 4427742624 -->
<g id="node12" class="node">
<title>4427742624</title>
<ellipse fill="#ffa500" stroke="black" cx="375" cy="-77.4" rx="18.44" ry="18.44"/>
<text text-anchor="middle" x="375" y="-74.3" font-family="Helvetica,sans-Serif" font-size="12.00">12</text>
</g>
<!-- 4427742144&#45;&gt;4427742624 -->
<g id="edge11" class="edge">
<title>4427742144&#45;&gt;4427742624</title>
<path fill="none" stroke="black" d="M261.2,-127.83C284.53,-117.7 327.6,-98.99 353.55,-87.72"/>
<polygon fill="black" stroke="black" points="354.29,-89.31 358.18,-85.71 352.9,-86.1 354.29,-89.31"/>
</g>
<!-- 4427742336 -->
<g id="node13" class="node">
<title>4427742336</title>
<ellipse fill="#ffa500" stroke="black" cx="180" cy="-18.47" rx="18.44" ry="18.44"/>
<text text-anchor="middle" x="180" y="-15.37" font-family="Helvetica,sans-Serif" font-size="12.00">13</text>
</g>
<!-- 4427742240&#45;&gt;4427742336 -->
<g id="edge12" class="edge">
<title>4427742240&#45;&gt;4427742336</title>
<path fill="none" stroke="black" d="M180,-59.32C180,-54 180,-48.05 180,-42.4"/>
<polygon fill="black" stroke="black" points="181.75,-42.33 180,-37.33 178.25,-42.33 181.75,-42.33"/>
</g>
</g>
</svg>
