<?xml version="1.0" encoding="UTF-8" standalone="no"?>
<!DOCTYPE svg PUBLIC "-//W3C//DTD SVG 1.1//EN"
 "http://www.w3.org/Graphics/SVG/1.1/DTD/svg11.dtd">
<!-- Generated by graphviz version 2.50.0 (0)
 -->
<!-- Pages: 1 -->
<svg width="528pt" height="339pt"
 viewBox="0.00 0.00 528.00 339.09" xmlns="http://www.w3.org/2000/svg" xmlns:xlink="http://www.w3.org/1999/xlink">
<g id="graph0" class="graph" transform="scale(1 1) rotate(0) translate(4 335.09)">
<polygon fill="white" stroke="transparent" points="-4,4 -4,-335.09 524,-335.09 524,4 -4,4"/>
<!-- 4574337632 -->
<g id="node1" class="node">
<title>4574337632</title>
<ellipse fill="lightblue" stroke="black" cx="211" cy="-313.09" rx="18" ry="18"/>
<text text-anchor="middle" x="211" y="-309.39" font-family="Helvetica,sans-Serif" font-size="14.00">J</text>
</g>
<!-- 4574311056 -->
<g id="node2" class="node">
<title>4574311056</title>
<ellipse fill="lightblue" stroke="black" cx="131" cy="-255.09" rx="18" ry="18"/>
<text text-anchor="middle" x="131" y="-251.39" font-family="Helvetica,sans-Serif" font-size="14.00">E</text>
</g>
<!-- 4574337632&#45;&gt;4574311056 -->
<g id="edge1" class="edge">
<title>4574337632&#45;&gt;4574311056</title>
<path fill="none" stroke="black" d="M196.7,-302.08C183.58,-292.9 164.08,-279.24 149.72,-269.2"/>
<polygon fill="black" stroke="black" points="150.55,-267.64 145.45,-266.2 148.54,-270.5 150.55,-267.64"/>
</g>
<!-- 411568 -->
<!-- 4574337632&#45;&gt;411568 -->
<!-- 4574337104 -->
<g id="node4" class="node">
<title>4574337104</title>
<ellipse fill="lightblue" stroke="black" cx="309" cy="-255.09" rx="18" ry="18"/>
<text text-anchor="middle" x="309" y="-251.39" font-family="Helvetica,sans-Serif" font-size="14.00">U</text>
</g>
<!-- 4574337632&#45;&gt;4574337104 -->
<g id="edge3" class="edge">
<title>4574337632&#45;&gt;4574337104</title>
<path fill="none" stroke="black" d="M226.31,-303.34C243.29,-293.64 270.71,-277.97 289.28,-267.36"/>
<polygon fill="black" stroke="black" points="290.32,-268.78 293.8,-264.78 288.59,-265.74 290.32,-268.78"/>
</g>
<!-- 4574299440 -->
<g id="node5" class="node">
<title>4574299440</title>
<ellipse fill="lightblue" stroke="black" cx="66" cy="-195.59" rx="18" ry="18"/>
<text text-anchor="middle" x="66" y="-191.89" font-family="Helvetica,sans-Serif" font-size="14.00">D</text>
</g>
<!-- 4574311056&#45;&gt;4574299440 -->
<g id="edge4" class="edge">
<title>4574311056&#45;&gt;4574299440</title>
<path fill="none" stroke="black" d="M117.85,-242.45C107.8,-233.57 93.88,-221.26 83,-211.63"/>
<polygon fill="black" stroke="black" points="84.04,-210.21 79.13,-208.21 81.72,-212.83 84.04,-210.21"/>
</g>
<!-- 535996 -->
<!-- 4574311056&#45;&gt;535996 -->
<!-- 4574301840 -->
<g id="node7" class="node">
<title>4574301840</title>
<ellipse fill="lightblue" stroke="black" cx="179" cy="-195.59" rx="18" ry="18"/>
<text text-anchor="middle" x="179" y="-191.89" font-family="Helvetica,sans-Serif" font-size="14.00">H</text>
</g>
<!-- 4574311056&#45;&gt;4574301840 -->
<g id="edge6" class="edge">
<title>4574311056&#45;&gt;4574301840</title>
<path fill="none" stroke="black" d="M142.13,-240.75C148.8,-232.77 157.34,-222.54 164.52,-213.93"/>
<polygon fill="black" stroke="black" points="166.07,-214.82 167.93,-209.86 163.38,-212.57 166.07,-214.82"/>
</g>
<!-- 4574312640 -->
<g id="node11" class="node">
<title>4574312640</title>
<ellipse fill="lightblue" stroke="black" cx="261" cy="-195.59" rx="18" ry="18"/>
<text text-anchor="middle" x="261" y="-191.89" font-family="Helvetica,sans-Serif" font-size="14.00">P</text>
</g>
<!-- 4574337104&#45;&gt;4574312640 -->
<g id="edge10" class="edge">
<title>4574337104&#45;&gt;4574312640</title>
<path fill="none" stroke="black" d="M297.87,-240.75C291.2,-232.77 282.66,-222.54 275.48,-213.93"/>
<polygon fill="black" stroke="black" points="276.62,-212.57 272.07,-209.86 273.93,-214.82 276.62,-212.57"/>
</g>
<!-- 185437 -->
<!-- 4574337104&#45;&gt;185437 -->
<!-- 4574300832 -->
<g id="node13" class="node">
<title>4574300832</title>
<ellipse fill="lightblue" stroke="black" cx="454" cy="-195.59" rx="19.5" ry="19.5"/>
<text text-anchor="middle" x="454" y="-191.89" font-family="Helvetica,sans-Serif" font-size="14.00">W</text>
</g>
<!-- 4574337104&#45;&gt;4574300832 -->
<g id="edge12" class="edge">
<title>4574337104&#45;&gt;4574300832</title>
<path fill="none" stroke="black" d="M325.63,-247.49C351.65,-237.18 402.03,-217.2 431.34,-205.58"/>
<polygon fill="black" stroke="black" points="432.2,-207.12 436.21,-203.65 430.91,-203.86 432.2,-207.12"/>
</g>
<!-- 4574312832 -->
<g id="node8" class="node">
<title>4574312832</title>
<ellipse fill="lightblue" stroke="black" cx="18" cy="-135.25" rx="18" ry="18"/>
<text text-anchor="middle" x="18" y="-131.55" font-family="Helvetica,sans-Serif" font-size="14.00">C</text>
</g>
<!-- 4574299440&#45;&gt;4574312832 -->
<g id="edge7" class="edge">
<title>4574299440&#45;&gt;4574312832</title>
<path fill="none" stroke="black" d="M54.87,-181.06C48.2,-172.96 39.66,-162.57 32.48,-153.84"/>
<polygon fill="black" stroke="black" points="33.6,-152.45 29.07,-149.7 30.9,-154.68 33.6,-152.45"/>
</g>
<!-- 136253 -->
<!-- 4574299440&#45;&gt;136253 -->
<!-- 363481 -->
<!-- 4574299440&#45;&gt;363481 -->
<!-- 4574309472 -->
<g id="node14" class="node">
<title>4574309472</title>
<ellipse fill="lightblue" stroke="black" cx="180" cy="-135.25" rx="18.7" ry="18.7"/>
<text text-anchor="middle" x="180" y="-131.55" font-family="Helvetica,sans-Serif" font-size="14.00">M</text>
</g>
<!-- 4574312640&#45;&gt;4574309472 -->
<g id="edge13" class="edge">
<title>4574312640&#45;&gt;4574309472</title>
<path fill="none" stroke="black" d="M246.52,-184.16C233.32,-174.65 213.73,-160.55 199.23,-150.1"/>
<polygon fill="black" stroke="black" points="199.98,-148.48 194.9,-146.98 197.94,-151.32 199.98,-148.48"/>
</g>
<!-- 296332 -->
<!-- 4574312640&#45;&gt;296332 -->
<!-- 4574308416 -->
<g id="node16" class="node">
<title>4574308416</title>
<ellipse fill="lightblue" stroke="black" cx="341" cy="-135.25" rx="18" ry="18"/>
<text text-anchor="middle" x="341" y="-131.55" font-family="Helvetica,sans-Serif" font-size="14.00">R</text>
</g>
<!-- 4574312640&#45;&gt;4574308416 -->
<g id="edge15" class="edge">
<title>4574312640&#45;&gt;4574308416</title>
<path fill="none" stroke="black" d="M275.3,-184.16C288.5,-174.54 308.17,-160.19 322.54,-149.71"/>
<polygon fill="black" stroke="black" points="323.81,-150.95 326.82,-146.59 321.75,-148.12 323.81,-150.95"/>
</g>
<!-- 4574313072 -->
<g id="node26" class="node">
<title>4574313072</title>
<ellipse fill="lightblue" stroke="black" cx="406" cy="-135.25" rx="18" ry="18"/>
<text text-anchor="middle" x="406" y="-131.55" font-family="Helvetica,sans-Serif" font-size="14.00">V</text>
</g>
<!-- 4574300832&#45;&gt;4574313072 -->
<g id="edge25" class="edge">
<title>4574300832&#45;&gt;4574313072</title>
<path fill="none" stroke="black" d="M441.89,-179.87C435.3,-171.86 427.11,-161.91 420.22,-153.54"/>
<polygon fill="black" stroke="black" points="421.49,-152.32 416.96,-149.57 418.78,-154.54 421.49,-152.32"/>
</g>
<!-- 281789 -->
<!-- 4574300832&#45;&gt;281789 -->
<!-- 357654 -->
<!-- 4574300832&#45;&gt;357654 -->
<!-- 346806 -->
<!-- 4574309472&#45;&gt;346806 -->
<!-- 42642 -->
<!-- 4574309472&#45;&gt;42642 -->
<!-- 4574313792 -->
<g id="node19" class="node">
<title>4574313792</title>
<ellipse fill="lightblue" stroke="black" cx="228" cy="-76.2" rx="18.4" ry="18.4"/>
<text text-anchor="middle" x="228" y="-72.5" font-family="Helvetica,sans-Serif" font-size="14.00">O</text>
</g>
<!-- 4574309472&#45;&gt;4574313792 -->
<g id="edge18" class="edge">
<title>4574309472&#45;&gt;4574313792</title>
<path fill="none" stroke="black" d="M191.87,-120.14C198.35,-112.43 206.45,-102.81 213.33,-94.63"/>
<polygon fill="black" stroke="black" points="214.72,-95.7 216.6,-90.74 212.04,-93.44 214.72,-95.7"/>
</g>
<!-- 4574693088 -->
<g id="node20" class="node">
<title>4574693088</title>
<ellipse fill="lightblue" stroke="black" cx="293" cy="-76.2" rx="18.4" ry="18.4"/>
<text text-anchor="middle" x="293" y="-72.5" font-family="Helvetica,sans-Serif" font-size="14.00">Q</text>
</g>
<!-- 4574308416&#45;&gt;4574693088 -->
<g id="edge19" class="edge">
<title>4574308416&#45;&gt;4574693088</title>
<path fill="none" stroke="black" d="M329.87,-121.01C323.3,-113.21 314.9,-103.23 307.78,-94.77"/>
<polygon fill="black" stroke="black" points="308.96,-93.45 304.41,-90.75 306.29,-95.71 308.96,-93.45"/>
</g>
<!-- 877808 -->
<!-- 4574308416&#45;&gt;877808 -->
<!-- 4574312352 -->
<g id="node22" class="node">
<title>4574312352</title>
<ellipse fill="lightblue" stroke="black" cx="389" cy="-76.2" rx="18" ry="18"/>
<text text-anchor="middle" x="389" y="-72.5" font-family="Helvetica,sans-Serif" font-size="14.00">S</text>
</g>
<!-- 4574308416&#45;&gt;4574312352 -->
<g id="edge21" class="edge">
<title>4574308416&#45;&gt;4574312352</title>
<path fill="none" stroke="black" d="M352.13,-121.01C358.7,-113.21 367.1,-103.23 374.22,-94.77"/>
<polygon fill="black" stroke="black" points="375.71,-95.71 377.59,-90.75 373.04,-93.45 375.71,-95.71"/>
</g>
<!-- 879094 -->
<!-- 4574312352&#45;&gt;879094 -->
<!-- 436796 -->
<!-- 4574312352&#45;&gt;436796 -->
<!-- 4574298720 -->
<g id="node25" class="node">
<title>4574298720</title>
<ellipse fill="lightblue" stroke="black" cx="437" cy="-18" rx="18" ry="18"/>
<text text-anchor="middle" x="437" y="-14.3" font-family="Helvetica,sans-Serif" font-size="14.00">T</text>
</g>
<!-- 4574312352&#45;&gt;4574298720 -->
<g id="edge24" class="edge">
<title>4574312352&#45;&gt;4574298720</title>
<path fill="none" stroke="black" d="M400.38,-61.88C406.95,-54.18 415.29,-44.41 422.36,-36.15"/>
<polygon fill="black" stroke="black" points="423.79,-37.16 425.71,-32.22 421.13,-34.89 423.79,-37.16"/>
</g>
</g>
</svg>
