<?xml version="1.0" encoding="UTF-8" standalone="no"?>
<!DOCTYPE svg PUBLIC "-//W3C//DTD SVG 1.1//EN"
 "http://www.w3.org/Graphics/SVG/1.1/DTD/svg11.dtd">
<!-- Generated by graphviz version 2.50.0 (0)
 -->
<!-- Pages: 1 -->
<svg width="399pt" height="395pt"
 viewBox="0.00 0.00 399.50 395.39" xmlns="http://www.w3.org/2000/svg" xmlns:xlink="http://www.w3.org/1999/xlink">
<g id="graph0" class="graph" transform="scale(1 1) rotate(0) translate(4 391.39)">
<polygon fill="white" stroke="transparent" points="-4,4 -4,-391.39 395.5,-391.39 395.5,4 -4,4"/>
<!-- 4574314416 -->
<g id="node1" class="node">
<title>4574314416</title>
<ellipse fill="lightblue" stroke="black" cx="146" cy="-369.19" rx="18.4" ry="18.4"/>
<text text-anchor="middle" x="146" y="-365.49" font-family="Helvetica,sans-Serif" font-size="14.00">O</text>
</g>
<!-- 4574309472 -->
<g id="node2" class="node">
<title>4574309472</title>
<ellipse fill="lightblue" stroke="black" cx="66" cy="-311" rx="18" ry="18"/>
<text text-anchor="middle" x="66" y="-307.3" font-family="Helvetica,sans-Serif" font-size="14.00">B</text>
</g>
<!-- 4574314416&#45;&gt;4574309472 -->
<g id="edge1" class="edge">
<title>4574314416&#45;&gt;4574309472</title>
<path fill="none" stroke="black" d="M131.33,-357.89C118.16,-348.64 98.78,-335.03 84.55,-325.03"/>
<polygon fill="black" stroke="black" points="85.41,-323.49 80.31,-322.05 83.4,-326.36 85.41,-323.49"/>
</g>
<!-- 796958 -->
<!-- 4574314416&#45;&gt;796958 -->
<!-- 4574310624 -->
<g id="node4" class="node">
<title>4574310624</title>
<ellipse fill="lightblue" stroke="black" cx="227" cy="-311" rx="18" ry="18"/>
<text text-anchor="middle" x="227" y="-307.3" font-family="Helvetica,sans-Serif" font-size="14.00">S</text>
</g>
<!-- 4574314416&#45;&gt;4574310624 -->
<g id="edge3" class="edge">
<title>4574314416&#45;&gt;4574310624</title>
<path fill="none" stroke="black" d="M160.48,-358.15C173.84,-348.88 193.76,-335.06 208.31,-324.96"/>
<polygon fill="black" stroke="black" points="209.53,-326.24 212.64,-321.96 207.54,-323.37 209.53,-326.24"/>
</g>
<!-- 4574692176 -->
<g id="node5" class="node">
<title>4574692176</title>
<ellipse fill="lightblue" stroke="black" cx="18" cy="-253" rx="18" ry="18"/>
<text text-anchor="middle" x="18" y="-249.3" font-family="Helvetica,sans-Serif" font-size="14.00">A</text>
</g>
<!-- 4574309472&#45;&gt;4574692176 -->
<g id="edge4" class="edge">
<title>4574309472&#45;&gt;4574692176</title>
<path fill="none" stroke="black" d="M54.62,-296.73C48.05,-289.05 39.71,-279.32 32.64,-271.08"/>
<polygon fill="black" stroke="black" points="33.88,-269.83 29.29,-267.17 31.22,-272.11 33.88,-269.83"/>
</g>
<!-- 435347 -->
<!-- 4574309472&#45;&gt;435347 -->
<!-- 4574313168 -->
<g id="node7" class="node">
<title>4574313168</title>
<ellipse fill="lightblue" stroke="black" cx="114" cy="-253" rx="18" ry="18"/>
<text text-anchor="middle" x="114" y="-249.3" font-family="Helvetica,sans-Serif" font-size="14.00">L</text>
</g>
<!-- 4574309472&#45;&gt;4574313168 -->
<g id="edge6" class="edge">
<title>4574309472&#45;&gt;4574313168</title>
<path fill="none" stroke="black" d="M77.38,-296.73C83.95,-289.05 92.29,-279.32 99.36,-271.08"/>
<polygon fill="black" stroke="black" points="100.78,-272.11 102.71,-267.17 98.12,-269.83 100.78,-272.11"/>
</g>
<!-- 452314 -->
<!-- 4574310624&#45;&gt;452314 -->
<!-- 599478 -->
<!-- 4574310624&#45;&gt;599478 -->
<!-- 4574313792 -->
<g id="node22" class="node">
<title>4574313792</title>
<ellipse fill="lightblue" stroke="black" cx="275" cy="-253" rx="18" ry="18"/>
<text text-anchor="middle" x="275" y="-249.3" font-family="Helvetica,sans-Serif" font-size="14.00">T</text>
</g>
<!-- 4574310624&#45;&gt;4574313792 -->
<g id="edge21" class="edge">
<title>4574310624&#45;&gt;4574313792</title>
<path fill="none" stroke="black" d="M238.38,-296.73C244.95,-289.05 253.29,-279.32 260.36,-271.08"/>
<polygon fill="black" stroke="black" points="261.78,-272.11 263.71,-267.17 259.12,-269.83 261.78,-272.11"/>
</g>
<!-- 4574307648 -->
<g id="node8" class="node">
<title>4574307648</title>
<ellipse fill="lightblue" stroke="black" cx="66" cy="-195" rx="18" ry="18"/>
<text text-anchor="middle" x="66" y="-191.3" font-family="Helvetica,sans-Serif" font-size="14.00">H</text>
</g>
<!-- 4574313168&#45;&gt;4574307648 -->
<g id="edge7" class="edge">
<title>4574313168&#45;&gt;4574307648</title>
<path fill="none" stroke="black" d="M102.62,-238.73C96.05,-231.05 87.71,-221.32 80.64,-213.08"/>
<polygon fill="black" stroke="black" points="81.88,-211.83 77.29,-209.17 79.22,-214.11 81.88,-211.83"/>
</g>
<!-- 171589 -->
<!-- 4574313168&#45;&gt;171589 -->
<!-- 136367 -->
<!-- 4574313168&#45;&gt;136367 -->
<!-- 4574705760 -->
<g id="node11" class="node">
<title>4574705760</title>
<ellipse fill="lightblue" stroke="black" cx="18" cy="-137" rx="18" ry="18"/>
<text text-anchor="middle" x="18" y="-133.3" font-family="Helvetica,sans-Serif" font-size="14.00">E</text>
</g>
<!-- 4574307648&#45;&gt;4574705760 -->
<g id="edge10" class="edge">
<title>4574307648&#45;&gt;4574705760</title>
<path fill="none" stroke="black" d="M54.62,-180.73C48.05,-173.05 39.71,-163.32 32.64,-155.08"/>
<polygon fill="black" stroke="black" points="33.88,-153.83 29.29,-151.17 31.22,-156.11 33.88,-153.83"/>
</g>
<!-- 686244 -->
<!-- 4574307648&#45;&gt;686244 -->
<!-- 4574298720 -->
<g id="node13" class="node">
<title>4574298720</title>
<ellipse fill="lightblue" stroke="black" cx="114" cy="-137" rx="18" ry="18"/>
<text text-anchor="middle" x="114" y="-133.3" font-family="Helvetica,sans-Serif" font-size="14.00">I</text>
</g>
<!-- 4574307648&#45;&gt;4574298720 -->
<g id="edge12" class="edge">
<title>4574307648&#45;&gt;4574298720</title>
<path fill="none" stroke="black" d="M77.38,-180.73C83.95,-173.05 92.29,-163.32 99.36,-155.08"/>
<polygon fill="black" stroke="black" points="100.78,-156.11 102.71,-151.17 98.12,-153.83 100.78,-156.11"/>
</g>
<!-- 714353 -->
<!-- 4574298720&#45;&gt;714353 -->
<!-- 70717 -->
<!-- 4574298720&#45;&gt;70717 -->
<!-- 4574308416 -->
<g id="node16" class="node">
<title>4574308416</title>
<ellipse fill="lightblue" stroke="black" cx="162" cy="-79" rx="18" ry="18"/>
<text text-anchor="middle" x="162" y="-75.3" font-family="Helvetica,sans-Serif" font-size="14.00">J</text>
</g>
<!-- 4574298720&#45;&gt;4574308416 -->
<g id="edge15" class="edge">
<title>4574298720&#45;&gt;4574308416</title>
<path fill="none" stroke="black" d="M125.38,-122.73C131.95,-115.05 140.29,-105.32 147.36,-97.08"/>
<polygon fill="black" stroke="black" points="148.78,-98.11 150.71,-93.17 146.12,-95.83 148.78,-98.11"/>
</g>
<!-- 969764 -->
<!-- 4574308416&#45;&gt;969764 -->
<!-- 851758 -->
<!-- 4574308416&#45;&gt;851758 -->
<!-- 4574704944 -->
<g id="node19" class="node">
<title>4574704944</title>
<ellipse fill="lightblue" stroke="black" cx="210" cy="-19.5" rx="18" ry="18"/>
<text text-anchor="middle" x="210" y="-15.8" font-family="Helvetica,sans-Serif" font-size="14.00">K</text>
</g>
<!-- 4574308416&#45;&gt;4574704944 -->
<g id="edge18" class="edge">
<title>4574308416&#45;&gt;4574704944</title>
<path fill="none" stroke="black" d="M173.13,-64.66C179.8,-56.68 188.34,-46.44 195.52,-37.84"/>
<polygon fill="black" stroke="black" points="197.07,-38.72 198.93,-33.76 194.38,-36.48 197.07,-38.72"/>
</g>
<!-- 355810 -->
<!-- 4574313792&#45;&gt;355810 -->
<!-- 524625 -->
<!-- 4574313792&#45;&gt;524625 -->
<!-- 4574300544 -->
<g id="node25" class="node">
<title>4574300544</title>
<ellipse fill="lightblue" stroke="black" cx="323" cy="-195" rx="18" ry="18"/>
<text text-anchor="middle" x="323" y="-191.3" font-family="Helvetica,sans-Serif" font-size="14.00">X</text>
</g>
<!-- 4574313792&#45;&gt;4574300544 -->
<g id="edge24" class="edge">
<title>4574313792&#45;&gt;4574300544</title>
<path fill="none" stroke="black" d="M286.38,-238.73C292.95,-231.05 301.29,-221.32 308.36,-213.08"/>
<polygon fill="black" stroke="black" points="309.78,-214.11 311.71,-209.17 307.12,-211.83 309.78,-214.11"/>
</g>
<!-- 4574693808 -->
<g id="node26" class="node">
<title>4574693808</title>
<ellipse fill="lightblue" stroke="black" cx="275" cy="-137" rx="18" ry="18"/>
<text text-anchor="middle" x="275" y="-133.3" font-family="Helvetica,sans-Serif" font-size="14.00">U</text>
</g>
<!-- 4574300544&#45;&gt;4574693808 -->
<g id="edge25" class="edge">
<title>4574300544&#45;&gt;4574693808</title>
<path fill="none" stroke="black" d="M311.62,-180.73C305.05,-173.05 296.71,-163.32 289.64,-155.08"/>
<polygon fill="black" stroke="black" points="290.88,-153.83 286.29,-151.17 288.22,-156.11 290.88,-153.83"/>
</g>
<!-- 961342 -->
<!-- 4574300544&#45;&gt;961342 -->
<!-- 544652 -->
<!-- 4574300544&#45;&gt;544652 -->
<!-- 452618 -->
<!-- 4574693808&#45;&gt;452618 -->
<!-- 289561 -->
<!-- 4574693808&#45;&gt;289561 -->
<!-- 4574697552 -->
<g id="node31" class="node">
<title>4574697552</title>
<ellipse fill="lightblue" stroke="black" cx="323" cy="-79" rx="18" ry="18"/>
<text text-anchor="middle" x="323" y="-75.3" font-family="Helvetica,sans-Serif" font-size="14.00">V</text>
</g>
<!-- 4574693808&#45;&gt;4574697552 -->
<g id="edge30" class="edge">
<title>4574693808&#45;&gt;4574697552</title>
<path fill="none" stroke="black" d="M286.38,-122.73C292.95,-115.05 301.29,-105.32 308.36,-97.08"/>
<polygon fill="black" stroke="black" points="309.78,-98.11 311.71,-93.17 307.12,-95.83 309.78,-98.11"/>
</g>
<!-- 590564 -->
<!-- 4574697552&#45;&gt;590564 -->
<!-- 876049 -->
<!-- 4574697552&#45;&gt;876049 -->
<!-- 4574705616 -->
<g id="node34" class="node">
<title>4574705616</title>
<ellipse fill="lightblue" stroke="black" cx="372" cy="-19.5" rx="19.5" ry="19.5"/>
<text text-anchor="middle" x="372" y="-15.8" font-family="Helvetica,sans-Serif" font-size="14.00">W</text>
</g>
<!-- 4574697552&#45;&gt;4574705616 -->
<g id="edge33" class="edge">
<title>4574697552&#45;&gt;4574705616</title>
<path fill="none" stroke="black" d="M334.36,-64.66C340.88,-57.02 349.14,-47.32 356.27,-38.95"/>
<polygon fill="black" stroke="black" points="357.76,-39.91 359.67,-34.97 355.09,-37.64 357.76,-39.91"/>
</g>
</g>
</svg>
