<?xml version="1.0" encoding="UTF-8" standalone="no"?>
<!DOCTYPE svg PUBLIC "-//W3C//DTD SVG 1.1//EN"
 "http://www.w3.org/Graphics/SVG/1.1/DTD/svg11.dtd">
<!-- Generated by graphviz version 2.50.0 (0)
 -->
<!-- Pages: 1 -->
<svg width="511pt" height="455pt"
 viewBox="0.00 0.00 511.00 455.09" xmlns="http://www.w3.org/2000/svg" xmlns:xlink="http://www.w3.org/1999/xlink">
<g id="graph0" class="graph" transform="scale(1 1) rotate(0) translate(4 451.09)">
<polygon fill="white" stroke="transparent" points="-4,4 -4,-451.09 507,-451.09 507,4 -4,4"/>
<!-- 4574300832 -->
<g id="node1" class="node">
<title>4574300832</title>
<ellipse fill="lightblue" stroke="black" cx="404" cy="-429.09" rx="18" ry="18"/>
<text text-anchor="middle" x="404" y="-425.39" font-family="Helvetica,sans-Serif" font-size="14.00">Y</text>
</g>
<!-- 4574299440 -->
<g id="node2" class="node">
<title>4574299440</title>
<ellipse fill="lightblue" stroke="black" cx="356" cy="-371.09" rx="18" ry="18"/>
<text text-anchor="middle" x="356" y="-367.39" font-family="Helvetica,sans-Serif" font-size="14.00">V</text>
</g>
<!-- 4574300832&#45;&gt;4574299440 -->
<g id="edge1" class="edge">
<title>4574300832&#45;&gt;4574299440</title>
<path fill="none" stroke="black" d="M392.62,-414.82C386.05,-407.15 377.71,-397.41 370.64,-389.17"/>
<polygon fill="black" stroke="black" points="371.88,-387.92 367.29,-385.27 369.22,-390.2 371.88,-387.92"/>
</g>
<!-- 599641 -->
<!-- 4574300832&#45;&gt;599641 -->
<!-- 140013 -->
<!-- 4574300832&#45;&gt;140013 -->
<!-- 4574312640 -->
<g id="node5" class="node">
<title>4574312640</title>
<ellipse fill="lightblue" stroke="black" cx="276" cy="-311.59" rx="18" ry="18"/>
<text text-anchor="middle" x="276" y="-307.89" font-family="Helvetica,sans-Serif" font-size="14.00">J</text>
</g>
<!-- 4574299440&#45;&gt;4574312640 -->
<g id="edge4" class="edge">
<title>4574299440&#45;&gt;4574312640</title>
<path fill="none" stroke="black" d="M341.7,-359.81C328.5,-350.33 308.83,-336.19 294.46,-325.86"/>
<polygon fill="black" stroke="black" points="295.26,-324.28 290.18,-322.78 293.22,-327.12 295.26,-324.28"/>
</g>
<!-- 640204 -->
<!-- 4574299440&#45;&gt;640204 -->
<!-- 4574311056 -->
<g id="node7" class="node">
<title>4574311056</title>
<ellipse fill="lightblue" stroke="black" cx="437" cy="-311.59" rx="19.5" ry="19.5"/>
<text text-anchor="middle" x="437" y="-307.89" font-family="Helvetica,sans-Serif" font-size="14.00">W</text>
</g>
<!-- 4574299440&#45;&gt;4574311056 -->
<g id="edge6" class="edge">
<title>4574299440&#45;&gt;4574311056</title>
<path fill="none" stroke="black" d="M370.48,-359.81C383.51,-350.56 402.78,-336.89 417.22,-326.63"/>
<polygon fill="black" stroke="black" points="418.48,-327.89 421.54,-323.57 416.45,-325.03 418.48,-327.89"/>
</g>
<!-- 4574298720 -->
<g id="node8" class="node">
<title>4574298720</title>
<ellipse fill="lightblue" stroke="black" cx="66" cy="-252.09" rx="18" ry="18"/>
<text text-anchor="middle" x="66" y="-248.39" font-family="Helvetica,sans-Serif" font-size="14.00">A</text>
</g>
<!-- 4574312640&#45;&gt;4574298720 -->
<g id="edge7" class="edge">
<title>4574312640&#45;&gt;4574298720</title>
<path fill="none" stroke="black" d="M258.81,-305.89C220.88,-295.5 130.02,-270.62 88,-259.12"/>
<polygon fill="black" stroke="black" points="88.41,-257.42 83.13,-257.78 87.49,-260.79 88.41,-257.42"/>
</g>
<!-- 240446 -->
<!-- 4574312640&#45;&gt;240446 -->
<!-- 4574312832 -->
<g id="node10" class="node">
<title>4574312832</title>
<ellipse fill="lightblue" stroke="black" cx="324" cy="-252.09" rx="18" ry="18"/>
<text text-anchor="middle" x="324" y="-248.39" font-family="Helvetica,sans-Serif" font-size="14.00">S</text>
</g>
<!-- 4574312640&#45;&gt;4574312832 -->
<g id="edge9" class="edge">
<title>4574312640&#45;&gt;4574312832</title>
<path fill="none" stroke="black" d="M287.13,-297.26C293.8,-289.27 302.34,-279.04 309.52,-270.43"/>
<polygon fill="black" stroke="black" points="311.07,-271.32 312.93,-266.36 308.38,-269.07 311.07,-271.32"/>
</g>
<!-- 908701 -->
<!-- 4574311056&#45;&gt;908701 -->
<!-- 770632 -->
<!-- 4574311056&#45;&gt;770632 -->
<!-- 4574313984 -->
<g id="node31" class="node">
<title>4574313984</title>
<ellipse fill="lightblue" stroke="black" cx="485" cy="-252.09" rx="18" ry="18"/>
<text text-anchor="middle" x="485" y="-248.39" font-family="Helvetica,sans-Serif" font-size="14.00">X</text>
</g>
<!-- 4574311056&#45;&gt;4574313984 -->
<g id="edge30" class="edge">
<title>4574311056&#45;&gt;4574313984</title>
<path fill="none" stroke="black" d="M449.11,-296.08C455.6,-288.31 463.65,-278.67 470.47,-270.49"/>
<polygon fill="black" stroke="black" points="471.85,-271.57 473.72,-266.61 469.17,-269.33 471.85,-271.57"/>
</g>
<!-- 357998 -->
<!-- 4574298720&#45;&gt;357998 -->
<!-- 368516 -->
<!-- 4574298720&#45;&gt;368516 -->
<!-- 4574313792 -->
<g id="node13" class="node">
<title>4574313792</title>
<ellipse fill="lightblue" stroke="black" cx="114" cy="-193.9" rx="18.4" ry="18.4"/>
<text text-anchor="middle" x="114" y="-190.2" font-family="Helvetica,sans-Serif" font-size="14.00">G</text>
</g>
<!-- 4574298720&#45;&gt;4574313792 -->
<g id="edge12" class="edge">
<title>4574298720&#45;&gt;4574313792</title>
<path fill="none" stroke="black" d="M77.38,-237.78C83.86,-230.19 92.05,-220.59 99.05,-212.4"/>
<polygon fill="black" stroke="black" points="100.46,-213.45 102.37,-208.51 97.79,-211.17 100.46,-213.45"/>
</g>
<!-- 4574312112 -->
<g id="node23" class="node">
<title>4574312112</title>
<ellipse fill="lightblue" stroke="black" cx="276" cy="-193.9" rx="18" ry="18"/>
<text text-anchor="middle" x="276" y="-190.2" font-family="Helvetica,sans-Serif" font-size="14.00">P</text>
</g>
<!-- 4574312832&#45;&gt;4574312112 -->
<g id="edge22" class="edge">
<title>4574312832&#45;&gt;4574312112</title>
<path fill="none" stroke="black" d="M312.62,-237.78C306.05,-230.08 297.71,-220.31 290.64,-212.04"/>
<polygon fill="black" stroke="black" points="291.87,-210.78 287.29,-208.12 289.21,-213.06 291.87,-210.78"/>
</g>
<!-- 350532 -->
<!-- 4574312832&#45;&gt;350532 -->
<!-- 4574338304 -->
<g id="node25" class="node">
<title>4574338304</title>
<ellipse fill="lightblue" stroke="black" cx="372" cy="-193.9" rx="18" ry="18"/>
<text text-anchor="middle" x="372" y="-190.2" font-family="Helvetica,sans-Serif" font-size="14.00">U</text>
</g>
<!-- 4574312832&#45;&gt;4574338304 -->
<g id="edge24" class="edge">
<title>4574312832&#45;&gt;4574338304</title>
<path fill="none" stroke="black" d="M335.38,-237.78C341.95,-230.08 350.29,-220.31 357.36,-212.04"/>
<polygon fill="black" stroke="black" points="358.79,-213.06 360.71,-208.12 356.13,-210.78 358.79,-213.06"/>
</g>
<!-- 4574312352 -->
<g id="node14" class="node">
<title>4574312352</title>
<ellipse fill="lightblue" stroke="black" cx="66" cy="-134.85" rx="18" ry="18"/>
<text text-anchor="middle" x="66" y="-131.15" font-family="Helvetica,sans-Serif" font-size="14.00">C</text>
</g>
<!-- 4574313792&#45;&gt;4574312352 -->
<g id="edge13" class="edge">
<title>4574313792&#45;&gt;4574312352</title>
<path fill="none" stroke="black" d="M102.62,-179.38C96.05,-171.56 87.71,-161.65 80.64,-153.25"/>
<polygon fill="black" stroke="black" points="81.85,-151.97 77.29,-149.27 79.17,-154.22 81.85,-151.97"/>
</g>
<!-- 409159 -->
<!-- 4574313792&#45;&gt;409159 -->
<!-- 193391 -->
<!-- 4574313792&#45;&gt;193391 -->
<!-- 4574343104 -->
<g id="node17" class="node">
<title>4574343104</title>
<ellipse fill="lightblue" stroke="black" cx="18" cy="-76" rx="18" ry="18"/>
<text text-anchor="middle" x="18" y="-72.3" font-family="Helvetica,sans-Serif" font-size="14.00">B</text>
</g>
<!-- 4574312352&#45;&gt;4574343104 -->
<g id="edge16" class="edge">
<title>4574312352&#45;&gt;4574343104</title>
<path fill="none" stroke="black" d="M54.87,-120.66C48.3,-112.88 39.9,-102.94 32.78,-94.51"/>
<polygon fill="black" stroke="black" points="33.97,-93.2 29.41,-90.51 31.29,-95.46 33.97,-93.2"/>
</g>
<!-- 437892 -->
<!-- 4574312352&#45;&gt;437892 -->
<!-- 4574311152 -->
<g id="node19" class="node">
<title>4574311152</title>
<ellipse fill="lightblue" stroke="black" cx="114" cy="-76" rx="18" ry="18"/>
<text text-anchor="middle" x="114" y="-72.3" font-family="Helvetica,sans-Serif" font-size="14.00">D</text>
</g>
<!-- 4574312352&#45;&gt;4574311152 -->
<g id="edge18" class="edge">
<title>4574312352&#45;&gt;4574311152</title>
<path fill="none" stroke="black" d="M77.13,-120.66C83.7,-112.88 92.1,-102.94 99.22,-94.51"/>
<polygon fill="black" stroke="black" points="100.71,-95.46 102.59,-90.51 98.03,-93.2 100.71,-95.46"/>
</g>
<!-- 309161 -->
<!-- 4574311152&#45;&gt;309161 -->
<!-- 232217 -->
<!-- 4574311152&#45;&gt;232217 -->
<!-- 4574337104 -->
<g id="node22" class="node">
<title>4574337104</title>
<ellipse fill="lightblue" stroke="black" cx="162" cy="-18" rx="18" ry="18"/>
<text text-anchor="middle" x="162" y="-14.3" font-family="Helvetica,sans-Serif" font-size="14.00">E</text>
</g>
<!-- 4574311152&#45;&gt;4574337104 -->
<g id="edge21" class="edge">
<title>4574311152&#45;&gt;4574337104</title>
<path fill="none" stroke="black" d="M125.38,-61.73C131.95,-54.06 140.29,-44.32 147.36,-36.08"/>
<polygon fill="black" stroke="black" points="148.78,-37.11 150.71,-32.18 146.12,-34.83 148.78,-37.11"/>
</g>
<!-- 4574694960 -->
<g id="node26" class="node">
<title>4574694960</title>
<ellipse fill="lightblue" stroke="black" cx="228" cy="-134.85" rx="18.7" ry="18.7"/>
<text text-anchor="middle" x="228" y="-131.15" font-family="Helvetica,sans-Serif" font-size="14.00">M</text>
</g>
<!-- 4574312112&#45;&gt;4574694960 -->
<g id="edge25" class="edge">
<title>4574312112&#45;&gt;4574694960</title>
<path fill="none" stroke="black" d="M264.87,-179.66C258.39,-171.97 250.15,-162.17 243.09,-153.79"/>
<polygon fill="black" stroke="black" points="244.3,-152.5 239.74,-149.8 241.62,-154.76 244.3,-152.5"/>
</g>
<!-- 215089 -->
<!-- 4574312112&#45;&gt;215089 -->
<!-- 214799 -->
<!-- 4574312112&#45;&gt;214799 -->
</g>
</svg>
