<?xml version="1.0" encoding="UTF-8" standalone="no"?>
<!DOCTYPE svg PUBLIC "-//W3C//DTD SVG 1.1//EN"
 "http://www.w3.org/Graphics/SVG/1.1/DTD/svg11.dtd">
<!-- Generated by graphviz version 2.50.0 (0)
 -->
<!-- Pages: 1 -->
<svg width="493pt" height="393pt"
 viewBox="0.00 0.00 493.00 392.79" xmlns="http://www.w3.org/2000/svg" xmlns:xlink="http://www.w3.org/1999/xlink">
<g id="graph0" class="graph" transform="scale(1 1) rotate(0) translate(4 388.79)">
<polygon fill="white" stroke="transparent" points="-4,4 -4,-388.79 489,-388.79 489,4 -4,4"/>
<!-- 4573817664 -->
<g id="node1" class="node">
<title>4573817664</title>
<ellipse fill="lightblue" stroke="black" cx="242" cy="-366.79" rx="18" ry="18"/>
<text text-anchor="middle" x="242" y="-363.09" font-family="Helvetica,sans-Serif" font-size="14.00">L</text>
</g>
<!-- 4574314416 -->
<g id="node2" class="node">
<title>4574314416</title>
<ellipse fill="lightblue" stroke="black" cx="66" cy="-308.79" rx="18" ry="18"/>
<text text-anchor="middle" x="66" y="-305.09" font-family="Helvetica,sans-Serif" font-size="14.00">B</text>
</g>
<!-- 4573817664&#45;&gt;4574314416 -->
<g id="edge1" class="edge">
<title>4573817664&#45;&gt;4574314416</title>
<path fill="none" stroke="black" d="M225.12,-360.42C193.14,-350.25 123.73,-328.16 88.09,-316.82"/>
<polygon fill="black" stroke="black" points="88.38,-315.08 83.08,-315.23 87.32,-318.41 88.38,-315.08"/>
</g>
<!-- 906345 -->
<!-- 4573817664&#45;&gt;906345 -->
<!-- 4574301312 -->
<g id="node4" class="node">
<title>4574301312</title>
<ellipse fill="lightblue" stroke="black" cx="419" cy="-308.79" rx="18" ry="18"/>
<text text-anchor="middle" x="419" y="-305.09" font-family="Helvetica,sans-Serif" font-size="14.00">Y</text>
</g>
<!-- 4573817664&#45;&gt;4574301312 -->
<g id="edge3" class="edge">
<title>4573817664&#45;&gt;4574301312</title>
<path fill="none" stroke="black" d="M258.97,-360.42C291.22,-350.22 361.3,-328.05 397.06,-316.73"/>
<polygon fill="black" stroke="black" points="397.84,-318.32 402.08,-315.15 396.78,-314.99 397.84,-318.32"/>
</g>
<!-- 729143 -->
<!-- 4574314416&#45;&gt;729143 -->
<!-- 818765 -->
<!-- 4574314416&#45;&gt;818765 -->
<!-- 4574308272 -->
<g id="node7" class="node">
<title>4574308272</title>
<ellipse fill="lightblue" stroke="black" cx="114" cy="-250.79" rx="18" ry="18"/>
<text text-anchor="middle" x="114" y="-247.09" font-family="Helvetica,sans-Serif" font-size="14.00">D</text>
</g>
<!-- 4574314416&#45;&gt;4574308272 -->
<g id="edge6" class="edge">
<title>4574314416&#45;&gt;4574308272</title>
<path fill="none" stroke="black" d="M77.38,-294.52C83.95,-286.85 92.29,-277.12 99.36,-268.88"/>
<polygon fill="black" stroke="black" points="100.78,-269.9 102.71,-264.97 98.12,-267.63 100.78,-269.9"/>
</g>
<!-- 4574307648 -->
<g id="node20" class="node">
<title>4574307648</title>
<ellipse fill="lightblue" stroke="black" cx="371" cy="-250.79" rx="18" ry="18"/>
<text text-anchor="middle" x="371" y="-247.09" font-family="Helvetica,sans-Serif" font-size="14.00">U</text>
</g>
<!-- 4574301312&#45;&gt;4574307648 -->
<g id="edge19" class="edge">
<title>4574301312&#45;&gt;4574307648</title>
<path fill="none" stroke="black" d="M407.62,-294.52C401.05,-286.85 392.71,-277.12 385.64,-268.88"/>
<polygon fill="black" stroke="black" points="386.88,-267.63 382.29,-264.97 384.22,-269.9 386.88,-267.63"/>
</g>
<!-- 345522 -->
<!-- 4574301312&#45;&gt;345522 -->
<!-- 936031 -->
<!-- 4574301312&#45;&gt;936031 -->
<!-- 861162 -->
<!-- 4574308272&#45;&gt;861162 -->
<!-- 417784 -->
<!-- 4574308272&#45;&gt;417784 -->
<!-- 4574310672 -->
<g id="node10" class="node">
<title>4574310672</title>
<ellipse fill="lightblue" stroke="black" cx="162" cy="-192.79" rx="18" ry="18"/>
<text text-anchor="middle" x="162" y="-189.09" font-family="Helvetica,sans-Serif" font-size="14.00">H</text>
</g>
<!-- 4574308272&#45;&gt;4574310672 -->
<g id="edge9" class="edge">
<title>4574308272&#45;&gt;4574310672</title>
<path fill="none" stroke="black" d="M125.38,-236.52C131.95,-228.85 140.29,-219.12 147.36,-210.88"/>
<polygon fill="black" stroke="black" points="148.78,-211.9 150.71,-206.97 146.12,-209.63 148.78,-211.9"/>
</g>
<!-- 4574311776 -->
<g id="node11" class="node">
<title>4574311776</title>
<ellipse fill="lightblue" stroke="black" cx="114" cy="-134.6" rx="18" ry="18"/>
<text text-anchor="middle" x="114" y="-130.9" font-family="Helvetica,sans-Serif" font-size="14.00">E</text>
</g>
<!-- 4574310672&#45;&gt;4574311776 -->
<g id="edge10" class="edge">
<title>4574310672&#45;&gt;4574311776</title>
<path fill="none" stroke="black" d="M150.62,-178.48C144.05,-170.78 135.71,-161.01 128.64,-152.74"/>
<polygon fill="black" stroke="black" points="129.87,-151.48 125.29,-148.82 127.21,-153.76 129.87,-151.48"/>
</g>
<!-- 204960 -->
<!-- 4574310672&#45;&gt;204960 -->
<!-- 99636 -->
<!-- 4574310672&#45;&gt;99636 -->
<!-- 925590 -->
<!-- 4574311776&#45;&gt;925590 -->
<!-- 304605 -->
<!-- 4574311776&#45;&gt;304605 -->
<!-- 4574311680 -->
<g id="node16" class="node">
<title>4574311680</title>
<ellipse fill="lightblue" stroke="black" cx="162" cy="-76.2" rx="18.4" ry="18.4"/>
<text text-anchor="middle" x="162" y="-72.5" font-family="Helvetica,sans-Serif" font-size="14.00">G</text>
</g>
<!-- 4574311776&#45;&gt;4574311680 -->
<g id="edge15" class="edge">
<title>4574311776&#45;&gt;4574311680</title>
<path fill="none" stroke="black" d="M125.38,-120.23C131.86,-112.62 140.05,-102.99 147.05,-94.77"/>
<polygon fill="black" stroke="black" points="148.46,-95.8 150.37,-90.86 145.8,-93.53 148.46,-95.8"/>
</g>
<!-- 4574302944 -->
<g id="node17" class="node">
<title>4574302944</title>
<ellipse fill="lightblue" stroke="black" cx="114" cy="-18" rx="18" ry="18"/>
<text text-anchor="middle" x="114" y="-14.3" font-family="Helvetica,sans-Serif" font-size="14.00">F</text>
</g>
<!-- 4574311680&#45;&gt;4574302944 -->
<g id="edge16" class="edge">
<title>4574311680&#45;&gt;4574302944</title>
<path fill="none" stroke="black" d="M150.62,-61.88C144.05,-54.18 135.71,-44.41 128.64,-36.15"/>
<polygon fill="black" stroke="black" points="129.87,-34.89 125.29,-32.22 127.21,-37.16 129.87,-34.89"/>
</g>
<!-- 109872 -->
<!-- 4574311680&#45;&gt;109872 -->
<!-- 960101 -->
<!-- 4574311680&#45;&gt;960101 -->
<!-- 4574300880 -->
<g id="node23" class="node">
<title>4574300880</title>
<ellipse fill="lightblue" stroke="black" cx="323" cy="-192.79" rx="18" ry="18"/>
<text text-anchor="middle" x="323" y="-189.09" font-family="Helvetica,sans-Serif" font-size="14.00">S</text>
</g>
<!-- 4574307648&#45;&gt;4574300880 -->
<g id="edge22" class="edge">
<title>4574307648&#45;&gt;4574300880</title>
<path fill="none" stroke="black" d="M359.62,-236.52C353.05,-228.85 344.71,-219.12 337.64,-210.88"/>
<polygon fill="black" stroke="black" points="338.88,-209.63 334.29,-206.97 336.22,-211.9 338.88,-209.63"/>
</g>
<!-- 379143 -->
<!-- 4574307648&#45;&gt;379143 -->
<!-- 4574309328 -->
<g id="node25" class="node">
<title>4574309328</title>
<ellipse fill="lightblue" stroke="black" cx="419" cy="-192.79" rx="18" ry="18"/>
<text text-anchor="middle" x="419" y="-189.09" font-family="Helvetica,sans-Serif" font-size="14.00">X</text>
</g>
<!-- 4574307648&#45;&gt;4574309328 -->
<g id="edge24" class="edge">
<title>4574307648&#45;&gt;4574309328</title>
<path fill="none" stroke="black" d="M382.38,-236.52C388.95,-228.85 397.29,-219.12 404.36,-210.88"/>
<polygon fill="black" stroke="black" points="405.78,-211.9 407.71,-206.97 403.12,-209.63 405.78,-211.9"/>
</g>
<!-- 4574307408 -->
<g id="node26" class="node">
<title>4574307408</title>
<ellipse fill="lightblue" stroke="black" cx="275" cy="-134.6" rx="18.4" ry="18.4"/>
<text text-anchor="middle" x="275" y="-130.9" font-family="Helvetica,sans-Serif" font-size="14.00">O</text>
</g>
<!-- 4574300880&#45;&gt;4574307408 -->
<g id="edge25" class="edge">
<title>4574300880&#45;&gt;4574307408</title>
<path fill="none" stroke="black" d="M311.62,-178.48C305.14,-170.89 296.95,-161.29 289.95,-153.1"/>
<polygon fill="black" stroke="black" points="291.21,-151.87 286.63,-149.21 288.54,-154.15 291.21,-151.87"/>
</g>
<!-- 781144 -->
<!-- 4574300880&#45;&gt;781144 -->
<!-- 4574311056 -->
<g id="node28" class="node">
<title>4574311056</title>
<ellipse fill="lightblue" stroke="black" cx="371" cy="-134.6" rx="18" ry="18"/>
<text text-anchor="middle" x="371" y="-130.9" font-family="Helvetica,sans-Serif" font-size="14.00">T</text>
</g>
<!-- 4574300880&#45;&gt;4574311056 -->
<g id="edge27" class="edge">
<title>4574300880&#45;&gt;4574311056</title>
<path fill="none" stroke="black" d="M334.38,-178.48C340.95,-170.78 349.29,-161.01 356.36,-152.74"/>
<polygon fill="black" stroke="black" points="357.79,-153.76 359.71,-148.82 355.13,-151.48 357.79,-153.76"/>
</g>
<!-- 4574314224 -->
<g id="node29" class="node">
<title>4574314224</title>
<ellipse fill="lightblue" stroke="black" cx="227" cy="-76.2" rx="18" ry="18"/>
<text text-anchor="middle" x="227" y="-72.5" font-family="Helvetica,sans-Serif" font-size="14.00">N</text>
</g>
<!-- 4574307408&#45;&gt;4574314224 -->
<g id="edge28" class="edge">
<title>4574307408&#45;&gt;4574314224</title>
<path fill="none" stroke="black" d="M263.62,-120.23C257.05,-112.5 248.71,-102.7 241.64,-94.4"/>
<polygon fill="black" stroke="black" points="242.87,-93.14 238.29,-90.47 240.2,-95.41 242.87,-93.14"/>
</g>
<!-- 94581 -->
<!-- 4574307408&#45;&gt;94581 -->
<!-- 4574311152 -->
<g id="node31" class="node">
<title>4574311152</title>
<ellipse fill="lightblue" stroke="black" cx="323" cy="-76.2" rx="18" ry="18"/>
<text text-anchor="middle" x="323" y="-72.5" font-family="Helvetica,sans-Serif" font-size="14.00">P</text>
</g>
<!-- 4574307408&#45;&gt;4574311152 -->
<g id="edge30" class="edge">
<title>4574307408&#45;&gt;4574311152</title>
<path fill="none" stroke="black" d="M286.38,-120.23C292.95,-112.5 301.29,-102.7 308.36,-94.4"/>
<polygon fill="black" stroke="black" points="309.8,-95.41 311.71,-90.47 307.13,-93.14 309.8,-95.41"/>
</g>
</g>
</svg>
