<?xml version="1.0" encoding="UTF-8" standalone="no"?>
<!DOCTYPE svg PUBLIC "-//W3C//DTD SVG 1.1//EN"
 "http://www.w3.org/Graphics/SVG/1.1/DTD/svg11.dtd">
<!-- Generated by graphviz version 2.50.0 (0)
 -->
<!-- Pages: 1 -->
<svg width="512pt" height="453pt"
 viewBox="0.00 0.00 512.00 453.00" xmlns="http://www.w3.org/2000/svg" xmlns:xlink="http://www.w3.org/1999/xlink">
<g id="graph0" class="graph" transform="scale(1 1) rotate(0) translate(4 449)">
<polygon fill="white" stroke="transparent" points="-4,4 -4,-449 508,-449 508,4 -4,4"/>
<!-- 4574345648 -->
<g id="node1" class="node">
<title>4574345648</title>
<ellipse fill="lightblue" stroke="black" cx="98" cy="-427" rx="18" ry="18"/>
<text text-anchor="middle" x="98" y="-423.3" font-family="Helvetica,sans-Serif" font-size="14.00">A</text>
</g>
<!-- 351094 -->
<!-- 4574345648&#45;&gt;351094 -->
<!-- 849154 -->
<!-- 4574345648&#45;&gt;849154 -->
<!-- 4574336720 -->
<g id="node4" class="node">
<title>4574336720</title>
<ellipse fill="lightblue" stroke="black" cx="146" cy="-369" rx="18" ry="18"/>
<text text-anchor="middle" x="146" y="-365.3" font-family="Helvetica,sans-Serif" font-size="14.00">B</text>
</g>
<!-- 4574345648&#45;&gt;4574336720 -->
<g id="edge3" class="edge">
<title>4574345648&#45;&gt;4574336720</title>
<path fill="none" stroke="black" d="M109.38,-412.73C115.95,-405.05 124.29,-395.32 131.36,-387.08"/>
<polygon fill="black" stroke="black" points="132.78,-388.11 134.71,-383.17 130.12,-385.83 132.78,-388.11"/>
</g>
<!-- 841653 -->
<!-- 4574336720&#45;&gt;841653 -->
<!-- 500693 -->
<!-- 4574336720&#45;&gt;500693 -->
<!-- 4574337104 -->
<g id="node7" class="node">
<title>4574337104</title>
<ellipse fill="lightblue" stroke="black" cx="194" cy="-311" rx="18" ry="18"/>
<text text-anchor="middle" x="194" y="-307.3" font-family="Helvetica,sans-Serif" font-size="14.00">J</text>
</g>
<!-- 4574336720&#45;&gt;4574337104 -->
<g id="edge6" class="edge">
<title>4574336720&#45;&gt;4574337104</title>
<path fill="none" stroke="black" d="M157.38,-354.73C163.95,-347.05 172.29,-337.32 179.36,-329.08"/>
<polygon fill="black" stroke="black" points="180.78,-330.11 182.71,-325.17 178.12,-327.83 180.78,-330.11"/>
</g>
<!-- 4574309472 -->
<g id="node8" class="node">
<title>4574309472</title>
<ellipse fill="lightblue" stroke="black" cx="66" cy="-253" rx="18" ry="18"/>
<text text-anchor="middle" x="66" y="-249.3" font-family="Helvetica,sans-Serif" font-size="14.00">D</text>
</g>
<!-- 4574337104&#45;&gt;4574309472 -->
<g id="edge7" class="edge">
<title>4574337104&#45;&gt;4574309472</title>
<path fill="none" stroke="black" d="M177.79,-302.9C154.83,-292.86 112.82,-274.48 87.35,-263.34"/>
<polygon fill="black" stroke="black" points="87.77,-261.61 82.48,-261.21 86.36,-264.82 87.77,-261.61"/>
</g>
<!-- 180713 -->
<!-- 4574337104&#45;&gt;180713 -->
<!-- 4574307648 -->
<g id="node10" class="node">
<title>4574307648</title>
<ellipse fill="lightblue" stroke="black" cx="323" cy="-253" rx="18" ry="18"/>
<text text-anchor="middle" x="323" y="-249.3" font-family="Helvetica,sans-Serif" font-size="14.00">V</text>
</g>
<!-- 4574337104&#45;&gt;4574307648 -->
<g id="edge9" class="edge">
<title>4574337104&#45;&gt;4574307648</title>
<path fill="none" stroke="black" d="M210.34,-302.9C233.6,-292.81 276.28,-274.28 301.91,-263.15"/>
<polygon fill="black" stroke="black" points="302.91,-264.63 306.79,-261.03 301.51,-261.42 302.91,-264.63"/>
</g>
<!-- 4574308416 -->
<g id="node11" class="node">
<title>4574308416</title>
<ellipse fill="lightblue" stroke="black" cx="18" cy="-195" rx="18" ry="18"/>
<text text-anchor="middle" x="18" y="-191.3" font-family="Helvetica,sans-Serif" font-size="14.00">C</text>
</g>
<!-- 4574309472&#45;&gt;4574308416 -->
<g id="edge10" class="edge">
<title>4574309472&#45;&gt;4574308416</title>
<path fill="none" stroke="black" d="M54.62,-238.73C48.05,-231.05 39.71,-221.32 32.64,-213.08"/>
<polygon fill="black" stroke="black" points="33.88,-211.83 29.29,-209.17 31.22,-214.11 33.88,-211.83"/>
</g>
<!-- 974922 -->
<!-- 4574309472&#45;&gt;974922 -->
<!-- 4574310624 -->
<g id="node13" class="node">
<title>4574310624</title>
<ellipse fill="lightblue" stroke="black" cx="114" cy="-195" rx="18" ry="18"/>
<text text-anchor="middle" x="114" y="-191.3" font-family="Helvetica,sans-Serif" font-size="14.00">F</text>
</g>
<!-- 4574309472&#45;&gt;4574310624 -->
<g id="edge12" class="edge">
<title>4574309472&#45;&gt;4574310624</title>
<path fill="none" stroke="black" d="M77.38,-238.73C83.95,-231.05 92.29,-221.32 99.36,-213.08"/>
<polygon fill="black" stroke="black" points="100.78,-214.11 102.71,-209.17 98.12,-211.83 100.78,-214.11"/>
</g>
<!-- 4574301840 -->
<g id="node17" class="node">
<title>4574301840</title>
<ellipse fill="lightblue" stroke="black" cx="275" cy="-195" rx="18" ry="18"/>
<text text-anchor="middle" x="275" y="-191.3" font-family="Helvetica,sans-Serif" font-size="14.00">L</text>
</g>
<!-- 4574307648&#45;&gt;4574301840 -->
<g id="edge16" class="edge">
<title>4574307648&#45;&gt;4574301840</title>
<path fill="none" stroke="black" d="M311.62,-238.73C305.05,-231.05 296.71,-221.32 289.64,-213.08"/>
<polygon fill="black" stroke="black" points="290.88,-211.83 286.29,-209.17 288.22,-214.11 290.88,-211.83"/>
</g>
<!-- 143621 -->
<!-- 4574307648&#45;&gt;143621 -->
<!-- 4574309808 -->
<g id="node19" class="node">
<title>4574309808</title>
<ellipse fill="lightblue" stroke="black" cx="438" cy="-195" rx="18" ry="18"/>
<text text-anchor="middle" x="438" y="-191.3" font-family="Helvetica,sans-Serif" font-size="14.00">X</text>
</g>
<!-- 4574307648&#45;&gt;4574309808 -->
<g id="edge18" class="edge">
<title>4574307648&#45;&gt;4574309808</title>
<path fill="none" stroke="black" d="M338.99,-244.21C359.5,-234.22 395.1,-216.88 417.56,-205.95"/>
<polygon fill="black" stroke="black" points="418.42,-207.48 422.15,-203.72 416.88,-204.33 418.42,-207.48"/>
</g>
<!-- 4574312352 -->
<g id="node14" class="node">
<title>4574312352</title>
<ellipse fill="lightblue" stroke="black" cx="66" cy="-135.5" rx="18" ry="18"/>
<text text-anchor="middle" x="66" y="-131.8" font-family="Helvetica,sans-Serif" font-size="14.00">E</text>
</g>
<!-- 4574310624&#45;&gt;4574312352 -->
<g id="edge13" class="edge">
<title>4574310624&#45;&gt;4574312352</title>
<path fill="none" stroke="black" d="M102.87,-180.66C96.2,-172.68 87.66,-162.44 80.48,-153.84"/>
<polygon fill="black" stroke="black" points="81.62,-152.48 77.07,-149.76 78.93,-154.72 81.62,-152.48"/>
</g>
<!-- 47055 -->
<!-- 4574310624&#45;&gt;47055 -->
<!-- 892465 -->
<!-- 4574310624&#45;&gt;892465 -->
<!-- 4574300976 -->
<g id="node20" class="node">
<title>4574300976</title>
<ellipse fill="lightblue" stroke="black" cx="227" cy="-135.5" rx="18" ry="18"/>
<text text-anchor="middle" x="227" y="-131.8" font-family="Helvetica,sans-Serif" font-size="14.00">K</text>
</g>
<!-- 4574301840&#45;&gt;4574300976 -->
<g id="edge19" class="edge">
<title>4574301840&#45;&gt;4574300976</title>
<path fill="none" stroke="black" d="M263.87,-180.66C257.2,-172.68 248.66,-162.44 241.48,-153.84"/>
<polygon fill="black" stroke="black" points="242.62,-152.48 238.07,-149.76 239.93,-154.72 242.62,-152.48"/>
</g>
<!-- 726496 -->
<!-- 4574301840&#45;&gt;726496 -->
<!-- 4574313168 -->
<g id="node22" class="node">
<title>4574313168</title>
<ellipse fill="lightblue" stroke="black" cx="323" cy="-135.5" rx="18" ry="18"/>
<text text-anchor="middle" x="323" y="-131.8" font-family="Helvetica,sans-Serif" font-size="14.00">N</text>
</g>
<!-- 4574301840&#45;&gt;4574313168 -->
<g id="edge21" class="edge">
<title>4574301840&#45;&gt;4574313168</title>
<path fill="none" stroke="black" d="M286.13,-180.66C292.8,-172.68 301.34,-162.44 308.52,-153.84"/>
<polygon fill="black" stroke="black" points="310.07,-154.72 311.93,-149.76 307.38,-152.48 310.07,-154.72"/>
</g>
<!-- 4574692272 -->
<g id="node29" class="node">
<title>4574692272</title>
<ellipse fill="lightblue" stroke="black" cx="389" cy="-135.5" rx="19.5" ry="19.5"/>
<text text-anchor="middle" x="389" y="-131.8" font-family="Helvetica,sans-Serif" font-size="14.00">W</text>
</g>
<!-- 4574309808&#45;&gt;4574692272 -->
<g id="edge28" class="edge">
<title>4574309808&#45;&gt;4574692272</title>
<path fill="none" stroke="black" d="M426.64,-180.66C420.12,-173.02 411.86,-163.32 404.73,-154.95"/>
<polygon fill="black" stroke="black" points="405.91,-153.64 401.33,-150.97 403.24,-155.91 405.91,-153.64"/>
</g>
<!-- 785330 -->
<!-- 4574309808&#45;&gt;785330 -->
<!-- 424910 -->
<!-- 4574309808&#45;&gt;424910 -->
<!-- 952017 -->
<!-- 4574313168&#45;&gt;952017 -->
<!-- 565076 -->
<!-- 4574313168&#45;&gt;565076 -->
<!-- 4574313792 -->
<g id="node25" class="node">
<title>4574313792</title>
<ellipse fill="lightblue" stroke="black" cx="371" cy="-76" rx="18" ry="18"/>
<text text-anchor="middle" x="371" y="-72.3" font-family="Helvetica,sans-Serif" font-size="14.00">R</text>
</g>
<!-- 4574313168&#45;&gt;4574313792 -->
<g id="edge24" class="edge">
<title>4574313168&#45;&gt;4574313792</title>
<path fill="none" stroke="black" d="M334.13,-121.16C340.8,-113.18 349.34,-102.95 356.52,-94.34"/>
<polygon fill="black" stroke="black" points="358.07,-95.22 359.93,-90.26 355.38,-92.98 358.07,-95.22"/>
</g>
<!-- 4574704416 -->
<g id="node26" class="node">
<title>4574704416</title>
<ellipse fill="lightblue" stroke="black" cx="323" cy="-18" rx="18" ry="18"/>
<text text-anchor="middle" x="323" y="-14.3" font-family="Helvetica,sans-Serif" font-size="14.00">P</text>
</g>
<!-- 4574313792&#45;&gt;4574704416 -->
<g id="edge25" class="edge">
<title>4574313792&#45;&gt;4574704416</title>
<path fill="none" stroke="black" d="M359.62,-61.73C353.05,-54.06 344.71,-44.32 337.64,-36.08"/>
<polygon fill="black" stroke="black" points="338.88,-34.83 334.29,-32.18 336.22,-37.11 338.88,-34.83"/>
</g>
<!-- 97388 -->
<!-- 4574313792&#45;&gt;97388 -->
<!-- 960992 -->
<!-- 4574313792&#45;&gt;960992 -->
</g>
</svg>
