<?xml version="1.0" encoding="UTF-8" standalone="no"?>
<!DOCTYPE svg PUBLIC "-//W3C//DTD SVG 1.1//EN"
 "http://www.w3.org/Graphics/SVG/1.1/DTD/svg11.dtd">
<!-- Generated by graphviz version 2.50.0 (0)
 -->
<!-- Pages: 1 -->
<svg width="480pt" height="455pt"
 viewBox="0.00 0.00 480.50 455.09" xmlns="http://www.w3.org/2000/svg" xmlns:xlink="http://www.w3.org/1999/xlink">
<g id="graph0" class="graph" transform="scale(1 1) rotate(0) translate(4 451.09)">
<polygon fill="white" stroke="transparent" points="-4,4 -4,-451.09 476.5,-451.09 476.5,4 -4,4"/>
<!-- 4574339552 -->
<g id="node1" class="node">
<title>4574339552</title>
<ellipse fill="lightblue" stroke="black" cx="194" cy="-429.09" rx="18" ry="18"/>
<text text-anchor="middle" x="194" y="-425.39" font-family="Helvetica,sans-Serif" font-size="14.00">Y</text>
</g>
<!-- 4574333408 -->
<g id="node2" class="node">
<title>4574333408</title>
<ellipse fill="lightblue" stroke="black" cx="146" cy="-371.09" rx="18" ry="18"/>
<text text-anchor="middle" x="146" y="-367.39" font-family="Helvetica,sans-Serif" font-size="14.00">D</text>
</g>
<!-- 4574339552&#45;&gt;4574333408 -->
<g id="edge1" class="edge">
<title>4574339552&#45;&gt;4574333408</title>
<path fill="none" stroke="black" d="M182.62,-414.82C176.05,-407.15 167.71,-397.41 160.64,-389.17"/>
<polygon fill="black" stroke="black" points="161.88,-387.92 157.29,-385.27 159.22,-390.2 161.88,-387.92"/>
</g>
<!-- 820535 -->
<!-- 4574339552&#45;&gt;820535 -->
<!-- 682034 -->
<!-- 4574339552&#45;&gt;682034 -->
<!-- 4574311056 -->
<g id="node5" class="node">
<title>4574311056</title>
<ellipse fill="lightblue" stroke="black" cx="66" cy="-313.09" rx="18" ry="18"/>
<text text-anchor="middle" x="66" y="-309.39" font-family="Helvetica,sans-Serif" font-size="14.00">B</text>
</g>
<!-- 4574333408&#45;&gt;4574311056 -->
<g id="edge4" class="edge">
<title>4574333408&#45;&gt;4574311056</title>
<path fill="none" stroke="black" d="M131.7,-360.08C118.58,-350.9 99.08,-337.24 84.72,-327.2"/>
<polygon fill="black" stroke="black" points="85.55,-325.64 80.45,-324.2 83.54,-328.5 85.55,-325.64"/>
</g>
<!-- 261447 -->
<!-- 4574333408&#45;&gt;261447 -->
<!-- 4574338304 -->
<g id="node7" class="node">
<title>4574338304</title>
<ellipse fill="lightblue" stroke="black" cx="227" cy="-313.09" rx="18" ry="18"/>
<text text-anchor="middle" x="227" y="-309.39" font-family="Helvetica,sans-Serif" font-size="14.00">H</text>
</g>
<!-- 4574333408&#45;&gt;4574338304 -->
<g id="edge6" class="edge">
<title>4574333408&#45;&gt;4574338304</title>
<path fill="none" stroke="black" d="M160.48,-360.08C173.84,-350.84 193.76,-337.07 208.31,-327.01"/>
<polygon fill="black" stroke="black" points="209.53,-328.3 212.64,-324.01 207.54,-325.42 209.53,-328.3"/>
</g>
<!-- 4574309472 -->
<g id="node8" class="node">
<title>4574309472</title>
<ellipse fill="lightblue" stroke="black" cx="18" cy="-255.09" rx="18" ry="18"/>
<text text-anchor="middle" x="18" y="-251.39" font-family="Helvetica,sans-Serif" font-size="14.00">A</text>
</g>
<!-- 4574311056&#45;&gt;4574309472 -->
<g id="edge7" class="edge">
<title>4574311056&#45;&gt;4574309472</title>
<path fill="none" stroke="black" d="M54.62,-298.82C48.05,-291.15 39.71,-281.41 32.64,-273.17"/>
<polygon fill="black" stroke="black" points="33.88,-271.92 29.29,-269.27 31.22,-274.2 33.88,-271.92"/>
</g>
<!-- 865508 -->
<!-- 4574311056&#45;&gt;865508 -->
<!-- 268070 -->
<!-- 4574311056&#45;&gt;268070 -->
<!-- 354312 -->
<!-- 4574338304&#45;&gt;354312 -->
<!-- 922552 -->
<!-- 4574338304&#45;&gt;922552 -->
<!-- 4574340944 -->
<g id="node13" class="node">
<title>4574340944</title>
<ellipse fill="lightblue" stroke="black" cx="275" cy="-255.09" rx="18" ry="18"/>
<text text-anchor="middle" x="275" y="-251.39" font-family="Helvetica,sans-Serif" font-size="14.00">N</text>
</g>
<!-- 4574338304&#45;&gt;4574340944 -->
<g id="edge12" class="edge">
<title>4574338304&#45;&gt;4574340944</title>
<path fill="none" stroke="black" d="M238.38,-298.82C244.95,-291.15 253.29,-281.41 260.36,-273.17"/>
<polygon fill="black" stroke="black" points="261.78,-274.2 263.71,-269.27 259.12,-271.92 261.78,-274.2"/>
</g>
<!-- 4574307648 -->
<g id="node14" class="node">
<title>4574307648</title>
<ellipse fill="lightblue" stroke="black" cx="146" cy="-197.09" rx="18" ry="18"/>
<text text-anchor="middle" x="146" y="-193.39" font-family="Helvetica,sans-Serif" font-size="14.00">J</text>
</g>
<!-- 4574340944&#45;&gt;4574307648 -->
<g id="edge13" class="edge">
<title>4574340944&#45;&gt;4574307648</title>
<path fill="none" stroke="black" d="M258.66,-247C235.4,-236.9 192.72,-218.37 167.09,-207.25"/>
<polygon fill="black" stroke="black" points="167.49,-205.51 162.21,-205.12 166.09,-208.72 167.49,-205.51"/>
</g>
<!-- 241571 -->
<!-- 4574340944&#45;&gt;241571 -->
<!-- 4573820688 -->
<g id="node16" class="node">
<title>4573820688</title>
<ellipse fill="lightblue" stroke="black" cx="404" cy="-197.09" rx="18" ry="18"/>
<text text-anchor="middle" x="404" y="-193.39" font-family="Helvetica,sans-Serif" font-size="14.00">X</text>
</g>
<!-- 4574340944&#45;&gt;4573820688 -->
<g id="edge15" class="edge">
<title>4574340944&#45;&gt;4573820688</title>
<path fill="none" stroke="black" d="M291.34,-247C314.6,-236.9 357.28,-218.37 382.91,-207.25"/>
<polygon fill="black" stroke="black" points="383.91,-208.72 387.79,-205.12 382.51,-205.51 383.91,-208.72"/>
</g>
<!-- 4574309808 -->
<g id="node17" class="node">
<title>4574309808</title>
<ellipse fill="lightblue" stroke="black" cx="98" cy="-138.89" rx="18" ry="18"/>
<text text-anchor="middle" x="98" y="-135.19" font-family="Helvetica,sans-Serif" font-size="14.00">I</text>
</g>
<!-- 4574307648&#45;&gt;4574309808 -->
<g id="edge16" class="edge">
<title>4574307648&#45;&gt;4574309808</title>
<path fill="none" stroke="black" d="M134.62,-182.77C128.05,-175.07 119.71,-165.3 112.64,-157.04"/>
<polygon fill="black" stroke="black" points="113.87,-155.78 109.29,-153.11 111.21,-158.05 113.87,-155.78"/>
</g>
<!-- 133301 -->
<!-- 4574307648&#45;&gt;133301 -->
<!-- 4574300976 -->
<g id="node19" class="node">
<title>4574300976</title>
<ellipse fill="lightblue" stroke="black" cx="194" cy="-138.89" rx="18" ry="18"/>
<text text-anchor="middle" x="194" y="-135.19" font-family="Helvetica,sans-Serif" font-size="14.00">L</text>
</g>
<!-- 4574307648&#45;&gt;4574300976 -->
<g id="edge18" class="edge">
<title>4574307648&#45;&gt;4574300976</title>
<path fill="none" stroke="black" d="M157.38,-182.77C163.95,-175.07 172.29,-165.3 179.36,-157.04"/>
<polygon fill="black" stroke="black" points="180.79,-158.05 182.71,-153.11 178.13,-155.78 180.79,-158.05"/>
</g>
<!-- 4574312112 -->
<g id="node23" class="node">
<title>4574312112</title>
<ellipse fill="lightblue" stroke="black" cx="356" cy="-138.89" rx="18.4" ry="18.4"/>
<text text-anchor="middle" x="356" y="-135.19" font-family="Helvetica,sans-Serif" font-size="14.00">Q</text>
</g>
<!-- 4573820688&#45;&gt;4574312112 -->
<g id="edge22" class="edge">
<title>4573820688&#45;&gt;4574312112</title>
<path fill="none" stroke="black" d="M392.62,-182.77C386.14,-175.18 377.95,-165.59 370.95,-157.4"/>
<polygon fill="black" stroke="black" points="372.21,-156.17 367.63,-153.5 369.54,-158.44 372.21,-156.17"/>
</g>
<!-- 983017 -->
<!-- 4573820688&#45;&gt;983017 -->
<!-- 107285 -->
<!-- 4573820688&#45;&gt;107285 -->
<!-- 503716 -->
<!-- 4574300976&#45;&gt;503716 -->
<!-- 636326 -->
<!-- 4574300976&#45;&gt;636326 -->
<!-- 4574313168 -->
<g id="node22" class="node">
<title>4574313168</title>
<ellipse fill="lightblue" stroke="black" cx="242" cy="-79.84" rx="18.7" ry="18.7"/>
<text text-anchor="middle" x="242" y="-76.14" font-family="Helvetica,sans-Serif" font-size="14.00">M</text>
</g>
<!-- 4574300976&#45;&gt;4574313168 -->
<g id="edge21" class="edge">
<title>4574300976&#45;&gt;4574313168</title>
<path fill="none" stroke="black" d="M205.13,-124.66C211.61,-116.97 219.85,-107.17 226.91,-98.78"/>
<polygon fill="black" stroke="black" points="228.38,-99.75 230.26,-94.8 225.7,-97.5 228.38,-99.75"/>
</g>
<!-- 798449 -->
<!-- 4574312112&#45;&gt;798449 -->
<!-- 993489 -->
<!-- 4574312112&#45;&gt;993489 -->
<!-- 4574314416 -->
<g id="node28" class="node">
<title>4574314416</title>
<ellipse fill="lightblue" stroke="black" cx="404" cy="-79.84" rx="18" ry="18"/>
<text text-anchor="middle" x="404" y="-76.14" font-family="Helvetica,sans-Serif" font-size="14.00">U</text>
</g>
<!-- 4574312112&#45;&gt;4574314416 -->
<g id="edge27" class="edge">
<title>4574312112&#45;&gt;4574314416</title>
<path fill="none" stroke="black" d="M367.38,-124.37C373.95,-116.56 382.29,-106.64 389.36,-98.25"/>
<polygon fill="black" stroke="black" points="390.83,-99.22 392.71,-94.27 388.15,-96.97 390.83,-99.22"/>
</g>
<!-- 4574313984 -->
<g id="node29" class="node">
<title>4574313984</title>
<ellipse fill="lightblue" stroke="black" cx="356" cy="-19.5" rx="18" ry="18"/>
<text text-anchor="middle" x="356" y="-15.8" font-family="Helvetica,sans-Serif" font-size="14.00">R</text>
</g>
<!-- 4574314416&#45;&gt;4574313984 -->
<g id="edge28" class="edge">
<title>4574314416&#45;&gt;4574313984</title>
<path fill="none" stroke="black" d="M392.87,-65.31C386.2,-57.21 377.66,-46.83 370.48,-38.09"/>
<polygon fill="black" stroke="black" points="371.6,-36.71 367.07,-33.96 368.9,-38.93 371.6,-36.71"/>
</g>
<!-- 309835 -->
<!-- 4574314416&#45;&gt;309835 -->
<!-- 4574313792 -->
<g id="node31" class="node">
<title>4574313792</title>
<ellipse fill="lightblue" stroke="black" cx="453" cy="-19.5" rx="19.5" ry="19.5"/>
<text text-anchor="middle" x="453" y="-15.8" font-family="Helvetica,sans-Serif" font-size="14.00">W</text>
</g>
<!-- 4574314416&#45;&gt;4574313792 -->
<g id="edge30" class="edge">
<title>4574314416&#45;&gt;4574313792</title>
<path fill="none" stroke="black" d="M415.12,-65.61C421.72,-57.75 430.19,-47.66 437.44,-39.02"/>
<polygon fill="black" stroke="black" points="439.02,-39.87 440.9,-34.91 436.34,-37.62 439.02,-39.87"/>
</g>
</g>
</svg>
