<?xml version="1.0" encoding="UTF-8" standalone="no"?>
<!DOCTYPE svg PUBLIC "-//W3C//DTD SVG 1.1//EN"
 "http://www.w3.org/Graphics/SVG/1.1/DTD/svg11.dtd">
<!-- Generated by graphviz version 2.50.0 (0)
 -->
<!-- Pages: 1 -->
<svg width="758pt" height="260pt"
 viewBox="0.00 0.00 758.50 260.00" xmlns="http://www.w3.org/2000/svg" xmlns:xlink="http://www.w3.org/1999/xlink">
<g id="graph0" class="graph" transform="scale(1 1) rotate(0) translate(4 256)">
<polygon fill="white" stroke="transparent" points="-4,4 -4,-256 754.5,-256 754.5,4 -4,4"/>
<!-- 4613340192 -->
<g id="node1" class="node">
<title>4613340192</title>
<ellipse fill="none" stroke="black" cx="452.5" cy="-90" rx="65.79" ry="18"/>
<text text-anchor="middle" x="452.5" y="-86.3" font-family="Times,serif" font-size="14.00">Süßwasserfisch</text>
</g>
<!-- 4613336688 -->
<g id="node5" class="node">
<title>4613336688</title>
<ellipse fill="none" stroke="black" cx="522.5" cy="-18" rx="45.49" ry="18"/>
<text text-anchor="middle" x="522.5" y="-14.3" font-family="Times,serif" font-size="14.00">Goldfisch</text>
</g>
<!-- 4613340192&#45;&gt;4613336688 -->
<g id="edge12" class="edge">
<title>4613340192&#45;&gt;4613336688</title>
<path fill="none" stroke="black" d="M469.09,-72.41C478.11,-63.39 489.41,-52.09 499.29,-42.21"/>
<polygon fill="black" stroke="black" points="501.91,-44.53 506.51,-34.99 496.96,-39.58 501.91,-44.53"/>
</g>
<!-- 4613332320 -->
<g id="node12" class="node">
<title>4613332320</title>
<ellipse fill="none" stroke="black" cx="423.5" cy="-18" rx="36" ry="18"/>
<text text-anchor="middle" x="423.5" y="-14.3" font-family="Times,serif" font-size="14.00">Forelle</text>
</g>
<!-- 4613340192&#45;&gt;4613332320 -->
<g id="edge11" class="edge">
<title>4613340192&#45;&gt;4613332320</title>
<path fill="none" stroke="black" d="M445.48,-72.05C442.13,-63.97 438.05,-54.12 434.31,-45.11"/>
<polygon fill="black" stroke="black" points="437.51,-43.69 430.45,-35.79 431.05,-46.37 437.51,-43.69"/>
</g>
<!-- 4613329968 -->
<g id="node2" class="node">
<title>4613329968</title>
<ellipse fill="none" stroke="black" cx="452.5" cy="-162" rx="29.8" ry="18"/>
<text text-anchor="middle" x="452.5" y="-158.3" font-family="Times,serif" font-size="14.00">Fisch</text>
</g>
<!-- 4613329968&#45;&gt;4613340192 -->
<g id="edge9" class="edge">
<title>4613329968&#45;&gt;4613340192</title>
<path fill="none" stroke="black" d="M452.5,-143.7C452.5,-135.98 452.5,-126.71 452.5,-118.11"/>
<polygon fill="black" stroke="black" points="456,-118.1 452.5,-108.1 449,-118.1 456,-118.1"/>
</g>
<!-- 4613335632 -->
<g id="node4" class="node">
<title>4613335632</title>
<ellipse fill="none" stroke="black" cx="632.5" cy="-90" rx="66.89" ry="18"/>
<text text-anchor="middle" x="632.5" y="-86.3" font-family="Times,serif" font-size="14.00">Salzwasserfisch</text>
</g>
<!-- 4613329968&#45;&gt;4613335632 -->
<g id="edge10" class="edge">
<title>4613329968&#45;&gt;4613335632</title>
<path fill="none" stroke="black" d="M477.15,-151.41C505.22,-140.5 551.71,-122.42 586.52,-108.88"/>
<polygon fill="black" stroke="black" points="587.96,-112.08 596.01,-105.19 585.42,-105.55 587.96,-112.08"/>
</g>
<!-- 4613328960 -->
<g id="node3" class="node">
<title>4613328960</title>
<ellipse fill="none" stroke="black" cx="32.5" cy="-18" rx="32.49" ry="18"/>
<text text-anchor="middle" x="32.5" y="-14.3" font-family="Times,serif" font-size="14.00">Collie</text>
</g>
<!-- 4613333760 -->
<g id="node8" class="node">
<title>4613333760</title>
<ellipse fill="none" stroke="black" cx="723.5" cy="-18" rx="27" ry="18"/>
<text text-anchor="middle" x="723.5" y="-14.3" font-family="Times,serif" font-size="14.00">Hai</text>
</g>
<!-- 4613335632&#45;&gt;4613333760 -->
<g id="edge14" class="edge">
<title>4613335632&#45;&gt;4613333760</title>
<path fill="none" stroke="black" d="M653.6,-72.76C666.91,-62.53 684.16,-49.26 698.2,-38.46"/>
<polygon fill="black" stroke="black" points="700.67,-40.98 706.46,-32.1 696.4,-35.43 700.67,-40.98"/>
</g>
<!-- 4613326752 -->
<g id="node13" class="node">
<title>4613326752</title>
<ellipse fill="none" stroke="black" cx="632.5" cy="-18" rx="46.29" ry="18"/>
<text text-anchor="middle" x="632.5" y="-14.3" font-family="Times,serif" font-size="14.00">Thunfisch</text>
</g>
<!-- 4613335632&#45;&gt;4613326752 -->
<g id="edge13" class="edge">
<title>4613335632&#45;&gt;4613326752</title>
<path fill="none" stroke="black" d="M632.5,-71.7C632.5,-63.98 632.5,-54.71 632.5,-46.11"/>
<polygon fill="black" stroke="black" points="636,-46.1 632.5,-36.1 629,-46.1 636,-46.1"/>
</g>
<!-- 4613339280 -->
<g id="node6" class="node">
<title>4613339280</title>
<ellipse fill="none" stroke="black" cx="367.5" cy="-234" rx="27" ry="18"/>
<text text-anchor="middle" x="367.5" y="-230.3" font-family="Times,serif" font-size="14.00">Tier</text>
</g>
<!-- 4613339280&#45;&gt;4613329968 -->
<g id="edge2" class="edge">
<title>4613339280&#45;&gt;4613329968</title>
<path fill="none" stroke="black" d="M383.89,-219.5C396.31,-209.27 413.59,-195.04 427.7,-183.42"/>
<polygon fill="black" stroke="black" points="430.08,-185.99 435.58,-176.93 425.63,-180.59 430.08,-185.99"/>
</g>
<!-- 4613338560 -->
<g id="node14" class="node">
<title>4613338560</title>
<ellipse fill="none" stroke="black" cx="269.5" cy="-162" rx="44.39" ry="18"/>
<text text-anchor="middle" x="269.5" y="-158.3" font-family="Times,serif" font-size="14.00">Säugetier</text>
</g>
<!-- 4613339280&#45;&gt;4613338560 -->
<g id="edge1" class="edge">
<title>4613339280&#45;&gt;4613338560</title>
<path fill="none" stroke="black" d="M349.52,-220.16C335.31,-210.01 315.19,-195.64 298.67,-183.84"/>
<polygon fill="black" stroke="black" points="300.59,-180.91 290.42,-177.94 296.52,-186.6 300.59,-180.91"/>
</g>
<!-- 4613333232 -->
<g id="node7" class="node">
<title>4613333232</title>
<ellipse fill="none" stroke="black" cx="226.5" cy="-18" rx="53.89" ry="18"/>
<text text-anchor="middle" x="226.5" y="-14.3" font-family="Times,serif" font-size="14.00">Schimpanse</text>
</g>
<!-- 4613329680 -->
<g id="node9" class="node">
<title>4613329680</title>
<ellipse fill="none" stroke="black" cx="269.5" cy="-90" rx="27" ry="18"/>
<text text-anchor="middle" x="269.5" y="-86.3" font-family="Times,serif" font-size="14.00">Affe</text>
</g>
<!-- 4613329680&#45;&gt;4613333232 -->
<g id="edge7" class="edge">
<title>4613329680&#45;&gt;4613333232</title>
<path fill="none" stroke="black" d="M259.74,-73.12C254.56,-64.68 248.06,-54.1 242.19,-44.55"/>
<polygon fill="black" stroke="black" points="245.03,-42.49 236.82,-35.8 239.07,-46.15 245.03,-42.49"/>
</g>
<!-- 4613331216 -->
<g id="node10" class="node">
<title>4613331216</title>
<ellipse fill="none" stroke="black" cx="334.5" cy="-18" rx="36" ry="18"/>
<text text-anchor="middle" x="334.5" y="-14.3" font-family="Times,serif" font-size="14.00">Gorilla</text>
</g>
<!-- 4613329680&#45;&gt;4613331216 -->
<g id="edge8" class="edge">
<title>4613329680&#45;&gt;4613331216</title>
<path fill="none" stroke="black" d="M283.28,-74.15C291.83,-64.94 303.01,-52.91 312.74,-42.43"/>
<polygon fill="black" stroke="black" points="315.59,-44.51 319.83,-34.8 310.46,-39.74 315.59,-44.51"/>
</g>
<!-- 4613337936 -->
<g id="node11" class="node">
<title>4613337936</title>
<ellipse fill="none" stroke="black" cx="118.5" cy="-18" rx="36" ry="18"/>
<text text-anchor="middle" x="118.5" y="-14.3" font-family="Times,serif" font-size="14.00">Dackel</text>
</g>
<!-- 4613338560&#45;&gt;4613329680 -->
<g id="edge4" class="edge">
<title>4613338560&#45;&gt;4613329680</title>
<path fill="none" stroke="black" d="M269.5,-143.7C269.5,-135.98 269.5,-126.71 269.5,-118.11"/>
<polygon fill="black" stroke="black" points="273,-118.1 269.5,-108.1 266,-118.1 273,-118.1"/>
</g>
<!-- 4613332464 -->
<g id="node15" class="node">
<title>4613332464</title>
<ellipse fill="none" stroke="black" cx="118.5" cy="-90" rx="30.59" ry="18"/>
<text text-anchor="middle" x="118.5" y="-86.3" font-family="Times,serif" font-size="14.00">Hund</text>
</g>
<!-- 4613338560&#45;&gt;4613332464 -->
<g id="edge3" class="edge">
<title>4613338560&#45;&gt;4613332464</title>
<path fill="none" stroke="black" d="M241.45,-148C215.93,-136.17 178.24,-118.69 151.32,-106.22"/>
<polygon fill="black" stroke="black" points="152.48,-102.9 141.94,-101.87 149.54,-109.25 152.48,-102.9"/>
</g>
<!-- 4613332464&#45;&gt;4613328960 -->
<g id="edge5" class="edge">
<title>4613332464&#45;&gt;4613328960</title>
<path fill="none" stroke="black" d="M101.09,-74.83C88.7,-64.75 71.85,-51.03 57.96,-39.72"/>
<polygon fill="black" stroke="black" points="60.13,-36.98 50.17,-33.38 55.72,-42.41 60.13,-36.98"/>
</g>
<!-- 4613332464&#45;&gt;4613337936 -->
<g id="edge6" class="edge">
<title>4613332464&#45;&gt;4613337936</title>
<path fill="none" stroke="black" d="M118.5,-71.7C118.5,-63.98 118.5,-54.71 118.5,-46.11"/>
<polygon fill="black" stroke="black" points="122,-46.1 118.5,-36.1 115,-46.1 122,-46.1"/>
</g>
</g>
</svg>
