<?xml version="1.0" encoding="UTF-8" standalone="no"?>
<!DOCTYPE svg PUBLIC "-//W3C//DTD SVG 1.1//EN"
 "http://www.w3.org/Graphics/SVG/1.1/DTD/svg11.dtd">
<!-- Generated by graphviz version 2.50.0 (0)
 -->
<!-- Pages: 1 -->
<svg width="560pt" height="397pt"
 viewBox="0.00 0.00 560.50 397.09" xmlns="http://www.w3.org/2000/svg" xmlns:xlink="http://www.w3.org/1999/xlink">
<g id="graph0" class="graph" transform="scale(1 1) rotate(0) translate(4 393.09)">
<polygon fill="white" stroke="transparent" points="-4,4 -4,-393.09 556.5,-393.09 556.5,4 -4,4"/>
<!-- 4574301840 -->
<g id="node1" class="node">
<title>4574301840</title>
<ellipse fill="lightblue" stroke="black" cx="194" cy="-371.09" rx="18" ry="18"/>
<text text-anchor="middle" x="194" y="-367.39" font-family="Helvetica,sans-Serif" font-size="14.00">C</text>
</g>
<!-- 4574298720 -->
<g id="node2" class="node">
<title>4574298720</title>
<ellipse fill="lightblue" stroke="black" cx="146" cy="-312.24" rx="18" ry="18"/>
<text text-anchor="middle" x="146" y="-308.54" font-family="Helvetica,sans-Serif" font-size="14.00">A</text>
</g>
<!-- 4574301840&#45;&gt;4574298720 -->
<g id="edge1" class="edge">
<title>4574301840&#45;&gt;4574298720</title>
<path fill="none" stroke="black" d="M182.87,-356.9C176.3,-349.13 167.9,-339.18 160.78,-330.75"/>
<polygon fill="black" stroke="black" points="161.97,-329.44 157.41,-326.75 159.29,-331.7 161.97,-329.44"/>
</g>
<!-- 489975 -->
<!-- 4574301840&#45;&gt;489975 -->
<!-- 4574314416 -->
<g id="node4" class="node">
<title>4574314416</title>
<ellipse fill="lightblue" stroke="black" cx="242" cy="-312.24" rx="18.7" ry="18.7"/>
<text text-anchor="middle" x="242" y="-308.54" font-family="Helvetica,sans-Serif" font-size="14.00">M</text>
</g>
<!-- 4574301840&#45;&gt;4574314416 -->
<g id="edge3" class="edge">
<title>4574301840&#45;&gt;4574314416</title>
<path fill="none" stroke="black" d="M205.13,-356.9C211.61,-349.24 219.85,-339.47 226.91,-331.12"/>
<polygon fill="black" stroke="black" points="228.37,-332.1 230.26,-327.15 225.7,-329.84 228.37,-332.1"/>
</g>
<!-- 4574313984 -->
<g id="node5" class="node">
<title>4574313984</title>
<ellipse fill="lightblue" stroke="black" cx="162" cy="-253.39" rx="18" ry="18"/>
<text text-anchor="middle" x="162" y="-249.69" font-family="Helvetica,sans-Serif" font-size="14.00">K</text>
</g>
<!-- 4574314416&#45;&gt;4574313984 -->
<g id="edge4" class="edge">
<title>4574314416&#45;&gt;4574313984</title>
<path fill="none" stroke="black" d="M226.95,-300.55C213.83,-291.22 194.73,-277.65 180.64,-267.64"/>
<polygon fill="black" stroke="black" points="181.53,-266.12 176.44,-264.66 179.5,-268.98 181.53,-266.12"/>
</g>
<!-- 45002 -->
<!-- 4574314416&#45;&gt;45002 -->
<!-- 4574309472 -->
<g id="node7" class="node">
<title>4574309472</title>
<ellipse fill="lightblue" stroke="black" cx="371" cy="-253.39" rx="18" ry="18"/>
<text text-anchor="middle" x="371" y="-249.69" font-family="Helvetica,sans-Serif" font-size="14.00">R</text>
</g>
<!-- 4574314416&#45;&gt;4574309472 -->
<g id="edge6" class="edge">
<title>4574314416&#45;&gt;4574309472</title>
<path fill="none" stroke="black" d="M258.86,-303.81C282.17,-293.54 324.22,-275.01 349.68,-263.79"/>
<polygon fill="black" stroke="black" points="350.67,-265.27 354.54,-261.65 349.26,-262.06 350.67,-265.27"/>
</g>
<!-- 4574304864 -->
<g id="node8" class="node">
<title>4574304864</title>
<ellipse fill="lightblue" stroke="black" cx="66" cy="-195.19" rx="18" ry="18"/>
<text text-anchor="middle" x="66" y="-191.49" font-family="Helvetica,sans-Serif" font-size="14.00">D</text>
</g>
<!-- 4574313984&#45;&gt;4574304864 -->
<g id="edge7" class="edge">
<title>4574313984&#45;&gt;4574304864</title>
<path fill="none" stroke="black" d="M146.58,-243.36C130.06,-233.7 103.8,-218.33 85.78,-207.77"/>
<polygon fill="black" stroke="black" points="86.58,-206.22 81.39,-205.2 84.82,-209.24 86.58,-206.22"/>
</g>
<!-- 45104 -->
<!-- 4574313984&#45;&gt;45104 -->
<!-- 661943 -->
<!-- 4574313984&#45;&gt;661943 -->
<!-- 4574313168 -->
<g id="node20" class="node">
<title>4574313168</title>
<ellipse fill="lightblue" stroke="black" cx="323" cy="-195.19" rx="18.4" ry="18.4"/>
<text text-anchor="middle" x="323" y="-191.49" font-family="Helvetica,sans-Serif" font-size="14.00">Q</text>
</g>
<!-- 4574309472&#45;&gt;4574313168 -->
<g id="edge19" class="edge">
<title>4574309472&#45;&gt;4574313168</title>
<path fill="none" stroke="black" d="M359.62,-239.08C353.14,-231.49 344.95,-221.89 337.95,-213.7"/>
<polygon fill="black" stroke="black" points="339.21,-212.47 334.63,-209.81 336.54,-214.75 339.21,-212.47"/>
</g>
<!-- 503521 -->
<!-- 4574309472&#45;&gt;503521 -->
<!-- 4574310624 -->
<g id="node22" class="node">
<title>4574310624</title>
<ellipse fill="lightblue" stroke="black" cx="484" cy="-195.19" rx="18" ry="18"/>
<text text-anchor="middle" x="484" y="-191.49" font-family="Helvetica,sans-Serif" font-size="14.00">U</text>
</g>
<!-- 4574309472&#45;&gt;4574310624 -->
<g id="edge21" class="edge">
<title>4574309472&#45;&gt;4574310624</title>
<path fill="none" stroke="black" d="M386.71,-244.58C406.75,-234.61 441.46,-217.35 463.55,-206.37"/>
<polygon fill="black" stroke="black" points="464.36,-207.92 468.06,-204.12 462.8,-204.78 464.36,-207.92"/>
</g>
<!-- 964556 -->
<!-- 4574304864&#45;&gt;964556 -->
<!-- 265132 -->
<!-- 4574304864&#45;&gt;265132 -->
<!-- 4574307648 -->
<g id="node13" class="node">
<title>4574307648</title>
<ellipse fill="lightblue" stroke="black" cx="114" cy="-135.5" rx="18.4" ry="18.4"/>
<text text-anchor="middle" x="114" y="-131.8" font-family="Helvetica,sans-Serif" font-size="14.00">G</text>
</g>
<!-- 4574304864&#45;&gt;4574307648 -->
<g id="edge12" class="edge">
<title>4574304864&#45;&gt;4574307648</title>
<path fill="none" stroke="black" d="M77.13,-180.81C83.7,-172.92 92.1,-162.83 99.22,-154.27"/>
<polygon fill="black" stroke="black" points="100.74,-155.17 102.59,-150.21 98.05,-152.93 100.74,-155.17"/>
</g>
<!-- 4574313792 -->
<g id="node14" class="node">
<title>4574313792</title>
<ellipse fill="lightblue" stroke="black" cx="66" cy="-76" rx="18" ry="18"/>
<text text-anchor="middle" x="66" y="-72.3" font-family="Helvetica,sans-Serif" font-size="14.00">E</text>
</g>
<!-- 4574307648&#45;&gt;4574313792 -->
<g id="edge13" class="edge">
<title>4574307648&#45;&gt;4574313792</title>
<path fill="none" stroke="black" d="M102.62,-120.87C96.05,-113 87.71,-103 80.64,-94.54"/>
<polygon fill="black" stroke="black" points="81.84,-93.25 77.29,-90.53 79.15,-95.49 81.84,-93.25"/>
</g>
<!-- 630351 -->
<!-- 4574307648&#45;&gt;630351 -->
<!-- 4574692752 -->
<g id="node16" class="node">
<title>4574692752</title>
<ellipse fill="lightblue" stroke="black" cx="162" cy="-76" rx="18" ry="18"/>
<text text-anchor="middle" x="162" y="-72.3" font-family="Helvetica,sans-Serif" font-size="14.00">H</text>
</g>
<!-- 4574307648&#45;&gt;4574692752 -->
<g id="edge15" class="edge">
<title>4574307648&#45;&gt;4574692752</title>
<path fill="none" stroke="black" d="M125.38,-120.87C131.95,-113 140.29,-103 147.36,-94.54"/>
<polygon fill="black" stroke="black" points="148.85,-95.49 150.71,-90.53 146.16,-93.25 148.85,-95.49"/>
</g>
<!-- 170760 -->
<!-- 4574313792&#45;&gt;170760 -->
<!-- 444541 -->
<!-- 4574313792&#45;&gt;444541 -->
<!-- 4574697552 -->
<g id="node19" class="node">
<title>4574697552</title>
<ellipse fill="lightblue" stroke="black" cx="114" cy="-18" rx="18" ry="18"/>
<text text-anchor="middle" x="114" y="-14.3" font-family="Helvetica,sans-Serif" font-size="14.00">F</text>
</g>
<!-- 4574313792&#45;&gt;4574697552 -->
<g id="edge18" class="edge">
<title>4574313792&#45;&gt;4574697552</title>
<path fill="none" stroke="black" d="M77.38,-61.73C83.95,-54.06 92.29,-44.32 99.36,-36.08"/>
<polygon fill="black" stroke="black" points="100.78,-37.11 102.71,-32.18 98.12,-34.83 100.78,-37.11"/>
</g>
<!-- 4574692176 -->
<g id="node23" class="node">
<title>4574692176</title>
<ellipse fill="lightblue" stroke="black" cx="275" cy="-135.5" rx="18.4" ry="18.4"/>
<text text-anchor="middle" x="275" y="-131.8" font-family="Helvetica,sans-Serif" font-size="14.00">O</text>
</g>
<!-- 4574313168&#45;&gt;4574692176 -->
<g id="edge22" class="edge">
<title>4574313168&#45;&gt;4574692176</title>
<path fill="none" stroke="black" d="M311.62,-180.52C305.05,-172.62 296.71,-162.59 289.64,-154.1"/>
<polygon fill="black" stroke="black" points="290.84,-152.8 286.29,-150.07 288.15,-155.04 290.84,-152.8"/>
</g>
<!-- 653868 -->
<!-- 4574313168&#45;&gt;653868 -->
<!-- 733609 -->
<!-- 4574313168&#45;&gt;733609 -->
<!-- 483421 -->
<!-- 4574310624&#45;&gt;483421 -->
<!-- 800019 -->
<!-- 4574310624&#45;&gt;800019 -->
<!-- 4574705136 -->
<g id="node31" class="node">
<title>4574705136</title>
<ellipse fill="lightblue" stroke="black" cx="533" cy="-135.5" rx="19.5" ry="19.5"/>
<text text-anchor="middle" x="533" y="-131.8" font-family="Helvetica,sans-Serif" font-size="14.00">W</text>
</g>
<!-- 4574310624&#45;&gt;4574705136 -->
<g id="edge30" class="edge">
<title>4574310624&#45;&gt;4574705136</title>
<path fill="none" stroke="black" d="M495.36,-180.81C501.88,-173.15 510.14,-163.41 517.27,-155.02"/>
<polygon fill="black" stroke="black" points="518.76,-155.96 520.67,-151.02 516.1,-153.7 518.76,-155.96"/>
</g>
<!-- 4574705616 -->
<g id="node26" class="node">
<title>4574705616</title>
<ellipse fill="lightblue" stroke="black" cx="227" cy="-76" rx="18" ry="18"/>
<text text-anchor="middle" x="227" y="-72.3" font-family="Helvetica,sans-Serif" font-size="14.00">N</text>
</g>
<!-- 4574692176&#45;&gt;4574705616 -->
<g id="edge25" class="edge">
<title>4574692176&#45;&gt;4574705616</title>
<path fill="none" stroke="black" d="M263.62,-120.87C257.05,-113 248.71,-103 241.64,-94.54"/>
<polygon fill="black" stroke="black" points="242.84,-93.25 238.29,-90.53 240.15,-95.49 242.84,-93.25"/>
</g>
<!-- 509187 -->
<!-- 4574692176&#45;&gt;509187 -->
<!-- 831080 -->
<!-- 4574692176&#45;&gt;831080 -->
</g>
</svg>
