<?xml version="1.0" encoding="UTF-8" standalone="no"?>
<!DOCTYPE svg PUBLIC "-//W3C//DTD SVG 1.1//EN"
 "http://www.w3.org/Graphics/SVG/1.1/DTD/svg11.dtd">
<!-- Generated by graphviz version 2.50.0 (0)
 -->
<!-- Pages: 1 -->
<svg width="663pt" height="240pt"
 viewBox="0.00 0.00 662.60 240.39" xmlns="http://www.w3.org/2000/svg" xmlns:xlink="http://www.w3.org/1999/xlink">
<g id="graph0" class="graph" transform="scale(1 1) rotate(0) translate(4 236.39)">
<polygon fill="white" stroke="transparent" points="-4,4 -4,-236.39 658.6,-236.39 658.6,4 -4,4"/>
<!-- 4627866176 -->
<g id="node1" class="node">
<title>4627866176</title>
<ellipse fill="#9bcd9b" stroke="black" cx="326.8" cy="-211.59" rx="20.6" ry="20.6"/>
<text text-anchor="middle" x="326.8" y="-207.89" font-family="Helvetica,sans-Serif" font-size="14.00">29</text>
</g>
<!-- 4626251024 -->
<g id="node2" class="node">
<title>4626251024</title>
<ellipse fill="#9bcd9b" stroke="black" cx="191.8" cy="-147.99" rx="20.6" ry="20.6"/>
<text text-anchor="middle" x="191.8" y="-144.29" font-family="Helvetica,sans-Serif" font-size="14.00">34</text>
</g>
<!-- 4627866176&#45;&gt;4626251024 -->
<g id="edge1" class="edge">
<title>4627866176&#45;&gt;4626251024</title>
<path fill="none" stroke="black" d="M308.03,-202.02C283.75,-190.94 241.45,-171.65 215.13,-159.64"/>
<polygon fill="black" stroke="black" points="215.69,-157.97 210.41,-157.48 214.23,-161.15 215.69,-157.97"/>
</g>
<!-- 113871 -->
<!-- 4627866176&#45;&gt;113871 -->
<!-- 4627866464 -->
<g id="node4" class="node">
<title>4627866464</title>
<ellipse fill="#9bcd9b" stroke="black" cx="462.8" cy="-147.99" rx="20.6" ry="20.6"/>
<text text-anchor="middle" x="462.8" y="-144.29" font-family="Helvetica,sans-Serif" font-size="14.00">25</text>
</g>
<!-- 4627866176&#45;&gt;4627866464 -->
<g id="edge3" class="edge">
<title>4627866176&#45;&gt;4627866464</title>
<path fill="none" stroke="black" d="M345.42,-202.15C369.8,-191.11 412.56,-171.75 439.19,-159.69"/>
<polygon fill="black" stroke="black" points="440.13,-161.18 443.96,-157.52 438.68,-157.99 440.13,-161.18"/>
</g>
<!-- 4627862768 -->
<g id="node5" class="node">
<title>4627862768</title>
<ellipse fill="#9bcd9b" stroke="black" cx="70.8" cy="-84.39" rx="20.6" ry="20.6"/>
<text text-anchor="middle" x="70.8" y="-80.69" font-family="Helvetica,sans-Serif" font-size="14.00">22</text>
</g>
<!-- 4626251024&#45;&gt;4627862768 -->
<g id="edge4" class="edge">
<title>4626251024&#45;&gt;4627862768</title>
<path fill="none" stroke="black" d="M173.68,-137.77C152.3,-126.88 116.71,-108.77 93.51,-96.95"/>
<polygon fill="black" stroke="black" points="94.29,-95.39 89.04,-94.68 92.7,-98.51 94.29,-95.39"/>
</g>
<!-- 880293 -->
<!-- 4626251024&#45;&gt;880293 -->
<!-- 4627865456 -->
<g id="node7" class="node">
<title>4627865456</title>
<ellipse fill="#9bcd9b" stroke="black" cx="241.8" cy="-84.39" rx="20.6" ry="20.6"/>
<text text-anchor="middle" x="241.8" y="-80.69" font-family="Helvetica,sans-Serif" font-size="14.00">20</text>
</g>
<!-- 4626251024&#45;&gt;4627865456 -->
<g id="edge6" class="edge">
<title>4626251024&#45;&gt;4627865456</title>
<path fill="none" stroke="black" d="M204.42,-131.45C210.88,-123.48 218.82,-113.7 225.72,-105.2"/>
<polygon fill="black" stroke="black" points="227.22,-106.13 229.01,-101.15 224.5,-103.93 227.22,-106.13"/>
</g>
<!-- 4627862912 -->
<g id="node14" class="node">
<title>4627862912</title>
<ellipse fill="#9bcd9b" stroke="black" cx="412.8" cy="-84.39" rx="20.6" ry="20.6"/>
<text text-anchor="middle" x="412.8" y="-80.69" font-family="Helvetica,sans-Serif" font-size="14.00">23</text>
</g>
<!-- 4627866464&#45;&gt;4627862912 -->
<g id="edge13" class="edge">
<title>4627866464&#45;&gt;4627862912</title>
<path fill="none" stroke="black" d="M450.18,-131.45C443.72,-123.48 435.78,-113.7 428.88,-105.2"/>
<polygon fill="black" stroke="black" points="430.1,-103.93 425.59,-101.15 427.38,-106.13 430.1,-103.93"/>
</g>
<!-- 36892 -->
<!-- 4627866464&#45;&gt;36892 -->
<!-- 4628137936 -->
<g id="node16" class="node">
<title>4628137936</title>
<ellipse fill="#9bcd9b" stroke="black" cx="583.8" cy="-84.39" rx="20.6" ry="20.6"/>
<text text-anchor="middle" x="583.8" y="-80.69" font-family="Helvetica,sans-Serif" font-size="14.00">36</text>
</g>
<!-- 4627866464&#45;&gt;4628137936 -->
<g id="edge15" class="edge">
<title>4627866464&#45;&gt;4628137936</title>
<path fill="none" stroke="black" d="M480.91,-137.77C502.3,-126.88 537.88,-108.77 561.09,-96.95"/>
<polygon fill="black" stroke="black" points="561.9,-98.51 565.56,-94.68 560.31,-95.39 561.9,-98.51"/>
</g>
<!-- 4628137024 -->
<g id="node8" class="node">
<title>4628137024</title>
<ellipse fill="#9bcd9b" stroke="black" cx="20.8" cy="-20.8" rx="20.6" ry="20.6"/>
<text text-anchor="middle" x="20.8" y="-17.1" font-family="Helvetica,sans-Serif" font-size="14.00">33</text>
</g>
<!-- 4627862768&#45;&gt;4628137024 -->
<g id="edge7" class="edge">
<title>4627862768&#45;&gt;4628137024</title>
<path fill="none" stroke="black" d="M58.18,-67.85C51.72,-59.89 43.78,-50.1 36.88,-41.61"/>
<polygon fill="black" stroke="black" points="38.1,-40.33 33.59,-37.55 35.38,-42.54 38.1,-40.33"/>
</g>
<!-- 923065 -->
<!-- 4627862768&#45;&gt;923065 -->
<!-- 4628149216 -->
<g id="node10" class="node">
<title>4628149216</title>
<ellipse fill="#9bcd9b" stroke="black" cx="120.8" cy="-20.8" rx="20.6" ry="20.6"/>
<text text-anchor="middle" x="120.8" y="-17.1" font-family="Helvetica,sans-Serif" font-size="14.00">37</text>
</g>
<!-- 4627862768&#45;&gt;4628149216 -->
<g id="edge9" class="edge">
<title>4627862768&#45;&gt;4628149216</title>
<path fill="none" stroke="black" d="M83.42,-67.85C89.88,-59.89 97.82,-50.1 104.72,-41.61"/>
<polygon fill="black" stroke="black" points="106.22,-42.54 108.01,-37.55 103.5,-40.33 106.22,-42.54"/>
</g>
<!-- 4628141968 -->
<g id="node11" class="node">
<title>4628141968</title>
<ellipse fill="#9bcd9b" stroke="black" cx="191.8" cy="-20.8" rx="20.6" ry="20.6"/>
<text text-anchor="middle" x="191.8" y="-17.1" font-family="Helvetica,sans-Serif" font-size="14.00">32</text>
</g>
<!-- 4627865456&#45;&gt;4628141968 -->
<g id="edge10" class="edge">
<title>4627865456&#45;&gt;4628141968</title>
<path fill="none" stroke="black" d="M229.18,-67.85C222.72,-59.89 214.78,-50.1 207.88,-41.61"/>
<polygon fill="black" stroke="black" points="209.1,-40.33 204.59,-37.55 206.38,-42.54 209.1,-40.33"/>
</g>
<!-- 2563 -->
<!-- 4627865456&#45;&gt;2563 -->
<!-- 4628151328 -->
<g id="node13" class="node">
<title>4628151328</title>
<ellipse fill="#9bcd9b" stroke="black" cx="291.8" cy="-20.8" rx="20.6" ry="20.6"/>
<text text-anchor="middle" x="291.8" y="-17.1" font-family="Helvetica,sans-Serif" font-size="14.00">28</text>
</g>
<!-- 4627865456&#45;&gt;4628151328 -->
<g id="edge12" class="edge">
<title>4627865456&#45;&gt;4628151328</title>
<path fill="none" stroke="black" d="M254.42,-67.85C260.88,-59.89 268.82,-50.1 275.72,-41.61"/>
<polygon fill="black" stroke="black" points="277.22,-42.54 279.01,-37.55 274.5,-40.33 277.22,-42.54"/>
</g>
<!-- 4628147296 -->
<g id="node17" class="node">
<title>4628147296</title>
<ellipse fill="#9bcd9b" stroke="black" cx="362.8" cy="-20.8" rx="20.6" ry="20.6"/>
<text text-anchor="middle" x="362.8" y="-17.1" font-family="Helvetica,sans-Serif" font-size="14.00">30</text>
</g>
<!-- 4627862912&#45;&gt;4628147296 -->
<g id="edge16" class="edge">
<title>4627862912&#45;&gt;4628147296</title>
<path fill="none" stroke="black" d="M400.18,-67.85C393.72,-59.89 385.78,-50.1 378.88,-41.61"/>
<polygon fill="black" stroke="black" points="380.1,-40.33 375.59,-37.55 377.38,-42.54 380.1,-40.33"/>
</g>
<!-- 778517 -->
<!-- 4627862912&#45;&gt;778517 -->
<!-- 4628141392 -->
<g id="node19" class="node">
<title>4628141392</title>
<ellipse fill="#9bcd9b" stroke="black" cx="462.8" cy="-20.8" rx="20.6" ry="20.6"/>
<text text-anchor="middle" x="462.8" y="-17.1" font-family="Helvetica,sans-Serif" font-size="14.00">35</text>
</g>
<!-- 4627862912&#45;&gt;4628141392 -->
<g id="edge18" class="edge">
<title>4627862912&#45;&gt;4628141392</title>
<path fill="none" stroke="black" d="M425.42,-67.85C431.88,-59.89 439.82,-50.1 446.72,-41.61"/>
<polygon fill="black" stroke="black" points="448.22,-42.54 450.01,-37.55 445.5,-40.33 448.22,-42.54"/>
</g>
<!-- 4628155088 -->
<g id="node20" class="node">
<title>4628155088</title>
<ellipse fill="#9bcd9b" stroke="black" cx="533.8" cy="-20.8" rx="20.6" ry="20.6"/>
<text text-anchor="middle" x="533.8" y="-17.1" font-family="Helvetica,sans-Serif" font-size="14.00">21</text>
</g>
<!-- 4628137936&#45;&gt;4628155088 -->
<g id="edge19" class="edge">
<title>4628137936&#45;&gt;4628155088</title>
<path fill="none" stroke="black" d="M571.18,-67.85C564.72,-59.89 556.78,-50.1 549.88,-41.61"/>
<polygon fill="black" stroke="black" points="551.1,-40.33 546.59,-37.55 548.38,-42.54 551.1,-40.33"/>
</g>
<!-- 122559 -->
<!-- 4628137936&#45;&gt;122559 -->
<!-- 4628159024 -->
<g id="node22" class="node">
<title>4628159024</title>
<ellipse fill="#9bcd9b" stroke="black" cx="633.8" cy="-20.8" rx="20.6" ry="20.6"/>
<text text-anchor="middle" x="633.8" y="-17.1" font-family="Helvetica,sans-Serif" font-size="14.00">27</text>
</g>
<!-- 4628137936&#45;&gt;4628159024 -->
<g id="edge21" class="edge">
<title>4628137936&#45;&gt;4628159024</title>
<path fill="none" stroke="black" d="M596.42,-67.85C602.88,-59.89 610.82,-50.1 617.72,-41.61"/>
<polygon fill="black" stroke="black" points="619.22,-42.54 621.01,-37.55 616.5,-40.33 619.22,-42.54"/>
</g>
</g>
</svg>
