<?xml version="1.0" encoding="UTF-8" standalone="no"?>
<!DOCTYPE svg PUBLIC "-//W3C//DTD SVG 1.1//EN"
 "http://www.w3.org/Graphics/SVG/1.1/DTD/svg11.dtd">
<!-- Generated by graphviz version 2.50.0 (0)
 -->
<!-- Pages: 1 -->
<svg width="430pt" height="393pt"
 viewBox="0.00 0.00 430.00 392.79" xmlns="http://www.w3.org/2000/svg" xmlns:xlink="http://www.w3.org/1999/xlink">
<g id="graph0" class="graph" transform="scale(1 1) rotate(0) translate(4 388.79)">
<polygon fill="white" stroke="transparent" points="-4,4 -4,-388.79 426,-388.79 426,4 -4,4"/>
<!-- 4574337632 -->
<g id="node1" class="node">
<title>4574337632</title>
<ellipse fill="lightblue" stroke="black" cx="194" cy="-366.79" rx="18" ry="18"/>
<text text-anchor="middle" x="194" y="-363.09" font-family="Helvetica,sans-Serif" font-size="14.00">E</text>
</g>
<!-- 4574309472 -->
<g id="node2" class="node">
<title>4574309472</title>
<ellipse fill="lightblue" stroke="black" cx="114" cy="-308.79" rx="18" ry="18"/>
<text text-anchor="middle" x="114" y="-305.09" font-family="Helvetica,sans-Serif" font-size="14.00">D</text>
</g>
<!-- 4574337632&#45;&gt;4574309472 -->
<g id="edge1" class="edge">
<title>4574337632&#45;&gt;4574309472</title>
<path fill="none" stroke="black" d="M179.7,-355.78C166.58,-346.6 147.08,-332.95 132.72,-322.9"/>
<polygon fill="black" stroke="black" points="133.55,-321.34 128.45,-319.91 131.54,-324.21 133.55,-321.34"/>
</g>
<!-- 58161 -->
<!-- 4574337632&#45;&gt;58161 -->
<!-- 4574337104 -->
<g id="node4" class="node">
<title>4574337104</title>
<ellipse fill="lightblue" stroke="black" cx="275" cy="-308.79" rx="18" ry="18"/>
<text text-anchor="middle" x="275" y="-305.09" font-family="Helvetica,sans-Serif" font-size="14.00">F</text>
</g>
<!-- 4574337632&#45;&gt;4574337104 -->
<g id="edge3" class="edge">
<title>4574337632&#45;&gt;4574337104</title>
<path fill="none" stroke="black" d="M208.48,-355.78C221.84,-346.54 241.76,-332.78 256.31,-322.71"/>
<polygon fill="black" stroke="black" points="257.53,-324 260.64,-319.72 255.54,-321.12 257.53,-324"/>
</g>
<!-- 4574312832 -->
<g id="node5" class="node">
<title>4574312832</title>
<ellipse fill="lightblue" stroke="black" cx="66" cy="-250.79" rx="18" ry="18"/>
<text text-anchor="middle" x="66" y="-247.09" font-family="Helvetica,sans-Serif" font-size="14.00">B</text>
</g>
<!-- 4574309472&#45;&gt;4574312832 -->
<g id="edge4" class="edge">
<title>4574309472&#45;&gt;4574312832</title>
<path fill="none" stroke="black" d="M102.62,-294.52C96.05,-286.85 87.71,-277.12 80.64,-268.88"/>
<polygon fill="black" stroke="black" points="81.88,-267.63 77.29,-264.97 79.22,-269.9 81.88,-267.63"/>
</g>
<!-- 457974 -->
<!-- 4574309472&#45;&gt;457974 -->
<!-- 919850 -->
<!-- 4574309472&#45;&gt;919850 -->
<!-- 492427 -->
<!-- 4574337104&#45;&gt;492427 -->
<!-- 231035 -->
<!-- 4574337104&#45;&gt;231035 -->
<!-- 4574313072 -->
<g id="node13" class="node">
<title>4574313072</title>
<ellipse fill="lightblue" stroke="black" cx="323" cy="-250.79" rx="18" ry="18"/>
<text text-anchor="middle" x="323" y="-247.09" font-family="Helvetica,sans-Serif" font-size="14.00">X</text>
</g>
<!-- 4574337104&#45;&gt;4574313072 -->
<g id="edge12" class="edge">
<title>4574337104&#45;&gt;4574313072</title>
<path fill="none" stroke="black" d="M286.38,-294.52C292.95,-286.85 301.29,-277.12 308.36,-268.88"/>
<polygon fill="black" stroke="black" points="309.78,-269.9 311.71,-264.97 307.12,-267.63 309.78,-269.9"/>
</g>
<!-- 354433 -->
<!-- 4574312832&#45;&gt;354433 -->
<!-- 945851 -->
<!-- 4574312832&#45;&gt;945851 -->
<!-- 4574301840 -->
<g id="node10" class="node">
<title>4574301840</title>
<ellipse fill="lightblue" stroke="black" cx="114" cy="-192.79" rx="18" ry="18"/>
<text text-anchor="middle" x="114" y="-189.09" font-family="Helvetica,sans-Serif" font-size="14.00">C</text>
</g>
<!-- 4574312832&#45;&gt;4574301840 -->
<g id="edge9" class="edge">
<title>4574312832&#45;&gt;4574301840</title>
<path fill="none" stroke="black" d="M77.38,-236.52C83.95,-228.85 92.29,-219.12 99.36,-210.88"/>
<polygon fill="black" stroke="black" points="100.78,-211.9 102.71,-206.97 98.12,-209.63 100.78,-211.9"/>
</g>
<!-- 4574300832 -->
<g id="node14" class="node">
<title>4574300832</title>
<ellipse fill="lightblue" stroke="black" cx="275" cy="-192.79" rx="18" ry="18"/>
<text text-anchor="middle" x="275" y="-189.09" font-family="Helvetica,sans-Serif" font-size="14.00">S</text>
</g>
<!-- 4574313072&#45;&gt;4574300832 -->
<g id="edge13" class="edge">
<title>4574313072&#45;&gt;4574300832</title>
<path fill="none" stroke="black" d="M311.62,-236.52C305.05,-228.85 296.71,-219.12 289.64,-210.88"/>
<polygon fill="black" stroke="black" points="290.88,-209.63 286.29,-206.97 288.22,-211.9 290.88,-209.63"/>
</g>
<!-- 300940 -->
<!-- 4574313072&#45;&gt;300940 -->
<!-- 931552 -->
<!-- 4574313072&#45;&gt;931552 -->
<!-- 4574311056 -->
<g id="node17" class="node">
<title>4574311056</title>
<ellipse fill="lightblue" stroke="black" cx="195" cy="-134.6" rx="18.4" ry="18.4"/>
<text text-anchor="middle" x="195" y="-130.9" font-family="Helvetica,sans-Serif" font-size="14.00">O</text>
</g>
<!-- 4574300832&#45;&gt;4574311056 -->
<g id="edge16" class="edge">
<title>4574300832&#45;&gt;4574311056</title>
<path fill="none" stroke="black" d="M260.7,-181.75C247.58,-172.53 228.08,-158.83 213.72,-148.75"/>
<polygon fill="black" stroke="black" points="214.55,-147.19 209.45,-145.74 212.53,-150.05 214.55,-147.19"/>
</g>
<!-- 433545 -->
<!-- 4574300832&#45;&gt;433545 -->
<!-- 4574299440 -->
<g id="node19" class="node">
<title>4574299440</title>
<ellipse fill="lightblue" stroke="black" cx="356" cy="-134.6" rx="18" ry="18"/>
<text text-anchor="middle" x="356" y="-130.9" font-family="Helvetica,sans-Serif" font-size="14.00">T</text>
</g>
<!-- 4574300832&#45;&gt;4574299440 -->
<g id="edge18" class="edge">
<title>4574300832&#45;&gt;4574299440</title>
<path fill="none" stroke="black" d="M289.48,-181.75C302.84,-172.48 322.76,-158.66 337.31,-148.56"/>
<polygon fill="black" stroke="black" points="338.53,-149.84 341.64,-145.56 336.54,-146.97 338.53,-149.84"/>
</g>
<!-- 4574312352 -->
<g id="node20" class="node">
<title>4574312352</title>
<ellipse fill="lightblue" stroke="black" cx="82" cy="-76.2" rx="18" ry="18"/>
<text text-anchor="middle" x="82" y="-72.5" font-family="Helvetica,sans-Serif" font-size="14.00">J</text>
</g>
<!-- 4574311056&#45;&gt;4574312352 -->
<g id="edge19" class="edge">
<title>4574311056&#45;&gt;4574312352</title>
<path fill="none" stroke="black" d="M178.81,-125.51C158.73,-115.49 124.46,-98.39 102.55,-87.45"/>
<polygon fill="black" stroke="black" points="103.05,-85.75 97.8,-85.08 101.49,-88.88 103.05,-85.75"/>
</g>
<!-- 823716 -->
<!-- 4574311056&#45;&gt;823716 -->
<!-- 4574308416 -->
<g id="node22" class="node">
<title>4574308416</title>
<ellipse fill="lightblue" stroke="black" cx="243" cy="-76.2" rx="18.4" ry="18.4"/>
<text text-anchor="middle" x="243" y="-72.5" font-family="Helvetica,sans-Serif" font-size="14.00">Q</text>
</g>
<!-- 4574311056&#45;&gt;4574308416 -->
<g id="edge21" class="edge">
<title>4574311056&#45;&gt;4574308416</title>
<path fill="none" stroke="black" d="M206.38,-120.23C212.86,-112.62 221.05,-102.99 228.05,-94.77"/>
<polygon fill="black" stroke="black" points="229.46,-95.8 231.37,-90.86 226.8,-93.53 229.46,-95.8"/>
</g>
<!-- 245236 -->
<!-- 4574299440&#45;&gt;245236 -->
<!-- 963621 -->
<!-- 4574299440&#45;&gt;963621 -->
<!-- 4574312640 -->
<g id="node31" class="node">
<title>4574312640</title>
<ellipse fill="lightblue" stroke="black" cx="404" cy="-76.2" rx="18" ry="18"/>
<text text-anchor="middle" x="404" y="-72.5" font-family="Helvetica,sans-Serif" font-size="14.00">V</text>
</g>
<!-- 4574299440&#45;&gt;4574312640 -->
<g id="edge30" class="edge">
<title>4574299440&#45;&gt;4574312640</title>
<path fill="none" stroke="black" d="M367.38,-120.23C373.95,-112.5 382.29,-102.7 389.36,-94.4"/>
<polygon fill="black" stroke="black" points="390.8,-95.41 392.71,-90.47 388.13,-93.14 390.8,-95.41"/>
</g>
<!-- 4574705952 -->
<g id="node23" class="node">
<title>4574705952</title>
<ellipse fill="lightblue" stroke="black" cx="34" cy="-18" rx="18" ry="18"/>
<text text-anchor="middle" x="34" y="-14.3" font-family="Helvetica,sans-Serif" font-size="14.00">H</text>
</g>
<!-- 4574312352&#45;&gt;4574705952 -->
<g id="edge22" class="edge">
<title>4574312352&#45;&gt;4574705952</title>
<path fill="none" stroke="black" d="M70.62,-61.88C64.05,-54.18 55.71,-44.41 48.64,-36.15"/>
<polygon fill="black" stroke="black" points="49.87,-34.89 45.29,-32.22 47.21,-37.16 49.87,-34.89"/>
</g>
<!-- 696517 -->
<!-- 4574312352&#45;&gt;696517 -->
<!-- 4574313792 -->
<g id="node25" class="node">
<title>4574313792</title>
<ellipse fill="lightblue" stroke="black" cx="130" cy="-18" rx="18" ry="18"/>
<text text-anchor="middle" x="130" y="-14.3" font-family="Helvetica,sans-Serif" font-size="14.00">L</text>
</g>
<!-- 4574312352&#45;&gt;4574313792 -->
<g id="edge24" class="edge">
<title>4574312352&#45;&gt;4574313792</title>
<path fill="none" stroke="black" d="M93.38,-61.88C99.95,-54.18 108.29,-44.41 115.36,-36.15"/>
<polygon fill="black" stroke="black" points="116.79,-37.16 118.71,-32.22 114.13,-34.89 116.79,-37.16"/>
</g>
<!-- 4574298720 -->
<g id="node26" class="node">
<title>4574298720</title>
<ellipse fill="lightblue" stroke="black" cx="195" cy="-18" rx="18" ry="18"/>
<text text-anchor="middle" x="195" y="-14.3" font-family="Helvetica,sans-Serif" font-size="14.00">P</text>
</g>
<!-- 4574308416&#45;&gt;4574298720 -->
<g id="edge25" class="edge">
<title>4574308416&#45;&gt;4574298720</title>
<path fill="none" stroke="black" d="M231.62,-61.88C225.05,-54.18 216.71,-44.41 209.64,-36.15"/>
<polygon fill="black" stroke="black" points="210.87,-34.89 206.29,-32.22 208.21,-37.16 210.87,-34.89"/>
</g>
<!-- 781727 -->
<!-- 4574308416&#45;&gt;781727 -->
<!-- 175498 -->
<!-- 4574308416&#45;&gt;175498 -->
</g>
</svg>
