<?xml version="1.0" encoding="UTF-8" standalone="no"?>
<!DOCTYPE svg PUBLIC "-//W3C//DTD SVG 1.1//EN"
 "http://www.w3.org/Graphics/SVG/1.1/DTD/svg11.dtd">
<!-- Generated by graphviz version 2.50.0 (0)
 -->
<!-- Pages: 1 -->
<svg width="510pt" height="455pt"
 viewBox="0.00 0.00 510.00 455.49" xmlns="http://www.w3.org/2000/svg" xmlns:xlink="http://www.w3.org/1999/xlink">
<g id="graph0" class="graph" transform="scale(1 1) rotate(0) translate(4 451.49)">
<polygon fill="white" stroke="transparent" points="-4,4 -4,-451.49 506,-451.49 506,4 -4,4"/>
<!-- 4573816032 -->
<g id="node1" class="node">
<title>4573816032</title>
<ellipse fill="lightblue" stroke="black" cx="98" cy="-429.49" rx="18" ry="18"/>
<text text-anchor="middle" x="98" y="-425.79" font-family="Helvetica,sans-Serif" font-size="14.00">A</text>
</g>
<!-- 792927 -->
<!-- 4573816032&#45;&gt;792927 -->
<!-- 944450 -->
<!-- 4573816032&#45;&gt;944450 -->
<!-- 4574308272 -->
<g id="node4" class="node">
<title>4574308272</title>
<ellipse fill="lightblue" stroke="black" cx="146" cy="-370.64" rx="18.7" ry="18.7"/>
<text text-anchor="middle" x="146" y="-366.94" font-family="Helvetica,sans-Serif" font-size="14.00">M</text>
</g>
<!-- 4573816032&#45;&gt;4574308272 -->
<g id="edge3" class="edge">
<title>4573816032&#45;&gt;4574308272</title>
<path fill="none" stroke="black" d="M109.13,-415.3C115.61,-407.63 123.85,-397.87 130.91,-389.52"/>
<polygon fill="black" stroke="black" points="132.37,-390.49 134.26,-385.55 129.7,-388.24 132.37,-390.49"/>
</g>
<!-- 4574313792 -->
<g id="node5" class="node">
<title>4574313792</title>
<ellipse fill="lightblue" stroke="black" cx="66" cy="-311.79" rx="18" ry="18"/>
<text text-anchor="middle" x="66" y="-308.09" font-family="Helvetica,sans-Serif" font-size="14.00">D</text>
</g>
<!-- 4574308272&#45;&gt;4574313792 -->
<g id="edge4" class="edge">
<title>4574308272&#45;&gt;4574313792</title>
<path fill="none" stroke="black" d="M130.95,-358.95C117.83,-349.62 98.73,-336.05 84.64,-326.04"/>
<polygon fill="black" stroke="black" points="85.53,-324.52 80.44,-323.05 83.5,-327.37 85.53,-324.52"/>
</g>
<!-- 704538 -->
<!-- 4574308272&#45;&gt;704538 -->
<!-- 4574310624 -->
<g id="node7" class="node">
<title>4574310624</title>
<ellipse fill="lightblue" stroke="black" cx="227" cy="-311.79" rx="18" ry="18"/>
<text text-anchor="middle" x="227" y="-308.09" font-family="Helvetica,sans-Serif" font-size="14.00">N</text>
</g>
<!-- 4574308272&#45;&gt;4574310624 -->
<g id="edge6" class="edge">
<title>4574308272&#45;&gt;4574310624</title>
<path fill="none" stroke="black" d="M161.24,-358.95C174.61,-349.56 194.1,-335.88 208.39,-325.85"/>
<polygon fill="black" stroke="black" points="209.56,-327.17 212.65,-322.86 207.55,-324.3 209.56,-327.17"/>
</g>
<!-- 4574298720 -->
<g id="node8" class="node">
<title>4574298720</title>
<ellipse fill="lightblue" stroke="black" cx="18" cy="-253.79" rx="18" ry="18"/>
<text text-anchor="middle" x="18" y="-250.09" font-family="Helvetica,sans-Serif" font-size="14.00">C</text>
</g>
<!-- 4574313792&#45;&gt;4574298720 -->
<g id="edge7" class="edge">
<title>4574313792&#45;&gt;4574298720</title>
<path fill="none" stroke="black" d="M54.62,-297.52C48.05,-289.85 39.71,-280.11 32.64,-271.87"/>
<polygon fill="black" stroke="black" points="33.88,-270.62 29.29,-267.97 31.22,-272.9 33.88,-270.62"/>
</g>
<!-- 126100 -->
<!-- 4574313792&#45;&gt;126100 -->
<!-- 4574309472 -->
<g id="node10" class="node">
<title>4574309472</title>
<ellipse fill="lightblue" stroke="black" cx="114" cy="-253.79" rx="18" ry="18"/>
<text text-anchor="middle" x="114" y="-250.09" font-family="Helvetica,sans-Serif" font-size="14.00">K</text>
</g>
<!-- 4574313792&#45;&gt;4574309472 -->
<g id="edge9" class="edge">
<title>4574313792&#45;&gt;4574309472</title>
<path fill="none" stroke="black" d="M77.38,-297.52C83.95,-289.85 92.29,-280.11 99.36,-271.87"/>
<polygon fill="black" stroke="black" points="100.78,-272.9 102.71,-267.97 98.12,-270.62 100.78,-272.9"/>
</g>
<!-- 572495 -->
<!-- 4574310624&#45;&gt;572495 -->
<!-- 797930 -->
<!-- 4574310624&#45;&gt;797930 -->
<!-- 4574300544 -->
<g id="node19" class="node">
<title>4574300544</title>
<ellipse fill="lightblue" stroke="black" cx="275" cy="-253.79" rx="18" ry="18"/>
<text text-anchor="middle" x="275" y="-250.09" font-family="Helvetica,sans-Serif" font-size="14.00">R</text>
</g>
<!-- 4574310624&#45;&gt;4574300544 -->
<g id="edge18" class="edge">
<title>4574310624&#45;&gt;4574300544</title>
<path fill="none" stroke="black" d="M238.38,-297.52C244.95,-289.85 253.29,-280.11 260.36,-271.87"/>
<polygon fill="black" stroke="black" points="261.78,-272.9 263.71,-267.97 259.12,-270.62 261.78,-272.9"/>
</g>
<!-- 4574692512 -->
<g id="node11" class="node">
<title>4574692512</title>
<ellipse fill="lightblue" stroke="black" cx="66" cy="-195.59" rx="18" ry="18"/>
<text text-anchor="middle" x="66" y="-191.89" font-family="Helvetica,sans-Serif" font-size="14.00">H</text>
</g>
<!-- 4574309472&#45;&gt;4574692512 -->
<g id="edge10" class="edge">
<title>4574309472&#45;&gt;4574692512</title>
<path fill="none" stroke="black" d="M102.62,-239.47C96.05,-231.77 87.71,-222.01 80.64,-213.74"/>
<polygon fill="black" stroke="black" points="81.87,-212.48 77.29,-209.81 79.21,-214.75 81.87,-212.48"/>
</g>
<!-- 712598 -->
<!-- 4574309472&#45;&gt;712598 -->
<!-- 675597 -->
<!-- 4574309472&#45;&gt;675597 -->
<!-- 4574704416 -->
<g id="node14" class="node">
<title>4574704416</title>
<ellipse fill="lightblue" stroke="black" cx="18" cy="-137.19" rx="18" ry="18"/>
<text text-anchor="middle" x="18" y="-133.49" font-family="Helvetica,sans-Serif" font-size="14.00">E</text>
</g>
<!-- 4574692512&#45;&gt;4574704416 -->
<g id="edge13" class="edge">
<title>4574692512&#45;&gt;4574704416</title>
<path fill="none" stroke="black" d="M54.62,-181.23C48.05,-173.5 39.71,-163.7 32.64,-155.4"/>
<polygon fill="black" stroke="black" points="33.87,-154.14 29.29,-151.46 31.2,-156.41 33.87,-154.14"/>
</g>
<!-- 291026 -->
<!-- 4574692512&#45;&gt;291026 -->
<!-- 815224 -->
<!-- 4574692512&#45;&gt;815224 -->
<!-- 4574308416 -->
<g id="node20" class="node">
<title>4574308416</title>
<ellipse fill="lightblue" stroke="black" cx="227" cy="-195.59" rx="18.4" ry="18.4"/>
<text text-anchor="middle" x="227" y="-191.89" font-family="Helvetica,sans-Serif" font-size="14.00">O</text>
</g>
<!-- 4574300544&#45;&gt;4574308416 -->
<g id="edge19" class="edge">
<title>4574300544&#45;&gt;4574308416</title>
<path fill="none" stroke="black" d="M263.62,-239.47C257.14,-231.88 248.95,-222.29 241.95,-214.1"/>
<polygon fill="black" stroke="black" points="243.21,-212.87 238.63,-210.2 240.54,-215.14 243.21,-212.87"/>
</g>
<!-- 737396 -->
<!-- 4574300544&#45;&gt;737396 -->
<!-- 4574313168 -->
<g id="node22" class="node">
<title>4574313168</title>
<ellipse fill="lightblue" stroke="black" cx="388" cy="-195.59" rx="18" ry="18"/>
<text text-anchor="middle" x="388" y="-191.89" font-family="Helvetica,sans-Serif" font-size="14.00">U</text>
</g>
<!-- 4574300544&#45;&gt;4574313168 -->
<g id="edge21" class="edge">
<title>4574300544&#45;&gt;4574313168</title>
<path fill="none" stroke="black" d="M290.71,-244.98C310.75,-235.01 345.46,-217.75 367.55,-206.76"/>
<polygon fill="black" stroke="black" points="368.36,-208.31 372.06,-204.52 366.8,-205.18 368.36,-208.31"/>
</g>
<!-- 402498 -->
<!-- 4574308416&#45;&gt;402498 -->
<!-- 89574 -->
<!-- 4574308416&#45;&gt;89574 -->
<!-- 4574697600 -->
<g id="node25" class="node">
<title>4574697600</title>
<ellipse fill="lightblue" stroke="black" cx="275" cy="-137.19" rx="18.4" ry="18.4"/>
<text text-anchor="middle" x="275" y="-133.49" font-family="Helvetica,sans-Serif" font-size="14.00">Q</text>
</g>
<!-- 4574308416&#45;&gt;4574697600 -->
<g id="edge24" class="edge">
<title>4574308416&#45;&gt;4574697600</title>
<path fill="none" stroke="black" d="M238.38,-181.23C244.86,-173.61 253.05,-163.98 260.05,-155.76"/>
<polygon fill="black" stroke="black" points="261.46,-156.8 263.37,-151.86 258.8,-154.53 261.46,-156.8"/>
</g>
<!-- 87635 -->
<!-- 4574313168&#45;&gt;87635 -->
<!-- 551736 -->
<!-- 4574313168&#45;&gt;551736 -->
<!-- 4574307648 -->
<g id="node28" class="node">
<title>4574307648</title>
<ellipse fill="lightblue" stroke="black" cx="436" cy="-137.19" rx="18" ry="18"/>
<text text-anchor="middle" x="436" y="-133.49" font-family="Helvetica,sans-Serif" font-size="14.00">X</text>
</g>
<!-- 4574313168&#45;&gt;4574307648 -->
<g id="edge27" class="edge">
<title>4574313168&#45;&gt;4574307648</title>
<path fill="none" stroke="black" d="M399.38,-181.23C405.95,-173.5 414.29,-163.7 421.36,-155.4"/>
<polygon fill="black" stroke="black" points="422.8,-156.41 424.71,-151.46 420.13,-154.14 422.8,-156.41"/>
</g>
<!-- 4574300928 -->
<g id="node29" class="node">
<title>4574300928</title>
<ellipse fill="lightblue" stroke="black" cx="387" cy="-77.5" rx="19.5" ry="19.5"/>
<text text-anchor="middle" x="387" y="-73.8" font-family="Helvetica,sans-Serif" font-size="14.00">W</text>
</g>
<!-- 4574307648&#45;&gt;4574300928 -->
<g id="edge28" class="edge">
<title>4574307648&#45;&gt;4574300928</title>
<path fill="none" stroke="black" d="M424.64,-122.81C418.12,-115.15 409.86,-105.41 402.73,-97.02"/>
<polygon fill="black" stroke="black" points="403.9,-95.7 399.33,-93.02 401.24,-97.96 403.9,-95.7"/>
</g>
<!-- 227919 -->
<!-- 4574307648&#45;&gt;227919 -->
<!-- 366047 -->
<!-- 4574307648&#45;&gt;366047 -->
<!-- 4574692944 -->
<g id="node32" class="node">
<title>4574692944</title>
<ellipse fill="lightblue" stroke="black" cx="339" cy="-18" rx="18" ry="18"/>
<text text-anchor="middle" x="339" y="-14.3" font-family="Helvetica,sans-Serif" font-size="14.00">V</text>
</g>
<!-- 4574300928&#45;&gt;4574692944 -->
<g id="edge31" class="edge">
<title>4574300928&#45;&gt;4574692944</title>
<path fill="none" stroke="black" d="M374.89,-61.99C368.4,-54.21 360.35,-44.58 353.53,-36.4"/>
<polygon fill="black" stroke="black" points="354.83,-35.23 350.28,-32.52 352.15,-37.48 354.83,-35.23"/>
</g>
<!-- 472428 -->
<!-- 4574300928&#45;&gt;472428 -->
<!-- 906791 -->
<!-- 4574300928&#45;&gt;906791 -->
</g>
</svg>
