<?xml version="1.0" encoding="UTF-8" standalone="no"?>
<!DOCTYPE svg PUBLIC "-//W3C//DTD SVG 1.1//EN"
 "http://www.w3.org/Graphics/SVG/1.1/DTD/svg11.dtd">
<!-- Generated by graphviz version 2.50.0 (0)
 -->
<!-- Pages: 1 -->
<svg width="462pt" height="509pt"
 viewBox="0.00 0.00 462.00 508.79" xmlns="http://www.w3.org/2000/svg" xmlns:xlink="http://www.w3.org/1999/xlink">
<g id="graph0" class="graph" transform="scale(1 1) rotate(0) translate(4 504.79)">
<polygon fill="white" stroke="transparent" points="-4,4 -4,-504.79 458,-504.79 458,4 -4,4"/>
<!-- 4574339552 -->
<g id="node1" class="node">
<title>4574339552</title>
<ellipse fill="lightblue" stroke="black" cx="211" cy="-482.79" rx="18" ry="18"/>
<text text-anchor="middle" x="211" y="-479.09" font-family="Helvetica,sans-Serif" font-size="14.00">E</text>
</g>
<!-- 4574309808 -->
<g id="node2" class="node">
<title>4574309808</title>
<ellipse fill="lightblue" stroke="black" cx="163" cy="-424.6" rx="18" ry="18"/>
<text text-anchor="middle" x="163" y="-420.9" font-family="Helvetica,sans-Serif" font-size="14.00">D</text>
</g>
<!-- 4574339552&#45;&gt;4574309808 -->
<g id="edge1" class="edge">
<title>4574339552&#45;&gt;4574309808</title>
<path fill="none" stroke="black" d="M199.62,-468.48C193.05,-460.78 184.71,-451.01 177.64,-442.74"/>
<polygon fill="black" stroke="black" points="178.87,-441.48 174.29,-438.82 176.21,-443.76 178.87,-441.48"/>
</g>
<!-- 175027 -->
<!-- 4574339552&#45;&gt;175027 -->
<!-- 4574343104 -->
<g id="node4" class="node">
<title>4574343104</title>
<ellipse fill="lightblue" stroke="black" cx="259" cy="-424.6" rx="18.4" ry="18.4"/>
<text text-anchor="middle" x="259" y="-420.9" font-family="Helvetica,sans-Serif" font-size="14.00">G</text>
</g>
<!-- 4574339552&#45;&gt;4574343104 -->
<g id="edge3" class="edge">
<title>4574339552&#45;&gt;4574343104</title>
<path fill="none" stroke="black" d="M222.38,-468.48C228.86,-460.89 237.05,-451.29 244.05,-443.1"/>
<polygon fill="black" stroke="black" points="245.46,-444.15 247.37,-439.21 242.79,-441.87 245.46,-444.15"/>
</g>
<!-- 417282 -->
<!-- 4574343104&#45;&gt;417282 -->
<!-- 57987 -->
<!-- 4574343104&#45;&gt;57987 -->
<!-- 4574304048 -->
<g id="node7" class="node">
<title>4574304048</title>
<ellipse fill="lightblue" stroke="black" cx="307" cy="-366.4" rx="18" ry="18"/>
<text text-anchor="middle" x="307" y="-362.7" font-family="Helvetica,sans-Serif" font-size="14.00">V</text>
</g>
<!-- 4574343104&#45;&gt;4574304048 -->
<g id="edge6" class="edge">
<title>4574343104&#45;&gt;4574304048</title>
<path fill="none" stroke="black" d="M270.38,-410.28C276.95,-402.58 285.29,-392.81 292.36,-384.54"/>
<polygon fill="black" stroke="black" points="293.79,-385.56 295.71,-380.62 291.13,-383.28 293.79,-385.56"/>
</g>
<!-- 4574306064 -->
<g id="node8" class="node">
<title>4574306064</title>
<ellipse fill="lightblue" stroke="black" cx="227" cy="-308.4" rx="18" ry="18"/>
<text text-anchor="middle" x="227" y="-304.7" font-family="Helvetica,sans-Serif" font-size="14.00">L</text>
</g>
<!-- 4574304048&#45;&gt;4574306064 -->
<g id="edge7" class="edge">
<title>4574304048&#45;&gt;4574306064</title>
<path fill="none" stroke="black" d="M292.7,-355.39C279.58,-346.2 260.08,-332.55 245.72,-322.5"/>
<polygon fill="black" stroke="black" points="246.55,-320.94 241.45,-319.51 244.54,-323.81 246.55,-320.94"/>
</g>
<!-- 445828 -->
<!-- 4574304048&#45;&gt;445828 -->
<!-- 4574300976 -->
<g id="node10" class="node">
<title>4574300976</title>
<ellipse fill="lightblue" stroke="black" cx="388" cy="-308.4" rx="18" ry="18"/>
<text text-anchor="middle" x="388" y="-304.7" font-family="Helvetica,sans-Serif" font-size="14.00">Y</text>
</g>
<!-- 4574304048&#45;&gt;4574300976 -->
<g id="edge9" class="edge">
<title>4574304048&#45;&gt;4574300976</title>
<path fill="none" stroke="black" d="M321.48,-355.39C334.84,-346.15 354.76,-332.38 369.31,-322.32"/>
<polygon fill="black" stroke="black" points="370.53,-323.6 373.64,-319.32 368.54,-320.73 370.53,-323.6"/>
</g>
<!-- 4574307648 -->
<g id="node11" class="node">
<title>4574307648</title>
<ellipse fill="lightblue" stroke="black" cx="114" cy="-250.4" rx="18" ry="18"/>
<text text-anchor="middle" x="114" y="-246.7" font-family="Helvetica,sans-Serif" font-size="14.00">K</text>
</g>
<!-- 4574306064&#45;&gt;4574307648 -->
<g id="edge10" class="edge">
<title>4574306064&#45;&gt;4574307648</title>
<path fill="none" stroke="black" d="M211.29,-299.61C191.25,-289.68 156.54,-272.48 134.45,-261.53"/>
<polygon fill="black" stroke="black" points="135.2,-259.95 129.94,-259.3 133.65,-263.09 135.2,-259.95"/>
</g>
<!-- 413756 -->
<!-- 4574306064&#45;&gt;413756 -->
<!-- 4574300544 -->
<g id="node13" class="node">
<title>4574300544</title>
<ellipse fill="lightblue" stroke="black" cx="275" cy="-250.4" rx="18" ry="18"/>
<text text-anchor="middle" x="275" y="-246.7" font-family="Helvetica,sans-Serif" font-size="14.00">U</text>
</g>
<!-- 4574306064&#45;&gt;4574300544 -->
<g id="edge12" class="edge">
<title>4574306064&#45;&gt;4574300544</title>
<path fill="none" stroke="black" d="M238.38,-294.13C244.95,-286.45 253.29,-276.72 260.36,-268.48"/>
<polygon fill="black" stroke="black" points="261.78,-269.51 263.71,-264.57 259.12,-267.23 261.78,-269.51"/>
</g>
<!-- 4574314416 -->
<g id="node32" class="node">
<title>4574314416</title>
<ellipse fill="lightblue" stroke="black" cx="340" cy="-250.4" rx="18" ry="18"/>
<text text-anchor="middle" x="340" y="-246.7" font-family="Helvetica,sans-Serif" font-size="14.00">X</text>
</g>
<!-- 4574300976&#45;&gt;4574314416 -->
<g id="edge31" class="edge">
<title>4574300976&#45;&gt;4574314416</title>
<path fill="none" stroke="black" d="M376.62,-294.13C370.05,-286.45 361.71,-276.72 354.64,-268.48"/>
<polygon fill="black" stroke="black" points="355.88,-267.23 351.29,-264.57 353.22,-269.51 355.88,-267.23"/>
</g>
<!-- 995003 -->
<!-- 4574300976&#45;&gt;995003 -->
<!-- 677631 -->
<!-- 4574300976&#45;&gt;677631 -->
<!-- 4574313984 -->
<g id="node14" class="node">
<title>4574313984</title>
<ellipse fill="lightblue" stroke="black" cx="66" cy="-192.4" rx="18" ry="18"/>
<text text-anchor="middle" x="66" y="-188.7" font-family="Helvetica,sans-Serif" font-size="14.00">J</text>
</g>
<!-- 4574307648&#45;&gt;4574313984 -->
<g id="edge13" class="edge">
<title>4574307648&#45;&gt;4574313984</title>
<path fill="none" stroke="black" d="M102.62,-236.13C96.05,-228.45 87.71,-218.72 80.64,-210.48"/>
<polygon fill="black" stroke="black" points="81.88,-209.23 77.29,-206.57 79.22,-211.51 81.88,-209.23"/>
</g>
<!-- 796777 -->
<!-- 4574307648&#45;&gt;796777 -->
<!-- 267779 -->
<!-- 4574307648&#45;&gt;267779 -->
<!-- 4574310624 -->
<g id="node20" class="node">
<title>4574310624</title>
<ellipse fill="lightblue" stroke="black" cx="227" cy="-192.4" rx="18" ry="18"/>
<text text-anchor="middle" x="227" y="-188.7" font-family="Helvetica,sans-Serif" font-size="14.00">S</text>
</g>
<!-- 4574300544&#45;&gt;4574310624 -->
<g id="edge19" class="edge">
<title>4574300544&#45;&gt;4574310624</title>
<path fill="none" stroke="black" d="M263.62,-236.13C257.05,-228.45 248.71,-218.72 241.64,-210.48"/>
<polygon fill="black" stroke="black" points="242.88,-209.23 238.29,-206.57 240.22,-211.51 242.88,-209.23"/>
</g>
<!-- 300270 -->
<!-- 4574300544&#45;&gt;300270 -->
<!-- 787216 -->
<!-- 4574300544&#45;&gt;787216 -->
<!-- 4574311152 -->
<g id="node17" class="node">
<title>4574311152</title>
<ellipse fill="lightblue" stroke="black" cx="18" cy="-134.4" rx="18" ry="18"/>
<text text-anchor="middle" x="18" y="-130.7" font-family="Helvetica,sans-Serif" font-size="14.00">I</text>
</g>
<!-- 4574313984&#45;&gt;4574311152 -->
<g id="edge16" class="edge">
<title>4574313984&#45;&gt;4574311152</title>
<path fill="none" stroke="black" d="M54.62,-178.13C48.05,-170.45 39.71,-160.72 32.64,-152.48"/>
<polygon fill="black" stroke="black" points="33.88,-151.23 29.29,-148.57 31.22,-153.51 33.88,-151.23"/>
</g>
<!-- 108118 -->
<!-- 4574313984&#45;&gt;108118 -->
<!-- 507784 -->
<!-- 4574313984&#45;&gt;507784 -->
<!-- 4574313168 -->
<g id="node23" class="node">
<title>4574313168</title>
<ellipse fill="lightblue" stroke="black" cx="179" cy="-134.4" rx="18" ry="18"/>
<text text-anchor="middle" x="179" y="-130.7" font-family="Helvetica,sans-Serif" font-size="14.00">N</text>
</g>
<!-- 4574310624&#45;&gt;4574313168 -->
<g id="edge22" class="edge">
<title>4574310624&#45;&gt;4574313168</title>
<path fill="none" stroke="black" d="M215.62,-178.13C209.05,-170.45 200.71,-160.72 193.64,-152.48"/>
<polygon fill="black" stroke="black" points="194.88,-151.23 190.29,-148.57 192.22,-153.51 194.88,-151.23"/>
</g>
<!-- 172731 -->
<!-- 4574310624&#45;&gt;172731 -->
<!-- 750939 -->
<!-- 4574310624&#45;&gt;750939 -->
<!-- 986432 -->
<!-- 4574313168&#45;&gt;986432 -->
<!-- 122779 -->
<!-- 4574313168&#45;&gt;122779 -->
<!-- 4574312112 -->
<g id="node28" class="node">
<title>4574312112</title>
<ellipse fill="lightblue" stroke="black" cx="227" cy="-76.2" rx="18.4" ry="18.4"/>
<text text-anchor="middle" x="227" y="-72.5" font-family="Helvetica,sans-Serif" font-size="14.00">O</text>
</g>
<!-- 4574313168&#45;&gt;4574312112 -->
<g id="edge27" class="edge">
<title>4574313168&#45;&gt;4574312112</title>
<path fill="none" stroke="black" d="M190.38,-120.08C196.86,-112.49 205.05,-102.89 212.05,-94.7"/>
<polygon fill="black" stroke="black" points="213.46,-95.75 215.37,-90.81 210.79,-93.48 213.46,-95.75"/>
</g>
<!-- 298576 -->
<!-- 4574312112&#45;&gt;298576 -->
<!-- 253968 -->
<!-- 4574312112&#45;&gt;253968 -->
<!-- 4574692320 -->
<g id="node31" class="node">
<title>4574692320</title>
<ellipse fill="lightblue" stroke="black" cx="275" cy="-18" rx="18" ry="18"/>
<text text-anchor="middle" x="275" y="-14.3" font-family="Helvetica,sans-Serif" font-size="14.00">P</text>
</g>
<!-- 4574312112&#45;&gt;4574692320 -->
<g id="edge30" class="edge">
<title>4574312112&#45;&gt;4574692320</title>
<path fill="none" stroke="black" d="M238.38,-61.88C244.95,-54.18 253.29,-44.41 260.36,-36.15"/>
<polygon fill="black" stroke="black" points="261.79,-37.16 263.71,-32.22 259.13,-34.89 261.79,-37.16"/>
</g>
</g>
</svg>
