<?xml version="1.0" encoding="UTF-8" standalone="no"?>
<!DOCTYPE svg PUBLIC "-//W3C//DTD SVG 1.1//EN"
 "http://www.w3.org/Graphics/SVG/1.1/DTD/svg11.dtd">
<!-- Generated by graphviz version 2.50.0 (0)
 -->
<!-- Pages: 1 -->
<svg width="462pt" height="396pt"
 viewBox="0.00 0.00 462.00 395.79" xmlns="http://www.w3.org/2000/svg" xmlns:xlink="http://www.w3.org/1999/xlink">
<g id="graph0" class="graph" transform="scale(1 1) rotate(0) translate(4 391.79)">
<polygon fill="white" stroke="transparent" points="-4,4 -4,-391.79 458,-391.79 458,4 -4,4"/>
<!-- 4574338112 -->
<g id="node1" class="node">
<title>4574338112</title>
<ellipse fill="lightblue" stroke="black" cx="307" cy="-369.79" rx="18" ry="18"/>
<text text-anchor="middle" x="307" y="-366.09" font-family="Helvetica,sans-Serif" font-size="14.00">V</text>
</g>
<!-- 4574346944 -->
<g id="node2" class="node">
<title>4574346944</title>
<ellipse fill="lightblue" stroke="black" cx="227" cy="-310.29" rx="18" ry="18"/>
<text text-anchor="middle" x="227" y="-306.59" font-family="Helvetica,sans-Serif" font-size="14.00">C</text>
</g>
<!-- 4574338112&#45;&gt;4574346944 -->
<g id="edge1" class="edge">
<title>4574338112&#45;&gt;4574346944</title>
<path fill="none" stroke="black" d="M292.7,-358.51C279.5,-349.03 259.83,-334.89 245.46,-324.56"/>
<polygon fill="black" stroke="black" points="246.26,-322.98 241.18,-321.48 244.22,-325.82 246.26,-322.98"/>
</g>
<!-- 103110 -->
<!-- 4574338112&#45;&gt;103110 -->
<!-- 4574311056 -->
<g id="node4" class="node">
<title>4574311056</title>
<ellipse fill="lightblue" stroke="black" cx="388" cy="-310.29" rx="19.5" ry="19.5"/>
<text text-anchor="middle" x="388" y="-306.59" font-family="Helvetica,sans-Serif" font-size="14.00">W</text>
</g>
<!-- 4574338112&#45;&gt;4574311056 -->
<g id="edge3" class="edge">
<title>4574338112&#45;&gt;4574311056</title>
<path fill="none" stroke="black" d="M321.48,-358.51C334.51,-349.26 353.78,-335.59 368.22,-325.33"/>
<polygon fill="black" stroke="black" points="369.48,-326.59 372.54,-322.27 367.45,-323.73 369.48,-326.59"/>
</g>
<!-- 4574299440 -->
<g id="node5" class="node">
<title>4574299440</title>
<ellipse fill="lightblue" stroke="black" cx="114" cy="-250.6" rx="18" ry="18"/>
<text text-anchor="middle" x="114" y="-246.9" font-family="Helvetica,sans-Serif" font-size="14.00">A</text>
</g>
<!-- 4574346944&#45;&gt;4574299440 -->
<g id="edge4" class="edge">
<title>4574346944&#45;&gt;4574299440</title>
<path fill="none" stroke="black" d="M211.29,-301.27C191.25,-291.04 156.54,-273.32 134.45,-262.04"/>
<polygon fill="black" stroke="black" points="135.19,-260.45 129.94,-259.74 133.6,-263.57 135.19,-260.45"/>
</g>
<!-- 555577 -->
<!-- 4574346944&#45;&gt;555577 -->
<!-- 4574343104 -->
<g id="node7" class="node">
<title>4574343104</title>
<ellipse fill="lightblue" stroke="black" cx="275" cy="-250.6" rx="18.4" ry="18.4"/>
<text text-anchor="middle" x="275" y="-246.9" font-family="Helvetica,sans-Serif" font-size="14.00">Q</text>
</g>
<!-- 4574346944&#45;&gt;4574343104 -->
<g id="edge6" class="edge">
<title>4574346944&#45;&gt;4574343104</title>
<path fill="none" stroke="black" d="M238.13,-295.91C244.7,-288.01 253.1,-277.92 260.22,-269.37"/>
<polygon fill="black" stroke="black" points="261.74,-270.27 263.59,-265.31 259.05,-268.03 261.74,-270.27"/>
</g>
<!-- 764157 -->
<!-- 4574311056&#45;&gt;764157 -->
<!-- 471169 -->
<!-- 4574311056&#45;&gt;471169 -->
<!-- 4574312352 -->
<g id="node31" class="node">
<title>4574312352</title>
<ellipse fill="lightblue" stroke="black" cx="436" cy="-250.6" rx="18" ry="18"/>
<text text-anchor="middle" x="436" y="-246.9" font-family="Helvetica,sans-Serif" font-size="14.00">Y</text>
</g>
<!-- 4574311056&#45;&gt;4574312352 -->
<g id="edge30" class="edge">
<title>4574311056&#45;&gt;4574312352</title>
<path fill="none" stroke="black" d="M400.11,-294.73C406.6,-286.93 414.65,-277.26 421.47,-269.05"/>
<polygon fill="black" stroke="black" points="422.86,-270.12 424.72,-265.16 420.17,-267.88 422.86,-270.12"/>
</g>
<!-- 799941 -->
<!-- 4574299440&#45;&gt;799941 -->
<!-- 190783 -->
<!-- 4574299440&#45;&gt;190783 -->
<!-- 4574312640 -->
<g id="node10" class="node">
<title>4574312640</title>
<ellipse fill="lightblue" stroke="black" cx="162" cy="-192.2" rx="18" ry="18"/>
<text text-anchor="middle" x="162" y="-188.5" font-family="Helvetica,sans-Serif" font-size="14.00">B</text>
</g>
<!-- 4574299440&#45;&gt;4574312640 -->
<g id="edge9" class="edge">
<title>4574299440&#45;&gt;4574312640</title>
<path fill="none" stroke="black" d="M125.38,-236.23C131.95,-228.5 140.29,-218.7 147.36,-210.4"/>
<polygon fill="black" stroke="black" points="148.8,-211.41 150.71,-206.47 146.13,-209.14 148.8,-211.41"/>
</g>
<!-- 4574337632 -->
<g id="node11" class="node">
<title>4574337632</title>
<ellipse fill="lightblue" stroke="black" cx="227" cy="-192.2" rx="18.4" ry="18.4"/>
<text text-anchor="middle" x="227" y="-188.5" font-family="Helvetica,sans-Serif" font-size="14.00">G</text>
</g>
<!-- 4574343104&#45;&gt;4574337632 -->
<g id="edge10" class="edge">
<title>4574343104&#45;&gt;4574337632</title>
<path fill="none" stroke="black" d="M263.62,-236.23C257.14,-228.62 248.95,-218.99 241.95,-210.77"/>
<polygon fill="black" stroke="black" points="243.2,-209.53 238.63,-206.86 240.54,-211.8 243.2,-209.53"/>
</g>
<!-- 484481 -->
<!-- 4574343104&#45;&gt;484481 -->
<!-- 4574308416 -->
<g id="node13" class="node">
<title>4574308416</title>
<ellipse fill="lightblue" stroke="black" cx="388" cy="-192.2" rx="18" ry="18"/>
<text text-anchor="middle" x="388" y="-188.5" font-family="Helvetica,sans-Serif" font-size="14.00">S</text>
</g>
<!-- 4574343104&#45;&gt;4574308416 -->
<g id="edge12" class="edge">
<title>4574343104&#45;&gt;4574308416</title>
<path fill="none" stroke="black" d="M291.19,-241.51C311.27,-231.49 345.54,-214.39 367.45,-203.45"/>
<polygon fill="black" stroke="black" points="368.51,-204.88 372.2,-201.08 366.95,-201.75 368.51,-204.88"/>
</g>
<!-- 4574312112 -->
<g id="node14" class="node">
<title>4574312112</title>
<ellipse fill="lightblue" stroke="black" cx="114" cy="-134" rx="18" ry="18"/>
<text text-anchor="middle" x="114" y="-130.3" font-family="Helvetica,sans-Serif" font-size="14.00">F</text>
</g>
<!-- 4574337632&#45;&gt;4574312112 -->
<g id="edge13" class="edge">
<title>4574337632&#45;&gt;4574312112</title>
<path fill="none" stroke="black" d="M210.81,-183.15C190.73,-173.16 156.46,-156.12 134.55,-145.22"/>
<polygon fill="black" stroke="black" points="135.05,-143.52 129.8,-142.86 133.49,-146.65 135.05,-143.52"/>
</g>
<!-- 378026 -->
<!-- 4574337632&#45;&gt;378026 -->
<!-- 4574300976 -->
<g id="node16" class="node">
<title>4574300976</title>
<ellipse fill="lightblue" stroke="black" cx="275" cy="-134" rx="18" ry="18"/>
<text text-anchor="middle" x="275" y="-130.3" font-family="Helvetica,sans-Serif" font-size="14.00">J</text>
</g>
<!-- 4574337632&#45;&gt;4574300976 -->
<g id="edge15" class="edge">
<title>4574337632&#45;&gt;4574300976</title>
<path fill="none" stroke="black" d="M238.38,-177.88C244.95,-170.18 253.29,-160.41 260.36,-152.15"/>
<polygon fill="black" stroke="black" points="261.79,-153.16 263.71,-148.22 259.13,-150.89 261.79,-153.16"/>
</g>
<!-- 61341 -->
<!-- 4574308416&#45;&gt;61341 -->
<!-- 471886 -->
<!-- 4574308416&#45;&gt;471886 -->
<!-- 4574301840 -->
<g id="node28" class="node">
<title>4574301840</title>
<ellipse fill="lightblue" stroke="black" cx="436" cy="-134" rx="18" ry="18"/>
<text text-anchor="middle" x="436" y="-130.3" font-family="Helvetica,sans-Serif" font-size="14.00">U</text>
</g>
<!-- 4574308416&#45;&gt;4574301840 -->
<g id="edge27" class="edge">
<title>4574308416&#45;&gt;4574301840</title>
<path fill="none" stroke="black" d="M399.38,-177.88C405.95,-170.18 414.29,-160.41 421.36,-152.15"/>
<polygon fill="black" stroke="black" points="422.79,-153.16 424.71,-148.22 420.13,-150.89 422.79,-153.16"/>
</g>
<!-- 4574313168 -->
<g id="node17" class="node">
<title>4574313168</title>
<ellipse fill="lightblue" stroke="black" cx="66" cy="-76" rx="18" ry="18"/>
<text text-anchor="middle" x="66" y="-72.3" font-family="Helvetica,sans-Serif" font-size="14.00">D</text>
</g>
<!-- 4574312112&#45;&gt;4574313168 -->
<g id="edge16" class="edge">
<title>4574312112&#45;&gt;4574313168</title>
<path fill="none" stroke="black" d="M102.62,-119.73C96.05,-112.06 87.71,-102.32 80.64,-94.08"/>
<polygon fill="black" stroke="black" points="81.88,-92.83 77.29,-90.18 79.22,-95.11 81.88,-92.83"/>
</g>
<!-- 111620 -->
<!-- 4574312112&#45;&gt;111620 -->
<!-- 23138 -->
<!-- 4574312112&#45;&gt;23138 -->
<!-- 4574310624 -->
<g id="node23" class="node">
<title>4574310624</title>
<ellipse fill="lightblue" stroke="black" cx="227" cy="-76" rx="18" ry="18"/>
<text text-anchor="middle" x="227" y="-72.3" font-family="Helvetica,sans-Serif" font-size="14.00">I</text>
</g>
<!-- 4574300976&#45;&gt;4574310624 -->
<g id="edge22" class="edge">
<title>4574300976&#45;&gt;4574310624</title>
<path fill="none" stroke="black" d="M263.62,-119.73C257.05,-112.06 248.71,-102.32 241.64,-94.08"/>
<polygon fill="black" stroke="black" points="242.88,-92.83 238.29,-90.18 240.22,-95.11 242.88,-92.83"/>
</g>
<!-- 420033 -->
<!-- 4574300976&#45;&gt;420033 -->
<!-- 656357 -->
<!-- 4574300976&#45;&gt;656357 -->
<!-- 774449 -->
<!-- 4574313168&#45;&gt;774449 -->
<!-- 840514 -->
<!-- 4574313168&#45;&gt;840514 -->
<!-- 4574307648 -->
<g id="node22" class="node">
<title>4574307648</title>
<ellipse fill="lightblue" stroke="black" cx="114" cy="-18" rx="18" ry="18"/>
<text text-anchor="middle" x="114" y="-14.3" font-family="Helvetica,sans-Serif" font-size="14.00">E</text>
</g>
<!-- 4574313168&#45;&gt;4574307648 -->
<g id="edge21" class="edge">
<title>4574313168&#45;&gt;4574307648</title>
<path fill="none" stroke="black" d="M77.38,-61.73C83.95,-54.06 92.29,-44.32 99.36,-36.08"/>
<polygon fill="black" stroke="black" points="100.78,-37.11 102.71,-32.18 98.12,-34.83 100.78,-37.11"/>
</g>
</g>
</svg>
