<?xml version="1.0" encoding="UTF-8" standalone="no"?>
<!DOCTYPE svg PUBLIC "-//W3C//DTD SVG 1.1//EN"
 "http://www.w3.org/Graphics/SVG/1.1/DTD/svg11.dtd">
<!-- Generated by graphviz version 2.50.0 (0)
 -->
<!-- Pages: 1 -->
<svg width="478pt" height="394pt"
 viewBox="0.00 0.00 478.00 394.49" xmlns="http://www.w3.org/2000/svg" xmlns:xlink="http://www.w3.org/1999/xlink">
<g id="graph0" class="graph" transform="scale(1 1) rotate(0) translate(4 390.49)">
<polygon fill="white" stroke="transparent" points="-4,4 -4,-390.49 474,-390.49 474,4 -4,4"/>
<!-- 4574341568 -->
<g id="node1" class="node">
<title>4574341568</title>
<ellipse fill="lightblue" stroke="black" cx="146" cy="-368.49" rx="18" ry="18"/>
<text text-anchor="middle" x="146" y="-364.79" font-family="Helvetica,sans-Serif" font-size="14.00">D</text>
</g>
<!-- 4574337632 -->
<g id="node2" class="node">
<title>4574337632</title>
<ellipse fill="lightblue" stroke="black" cx="66" cy="-310.49" rx="18" ry="18"/>
<text text-anchor="middle" x="66" y="-306.79" font-family="Helvetica,sans-Serif" font-size="14.00">B</text>
</g>
<!-- 4574341568&#45;&gt;4574337632 -->
<g id="edge1" class="edge">
<title>4574341568&#45;&gt;4574337632</title>
<path fill="none" stroke="black" d="M131.7,-357.48C118.58,-348.3 99.08,-334.64 84.72,-324.6"/>
<polygon fill="black" stroke="black" points="85.55,-323.04 80.45,-321.6 83.54,-325.91 85.55,-323.04"/>
</g>
<!-- 410864 -->
<!-- 4574341568&#45;&gt;410864 -->
<!-- 4574346608 -->
<g id="node4" class="node">
<title>4574346608</title>
<ellipse fill="lightblue" stroke="black" cx="227" cy="-310.49" rx="18" ry="18"/>
<text text-anchor="middle" x="227" y="-306.79" font-family="Helvetica,sans-Serif" font-size="14.00">H</text>
</g>
<!-- 4574341568&#45;&gt;4574346608 -->
<g id="edge3" class="edge">
<title>4574341568&#45;&gt;4574346608</title>
<path fill="none" stroke="black" d="M160.48,-357.48C173.84,-348.24 193.76,-334.47 208.31,-324.41"/>
<polygon fill="black" stroke="black" points="209.53,-325.7 212.64,-321.42 207.54,-322.82 209.53,-325.7"/>
</g>
<!-- 4574312352 -->
<g id="node5" class="node">
<title>4574312352</title>
<ellipse fill="lightblue" stroke="black" cx="18" cy="-252.29" rx="18" ry="18"/>
<text text-anchor="middle" x="18" y="-248.59" font-family="Helvetica,sans-Serif" font-size="14.00">A</text>
</g>
<!-- 4574337632&#45;&gt;4574312352 -->
<g id="edge4" class="edge">
<title>4574337632&#45;&gt;4574312352</title>
<path fill="none" stroke="black" d="M54.62,-296.17C48.05,-288.47 39.71,-278.71 32.64,-270.44"/>
<polygon fill="black" stroke="black" points="33.87,-269.18 29.29,-266.51 31.21,-271.45 33.87,-269.18"/>
</g>
<!-- 202064 -->
<!-- 4574337632&#45;&gt;202064 -->
<!-- 329185 -->
<!-- 4574337632&#45;&gt;329185 -->
<!-- 4574307648 -->
<g id="node8" class="node">
<title>4574307648</title>
<ellipse fill="lightblue" stroke="black" cx="179" cy="-252.29" rx="18.4" ry="18.4"/>
<text text-anchor="middle" x="179" y="-248.59" font-family="Helvetica,sans-Serif" font-size="14.00">G</text>
</g>
<!-- 4574346608&#45;&gt;4574307648 -->
<g id="edge7" class="edge">
<title>4574346608&#45;&gt;4574307648</title>
<path fill="none" stroke="black" d="M215.62,-296.17C209.14,-288.58 200.95,-278.99 193.95,-270.8"/>
<polygon fill="black" stroke="black" points="195.21,-269.57 190.63,-266.9 192.54,-271.84 195.21,-269.57"/>
</g>
<!-- 784094 -->
<!-- 4574346608&#45;&gt;784094 -->
<!-- 4574337104 -->
<g id="node10" class="node">
<title>4574337104</title>
<ellipse fill="lightblue" stroke="black" cx="275" cy="-252.29" rx="18" ry="18"/>
<text text-anchor="middle" x="275" y="-248.59" font-family="Helvetica,sans-Serif" font-size="14.00">R</text>
</g>
<!-- 4574346608&#45;&gt;4574337104 -->
<g id="edge9" class="edge">
<title>4574346608&#45;&gt;4574337104</title>
<path fill="none" stroke="black" d="M238.38,-296.17C244.95,-288.47 253.29,-278.71 260.36,-270.44"/>
<polygon fill="black" stroke="black" points="261.79,-271.45 263.71,-266.51 259.13,-269.18 261.79,-271.45"/>
</g>
<!-- 4574333408 -->
<g id="node11" class="node">
<title>4574333408</title>
<ellipse fill="lightblue" stroke="black" cx="194" cy="-194.09" rx="18" ry="18"/>
<text text-anchor="middle" x="194" y="-190.39" font-family="Helvetica,sans-Serif" font-size="14.00">J</text>
</g>
<!-- 4574337104&#45;&gt;4574333408 -->
<g id="edge10" class="edge">
<title>4574337104&#45;&gt;4574333408</title>
<path fill="none" stroke="black" d="M260.52,-241.24C247.16,-231.97 227.24,-218.16 212.69,-208.06"/>
<polygon fill="black" stroke="black" points="213.46,-206.47 208.36,-205.05 211.47,-209.34 213.46,-206.47"/>
</g>
<!-- 545854 -->
<!-- 4574337104&#45;&gt;545854 -->
<!-- 4574309472 -->
<g id="node13" class="node">
<title>4574309472</title>
<ellipse fill="lightblue" stroke="black" cx="356" cy="-194.09" rx="18" ry="18"/>
<text text-anchor="middle" x="356" y="-190.39" font-family="Helvetica,sans-Serif" font-size="14.00">T</text>
</g>
<!-- 4574337104&#45;&gt;4574309472 -->
<g id="edge12" class="edge">
<title>4574337104&#45;&gt;4574309472</title>
<path fill="none" stroke="black" d="M289.48,-241.24C302.84,-231.97 322.76,-218.16 337.31,-208.06"/>
<polygon fill="black" stroke="black" points="338.53,-209.34 341.64,-205.05 336.54,-206.47 338.53,-209.34"/>
</g>
<!-- 103828 -->
<!-- 4574333408&#45;&gt;103828 -->
<!-- 600603 -->
<!-- 4574333408&#45;&gt;600603 -->
<!-- 4574312640 -->
<g id="node16" class="node">
<title>4574312640</title>
<ellipse fill="lightblue" stroke="black" cx="242" cy="-135.25" rx="18.7" ry="18.7"/>
<text text-anchor="middle" x="242" y="-131.55" font-family="Helvetica,sans-Serif" font-size="14.00">M</text>
</g>
<!-- 4574333408&#45;&gt;4574312640 -->
<g id="edge15" class="edge">
<title>4574333408&#45;&gt;4574312640</title>
<path fill="none" stroke="black" d="M205.13,-179.91C211.61,-172.24 219.85,-162.47 226.91,-154.12"/>
<polygon fill="black" stroke="black" points="228.37,-155.1 230.26,-150.15 225.7,-152.84 228.37,-155.1"/>
</g>
<!-- 583869 -->
<!-- 4574309472&#45;&gt;583869 -->
<!-- 783849 -->
<!-- 4574309472&#45;&gt;783849 -->
<!-- 4574313072 -->
<g id="node28" class="node">
<title>4574313072</title>
<ellipse fill="lightblue" stroke="black" cx="404" cy="-135.25" rx="18" ry="18"/>
<text text-anchor="middle" x="404" y="-131.55" font-family="Helvetica,sans-Serif" font-size="14.00">V</text>
</g>
<!-- 4574309472&#45;&gt;4574313072 -->
<g id="edge27" class="edge">
<title>4574309472&#45;&gt;4574313072</title>
<path fill="none" stroke="black" d="M367.13,-179.91C373.7,-172.13 382.1,-162.19 389.22,-153.76"/>
<polygon fill="black" stroke="black" points="390.71,-154.7 392.59,-149.75 388.03,-152.44 390.71,-154.7"/>
</g>
<!-- 4574313168 -->
<g id="node17" class="node">
<title>4574313168</title>
<ellipse fill="lightblue" stroke="black" cx="130" cy="-76.2" rx="18" ry="18"/>
<text text-anchor="middle" x="130" y="-72.5" font-family="Helvetica,sans-Serif" font-size="14.00">K</text>
</g>
<!-- 4574312640&#45;&gt;4574313168 -->
<g id="edge16" class="edge">
<title>4574312640&#45;&gt;4574313168</title>
<path fill="none" stroke="black" d="M225.47,-125.83C205.56,-115.69 172.1,-98.64 150.54,-87.66"/>
<polygon fill="black" stroke="black" points="151.12,-85.99 145.87,-85.28 149.53,-89.11 151.12,-85.99"/>
</g>
<!-- 931638 -->
<!-- 4574312640&#45;&gt;931638 -->
<!-- 4574312112 -->
<g id="node19" class="node">
<title>4574312112</title>
<ellipse fill="lightblue" stroke="black" cx="291" cy="-76.2" rx="18.4" ry="18.4"/>
<text text-anchor="middle" x="291" y="-72.5" font-family="Helvetica,sans-Serif" font-size="14.00">Q</text>
</g>
<!-- 4574312640&#45;&gt;4574312112 -->
<g id="edge18" class="edge">
<title>4574312640&#45;&gt;4574312112</title>
<path fill="none" stroke="black" d="M253.86,-120.44C260.58,-112.61 269.04,-102.76 276.19,-94.44"/>
<polygon fill="black" stroke="black" points="277.65,-95.42 279.59,-90.49 275,-93.14 277.65,-95.42"/>
</g>
<!-- 460074 -->
<!-- 4574313168&#45;&gt;460074 -->
<!-- 706747 -->
<!-- 4574313168&#45;&gt;706747 -->
<!-- 4574301840 -->
<g id="node22" class="node">
<title>4574301840</title>
<ellipse fill="lightblue" stroke="black" cx="178" cy="-18" rx="18" ry="18"/>
<text text-anchor="middle" x="178" y="-14.3" font-family="Helvetica,sans-Serif" font-size="14.00">L</text>
</g>
<!-- 4574313168&#45;&gt;4574301840 -->
<g id="edge21" class="edge">
<title>4574313168&#45;&gt;4574301840</title>
<path fill="none" stroke="black" d="M141.38,-61.88C147.95,-54.18 156.29,-44.41 163.36,-36.15"/>
<polygon fill="black" stroke="black" points="164.79,-37.16 166.71,-32.22 162.13,-34.89 164.79,-37.16"/>
</g>
<!-- 4574310624 -->
<g id="node23" class="node">
<title>4574310624</title>
<ellipse fill="lightblue" stroke="black" cx="243" cy="-18" rx="18" ry="18"/>
<text text-anchor="middle" x="243" y="-14.3" font-family="Helvetica,sans-Serif" font-size="14.00">N</text>
</g>
<!-- 4574312112&#45;&gt;4574310624 -->
<g id="edge22" class="edge">
<title>4574312112&#45;&gt;4574310624</title>
<path fill="none" stroke="black" d="M279.62,-61.88C273.05,-54.18 264.71,-44.41 257.64,-36.15"/>
<polygon fill="black" stroke="black" points="258.87,-34.89 254.29,-32.22 256.21,-37.16 258.87,-34.89"/>
</g>
<!-- 315479 -->
<!-- 4574312112&#45;&gt;315479 -->
<!-- 935799 -->
<!-- 4574312112&#45;&gt;935799 -->
<!-- 220754 -->
<!-- 4574313072&#45;&gt;220754 -->
<!-- 624315 -->
<!-- 4574313072&#45;&gt;624315 -->
<!-- 4574300544 -->
<g id="node31" class="node">
<title>4574300544</title>
<ellipse fill="lightblue" stroke="black" cx="452" cy="-76.2" rx="18" ry="18"/>
<text text-anchor="middle" x="452" y="-72.5" font-family="Helvetica,sans-Serif" font-size="14.00">Y</text>
</g>
<!-- 4574313072&#45;&gt;4574300544 -->
<g id="edge30" class="edge">
<title>4574313072&#45;&gt;4574300544</title>
<path fill="none" stroke="black" d="M415.13,-121.01C421.7,-113.21 430.1,-103.23 437.22,-94.77"/>
<polygon fill="black" stroke="black" points="438.71,-95.71 440.59,-90.75 436.04,-93.45 438.71,-95.71"/>
</g>
</g>
</svg>
