<?xml version="1.0" encoding="UTF-8" standalone="no"?>
<!DOCTYPE svg PUBLIC "-//W3C//DTD SVG 1.1//EN"
 "http://www.w3.org/Graphics/SVG/1.1/DTD/svg11.dtd">
<!-- Generated by graphviz version 2.50.0 (0)
 -->
<!-- Pages: 1 -->
<svg width="463pt" height="455pt"
 viewBox="0.00 0.00 463.00 455.49" xmlns="http://www.w3.org/2000/svg" xmlns:xlink="http://www.w3.org/1999/xlink">
<g id="graph0" class="graph" transform="scale(1 1) rotate(0) translate(4 451.49)">
<polygon fill="white" stroke="transparent" points="-4,4 -4,-451.49 459,-451.49 459,4 -4,4"/>
<!-- 4574336720 -->
<g id="node1" class="node">
<title>4574336720</title>
<ellipse fill="lightblue" stroke="black" cx="146" cy="-429.49" rx="18" ry="18"/>
<text text-anchor="middle" x="146" y="-425.79" font-family="Helvetica,sans-Serif" font-size="14.00">B</text>
</g>
<!-- 4574313168 -->
<g id="node2" class="node">
<title>4574313168</title>
<ellipse fill="lightblue" stroke="black" cx="98" cy="-371.49" rx="18" ry="18"/>
<text text-anchor="middle" x="98" y="-367.79" font-family="Helvetica,sans-Serif" font-size="14.00">A</text>
</g>
<!-- 4574336720&#45;&gt;4574313168 -->
<g id="edge1" class="edge">
<title>4574336720&#45;&gt;4574313168</title>
<path fill="none" stroke="black" d="M134.62,-415.22C128.05,-407.54 119.71,-397.81 112.64,-389.57"/>
<polygon fill="black" stroke="black" points="113.88,-388.32 109.29,-385.66 111.22,-390.6 113.88,-388.32"/>
</g>
<!-- 161797 -->
<!-- 4574336720&#45;&gt;161797 -->
<!-- 4574299440 -->
<g id="node4" class="node">
<title>4574299440</title>
<ellipse fill="lightblue" stroke="black" cx="194" cy="-371.49" rx="18" ry="18"/>
<text text-anchor="middle" x="194" y="-367.79" font-family="Helvetica,sans-Serif" font-size="14.00">Y</text>
</g>
<!-- 4574336720&#45;&gt;4574299440 -->
<g id="edge3" class="edge">
<title>4574336720&#45;&gt;4574299440</title>
<path fill="none" stroke="black" d="M157.38,-415.22C163.95,-407.54 172.29,-397.81 179.36,-389.57"/>
<polygon fill="black" stroke="black" points="180.78,-390.6 182.71,-385.66 178.12,-388.32 180.78,-390.6"/>
</g>
<!-- 4574312640 -->
<g id="node5" class="node">
<title>4574312640</title>
<ellipse fill="lightblue" stroke="black" cx="146" cy="-313.29" rx="18.4" ry="18.4"/>
<text text-anchor="middle" x="146" y="-309.59" font-family="Helvetica,sans-Serif" font-size="14.00">G</text>
</g>
<!-- 4574299440&#45;&gt;4574312640 -->
<g id="edge4" class="edge">
<title>4574299440&#45;&gt;4574312640</title>
<path fill="none" stroke="black" d="M182.62,-357.17C176.14,-349.58 167.95,-339.98 160.95,-331.79"/>
<polygon fill="black" stroke="black" points="162.21,-330.57 157.63,-327.9 159.54,-332.84 162.21,-330.57"/>
</g>
<!-- 14194 -->
<!-- 4574299440&#45;&gt;14194 -->
<!-- 556654 -->
<!-- 4574299440&#45;&gt;556654 -->
<!-- 4574300544 -->
<g id="node8" class="node">
<title>4574300544</title>
<ellipse fill="lightblue" stroke="black" cx="66" cy="-254.89" rx="18" ry="18"/>
<text text-anchor="middle" x="66" y="-251.19" font-family="Helvetica,sans-Serif" font-size="14.00">E</text>
</g>
<!-- 4574312640&#45;&gt;4574300544 -->
<g id="edge7" class="edge">
<title>4574312640&#45;&gt;4574300544</title>
<path fill="none" stroke="black" d="M131.33,-301.94C118.16,-292.66 98.78,-279 84.55,-268.97"/>
<polygon fill="black" stroke="black" points="85.41,-267.43 80.31,-265.98 83.39,-270.29 85.41,-267.43"/>
</g>
<!-- 907887 -->
<!-- 4574312640&#45;&gt;907887 -->
<!-- 4574308416 -->
<g id="node10" class="node">
<title>4574308416</title>
<ellipse fill="lightblue" stroke="black" cx="227" cy="-254.89" rx="18.4" ry="18.4"/>
<text text-anchor="middle" x="227" y="-251.19" font-family="Helvetica,sans-Serif" font-size="14.00">Q</text>
</g>
<!-- 4574312640&#45;&gt;4574308416 -->
<g id="edge9" class="edge">
<title>4574312640&#45;&gt;4574308416</title>
<path fill="none" stroke="black" d="M160.48,-302.21C173.76,-292.96 193.51,-279.21 208.04,-269.09"/>
<polygon fill="black" stroke="black" points="209.27,-270.37 212.37,-266.08 207.27,-267.5 209.27,-270.37"/>
</g>
<!-- 4574313792 -->
<g id="node11" class="node">
<title>4574313792</title>
<ellipse fill="lightblue" stroke="black" cx="18" cy="-196.69" rx="18" ry="18"/>
<text text-anchor="middle" x="18" y="-192.99" font-family="Helvetica,sans-Serif" font-size="14.00">C</text>
</g>
<!-- 4574300544&#45;&gt;4574313792 -->
<g id="edge10" class="edge">
<title>4574300544&#45;&gt;4574313792</title>
<path fill="none" stroke="black" d="M54.62,-240.57C48.05,-232.87 39.71,-223.11 32.64,-214.84"/>
<polygon fill="black" stroke="black" points="33.87,-213.58 29.29,-210.92 31.21,-215.85 33.87,-213.58"/>
</g>
<!-- 896556 -->
<!-- 4574300544&#45;&gt;896556 -->
<!-- 306008 -->
<!-- 4574300544&#45;&gt;306008 -->
<!-- 4574312832 -->
<g id="node14" class="node">
<title>4574312832</title>
<ellipse fill="lightblue" stroke="black" cx="179" cy="-196.69" rx="18" ry="18"/>
<text text-anchor="middle" x="179" y="-192.99" font-family="Helvetica,sans-Serif" font-size="14.00">I</text>
</g>
<!-- 4574308416&#45;&gt;4574312832 -->
<g id="edge13" class="edge">
<title>4574308416&#45;&gt;4574312832</title>
<path fill="none" stroke="black" d="M215.62,-240.57C209.05,-232.87 200.71,-223.11 193.64,-214.84"/>
<polygon fill="black" stroke="black" points="194.87,-213.58 190.29,-210.92 192.21,-215.85 194.87,-213.58"/>
</g>
<!-- 225465 -->
<!-- 4574308416&#45;&gt;225465 -->
<!-- 4574298720 -->
<g id="node16" class="node">
<title>4574298720</title>
<ellipse fill="lightblue" stroke="black" cx="340" cy="-196.69" rx="18" ry="18"/>
<text text-anchor="middle" x="340" y="-192.99" font-family="Helvetica,sans-Serif" font-size="14.00">R</text>
</g>
<!-- 4574308416&#45;&gt;4574298720 -->
<g id="edge15" class="edge">
<title>4574308416&#45;&gt;4574298720</title>
<path fill="none" stroke="black" d="M243.19,-245.84C263.27,-235.85 297.54,-218.81 319.45,-207.91"/>
<polygon fill="black" stroke="black" points="320.51,-209.34 324.2,-205.55 318.95,-206.21 320.51,-209.34"/>
</g>
<!-- 4574695536 -->
<g id="node17" class="node">
<title>4574695536</title>
<ellipse fill="lightblue" stroke="black" cx="131" cy="-137.19" rx="18" ry="18"/>
<text text-anchor="middle" x="131" y="-133.49" font-family="Helvetica,sans-Serif" font-size="14.00">H</text>
</g>
<!-- 4574312832&#45;&gt;4574695536 -->
<g id="edge16" class="edge">
<title>4574312832&#45;&gt;4574695536</title>
<path fill="none" stroke="black" d="M167.87,-182.36C161.2,-174.37 152.66,-164.14 145.48,-155.54"/>
<polygon fill="black" stroke="black" points="146.62,-154.18 142.07,-151.46 143.93,-156.42 146.62,-154.18"/>
</g>
<!-- 846534 -->
<!-- 4574312832&#45;&gt;846534 -->
<!-- 4574304864 -->
<g id="node19" class="node">
<title>4574304864</title>
<ellipse fill="lightblue" stroke="black" cx="227" cy="-137.19" rx="18" ry="18"/>
<text text-anchor="middle" x="227" y="-133.49" font-family="Helvetica,sans-Serif" font-size="14.00">K</text>
</g>
<!-- 4574312832&#45;&gt;4574304864 -->
<g id="edge18" class="edge">
<title>4574312832&#45;&gt;4574304864</title>
<path fill="none" stroke="black" d="M190.13,-182.36C196.8,-174.37 205.34,-164.14 212.52,-155.54"/>
<polygon fill="black" stroke="black" points="214.07,-156.42 215.93,-151.46 211.38,-154.18 214.07,-156.42"/>
</g>
<!-- 628884 -->
<!-- 4574298720&#45;&gt;628884 -->
<!-- 770426 -->
<!-- 4574298720&#45;&gt;770426 -->
<!-- 4574307648 -->
<g id="node28" class="node">
<title>4574307648</title>
<ellipse fill="lightblue" stroke="black" cx="389" cy="-137.19" rx="19.5" ry="19.5"/>
<text text-anchor="middle" x="389" y="-133.49" font-family="Helvetica,sans-Serif" font-size="14.00">W</text>
</g>
<!-- 4574298720&#45;&gt;4574307648 -->
<g id="edge27" class="edge">
<title>4574298720&#45;&gt;4574307648</title>
<path fill="none" stroke="black" d="M351.36,-182.36C357.88,-174.72 366.14,-165.01 373.27,-156.65"/>
<polygon fill="black" stroke="black" points="374.76,-157.61 376.67,-152.67 372.09,-155.34 374.76,-157.61"/>
</g>
<!-- 170824 -->
<!-- 4574304864&#45;&gt;170824 -->
<!-- 104720 -->
<!-- 4574304864&#45;&gt;104720 -->
<!-- 4574311056 -->
<g id="node22" class="node">
<title>4574311056</title>
<ellipse fill="lightblue" stroke="black" cx="275" cy="-76.85" rx="18.7" ry="18.7"/>
<text text-anchor="middle" x="275" y="-73.15" font-family="Helvetica,sans-Serif" font-size="14.00">M</text>
</g>
<!-- 4574304864&#45;&gt;4574311056 -->
<g id="edge21" class="edge">
<title>4574304864&#45;&gt;4574311056</title>
<path fill="none" stroke="black" d="M238.13,-122.66C244.61,-114.79 252.85,-104.77 259.91,-96.2"/>
<polygon fill="black" stroke="black" points="261.43,-97.09 263.26,-92.12 258.73,-94.87 261.43,-97.09"/>
</g>
<!-- 755240 -->
<!-- 4574311056&#45;&gt;755240 -->
<!-- 386037 -->
<!-- 4574311056&#45;&gt;386037 -->
<!-- 4574702160 -->
<g id="node25" class="node">
<title>4574702160</title>
<ellipse fill="lightblue" stroke="black" cx="323" cy="-18" rx="18" ry="18"/>
<text text-anchor="middle" x="323" y="-14.3" font-family="Helvetica,sans-Serif" font-size="14.00">N</text>
</g>
<!-- 4574311056&#45;&gt;4574702160 -->
<g id="edge24" class="edge">
<title>4574311056&#45;&gt;4574702160</title>
<path fill="none" stroke="black" d="M286.87,-61.8C293.35,-54.11 301.45,-44.52 308.33,-36.37"/>
<polygon fill="black" stroke="black" points="309.71,-37.45 311.6,-32.5 307.04,-35.19 309.71,-37.45"/>
</g>
<!-- 4574692752 -->
<g id="node29" class="node">
<title>4574692752</title>
<ellipse fill="lightblue" stroke="black" cx="341" cy="-76.85" rx="18" ry="18"/>
<text text-anchor="middle" x="341" y="-73.15" font-family="Helvetica,sans-Serif" font-size="14.00">S</text>
</g>
<!-- 4574307648&#45;&gt;4574692752 -->
<g id="edge28" class="edge">
<title>4574307648&#45;&gt;4574692752</title>
<path fill="none" stroke="black" d="M376.89,-121.47C370.3,-113.46 362.11,-103.51 355.22,-95.14"/>
<polygon fill="black" stroke="black" points="356.49,-93.92 351.96,-91.17 353.78,-96.14 356.49,-93.92"/>
</g>
<!-- 862231 -->
<!-- 4574307648&#45;&gt;862231 -->
<!-- 262565 -->
<!-- 4574307648&#45;&gt;262565 -->
</g>
</svg>
