<?xml version="1.0" encoding="UTF-8" standalone="no"?>
<!DOCTYPE svg PUBLIC "-//W3C//DTD SVG 1.1//EN"
 "http://www.w3.org/Graphics/SVG/1.1/DTD/svg11.dtd">
<!-- Generated by graphviz version 2.50.0 (0)
 -->
<!-- Pages: 1 -->
<svg width="525pt" height="368pt"
 viewBox="0.00 0.00 525.00 367.58" xmlns="http://www.w3.org/2000/svg" xmlns:xlink="http://www.w3.org/1999/xlink">
<g id="graph0" class="graph" transform="scale(1 1) rotate(0) translate(4 363.58)">
<polygon fill="white" stroke="transparent" points="-4,4 -4,-363.58 521,-363.58 521,4 -4,4"/>
<!-- 4574314368 -->
<g id="node1" class="node">
<title>4574314368</title>
<ellipse fill="lightblue" stroke="black" cx="364" cy="-338.78" rx="20.6" ry="20.6"/>
<text text-anchor="middle" x="364" y="-335.08" font-family="Helvetica,sans-Serif" font-size="14.00">22</text>
</g>
<!-- 4574313072 -->
<g id="node2" class="node">
<title>4574313072</title>
<ellipse fill="lightblue" stroke="black" cx="280" cy="-275.18" rx="18" ry="18"/>
<text text-anchor="middle" x="280" y="-271.48" font-family="Helvetica,sans-Serif" font-size="14.00">7</text>
</g>
<!-- 4574314368&#45;&gt;4574313072 -->
<g id="edge1" class="edge">
<title>4574314368&#45;&gt;4574313072</title>
<path fill="none" stroke="black" d="M347.4,-325.61C333.28,-315.25 313.01,-300.39 298.39,-289.67"/>
<polygon fill="black" stroke="black" points="299.12,-288.03 294.05,-286.49 297.05,-290.86 299.12,-288.03"/>
</g>
<!-- 42733 -->
<!-- 4574314368&#45;&gt;42733 -->
<!-- 4574305872 -->
<g id="node4" class="node">
<title>4574305872</title>
<ellipse fill="lightblue" stroke="black" cx="451" cy="-275.18" rx="20.6" ry="20.6"/>
<text text-anchor="middle" x="451" y="-271.48" font-family="Helvetica,sans-Serif" font-size="14.00">28</text>
</g>
<!-- 4574314368&#45;&gt;4574305872 -->
<g id="edge3" class="edge">
<title>4574314368&#45;&gt;4574305872</title>
<path fill="none" stroke="black" d="M380.77,-325.9C394.86,-315.93 415.04,-301.64 430.16,-290.94"/>
<polygon fill="black" stroke="black" points="431.21,-292.34 434.28,-288.02 429.19,-289.48 431.21,-292.34"/>
</g>
<!-- 4574308032 -->
<g id="node5" class="node">
<title>4574308032</title>
<ellipse fill="lightblue" stroke="black" cx="66" cy="-211.59" rx="18" ry="18"/>
<text text-anchor="middle" x="66" y="-207.89" font-family="Helvetica,sans-Serif" font-size="14.00">2</text>
</g>
<!-- 4574313072&#45;&gt;4574308032 -->
<g id="edge4" class="edge">
<title>4574313072&#45;&gt;4574308032</title>
<path fill="none" stroke="black" d="M262.85,-269.25C224.34,-258.16 131.06,-231.31 88.2,-218.98"/>
<polygon fill="black" stroke="black" points="88.52,-217.25 83.23,-217.55 87.55,-220.61 88.52,-217.25"/>
</g>
<!-- 567577 -->
<!-- 4574313072&#45;&gt;567577 -->
<!-- 4574334032 -->
<g id="node7" class="node">
<title>4574334032</title>
<ellipse fill="lightblue" stroke="black" cx="330" cy="-211.59" rx="20.6" ry="20.6"/>
<text text-anchor="middle" x="330" y="-207.89" font-family="Helvetica,sans-Serif" font-size="14.00">19</text>
</g>
<!-- 4574313072&#45;&gt;4574334032 -->
<g id="edge6" class="edge">
<title>4574313072&#45;&gt;4574334032</title>
<path fill="none" stroke="black" d="M290.85,-260.82C297.52,-252.59 306.21,-241.9 313.7,-232.67"/>
<polygon fill="black" stroke="black" points="315.25,-233.53 317.04,-228.55 312.53,-231.33 315.25,-233.53"/>
</g>
<!-- 4574334848 -->
<g id="node26" class="node">
<title>4574334848</title>
<ellipse fill="lightblue" stroke="black" cx="401" cy="-211.59" rx="20.6" ry="20.6"/>
<text text-anchor="middle" x="401" y="-207.89" font-family="Helvetica,sans-Serif" font-size="14.00">25</text>
</g>
<!-- 4574305872&#45;&gt;4574334848 -->
<g id="edge25" class="edge">
<title>4574305872&#45;&gt;4574334848</title>
<path fill="none" stroke="black" d="M438.38,-258.64C431.92,-250.68 423.98,-240.89 417.08,-232.39"/>
<polygon fill="black" stroke="black" points="418.3,-231.12 413.79,-228.34 415.58,-233.32 418.3,-231.12"/>
</g>
<!-- 125820 -->
<!-- 4574305872&#45;&gt;125820 -->
<!-- 955273 -->
<!-- 4574305872&#45;&gt;955273 -->
<!-- 4574334992 -->
<g id="node8" class="node">
<title>4574334992</title>
<ellipse fill="lightblue" stroke="black" cx="18" cy="-147.99" rx="18" ry="18"/>
<text text-anchor="middle" x="18" y="-144.29" font-family="Helvetica,sans-Serif" font-size="14.00">1</text>
</g>
<!-- 4574308032&#45;&gt;4574334992 -->
<g id="edge7" class="edge">
<title>4574308032&#45;&gt;4574334992</title>
<path fill="none" stroke="black" d="M55.35,-196.92C48.39,-187.99 39.23,-176.24 31.73,-166.61"/>
<polygon fill="black" stroke="black" points="33.08,-165.49 28.62,-162.62 30.32,-167.64 33.08,-165.49"/>
</g>
<!-- 852483 -->
<!-- 4574308032&#45;&gt;852483 -->
<!-- 4574313216 -->
<g id="node10" class="node">
<title>4574313216</title>
<ellipse fill="lightblue" stroke="black" cx="114" cy="-147.99" rx="18" ry="18"/>
<text text-anchor="middle" x="114" y="-144.29" font-family="Helvetica,sans-Serif" font-size="14.00">5</text>
</g>
<!-- 4574308032&#45;&gt;4574313216 -->
<g id="edge9" class="edge">
<title>4574308032&#45;&gt;4574313216</title>
<path fill="none" stroke="black" d="M76.65,-196.92C83.61,-187.99 92.77,-176.24 100.27,-166.61"/>
<polygon fill="black" stroke="black" points="101.68,-167.64 103.38,-162.62 98.92,-165.49 101.68,-167.64"/>
</g>
<!-- 4574333312 -->
<g id="node14" class="node">
<title>4574333312</title>
<ellipse fill="lightblue" stroke="black" cx="280" cy="-147.99" rx="20.6" ry="20.6"/>
<text text-anchor="middle" x="280" y="-144.29" font-family="Helvetica,sans-Serif" font-size="14.00">14</text>
</g>
<!-- 4574334032&#45;&gt;4574333312 -->
<g id="edge13" class="edge">
<title>4574334032&#45;&gt;4574333312</title>
<path fill="none" stroke="black" d="M317.38,-195.04C310.92,-187.08 302.98,-177.3 296.08,-168.8"/>
<polygon fill="black" stroke="black" points="297.3,-167.52 292.79,-164.74 294.58,-169.73 297.3,-167.52"/>
</g>
<!-- 596799 -->
<!-- 4574334032&#45;&gt;596799 -->
<!-- 351981 -->
<!-- 4574334032&#45;&gt;351981 -->
<!-- 4574335328 -->
<g id="node11" class="node">
<title>4574335328</title>
<ellipse fill="lightblue" stroke="black" cx="66" cy="-84.39" rx="18" ry="18"/>
<text text-anchor="middle" x="66" y="-80.69" font-family="Helvetica,sans-Serif" font-size="14.00">3</text>
</g>
<!-- 4574313216&#45;&gt;4574335328 -->
<g id="edge10" class="edge">
<title>4574313216&#45;&gt;4574335328</title>
<path fill="none" stroke="black" d="M103.35,-133.32C96.39,-124.39 87.23,-112.64 79.73,-103.01"/>
<polygon fill="black" stroke="black" points="81.08,-101.89 76.62,-99.03 78.32,-104.05 81.08,-101.89"/>
</g>
<!-- 188808 -->
<!-- 4574313216&#45;&gt;188808 -->
<!-- 4574312784 -->
<g id="node13" class="node">
<title>4574312784</title>
<ellipse fill="lightblue" stroke="black" cx="162" cy="-84.39" rx="18" ry="18"/>
<text text-anchor="middle" x="162" y="-80.69" font-family="Helvetica,sans-Serif" font-size="14.00">6</text>
</g>
<!-- 4574313216&#45;&gt;4574312784 -->
<g id="edge12" class="edge">
<title>4574313216&#45;&gt;4574312784</title>
<path fill="none" stroke="black" d="M124.65,-133.32C131.61,-124.39 140.77,-112.64 148.27,-103.01"/>
<polygon fill="black" stroke="black" points="149.68,-104.05 151.38,-99.03 146.92,-101.89 149.68,-104.05"/>
</g>
<!-- 4574331920 -->
<g id="node17" class="node">
<title>4574331920</title>
<ellipse fill="lightblue" stroke="black" cx="230" cy="-84.39" rx="20.6" ry="20.6"/>
<text text-anchor="middle" x="230" y="-80.69" font-family="Helvetica,sans-Serif" font-size="14.00">11</text>
</g>
<!-- 4574333312&#45;&gt;4574331920 -->
<g id="edge16" class="edge">
<title>4574333312&#45;&gt;4574331920</title>
<path fill="none" stroke="black" d="M267.38,-131.45C260.92,-123.48 252.98,-113.7 246.08,-105.2"/>
<polygon fill="black" stroke="black" points="247.3,-103.93 242.79,-101.15 244.58,-106.13 247.3,-103.93"/>
</g>
<!-- 478618 -->
<!-- 4574333312&#45;&gt;478618 -->
<!-- 4574335088 -->
<g id="node19" class="node">
<title>4574335088</title>
<ellipse fill="lightblue" stroke="black" cx="396" cy="-84.39" rx="20.6" ry="20.6"/>
<text text-anchor="middle" x="396" y="-80.69" font-family="Helvetica,sans-Serif" font-size="14.00">17</text>
</g>
<!-- 4574333312&#45;&gt;4574335088 -->
<g id="edge18" class="edge">
<title>4574333312&#45;&gt;4574335088</title>
<path fill="none" stroke="black" d="M298.12,-137.37C318.47,-126.56 351.5,-109.02 373.49,-97.35"/>
<polygon fill="black" stroke="black" points="374.41,-98.84 378,-94.95 372.77,-95.75 374.41,-98.84"/>
</g>
<!-- 4574334896 -->
<g id="node20" class="node">
<title>4574334896</title>
<ellipse fill="lightblue" stroke="black" cx="182" cy="-20.8" rx="18" ry="18"/>
<text text-anchor="middle" x="182" y="-17.1" font-family="Helvetica,sans-Serif" font-size="14.00">8</text>
</g>
<!-- 4574331920&#45;&gt;4574334896 -->
<g id="edge19" class="edge">
<title>4574331920&#45;&gt;4574334896</title>
<path fill="none" stroke="black" d="M217.64,-67.53C211.05,-59.08 202.92,-48.64 196.09,-39.87"/>
<polygon fill="black" stroke="black" points="197.3,-38.59 192.85,-35.72 194.54,-40.74 197.3,-38.59"/>
</g>
<!-- 52360 -->
<!-- 4574331920&#45;&gt;52360 -->
<!-- 338701 -->
<!-- 4574331920&#45;&gt;338701 -->
<!-- 4574334608 -->
<g id="node23" class="node">
<title>4574334608</title>
<ellipse fill="lightblue" stroke="black" cx="346" cy="-20.8" rx="20.6" ry="20.6"/>
<text text-anchor="middle" x="346" y="-17.1" font-family="Helvetica,sans-Serif" font-size="14.00">16</text>
</g>
<!-- 4574335088&#45;&gt;4574334608 -->
<g id="edge22" class="edge">
<title>4574335088&#45;&gt;4574334608</title>
<path fill="none" stroke="black" d="M383.38,-67.85C376.92,-59.89 368.98,-50.1 362.08,-41.61"/>
<polygon fill="black" stroke="black" points="363.3,-40.33 358.79,-37.55 360.58,-42.54 363.3,-40.33"/>
</g>
<!-- 369009 -->
<!-- 4574335088&#45;&gt;369009 -->
<!-- 361066 -->
<!-- 4574335088&#45;&gt;361066 -->
</g>
</svg>
