<?xml version="1.0" encoding="UTF-8" standalone="no"?>
<!DOCTYPE svg PUBLIC "-//W3C//DTD SVG 1.1//EN"
 "http://www.w3.org/Graphics/SVG/1.1/DTD/svg11.dtd">
<!-- Generated by graphviz version 2.50.0 (0)
 -->
<!-- Pages: 1 -->
<svg width="374pt" height="316pt"
 viewBox="0.00 0.00 374.20 315.68" xmlns="http://www.w3.org/2000/svg" xmlns:xlink="http://www.w3.org/1999/xlink">
<g id="graph0" class="graph" transform="scale(1 1) rotate(0) translate(4 311.68)">
<polygon fill="white" stroke="transparent" points="-4,4 -4,-311.68 370.2,-311.68 370.2,4 -4,4"/>
<!-- 4627581600 -->
<g id="node1" class="node">
<title>4627581600</title>
<ellipse fill="lightblue" stroke="black" cx="213.4" cy="-288.83" rx="18.7" ry="18.7"/>
<text text-anchor="middle" x="213.4" y="-285.13" font-family="Helvetica,sans-Serif" font-size="14.00">&#45;5</text>
</g>
<!-- 4628139424 -->
<g id="node2" class="node">
<title>4628139424</title>
<ellipse fill="lightblue" stroke="black" cx="129.4" cy="-224.59" rx="23.3" ry="23.3"/>
<text text-anchor="middle" x="129.4" y="-220.89" font-family="Helvetica,sans-Serif" font-size="14.00">&#45;12</text>
</g>
<!-- 4627581600&#45;&gt;4628139424 -->
<g id="edge1" class="edge">
<title>4627581600&#45;&gt;4628139424</title>
<path fill="none" stroke="black" d="M198.38,-276.7C185.44,-267.11 166.57,-253.13 151.84,-242.22"/>
<polygon fill="black" stroke="black" points="152.86,-240.8 147.8,-239.22 150.78,-243.61 152.86,-240.8"/>
</g>
<!-- 577539 -->
<!-- 4627581600&#45;&gt;577539 -->
<!-- 4627871024 -->
<g id="node4" class="node">
<title>4627871024</title>
<ellipse fill="lightblue" stroke="black" cx="295.4" cy="-224.59" rx="20.6" ry="20.6"/>
<text text-anchor="middle" x="295.4" y="-220.89" font-family="Helvetica,sans-Serif" font-size="14.00">17</text>
</g>
<!-- 4627581600&#45;&gt;4627871024 -->
<g id="edge3" class="edge">
<title>4627581600&#45;&gt;4627871024</title>
<path fill="none" stroke="black" d="M228.06,-276.7C241.2,-266.73 260.59,-252.01 275.2,-240.92"/>
<polygon fill="black" stroke="black" points="276.25,-242.31 279.18,-237.9 274.14,-239.53 276.25,-242.31"/>
</g>
<!-- 4628139088 -->
<g id="node5" class="node">
<title>4628139088</title>
<ellipse fill="lightblue" stroke="black" cx="76.4" cy="-155.79" rx="23.3" ry="23.3"/>
<text text-anchor="middle" x="76.4" y="-152.09" font-family="Helvetica,sans-Serif" font-size="14.00">&#45;16</text>
</g>
<!-- 4628139424&#45;&gt;4628139088 -->
<g id="edge4" class="edge">
<title>4628139424&#45;&gt;4628139088</title>
<path fill="none" stroke="black" d="M115.19,-205.69C108.66,-197.45 100.84,-187.6 93.94,-178.9"/>
<polygon fill="black" stroke="black" points="95.12,-177.57 90.64,-174.74 92.38,-179.74 95.12,-177.57"/>
</g>
<!-- 245713 -->
<!-- 4628139424&#45;&gt;245713 -->
<!-- 201058 -->
<!-- 4628139424&#45;&gt;201058 -->
<!-- 4627591776 -->
<g id="node11" class="node">
<title>4627591776</title>
<ellipse fill="lightblue" stroke="black" cx="245.4" cy="-155.79" rx="20.6" ry="20.6"/>
<text text-anchor="middle" x="245.4" y="-152.09" font-family="Helvetica,sans-Serif" font-size="14.00">14</text>
</g>
<!-- 4627871024&#45;&gt;4627591776 -->
<g id="edge10" class="edge">
<title>4627871024&#45;&gt;4627591776</title>
<path fill="none" stroke="black" d="M283.29,-207.42C276.42,-198.23 267.74,-186.64 260.43,-176.87"/>
<polygon fill="black" stroke="black" points="261.79,-175.76 257.39,-172.81 258.99,-177.86 261.79,-175.76"/>
</g>
<!-- 567252 -->
<!-- 4627871024&#45;&gt;567252 -->
<!-- 4628139760 -->
<g id="node13" class="node">
<title>4628139760</title>
<ellipse fill="lightblue" stroke="black" cx="345.4" cy="-155.79" rx="20.6" ry="20.6"/>
<text text-anchor="middle" x="345.4" y="-152.09" font-family="Helvetica,sans-Serif" font-size="14.00">18</text>
</g>
<!-- 4627871024&#45;&gt;4628139760 -->
<g id="edge12" class="edge">
<title>4627871024&#45;&gt;4628139760</title>
<path fill="none" stroke="black" d="M307.5,-207.42C314.38,-198.23 323.05,-186.64 330.36,-176.87"/>
<polygon fill="black" stroke="black" points="331.81,-177.86 333.41,-172.81 329.01,-175.76 331.81,-177.86"/>
</g>
<!-- 4628137120 -->
<g id="node8" class="node">
<title>4628137120</title>
<ellipse fill="lightblue" stroke="black" cx="23.4" cy="-86.99" rx="23.3" ry="23.3"/>
<text text-anchor="middle" x="23.4" y="-83.29" font-family="Helvetica,sans-Serif" font-size="14.00">&#45;20</text>
</g>
<!-- 4628139088&#45;&gt;4628137120 -->
<g id="edge7" class="edge">
<title>4628139088&#45;&gt;4628137120</title>
<path fill="none" stroke="black" d="M62.19,-136.89C55.66,-128.65 47.84,-118.8 40.94,-110.11"/>
<polygon fill="black" stroke="black" points="42.12,-108.77 37.64,-105.94 39.38,-110.95 42.12,-108.77"/>
</g>
<!-- 751984 -->
<!-- 4628139088&#45;&gt;751984 -->
<!-- 493107 -->
<!-- 4628139088&#45;&gt;493107 -->
<!-- 4628148352 -->
<g id="node14" class="node">
<title>4628148352</title>
<ellipse fill="lightblue" stroke="black" cx="197.4" cy="-86.99" rx="18" ry="18"/>
<text text-anchor="middle" x="197.4" y="-83.29" font-family="Helvetica,sans-Serif" font-size="14.00">3</text>
</g>
<!-- 4627591776&#45;&gt;4628148352 -->
<g id="edge13" class="edge">
<title>4627591776&#45;&gt;4628148352</title>
<path fill="none" stroke="black" d="M233.53,-138.28C226.54,-128.54 217.67,-116.21 210.48,-106.19"/>
<polygon fill="black" stroke="black" points="211.84,-105.1 207.5,-102.06 209,-107.14 211.84,-105.1"/>
</g>
<!-- 877093 -->
<!-- 4627591776&#45;&gt;877093 -->
<!-- 4628138032 -->
<g id="node16" class="node">
<title>4628138032</title>
<ellipse fill="lightblue" stroke="black" cx="295.4" cy="-86.99" rx="20.6" ry="20.6"/>
<text text-anchor="middle" x="295.4" y="-83.29" font-family="Helvetica,sans-Serif" font-size="14.00">16</text>
</g>
<!-- 4627591776&#45;&gt;4628138032 -->
<g id="edge15" class="edge">
<title>4627591776&#45;&gt;4628138032</title>
<path fill="none" stroke="black" d="M257.5,-138.62C264.38,-129.43 273.05,-117.85 280.36,-108.08"/>
<polygon fill="black" stroke="black" points="281.81,-109.07 283.41,-104.01 279.01,-106.97 281.81,-109.07"/>
</g>
<!-- 576330 -->
<!-- 4628148352&#45;&gt;576330 -->
<!-- 499492 -->
<!-- 4628148352&#45;&gt;499492 -->
<!-- 4628152096 -->
<g id="node19" class="node">
<title>4628152096</title>
<ellipse fill="lightblue" stroke="black" cx="247.4" cy="-20.8" rx="20.6" ry="20.6"/>
<text text-anchor="middle" x="247.4" y="-17.1" font-family="Helvetica,sans-Serif" font-size="14.00">10</text>
</g>
<!-- 4628148352&#45;&gt;4628152096 -->
<g id="edge18" class="edge">
<title>4628148352&#45;&gt;4628152096</title>
<path fill="none" stroke="black" d="M208,-72.38C214.92,-63.49 224.08,-51.73 231.82,-41.79"/>
<polygon fill="black" stroke="black" points="233.35,-42.68 235.05,-37.66 230.59,-40.53 233.35,-42.68"/>
</g>
</g>
</svg>
