<?xml version="1.0" encoding="UTF-8" standalone="no"?>
<!DOCTYPE svg PUBLIC "-//W3C//DTD SVG 1.1//EN"
 "http://www.w3.org/Graphics/SVG/1.1/DTD/svg11.dtd">
<!-- Generated by graphviz version 2.50.0 (0)
 -->
<!-- Pages: 1 -->
<svg width="302pt" height="379pt"
 viewBox="0.00 0.00 302.00 379.28" xmlns="http://www.w3.org/2000/svg" xmlns:xlink="http://www.w3.org/1999/xlink">
<g id="graph0" class="graph" transform="scale(1 1) rotate(0) translate(4 375.28)">
<polygon fill="white" stroke="transparent" points="-4,4 -4,-375.28 298,-375.28 298,4 -4,4"/>
<!-- 4627581600 -->
<g id="node1" class="node">
<title>4627581600</title>
<ellipse fill="lightblue" stroke="black" cx="200" cy="-350.48" rx="20.6" ry="20.6"/>
<text text-anchor="middle" x="200" y="-346.78" font-family="Helvetica,sans-Serif" font-size="14.00">18</text>
</g>
<!-- 4627870832 -->
<g id="node2" class="node">
<title>4627870832</title>
<ellipse fill="lightblue" stroke="black" cx="147" cy="-284.28" rx="23.3" ry="23.3"/>
<text text-anchor="middle" x="147" y="-280.58" font-family="Helvetica,sans-Serif" font-size="14.00">&#45;15</text>
</g>
<!-- 4627581600&#45;&gt;4627870832 -->
<g id="edge1" class="edge">
<title>4627581600&#45;&gt;4627870832</title>
<path fill="none" stroke="black" d="M187.17,-333.94C180.54,-325.9 172.33,-315.96 165.06,-307.16"/>
<polygon fill="black" stroke="black" points="166.12,-305.69 161.58,-302.95 163.42,-307.92 166.12,-305.69"/>
</g>
<!-- 834181 -->
<!-- 4627581600&#45;&gt;834181 -->
<!-- 295619 -->
<!-- 4627581600&#45;&gt;295619 -->
<!-- 4628143504 -->
<g id="node5" class="node">
<title>4628143504</title>
<ellipse fill="lightblue" stroke="black" cx="94" cy="-215.49" rx="23.3" ry="23.3"/>
<text text-anchor="middle" x="94" y="-211.79" font-family="Helvetica,sans-Serif" font-size="14.00">&#45;18</text>
</g>
<!-- 4627870832&#45;&gt;4628143504 -->
<g id="edge4" class="edge">
<title>4627870832&#45;&gt;4628143504</title>
<path fill="none" stroke="black" d="M132.8,-265.38C126.26,-257.15 118.45,-247.29 111.55,-238.6"/>
<polygon fill="black" stroke="black" points="112.72,-237.27 108.24,-234.44 109.98,-239.44 112.72,-237.27"/>
</g>
<!-- 970216 -->
<!-- 4627870832&#45;&gt;970216 -->
<!-- 4627591776 -->
<g id="node7" class="node">
<title>4627591776</title>
<ellipse fill="lightblue" stroke="black" cx="197" cy="-215.49" rx="20.6" ry="20.6"/>
<text text-anchor="middle" x="197" y="-211.79" font-family="Helvetica,sans-Serif" font-size="14.00">12</text>
</g>
<!-- 4627870832&#45;&gt;4627591776 -->
<g id="edge6" class="edge">
<title>4627870832&#45;&gt;4627591776</title>
<path fill="none" stroke="black" d="M160.66,-265.03C167.12,-256.4 174.87,-246.06 181.54,-237.14"/>
<polygon fill="black" stroke="black" points="183.13,-237.94 184.72,-232.89 180.32,-235.85 183.13,-237.94"/>
</g>
<!-- 4628144368 -->
<g id="node8" class="node">
<title>4628144368</title>
<ellipse fill="lightblue" stroke="black" cx="149" cy="-149.29" rx="18" ry="18"/>
<text text-anchor="middle" x="149" y="-145.59" font-family="Helvetica,sans-Serif" font-size="14.00">3</text>
</g>
<!-- 4627591776&#45;&gt;4628144368 -->
<g id="edge7" class="edge">
<title>4627591776&#45;&gt;4628144368</title>
<path fill="none" stroke="black" d="M184.89,-198.29C178.05,-189.14 169.48,-177.69 162.44,-168.26"/>
<polygon fill="black" stroke="black" points="163.72,-167.05 159.32,-164.09 160.91,-169.14 163.72,-167.05"/>
</g>
<!-- 396962 -->
<!-- 4627591776&#45;&gt;396962 -->
<!-- 4628137936 -->
<g id="node10" class="node">
<title>4628137936</title>
<ellipse fill="lightblue" stroke="black" cx="247" cy="-149.29" rx="20.6" ry="20.6"/>
<text text-anchor="middle" x="247" y="-145.59" font-family="Helvetica,sans-Serif" font-size="14.00">13</text>
</g>
<!-- 4627591776&#45;&gt;4628137936 -->
<g id="edge9" class="edge">
<title>4627591776&#45;&gt;4628137936</title>
<path fill="none" stroke="black" d="M209.36,-198.62C215.92,-190.19 224.06,-179.75 231.09,-170.72"/>
<polygon fill="black" stroke="black" points="232.74,-171.44 234.44,-166.42 229.98,-169.29 232.74,-171.44"/>
</g>
<!-- 4628140912 -->
<g id="node11" class="node">
<title>4628140912</title>
<ellipse fill="lightblue" stroke="black" cx="66" cy="-83.09" rx="23.3" ry="23.3"/>
<text text-anchor="middle" x="66" y="-79.39" font-family="Helvetica,sans-Serif" font-size="14.00">&#45;14</text>
</g>
<!-- 4628144368&#45;&gt;4628140912 -->
<g id="edge10" class="edge">
<title>4628144368&#45;&gt;4628140912</title>
<path fill="none" stroke="black" d="M134.92,-137.4C122.15,-127.53 103.12,-112.8 88.29,-101.33"/>
<polygon fill="black" stroke="black" points="89.25,-99.86 84.22,-98.19 87.11,-102.63 89.25,-99.86"/>
</g>
<!-- 771889 -->
<!-- 4628144368&#45;&gt;771889 -->
<!-- 4628144752 -->
<g id="node13" class="node">
<title>4628144752</title>
<ellipse fill="lightblue" stroke="black" cx="228" cy="-83.09" rx="18" ry="18"/>
<text text-anchor="middle" x="228" y="-79.39" font-family="Helvetica,sans-Serif" font-size="14.00">8</text>
</g>
<!-- 4628144368&#45;&gt;4628144752 -->
<g id="edge12" class="edge">
<title>4628144368&#45;&gt;4628144752</title>
<path fill="none" stroke="black" d="M162.76,-137.11C176.01,-126.34 196.12,-110 210.5,-98.31"/>
<polygon fill="black" stroke="black" points="211.62,-99.66 214.4,-95.15 209.41,-96.94 211.62,-99.66"/>
</g>
<!-- 443787 -->
<!-- 4628140912&#45;&gt;443787 -->
<!-- 465439 -->
<!-- 4628140912&#45;&gt;465439 -->
<!-- 4628138704 -->
<g id="node16" class="node">
<title>4628138704</title>
<ellipse fill="lightblue" stroke="black" cx="114" cy="-18.85" rx="18.7" ry="18.7"/>
<text text-anchor="middle" x="114" y="-15.15" font-family="Helvetica,sans-Serif" font-size="14.00">&#45;1</text>
</g>
<!-- 4628140912&#45;&gt;4628138704 -->
<g id="edge15" class="edge">
<title>4628140912&#45;&gt;4628138704</title>
<path fill="none" stroke="black" d="M79.88,-64.09C86.05,-56.09 93.31,-46.68 99.54,-38.6"/>
<polygon fill="black" stroke="black" points="101.22,-39.29 102.89,-34.26 98.45,-37.15 101.22,-39.29"/>
</g>
<!-- 151412 -->
<!-- 4628144752&#45;&gt;151412 -->
<!-- 839049 -->
<!-- 4628144752&#45;&gt;839049 -->
<!-- 4628136352 -->
<g id="node19" class="node">
<title>4628136352</title>
<ellipse fill="lightblue" stroke="black" cx="276" cy="-18.85" rx="18" ry="18"/>
<text text-anchor="middle" x="276" y="-15.15" font-family="Helvetica,sans-Serif" font-size="14.00">9</text>
</g>
<!-- 4628144752&#45;&gt;4628136352 -->
<g id="edge18" class="edge">
<title>4628144752&#45;&gt;4628136352</title>
<path fill="none" stroke="black" d="M238.65,-68.28C245.61,-59.25 254.77,-47.38 262.27,-37.65"/>
<polygon fill="black" stroke="black" points="263.71,-38.65 265.38,-33.62 260.94,-36.52 263.71,-38.65"/>
</g>
</g>
</svg>
