<?xml version="1.0" encoding="UTF-8" standalone="no"?>
<!DOCTYPE svg PUBLIC "-//W3C//DTD SVG 1.1//EN"
 "http://www.w3.org/Graphics/SVG/1.1/DTD/svg11.dtd">
<!-- Generated by graphviz version 2.50.0 (0)
 -->
<!-- Pages: 1 -->
<svg width="626pt" height="221pt"
 viewBox="0.00 0.00 626.00 221.00" xmlns="http://www.w3.org/2000/svg" xmlns:xlink="http://www.w3.org/1999/xlink">
<g id="graph0" class="graph" transform="scale(1 1) rotate(0) translate(4 217)">
<polygon fill="white" stroke="transparent" points="-4,4 -4,-217 622,-217 622,4 -4,4"/>
<!-- 4573818000 -->
<g id="node1" class="node">
<title>4573818000</title>
<ellipse fill="#9bcd9b" stroke="black" cx="310" cy="-195" rx="18" ry="18"/>
<text text-anchor="middle" x="310" y="-191.3" font-family="Helvetica,sans-Serif" font-size="14.00">Z</text>
</g>
<!-- 4574182720 -->
<g id="node2" class="node">
<title>4574182720</title>
<ellipse fill="#9bcd9b" stroke="black" cx="181" cy="-137" rx="18" ry="18"/>
<text text-anchor="middle" x="181" y="-133.3" font-family="Helvetica,sans-Serif" font-size="14.00">S</text>
</g>
<!-- 4573818000&#45;&gt;4574182720 -->
<g id="edge1" class="edge">
<title>4573818000&#45;&gt;4574182720</title>
<path fill="none" stroke="black" d="M293.66,-186.9C270.4,-176.81 227.72,-158.28 202.09,-147.15"/>
<polygon fill="black" stroke="black" points="202.49,-145.42 197.21,-145.03 201.09,-148.63 202.49,-145.42"/>
</g>
<!-- 840869 -->
<!-- 4573818000&#45;&gt;840869 -->
<!-- 4574182096 -->
<g id="node4" class="node">
<title>4574182096</title>
<ellipse fill="#9bcd9b" stroke="black" cx="439" cy="-137" rx="18" ry="18"/>
<text text-anchor="middle" x="439" y="-133.3" font-family="Helvetica,sans-Serif" font-size="14.00">C</text>
</g>
<!-- 4573818000&#45;&gt;4574182096 -->
<g id="edge3" class="edge">
<title>4573818000&#45;&gt;4574182096</title>
<path fill="none" stroke="black" d="M326.34,-186.9C349.6,-176.81 392.28,-158.28 417.91,-147.15"/>
<polygon fill="black" stroke="black" points="418.91,-148.63 422.79,-145.03 417.51,-145.42 418.91,-148.63"/>
</g>
<!-- 4574182144 -->
<g id="node5" class="node">
<title>4574182144</title>
<ellipse fill="#9bcd9b" stroke="black" cx="66" cy="-79" rx="18" ry="18"/>
<text text-anchor="middle" x="66" y="-75.3" font-family="Helvetica,sans-Serif" font-size="14.00">P</text>
</g>
<!-- 4574182720&#45;&gt;4574182144 -->
<g id="edge4" class="edge">
<title>4574182720&#45;&gt;4574182144</title>
<path fill="none" stroke="black" d="M165.01,-128.21C144.5,-118.22 108.9,-100.88 86.44,-89.95"/>
<polygon fill="black" stroke="black" points="87.12,-88.33 81.85,-87.72 85.58,-91.48 87.12,-88.33"/>
</g>
<!-- 207730 -->
<!-- 4574182720&#45;&gt;207730 -->
<!-- 4574181568 -->
<g id="node7" class="node">
<title>4574181568</title>
<ellipse fill="#9bcd9b" stroke="black" cx="229" cy="-79" rx="18" ry="18"/>
<text text-anchor="middle" x="229" y="-75.3" font-family="Helvetica,sans-Serif" font-size="14.00">I</text>
</g>
<!-- 4574182720&#45;&gt;4574181568 -->
<g id="edge6" class="edge">
<title>4574182720&#45;&gt;4574181568</title>
<path fill="none" stroke="black" d="M192.38,-122.73C198.95,-115.05 207.29,-105.32 214.36,-97.08"/>
<polygon fill="black" stroke="black" points="215.78,-98.11 217.71,-93.17 213.12,-95.83 215.78,-98.11"/>
</g>
<!-- 4574182288 -->
<g id="node14" class="node">
<title>4574182288</title>
<ellipse fill="#9bcd9b" stroke="black" cx="391" cy="-79" rx="18" ry="18"/>
<text text-anchor="middle" x="391" y="-75.3" font-family="Helvetica,sans-Serif" font-size="14.00">B</text>
</g>
<!-- 4574182096&#45;&gt;4574182288 -->
<g id="edge13" class="edge">
<title>4574182096&#45;&gt;4574182288</title>
<path fill="none" stroke="black" d="M427.62,-122.73C421.05,-115.05 412.71,-105.32 405.64,-97.08"/>
<polygon fill="black" stroke="black" points="406.88,-95.83 402.29,-93.17 404.22,-98.11 406.88,-95.83"/>
</g>
<!-- 434117 -->
<!-- 4574182096&#45;&gt;434117 -->
<!-- 4574182240 -->
<g id="node16" class="node">
<title>4574182240</title>
<ellipse fill="#9bcd9b" stroke="black" cx="552" cy="-79" rx="18" ry="18"/>
<text text-anchor="middle" x="552" y="-75.3" font-family="Helvetica,sans-Serif" font-size="14.00">A</text>
</g>
<!-- 4574182096&#45;&gt;4574182240 -->
<g id="edge15" class="edge">
<title>4574182096&#45;&gt;4574182240</title>
<path fill="none" stroke="black" d="M454.71,-128.21C474.75,-118.28 509.46,-101.08 531.55,-90.13"/>
<polygon fill="black" stroke="black" points="532.35,-91.69 536.06,-87.9 530.8,-88.55 532.35,-91.69"/>
</g>
<!-- 4574335856 -->
<g id="node8" class="node">
<title>4574335856</title>
<ellipse fill="#9bcd9b" stroke="black" cx="18" cy="-19.5" rx="18" ry="18"/>
<text text-anchor="middle" x="18" y="-15.8" font-family="Helvetica,sans-Serif" font-size="14.00">E</text>
</g>
<!-- 4574182144&#45;&gt;4574335856 -->
<g id="edge7" class="edge">
<title>4574182144&#45;&gt;4574335856</title>
<path fill="none" stroke="black" d="M54.87,-64.66C48.2,-56.68 39.66,-46.44 32.48,-37.84"/>
<polygon fill="black" stroke="black" points="33.62,-36.48 29.07,-33.76 30.93,-38.72 33.62,-36.48"/>
</g>
<!-- 765276 -->
<!-- 4574182144&#45;&gt;765276 -->
<!-- 4574346512 -->
<g id="node10" class="node">
<title>4574346512</title>
<ellipse fill="#9bcd9b" stroke="black" cx="115" cy="-19.5" rx="19.5" ry="19.5"/>
<text text-anchor="middle" x="115" y="-15.8" font-family="Helvetica,sans-Serif" font-size="14.00">W</text>
</g>
<!-- 4574182144&#45;&gt;4574346512 -->
<g id="edge9" class="edge">
<title>4574182144&#45;&gt;4574346512</title>
<path fill="none" stroke="black" d="M77.36,-64.66C83.88,-57.02 92.14,-47.32 99.27,-38.95"/>
<polygon fill="black" stroke="black" points="100.76,-39.91 102.67,-34.97 98.09,-37.64 100.76,-39.91"/>
</g>
<!-- 4574331200 -->
<g id="node11" class="node">
<title>4574331200</title>
<ellipse fill="#9bcd9b" stroke="black" cx="181" cy="-19.5" rx="18" ry="18"/>
<text text-anchor="middle" x="181" y="-15.8" font-family="Helvetica,sans-Serif" font-size="14.00">L</text>
</g>
<!-- 4574181568&#45;&gt;4574331200 -->
<g id="edge10" class="edge">
<title>4574181568&#45;&gt;4574331200</title>
<path fill="none" stroke="black" d="M217.87,-64.66C211.2,-56.68 202.66,-46.44 195.48,-37.84"/>
<polygon fill="black" stroke="black" points="196.62,-36.48 192.07,-33.76 193.93,-38.72 196.62,-36.48"/>
</g>
<!-- 914890 -->
<!-- 4574181568&#45;&gt;914890 -->
<!-- 4574344832 -->
<g id="node13" class="node">
<title>4574344832</title>
<ellipse fill="#9bcd9b" stroke="black" cx="277" cy="-19.5" rx="18" ry="18"/>
<text text-anchor="middle" x="277" y="-15.8" font-family="Helvetica,sans-Serif" font-size="14.00">K</text>
</g>
<!-- 4574181568&#45;&gt;4574344832 -->
<g id="edge12" class="edge">
<title>4574181568&#45;&gt;4574344832</title>
<path fill="none" stroke="black" d="M240.13,-64.66C246.8,-56.68 255.34,-46.44 262.52,-37.84"/>
<polygon fill="black" stroke="black" points="264.07,-38.72 265.93,-33.76 261.38,-36.48 264.07,-38.72"/>
</g>
<!-- 4574338064 -->
<g id="node17" class="node">
<title>4574338064</title>
<ellipse fill="#9bcd9b" stroke="black" cx="343" cy="-19.5" rx="18.7" ry="18.7"/>
<text text-anchor="middle" x="343" y="-15.8" font-family="Helvetica,sans-Serif" font-size="14.00">M</text>
</g>
<!-- 4574182288&#45;&gt;4574338064 -->
<g id="edge16" class="edge">
<title>4574182288&#45;&gt;4574338064</title>
<path fill="none" stroke="black" d="M379.87,-64.66C373.39,-56.91 365.15,-47.03 358.09,-38.58"/>
<polygon fill="black" stroke="black" points="359.29,-37.28 354.74,-34.56 356.6,-39.52 359.29,-37.28"/>
</g>
<!-- 954804 -->
<!-- 4574182288&#45;&gt;954804 -->
<!-- 4574344640 -->
<g id="node19" class="node">
<title>4574344640</title>
<ellipse fill="#9bcd9b" stroke="black" cx="439" cy="-19.5" rx="18" ry="18"/>
<text text-anchor="middle" x="439" y="-15.8" font-family="Helvetica,sans-Serif" font-size="14.00">T</text>
</g>
<!-- 4574182288&#45;&gt;4574344640 -->
<g id="edge18" class="edge">
<title>4574182288&#45;&gt;4574344640</title>
<path fill="none" stroke="black" d="M402.13,-64.66C408.8,-56.68 417.34,-46.44 424.52,-37.84"/>
<polygon fill="black" stroke="black" points="426.07,-38.72 427.93,-33.76 423.38,-36.48 426.07,-38.72"/>
</g>
<!-- 4574343056 -->
<g id="node20" class="node">
<title>4574343056</title>
<ellipse fill="#9bcd9b" stroke="black" cx="504" cy="-19.5" rx="18" ry="18"/>
<text text-anchor="middle" x="504" y="-15.8" font-family="Helvetica,sans-Serif" font-size="14.00">Y</text>
</g>
<!-- 4574182240&#45;&gt;4574343056 -->
<g id="edge19" class="edge">
<title>4574182240&#45;&gt;4574343056</title>
<path fill="none" stroke="black" d="M540.87,-64.66C534.2,-56.68 525.66,-46.44 518.48,-37.84"/>
<polygon fill="black" stroke="black" points="519.62,-36.48 515.07,-33.76 516.93,-38.72 519.62,-36.48"/>
</g>
<!-- 564453 -->
<!-- 4574182240&#45;&gt;564453 -->
<!-- 4574336672 -->
<g id="node22" class="node">
<title>4574336672</title>
<ellipse fill="#9bcd9b" stroke="black" cx="600" cy="-19.5" rx="18" ry="18"/>
<text text-anchor="middle" x="600" y="-15.8" font-family="Helvetica,sans-Serif" font-size="14.00">H</text>
</g>
<!-- 4574182240&#45;&gt;4574336672 -->
<g id="edge21" class="edge">
<title>4574182240&#45;&gt;4574336672</title>
<path fill="none" stroke="black" d="M563.13,-64.66C569.8,-56.68 578.34,-46.44 585.52,-37.84"/>
<polygon fill="black" stroke="black" points="587.07,-38.72 588.93,-33.76 584.38,-36.48 587.07,-38.72"/>
</g>
</g>
</svg>
