<?xml version="1.0" encoding="UTF-8" standalone="no"?>
<!DOCTYPE svg PUBLIC "-//W3C//DTD SVG 1.1//EN"
 "http://www.w3.org/Graphics/SVG/1.1/DTD/svg11.dtd">
<!-- Generated by graphviz version 2.50.0 (0)
 -->
<!-- Pages: 1 -->
<svg width="558pt" height="336pt"
 viewBox="0.00 0.00 558.00 336.09" xmlns="http://www.w3.org/2000/svg" xmlns:xlink="http://www.w3.org/1999/xlink">
<g id="graph0" class="graph" transform="scale(1 1) rotate(0) translate(4 332.09)">
<polygon fill="white" stroke="transparent" points="-4,4 -4,-332.09 554,-332.09 554,4 -4,4"/>
<!-- 4573817280 -->
<g id="node1" class="node">
<title>4573817280</title>
<ellipse fill="lightblue" stroke="black" cx="242" cy="-310.09" rx="18" ry="18"/>
<text text-anchor="middle" x="242" y="-306.39" font-family="Helvetica,sans-Serif" font-size="14.00">P</text>
</g>
<!-- 4573820688 -->
<g id="node2" class="node">
<title>4573820688</title>
<ellipse fill="lightblue" stroke="black" cx="66" cy="-252.09" rx="18" ry="18"/>
<text text-anchor="middle" x="66" y="-248.39" font-family="Helvetica,sans-Serif" font-size="14.00">H</text>
</g>
<!-- 4573817280&#45;&gt;4573820688 -->
<g id="edge1" class="edge">
<title>4573817280&#45;&gt;4573820688</title>
<path fill="none" stroke="black" d="M225.12,-303.72C193.14,-293.55 123.73,-271.46 88.09,-260.12"/>
<polygon fill="black" stroke="black" points="88.38,-258.38 83.08,-258.53 87.32,-261.71 88.38,-258.38"/>
</g>
<!-- 799022 -->
<!-- 4573817280&#45;&gt;799022 -->
<!-- 4574310672 -->
<g id="node4" class="node">
<title>4574310672</title>
<ellipse fill="lightblue" stroke="black" cx="419" cy="-252.09" rx="18" ry="18"/>
<text text-anchor="middle" x="419" y="-248.39" font-family="Helvetica,sans-Serif" font-size="14.00">X</text>
</g>
<!-- 4573817280&#45;&gt;4574310672 -->
<g id="edge3" class="edge">
<title>4573817280&#45;&gt;4574310672</title>
<path fill="none" stroke="black" d="M258.97,-303.72C291.22,-293.52 361.3,-271.35 397.06,-260.03"/>
<polygon fill="black" stroke="black" points="397.84,-261.62 402.08,-258.45 396.78,-258.29 397.84,-261.62"/>
</g>
<!-- 4574300928 -->
<g id="node5" class="node">
<title>4574300928</title>
<ellipse fill="lightblue" stroke="black" cx="18" cy="-194.09" rx="18" ry="18"/>
<text text-anchor="middle" x="18" y="-190.39" font-family="Helvetica,sans-Serif" font-size="14.00">C</text>
</g>
<!-- 4573820688&#45;&gt;4574300928 -->
<g id="edge4" class="edge">
<title>4573820688&#45;&gt;4574300928</title>
<path fill="none" stroke="black" d="M54.62,-237.82C48.05,-230.15 39.71,-220.42 32.64,-212.18"/>
<polygon fill="black" stroke="black" points="33.88,-210.93 29.29,-208.27 31.22,-213.2 33.88,-210.93"/>
</g>
<!-- 473585 -->
<!-- 4573820688&#45;&gt;473585 -->
<!-- 4573817664 -->
<g id="node7" class="node">
<title>4573817664</title>
<ellipse fill="lightblue" stroke="black" cx="114" cy="-194.09" rx="18" ry="18"/>
<text text-anchor="middle" x="114" y="-190.39" font-family="Helvetica,sans-Serif" font-size="14.00">L</text>
</g>
<!-- 4573820688&#45;&gt;4573817664 -->
<g id="edge6" class="edge">
<title>4573820688&#45;&gt;4573817664</title>
<path fill="none" stroke="black" d="M77.38,-237.82C83.95,-230.15 92.29,-220.42 99.36,-212.18"/>
<polygon fill="black" stroke="black" points="100.78,-213.2 102.71,-208.27 98.12,-210.93 100.78,-213.2"/>
</g>
<!-- 4574307408 -->
<g id="node17" class="node">
<title>4574307408</title>
<ellipse fill="lightblue" stroke="black" cx="371" cy="-194.09" rx="18" ry="18"/>
<text text-anchor="middle" x="371" y="-190.39" font-family="Helvetica,sans-Serif" font-size="14.00">T</text>
</g>
<!-- 4574310672&#45;&gt;4574307408 -->
<g id="edge16" class="edge">
<title>4574310672&#45;&gt;4574307408</title>
<path fill="none" stroke="black" d="M407.62,-237.82C401.05,-230.15 392.71,-220.42 385.64,-212.18"/>
<polygon fill="black" stroke="black" points="386.88,-210.93 382.29,-208.27 384.22,-213.2 386.88,-210.93"/>
</g>
<!-- 234141 -->
<!-- 4574310672&#45;&gt;234141 -->
<!-- 823511 -->
<!-- 4574310672&#45;&gt;823511 -->
<!-- 4574310624 -->
<g id="node8" class="node">
<title>4574310624</title>
<ellipse fill="lightblue" stroke="black" cx="66" cy="-135.9" rx="18" ry="18"/>
<text text-anchor="middle" x="66" y="-132.2" font-family="Helvetica,sans-Serif" font-size="14.00">J</text>
</g>
<!-- 4573817664&#45;&gt;4574310624 -->
<g id="edge7" class="edge">
<title>4573817664&#45;&gt;4574310624</title>
<path fill="none" stroke="black" d="M102.62,-179.78C96.05,-172.08 87.71,-162.31 80.64,-154.04"/>
<polygon fill="black" stroke="black" points="81.87,-152.78 77.29,-150.12 79.21,-155.06 81.87,-152.78"/>
</g>
<!-- 42848 -->
<!-- 4573817664&#45;&gt;42848 -->
<!-- 4574306064 -->
<g id="node10" class="node">
<title>4574306064</title>
<ellipse fill="lightblue" stroke="black" cx="162" cy="-135.9" rx="18.4" ry="18.4"/>
<text text-anchor="middle" x="162" y="-132.2" font-family="Helvetica,sans-Serif" font-size="14.00">O</text>
</g>
<!-- 4573817664&#45;&gt;4574306064 -->
<g id="edge9" class="edge">
<title>4573817664&#45;&gt;4574306064</title>
<path fill="none" stroke="black" d="M125.38,-179.78C131.86,-172.19 140.05,-162.59 147.05,-154.4"/>
<polygon fill="black" stroke="black" points="148.46,-155.45 150.37,-150.51 145.79,-153.17 148.46,-155.45"/>
</g>
<!-- 4574311680 -->
<g id="node11" class="node">
<title>4574311680</title>
<ellipse fill="lightblue" stroke="black" cx="114" cy="-77.7" rx="18" ry="18"/>
<text text-anchor="middle" x="114" y="-74" font-family="Helvetica,sans-Serif" font-size="14.00">N</text>
</g>
<!-- 4574306064&#45;&gt;4574311680 -->
<g id="edge10" class="edge">
<title>4574306064&#45;&gt;4574311680</title>
<path fill="none" stroke="black" d="M150.62,-121.58C144.05,-113.88 135.71,-104.11 128.64,-95.84"/>
<polygon fill="black" stroke="black" points="129.87,-94.58 125.29,-91.92 127.21,-96.86 129.87,-94.58"/>
</g>
<!-- 375694 -->
<!-- 4574306064&#45;&gt;375694 -->
<!-- 612512 -->
<!-- 4574306064&#45;&gt;612512 -->
<!-- 4574313792 -->
<g id="node14" class="node">
<title>4574313792</title>
<ellipse fill="lightblue" stroke="black" cx="66" cy="-18.85" rx="18.7" ry="18.7"/>
<text text-anchor="middle" x="66" y="-15.15" font-family="Helvetica,sans-Serif" font-size="14.00">M</text>
</g>
<!-- 4574311680&#45;&gt;4574313792 -->
<g id="edge13" class="edge">
<title>4574311680&#45;&gt;4574313792</title>
<path fill="none" stroke="black" d="M102.87,-63.51C96.39,-55.84 88.15,-46.08 81.09,-37.73"/>
<polygon fill="black" stroke="black" points="82.3,-36.45 77.74,-33.75 79.63,-38.7 82.3,-36.45"/>
</g>
<!-- 331997 -->
<!-- 4574311680&#45;&gt;331997 -->
<!-- 380043 -->
<!-- 4574311680&#45;&gt;380043 -->
<!-- 4574309328 -->
<g id="node20" class="node">
<title>4574309328</title>
<ellipse fill="lightblue" stroke="black" cx="323" cy="-135.9" rx="18" ry="18"/>
<text text-anchor="middle" x="323" y="-132.2" font-family="Helvetica,sans-Serif" font-size="14.00">S</text>
</g>
<!-- 4574307408&#45;&gt;4574309328 -->
<g id="edge19" class="edge">
<title>4574307408&#45;&gt;4574309328</title>
<path fill="none" stroke="black" d="M359.62,-179.78C353.05,-172.08 344.71,-162.31 337.64,-154.04"/>
<polygon fill="black" stroke="black" points="338.87,-152.78 334.29,-150.12 336.21,-155.06 338.87,-152.78"/>
</g>
<!-- 428522 -->
<!-- 4574307408&#45;&gt;428522 -->
<!-- 4574307648 -->
<g id="node22" class="node">
<title>4574307648</title>
<ellipse fill="lightblue" stroke="black" cx="484" cy="-135.9" rx="18" ry="18"/>
<text text-anchor="middle" x="484" y="-132.2" font-family="Helvetica,sans-Serif" font-size="14.00">U</text>
</g>
<!-- 4574307408&#45;&gt;4574307648 -->
<g id="edge21" class="edge">
<title>4574307408&#45;&gt;4574307648</title>
<path fill="none" stroke="black" d="M386.71,-185.28C406.75,-175.31 441.46,-158.05 463.55,-147.07"/>
<polygon fill="black" stroke="black" points="464.36,-148.62 468.06,-144.82 462.8,-145.48 464.36,-148.62"/>
</g>
<!-- 4574312592 -->
<g id="node23" class="node">
<title>4574312592</title>
<ellipse fill="lightblue" stroke="black" cx="275" cy="-77.7" rx="18" ry="18"/>
<text text-anchor="middle" x="275" y="-74" font-family="Helvetica,sans-Serif" font-size="14.00">R</text>
</g>
<!-- 4574309328&#45;&gt;4574312592 -->
<g id="edge22" class="edge">
<title>4574309328&#45;&gt;4574312592</title>
<path fill="none" stroke="black" d="M311.62,-121.58C305.05,-113.88 296.71,-104.11 289.64,-95.84"/>
<polygon fill="black" stroke="black" points="290.87,-94.58 286.29,-91.92 288.21,-96.86 290.87,-94.58"/>
</g>
<!-- 755270 -->
<!-- 4574309328&#45;&gt;755270 -->
<!-- 583140 -->
<!-- 4574309328&#45;&gt;583140 -->
<!-- 486737 -->
<!-- 4574307648&#45;&gt;486737 -->
<!-- 966891 -->
<!-- 4574307648&#45;&gt;966891 -->
<!-- 4574301312 -->
<g id="node31" class="node">
<title>4574301312</title>
<ellipse fill="lightblue" stroke="black" cx="532" cy="-77.7" rx="18" ry="18"/>
<text text-anchor="middle" x="532" y="-74" font-family="Helvetica,sans-Serif" font-size="14.00">V</text>
</g>
<!-- 4574307648&#45;&gt;4574301312 -->
<g id="edge30" class="edge">
<title>4574307648&#45;&gt;4574301312</title>
<path fill="none" stroke="black" d="M495.38,-121.58C501.95,-113.88 510.29,-104.11 517.36,-95.84"/>
<polygon fill="black" stroke="black" points="518.79,-96.86 520.71,-91.92 516.13,-94.58 518.79,-96.86"/>
</g>
<!-- 4574311152 -->
<g id="node26" class="node">
<title>4574311152</title>
<ellipse fill="lightblue" stroke="black" cx="227" cy="-18.85" rx="18.4" ry="18.4"/>
<text text-anchor="middle" x="227" y="-15.15" font-family="Helvetica,sans-Serif" font-size="14.00">Q</text>
</g>
<!-- 4574312592&#45;&gt;4574311152 -->
<g id="edge25" class="edge">
<title>4574312592&#45;&gt;4574311152</title>
<path fill="none" stroke="black" d="M263.87,-63.51C257.3,-55.73 248.9,-45.79 241.78,-37.36"/>
<polygon fill="black" stroke="black" points="242.97,-36.05 238.41,-33.36 240.29,-38.31 242.97,-36.05"/>
</g>
<!-- 750670 -->
<!-- 4574312592&#45;&gt;750670 -->
<!-- 486140 -->
<!-- 4574312592&#45;&gt;486140 -->
</g>
</svg>
