<?xml version="1.0" encoding="UTF-8" standalone="no"?>
<!DOCTYPE svg PUBLIC "-//W3C//DTD SVG 1.1//EN"
 "http://www.w3.org/Graphics/SVG/1.1/DTD/svg11.dtd">
<!-- Generated by graphviz version 2.50.0 (0)
 -->
<!-- Pages: 1 -->
<svg width="350pt" height="397pt"
 viewBox="0.00 0.00 350.00 397.09" xmlns="http://www.w3.org/2000/svg" xmlns:xlink="http://www.w3.org/1999/xlink">
<g id="graph0" class="graph" transform="scale(1 1) rotate(0) translate(4 393.09)">
<polygon fill="white" stroke="transparent" points="-4,4 -4,-393.09 346,-393.09 346,4 -4,4"/>
<!-- 4574333408 -->
<g id="node1" class="node">
<title>4574333408</title>
<ellipse fill="lightblue" stroke="black" cx="146" cy="-371.09" rx="18" ry="18"/>
<text text-anchor="middle" x="146" y="-367.39" font-family="Helvetica,sans-Serif" font-size="14.00">A</text>
</g>
<!-- 592088 -->
<!-- 4574333408&#45;&gt;592088 -->
<!-- 80833 -->
<!-- 4574333408&#45;&gt;80833 -->
<!-- 4574339552 -->
<g id="node4" class="node">
<title>4574339552</title>
<ellipse fill="lightblue" stroke="black" cx="194" cy="-313.09" rx="18" ry="18"/>
<text text-anchor="middle" x="194" y="-309.39" font-family="Helvetica,sans-Serif" font-size="14.00">N</text>
</g>
<!-- 4574333408&#45;&gt;4574339552 -->
<g id="edge3" class="edge">
<title>4574333408&#45;&gt;4574339552</title>
<path fill="none" stroke="black" d="M157.38,-356.82C163.95,-349.15 172.29,-339.41 179.36,-331.17"/>
<polygon fill="black" stroke="black" points="180.78,-332.2 182.71,-327.27 178.12,-329.92 180.78,-332.2"/>
</g>
<!-- 4574343104 -->
<g id="node5" class="node">
<title>4574343104</title>
<ellipse fill="lightblue" stroke="black" cx="114" cy="-253.59" rx="18" ry="18"/>
<text text-anchor="middle" x="114" y="-249.89" font-family="Helvetica,sans-Serif" font-size="14.00">L</text>
</g>
<!-- 4574339552&#45;&gt;4574343104 -->
<g id="edge4" class="edge">
<title>4574339552&#45;&gt;4574343104</title>
<path fill="none" stroke="black" d="M179.7,-301.81C166.5,-292.33 146.83,-278.19 132.46,-267.86"/>
<polygon fill="black" stroke="black" points="133.26,-266.28 128.18,-264.78 131.22,-269.12 133.26,-266.28"/>
</g>
<!-- 168232 -->
<!-- 4574339552&#45;&gt;168232 -->
<!-- 4574306064 -->
<g id="node7" class="node">
<title>4574306064</title>
<ellipse fill="lightblue" stroke="black" cx="276" cy="-253.59" rx="19.5" ry="19.5"/>
<text text-anchor="middle" x="276" y="-249.89" font-family="Helvetica,sans-Serif" font-size="14.00">W</text>
</g>
<!-- 4574339552&#45;&gt;4574306064 -->
<g id="edge6" class="edge">
<title>4574339552&#45;&gt;4574306064</title>
<path fill="none" stroke="black" d="M208.28,-302.07C221.51,-292.8 241.3,-278.92 256.07,-268.56"/>
<polygon fill="black" stroke="black" points="257.4,-269.77 260.49,-265.47 255.39,-266.91 257.4,-269.77"/>
</g>
<!-- 4574309472 -->
<g id="node8" class="node">
<title>4574309472</title>
<ellipse fill="lightblue" stroke="black" cx="66" cy="-193.25" rx="18" ry="18"/>
<text text-anchor="middle" x="66" y="-189.55" font-family="Helvetica,sans-Serif" font-size="14.00">C</text>
</g>
<!-- 4574343104&#45;&gt;4574309472 -->
<g id="edge7" class="edge">
<title>4574343104&#45;&gt;4574309472</title>
<path fill="none" stroke="black" d="M102.87,-239.06C96.2,-230.96 87.66,-220.57 80.48,-211.84"/>
<polygon fill="black" stroke="black" points="81.6,-210.45 77.07,-207.7 78.9,-212.68 81.6,-210.45"/>
</g>
<!-- 144210 -->
<!-- 4574343104&#45;&gt;144210 -->
<!-- 4574312832 -->
<g id="node10" class="node">
<title>4574312832</title>
<ellipse fill="lightblue" stroke="black" cx="162" cy="-193.25" rx="18.7" ry="18.7"/>
<text text-anchor="middle" x="162" y="-189.55" font-family="Helvetica,sans-Serif" font-size="14.00">M</text>
</g>
<!-- 4574343104&#45;&gt;4574312832 -->
<g id="edge9" class="edge">
<title>4574343104&#45;&gt;4574312832</title>
<path fill="none" stroke="black" d="M125.13,-239.06C131.61,-231.19 139.85,-221.17 146.91,-212.59"/>
<polygon fill="black" stroke="black" points="148.43,-213.49 150.26,-208.52 145.73,-211.27 148.43,-213.49"/>
</g>
<!-- 4574313984 -->
<g id="node17" class="node">
<title>4574313984</title>
<ellipse fill="lightblue" stroke="black" cx="228" cy="-193.25" rx="18" ry="18"/>
<text text-anchor="middle" x="228" y="-189.55" font-family="Helvetica,sans-Serif" font-size="14.00">R</text>
</g>
<!-- 4574306064&#45;&gt;4574313984 -->
<g id="edge16" class="edge">
<title>4574306064&#45;&gt;4574313984</title>
<path fill="none" stroke="black" d="M263.89,-237.87C257.3,-229.86 249.11,-219.91 242.22,-211.54"/>
<polygon fill="black" stroke="black" points="243.49,-210.32 238.96,-207.57 240.78,-212.54 243.49,-210.32"/>
</g>
<!-- 826144 -->
<!-- 4574306064&#45;&gt;826144 -->
<!-- 4574300544 -->
<g id="node19" class="node">
<title>4574300544</title>
<ellipse fill="lightblue" stroke="black" cx="324" cy="-193.25" rx="18" ry="18"/>
<text text-anchor="middle" x="324" y="-189.55" font-family="Helvetica,sans-Serif" font-size="14.00">X</text>
</g>
<!-- 4574306064&#45;&gt;4574300544 -->
<g id="edge18" class="edge">
<title>4574306064&#45;&gt;4574300544</title>
<path fill="none" stroke="black" d="M288.11,-237.87C294.7,-229.86 302.89,-219.91 309.78,-211.54"/>
<polygon fill="black" stroke="black" points="311.22,-212.54 313.04,-207.57 308.51,-210.32 311.22,-212.54"/>
</g>
<!-- 4574313792 -->
<g id="node11" class="node">
<title>4574313792</title>
<ellipse fill="lightblue" stroke="black" cx="18" cy="-134.2" rx="18" ry="18"/>
<text text-anchor="middle" x="18" y="-130.5" font-family="Helvetica,sans-Serif" font-size="14.00">B</text>
</g>
<!-- 4574309472&#45;&gt;4574313792 -->
<g id="edge10" class="edge">
<title>4574309472&#45;&gt;4574313792</title>
<path fill="none" stroke="black" d="M54.87,-179.01C48.3,-171.21 39.9,-161.23 32.78,-152.77"/>
<polygon fill="black" stroke="black" points="33.96,-151.45 29.41,-148.75 31.29,-153.71 33.96,-151.45"/>
</g>
<!-- 120707 -->
<!-- 4574309472&#45;&gt;120707 -->
<!-- 4574313072 -->
<g id="node13" class="node">
<title>4574313072</title>
<ellipse fill="lightblue" stroke="black" cx="114" cy="-134.2" rx="18" ry="18"/>
<text text-anchor="middle" x="114" y="-130.5" font-family="Helvetica,sans-Serif" font-size="14.00">H</text>
</g>
<!-- 4574309472&#45;&gt;4574313072 -->
<g id="edge12" class="edge">
<title>4574309472&#45;&gt;4574313072</title>
<path fill="none" stroke="black" d="M77.13,-179.01C83.7,-171.21 92.1,-161.23 99.22,-152.77"/>
<polygon fill="black" stroke="black" points="100.71,-153.71 102.59,-148.75 98.04,-151.45 100.71,-153.71"/>
</g>
<!-- 645160 -->
<!-- 4574313072&#45;&gt;645160 -->
<!-- 404672 -->
<!-- 4574313072&#45;&gt;404672 -->
<!-- 4574298720 -->
<g id="node16" class="node">
<title>4574298720</title>
<ellipse fill="lightblue" stroke="black" cx="162" cy="-76" rx="18" ry="18"/>
<text text-anchor="middle" x="162" y="-72.3" font-family="Helvetica,sans-Serif" font-size="14.00">K</text>
</g>
<!-- 4574313072&#45;&gt;4574298720 -->
<g id="edge15" class="edge">
<title>4574313072&#45;&gt;4574298720</title>
<path fill="none" stroke="black" d="M125.38,-119.88C131.95,-112.18 140.29,-102.41 147.36,-94.15"/>
<polygon fill="black" stroke="black" points="148.79,-95.16 150.71,-90.22 146.13,-92.89 148.79,-95.16"/>
</g>
<!-- 4574314416 -->
<g id="node20" class="node">
<title>4574314416</title>
<ellipse fill="lightblue" stroke="black" cx="180" cy="-134.2" rx="18.4" ry="18.4"/>
<text text-anchor="middle" x="180" y="-130.5" font-family="Helvetica,sans-Serif" font-size="14.00">O</text>
</g>
<!-- 4574313984&#45;&gt;4574314416 -->
<g id="edge19" class="edge">
<title>4574313984&#45;&gt;4574314416</title>
<path fill="none" stroke="black" d="M216.87,-179.01C210.3,-171.21 201.9,-161.23 194.78,-152.77"/>
<polygon fill="black" stroke="black" points="195.96,-151.45 191.41,-148.75 193.29,-153.71 195.96,-151.45"/>
</g>
<!-- 707438 -->
<!-- 4574313984&#45;&gt;707438 -->
<!-- 4574300976 -->
<g id="node22" class="node">
<title>4574300976</title>
<ellipse fill="lightblue" stroke="black" cx="276" cy="-134.2" rx="18" ry="18"/>
<text text-anchor="middle" x="276" y="-130.5" font-family="Helvetica,sans-Serif" font-size="14.00">V</text>
</g>
<!-- 4574313984&#45;&gt;4574300976 -->
<g id="edge21" class="edge">
<title>4574313984&#45;&gt;4574300976</title>
<path fill="none" stroke="black" d="M239.13,-179.01C245.7,-171.21 254.1,-161.23 261.22,-152.77"/>
<polygon fill="black" stroke="black" points="262.71,-153.71 264.59,-148.75 260.04,-151.45 262.71,-153.71"/>
</g>
<!-- 4574311152 -->
<g id="node23" class="node">
<title>4574311152</title>
<ellipse fill="lightblue" stroke="black" cx="228" cy="-76" rx="18" ry="18"/>
<text text-anchor="middle" x="228" y="-72.3" font-family="Helvetica,sans-Serif" font-size="14.00">S</text>
</g>
<!-- 4574300976&#45;&gt;4574311152 -->
<g id="edge22" class="edge">
<title>4574300976&#45;&gt;4574311152</title>
<path fill="none" stroke="black" d="M264.62,-119.88C258.05,-112.18 249.71,-102.41 242.64,-94.15"/>
<polygon fill="black" stroke="black" points="243.87,-92.89 239.29,-90.22 241.21,-95.16 243.87,-92.89"/>
</g>
<!-- 238183 -->
<!-- 4574300976&#45;&gt;238183 -->
<!-- 936761 -->
<!-- 4574300976&#45;&gt;936761 -->
<!-- 776576 -->
<!-- 4574311152&#45;&gt;776576 -->
<!-- 482735 -->
<!-- 4574311152&#45;&gt;482735 -->
<!-- 4574694000 -->
<g id="node28" class="node">
<title>4574694000</title>
<ellipse fill="lightblue" stroke="black" cx="276" cy="-18" rx="18" ry="18"/>
<text text-anchor="middle" x="276" y="-14.3" font-family="Helvetica,sans-Serif" font-size="14.00">U</text>
</g>
<!-- 4574311152&#45;&gt;4574694000 -->
<g id="edge27" class="edge">
<title>4574311152&#45;&gt;4574694000</title>
<path fill="none" stroke="black" d="M239.38,-61.73C245.95,-54.06 254.29,-44.32 261.36,-36.08"/>
<polygon fill="black" stroke="black" points="262.78,-37.11 264.71,-32.18 260.12,-34.83 262.78,-37.11"/>
</g>
</g>
</svg>
