<?xml version="1.0" encoding="UTF-8" standalone="no"?>
<!DOCTYPE svg PUBLIC "-//W3C//DTD SVG 1.1//EN"
 "http://www.w3.org/Graphics/SVG/1.1/DTD/svg11.dtd">
<!-- Generated by graphviz version 2.50.0 (0)
 -->
<!-- Pages: 1 -->
<svg width="430pt" height="393pt"
 viewBox="0.00 0.00 430.00 392.79" xmlns="http://www.w3.org/2000/svg" xmlns:xlink="http://www.w3.org/1999/xlink">
<g id="graph0" class="graph" transform="scale(1 1) rotate(0) translate(4 388.79)">
<polygon fill="white" stroke="transparent" points="-4,4 -4,-388.79 426,-388.79 426,4 -4,4"/>
<!-- 4573817904 -->
<g id="node1" class="node">
<title>4573817904</title>
<ellipse fill="lightblue" stroke="black" cx="146" cy="-366.6" rx="18.4" ry="18.4"/>
<text text-anchor="middle" x="146" y="-362.9" font-family="Helvetica,sans-Serif" font-size="14.00">G</text>
</g>
<!-- 4573819728 -->
<g id="node2" class="node">
<title>4573819728</title>
<ellipse fill="lightblue" stroke="black" cx="66" cy="-308.4" rx="18" ry="18"/>
<text text-anchor="middle" x="66" y="-304.7" font-family="Helvetica,sans-Serif" font-size="14.00">E</text>
</g>
<!-- 4573817904&#45;&gt;4573819728 -->
<g id="edge1" class="edge">
<title>4573817904&#45;&gt;4573819728</title>
<path fill="none" stroke="black" d="M131.33,-355.29C118.16,-346.04 98.78,-332.43 84.55,-322.43"/>
<polygon fill="black" stroke="black" points="85.41,-320.89 80.31,-319.45 83.4,-323.76 85.41,-320.89"/>
</g>
<!-- 589350 -->
<!-- 4573817904&#45;&gt;589350 -->
<!-- 4573816896 -->
<g id="node4" class="node">
<title>4573816896</title>
<ellipse fill="lightblue" stroke="black" cx="227" cy="-308.4" rx="18" ry="18"/>
<text text-anchor="middle" x="227" y="-304.7" font-family="Helvetica,sans-Serif" font-size="14.00">H</text>
</g>
<!-- 4573817904&#45;&gt;4573816896 -->
<g id="edge3" class="edge">
<title>4573817904&#45;&gt;4573816896</title>
<path fill="none" stroke="black" d="M160.48,-355.55C173.84,-346.28 193.76,-332.46 208.31,-322.36"/>
<polygon fill="black" stroke="black" points="209.53,-323.65 212.64,-319.36 207.54,-320.77 209.53,-323.65"/>
</g>
<!-- 4574312640 -->
<g id="node5" class="node">
<title>4574312640</title>
<ellipse fill="lightblue" stroke="black" cx="18" cy="-250.4" rx="18" ry="18"/>
<text text-anchor="middle" x="18" y="-246.7" font-family="Helvetica,sans-Serif" font-size="14.00">B</text>
</g>
<!-- 4573819728&#45;&gt;4574312640 -->
<g id="edge4" class="edge">
<title>4573819728&#45;&gt;4574312640</title>
<path fill="none" stroke="black" d="M54.62,-294.13C48.05,-286.45 39.71,-276.72 32.64,-268.48"/>
<polygon fill="black" stroke="black" points="33.88,-267.23 29.29,-264.57 31.22,-269.51 33.88,-267.23"/>
</g>
<!-- 68777 -->
<!-- 4573819728&#45;&gt;68777 -->
<!-- 4574301024 -->
<g id="node7" class="node">
<title>4574301024</title>
<ellipse fill="lightblue" stroke="black" cx="114" cy="-250.4" rx="18" ry="18"/>
<text text-anchor="middle" x="114" y="-246.7" font-family="Helvetica,sans-Serif" font-size="14.00">F</text>
</g>
<!-- 4573819728&#45;&gt;4574301024 -->
<g id="edge6" class="edge">
<title>4573819728&#45;&gt;4574301024</title>
<path fill="none" stroke="black" d="M77.38,-294.13C83.95,-286.45 92.29,-276.72 99.36,-268.48"/>
<polygon fill="black" stroke="black" points="100.78,-269.51 102.71,-264.57 98.12,-267.23 100.78,-269.51"/>
</g>
<!-- 453529 -->
<!-- 4573816896&#45;&gt;453529 -->
<!-- 636692 -->
<!-- 4573816896&#45;&gt;636692 -->
<!-- 4574314224 -->
<g id="node10" class="node">
<title>4574314224</title>
<ellipse fill="lightblue" stroke="black" cx="275" cy="-250.4" rx="18" ry="18"/>
<text text-anchor="middle" x="275" y="-246.7" font-family="Helvetica,sans-Serif" font-size="14.00">U</text>
</g>
<!-- 4573816896&#45;&gt;4574314224 -->
<g id="edge9" class="edge">
<title>4573816896&#45;&gt;4574314224</title>
<path fill="none" stroke="black" d="M238.38,-294.13C244.95,-286.45 253.29,-276.72 260.36,-268.48"/>
<polygon fill="black" stroke="black" points="261.78,-269.51 263.71,-264.57 259.12,-267.23 261.78,-269.51"/>
</g>
<!-- 4574302944 -->
<g id="node11" class="node">
<title>4574302944</title>
<ellipse fill="lightblue" stroke="black" cx="195" cy="-192.2" rx="18.4" ry="18.4"/>
<text text-anchor="middle" x="195" y="-188.5" font-family="Helvetica,sans-Serif" font-size="14.00">O</text>
</g>
<!-- 4574314224&#45;&gt;4574302944 -->
<g id="edge10" class="edge">
<title>4574314224&#45;&gt;4574302944</title>
<path fill="none" stroke="black" d="M260.7,-239.35C247.58,-230.14 228.08,-216.43 213.72,-206.35"/>
<polygon fill="black" stroke="black" points="214.55,-204.79 209.45,-203.35 212.53,-207.65 214.55,-204.79"/>
</g>
<!-- 751835 -->
<!-- 4574314224&#45;&gt;751835 -->
<!-- 4574305152 -->
<g id="node13" class="node">
<title>4574305152</title>
<ellipse fill="lightblue" stroke="black" cx="356" cy="-192.2" rx="18" ry="18"/>
<text text-anchor="middle" x="356" y="-188.5" font-family="Helvetica,sans-Serif" font-size="14.00">Y</text>
</g>
<!-- 4574314224&#45;&gt;4574305152 -->
<g id="edge12" class="edge">
<title>4574314224&#45;&gt;4574305152</title>
<path fill="none" stroke="black" d="M289.48,-239.35C302.84,-230.08 322.76,-216.26 337.31,-206.16"/>
<polygon fill="black" stroke="black" points="338.53,-207.45 341.64,-203.16 336.54,-204.57 338.53,-207.45"/>
</g>
<!-- 4574302224 -->
<g id="node14" class="node">
<title>4574302224</title>
<ellipse fill="lightblue" stroke="black" cx="82" cy="-134" rx="18" ry="18"/>
<text text-anchor="middle" x="82" y="-130.3" font-family="Helvetica,sans-Serif" font-size="14.00">J</text>
</g>
<!-- 4574302944&#45;&gt;4574302224 -->
<g id="edge13" class="edge">
<title>4574302944&#45;&gt;4574302224</title>
<path fill="none" stroke="black" d="M178.81,-183.15C158.73,-173.16 124.46,-156.12 102.55,-145.22"/>
<polygon fill="black" stroke="black" points="103.05,-143.52 97.8,-142.86 101.49,-146.65 103.05,-143.52"/>
</g>
<!-- 244066 -->
<!-- 4574302944&#45;&gt;244066 -->
<!-- 4574307552 -->
<g id="node16" class="node">
<title>4574307552</title>
<ellipse fill="lightblue" stroke="black" cx="243" cy="-134" rx="18" ry="18"/>
<text text-anchor="middle" x="243" y="-130.3" font-family="Helvetica,sans-Serif" font-size="14.00">P</text>
</g>
<!-- 4574302944&#45;&gt;4574307552 -->
<g id="edge15" class="edge">
<title>4574302944&#45;&gt;4574307552</title>
<path fill="none" stroke="black" d="M206.38,-177.88C212.95,-170.18 221.29,-160.41 228.36,-152.15"/>
<polygon fill="black" stroke="black" points="229.79,-153.16 231.71,-148.22 227.13,-150.89 229.79,-153.16"/>
</g>
<!-- 4574310864 -->
<g id="node26" class="node">
<title>4574310864</title>
<ellipse fill="lightblue" stroke="black" cx="308" cy="-134" rx="18" ry="18"/>
<text text-anchor="middle" x="308" y="-130.3" font-family="Helvetica,sans-Serif" font-size="14.00">V</text>
</g>
<!-- 4574305152&#45;&gt;4574310864 -->
<g id="edge25" class="edge">
<title>4574305152&#45;&gt;4574310864</title>
<path fill="none" stroke="black" d="M344.62,-177.88C338.05,-170.18 329.71,-160.41 322.64,-152.15"/>
<polygon fill="black" stroke="black" points="323.87,-150.89 319.29,-148.22 321.21,-153.16 323.87,-150.89"/>
</g>
<!-- 307250 -->
<!-- 4574305152&#45;&gt;307250 -->
<!-- 603091 -->
<!-- 4574305152&#45;&gt;603091 -->
<!-- 4574302800 -->
<g id="node17" class="node">
<title>4574302800</title>
<ellipse fill="lightblue" stroke="black" cx="34" cy="-76" rx="18" ry="18"/>
<text text-anchor="middle" x="34" y="-72.3" font-family="Helvetica,sans-Serif" font-size="14.00">I</text>
</g>
<!-- 4574302224&#45;&gt;4574302800 -->
<g id="edge16" class="edge">
<title>4574302224&#45;&gt;4574302800</title>
<path fill="none" stroke="black" d="M70.62,-119.73C64.05,-112.06 55.71,-102.32 48.64,-94.08"/>
<polygon fill="black" stroke="black" points="49.88,-92.83 45.29,-90.18 47.22,-95.11 49.88,-92.83"/>
</g>
<!-- 869191 -->
<!-- 4574302224&#45;&gt;869191 -->
<!-- 4574311056 -->
<g id="node19" class="node">
<title>4574311056</title>
<ellipse fill="lightblue" stroke="black" cx="130" cy="-76" rx="18" ry="18"/>
<text text-anchor="middle" x="130" y="-72.3" font-family="Helvetica,sans-Serif" font-size="14.00">K</text>
</g>
<!-- 4574302224&#45;&gt;4574311056 -->
<g id="edge18" class="edge">
<title>4574302224&#45;&gt;4574311056</title>
<path fill="none" stroke="black" d="M93.38,-119.73C99.95,-112.06 108.29,-102.32 115.36,-94.08"/>
<polygon fill="black" stroke="black" points="116.78,-95.11 118.71,-90.18 114.12,-92.83 116.78,-95.11"/>
</g>
<!-- 317172 -->
<!-- 4574307552&#45;&gt;317172 -->
<!-- 63151 -->
<!-- 4574307552&#45;&gt;63151 -->
<!-- 4574309808 -->
<g id="node25" class="node">
<title>4574309808</title>
<ellipse fill="lightblue" stroke="black" cx="291" cy="-76" rx="18" ry="18"/>
<text text-anchor="middle" x="291" y="-72.3" font-family="Helvetica,sans-Serif" font-size="14.00">T</text>
</g>
<!-- 4574307552&#45;&gt;4574309808 -->
<g id="edge24" class="edge">
<title>4574307552&#45;&gt;4574309808</title>
<path fill="none" stroke="black" d="M254.38,-119.73C260.95,-112.06 269.29,-102.32 276.36,-94.08"/>
<polygon fill="black" stroke="black" points="277.78,-95.11 279.71,-90.18 275.12,-92.83 277.78,-95.11"/>
</g>
<!-- 755256 -->
<!-- 4574311056&#45;&gt;755256 -->
<!-- 908547 -->
<!-- 4574311056&#45;&gt;908547 -->
<!-- 4574313072 -->
<g id="node22" class="node">
<title>4574313072</title>
<ellipse fill="lightblue" stroke="black" cx="178" cy="-18" rx="18" ry="18"/>
<text text-anchor="middle" x="178" y="-14.3" font-family="Helvetica,sans-Serif" font-size="14.00">L</text>
</g>
<!-- 4574311056&#45;&gt;4574313072 -->
<g id="edge21" class="edge">
<title>4574311056&#45;&gt;4574313072</title>
<path fill="none" stroke="black" d="M141.38,-61.73C147.95,-54.06 156.29,-44.32 163.36,-36.08"/>
<polygon fill="black" stroke="black" points="164.78,-37.11 166.71,-32.18 162.12,-34.83 164.78,-37.11"/>
</g>
</g>
</svg>
