<?xml version="1.0" encoding="UTF-8" standalone="no"?>
<!DOCTYPE svg PUBLIC "-//W3C//DTD SVG 1.1//EN"
 "http://www.w3.org/Graphics/SVG/1.1/DTD/svg11.dtd">
<!-- Generated by graphviz version 2.50.0 (0)
 -->
<!-- Pages: 1 -->
<svg width="625pt" height="223pt"
 viewBox="0.00 0.00 625.00 222.69" xmlns="http://www.w3.org/2000/svg" xmlns:xlink="http://www.w3.org/1999/xlink">
<g id="graph0" class="graph" transform="scale(1 1) rotate(0) translate(4 218.69)">
<polygon fill="white" stroke="transparent" points="-4,4 -4,-218.69 621,-218.69 621,4 -4,4"/>
<!-- 4419536944 -->
<g id="node1" class="node">
<title>4419536944</title>
<ellipse fill="#9bcd9b" stroke="black" cx="309" cy="-196.69" rx="18" ry="18"/>
<text text-anchor="middle" x="309" y="-192.99" font-family="Helvetica,sans-Serif" font-size="14.00">H</text>
</g>
<!-- 4415845200 -->
<g id="node2" class="node">
<title>4415845200</title>
<ellipse fill="#9bcd9b" stroke="black" cx="181" cy="-138.69" rx="18" ry="18"/>
<text text-anchor="middle" x="181" y="-134.99" font-family="Helvetica,sans-Serif" font-size="14.00">J</text>
</g>
<!-- 4419536944&#45;&gt;4415845200 -->
<g id="edge1" class="edge">
<title>4419536944&#45;&gt;4415845200</title>
<path fill="none" stroke="black" d="M292.79,-188.6C269.83,-178.56 227.82,-160.18 202.35,-149.03"/>
<polygon fill="black" stroke="black" points="202.77,-147.31 197.48,-146.9 201.36,-150.51 202.77,-147.31"/>
</g>
<!-- 545615 -->
<!-- 4419536944&#45;&gt;545615 -->
<!-- 4574342768 -->
<g id="node4" class="node">
<title>4574342768</title>
<ellipse fill="#9bcd9b" stroke="black" cx="438" cy="-138.69" rx="18" ry="18"/>
<text text-anchor="middle" x="438" y="-134.99" font-family="Helvetica,sans-Serif" font-size="14.00">D</text>
</g>
<!-- 4419536944&#45;&gt;4574342768 -->
<g id="edge3" class="edge">
<title>4419536944&#45;&gt;4574342768</title>
<path fill="none" stroke="black" d="M325.34,-188.6C348.6,-178.5 391.28,-159.97 416.91,-148.85"/>
<polygon fill="black" stroke="black" points="417.91,-150.32 421.79,-146.73 416.51,-147.11 417.91,-150.32"/>
</g>
<!-- 4574346224 -->
<g id="node5" class="node">
<title>4574346224</title>
<ellipse fill="#9bcd9b" stroke="black" cx="66" cy="-79.84" rx="18.7" ry="18.7"/>
<text text-anchor="middle" x="66" y="-76.14" font-family="Helvetica,sans-Serif" font-size="14.00">M</text>
</g>
<!-- 4415845200&#45;&gt;4574346224 -->
<g id="edge4" class="edge">
<title>4415845200&#45;&gt;4574346224</title>
<path fill="none" stroke="black" d="M165.01,-129.79C144.73,-119.76 109.69,-102.44 87.2,-91.32"/>
<polygon fill="black" stroke="black" points="87.86,-89.7 82.6,-89.05 86.31,-92.83 87.86,-89.7"/>
</g>
<!-- 562749 -->
<!-- 4415845200&#45;&gt;562749 -->
<!-- 4574343056 -->
<g id="node7" class="node">
<title>4574343056</title>
<ellipse fill="#9bcd9b" stroke="black" cx="229" cy="-79.84" rx="18" ry="18"/>
<text text-anchor="middle" x="229" y="-76.14" font-family="Helvetica,sans-Serif" font-size="14.00">P</text>
</g>
<!-- 4415845200&#45;&gt;4574343056 -->
<g id="edge6" class="edge">
<title>4415845200&#45;&gt;4574343056</title>
<path fill="none" stroke="black" d="M192.13,-124.51C198.7,-116.73 207.1,-106.79 214.22,-98.35"/>
<polygon fill="black" stroke="black" points="215.71,-99.3 217.59,-94.35 213.03,-97.04 215.71,-99.3"/>
</g>
<!-- 4574336672 -->
<g id="node14" class="node">
<title>4574336672</title>
<ellipse fill="#9bcd9b" stroke="black" cx="390" cy="-79.84" rx="18" ry="18"/>
<text text-anchor="middle" x="390" y="-76.14" font-family="Helvetica,sans-Serif" font-size="14.00">E</text>
</g>
<!-- 4574342768&#45;&gt;4574336672 -->
<g id="edge13" class="edge">
<title>4574342768&#45;&gt;4574336672</title>
<path fill="none" stroke="black" d="M426.87,-124.51C420.3,-116.73 411.9,-106.79 404.78,-98.35"/>
<polygon fill="black" stroke="black" points="405.97,-97.04 401.41,-94.35 403.29,-99.3 405.97,-97.04"/>
</g>
<!-- 817622 -->
<!-- 4574342768&#45;&gt;817622 -->
<!-- 4574346512 -->
<g id="node16" class="node">
<title>4574346512</title>
<ellipse fill="#9bcd9b" stroke="black" cx="551" cy="-79.84" rx="18" ry="18"/>
<text text-anchor="middle" x="551" y="-76.14" font-family="Helvetica,sans-Serif" font-size="14.00">C</text>
</g>
<!-- 4574342768&#45;&gt;4574346512 -->
<g id="edge15" class="edge">
<title>4574342768&#45;&gt;4574346512</title>
<path fill="none" stroke="black" d="M453.71,-129.79C473.75,-119.71 508.46,-102.25 530.55,-91.14"/>
<polygon fill="black" stroke="black" points="531.38,-92.68 535.06,-88.87 529.8,-89.55 531.38,-92.68"/>
</g>
<!-- 4574332544 -->
<g id="node8" class="node">
<title>4574332544</title>
<ellipse fill="#9bcd9b" stroke="black" cx="18" cy="-19.5" rx="18" ry="18"/>
<text text-anchor="middle" x="18" y="-15.8" font-family="Helvetica,sans-Serif" font-size="14.00">T</text>
</g>
<!-- 4574346224&#45;&gt;4574332544 -->
<g id="edge7" class="edge">
<title>4574346224&#45;&gt;4574332544</title>
<path fill="none" stroke="black" d="M54.38,-64.72C47.8,-56.72 39.51,-46.64 32.5,-38.13"/>
<polygon fill="black" stroke="black" points="33.71,-36.84 29.18,-34.09 31.01,-39.06 33.71,-36.84"/>
</g>
<!-- 377744 -->
<!-- 4574346224&#45;&gt;377744 -->
<!-- 4574331200 -->
<g id="node10" class="node">
<title>4574331200</title>
<ellipse fill="#9bcd9b" stroke="black" cx="114" cy="-19.5" rx="18" ry="18"/>
<text text-anchor="middle" x="114" y="-15.8" font-family="Helvetica,sans-Serif" font-size="14.00">A</text>
</g>
<!-- 4574346224&#45;&gt;4574331200 -->
<g id="edge9" class="edge">
<title>4574346224&#45;&gt;4574331200</title>
<path fill="none" stroke="black" d="M77.62,-64.72C84.2,-56.72 92.49,-46.64 99.5,-38.13"/>
<polygon fill="black" stroke="black" points="100.99,-39.06 102.82,-34.09 98.29,-36.84 100.99,-39.06"/>
</g>
<!-- 4574342384 -->
<g id="node11" class="node">
<title>4574342384</title>
<ellipse fill="#9bcd9b" stroke="black" cx="180" cy="-19.5" rx="19.5" ry="19.5"/>
<text text-anchor="middle" x="180" y="-15.8" font-family="Helvetica,sans-Serif" font-size="14.00">W</text>
</g>
<!-- 4574343056&#45;&gt;4574342384 -->
<g id="edge10" class="edge">
<title>4574343056&#45;&gt;4574342384</title>
<path fill="none" stroke="black" d="M217.88,-65.61C211.28,-57.75 202.81,-47.66 195.56,-39.02"/>
<polygon fill="black" stroke="black" points="196.66,-37.62 192.1,-34.91 193.98,-39.87 196.66,-37.62"/>
</g>
<!-- 290122 -->
<!-- 4574343056&#45;&gt;290122 -->
<!-- 4573817424 -->
<g id="node13" class="node">
<title>4573817424</title>
<ellipse fill="#9bcd9b" stroke="black" cx="277" cy="-19.5" rx="18" ry="18"/>
<text text-anchor="middle" x="277" y="-15.8" font-family="Helvetica,sans-Serif" font-size="14.00">Y</text>
</g>
<!-- 4574343056&#45;&gt;4573817424 -->
<g id="edge12" class="edge">
<title>4574343056&#45;&gt;4573817424</title>
<path fill="none" stroke="black" d="M240.13,-65.31C246.8,-57.21 255.34,-46.83 262.52,-38.09"/>
<polygon fill="black" stroke="black" points="264.1,-38.93 265.93,-33.96 261.4,-36.71 264.1,-38.93"/>
</g>
<!-- 4574182336 -->
<g id="node17" class="node">
<title>4574182336</title>
<ellipse fill="#9bcd9b" stroke="black" cx="342" cy="-19.5" rx="18.4" ry="18.4"/>
<text text-anchor="middle" x="342" y="-15.8" font-family="Helvetica,sans-Serif" font-size="14.00">Q</text>
</g>
<!-- 4574336672&#45;&gt;4574182336 -->
<g id="edge16" class="edge">
<title>4574336672&#45;&gt;4574182336</title>
<path fill="none" stroke="black" d="M378.87,-65.31C372.2,-57.21 363.66,-46.83 356.48,-38.09"/>
<polygon fill="black" stroke="black" points="357.6,-36.71 353.07,-33.96 354.9,-38.93 357.6,-36.71"/>
</g>
<!-- 181051 -->
<!-- 4574336672&#45;&gt;181051 -->
<!-- 4574182144 -->
<g id="node19" class="node">
<title>4574182144</title>
<ellipse fill="#9bcd9b" stroke="black" cx="438" cy="-19.5" rx="18.4" ry="18.4"/>
<text text-anchor="middle" x="438" y="-15.8" font-family="Helvetica,sans-Serif" font-size="14.00">O</text>
</g>
<!-- 4574336672&#45;&gt;4574182144 -->
<g id="edge18" class="edge">
<title>4574336672&#45;&gt;4574182144</title>
<path fill="none" stroke="black" d="M401.13,-65.31C407.8,-57.21 416.34,-46.83 423.52,-38.09"/>
<polygon fill="black" stroke="black" points="425.1,-38.93 426.93,-33.96 422.4,-36.71 425.1,-38.93"/>
</g>
<!-- 4574182720 -->
<g id="node20" class="node">
<title>4574182720</title>
<ellipse fill="#9bcd9b" stroke="black" cx="503" cy="-19.5" rx="18" ry="18"/>
<text text-anchor="middle" x="503" y="-15.8" font-family="Helvetica,sans-Serif" font-size="14.00">R</text>
</g>
<!-- 4574346512&#45;&gt;4574182720 -->
<g id="edge19" class="edge">
<title>4574346512&#45;&gt;4574182720</title>
<path fill="none" stroke="black" d="M539.87,-65.31C533.2,-57.21 524.66,-46.83 517.48,-38.09"/>
<polygon fill="black" stroke="black" points="518.6,-36.71 514.07,-33.96 515.9,-38.93 518.6,-36.71"/>
</g>
<!-- 867037 -->
<!-- 4574346512&#45;&gt;867037 -->
<!-- 4574182240 -->
<g id="node22" class="node">
<title>4574182240</title>
<ellipse fill="#9bcd9b" stroke="black" cx="599" cy="-19.5" rx="18" ry="18"/>
<text text-anchor="middle" x="599" y="-15.8" font-family="Helvetica,sans-Serif" font-size="14.00">X</text>
</g>
<!-- 4574346512&#45;&gt;4574182240 -->
<g id="edge21" class="edge">
<title>4574346512&#45;&gt;4574182240</title>
<path fill="none" stroke="black" d="M562.13,-65.31C568.8,-57.21 577.34,-46.83 584.52,-38.09"/>
<polygon fill="black" stroke="black" points="586.1,-38.93 587.93,-33.96 583.4,-36.71 586.1,-38.93"/>
</g>
</g>
</svg>
