<?xml version="1.0" encoding="UTF-8" standalone="no"?>
<!DOCTYPE svg PUBLIC "-//W3C//DTD SVG 1.1//EN"
 "http://www.w3.org/Graphics/SVG/1.1/DTD/svg11.dtd">
<!-- Generated by graphviz version 2.50.0 (0)
 -->
<!-- Pages: 1 -->
<svg width="558pt" height="335pt"
 viewBox="0.00 0.00 558.00 334.79" xmlns="http://www.w3.org/2000/svg" xmlns:xlink="http://www.w3.org/1999/xlink">
<g id="graph0" class="graph" transform="scale(1 1) rotate(0) translate(4 330.79)">
<polygon fill="white" stroke="transparent" points="-4,4 -4,-330.79 554,-330.79 554,4 -4,4"/>
<!-- 4574337104 -->
<g id="node1" class="node">
<title>4574337104</title>
<ellipse fill="lightblue" stroke="black" cx="355" cy="-308.79" rx="18" ry="18"/>
<text text-anchor="middle" x="355" y="-305.09" font-family="Helvetica,sans-Serif" font-size="14.00">U</text>
</g>
<!-- 4574336720 -->
<g id="node2" class="node">
<title>4574336720</title>
<ellipse fill="lightblue" stroke="black" cx="307" cy="-250.79" rx="18" ry="18"/>
<text text-anchor="middle" x="307" y="-247.09" font-family="Helvetica,sans-Serif" font-size="14.00">N</text>
</g>
<!-- 4574337104&#45;&gt;4574336720 -->
<g id="edge1" class="edge">
<title>4574337104&#45;&gt;4574336720</title>
<path fill="none" stroke="black" d="M343.62,-294.52C337.05,-286.85 328.71,-277.12 321.64,-268.88"/>
<polygon fill="black" stroke="black" points="322.88,-267.63 318.29,-264.97 320.22,-269.9 322.88,-267.63"/>
</g>
<!-- 753479 -->
<!-- 4574337104&#45;&gt;753479 -->
<!-- 4574341568 -->
<g id="node4" class="node">
<title>4574341568</title>
<ellipse fill="lightblue" stroke="black" cx="403" cy="-250.79" rx="18" ry="18"/>
<text text-anchor="middle" x="403" y="-247.09" font-family="Helvetica,sans-Serif" font-size="14.00">V</text>
</g>
<!-- 4574337104&#45;&gt;4574341568 -->
<g id="edge3" class="edge">
<title>4574337104&#45;&gt;4574341568</title>
<path fill="none" stroke="black" d="M366.38,-294.52C372.95,-286.85 381.29,-277.12 388.36,-268.88"/>
<polygon fill="black" stroke="black" points="389.78,-269.9 391.71,-264.97 387.12,-267.63 389.78,-269.9"/>
</g>
<!-- 4574312112 -->
<g id="node5" class="node">
<title>4574312112</title>
<ellipse fill="lightblue" stroke="black" cx="179" cy="-192.6" rx="18.4" ry="18.4"/>
<text text-anchor="middle" x="179" y="-188.9" font-family="Helvetica,sans-Serif" font-size="14.00">G</text>
</g>
<!-- 4574336720&#45;&gt;4574312112 -->
<g id="edge4" class="edge">
<title>4574336720&#45;&gt;4574312112</title>
<path fill="none" stroke="black" d="M290.79,-242.68C267.83,-232.6 225.82,-214.15 200.35,-202.97"/>
<polygon fill="black" stroke="black" points="200.77,-201.24 195.48,-200.83 199.36,-204.44 200.77,-201.24"/>
</g>
<!-- 993157 -->
<!-- 4574336720&#45;&gt;993157 -->
<!-- 4574313168 -->
<g id="node7" class="node">
<title>4574313168</title>
<ellipse fill="lightblue" stroke="black" cx="396" cy="-192.6" rx="18.4" ry="18.4"/>
<text text-anchor="middle" x="396" y="-188.9" font-family="Helvetica,sans-Serif" font-size="14.00">O</text>
</g>
<!-- 4574336720&#45;&gt;4574313168 -->
<g id="edge6" class="edge">
<title>4574336720&#45;&gt;4574313168</title>
<path fill="none" stroke="black" d="M322.1,-240.26C337.06,-230.81 360.04,-216.3 376.4,-205.97"/>
<polygon fill="black" stroke="black" points="377.53,-207.32 380.83,-203.18 375.67,-204.37 377.53,-207.32"/>
</g>
<!-- 4574309808 -->
<g id="node8" class="node">
<title>4574309808</title>
<ellipse fill="lightblue" stroke="black" cx="66" cy="-134.4" rx="18" ry="18"/>
<text text-anchor="middle" x="66" y="-130.7" font-family="Helvetica,sans-Serif" font-size="14.00">A</text>
</g>
<!-- 4574312112&#45;&gt;4574309808 -->
<g id="edge7" class="edge">
<title>4574312112&#45;&gt;4574309808</title>
<path fill="none" stroke="black" d="M162.81,-183.54C142.73,-173.55 108.46,-156.51 86.55,-145.61"/>
<polygon fill="black" stroke="black" points="87.05,-143.91 81.8,-143.25 85.49,-147.05 87.05,-143.91"/>
</g>
<!-- 465673 -->
<!-- 4574312112&#45;&gt;465673 -->
<!-- 4574311152 -->
<g id="node10" class="node">
<title>4574311152</title>
<ellipse fill="lightblue" stroke="black" cx="227" cy="-134.4" rx="18" ry="18"/>
<text text-anchor="middle" x="227" y="-130.7" font-family="Helvetica,sans-Serif" font-size="14.00">I</text>
</g>
<!-- 4574312112&#45;&gt;4574311152 -->
<g id="edge9" class="edge">
<title>4574312112&#45;&gt;4574311152</title>
<path fill="none" stroke="black" d="M190.38,-178.28C196.95,-170.58 205.29,-160.81 212.36,-152.54"/>
<polygon fill="black" stroke="black" points="213.79,-153.56 215.71,-148.62 211.13,-151.28 213.79,-153.56"/>
</g>
<!-- 267825 -->
<!-- 4574313168&#45;&gt;267825 -->
<!-- 839635 -->
<!-- 4574313168&#45;&gt;839635 -->
<!-- 4574298720 -->
<g id="node25" class="node">
<title>4574298720</title>
<ellipse fill="lightblue" stroke="black" cx="484" cy="-134.4" rx="18" ry="18"/>
<text text-anchor="middle" x="484" y="-130.7" font-family="Helvetica,sans-Serif" font-size="14.00">T</text>
</g>
<!-- 4574313168&#45;&gt;4574298720 -->
<g id="edge24" class="edge">
<title>4574313168&#45;&gt;4574298720</title>
<path fill="none" stroke="black" d="M410.93,-182.06C425.81,-172.56 448.72,-157.93 464.92,-147.58"/>
<polygon fill="black" stroke="black" points="466.02,-148.96 469.29,-144.79 464.14,-146.01 466.02,-148.96"/>
</g>
<!-- 729649 -->
<!-- 4574309808&#45;&gt;729649 -->
<!-- 534056 -->
<!-- 4574309808&#45;&gt;534056 -->
<!-- 4574300976 -->
<g id="node13" class="node">
<title>4574300976</title>
<ellipse fill="lightblue" stroke="black" cx="114" cy="-76.4" rx="18" ry="18"/>
<text text-anchor="middle" x="114" y="-72.7" font-family="Helvetica,sans-Serif" font-size="14.00">C</text>
</g>
<!-- 4574309808&#45;&gt;4574300976 -->
<g id="edge12" class="edge">
<title>4574309808&#45;&gt;4574300976</title>
<path fill="none" stroke="black" d="M77.38,-120.13C83.95,-112.45 92.29,-102.72 99.36,-94.48"/>
<polygon fill="black" stroke="black" points="100.78,-95.51 102.71,-90.57 98.12,-93.23 100.78,-95.51"/>
</g>
<!-- 4574314416 -->
<g id="node17" class="node">
<title>4574314416</title>
<ellipse fill="lightblue" stroke="black" cx="179" cy="-76.4" rx="18" ry="18"/>
<text text-anchor="middle" x="179" y="-72.7" font-family="Helvetica,sans-Serif" font-size="14.00">H</text>
</g>
<!-- 4574311152&#45;&gt;4574314416 -->
<g id="edge16" class="edge">
<title>4574311152&#45;&gt;4574314416</title>
<path fill="none" stroke="black" d="M215.62,-120.13C209.05,-112.45 200.71,-102.72 193.64,-94.48"/>
<polygon fill="black" stroke="black" points="194.88,-93.23 190.29,-90.57 192.22,-95.51 194.88,-93.23"/>
</g>
<!-- 22084 -->
<!-- 4574311152&#45;&gt;22084 -->
<!-- 4574313984 -->
<g id="node19" class="node">
<title>4574313984</title>
<ellipse fill="lightblue" stroke="black" cx="275" cy="-76.4" rx="18" ry="18"/>
<text text-anchor="middle" x="275" y="-72.7" font-family="Helvetica,sans-Serif" font-size="14.00">K</text>
</g>
<!-- 4574311152&#45;&gt;4574313984 -->
<g id="edge18" class="edge">
<title>4574311152&#45;&gt;4574313984</title>
<path fill="none" stroke="black" d="M238.38,-120.13C244.95,-112.45 253.29,-102.72 260.36,-94.48"/>
<polygon fill="black" stroke="black" points="261.78,-95.51 263.71,-90.57 259.12,-93.23 261.78,-95.51"/>
</g>
<!-- 4574692752 -->
<g id="node14" class="node">
<title>4574692752</title>
<ellipse fill="lightblue" stroke="black" cx="66" cy="-18.2" rx="18" ry="18"/>
<text text-anchor="middle" x="66" y="-14.5" font-family="Helvetica,sans-Serif" font-size="14.00">B</text>
</g>
<!-- 4574300976&#45;&gt;4574692752 -->
<g id="edge13" class="edge">
<title>4574300976&#45;&gt;4574692752</title>
<path fill="none" stroke="black" d="M102.62,-62.08C96.05,-54.38 87.71,-44.61 80.64,-36.34"/>
<polygon fill="black" stroke="black" points="81.87,-35.09 77.29,-32.42 79.21,-37.36 81.87,-35.09"/>
</g>
<!-- 890989 -->
<!-- 4574300976&#45;&gt;890989 -->
<!-- 195280 -->
<!-- 4574300976&#45;&gt;195280 -->
<!-- 134248 -->
<!-- 4574313984&#45;&gt;134248 -->
<!-- 221583 -->
<!-- 4574313984&#45;&gt;221583 -->
<!-- 4574310624 -->
<g id="node22" class="node">
<title>4574310624</title>
<ellipse fill="lightblue" stroke="black" cx="323" cy="-18.2" rx="18" ry="18"/>
<text text-anchor="middle" x="323" y="-14.5" font-family="Helvetica,sans-Serif" font-size="14.00">L</text>
</g>
<!-- 4574313984&#45;&gt;4574310624 -->
<g id="edge21" class="edge">
<title>4574313984&#45;&gt;4574310624</title>
<path fill="none" stroke="black" d="M286.38,-62.08C292.95,-54.38 301.29,-44.61 308.36,-36.34"/>
<polygon fill="black" stroke="black" points="309.79,-37.36 311.71,-32.42 307.13,-35.09 309.79,-37.36"/>
</g>
<!-- 4574311056 -->
<g id="node26" class="node">
<title>4574311056</title>
<ellipse fill="lightblue" stroke="black" cx="436" cy="-76.4" rx="18" ry="18"/>
<text text-anchor="middle" x="436" y="-72.7" font-family="Helvetica,sans-Serif" font-size="14.00">P</text>
</g>
<!-- 4574298720&#45;&gt;4574311056 -->
<g id="edge25" class="edge">
<title>4574298720&#45;&gt;4574311056</title>
<path fill="none" stroke="black" d="M472.62,-120.13C466.05,-112.45 457.71,-102.72 450.64,-94.48"/>
<polygon fill="black" stroke="black" points="451.88,-93.23 447.29,-90.57 449.22,-95.51 451.88,-93.23"/>
</g>
<!-- 983826 -->
<!-- 4574298720&#45;&gt;983826 -->
<!-- 433788 -->
<!-- 4574298720&#45;&gt;433788 -->
<!-- 104974 -->
<!-- 4574311056&#45;&gt;104974 -->
<!-- 118263 -->
<!-- 4574311056&#45;&gt;118263 -->
<!-- 4574693568 -->
<g id="node31" class="node">
<title>4574693568</title>
<ellipse fill="lightblue" stroke="black" cx="484" cy="-18.2" rx="18.4" ry="18.4"/>
<text text-anchor="middle" x="484" y="-14.5" font-family="Helvetica,sans-Serif" font-size="14.00">Q</text>
</g>
<!-- 4574311056&#45;&gt;4574693568 -->
<g id="edge30" class="edge">
<title>4574311056&#45;&gt;4574693568</title>
<path fill="none" stroke="black" d="M447.38,-62.08C453.86,-54.49 462.05,-44.89 469.05,-36.7"/>
<polygon fill="black" stroke="black" points="470.46,-37.75 472.37,-32.81 467.79,-35.48 470.46,-37.75"/>
</g>
</g>
</svg>
