<?xml version="1.0" encoding="UTF-8" standalone="no"?>
<!DOCTYPE svg PUBLIC "-//W3C//DTD SVG 1.1//EN"
 "http://www.w3.org/Graphics/SVG/1.1/DTD/svg11.dtd">
<!-- Generated by graphviz version 2.50.0 (0)
 -->
<!-- Pages: 1 -->
<svg width="673pt" height="339pt"
 viewBox="0.00 0.00 673.50 338.69" xmlns="http://www.w3.org/2000/svg" xmlns:xlink="http://www.w3.org/1999/xlink">
<g id="graph0" class="graph" transform="scale(1 1) rotate(0) translate(4 334.69)">
<polygon fill="white" stroke="transparent" points="-4,4 -4,-334.69 669.5,-334.69 669.5,4 -4,4"/>
<!-- 4573819536 -->
<g id="node1" class="node">
<title>4573819536</title>
<ellipse fill="lightblue" stroke="black" cx="355" cy="-312.69" rx="18" ry="18"/>
<text text-anchor="middle" x="355" y="-308.99" font-family="Helvetica,sans-Serif" font-size="14.00">X</text>
</g>
<!-- 4574308272 -->
<g id="node2" class="node">
<title>4574308272</title>
<ellipse fill="lightblue" stroke="black" cx="307" cy="-254.69" rx="18" ry="18"/>
<text text-anchor="middle" x="307" y="-250.99" font-family="Helvetica,sans-Serif" font-size="14.00">I</text>
</g>
<!-- 4573819536&#45;&gt;4574308272 -->
<g id="edge1" class="edge">
<title>4573819536&#45;&gt;4574308272</title>
<path fill="none" stroke="black" d="M343.62,-298.42C337.05,-290.75 328.71,-281.02 321.64,-272.78"/>
<polygon fill="black" stroke="black" points="322.88,-271.53 318.29,-268.87 320.22,-273.8 322.88,-271.53"/>
</g>
<!-- 834049 -->
<!-- 4573819536&#45;&gt;834049 -->
<!-- 902609 -->
<!-- 4573819536&#45;&gt;902609 -->
<!-- 4574310624 -->
<g id="node5" class="node">
<title>4574310624</title>
<ellipse fill="lightblue" stroke="black" cx="179" cy="-196.69" rx="18" ry="18"/>
<text text-anchor="middle" x="179" y="-192.99" font-family="Helvetica,sans-Serif" font-size="14.00">F</text>
</g>
<!-- 4574308272&#45;&gt;4574310624 -->
<g id="edge4" class="edge">
<title>4574308272&#45;&gt;4574310624</title>
<path fill="none" stroke="black" d="M290.79,-246.6C267.83,-236.56 225.82,-218.18 200.35,-207.03"/>
<polygon fill="black" stroke="black" points="200.77,-205.31 195.48,-204.9 199.36,-208.51 200.77,-205.31"/>
</g>
<!-- 246474 -->
<!-- 4574308272&#45;&gt;246474 -->
<!-- 4574304864 -->
<g id="node7" class="node">
<title>4574304864</title>
<ellipse fill="lightblue" stroke="black" cx="436" cy="-196.69" rx="18" ry="18"/>
<text text-anchor="middle" x="436" y="-192.99" font-family="Helvetica,sans-Serif" font-size="14.00">R</text>
</g>
<!-- 4574308272&#45;&gt;4574304864 -->
<g id="edge6" class="edge">
<title>4574308272&#45;&gt;4574304864</title>
<path fill="none" stroke="black" d="M323.34,-246.6C346.6,-236.5 389.28,-217.97 414.91,-206.85"/>
<polygon fill="black" stroke="black" points="415.91,-208.32 419.79,-204.73 414.51,-205.11 415.91,-208.32"/>
</g>
<!-- 4574307648 -->
<g id="node8" class="node">
<title>4574307648</title>
<ellipse fill="lightblue" stroke="black" cx="66" cy="-137.84" rx="18" ry="18"/>
<text text-anchor="middle" x="66" y="-134.14" font-family="Helvetica,sans-Serif" font-size="14.00">A</text>
</g>
<!-- 4574310624&#45;&gt;4574307648 -->
<g id="edge7" class="edge">
<title>4574310624&#45;&gt;4574307648</title>
<path fill="none" stroke="black" d="M163.29,-187.79C143.25,-177.71 108.54,-160.25 86.45,-149.14"/>
<polygon fill="black" stroke="black" points="87.2,-147.55 81.94,-146.87 85.62,-150.68 87.2,-147.55"/>
</g>
<!-- 991672 -->
<!-- 4574310624&#45;&gt;991672 -->
<!-- 4574300544 -->
<g id="node10" class="node">
<title>4574300544</title>
<ellipse fill="lightblue" stroke="black" cx="227" cy="-137.84" rx="18.4" ry="18.4"/>
<text text-anchor="middle" x="227" y="-134.14" font-family="Helvetica,sans-Serif" font-size="14.00">G</text>
</g>
<!-- 4574310624&#45;&gt;4574300544 -->
<g id="edge9" class="edge">
<title>4574310624&#45;&gt;4574300544</title>
<path fill="none" stroke="black" d="M190.13,-182.51C196.7,-174.73 205.1,-164.79 212.22,-156.35"/>
<polygon fill="black" stroke="black" points="213.71,-157.3 215.59,-152.35 211.03,-155.04 213.71,-157.3"/>
</g>
<!-- 4574298720 -->
<g id="node17" class="node">
<title>4574298720</title>
<ellipse fill="lightblue" stroke="black" cx="388" cy="-137.84" rx="18.7" ry="18.7"/>
<text text-anchor="middle" x="388" y="-134.14" font-family="Helvetica,sans-Serif" font-size="14.00">M</text>
</g>
<!-- 4574304864&#45;&gt;4574298720 -->
<g id="edge16" class="edge">
<title>4574304864&#45;&gt;4574298720</title>
<path fill="none" stroke="black" d="M424.87,-182.51C418.39,-174.84 410.15,-165.07 403.09,-156.72"/>
<polygon fill="black" stroke="black" points="404.3,-155.44 399.74,-152.75 401.63,-157.7 404.3,-155.44"/>
</g>
<!-- 903344 -->
<!-- 4574304864&#45;&gt;903344 -->
<!-- 4574300976 -->
<g id="node19" class="node">
<title>4574300976</title>
<ellipse fill="lightblue" stroke="black" cx="549" cy="-137.84" rx="18" ry="18"/>
<text text-anchor="middle" x="549" y="-134.14" font-family="Helvetica,sans-Serif" font-size="14.00">S</text>
</g>
<!-- 4574304864&#45;&gt;4574300976 -->
<g id="edge18" class="edge">
<title>4574304864&#45;&gt;4574300976</title>
<path fill="none" stroke="black" d="M451.71,-187.79C471.75,-177.71 506.46,-160.25 528.55,-149.14"/>
<polygon fill="black" stroke="black" points="529.38,-150.68 533.06,-146.87 527.8,-147.55 529.38,-150.68"/>
</g>
<!-- 344189 -->
<!-- 4574307648&#45;&gt;344189 -->
<!-- 836090 -->
<!-- 4574307648&#45;&gt;836090 -->
<!-- 4574313792 -->
<g id="node13" class="node">
<title>4574313792</title>
<ellipse fill="lightblue" stroke="black" cx="114" cy="-79" rx="18" ry="18"/>
<text text-anchor="middle" x="114" y="-75.3" font-family="Helvetica,sans-Serif" font-size="14.00">C</text>
</g>
<!-- 4574307648&#45;&gt;4574313792 -->
<g id="edge12" class="edge">
<title>4574307648&#45;&gt;4574313792</title>
<path fill="none" stroke="black" d="M77.13,-123.66C83.7,-115.88 92.1,-105.94 99.22,-97.51"/>
<polygon fill="black" stroke="black" points="100.71,-98.45 102.59,-93.5 98.03,-96.2 100.71,-98.45"/>
</g>
<!-- 92115 -->
<!-- 4574300544&#45;&gt;92115 -->
<!-- 576735 -->
<!-- 4574300544&#45;&gt;576735 -->
<!-- 4574309472 -->
<g id="node16" class="node">
<title>4574309472</title>
<ellipse fill="lightblue" stroke="black" cx="275" cy="-79" rx="18" ry="18"/>
<text text-anchor="middle" x="275" y="-75.3" font-family="Helvetica,sans-Serif" font-size="14.00">H</text>
</g>
<!-- 4574300544&#45;&gt;4574309472 -->
<g id="edge15" class="edge">
<title>4574300544&#45;&gt;4574309472</title>
<path fill="none" stroke="black" d="M238.38,-123.37C244.95,-115.58 253.29,-105.7 260.36,-97.34"/>
<polygon fill="black" stroke="black" points="261.82,-98.32 263.71,-93.37 259.14,-96.06 261.82,-98.32"/>
</g>
<!-- 447127 -->
<!-- 4574298720&#45;&gt;447127 -->
<!-- 584060 -->
<!-- 4574298720&#45;&gt;584060 -->
<!-- 4574308416 -->
<g id="node22" class="node">
<title>4574308416</title>
<ellipse fill="lightblue" stroke="black" cx="436" cy="-79" rx="18" ry="18"/>
<text text-anchor="middle" x="436" y="-75.3" font-family="Helvetica,sans-Serif" font-size="14.00">P</text>
</g>
<!-- 4574298720&#45;&gt;4574308416 -->
<g id="edge21" class="edge">
<title>4574298720&#45;&gt;4574308416</title>
<path fill="none" stroke="black" d="M399.87,-122.79C406.35,-115.11 414.45,-105.52 421.33,-97.37"/>
<polygon fill="black" stroke="black" points="422.71,-98.45 424.6,-93.5 420.04,-96.19 422.71,-98.45"/>
</g>
<!-- 617827 -->
<!-- 4574300976&#45;&gt;617827 -->
<!-- 786051 -->
<!-- 4574300976&#45;&gt;786051 -->
<!-- 4574340944 -->
<g id="node28" class="node">
<title>4574340944</title>
<ellipse fill="lightblue" stroke="black" cx="597" cy="-79" rx="18" ry="18"/>
<text text-anchor="middle" x="597" y="-75.3" font-family="Helvetica,sans-Serif" font-size="14.00">T</text>
</g>
<!-- 4574300976&#45;&gt;4574340944 -->
<g id="edge27" class="edge">
<title>4574300976&#45;&gt;4574340944</title>
<path fill="none" stroke="black" d="M560.13,-123.66C566.7,-115.88 575.1,-105.94 582.22,-97.51"/>
<polygon fill="black" stroke="black" points="583.71,-98.45 585.59,-93.5 581.03,-96.2 583.71,-98.45"/>
</g>
<!-- 4574692752 -->
<g id="node23" class="node">
<title>4574692752</title>
<ellipse fill="lightblue" stroke="black" cx="388" cy="-19.5" rx="18" ry="18"/>
<text text-anchor="middle" x="388" y="-15.8" font-family="Helvetica,sans-Serif" font-size="14.00">N</text>
</g>
<!-- 4574308416&#45;&gt;4574692752 -->
<g id="edge22" class="edge">
<title>4574308416&#45;&gt;4574692752</title>
<path fill="none" stroke="black" d="M424.87,-64.66C418.2,-56.68 409.66,-46.44 402.48,-37.84"/>
<polygon fill="black" stroke="black" points="403.62,-36.48 399.07,-33.76 400.93,-38.72 403.62,-36.48"/>
</g>
<!-- 87441 -->
<!-- 4574308416&#45;&gt;87441 -->
<!-- 4574692272 -->
<g id="node25" class="node">
<title>4574692272</title>
<ellipse fill="lightblue" stroke="black" cx="484" cy="-19.5" rx="18.4" ry="18.4"/>
<text text-anchor="middle" x="484" y="-15.8" font-family="Helvetica,sans-Serif" font-size="14.00">Q</text>
</g>
<!-- 4574308416&#45;&gt;4574692272 -->
<g id="edge24" class="edge">
<title>4574308416&#45;&gt;4574692272</title>
<path fill="none" stroke="black" d="M447.13,-64.66C453.7,-56.79 462.1,-46.74 469.22,-38.21"/>
<polygon fill="black" stroke="black" points="470.73,-39.12 472.59,-34.16 468.05,-36.88 470.73,-39.12"/>
</g>
<!-- 825638 -->
<!-- 4574340944&#45;&gt;825638 -->
<!-- 772396 -->
<!-- 4574340944&#45;&gt;772396 -->
<!-- 4574693808 -->
<g id="node31" class="node">
<title>4574693808</title>
<ellipse fill="lightblue" stroke="black" cx="646" cy="-19.5" rx="19.5" ry="19.5"/>
<text text-anchor="middle" x="646" y="-15.8" font-family="Helvetica,sans-Serif" font-size="14.00">W</text>
</g>
<!-- 4574340944&#45;&gt;4574693808 -->
<g id="edge30" class="edge">
<title>4574340944&#45;&gt;4574693808</title>
<path fill="none" stroke="black" d="M608.36,-64.66C614.88,-57.02 623.14,-47.32 630.27,-38.95"/>
<polygon fill="black" stroke="black" points="631.76,-39.91 633.67,-34.97 629.09,-37.64 631.76,-39.91"/>
</g>
</g>
</svg>
