<?xml version="1.0" encoding="UTF-8" standalone="no"?>
<!DOCTYPE svg PUBLIC "-//W3C//DTD SVG 1.1//EN"
 "http://www.w3.org/Graphics/SVG/1.1/DTD/svg11.dtd">
<!-- Generated by graphviz version 2.50.0 (0)
 -->
<!-- Pages: 1 -->
<svg width="314pt" height="436pt"
 viewBox="0.00 0.00 314.00 435.58" xmlns="http://www.w3.org/2000/svg" xmlns:xlink="http://www.w3.org/1999/xlink">
<g id="graph0" class="graph" transform="scale(1 1) rotate(0) translate(4 431.58)">
<polygon fill="white" stroke="transparent" points="-4,4 -4,-431.58 310,-431.58 310,4 -4,4"/>
<!-- 4627581600 -->
<g id="node1" class="node">
<title>4627581600</title>
<ellipse fill="lightblue" stroke="black" cx="153" cy="-404.18" rx="23.3" ry="23.3"/>
<text text-anchor="middle" x="153" y="-400.48" font-family="Helvetica,sans-Serif" font-size="14.00">&#45;12</text>
</g>
<!-- 4627591776 -->
<g id="node2" class="node">
<title>4627591776</title>
<ellipse fill="lightblue" stroke="black" cx="66" cy="-335.39" rx="23.3" ry="23.3"/>
<text text-anchor="middle" x="66" y="-331.69" font-family="Helvetica,sans-Serif" font-size="14.00">&#45;16</text>
</g>
<!-- 4627581600&#45;&gt;4627591776 -->
<g id="edge1" class="edge">
<title>4627581600&#45;&gt;4627591776</title>
<path fill="none" stroke="black" d="M134.55,-389.02C121.08,-378.67 102.75,-364.6 88.43,-353.61"/>
<polygon fill="black" stroke="black" points="89.16,-351.96 84.13,-350.3 87.03,-354.74 89.16,-351.96"/>
</g>
<!-- 220153 -->
<!-- 4627581600&#45;&gt;220153 -->
<!-- 4627871024 -->
<g id="node4" class="node">
<title>4627871024</title>
<ellipse fill="lightblue" stroke="black" cx="238" cy="-335.39" rx="20.6" ry="20.6"/>
<text text-anchor="middle" x="238" y="-331.69" font-family="Helvetica,sans-Serif" font-size="14.00">16</text>
</g>
<!-- 4627581600&#45;&gt;4627871024 -->
<g id="edge3" class="edge">
<title>4627581600&#45;&gt;4627871024</title>
<path fill="none" stroke="black" d="M171.03,-389.02C184.72,-378.26 203.55,-363.46 217.76,-352.3"/>
<polygon fill="black" stroke="black" points="219.16,-353.42 222.01,-348.96 216.99,-350.67 219.16,-353.42"/>
</g>
<!-- 98418 -->
<!-- 4627591776&#45;&gt;98418 -->
<!-- 511554 -->
<!-- 4627591776&#45;&gt;511554 -->
<!-- 4628137936 -->
<g id="node7" class="node">
<title>4628137936</title>
<ellipse fill="lightblue" stroke="black" cx="119" cy="-266.59" rx="23.3" ry="23.3"/>
<text text-anchor="middle" x="119" y="-262.89" font-family="Helvetica,sans-Serif" font-size="14.00">&#45;13</text>
</g>
<!-- 4627591776&#45;&gt;4628137936 -->
<g id="edge6" class="edge">
<title>4627591776&#45;&gt;4628137936</title>
<path fill="none" stroke="black" d="M80.2,-316.49C86.74,-308.25 94.55,-298.4 101.45,-289.7"/>
<polygon fill="black" stroke="black" points="103.02,-290.54 104.76,-285.54 100.28,-288.37 103.02,-290.54"/>
</g>
<!-- 4628149552 -->
<g id="node8" class="node">
<title>4628149552</title>
<ellipse fill="lightblue" stroke="black" cx="190" cy="-266.59" rx="18.7" ry="18.7"/>
<text text-anchor="middle" x="190" y="-262.89" font-family="Helvetica,sans-Serif" font-size="14.00">&#45;4</text>
</g>
<!-- 4627871024&#45;&gt;4628149552 -->
<g id="edge7" class="edge">
<title>4627871024&#45;&gt;4628149552</title>
<path fill="none" stroke="black" d="M226.13,-317.88C219.33,-308.41 210.77,-296.49 203.68,-286.63"/>
<polygon fill="black" stroke="black" points="205.08,-285.58 200.75,-282.54 202.24,-287.63 205.08,-285.58"/>
</g>
<!-- 29724 -->
<!-- 4627871024&#45;&gt;29724 -->
<!-- 936710 -->
<!-- 4627871024&#45;&gt;936710 -->
<!-- 876363 -->
<!-- 4628149552&#45;&gt;876363 -->
<!-- 408744 -->
<!-- 4628149552&#45;&gt;408744 -->
<!-- 4628144368 -->
<g id="node13" class="node">
<title>4628144368</title>
<ellipse fill="lightblue" stroke="black" cx="240" cy="-200.39" rx="20.6" ry="20.6"/>
<text text-anchor="middle" x="240" y="-196.69" font-family="Helvetica,sans-Serif" font-size="14.00">11</text>
</g>
<!-- 4628149552&#45;&gt;4628144368 -->
<g id="edge12" class="edge">
<title>4628149552&#45;&gt;4628144368</title>
<path fill="none" stroke="black" d="M201.1,-251.34C207.94,-242.55 216.83,-231.14 224.38,-221.45"/>
<polygon fill="black" stroke="black" points="225.84,-222.43 227.53,-217.41 223.07,-220.28 225.84,-222.43"/>
</g>
<!-- 4628144752 -->
<g id="node14" class="node">
<title>4628144752</title>
<ellipse fill="lightblue" stroke="black" cx="192" cy="-139.6" rx="18" ry="18"/>
<text text-anchor="middle" x="192" y="-135.9" font-family="Helvetica,sans-Serif" font-size="14.00">8</text>
</g>
<!-- 4628144368&#45;&gt;4628144752 -->
<g id="edge13" class="edge">
<title>4628144368&#45;&gt;4628144752</title>
<path fill="none" stroke="black" d="M227.14,-183.64C220.76,-175.83 213.04,-166.37 206.47,-158.32"/>
<polygon fill="black" stroke="black" points="207.46,-156.77 202.94,-154 204.75,-158.98 207.46,-156.77"/>
</g>
<!-- 453789 -->
<!-- 4628144368&#45;&gt;453789 -->
<!-- 636944 -->
<!-- 4628144368&#45;&gt;636944 -->
<!-- 4628140912 -->
<g id="node17" class="node">
<title>4628140912</title>
<ellipse fill="lightblue" stroke="black" cx="144" cy="-78.8" rx="18" ry="18"/>
<text text-anchor="middle" x="144" y="-75.1" font-family="Helvetica,sans-Serif" font-size="14.00">4</text>
</g>
<!-- 4628144752&#45;&gt;4628140912 -->
<g id="edge16" class="edge">
<title>4628144752&#45;&gt;4628140912</title>
<path fill="none" stroke="black" d="M181.11,-125.25C174.45,-117.1 165.86,-106.57 158.61,-97.7"/>
<polygon fill="black" stroke="black" points="159.7,-96.26 155.18,-93.5 156.99,-98.48 159.7,-96.26"/>
</g>
<!-- 799308 -->
<!-- 4628144752&#45;&gt;799308 -->
<!-- 4628136352 -->
<g id="node19" class="node">
<title>4628136352</title>
<ellipse fill="lightblue" stroke="black" cx="242" cy="-78.8" rx="20.6" ry="20.6"/>
<text text-anchor="middle" x="242" y="-75.1" font-family="Helvetica,sans-Serif" font-size="14.00">10</text>
</g>
<!-- 4628144752&#45;&gt;4628136352 -->
<g id="edge18" class="edge">
<title>4628144752&#45;&gt;4628136352</title>
<path fill="none" stroke="black" d="M203.35,-125.25C209.88,-117.57 218.22,-107.77 225.47,-99.24"/>
<polygon fill="black" stroke="black" points="227.03,-100.11 228.93,-95.17 224.36,-97.84 227.03,-100.11"/>
</g>
<!-- 804423 -->
<!-- 4628140912&#45;&gt;804423 -->
<!-- 2208 -->
<!-- 4628140912&#45;&gt;2208 -->
<!-- 4628138704 -->
<g id="node22" class="node">
<title>4628138704</title>
<ellipse fill="lightblue" stroke="black" cx="192" cy="-18" rx="18" ry="18"/>
<text text-anchor="middle" x="192" y="-14.3" font-family="Helvetica,sans-Serif" font-size="14.00">5</text>
</g>
<!-- 4628140912&#45;&gt;4628138704 -->
<g id="edge21" class="edge">
<title>4628140912&#45;&gt;4628138704</title>
<path fill="none" stroke="black" d="M154.89,-64.46C161.55,-56.3 170.14,-45.77 177.39,-36.9"/>
<polygon fill="black" stroke="black" points="179.01,-37.68 180.82,-32.7 176.3,-35.46 179.01,-37.68"/>
</g>
</g>
</svg>
