<?xml version="1.0" encoding="UTF-8" standalone="no"?>
<!DOCTYPE svg PUBLIC "-//W3C//DTD SVG 1.1//EN"
 "http://www.w3.org/Graphics/SVG/1.1/DTD/svg11.dtd">
<!-- Generated by graphviz version 2.50.0 (0)
 -->
<!-- Pages: 1 -->
<svg width="527pt" height="250pt"
 viewBox="0.00 0.00 527.20 250.39" xmlns="http://www.w3.org/2000/svg" xmlns:xlink="http://www.w3.org/1999/xlink">
<g id="graph0" class="graph" transform="scale(1 1) rotate(0) translate(4 246.39)">
<polygon fill="white" stroke="transparent" points="-4,4 -4,-246.39 523.2,-246.39 523.2,4 -4,4"/>
<!-- 4628139472 -->
<g id="node1" class="node">
<title>4628139472</title>
<ellipse fill="lightblue" stroke="black" cx="320.4" cy="-224.39" rx="18" ry="18"/>
<text text-anchor="middle" x="320.4" y="-220.69" font-family="Helvetica,sans-Serif" font-size="14.00">8</text>
</g>
<!-- 4628137936 -->
<g id="node2" class="node">
<title>4628137936</title>
<ellipse fill="lightblue" stroke="black" cx="189.4" cy="-160.99" rx="23.3" ry="23.3"/>
<text text-anchor="middle" x="189.4" y="-157.29" font-family="Helvetica,sans-Serif" font-size="14.00">&#45;10</text>
</g>
<!-- 4628139472&#45;&gt;4628137936 -->
<g id="edge1" class="edge">
<title>4628139472&#45;&gt;4628137936</title>
<path fill="none" stroke="black" d="M304.33,-215.86C282.08,-205.43 241.62,-186.47 215.13,-174.05"/>
<polygon fill="black" stroke="black" points="215.62,-172.35 210.35,-171.81 214.14,-175.52 215.62,-172.35"/>
</g>
<!-- 509847 -->
<!-- 4628139472&#45;&gt;509847 -->
<!-- 4628148112 -->
<g id="node4" class="node">
<title>4628148112</title>
<ellipse fill="lightblue" stroke="black" cx="448.4" cy="-160.99" rx="20.6" ry="20.6"/>
<text text-anchor="middle" x="448.4" y="-157.29" font-family="Helvetica,sans-Serif" font-size="14.00">18</text>
</g>
<!-- 4628139472&#45;&gt;4628148112 -->
<g id="edge3" class="edge">
<title>4628139472&#45;&gt;4628148112</title>
<path fill="none" stroke="black" d="M336.35,-215.74C358.68,-205.02 399.41,-185.49 425.13,-173.15"/>
<polygon fill="black" stroke="black" points="426,-174.67 429.75,-170.93 424.49,-171.52 426,-174.67"/>
</g>
<!-- 4628137456 -->
<g id="node5" class="node">
<title>4628137456</title>
<ellipse fill="lightblue" stroke="black" cx="76.4" cy="-92.19" rx="23.3" ry="23.3"/>
<text text-anchor="middle" x="76.4" y="-88.49" font-family="Helvetica,sans-Serif" font-size="14.00">&#45;14</text>
</g>
<!-- 4628137936&#45;&gt;4628137456 -->
<g id="edge4" class="edge">
<title>4628137936&#45;&gt;4628137456</title>
<path fill="none" stroke="black" d="M169.46,-148.2C150.25,-136.85 121.18,-119.66 100.64,-107.53"/>
<polygon fill="black" stroke="black" points="101.34,-105.9 96.14,-104.86 99.55,-108.91 101.34,-105.9"/>
</g>
<!-- 640640 -->
<!-- 4628137936&#45;&gt;640640 -->
<!-- 4628152096 -->
<g id="node7" class="node">
<title>4628152096</title>
<ellipse fill="lightblue" stroke="black" cx="237.4" cy="-92.19" rx="18.7" ry="18.7"/>
<text text-anchor="middle" x="237.4" y="-88.49" font-family="Helvetica,sans-Serif" font-size="14.00">&#45;8</text>
</g>
<!-- 4628137936&#45;&gt;4628152096 -->
<g id="edge6" class="edge">
<title>4628137936&#45;&gt;4628152096</title>
<path fill="none" stroke="black" d="M202.77,-141.38C209.25,-132.36 217.03,-121.53 223.58,-112.43"/>
<polygon fill="black" stroke="black" points="225.18,-113.19 226.68,-108.11 222.34,-111.15 225.18,-113.19"/>
</g>
<!-- 4628142592 -->
<g id="node14" class="node">
<title>4628142592</title>
<ellipse fill="lightblue" stroke="black" cx="398.4" cy="-92.19" rx="20.6" ry="20.6"/>
<text text-anchor="middle" x="398.4" y="-88.49" font-family="Helvetica,sans-Serif" font-size="14.00">13</text>
</g>
<!-- 4628148112&#45;&gt;4628142592 -->
<g id="edge13" class="edge">
<title>4628148112&#45;&gt;4628142592</title>
<path fill="none" stroke="black" d="M436.29,-143.82C429.42,-134.63 420.74,-123.05 413.43,-113.28"/>
<polygon fill="black" stroke="black" points="414.79,-112.17 410.39,-109.21 411.99,-114.27 414.79,-112.17"/>
</g>
<!-- 103457 -->
<!-- 4628148112&#45;&gt;103457 -->
<!-- 4628139760 -->
<g id="node16" class="node">
<title>4628139760</title>
<ellipse fill="lightblue" stroke="black" cx="498.4" cy="-92.19" rx="20.6" ry="20.6"/>
<text text-anchor="middle" x="498.4" y="-88.49" font-family="Helvetica,sans-Serif" font-size="14.00">19</text>
</g>
<!-- 4628148112&#45;&gt;4628139760 -->
<g id="edge15" class="edge">
<title>4628148112&#45;&gt;4628139760</title>
<path fill="none" stroke="black" d="M460.5,-143.82C467.38,-134.63 476.05,-123.05 483.36,-113.28"/>
<polygon fill="black" stroke="black" points="484.81,-114.27 486.41,-109.21 482.01,-112.17 484.81,-114.27"/>
</g>
<!-- 4628139088 -->
<g id="node8" class="node">
<title>4628139088</title>
<ellipse fill="lightblue" stroke="black" cx="23.4" cy="-23.4" rx="23.3" ry="23.3"/>
<text text-anchor="middle" x="23.4" y="-19.7" font-family="Helvetica,sans-Serif" font-size="14.00">&#45;19</text>
</g>
<!-- 4628137456&#45;&gt;4628139088 -->
<g id="edge7" class="edge">
<title>4628137456&#45;&gt;4628139088</title>
<path fill="none" stroke="black" d="M62.19,-73.29C55.66,-65.06 47.84,-55.21 40.94,-46.51"/>
<polygon fill="black" stroke="black" points="42.12,-45.18 37.64,-42.35 39.38,-47.35 42.12,-45.18"/>
</g>
<!-- 404214 -->
<!-- 4628137456&#45;&gt;404214 -->
<!-- 708822 -->
<!-- 4628137456&#45;&gt;708822 -->
<!-- 18343 -->
<!-- 4628152096&#45;&gt;18343 -->
<!-- 958154 -->
<!-- 4628152096&#45;&gt;958154 -->
<!-- 4628141008 -->
<g id="node13" class="node">
<title>4628141008</title>
<ellipse fill="lightblue" stroke="black" cx="285.4" cy="-23.4" rx="18" ry="18"/>
<text text-anchor="middle" x="285.4" y="-19.7" font-family="Helvetica,sans-Serif" font-size="14.00">1</text>
</g>
<!-- 4628152096&#45;&gt;4628141008 -->
<g id="edge12" class="edge">
<title>4628152096&#45;&gt;4628141008</title>
<path fill="none" stroke="black" d="M248.05,-76.37C255.17,-66.46 264.59,-53.36 272.18,-42.78"/>
<polygon fill="black" stroke="black" points="273.61,-43.8 275.1,-38.72 270.77,-41.76 273.61,-43.8"/>
</g>
<!-- 712490 -->
<!-- 4628142592&#45;&gt;712490 -->
<!-- 211351 -->
<!-- 4628142592&#45;&gt;211351 -->
<!-- 4628148352 -->
<g id="node19" class="node">
<title>4628148352</title>
<ellipse fill="lightblue" stroke="black" cx="448.4" cy="-23.4" rx="20.6" ry="20.6"/>
<text text-anchor="middle" x="448.4" y="-19.7" font-family="Helvetica,sans-Serif" font-size="14.00">16</text>
</g>
<!-- 4628142592&#45;&gt;4628148352 -->
<g id="edge18" class="edge">
<title>4628142592&#45;&gt;4628148352</title>
<path fill="none" stroke="black" d="M410.5,-75.02C417.38,-65.84 426.05,-54.25 433.36,-44.48"/>
<polygon fill="black" stroke="black" points="434.81,-45.47 436.41,-40.42 432.01,-43.37 434.81,-45.47"/>
</g>
</g>
</svg>
