<?xml version="1.0" encoding="UTF-8" standalone="no"?>
<!DOCTYPE svg PUBLIC "-//W3C//DTD SVG 1.1//EN"
 "http://www.w3.org/Graphics/SVG/1.1/DTD/svg11.dtd">
<!-- Generated by graphviz version 2.50.0 (0)
 -->
<!-- Pages: 1 -->
<svg width="625pt" height="339pt"
 viewBox="0.00 0.00 625.00 339.09" xmlns="http://www.w3.org/2000/svg" xmlns:xlink="http://www.w3.org/1999/xlink">
<g id="graph0" class="graph" transform="scale(1 1) rotate(0) translate(4 335.09)">
<polygon fill="white" stroke="transparent" points="-4,4 -4,-335.09 621,-335.09 621,4 -4,4"/>
<!-- 4574333408 -->
<g id="node1" class="node">
<title>4574333408</title>
<ellipse fill="lightblue" stroke="black" cx="307" cy="-312.24" rx="18.7" ry="18.7"/>
<text text-anchor="middle" x="307" y="-308.54" font-family="Helvetica,sans-Serif" font-size="14.00">M</text>
</g>
<!-- 4574312112 -->
<g id="node2" class="node">
<title>4574312112</title>
<ellipse fill="lightblue" stroke="black" cx="179" cy="-253.39" rx="18" ry="18"/>
<text text-anchor="middle" x="179" y="-249.69" font-family="Helvetica,sans-Serif" font-size="14.00">F</text>
</g>
<!-- 4574333408&#45;&gt;4574312112 -->
<g id="edge1" class="edge">
<title>4574333408&#45;&gt;4574312112</title>
<path fill="none" stroke="black" d="M290,-303.69C266.8,-293.39 225.21,-274.92 200.06,-263.75"/>
<polygon fill="black" stroke="black" points="200.54,-262.04 195.26,-261.61 199.12,-265.24 200.54,-262.04"/>
</g>
<!-- 855241 -->
<!-- 4574333408&#45;&gt;855241 -->
<!-- 4574339552 -->
<g id="node4" class="node">
<title>4574339552</title>
<ellipse fill="lightblue" stroke="black" cx="436" cy="-253.39" rx="18" ry="18"/>
<text text-anchor="middle" x="436" y="-249.69" font-family="Helvetica,sans-Serif" font-size="14.00">U</text>
</g>
<!-- 4574333408&#45;&gt;4574339552 -->
<g id="edge3" class="edge">
<title>4574333408&#45;&gt;4574339552</title>
<path fill="none" stroke="black" d="M323.86,-303.81C347.17,-293.54 389.22,-275.01 414.68,-263.79"/>
<polygon fill="black" stroke="black" points="415.67,-265.27 419.54,-261.65 414.26,-262.06 415.67,-265.27"/>
</g>
<!-- 4574312352 -->
<g id="node5" class="node">
<title>4574312352</title>
<ellipse fill="lightblue" stroke="black" cx="66" cy="-195.19" rx="18" ry="18"/>
<text text-anchor="middle" x="66" y="-191.49" font-family="Helvetica,sans-Serif" font-size="14.00">B</text>
</g>
<!-- 4574312112&#45;&gt;4574312352 -->
<g id="edge4" class="edge">
<title>4574312112&#45;&gt;4574312352</title>
<path fill="none" stroke="black" d="M163.29,-244.58C143.25,-234.61 108.54,-217.35 86.45,-206.37"/>
<polygon fill="black" stroke="black" points="87.2,-204.78 81.94,-204.12 85.64,-207.92 87.2,-204.78"/>
</g>
<!-- 325798 -->
<!-- 4574312112&#45;&gt;325798 -->
<!-- 4574311152 -->
<g id="node7" class="node">
<title>4574311152</title>
<ellipse fill="lightblue" stroke="black" cx="227" cy="-195.19" rx="18.4" ry="18.4"/>
<text text-anchor="middle" x="227" y="-191.49" font-family="Helvetica,sans-Serif" font-size="14.00">G</text>
</g>
<!-- 4574312112&#45;&gt;4574311152 -->
<g id="edge6" class="edge">
<title>4574312112&#45;&gt;4574311152</title>
<path fill="none" stroke="black" d="M190.38,-239.08C196.86,-231.49 205.05,-221.89 212.05,-213.7"/>
<polygon fill="black" stroke="black" points="213.46,-214.75 215.37,-209.81 210.79,-212.47 213.46,-214.75"/>
</g>
<!-- 4574313984 -->
<g id="node23" class="node">
<title>4574313984</title>
<ellipse fill="lightblue" stroke="black" cx="388" cy="-195.19" rx="18" ry="18"/>
<text text-anchor="middle" x="388" y="-191.49" font-family="Helvetica,sans-Serif" font-size="14.00">R</text>
</g>
<!-- 4574339552&#45;&gt;4574313984 -->
<g id="edge22" class="edge">
<title>4574339552&#45;&gt;4574313984</title>
<path fill="none" stroke="black" d="M424.62,-239.08C418.05,-231.38 409.71,-221.61 402.64,-213.34"/>
<polygon fill="black" stroke="black" points="403.87,-212.08 399.29,-209.42 401.21,-214.36 403.87,-212.08"/>
</g>
<!-- 268285 -->
<!-- 4574339552&#45;&gt;268285 -->
<!-- 4574312640 -->
<g id="node25" class="node">
<title>4574312640</title>
<ellipse fill="lightblue" stroke="black" cx="551" cy="-195.19" rx="18" ry="18"/>
<text text-anchor="middle" x="551" y="-191.49" font-family="Helvetica,sans-Serif" font-size="14.00">Y</text>
</g>
<!-- 4574339552&#45;&gt;4574312640 -->
<g id="edge24" class="edge">
<title>4574339552&#45;&gt;4574312640</title>
<path fill="none" stroke="black" d="M451.99,-244.58C472.5,-234.56 508.1,-217.16 530.56,-206.18"/>
<polygon fill="black" stroke="black" points="531.42,-207.71 535.15,-203.94 529.88,-204.57 531.42,-207.71"/>
</g>
<!-- 4574300976 -->
<g id="node8" class="node">
<title>4574300976</title>
<ellipse fill="lightblue" stroke="black" cx="18" cy="-135.5" rx="18" ry="18"/>
<text text-anchor="middle" x="18" y="-131.8" font-family="Helvetica,sans-Serif" font-size="14.00">A</text>
</g>
<!-- 4574312352&#45;&gt;4574300976 -->
<g id="edge7" class="edge">
<title>4574312352&#45;&gt;4574300976</title>
<path fill="none" stroke="black" d="M54.87,-180.81C48.2,-172.8 39.66,-162.53 32.48,-153.9"/>
<polygon fill="black" stroke="black" points="33.62,-152.53 29.07,-149.81 30.92,-154.77 33.62,-152.53"/>
</g>
<!-- 895700 -->
<!-- 4574312352&#45;&gt;895700 -->
<!-- 4574309808 -->
<g id="node10" class="node">
<title>4574309808</title>
<ellipse fill="lightblue" stroke="black" cx="114" cy="-135.5" rx="18" ry="18"/>
<text text-anchor="middle" x="114" y="-131.8" font-family="Helvetica,sans-Serif" font-size="14.00">D</text>
</g>
<!-- 4574312352&#45;&gt;4574309808 -->
<g id="edge9" class="edge">
<title>4574312352&#45;&gt;4574309808</title>
<path fill="none" stroke="black" d="M77.13,-180.81C83.8,-172.8 92.34,-162.53 99.52,-153.9"/>
<polygon fill="black" stroke="black" points="101.08,-154.77 102.93,-149.81 98.38,-152.53 101.08,-154.77"/>
</g>
<!-- 125545 -->
<!-- 4574311152&#45;&gt;125545 -->
<!-- 236913 -->
<!-- 4574311152&#45;&gt;236913 -->
<!-- 4574314416 -->
<g id="node16" class="node">
<title>4574314416</title>
<ellipse fill="lightblue" stroke="black" cx="275" cy="-135.5" rx="18" ry="18"/>
<text text-anchor="middle" x="275" y="-131.8" font-family="Helvetica,sans-Serif" font-size="14.00">H</text>
</g>
<!-- 4574311152&#45;&gt;4574314416 -->
<g id="edge15" class="edge">
<title>4574311152&#45;&gt;4574314416</title>
<path fill="none" stroke="black" d="M238.38,-180.52C244.95,-172.62 253.29,-162.59 260.36,-154.1"/>
<polygon fill="black" stroke="black" points="261.85,-155.04 263.71,-150.07 259.16,-152.8 261.85,-155.04"/>
</g>
<!-- 52575 -->
<!-- 4574309808&#45;&gt;52575 -->
<!-- 318461 -->
<!-- 4574309808&#45;&gt;318461 -->
<!-- 4574310624 -->
<g id="node13" class="node">
<title>4574310624</title>
<ellipse fill="lightblue" stroke="black" cx="162" cy="-76" rx="18" ry="18"/>
<text text-anchor="middle" x="162" y="-72.3" font-family="Helvetica,sans-Serif" font-size="14.00">E</text>
</g>
<!-- 4574309808&#45;&gt;4574310624 -->
<g id="edge12" class="edge">
<title>4574309808&#45;&gt;4574310624</title>
<path fill="none" stroke="black" d="M125.13,-121.16C131.8,-113.18 140.34,-102.95 147.52,-94.34"/>
<polygon fill="black" stroke="black" points="149.07,-95.22 150.93,-90.26 146.38,-92.98 149.07,-95.22"/>
</g>
<!-- 322204 -->
<!-- 4574314416&#45;&gt;322204 -->
<!-- 762165 -->
<!-- 4574314416&#45;&gt;762165 -->
<!-- 4574301840 -->
<g id="node19" class="node">
<title>4574301840</title>
<ellipse fill="lightblue" stroke="black" cx="323" cy="-76" rx="18" ry="18"/>
<text text-anchor="middle" x="323" y="-72.3" font-family="Helvetica,sans-Serif" font-size="14.00">I</text>
</g>
<!-- 4574314416&#45;&gt;4574301840 -->
<g id="edge18" class="edge">
<title>4574314416&#45;&gt;4574301840</title>
<path fill="none" stroke="black" d="M286.13,-121.16C292.8,-113.18 301.34,-102.95 308.52,-94.34"/>
<polygon fill="black" stroke="black" points="310.07,-95.22 311.93,-90.26 307.38,-92.98 310.07,-95.22"/>
</g>
<!-- 999117 -->
<!-- 4574301840&#45;&gt;999117 -->
<!-- 777233 -->
<!-- 4574301840&#45;&gt;777233 -->
<!-- 4574706000 -->
<g id="node22" class="node">
<title>4574706000</title>
<ellipse fill="lightblue" stroke="black" cx="371" cy="-18" rx="18" ry="18"/>
<text text-anchor="middle" x="371" y="-14.3" font-family="Helvetica,sans-Serif" font-size="14.00">L</text>
</g>
<!-- 4574301840&#45;&gt;4574706000 -->
<g id="edge21" class="edge">
<title>4574301840&#45;&gt;4574706000</title>
<path fill="none" stroke="black" d="M334.38,-61.73C340.95,-54.06 349.29,-44.32 356.36,-36.08"/>
<polygon fill="black" stroke="black" points="357.78,-37.11 359.71,-32.18 355.12,-34.83 357.78,-37.11"/>
</g>
<!-- 4574692944 -->
<g id="node26" class="node">
<title>4574692944</title>
<ellipse fill="lightblue" stroke="black" cx="340" cy="-135.5" rx="18.4" ry="18.4"/>
<text text-anchor="middle" x="340" y="-131.8" font-family="Helvetica,sans-Serif" font-size="14.00">O</text>
</g>
<!-- 4574313984&#45;&gt;4574692944 -->
<g id="edge25" class="edge">
<title>4574313984&#45;&gt;4574692944</title>
<path fill="none" stroke="black" d="M376.87,-180.81C370.3,-172.92 361.9,-162.83 354.78,-154.27"/>
<polygon fill="black" stroke="black" points="355.95,-152.93 351.41,-150.21 353.26,-155.17 355.95,-152.93"/>
</g>
<!-- 113232 -->
<!-- 4574313984&#45;&gt;113232 -->
<!-- 323354 -->
<!-- 4574313984&#45;&gt;323354 -->
<!-- 4574693424 -->
<g id="node29" class="node">
<title>4574693424</title>
<ellipse fill="lightblue" stroke="black" cx="502" cy="-135.5" rx="19.5" ry="19.5"/>
<text text-anchor="middle" x="502" y="-131.8" font-family="Helvetica,sans-Serif" font-size="14.00">W</text>
</g>
<!-- 4574312640&#45;&gt;4574693424 -->
<g id="edge28" class="edge">
<title>4574312640&#45;&gt;4574693424</title>
<path fill="none" stroke="black" d="M539.64,-180.81C533.12,-173.15 524.86,-163.41 517.73,-155.02"/>
<polygon fill="black" stroke="black" points="518.9,-153.7 514.33,-151.02 516.24,-155.96 518.9,-153.7"/>
</g>
<!-- 193277 -->
<!-- 4574312640&#45;&gt;193277 -->
<!-- 63080 -->
<!-- 4574312640&#45;&gt;63080 -->
</g>
</svg>
