<?xml version="1.0" encoding="UTF-8" standalone="no"?>
<!DOCTYPE svg PUBLIC "-//W3C//DTD SVG 1.1//EN"
 "http://www.w3.org/Graphics/SVG/1.1/DTD/svg11.dtd">
<!-- Generated by graphviz version 2.50.0 (0)
 -->
<!-- Pages: 1 -->
<svg width="477pt" height="452pt"
 viewBox="0.00 0.00 477.00 452.09" xmlns="http://www.w3.org/2000/svg" xmlns:xlink="http://www.w3.org/1999/xlink">
<g id="graph0" class="graph" transform="scale(1 1) rotate(0) translate(4 448.09)">
<polygon fill="white" stroke="transparent" points="-4,4 -4,-448.09 473,-448.09 473,4 -4,4"/>
<!-- 4573815264 -->
<g id="node1" class="node">
<title>4573815264</title>
<ellipse fill="lightblue" stroke="black" cx="274" cy="-426.09" rx="18" ry="18"/>
<text text-anchor="middle" x="274" y="-422.39" font-family="Helvetica,sans-Serif" font-size="14.00">T</text>
</g>
<!-- 4573820688 -->
<g id="node2" class="node">
<title>4573820688</title>
<ellipse fill="lightblue" stroke="black" cx="146" cy="-368.09" rx="18" ry="18"/>
<text text-anchor="middle" x="146" y="-364.39" font-family="Helvetica,sans-Serif" font-size="14.00">B</text>
</g>
<!-- 4573815264&#45;&gt;4573820688 -->
<g id="edge1" class="edge">
<title>4573815264&#45;&gt;4573820688</title>
<path fill="none" stroke="black" d="M257.79,-418C234.83,-407.96 192.82,-389.58 167.35,-378.43"/>
<polygon fill="black" stroke="black" points="167.77,-376.71 162.48,-376.31 166.36,-379.91 167.77,-376.71"/>
</g>
<!-- 987333 -->
<!-- 4573815264&#45;&gt;987333 -->
<!-- 4573817280 -->
<g id="node4" class="node">
<title>4573817280</title>
<ellipse fill="lightblue" stroke="black" cx="403" cy="-368.09" rx="18" ry="18"/>
<text text-anchor="middle" x="403" y="-364.39" font-family="Helvetica,sans-Serif" font-size="14.00">Y</text>
</g>
<!-- 4573815264&#45;&gt;4573817280 -->
<g id="edge3" class="edge">
<title>4573815264&#45;&gt;4573817280</title>
<path fill="none" stroke="black" d="M290.34,-418C313.6,-407.9 356.28,-389.37 381.91,-378.25"/>
<polygon fill="black" stroke="black" points="382.91,-379.72 386.79,-376.13 381.51,-376.51 382.91,-379.72"/>
</g>
<!-- 4574312592 -->
<g id="node5" class="node">
<title>4574312592</title>
<ellipse fill="lightblue" stroke="black" cx="98" cy="-310.09" rx="18" ry="18"/>
<text text-anchor="middle" x="98" y="-306.39" font-family="Helvetica,sans-Serif" font-size="14.00">A</text>
</g>
<!-- 4573820688&#45;&gt;4574312592 -->
<g id="edge4" class="edge">
<title>4573820688&#45;&gt;4574312592</title>
<path fill="none" stroke="black" d="M134.62,-353.82C128.05,-346.15 119.71,-336.42 112.64,-328.18"/>
<polygon fill="black" stroke="black" points="113.88,-326.93 109.29,-324.27 111.22,-329.2 113.88,-326.93"/>
</g>
<!-- 753025 -->
<!-- 4573820688&#45;&gt;753025 -->
<!-- 4573817664 -->
<g id="node7" class="node">
<title>4573817664</title>
<ellipse fill="lightblue" stroke="black" cx="194" cy="-310.09" rx="18" ry="18"/>
<text text-anchor="middle" x="194" y="-306.39" font-family="Helvetica,sans-Serif" font-size="14.00">S</text>
</g>
<!-- 4573820688&#45;&gt;4573817664 -->
<g id="edge6" class="edge">
<title>4573820688&#45;&gt;4573817664</title>
<path fill="none" stroke="black" d="M157.38,-353.82C163.95,-346.15 172.29,-336.42 179.36,-328.18"/>
<polygon fill="black" stroke="black" points="180.78,-329.2 182.71,-324.27 178.12,-326.93 180.78,-329.2"/>
</g>
<!-- 4574314224 -->
<g id="node26" class="node">
<title>4574314224</title>
<ellipse fill="lightblue" stroke="black" cx="355" cy="-310.09" rx="18" ry="18"/>
<text text-anchor="middle" x="355" y="-306.39" font-family="Helvetica,sans-Serif" font-size="14.00">U</text>
</g>
<!-- 4573817280&#45;&gt;4574314224 -->
<g id="edge25" class="edge">
<title>4573817280&#45;&gt;4574314224</title>
<path fill="none" stroke="black" d="M391.62,-353.82C385.05,-346.15 376.71,-336.42 369.64,-328.18"/>
<polygon fill="black" stroke="black" points="370.88,-326.93 366.29,-324.27 368.22,-329.2 370.88,-326.93"/>
</g>
<!-- 321121 -->
<!-- 4573817280&#45;&gt;321121 -->
<!-- 91337 -->
<!-- 4573817280&#45;&gt;91337 -->
<!-- 4574309328 -->
<g id="node8" class="node">
<title>4574309328</title>
<ellipse fill="lightblue" stroke="black" cx="146" cy="-252.09" rx="18" ry="18"/>
<text text-anchor="middle" x="146" y="-248.39" font-family="Helvetica,sans-Serif" font-size="14.00">H</text>
</g>
<!-- 4573817664&#45;&gt;4574309328 -->
<g id="edge7" class="edge">
<title>4573817664&#45;&gt;4574309328</title>
<path fill="none" stroke="black" d="M182.62,-295.82C176.05,-288.15 167.71,-278.42 160.64,-270.18"/>
<polygon fill="black" stroke="black" points="161.88,-268.93 157.29,-266.27 159.22,-271.2 161.88,-268.93"/>
</g>
<!-- 495589 -->
<!-- 4573817664&#45;&gt;495589 -->
<!-- 619792 -->
<!-- 4573817664&#45;&gt;619792 -->
<!-- 4574311680 -->
<g id="node11" class="node">
<title>4574311680</title>
<ellipse fill="lightblue" stroke="black" cx="66" cy="-194.09" rx="18" ry="18"/>
<text text-anchor="middle" x="66" y="-190.39" font-family="Helvetica,sans-Serif" font-size="14.00">D</text>
</g>
<!-- 4574309328&#45;&gt;4574311680 -->
<g id="edge10" class="edge">
<title>4574309328&#45;&gt;4574311680</title>
<path fill="none" stroke="black" d="M131.7,-241.08C118.58,-231.9 99.08,-218.25 84.72,-208.2"/>
<polygon fill="black" stroke="black" points="85.55,-206.64 80.45,-205.21 83.54,-209.51 85.55,-206.64"/>
</g>
<!-- 846421 -->
<!-- 4574309328&#45;&gt;846421 -->
<!-- 4574300928 -->
<g id="node13" class="node">
<title>4574300928</title>
<ellipse fill="lightblue" stroke="black" cx="227" cy="-194.09" rx="18" ry="18"/>
<text text-anchor="middle" x="227" y="-190.39" font-family="Helvetica,sans-Serif" font-size="14.00">I</text>
</g>
<!-- 4574309328&#45;&gt;4574300928 -->
<g id="edge12" class="edge">
<title>4574309328&#45;&gt;4574300928</title>
<path fill="none" stroke="black" d="M160.48,-241.08C173.84,-231.84 193.76,-218.08 208.31,-208.01"/>
<polygon fill="black" stroke="black" points="209.53,-209.3 212.64,-205.02 207.54,-206.42 209.53,-209.3"/>
</g>
<!-- 924055 -->
<!-- 4574311680&#45;&gt;924055 -->
<!-- 264164 -->
<!-- 4574311680&#45;&gt;264164 -->
<!-- 4574307648 -->
<g id="node16" class="node">
<title>4574307648</title>
<ellipse fill="lightblue" stroke="black" cx="114" cy="-135.9" rx="18.4" ry="18.4"/>
<text text-anchor="middle" x="114" y="-132.2" font-family="Helvetica,sans-Serif" font-size="14.00">G</text>
</g>
<!-- 4574311680&#45;&gt;4574307648 -->
<g id="edge15" class="edge">
<title>4574311680&#45;&gt;4574307648</title>
<path fill="none" stroke="black" d="M77.38,-179.78C83.86,-172.19 92.05,-162.59 99.05,-154.4"/>
<polygon fill="black" stroke="black" points="100.46,-155.45 102.37,-150.51 97.79,-153.17 100.46,-155.45"/>
</g>
<!-- 350372 -->
<!-- 4574300928&#45;&gt;350372 -->
<!-- 192162 -->
<!-- 4574300928&#45;&gt;192162 -->
<!-- 4574310624 -->
<g id="node19" class="node">
<title>4574310624</title>
<ellipse fill="lightblue" stroke="black" cx="275" cy="-135.9" rx="18" ry="18"/>
<text text-anchor="middle" x="275" y="-132.2" font-family="Helvetica,sans-Serif" font-size="14.00">L</text>
</g>
<!-- 4574300928&#45;&gt;4574310624 -->
<g id="edge18" class="edge">
<title>4574300928&#45;&gt;4574310624</title>
<path fill="none" stroke="black" d="M238.38,-179.78C244.95,-172.08 253.29,-162.31 260.36,-154.04"/>
<polygon fill="black" stroke="black" points="261.79,-155.06 263.71,-150.12 259.13,-152.78 261.79,-155.06"/>
</g>
<!-- 4574311152 -->
<g id="node20" class="node">
<title>4574311152</title>
<ellipse fill="lightblue" stroke="black" cx="227" cy="-77.7" rx="18" ry="18"/>
<text text-anchor="middle" x="227" y="-74" font-family="Helvetica,sans-Serif" font-size="14.00">J</text>
</g>
<!-- 4574310624&#45;&gt;4574311152 -->
<g id="edge19" class="edge">
<title>4574310624&#45;&gt;4574311152</title>
<path fill="none" stroke="black" d="M263.62,-121.58C257.05,-113.88 248.71,-104.11 241.64,-95.84"/>
<polygon fill="black" stroke="black" points="242.87,-94.58 238.29,-91.92 240.21,-96.86 242.87,-94.58"/>
</g>
<!-- 456482 -->
<!-- 4574310624&#45;&gt;456482 -->
<!-- 4574313792 -->
<g id="node22" class="node">
<title>4574313792</title>
<ellipse fill="lightblue" stroke="black" cx="323" cy="-77.7" rx="18" ry="18"/>
<text text-anchor="middle" x="323" y="-74" font-family="Helvetica,sans-Serif" font-size="14.00">P</text>
</g>
<!-- 4574310624&#45;&gt;4574313792 -->
<g id="edge21" class="edge">
<title>4574310624&#45;&gt;4574313792</title>
<path fill="none" stroke="black" d="M286.38,-121.58C292.95,-113.88 301.29,-104.11 308.36,-95.84"/>
<polygon fill="black" stroke="black" points="309.79,-96.86 311.71,-91.92 307.13,-94.58 309.79,-96.86"/>
</g>
<!-- 4574312352 -->
<g id="node23" class="node">
<title>4574312352</title>
<ellipse fill="lightblue" stroke="black" cx="275" cy="-18.85" rx="18.7" ry="18.7"/>
<text text-anchor="middle" x="275" y="-15.15" font-family="Helvetica,sans-Serif" font-size="14.00">M</text>
</g>
<!-- 4574313792&#45;&gt;4574312352 -->
<g id="edge22" class="edge">
<title>4574313792&#45;&gt;4574312352</title>
<path fill="none" stroke="black" d="M311.87,-63.51C305.39,-55.84 297.15,-46.08 290.09,-37.73"/>
<polygon fill="black" stroke="black" points="291.3,-36.45 286.74,-33.75 288.63,-38.7 291.3,-36.45"/>
</g>
<!-- 590111 -->
<!-- 4574313792&#45;&gt;590111 -->
<!-- 18959 -->
<!-- 4574313792&#45;&gt;18959 -->
<!-- 455496 -->
<!-- 4574314224&#45;&gt;455496 -->
<!-- 87165 -->
<!-- 4574314224&#45;&gt;87165 -->
<!-- 4574302944 -->
<g id="node31" class="node">
<title>4574302944</title>
<ellipse fill="lightblue" stroke="black" cx="403" cy="-252.09" rx="18" ry="18"/>
<text text-anchor="middle" x="403" y="-248.39" font-family="Helvetica,sans-Serif" font-size="14.00">V</text>
</g>
<!-- 4574314224&#45;&gt;4574302944 -->
<g id="edge30" class="edge">
<title>4574314224&#45;&gt;4574302944</title>
<path fill="none" stroke="black" d="M366.38,-295.82C372.95,-288.15 381.29,-278.42 388.36,-270.18"/>
<polygon fill="black" stroke="black" points="389.78,-271.2 391.71,-266.27 387.12,-268.93 389.78,-271.2"/>
</g>
</g>
</svg>
