<?xml version="1.0" encoding="UTF-8" standalone="no"?>
<!DOCTYPE svg PUBLIC "-//W3C//DTD SVG 1.1//EN"
 "http://www.w3.org/Graphics/SVG/1.1/DTD/svg11.dtd">
<!-- Generated by graphviz version 2.50.0 (0)
 -->
<!-- Pages: 1 -->
<svg width="606pt" height="338pt"
 viewBox="0.00 0.00 606.00 337.79" xmlns="http://www.w3.org/2000/svg" xmlns:xlink="http://www.w3.org/1999/xlink">
<g id="graph0" class="graph" transform="scale(1 1) rotate(0) translate(4 333.79)">
<polygon fill="white" stroke="transparent" points="-4,4 -4,-333.79 602,-333.79 602,4 -4,4"/>
<!-- 4573819728 -->
<g id="node1" class="node">
<title>4573819728</title>
<ellipse fill="lightblue" stroke="black" cx="403" cy="-311.59" rx="18.4" ry="18.4"/>
<text text-anchor="middle" x="403" y="-307.89" font-family="Helvetica,sans-Serif" font-size="14.00">Q</text>
</g>
<!-- 4574311152 -->
<g id="node2" class="node">
<title>4574311152</title>
<ellipse fill="lightblue" stroke="black" cx="275" cy="-251.9" rx="18" ry="18"/>
<text text-anchor="middle" x="275" y="-248.2" font-family="Helvetica,sans-Serif" font-size="14.00">K</text>
</g>
<!-- 4573819728&#45;&gt;4574311152 -->
<g id="edge1" class="edge">
<title>4573819728&#45;&gt;4574311152</title>
<path fill="none" stroke="black" d="M386.79,-303.28C363.71,-292.88 321.36,-273.79 295.93,-262.33"/>
<polygon fill="black" stroke="black" points="296.36,-260.6 291.08,-260.14 294.92,-263.79 296.36,-260.6"/>
</g>
<!-- 905607 -->
<!-- 4573819728&#45;&gt;905607 -->
<!-- 4574312640 -->
<g id="node4" class="node">
<title>4574312640</title>
<ellipse fill="lightblue" stroke="black" cx="532" cy="-251.9" rx="19.5" ry="19.5"/>
<text text-anchor="middle" x="532" y="-248.2" font-family="Helvetica,sans-Serif" font-size="14.00">W</text>
</g>
<!-- 4573819728&#45;&gt;4574312640 -->
<g id="edge3" class="edge">
<title>4573819728&#45;&gt;4574312640</title>
<path fill="none" stroke="black" d="M419.34,-303.28C442.31,-293.01 484.24,-274.26 509.96,-262.75"/>
<polygon fill="black" stroke="black" points="510.71,-264.33 514.56,-260.7 509.28,-261.14 510.71,-264.33"/>
</g>
<!-- 4574304864 -->
<g id="node5" class="node">
<title>4574304864</title>
<ellipse fill="lightblue" stroke="black" cx="66" cy="-192.4" rx="18" ry="18"/>
<text text-anchor="middle" x="66" y="-188.7" font-family="Helvetica,sans-Serif" font-size="14.00">A</text>
</g>
<!-- 4574311152&#45;&gt;4574304864 -->
<g id="edge4" class="edge">
<title>4574311152&#45;&gt;4574304864</title>
<path fill="none" stroke="black" d="M257.9,-246.19C220.24,-235.83 130.17,-211.05 88.21,-199.51"/>
<polygon fill="black" stroke="black" points="88.62,-197.81 83.34,-198.17 87.7,-201.18 88.62,-197.81"/>
</g>
<!-- 661442 -->
<!-- 4574311152&#45;&gt;661442 -->
<!-- 4574301840 -->
<g id="node7" class="node">
<title>4574301840</title>
<ellipse fill="lightblue" stroke="black" cx="323" cy="-192.4" rx="18" ry="18"/>
<text text-anchor="middle" x="323" y="-188.7" font-family="Helvetica,sans-Serif" font-size="14.00">P</text>
</g>
<!-- 4574311152&#45;&gt;4574301840 -->
<g id="edge6" class="edge">
<title>4574311152&#45;&gt;4574301840</title>
<path fill="none" stroke="black" d="M286.13,-237.56C292.8,-229.58 301.34,-219.34 308.52,-210.74"/>
<polygon fill="black" stroke="black" points="310.07,-211.62 311.93,-206.66 307.38,-209.38 310.07,-211.62"/>
</g>
<!-- 4574312832 -->
<g id="node23" class="node">
<title>4574312832</title>
<ellipse fill="lightblue" stroke="black" cx="484" cy="-192.4" rx="18" ry="18"/>
<text text-anchor="middle" x="484" y="-188.7" font-family="Helvetica,sans-Serif" font-size="14.00">V</text>
</g>
<!-- 4574312640&#45;&gt;4574312832 -->
<g id="edge22" class="edge">
<title>4574312640&#45;&gt;4574312832</title>
<path fill="none" stroke="black" d="M519.89,-236.39C513.4,-228.61 505.35,-218.97 498.53,-210.8"/>
<polygon fill="black" stroke="black" points="499.83,-209.63 495.28,-206.91 497.15,-211.87 499.83,-209.63"/>
</g>
<!-- 394118 -->
<!-- 4574312640&#45;&gt;394118 -->
<!-- 4574308416 -->
<g id="node25" class="node">
<title>4574308416</title>
<ellipse fill="lightblue" stroke="black" cx="580" cy="-192.4" rx="18" ry="18"/>
<text text-anchor="middle" x="580" y="-188.7" font-family="Helvetica,sans-Serif" font-size="14.00">X</text>
</g>
<!-- 4574312640&#45;&gt;4574308416 -->
<g id="edge24" class="edge">
<title>4574312640&#45;&gt;4574308416</title>
<path fill="none" stroke="black" d="M544.11,-236.39C550.6,-228.61 558.65,-218.97 565.47,-210.8"/>
<polygon fill="black" stroke="black" points="566.85,-211.87 568.72,-206.91 564.17,-209.63 566.85,-211.87"/>
</g>
<!-- 421399 -->
<!-- 4574304864&#45;&gt;421399 -->
<!-- 10627 -->
<!-- 4574304864&#45;&gt;10627 -->
<!-- 4574310624 -->
<g id="node10" class="node">
<title>4574310624</title>
<ellipse fill="lightblue" stroke="black" cx="114" cy="-134.2" rx="18" ry="18"/>
<text text-anchor="middle" x="114" y="-130.5" font-family="Helvetica,sans-Serif" font-size="14.00">H</text>
</g>
<!-- 4574304864&#45;&gt;4574310624 -->
<g id="edge9" class="edge">
<title>4574304864&#45;&gt;4574310624</title>
<path fill="none" stroke="black" d="M77.38,-178.08C83.95,-170.38 92.29,-160.61 99.36,-152.34"/>
<polygon fill="black" stroke="black" points="100.79,-153.36 102.71,-148.42 98.13,-151.09 100.79,-153.36"/>
</g>
<!-- 4574339552 -->
<g id="node17" class="node">
<title>4574339552</title>
<ellipse fill="lightblue" stroke="black" cx="275" cy="-134.2" rx="18.4" ry="18.4"/>
<text text-anchor="middle" x="275" y="-130.5" font-family="Helvetica,sans-Serif" font-size="14.00">O</text>
</g>
<!-- 4574301840&#45;&gt;4574339552 -->
<g id="edge16" class="edge">
<title>4574301840&#45;&gt;4574339552</title>
<path fill="none" stroke="black" d="M311.62,-178.08C305.14,-170.49 296.95,-160.89 289.95,-152.7"/>
<polygon fill="black" stroke="black" points="291.21,-151.48 286.63,-148.81 288.54,-153.75 291.21,-151.48"/>
</g>
<!-- 47897 -->
<!-- 4574301840&#45;&gt;47897 -->
<!-- 960960 -->
<!-- 4574301840&#45;&gt;960960 -->
<!-- 4574298720 -->
<g id="node11" class="node">
<title>4574298720</title>
<ellipse fill="lightblue" stroke="black" cx="66" cy="-76" rx="18" ry="18"/>
<text text-anchor="middle" x="66" y="-72.3" font-family="Helvetica,sans-Serif" font-size="14.00">E</text>
</g>
<!-- 4574310624&#45;&gt;4574298720 -->
<g id="edge10" class="edge">
<title>4574310624&#45;&gt;4574298720</title>
<path fill="none" stroke="black" d="M102.62,-119.88C96.05,-112.18 87.71,-102.41 80.64,-94.15"/>
<polygon fill="black" stroke="black" points="81.87,-92.89 77.29,-90.22 79.21,-95.16 81.87,-92.89"/>
</g>
<!-- 756560 -->
<!-- 4574310624&#45;&gt;756560 -->
<!-- 4574333408 -->
<g id="node13" class="node">
<title>4574333408</title>
<ellipse fill="lightblue" stroke="black" cx="162" cy="-76" rx="18" ry="18"/>
<text text-anchor="middle" x="162" y="-72.3" font-family="Helvetica,sans-Serif" font-size="14.00">J</text>
</g>
<!-- 4574310624&#45;&gt;4574333408 -->
<g id="edge12" class="edge">
<title>4574310624&#45;&gt;4574333408</title>
<path fill="none" stroke="black" d="M125.38,-119.88C131.95,-112.18 140.29,-102.41 147.36,-94.15"/>
<polygon fill="black" stroke="black" points="148.79,-95.16 150.71,-90.22 146.13,-92.89 148.79,-95.16"/>
</g>
<!-- 4574300544 -->
<g id="node14" class="node">
<title>4574300544</title>
<ellipse fill="lightblue" stroke="black" cx="18" cy="-18" rx="18" ry="18"/>
<text text-anchor="middle" x="18" y="-14.3" font-family="Helvetica,sans-Serif" font-size="14.00">D</text>
</g>
<!-- 4574298720&#45;&gt;4574300544 -->
<g id="edge13" class="edge">
<title>4574298720&#45;&gt;4574300544</title>
<path fill="none" stroke="black" d="M54.62,-61.73C48.05,-54.06 39.71,-44.32 32.64,-36.08"/>
<polygon fill="black" stroke="black" points="33.88,-34.83 29.29,-32.18 31.22,-37.11 33.88,-34.83"/>
</g>
<!-- 686799 -->
<!-- 4574298720&#45;&gt;686799 -->
<!-- 821824 -->
<!-- 4574298720&#45;&gt;821824 -->
<!-- 4574340944 -->
<g id="node20" class="node">
<title>4574340944</title>
<ellipse fill="lightblue" stroke="black" cx="227" cy="-76" rx="18" ry="18"/>
<text text-anchor="middle" x="227" y="-72.3" font-family="Helvetica,sans-Serif" font-size="14.00">L</text>
</g>
<!-- 4574339552&#45;&gt;4574340944 -->
<g id="edge19" class="edge">
<title>4574339552&#45;&gt;4574340944</title>
<path fill="none" stroke="black" d="M263.62,-119.88C257.05,-112.18 248.71,-102.41 241.64,-94.15"/>
<polygon fill="black" stroke="black" points="242.87,-92.89 238.29,-90.22 240.21,-95.16 242.87,-92.89"/>
</g>
<!-- 308793 -->
<!-- 4574339552&#45;&gt;308793 -->
<!-- 648593 -->
<!-- 4574339552&#45;&gt;648593 -->
<!-- 4574312352 -->
<g id="node26" class="node">
<title>4574312352</title>
<ellipse fill="lightblue" stroke="black" cx="436" cy="-134.2" rx="18" ry="18"/>
<text text-anchor="middle" x="436" y="-130.5" font-family="Helvetica,sans-Serif" font-size="14.00">T</text>
</g>
<!-- 4574312832&#45;&gt;4574312352 -->
<g id="edge25" class="edge">
<title>4574312832&#45;&gt;4574312352</title>
<path fill="none" stroke="black" d="M472.62,-178.08C466.05,-170.38 457.71,-160.61 450.64,-152.34"/>
<polygon fill="black" stroke="black" points="451.87,-151.09 447.29,-148.42 449.21,-153.36 451.87,-151.09"/>
</g>
<!-- 499027 -->
<!-- 4574312832&#45;&gt;499027 -->
<!-- 700925 -->
<!-- 4574312832&#45;&gt;700925 -->
<!-- 6289 -->
<!-- 4574312352&#45;&gt;6289 -->
<!-- 730676 -->
<!-- 4574312352&#45;&gt;730676 -->
<!-- 4574338304 -->
<g id="node31" class="node">
<title>4574338304</title>
<ellipse fill="lightblue" stroke="black" cx="484" cy="-76" rx="18" ry="18"/>
<text text-anchor="middle" x="484" y="-72.3" font-family="Helvetica,sans-Serif" font-size="14.00">U</text>
</g>
<!-- 4574312352&#45;&gt;4574338304 -->
<g id="edge30" class="edge">
<title>4574312352&#45;&gt;4574338304</title>
<path fill="none" stroke="black" d="M447.38,-119.88C453.95,-112.18 462.29,-102.41 469.36,-94.15"/>
<polygon fill="black" stroke="black" points="470.79,-95.16 472.71,-90.22 468.13,-92.89 470.79,-95.16"/>
</g>
</g>
</svg>
