<?xml version="1.0" encoding="UTF-8" standalone="no"?>
<!DOCTYPE svg PUBLIC "-//W3C//DTD SVG 1.1//EN"
 "http://www.w3.org/Graphics/SVG/1.1/DTD/svg11.dtd">
<!-- Generated by graphviz version 2.50.0 (0)
 -->
<!-- Pages: 1 -->
<svg width="624pt" height="220pt"
 viewBox="0.00 0.00 624.00 220.09" xmlns="http://www.w3.org/2000/svg" xmlns:xlink="http://www.w3.org/1999/xlink">
<g id="graph0" class="graph" transform="scale(1 1) rotate(0) translate(4 216.09)">
<polygon fill="white" stroke="transparent" points="-4,4 -4,-216.09 620,-216.09 620,4 -4,4"/>
<!-- 4419543904 -->
<g id="node1" class="node">
<title>4419543904</title>
<ellipse fill="#9bcd9b" stroke="black" cx="308" cy="-194.09" rx="18" ry="18"/>
<text text-anchor="middle" x="308" y="-190.39" font-family="Helvetica,sans-Serif" font-size="14.00">E</text>
</g>
<!-- 4574182240 -->
<g id="node2" class="node">
<title>4574182240</title>
<ellipse fill="#9bcd9b" stroke="black" cx="180" cy="-136.09" rx="18" ry="18"/>
<text text-anchor="middle" x="180" y="-132.39" font-family="Helvetica,sans-Serif" font-size="14.00">S</text>
</g>
<!-- 4419543904&#45;&gt;4574182240 -->
<g id="edge1" class="edge">
<title>4419543904&#45;&gt;4574182240</title>
<path fill="none" stroke="black" d="M291.79,-186C268.83,-175.96 226.82,-157.58 201.35,-146.43"/>
<polygon fill="black" stroke="black" points="201.77,-144.71 196.48,-144.31 200.36,-147.91 201.77,-144.71"/>
</g>
<!-- 636944 -->
<!-- 4419543904&#45;&gt;636944 -->
<!-- 4574182720 -->
<g id="node4" class="node">
<title>4574182720</title>
<ellipse fill="#9bcd9b" stroke="black" cx="437" cy="-136.09" rx="18" ry="18"/>
<text text-anchor="middle" x="437" y="-132.39" font-family="Helvetica,sans-Serif" font-size="14.00">C</text>
</g>
<!-- 4419543904&#45;&gt;4574182720 -->
<g id="edge3" class="edge">
<title>4419543904&#45;&gt;4574182720</title>
<path fill="none" stroke="black" d="M324.34,-186C347.6,-175.9 390.28,-157.37 415.91,-146.25"/>
<polygon fill="black" stroke="black" points="416.91,-147.72 420.79,-144.13 415.51,-144.51 416.91,-147.72"/>
</g>
<!-- 4574181184 -->
<g id="node5" class="node">
<title>4574181184</title>
<ellipse fill="#9bcd9b" stroke="black" cx="66" cy="-77.9" rx="18" ry="18"/>
<text text-anchor="middle" x="66" y="-74.2" font-family="Helvetica,sans-Serif" font-size="14.00">I</text>
</g>
<!-- 4574182240&#45;&gt;4574181184 -->
<g id="edge4" class="edge">
<title>4574182240&#45;&gt;4574181184</title>
<path fill="none" stroke="black" d="M164.15,-127.28C143.93,-117.31 108.92,-100.05 86.64,-89.07"/>
<polygon fill="black" stroke="black" points="87.34,-87.47 82.08,-86.82 85.79,-90.6 87.34,-87.47"/>
</g>
<!-- 799308 -->
<!-- 4574182240&#45;&gt;799308 -->
<!-- 4574182336 -->
<g id="node7" class="node">
<title>4574182336</title>
<ellipse fill="#9bcd9b" stroke="black" cx="228" cy="-77.9" rx="18" ry="18"/>
<text text-anchor="middle" x="228" y="-74.2" font-family="Helvetica,sans-Serif" font-size="14.00">D</text>
</g>
<!-- 4574182240&#45;&gt;4574182336 -->
<g id="edge6" class="edge">
<title>4574182240&#45;&gt;4574182336</title>
<path fill="none" stroke="black" d="M191.38,-121.78C197.95,-114.08 206.29,-104.31 213.36,-96.04"/>
<polygon fill="black" stroke="black" points="214.79,-97.06 216.71,-92.12 212.13,-94.78 214.79,-97.06"/>
</g>
<!-- 4574182144 -->
<g id="node14" class="node">
<title>4574182144</title>
<ellipse fill="#9bcd9b" stroke="black" cx="389" cy="-77.9" rx="18" ry="18"/>
<text text-anchor="middle" x="389" y="-74.2" font-family="Helvetica,sans-Serif" font-size="14.00">P</text>
</g>
<!-- 4574182720&#45;&gt;4574182144 -->
<g id="edge13" class="edge">
<title>4574182720&#45;&gt;4574182144</title>
<path fill="none" stroke="black" d="M425.62,-121.78C419.05,-114.08 410.71,-104.31 403.64,-96.04"/>
<polygon fill="black" stroke="black" points="404.87,-94.78 400.29,-92.12 402.21,-97.06 404.87,-94.78"/>
</g>
<!-- 729633 -->
<!-- 4574182720&#45;&gt;729633 -->
<!-- 4574338064 -->
<g id="node16" class="node">
<title>4574338064</title>
<ellipse fill="#9bcd9b" stroke="black" cx="550" cy="-77.9" rx="18.4" ry="18.4"/>
<text text-anchor="middle" x="550" y="-74.2" font-family="Helvetica,sans-Serif" font-size="14.00">O</text>
</g>
<!-- 4574182720&#45;&gt;4574338064 -->
<g id="edge15" class="edge">
<title>4574182720&#45;&gt;4574338064</title>
<path fill="none" stroke="black" d="M452.71,-127.28C472.75,-117.31 507.46,-100.05 529.55,-89.07"/>
<polygon fill="black" stroke="black" points="530.36,-90.62 534.06,-86.82 528.8,-87.48 530.36,-90.62"/>
</g>
<!-- 4574344640 -->
<g id="node8" class="node">
<title>4574344640</title>
<ellipse fill="#9bcd9b" stroke="black" cx="18" cy="-18.85" rx="18" ry="18"/>
<text text-anchor="middle" x="18" y="-15.15" font-family="Helvetica,sans-Serif" font-size="14.00">U</text>
</g>
<!-- 4574181184&#45;&gt;4574344640 -->
<g id="edge7" class="edge">
<title>4574181184&#45;&gt;4574344640</title>
<path fill="none" stroke="black" d="M54.87,-63.66C48.3,-55.86 39.9,-45.88 32.78,-37.42"/>
<polygon fill="black" stroke="black" points="33.96,-36.1 29.41,-33.4 31.29,-38.36 33.96,-36.1"/>
</g>
<!-- 804423 -->
<!-- 4574181184&#45;&gt;804423 -->
<!-- 4574344688 -->
<g id="node10" class="node">
<title>4574344688</title>
<ellipse fill="#9bcd9b" stroke="black" cx="114" cy="-18.85" rx="18.7" ry="18.7"/>
<text text-anchor="middle" x="114" y="-15.15" font-family="Helvetica,sans-Serif" font-size="14.00">M</text>
</g>
<!-- 4574181184&#45;&gt;4574344688 -->
<g id="edge9" class="edge">
<title>4574181184&#45;&gt;4574344688</title>
<path fill="none" stroke="black" d="M77.13,-63.66C83.61,-55.97 91.85,-46.17 98.91,-37.79"/>
<polygon fill="black" stroke="black" points="100.38,-38.76 102.26,-33.8 97.7,-36.5 100.38,-38.76"/>
</g>
<!-- 4574340080 -->
<g id="node11" class="node">
<title>4574340080</title>
<ellipse fill="#9bcd9b" stroke="black" cx="180" cy="-18.85" rx="18.4" ry="18.4"/>
<text text-anchor="middle" x="180" y="-15.15" font-family="Helvetica,sans-Serif" font-size="14.00">G</text>
</g>
<!-- 4574182336&#45;&gt;4574340080 -->
<g id="edge10" class="edge">
<title>4574182336&#45;&gt;4574340080</title>
<path fill="none" stroke="black" d="M216.87,-63.66C210.3,-55.86 201.9,-45.88 194.78,-37.42"/>
<polygon fill="black" stroke="black" points="195.96,-36.1 191.41,-33.4 193.29,-38.36 195.96,-36.1"/>
</g>
<!-- 2208 -->
<!-- 4574182336&#45;&gt;2208 -->
<!-- 4574343248 -->
<g id="node13" class="node">
<title>4574343248</title>
<ellipse fill="#9bcd9b" stroke="black" cx="276" cy="-18.85" rx="18" ry="18"/>
<text text-anchor="middle" x="276" y="-15.15" font-family="Helvetica,sans-Serif" font-size="14.00">V</text>
</g>
<!-- 4574182336&#45;&gt;4574343248 -->
<g id="edge12" class="edge">
<title>4574182336&#45;&gt;4574343248</title>
<path fill="none" stroke="black" d="M239.13,-63.66C245.7,-55.86 254.1,-45.88 261.22,-37.42"/>
<polygon fill="black" stroke="black" points="262.71,-38.36 264.59,-33.4 260.04,-36.1 262.71,-38.36"/>
</g>
<!-- 4574341520 -->
<g id="node17" class="node">
<title>4574341520</title>
<ellipse fill="#9bcd9b" stroke="black" cx="341" cy="-18.85" rx="18" ry="18"/>
<text text-anchor="middle" x="341" y="-15.15" font-family="Helvetica,sans-Serif" font-size="14.00">H</text>
</g>
<!-- 4574182144&#45;&gt;4574341520 -->
<g id="edge16" class="edge">
<title>4574182144&#45;&gt;4574341520</title>
<path fill="none" stroke="black" d="M377.87,-63.66C371.3,-55.86 362.9,-45.88 355.78,-37.42"/>
<polygon fill="black" stroke="black" points="356.96,-36.1 352.41,-33.4 354.29,-38.36 356.96,-36.1"/>
</g>
<!-- 467022 -->
<!-- 4574182144&#45;&gt;467022 -->
<!-- 4574344832 -->
<g id="node19" class="node">
<title>4574344832</title>
<ellipse fill="#9bcd9b" stroke="black" cx="437" cy="-18.85" rx="18" ry="18"/>
<text text-anchor="middle" x="437" y="-15.15" font-family="Helvetica,sans-Serif" font-size="14.00">A</text>
</g>
<!-- 4574182144&#45;&gt;4574344832 -->
<g id="edge18" class="edge">
<title>4574182144&#45;&gt;4574344832</title>
<path fill="none" stroke="black" d="M400.13,-63.66C406.7,-55.86 415.1,-45.88 422.22,-37.42"/>
<polygon fill="black" stroke="black" points="423.71,-38.36 425.59,-33.4 421.04,-36.1 423.71,-38.36"/>
</g>
<!-- 4574344304 -->
<g id="node20" class="node">
<title>4574344304</title>
<ellipse fill="#9bcd9b" stroke="black" cx="502" cy="-18.85" rx="18.4" ry="18.4"/>
<text text-anchor="middle" x="502" y="-15.15" font-family="Helvetica,sans-Serif" font-size="14.00">Q</text>
</g>
<!-- 4574338064&#45;&gt;4574344304 -->
<g id="edge19" class="edge">
<title>4574338064&#45;&gt;4574344304</title>
<path fill="none" stroke="black" d="M538.62,-63.38C532.05,-55.56 523.71,-45.65 516.64,-37.25"/>
<polygon fill="black" stroke="black" points="517.85,-35.97 513.29,-33.27 515.17,-38.22 517.85,-35.97"/>
</g>
<!-- 279267 -->
<!-- 4574338064&#45;&gt;279267 -->
<!-- 4574341712 -->
<g id="node22" class="node">
<title>4574341712</title>
<ellipse fill="#9bcd9b" stroke="black" cx="598" cy="-18.85" rx="18" ry="18"/>
<text text-anchor="middle" x="598" y="-15.15" font-family="Helvetica,sans-Serif" font-size="14.00">R</text>
</g>
<!-- 4574338064&#45;&gt;4574341712 -->
<g id="edge21" class="edge">
<title>4574338064&#45;&gt;4574341712</title>
<path fill="none" stroke="black" d="M561.38,-63.38C567.95,-55.56 576.29,-45.65 583.36,-37.25"/>
<polygon fill="black" stroke="black" points="584.83,-38.22 586.71,-33.27 582.15,-35.97 584.83,-38.22"/>
</g>
</g>
</svg>
