<?xml version="1.0" encoding="UTF-8" standalone="no"?>
<!DOCTYPE svg PUBLIC "-//W3C//DTD SVG 1.1//EN"
 "http://www.w3.org/Graphics/SVG/1.1/DTD/svg11.dtd">
<!-- Generated by graphviz version 2.50.0 (0)
 -->
<!-- Pages: 1 -->
<svg width="489pt" height="420pt"
 viewBox="0.00 0.00 488.80 419.98" xmlns="http://www.w3.org/2000/svg" xmlns:xlink="http://www.w3.org/1999/xlink">
<g id="graph0" class="graph" transform="scale(1 1) rotate(0) translate(4 415.98)">
<polygon fill="white" stroke="transparent" points="-4,4 -4,-415.98 484.8,-415.98 484.8,4 -4,4"/>
<!-- 4574312304 -->
<g id="node1" class="node">
<title>4574312304</title>
<ellipse fill="lightblue" stroke="black" cx="327" cy="-391.18" rx="20.6" ry="20.6"/>
<text text-anchor="middle" x="327" y="-387.48" font-family="Helvetica,sans-Serif" font-size="14.00">16</text>
</g>
<!-- 4574313216 -->
<g id="node2" class="node">
<title>4574313216</title>
<ellipse fill="lightblue" stroke="black" cx="244" cy="-327.59" rx="20.6" ry="20.6"/>
<text text-anchor="middle" x="244" y="-323.89" font-family="Helvetica,sans-Serif" font-size="14.00">15</text>
</g>
<!-- 4574312304&#45;&gt;4574313216 -->
<g id="edge1" class="edge">
<title>4574312304&#45;&gt;4574313216</title>
<path fill="none" stroke="black" d="M310.6,-378.01C297.41,-368.23 278.81,-354.42 264.62,-343.89"/>
<polygon fill="black" stroke="black" points="265.42,-342.31 260.36,-340.73 263.34,-345.12 265.42,-342.31"/>
</g>
<!-- 446606 -->
<!-- 4574312304&#45;&gt;446606 -->
<!-- 4574331968 -->
<g id="node4" class="node">
<title>4574331968</title>
<ellipse fill="lightblue" stroke="black" cx="410" cy="-327.59" rx="20.6" ry="20.6"/>
<text text-anchor="middle" x="410" y="-323.89" font-family="Helvetica,sans-Serif" font-size="14.00">24</text>
</g>
<!-- 4574312304&#45;&gt;4574331968 -->
<g id="edge3" class="edge">
<title>4574312304&#45;&gt;4574331968</title>
<path fill="none" stroke="black" d="M343.4,-378.01C356.59,-368.23 375.19,-354.42 389.38,-343.89"/>
<polygon fill="black" stroke="black" points="390.66,-345.12 393.64,-340.73 388.58,-342.31 390.66,-345.12"/>
</g>
<!-- 4574308032 -->
<g id="node5" class="node">
<title>4574308032</title>
<ellipse fill="lightblue" stroke="black" cx="194" cy="-263.99" rx="20.6" ry="20.6"/>
<text text-anchor="middle" x="194" y="-260.29" font-family="Helvetica,sans-Serif" font-size="14.00">12</text>
</g>
<!-- 4574313216&#45;&gt;4574308032 -->
<g id="edge4" class="edge">
<title>4574313216&#45;&gt;4574308032</title>
<path fill="none" stroke="black" d="M231.38,-311.04C224.92,-303.08 216.98,-293.3 210.08,-284.8"/>
<polygon fill="black" stroke="black" points="211.3,-283.52 206.79,-280.74 208.58,-285.73 211.3,-283.52"/>
</g>
<!-- 992046 -->
<!-- 4574313216&#45;&gt;992046 -->
<!-- 656591 -->
<!-- 4574313216&#45;&gt;656591 -->
<!-- 4574332112 -->
<g id="node26" class="node">
<title>4574332112</title>
<ellipse fill="lightblue" stroke="black" cx="360" cy="-263.99" rx="20.6" ry="20.6"/>
<text text-anchor="middle" x="360" y="-260.29" font-family="Helvetica,sans-Serif" font-size="14.00">17</text>
</g>
<!-- 4574331968&#45;&gt;4574332112 -->
<g id="edge25" class="edge">
<title>4574331968&#45;&gt;4574332112</title>
<path fill="none" stroke="black" d="M397.38,-311.04C390.92,-303.08 382.98,-293.3 376.08,-284.8"/>
<polygon fill="black" stroke="black" points="377.3,-283.52 372.79,-280.74 374.58,-285.73 377.3,-283.52"/>
</g>
<!-- 782111 -->
<!-- 4574331968&#45;&gt;782111 -->
<!-- 4574335328 -->
<g id="node28" class="node">
<title>4574335328</title>
<ellipse fill="lightblue" stroke="black" cx="460" cy="-263.99" rx="20.6" ry="20.6"/>
<text text-anchor="middle" x="460" y="-260.29" font-family="Helvetica,sans-Serif" font-size="14.00">28</text>
</g>
<!-- 4574331968&#45;&gt;4574335328 -->
<g id="edge27" class="edge">
<title>4574331968&#45;&gt;4574335328</title>
<path fill="none" stroke="black" d="M422.62,-311.04C429.08,-303.08 437.02,-293.3 443.92,-284.8"/>
<polygon fill="black" stroke="black" points="445.42,-285.73 447.21,-280.74 442.7,-283.52 445.42,-285.73"/>
</g>
<!-- 4574301744 -->
<g id="node8" class="node">
<title>4574301744</title>
<ellipse fill="lightblue" stroke="black" cx="146" cy="-200.39" rx="18" ry="18"/>
<text text-anchor="middle" x="146" y="-196.69" font-family="Helvetica,sans-Serif" font-size="14.00">5</text>
</g>
<!-- 4574308032&#45;&gt;4574301744 -->
<g id="edge7" class="edge">
<title>4574308032&#45;&gt;4574301744</title>
<path fill="none" stroke="black" d="M181.64,-247.13C175.05,-238.67 166.92,-228.24 160.09,-219.47"/>
<polygon fill="black" stroke="black" points="161.3,-218.18 156.85,-215.32 158.54,-220.34 161.3,-218.18"/>
</g>
<!-- 29041 -->
<!-- 4574308032&#45;&gt;29041 -->
<!-- 4574334128 -->
<g id="node10" class="node">
<title>4574334128</title>
<ellipse fill="lightblue" stroke="black" cx="244" cy="-200.39" rx="20.6" ry="20.6"/>
<text text-anchor="middle" x="244" y="-196.69" font-family="Helvetica,sans-Serif" font-size="14.00">13</text>
</g>
<!-- 4574308032&#45;&gt;4574334128 -->
<g id="edge9" class="edge">
<title>4574308032&#45;&gt;4574334128</title>
<path fill="none" stroke="black" d="M206.62,-247.45C213.08,-239.48 221.02,-229.7 227.92,-221.2"/>
<polygon fill="black" stroke="black" points="229.42,-222.13 231.21,-217.15 226.7,-219.93 229.42,-222.13"/>
</g>
<!-- 4573818000 -->
<g id="node11" class="node">
<title>4573818000</title>
<ellipse fill="lightblue" stroke="black" cx="66" cy="-139.6" rx="18" ry="18"/>
<text text-anchor="middle" x="66" y="-135.9" font-family="Helvetica,sans-Serif" font-size="14.00">1</text>
</g>
<!-- 4574301744&#45;&gt;4573818000 -->
<g id="edge10" class="edge">
<title>4574301744&#45;&gt;4573818000</title>
<path fill="none" stroke="black" d="M131.7,-188.88C118.5,-179.18 98.83,-164.73 84.46,-154.16"/>
<polygon fill="black" stroke="black" points="85.24,-152.57 80.18,-151.02 83.17,-155.39 85.24,-152.57"/>
</g>
<!-- 812030 -->
<!-- 4574301744&#45;&gt;812030 -->
<!-- 4574334800 -->
<g id="node13" class="node">
<title>4574334800</title>
<ellipse fill="lightblue" stroke="black" cx="227" cy="-139.6" rx="18" ry="18"/>
<text text-anchor="middle" x="227" y="-135.9" font-family="Helvetica,sans-Serif" font-size="14.00">6</text>
</g>
<!-- 4574301744&#45;&gt;4574334800 -->
<g id="edge12" class="edge">
<title>4574301744&#45;&gt;4574334800</title>
<path fill="none" stroke="black" d="M160.11,-189.15C173.5,-179.43 193.71,-164.76 208.41,-154.09"/>
<polygon fill="black" stroke="black" points="209.76,-155.27 212.78,-150.92 207.71,-152.44 209.76,-155.27"/>
</g>
<!-- 503746 -->
<!-- 4573818000&#45;&gt;503746 -->
<!-- 127502 -->
<!-- 4573818000&#45;&gt;127502 -->
<!-- 4574334992 -->
<g id="node16" class="node">
<title>4574334992</title>
<ellipse fill="lightblue" stroke="black" cx="114" cy="-78.8" rx="18" ry="18"/>
<text text-anchor="middle" x="114" y="-75.1" font-family="Helvetica,sans-Serif" font-size="14.00">2</text>
</g>
<!-- 4573818000&#45;&gt;4574334992 -->
<g id="edge15" class="edge">
<title>4573818000&#45;&gt;4574334992</title>
<path fill="none" stroke="black" d="M76.89,-125.25C83.55,-117.1 92.14,-106.57 99.39,-97.7"/>
<polygon fill="black" stroke="black" points="101.01,-98.48 102.82,-93.5 98.3,-96.26 101.01,-98.48"/>
</g>
<!-- 535615 -->
<!-- 4574334800&#45;&gt;535615 -->
<!-- 135751 -->
<!-- 4574334800&#45;&gt;135751 -->
<!-- 4574333312 -->
<g id="node22" class="node">
<title>4574333312</title>
<ellipse fill="lightblue" stroke="black" cx="277" cy="-78.8" rx="20.6" ry="20.6"/>
<text text-anchor="middle" x="277" y="-75.1" font-family="Helvetica,sans-Serif" font-size="14.00">10</text>
</g>
<!-- 4574334800&#45;&gt;4574333312 -->
<g id="edge21" class="edge">
<title>4574334800&#45;&gt;4574333312</title>
<path fill="none" stroke="black" d="M238.35,-125.25C244.88,-117.57 253.22,-107.77 260.47,-99.24"/>
<polygon fill="black" stroke="black" points="262.03,-100.11 263.93,-95.17 259.36,-97.84 262.03,-100.11"/>
</g>
<!-- 163539 -->
<!-- 4574334992&#45;&gt;163539 -->
<!-- 699246 -->
<!-- 4574334992&#45;&gt;699246 -->
<!-- 4574334032 -->
<g id="node19" class="node">
<title>4574334032</title>
<ellipse fill="lightblue" stroke="black" cx="162" cy="-18" rx="18" ry="18"/>
<text text-anchor="middle" x="162" y="-14.3" font-family="Helvetica,sans-Serif" font-size="14.00">4</text>
</g>
<!-- 4574334992&#45;&gt;4574334032 -->
<g id="edge18" class="edge">
<title>4574334992&#45;&gt;4574334032</title>
<path fill="none" stroke="black" d="M124.89,-64.46C131.55,-56.3 140.14,-45.77 147.39,-36.9"/>
<polygon fill="black" stroke="black" points="149.01,-37.68 150.82,-32.7 146.3,-35.46 149.01,-37.68"/>
</g>
<!-- 4574335472 -->
<g id="node23" class="node">
<title>4574335472</title>
<ellipse fill="lightblue" stroke="black" cx="229" cy="-18" rx="18" ry="18"/>
<text text-anchor="middle" x="229" y="-14.3" font-family="Helvetica,sans-Serif" font-size="14.00">8</text>
</g>
<!-- 4574333312&#45;&gt;4574335472 -->
<g id="edge22" class="edge">
<title>4574333312&#45;&gt;4574335472</title>
<path fill="none" stroke="black" d="M264.14,-62.04C257.76,-54.23 250.04,-44.78 243.47,-36.72"/>
<polygon fill="black" stroke="black" points="244.46,-35.17 239.94,-32.41 241.75,-37.39 244.46,-35.17"/>
</g>
<!-- 798049 -->
<!-- 4574333312&#45;&gt;798049 -->
<!-- 510921 -->
<!-- 4574333312&#45;&gt;510921 -->
<!-- 65219 -->
<!-- 4574332112&#45;&gt;65219 -->
<!-- 337950 -->
<!-- 4574332112&#45;&gt;337950 -->
<!-- 4574333648 -->
<g id="node31" class="node">
<title>4574333648</title>
<ellipse fill="lightblue" stroke="black" cx="410" cy="-200.39" rx="20.6" ry="20.6"/>
<text text-anchor="middle" x="410" y="-196.69" font-family="Helvetica,sans-Serif" font-size="14.00">23</text>
</g>
<!-- 4574332112&#45;&gt;4574333648 -->
<g id="edge30" class="edge">
<title>4574332112&#45;&gt;4574333648</title>
<path fill="none" stroke="black" d="M372.62,-247.45C379.08,-239.48 387.02,-229.7 393.92,-221.2"/>
<polygon fill="black" stroke="black" points="395.42,-222.13 397.21,-217.15 392.7,-219.93 395.42,-222.13"/>
</g>
</g>
</svg>
