<?xml version="1.0" encoding="UTF-8" standalone="no"?>
<!DOCTYPE svg PUBLIC "-//W3C//DTD SVG 1.1//EN"
 "http://www.w3.org/Graphics/SVG/1.1/DTD/svg11.dtd">
<!-- Generated by graphviz version 2.50.0 (0)
 -->
<!-- Pages: 1 -->
<svg width="294pt" height="432pt"
 viewBox="0.00 0.00 294.40 431.68" xmlns="http://www.w3.org/2000/svg" xmlns:xlink="http://www.w3.org/1999/xlink">
<g id="graph0" class="graph" transform="scale(1 1) rotate(0) translate(4 427.68)">
<polygon fill="white" stroke="transparent" points="-4,4 -4,-427.68 290.4,-427.68 290.4,4 -4,4"/>
<!-- 4628137264 -->
<g id="node1" class="node">
<title>4628137264</title>
<ellipse fill="lightblue" stroke="black" cx="170.4" cy="-400.28" rx="23.3" ry="23.3"/>
<text text-anchor="middle" x="170.4" y="-396.58" font-family="Helvetica,sans-Serif" font-size="14.00">&#45;12</text>
</g>
<!-- 4628139088 -->
<g id="node2" class="node">
<title>4628139088</title>
<ellipse fill="lightblue" stroke="black" cx="117.4" cy="-331.49" rx="23.3" ry="23.3"/>
<text text-anchor="middle" x="117.4" y="-327.79" font-family="Helvetica,sans-Serif" font-size="14.00">&#45;17</text>
</g>
<!-- 4628137264&#45;&gt;4628139088 -->
<g id="edge1" class="edge">
<title>4628137264&#45;&gt;4628139088</title>
<path fill="none" stroke="black" d="M156.19,-381.38C149.66,-373.15 141.84,-363.29 134.94,-354.6"/>
<polygon fill="black" stroke="black" points="136.12,-353.27 131.64,-350.44 133.38,-355.44 136.12,-353.27"/>
</g>
<!-- 764461 -->
<!-- 4628137264&#45;&gt;764461 -->
<!-- 4628137456 -->
<g id="node4" class="node">
<title>4628137456</title>
<ellipse fill="lightblue" stroke="black" cx="220.4" cy="-331.49" rx="20.6" ry="20.6"/>
<text text-anchor="middle" x="220.4" y="-327.79" font-family="Helvetica,sans-Serif" font-size="14.00">18</text>
</g>
<!-- 4628137264&#45;&gt;4628137456 -->
<g id="edge3" class="edge">
<title>4628137264&#45;&gt;4628137456</title>
<path fill="none" stroke="black" d="M184.06,-381.03C190.52,-372.4 198.26,-362.06 204.94,-353.14"/>
<polygon fill="black" stroke="black" points="206.52,-353.94 208.12,-348.89 203.72,-351.85 206.52,-353.94"/>
</g>
<!-- 4628141008 -->
<g id="node5" class="node">
<title>4628141008</title>
<ellipse fill="lightblue" stroke="black" cx="172.4" cy="-268.09" rx="18" ry="18"/>
<text text-anchor="middle" x="172.4" y="-264.39" font-family="Helvetica,sans-Serif" font-size="14.00">9</text>
</g>
<!-- 4628137456&#45;&gt;4628141008 -->
<g id="edge4" class="edge">
<title>4628137456&#45;&gt;4628141008</title>
<path fill="none" stroke="black" d="M208.04,-314.68C201.45,-306.25 193.32,-295.85 186.48,-287.11"/>
<polygon fill="black" stroke="black" points="187.71,-285.83 183.25,-282.97 184.95,-287.98 187.71,-285.83"/>
</g>
<!-- 902134 -->
<!-- 4628137456&#45;&gt;902134 -->
<!-- 981014 -->
<!-- 4628137456&#45;&gt;981014 -->
<!-- 4628152096 -->
<g id="node8" class="node">
<title>4628152096</title>
<ellipse fill="lightblue" stroke="black" cx="124.4" cy="-207.29" rx="18" ry="18"/>
<text text-anchor="middle" x="124.4" y="-203.59" font-family="Helvetica,sans-Serif" font-size="14.00">8</text>
</g>
<!-- 4628141008&#45;&gt;4628152096 -->
<g id="edge7" class="edge">
<title>4628141008&#45;&gt;4628152096</title>
<path fill="none" stroke="black" d="M161.51,-253.75C154.85,-245.59 146.25,-235.06 139.01,-226.19"/>
<polygon fill="black" stroke="black" points="140.1,-224.75 135.58,-221.99 137.39,-226.97 140.1,-224.75"/>
</g>
<!-- 643200 -->
<!-- 4628141008&#45;&gt;643200 -->
<!-- 4628148352 -->
<g id="node10" class="node">
<title>4628148352</title>
<ellipse fill="lightblue" stroke="black" cx="222.4" cy="-207.29" rx="20.6" ry="20.6"/>
<text text-anchor="middle" x="222.4" y="-203.59" font-family="Helvetica,sans-Serif" font-size="14.00">12</text>
</g>
<!-- 4628141008&#45;&gt;4628148352 -->
<g id="edge9" class="edge">
<title>4628141008&#45;&gt;4628148352</title>
<path fill="none" stroke="black" d="M183.74,-253.75C190.28,-246.06 198.61,-236.26 205.87,-227.73"/>
<polygon fill="black" stroke="black" points="207.42,-228.6 209.33,-223.66 204.76,-226.33 207.42,-228.6"/>
</g>
<!-- 4628137072 -->
<g id="node11" class="node">
<title>4628137072</title>
<ellipse fill="lightblue" stroke="black" cx="76.4" cy="-145.64" rx="18.7" ry="18.7"/>
<text text-anchor="middle" x="76.4" y="-141.94" font-family="Helvetica,sans-Serif" font-size="14.00">&#45;8</text>
</g>
<!-- 4628152096&#45;&gt;4628137072 -->
<g id="edge10" class="edge">
<title>4628152096&#45;&gt;4628137072</title>
<path fill="none" stroke="black" d="M113.51,-192.76C106.95,-184.6 98.5,-174.11 91.32,-165.19"/>
<polygon fill="black" stroke="black" points="92.41,-163.76 87.92,-160.96 89.69,-165.95 92.41,-163.76"/>
</g>
<!-- 318546 -->
<!-- 4628152096&#45;&gt;318546 -->
<!-- 551966 -->
<!-- 4628152096&#45;&gt;551966 -->
<!-- 4628139760 -->
<g id="node14" class="node">
<title>4628139760</title>
<ellipse fill="lightblue" stroke="black" cx="23.4" cy="-81.4" rx="23.3" ry="23.3"/>
<text text-anchor="middle" x="23.4" y="-77.7" font-family="Helvetica,sans-Serif" font-size="14.00">&#45;11</text>
</g>
<!-- 4628137072&#45;&gt;4628139760 -->
<g id="edge13" class="edge">
<title>4628137072&#45;&gt;4628139760</title>
<path fill="none" stroke="black" d="M64.64,-130.83C57.93,-122.95 49.37,-112.9 41.79,-104"/>
<polygon fill="black" stroke="black" points="42.74,-102.41 38.16,-99.74 40.07,-104.68 42.74,-102.41"/>
</g>
<!-- 908254 -->
<!-- 4628137072&#45;&gt;908254 -->
<!-- 4628148112 -->
<g id="node16" class="node">
<title>4628148112</title>
<ellipse fill="lightblue" stroke="black" cx="124.4" cy="-81.4" rx="18" ry="18"/>
<text text-anchor="middle" x="124.4" y="-77.7" font-family="Helvetica,sans-Serif" font-size="14.00">6</text>
</g>
<!-- 4628137072&#45;&gt;4628148112 -->
<g id="edge15" class="edge">
<title>4628137072&#45;&gt;4628148112</title>
<path fill="none" stroke="black" d="M87.53,-130.21C94.35,-121.36 103.14,-109.96 110.43,-100.52"/>
<polygon fill="black" stroke="black" points="111.99,-101.36 113.66,-96.33 109.22,-99.22 111.99,-101.36"/>
</g>
<!-- 4628142592 -->
<g id="node17" class="node">
<title>4628142592</title>
<ellipse fill="lightblue" stroke="black" cx="76.4" cy="-18" rx="18" ry="18"/>
<text text-anchor="middle" x="76.4" y="-14.3" font-family="Helvetica,sans-Serif" font-size="14.00">5</text>
</g>
<!-- 4628148112&#45;&gt;4628142592 -->
<g id="edge16" class="edge">
<title>4628148112&#45;&gt;4628142592</title>
<path fill="none" stroke="black" d="M113.75,-66.77C106.79,-57.87 97.63,-46.16 90.12,-36.56"/>
<polygon fill="black" stroke="black" points="91.48,-35.45 87.02,-32.59 88.72,-37.61 91.48,-35.45"/>
</g>
<!-- 222713 -->
<!-- 4628148112&#45;&gt;222713 -->
<!-- 412966 -->
<!-- 4628148112&#45;&gt;412966 -->
</g>
</svg>
