<?xml version="1.0" encoding="UTF-8" standalone="no"?>
<!DOCTYPE svg PUBLIC "-//W3C//DTD SVG 1.1//EN"
 "http://www.w3.org/Graphics/SVG/1.1/DTD/svg11.dtd">
<!-- Generated by graphviz version 2.50.0 (0)
 -->
<!-- Pages: 1 -->
<svg width="330pt" height="436pt"
 viewBox="0.00 0.00 330.40 435.98" xmlns="http://www.w3.org/2000/svg" xmlns:xlink="http://www.w3.org/1999/xlink">
<g id="graph0" class="graph" transform="scale(1 1) rotate(0) translate(4 431.98)">
<polygon fill="white" stroke="transparent" points="-4,4 -4,-431.98 326.4,-431.98 326.4,4 -4,4"/>
<!-- 4628137456 -->
<g id="node1" class="node">
<title>4628137456</title>
<ellipse fill="lightblue" stroke="black" cx="76.4" cy="-404.58" rx="23.3" ry="23.3"/>
<text text-anchor="middle" x="76.4" y="-400.88" font-family="Helvetica,sans-Serif" font-size="14.00">&#45;11</text>
</g>
<!-- 4628152048 -->
<g id="node2" class="node">
<title>4628152048</title>
<ellipse fill="lightblue" stroke="black" cx="23.4" cy="-335.78" rx="23.3" ry="23.3"/>
<text text-anchor="middle" x="23.4" y="-332.08" font-family="Helvetica,sans-Serif" font-size="14.00">&#45;18</text>
</g>
<!-- 4628137456&#45;&gt;4628152048 -->
<g id="edge1" class="edge">
<title>4628137456&#45;&gt;4628152048</title>
<path fill="none" stroke="black" d="M62.19,-385.68C55.66,-377.44 47.84,-367.59 40.94,-358.9"/>
<polygon fill="black" stroke="black" points="42.12,-357.56 37.64,-354.73 39.38,-359.74 42.12,-357.56"/>
</g>
<!-- 300111 -->
<!-- 4628137456&#45;&gt;300111 -->
<!-- 4628139088 -->
<g id="node4" class="node">
<title>4628139088</title>
<ellipse fill="lightblue" stroke="black" cx="124.4" cy="-335.78" rx="18.7" ry="18.7"/>
<text text-anchor="middle" x="124.4" y="-332.08" font-family="Helvetica,sans-Serif" font-size="14.00">&#45;7</text>
</g>
<!-- 4628137456&#45;&gt;4628139088 -->
<g id="edge3" class="edge">
<title>4628137456&#45;&gt;4628139088</title>
<path fill="none" stroke="black" d="M89.77,-384.97C96.25,-375.95 104.03,-365.12 110.58,-356.02"/>
<polygon fill="black" stroke="black" points="112.18,-356.78 113.68,-351.7 109.34,-354.74 112.18,-356.78"/>
</g>
<!-- 228059 -->
<!-- 4628139088&#45;&gt;228059 -->
<!-- 594896 -->
<!-- 4628139088&#45;&gt;594896 -->
<!-- 4628137072 -->
<g id="node7" class="node">
<title>4628137072</title>
<ellipse fill="lightblue" stroke="black" cx="172.4" cy="-272.39" rx="18" ry="18"/>
<text text-anchor="middle" x="172.4" y="-268.69" font-family="Helvetica,sans-Serif" font-size="14.00">9</text>
</g>
<!-- 4628139088&#45;&gt;4628137072 -->
<g id="edge6" class="edge">
<title>4628139088&#45;&gt;4628137072</title>
<path fill="none" stroke="black" d="M135.53,-320.54C142.35,-311.82 151.14,-300.58 158.43,-291.26"/>
<polygon fill="black" stroke="black" points="159.95,-292.14 161.66,-287.13 157.2,-289.99 159.95,-292.14"/>
</g>
<!-- 4628148352 -->
<g id="node8" class="node">
<title>4628148352</title>
<ellipse fill="lightblue" stroke="black" cx="90.4" cy="-211.59" rx="18" ry="18"/>
<text text-anchor="middle" x="90.4" y="-207.89" font-family="Helvetica,sans-Serif" font-size="14.00">8</text>
</g>
<!-- 4628137072&#45;&gt;4628148352 -->
<g id="edge7" class="edge">
<title>4628137072&#45;&gt;4628148352</title>
<path fill="none" stroke="black" d="M158.11,-261.14C144.56,-251.42 124.1,-236.75 109.22,-226.08"/>
<polygon fill="black" stroke="black" points="109.88,-224.4 104.79,-222.91 107.84,-227.24 109.88,-224.4"/>
</g>
<!-- 694774 -->
<!-- 4628137072&#45;&gt;694774 -->
<!-- 4628148112 -->
<g id="node10" class="node">
<title>4628148112</title>
<ellipse fill="lightblue" stroke="black" cx="256.4" cy="-211.59" rx="20.6" ry="20.6"/>
<text text-anchor="middle" x="256.4" y="-207.89" font-family="Helvetica,sans-Serif" font-size="14.00">18</text>
</g>
<!-- 4628137072&#45;&gt;4628148112 -->
<g id="edge9" class="edge">
<title>4628137072&#45;&gt;4628148112</title>
<path fill="none" stroke="black" d="M187.03,-261.14C200.43,-251.76 220.43,-237.76 235.51,-227.21"/>
<polygon fill="black" stroke="black" points="236.53,-228.63 239.63,-224.33 234.53,-225.76 236.53,-228.63"/>
</g>
<!-- 4628152096 -->
<g id="node11" class="node">
<title>4628152096</title>
<ellipse fill="lightblue" stroke="black" cx="42.4" cy="-147.99" rx="18" ry="18"/>
<text text-anchor="middle" x="42.4" y="-144.29" font-family="Helvetica,sans-Serif" font-size="14.00">4</text>
</g>
<!-- 4628148352&#45;&gt;4628152096 -->
<g id="edge10" class="edge">
<title>4628148352&#45;&gt;4628152096</title>
<path fill="none" stroke="black" d="M79.75,-196.92C72.79,-187.99 63.63,-176.24 56.12,-166.61"/>
<polygon fill="black" stroke="black" points="57.47,-165.49 53.02,-162.62 54.71,-167.64 57.47,-165.49"/>
</g>
<!-- 258998 -->
<!-- 4628148352&#45;&gt;258998 -->
<!-- 425160 -->
<!-- 4628148352&#45;&gt;425160 -->
<!-- 4628142592 -->
<g id="node14" class="node">
<title>4628142592</title>
<ellipse fill="lightblue" stroke="black" cx="206.4" cy="-147.99" rx="20.6" ry="20.6"/>
<text text-anchor="middle" x="206.4" y="-144.29" font-family="Helvetica,sans-Serif" font-size="14.00">10</text>
</g>
<!-- 4628148112&#45;&gt;4628142592 -->
<g id="edge13" class="edge">
<title>4628148112&#45;&gt;4628142592</title>
<path fill="none" stroke="black" d="M243.78,-195.04C237.32,-187.08 229.38,-177.3 222.48,-168.8"/>
<polygon fill="black" stroke="black" points="223.69,-167.52 219.18,-164.74 220.98,-169.73 223.69,-167.52"/>
</g>
<!-- 499410 -->
<!-- 4628148112&#45;&gt;499410 -->
<!-- 278210 -->
<!-- 4628148112&#45;&gt;278210 -->
<!-- 382679 -->
<!-- 4628142592&#45;&gt;382679 -->
<!-- 650159 -->
<!-- 4628142592&#45;&gt;650159 -->
<!-- 4628141008 -->
<g id="node19" class="node">
<title>4628141008</title>
<ellipse fill="lightblue" stroke="black" cx="256.4" cy="-84.39" rx="20.6" ry="20.6"/>
<text text-anchor="middle" x="256.4" y="-80.69" font-family="Helvetica,sans-Serif" font-size="14.00">13</text>
</g>
<!-- 4628142592&#45;&gt;4628141008 -->
<g id="edge18" class="edge">
<title>4628142592&#45;&gt;4628141008</title>
<path fill="none" stroke="black" d="M219.02,-131.45C225.48,-123.48 233.42,-113.7 240.32,-105.2"/>
<polygon fill="black" stroke="black" points="241.82,-106.13 243.61,-101.15 239.1,-103.93 241.82,-106.13"/>
</g>
<!-- 4628139760 -->
<g id="node20" class="node">
<title>4628139760</title>
<ellipse fill="lightblue" stroke="black" cx="206.4" cy="-20.8" rx="20.6" ry="20.6"/>
<text text-anchor="middle" x="206.4" y="-17.1" font-family="Helvetica,sans-Serif" font-size="14.00">12</text>
</g>
<!-- 4628141008&#45;&gt;4628139760 -->
<g id="edge19" class="edge">
<title>4628141008&#45;&gt;4628139760</title>
<path fill="none" stroke="black" d="M243.78,-67.85C237.32,-59.89 229.38,-50.1 222.48,-41.61"/>
<polygon fill="black" stroke="black" points="223.69,-40.33 219.18,-37.55 220.98,-42.54 223.69,-40.33"/>
</g>
<!-- 375368 -->
<!-- 4628141008&#45;&gt;375368 -->
<!-- 614822 -->
<!-- 4628141008&#45;&gt;614822 -->
</g>
</svg>
