<?xml version="1.0" encoding="UTF-8" standalone="no"?>
<!DOCTYPE svg PUBLIC "-//W3C//DTD SVG 1.1//EN"
 "http://www.w3.org/Graphics/SVG/1.1/DTD/svg11.dtd">
<!-- Generated by graphviz version 2.50.0 (0)
 -->
<!-- Pages: 1 -->
<svg width="509pt" height="495pt"
 viewBox="0.00 0.00 509.00 494.77" xmlns="http://www.w3.org/2000/svg" xmlns:xlink="http://www.w3.org/1999/xlink">
<g id="graph0" class="graph" transform="scale(1 1) rotate(0) translate(4 490.77)">
<polygon fill="white" stroke="transparent" points="-4,4 -4,-490.77 505,-490.77 505,4 -4,4"/>
<!-- 4574313072 -->
<g id="node1" class="node">
<title>4574313072</title>
<ellipse fill="lightblue" stroke="black" cx="249" cy="-465.97" rx="20.6" ry="20.6"/>
<text text-anchor="middle" x="249" y="-462.27" font-family="Helvetica,sans-Serif" font-size="14.00">14</text>
</g>
<!-- 4574312784 -->
<g id="node2" class="node">
<title>4574312784</title>
<ellipse fill="lightblue" stroke="black" cx="66" cy="-402.38" rx="18" ry="18"/>
<text text-anchor="middle" x="66" y="-398.68" font-family="Helvetica,sans-Serif" font-size="14.00">6</text>
</g>
<!-- 4574313072&#45;&gt;4574312784 -->
<g id="edge1" class="edge">
<title>4574313072&#45;&gt;4574312784</title>
<path fill="none" stroke="black" d="M229.42,-458.38C194.97,-446.78 123.77,-422.82 87.81,-410.72"/>
<polygon fill="black" stroke="black" points="88.06,-408.96 82.77,-409.02 86.95,-412.27 88.06,-408.96"/>
</g>
<!-- 395326 -->
<!-- 4574313072&#45;&gt;395326 -->
<!-- 4574313216 -->
<g id="node4" class="node">
<title>4574313216</title>
<ellipse fill="lightblue" stroke="black" cx="435" cy="-402.38" rx="20.6" ry="20.6"/>
<text text-anchor="middle" x="435" y="-398.68" font-family="Helvetica,sans-Serif" font-size="14.00">25</text>
</g>
<!-- 4574313072&#45;&gt;4574313216 -->
<g id="edge3" class="edge">
<title>4574313072&#45;&gt;4574313216</title>
<path fill="none" stroke="black" d="M268.55,-458.5C302.74,-447.18 373.29,-423.81 410.61,-411.45"/>
<polygon fill="black" stroke="black" points="411.23,-413.09 415.43,-409.86 410.13,-409.77 411.23,-413.09"/>
</g>
<!-- 4574335088 -->
<g id="node5" class="node">
<title>4574335088</title>
<ellipse fill="lightblue" stroke="black" cx="18" cy="-338.78" rx="18" ry="18"/>
<text text-anchor="middle" x="18" y="-335.08" font-family="Helvetica,sans-Serif" font-size="14.00">5</text>
</g>
<!-- 4574312784&#45;&gt;4574335088 -->
<g id="edge4" class="edge">
<title>4574312784&#45;&gt;4574335088</title>
<path fill="none" stroke="black" d="M55.35,-387.71C48.39,-378.77 39.23,-367.02 31.73,-357.39"/>
<polygon fill="black" stroke="black" points="33.08,-356.28 28.62,-353.41 30.32,-358.43 33.08,-356.28"/>
</g>
<!-- 130797 -->
<!-- 4574312784&#45;&gt;130797 -->
<!-- 4574334608 -->
<g id="node7" class="node">
<title>4574334608</title>
<ellipse fill="lightblue" stroke="black" cx="114" cy="-338.78" rx="18" ry="18"/>
<text text-anchor="middle" x="114" y="-335.08" font-family="Helvetica,sans-Serif" font-size="14.00">8</text>
</g>
<!-- 4574312784&#45;&gt;4574334608 -->
<g id="edge6" class="edge">
<title>4574312784&#45;&gt;4574334608</title>
<path fill="none" stroke="black" d="M76.65,-387.71C83.61,-378.77 92.77,-367.02 100.27,-357.39"/>
<polygon fill="black" stroke="black" points="101.68,-358.43 103.38,-353.41 98.92,-356.28 101.68,-358.43"/>
</g>
<!-- 4574308032 -->
<g id="node14" class="node">
<title>4574308032</title>
<ellipse fill="lightblue" stroke="black" cx="385" cy="-338.78" rx="20.6" ry="20.6"/>
<text text-anchor="middle" x="385" y="-335.08" font-family="Helvetica,sans-Serif" font-size="14.00">23</text>
</g>
<!-- 4574313216&#45;&gt;4574308032 -->
<g id="edge13" class="edge">
<title>4574313216&#45;&gt;4574308032</title>
<path fill="none" stroke="black" d="M422.38,-385.83C415.92,-377.87 407.98,-368.09 401.08,-359.59"/>
<polygon fill="black" stroke="black" points="402.3,-358.31 397.79,-355.53 399.58,-360.52 402.3,-358.31"/>
</g>
<!-- 811414 -->
<!-- 4574313216&#45;&gt;811414 -->
<!-- 167811 -->
<!-- 4574313216&#45;&gt;167811 -->
<!-- 4574331680 -->
<g id="node8" class="node">
<title>4574331680</title>
<ellipse fill="lightblue" stroke="black" cx="66" cy="-275.18" rx="18" ry="18"/>
<text text-anchor="middle" x="66" y="-271.48" font-family="Helvetica,sans-Serif" font-size="14.00">7</text>
</g>
<!-- 4574334608&#45;&gt;4574331680 -->
<g id="edge7" class="edge">
<title>4574334608&#45;&gt;4574331680</title>
<path fill="none" stroke="black" d="M103.35,-324.11C96.39,-315.18 87.23,-303.43 79.73,-293.8"/>
<polygon fill="black" stroke="black" points="81.08,-292.68 76.62,-289.82 78.32,-294.84 81.08,-292.68"/>
</g>
<!-- 541291 -->
<!-- 4574334608&#45;&gt;541291 -->
<!-- 4574334896 -->
<g id="node10" class="node">
<title>4574334896</title>
<ellipse fill="lightblue" stroke="black" cx="164" cy="-275.18" rx="20.6" ry="20.6"/>
<text text-anchor="middle" x="164" y="-271.48" font-family="Helvetica,sans-Serif" font-size="14.00">12</text>
</g>
<!-- 4574334608&#45;&gt;4574334896 -->
<g id="edge9" class="edge">
<title>4574334608&#45;&gt;4574334896</title>
<path fill="none" stroke="black" d="M124.85,-324.41C131.52,-316.19 140.21,-305.5 147.7,-296.27"/>
<polygon fill="black" stroke="black" points="149.25,-297.13 151.04,-292.14 146.53,-294.92 149.25,-297.13"/>
</g>
<!-- 4574331488 -->
<g id="node11" class="node">
<title>4574331488</title>
<ellipse fill="lightblue" stroke="black" cx="114" cy="-211.59" rx="20.6" ry="20.6"/>
<text text-anchor="middle" x="114" y="-207.89" font-family="Helvetica,sans-Serif" font-size="14.00">10</text>
</g>
<!-- 4574334896&#45;&gt;4574331488 -->
<g id="edge10" class="edge">
<title>4574334896&#45;&gt;4574331488</title>
<path fill="none" stroke="black" d="M151.38,-258.64C144.92,-250.68 136.98,-240.89 130.08,-232.39"/>
<polygon fill="black" stroke="black" points="131.3,-231.12 126.79,-228.34 128.58,-233.32 131.3,-231.12"/>
</g>
<!-- 506428 -->
<!-- 4574334896&#45;&gt;506428 -->
<!-- 4574334848 -->
<g id="node13" class="node">
<title>4574334848</title>
<ellipse fill="lightblue" stroke="black" cx="214" cy="-211.59" rx="20.6" ry="20.6"/>
<text text-anchor="middle" x="214" y="-207.89" font-family="Helvetica,sans-Serif" font-size="14.00">13</text>
</g>
<!-- 4574334896&#45;&gt;4574334848 -->
<g id="edge12" class="edge">
<title>4574334896&#45;&gt;4574334848</title>
<path fill="none" stroke="black" d="M176.62,-258.64C183.08,-250.68 191.02,-240.89 197.92,-232.39"/>
<polygon fill="black" stroke="black" points="199.42,-233.32 201.21,-228.34 196.7,-231.12 199.42,-233.32"/>
</g>
<!-- 4574335040 -->
<g id="node17" class="node">
<title>4574335040</title>
<ellipse fill="lightblue" stroke="black" cx="335" cy="-275.18" rx="20.6" ry="20.6"/>
<text text-anchor="middle" x="335" y="-271.48" font-family="Helvetica,sans-Serif" font-size="14.00">22</text>
</g>
<!-- 4574308032&#45;&gt;4574335040 -->
<g id="edge16" class="edge">
<title>4574308032&#45;&gt;4574335040</title>
<path fill="none" stroke="black" d="M372.38,-322.24C365.92,-314.27 357.98,-304.49 351.08,-295.99"/>
<polygon fill="black" stroke="black" points="352.3,-294.72 347.79,-291.94 349.58,-296.92 352.3,-294.72"/>
</g>
<!-- 210370 -->
<!-- 4574308032&#45;&gt;210370 -->
<!-- 716587 -->
<!-- 4574308032&#45;&gt;716587 -->
<!-- 4574335280 -->
<g id="node20" class="node">
<title>4574335280</title>
<ellipse fill="lightblue" stroke="black" cx="285" cy="-211.59" rx="20.6" ry="20.6"/>
<text text-anchor="middle" x="285" y="-207.89" font-family="Helvetica,sans-Serif" font-size="14.00">15</text>
</g>
<!-- 4574335040&#45;&gt;4574335280 -->
<g id="edge19" class="edge">
<title>4574335040&#45;&gt;4574335280</title>
<path fill="none" stroke="black" d="M322.38,-258.64C315.92,-250.68 307.98,-240.89 301.08,-232.39"/>
<polygon fill="black" stroke="black" points="302.3,-231.12 297.79,-228.34 299.58,-233.32 302.3,-231.12"/>
</g>
<!-- 346003 -->
<!-- 4574335040&#45;&gt;346003 -->
<!-- 923127 -->
<!-- 4574335040&#45;&gt;923127 -->
<!-- 906896 -->
<!-- 4574335280&#45;&gt;906896 -->
<!-- 693413 -->
<!-- 4574335280&#45;&gt;693413 -->
<!-- 4574334944 -->
<g id="node25" class="node">
<title>4574334944</title>
<ellipse fill="lightblue" stroke="black" cx="335" cy="-147.99" rx="20.6" ry="20.6"/>
<text text-anchor="middle" x="335" y="-144.29" font-family="Helvetica,sans-Serif" font-size="14.00">16</text>
</g>
<!-- 4574335280&#45;&gt;4574334944 -->
<g id="edge24" class="edge">
<title>4574335280&#45;&gt;4574334944</title>
<path fill="none" stroke="black" d="M297.62,-195.04C304.08,-187.08 312.02,-177.3 318.92,-168.8"/>
<polygon fill="black" stroke="black" points="320.42,-169.73 322.21,-164.74 317.7,-167.52 320.42,-169.73"/>
</g>
<!-- 713711 -->
<!-- 4574334944&#45;&gt;713711 -->
<!-- 378310 -->
<!-- 4574334944&#45;&gt;378310 -->
<!-- 4574334704 -->
<g id="node28" class="node">
<title>4574334704</title>
<ellipse fill="lightblue" stroke="black" cx="385" cy="-84.39" rx="20.6" ry="20.6"/>
<text text-anchor="middle" x="385" y="-80.69" font-family="Helvetica,sans-Serif" font-size="14.00">18</text>
</g>
<!-- 4574334944&#45;&gt;4574334704 -->
<g id="edge27" class="edge">
<title>4574334944&#45;&gt;4574334704</title>
<path fill="none" stroke="black" d="M347.62,-131.45C354.08,-123.48 362.02,-113.7 368.92,-105.2"/>
<polygon fill="black" stroke="black" points="370.42,-106.13 372.21,-101.15 367.7,-103.93 370.42,-106.13"/>
</g>
<!-- 224566 -->
<!-- 4574334704&#45;&gt;224566 -->
<!-- 343715 -->
<!-- 4574334704&#45;&gt;343715 -->
<!-- 4574331344 -->
<g id="node31" class="node">
<title>4574331344</title>
<ellipse fill="lightblue" stroke="black" cx="435" cy="-20.8" rx="20.6" ry="20.6"/>
<text text-anchor="middle" x="435" y="-17.1" font-family="Helvetica,sans-Serif" font-size="14.00">19</text>
</g>
<!-- 4574334704&#45;&gt;4574331344 -->
<g id="edge30" class="edge">
<title>4574334704&#45;&gt;4574331344</title>
<path fill="none" stroke="black" d="M397.62,-67.85C404.08,-59.89 412.02,-50.1 418.92,-41.61"/>
<polygon fill="black" stroke="black" points="420.42,-42.54 422.21,-37.55 417.7,-40.33 420.42,-42.54"/>
</g>
</g>
</svg>
