<?xml version="1.0" encoding="UTF-8" standalone="no"?>
<!DOCTYPE svg PUBLIC "-//W3C//DTD SVG 1.1//EN"
 "http://www.w3.org/Graphics/SVG/1.1/DTD/svg11.dtd">
<!-- Generated by graphviz version 2.50.0 (0)
 -->
<!-- Pages: 1 -->
<svg width="359pt" height="379pt"
 viewBox="0.00 0.00 359.00 379.28" xmlns="http://www.w3.org/2000/svg" xmlns:xlink="http://www.w3.org/1999/xlink">
<g id="graph0" class="graph" transform="scale(1 1) rotate(0) translate(4 375.28)">
<polygon fill="white" stroke="transparent" points="-4,4 -4,-375.28 355,-375.28 355,4 -4,4"/>
<!-- 4627581600 -->
<g id="node1" class="node">
<title>4627581600</title>
<ellipse fill="lightblue" stroke="black" cx="204" cy="-350.48" rx="20.6" ry="20.6"/>
<text text-anchor="middle" x="204" y="-346.78" font-family="Helvetica,sans-Serif" font-size="14.00">19</text>
</g>
<!-- 4627582608 -->
<g id="node2" class="node">
<title>4627582608</title>
<ellipse fill="lightblue" stroke="black" cx="156" cy="-288.83" rx="18.7" ry="18.7"/>
<text text-anchor="middle" x="156" y="-285.13" font-family="Helvetica,sans-Serif" font-size="14.00">&#45;4</text>
</g>
<!-- 4627581600&#45;&gt;4627582608 -->
<g id="edge1" class="edge">
<title>4627581600&#45;&gt;4627582608</title>
<path fill="none" stroke="black" d="M191.39,-333.81C184.99,-325.86 177.19,-316.16 170.54,-307.9"/>
<polygon fill="black" stroke="black" points="171.88,-306.77 167.38,-303.97 169.15,-308.96 171.88,-306.77"/>
</g>
<!-- 389853 -->
<!-- 4627581600&#45;&gt;389853 -->
<!-- 491854 -->
<!-- 4627581600&#45;&gt;491854 -->
<!-- 4628152048 -->
<g id="node5" class="node">
<title>4628152048</title>
<ellipse fill="lightblue" stroke="black" cx="72" cy="-224.59" rx="23.3" ry="23.3"/>
<text text-anchor="middle" x="72" y="-220.89" font-family="Helvetica,sans-Serif" font-size="14.00">&#45;19</text>
</g>
<!-- 4627582608&#45;&gt;4628152048 -->
<g id="edge4" class="edge">
<title>4627582608&#45;&gt;4628152048</title>
<path fill="none" stroke="black" d="M140.98,-276.7C128.04,-267.11 109.18,-253.13 94.44,-242.22"/>
<polygon fill="black" stroke="black" points="95.46,-240.8 90.4,-239.22 93.38,-243.61 95.46,-240.8"/>
</g>
<!-- 910631 -->
<!-- 4627582608&#45;&gt;910631 -->
<!-- 4628148112 -->
<g id="node7" class="node">
<title>4628148112</title>
<ellipse fill="lightblue" stroke="black" cx="235" cy="-224.59" rx="18" ry="18"/>
<text text-anchor="middle" x="235" y="-220.89" font-family="Helvetica,sans-Serif" font-size="14.00">2</text>
</g>
<!-- 4627582608&#45;&gt;4628148112 -->
<g id="edge6" class="edge">
<title>4627582608&#45;&gt;4628148112</title>
<path fill="none" stroke="black" d="M170.49,-276.42C183.57,-266.11 202.86,-250.91 216.94,-239.81"/>
<polygon fill="black" stroke="black" points="218.29,-240.98 221.13,-236.51 216.12,-238.23 218.29,-240.98"/>
</g>
<!-- 258550 -->
<!-- 4628152048&#45;&gt;258550 -->
<!-- 399253 -->
<!-- 4628152048&#45;&gt;399253 -->
<!-- 4628148352 -->
<g id="node10" class="node">
<title>4628148352</title>
<ellipse fill="lightblue" stroke="black" cx="120" cy="-158.39" rx="18.7" ry="18.7"/>
<text text-anchor="middle" x="120" y="-154.69" font-family="Helvetica,sans-Serif" font-size="14.00">&#45;5</text>
</g>
<!-- 4628152048&#45;&gt;4628148352 -->
<g id="edge9" class="edge">
<title>4628152048&#45;&gt;4628148352</title>
<path fill="none" stroke="black" d="M85.63,-205.36C92.01,-196.82 99.61,-186.67 106.03,-178.07"/>
<polygon fill="black" stroke="black" points="107.49,-179.04 109.08,-173.99 104.69,-176.95 107.49,-179.04"/>
</g>
<!-- 13751 -->
<!-- 4628148112&#45;&gt;13751 -->
<!-- 766701 -->
<!-- 4628148112&#45;&gt;766701 -->
<!-- 4628139760 -->
<g id="node19" class="node">
<title>4628139760</title>
<ellipse fill="lightblue" stroke="black" cx="285" cy="-158.39" rx="20.6" ry="20.6"/>
<text text-anchor="middle" x="285" y="-154.69" font-family="Helvetica,sans-Serif" font-size="14.00">13</text>
</g>
<!-- 4628148112&#45;&gt;4628139760 -->
<g id="edge18" class="edge">
<title>4628148112&#45;&gt;4628139760</title>
<path fill="none" stroke="black" d="M245.6,-209.97C252.53,-201.08 261.68,-189.33 269.43,-179.38"/>
<polygon fill="black" stroke="black" points="270.96,-180.27 272.65,-175.25 268.2,-178.12 270.96,-180.27"/>
</g>
<!-- 4628137120 -->
<g id="node11" class="node">
<title>4628137120</title>
<ellipse fill="lightblue" stroke="black" cx="66" cy="-92.19" rx="23.3" ry="23.3"/>
<text text-anchor="middle" x="66" y="-88.49" font-family="Helvetica,sans-Serif" font-size="14.00">&#45;17</text>
</g>
<!-- 4628148352&#45;&gt;4628137120 -->
<g id="edge10" class="edge">
<title>4628148352&#45;&gt;4628137120</title>
<path fill="none" stroke="black" d="M108.28,-143.46C101.23,-135.07 92.09,-124.21 84.12,-114.74"/>
<polygon fill="black" stroke="black" points="85.34,-113.47 80.78,-110.77 82.66,-115.72 85.34,-113.47"/>
</g>
<!-- 570174 -->
<!-- 4628148352&#45;&gt;570174 -->
<!-- 106927 -->
<!-- 4628148352&#45;&gt;106927 -->
<!-- 601820 -->
<!-- 4628137120&#45;&gt;601820 -->
<!-- 261442 -->
<!-- 4628137120&#45;&gt;261442 -->
<!-- 4628152096 -->
<g id="node16" class="node">
<title>4628152096</title>
<ellipse fill="lightblue" stroke="black" cx="119" cy="-23.4" rx="23.3" ry="23.3"/>
<text text-anchor="middle" x="119" y="-19.7" font-family="Helvetica,sans-Serif" font-size="14.00">&#45;10</text>
</g>
<!-- 4628137120&#45;&gt;4628152096 -->
<g id="edge15" class="edge">
<title>4628137120&#45;&gt;4628152096</title>
<path fill="none" stroke="black" d="M80.2,-73.29C86.74,-65.06 94.55,-55.21 101.45,-46.51"/>
<polygon fill="black" stroke="black" points="103.02,-47.35 104.76,-42.35 100.28,-45.18 103.02,-47.35"/>
</g>
<!-- 4628137072 -->
<g id="node20" class="node">
<title>4628137072</title>
<ellipse fill="lightblue" stroke="black" cx="237" cy="-92.19" rx="18" ry="18"/>
<text text-anchor="middle" x="237" y="-88.49" font-family="Helvetica,sans-Serif" font-size="14.00">9</text>
</g>
<!-- 4628139760&#45;&gt;4628137072 -->
<g id="edge19" class="edge">
<title>4628139760&#45;&gt;4628137072</title>
<path fill="none" stroke="black" d="M272.89,-141.19C266.05,-132.04 257.48,-120.59 250.44,-111.17"/>
<polygon fill="black" stroke="black" points="251.72,-109.95 247.32,-107 248.91,-112.05 251.72,-109.95"/>
</g>
<!-- 227257 -->
<!-- 4628139760&#45;&gt;227257 -->
<!-- 427977 -->
<!-- 4628139760&#45;&gt;427977 -->
<!-- 293058 -->
<!-- 4628137072&#45;&gt;293058 -->
<!-- 190920 -->
<!-- 4628137072&#45;&gt;190920 -->
<!-- 4628139424 -->
<g id="node25" class="node">
<title>4628139424</title>
<ellipse fill="lightblue" stroke="black" cx="287" cy="-23.4" rx="20.6" ry="20.6"/>
<text text-anchor="middle" x="287" y="-19.7" font-family="Helvetica,sans-Serif" font-size="14.00">12</text>
</g>
<!-- 4628137072&#45;&gt;4628139424 -->
<g id="edge24" class="edge">
<title>4628137072&#45;&gt;4628139424</title>
<path fill="none" stroke="black" d="M247.36,-77.35C254.43,-67.91 263.91,-55.24 271.83,-44.66"/>
<polygon fill="black" stroke="black" points="273.3,-45.62 274.89,-40.57 270.5,-43.53 273.3,-45.62"/>
</g>
</g>
</svg>
