<?xml version="1.0" encoding="UTF-8" standalone="no"?>
<!DOCTYPE svg PUBLIC "-//W3C//DTD SVG 1.1//EN"
 "http://www.w3.org/Graphics/SVG/1.1/DTD/svg11.dtd">
<!-- Generated by graphviz version 2.50.0 (0)
 -->
<!-- Pages: 1 -->
<svg width="573pt" height="395pt"
 viewBox="0.00 0.00 573.00 395.39" xmlns="http://www.w3.org/2000/svg" xmlns:xlink="http://www.w3.org/1999/xlink">
<g id="graph0" class="graph" transform="scale(1 1) rotate(0) translate(4 391.39)">
<polygon fill="white" stroke="transparent" points="-4,4 -4,-391.39 569,-391.39 569,4 -4,4"/>
<!-- 4574346944 -->
<g id="node1" class="node">
<title>4574346944</title>
<ellipse fill="lightblue" stroke="black" cx="370" cy="-369.39" rx="18" ry="18"/>
<text text-anchor="middle" x="370" y="-365.69" font-family="Helvetica,sans-Serif" font-size="14.00">R</text>
</g>
<!-- 4574337104 -->
<g id="node2" class="node">
<title>4574337104</title>
<ellipse fill="lightblue" stroke="black" cx="290" cy="-309.9" rx="18" ry="18"/>
<text text-anchor="middle" x="290" y="-306.2" font-family="Helvetica,sans-Serif" font-size="14.00">P</text>
</g>
<!-- 4574346944&#45;&gt;4574337104 -->
<g id="edge1" class="edge">
<title>4574346944&#45;&gt;4574337104</title>
<path fill="none" stroke="black" d="M355.7,-358.11C342.5,-348.63 322.83,-334.49 308.46,-324.16"/>
<polygon fill="black" stroke="black" points="309.26,-322.58 304.18,-321.09 307.22,-325.42 309.26,-322.58"/>
</g>
<!-- 800500 -->
<!-- 4574346944&#45;&gt;800500 -->
<!-- 4574337632 -->
<g id="node4" class="node">
<title>4574337632</title>
<ellipse fill="lightblue" stroke="black" cx="451" cy="-309.9" rx="19.5" ry="19.5"/>
<text text-anchor="middle" x="451" y="-306.2" font-family="Helvetica,sans-Serif" font-size="14.00">W</text>
</g>
<!-- 4574346944&#45;&gt;4574337632 -->
<g id="edge3" class="edge">
<title>4574346944&#45;&gt;4574337632</title>
<path fill="none" stroke="black" d="M384.48,-358.11C397.51,-348.86 416.78,-335.19 431.22,-324.93"/>
<polygon fill="black" stroke="black" points="432.48,-326.19 435.54,-321.87 430.45,-323.34 432.48,-326.19"/>
</g>
<!-- 4574311056 -->
<g id="node5" class="node">
<title>4574311056</title>
<ellipse fill="lightblue" stroke="black" cx="242" cy="-250.4" rx="18" ry="18"/>
<text text-anchor="middle" x="242" y="-246.7" font-family="Helvetica,sans-Serif" font-size="14.00">N</text>
</g>
<!-- 4574337104&#45;&gt;4574311056 -->
<g id="edge4" class="edge">
<title>4574337104&#45;&gt;4574311056</title>
<path fill="none" stroke="black" d="M278.87,-295.56C272.2,-287.58 263.66,-277.34 256.48,-268.74"/>
<polygon fill="black" stroke="black" points="257.62,-267.38 253.07,-264.66 254.93,-269.62 257.62,-267.38"/>
</g>
<!-- 23599 -->
<!-- 4574337104&#45;&gt;23599 -->
<!-- 829546 -->
<!-- 4574337104&#45;&gt;829546 -->
<!-- 4574313168 -->
<g id="node23" class="node">
<title>4574313168</title>
<ellipse fill="lightblue" stroke="black" cx="403" cy="-250.4" rx="18" ry="18"/>
<text text-anchor="middle" x="403" y="-246.7" font-family="Helvetica,sans-Serif" font-size="14.00">V</text>
</g>
<!-- 4574337632&#45;&gt;4574313168 -->
<g id="edge22" class="edge">
<title>4574337632&#45;&gt;4574313168</title>
<path fill="none" stroke="black" d="M438.89,-294.39C432.4,-286.61 424.35,-276.97 417.53,-268.8"/>
<polygon fill="black" stroke="black" points="418.83,-267.63 414.28,-264.91 416.15,-269.87 418.83,-267.63"/>
</g>
<!-- 915855 -->
<!-- 4574337632&#45;&gt;915855 -->
<!-- 4574307648 -->
<g id="node25" class="node">
<title>4574307648</title>
<ellipse fill="lightblue" stroke="black" cx="499" cy="-250.4" rx="18" ry="18"/>
<text text-anchor="middle" x="499" y="-246.7" font-family="Helvetica,sans-Serif" font-size="14.00">X</text>
</g>
<!-- 4574337632&#45;&gt;4574307648 -->
<g id="edge24" class="edge">
<title>4574337632&#45;&gt;4574307648</title>
<path fill="none" stroke="black" d="M463.11,-294.39C469.6,-286.61 477.65,-276.97 484.47,-268.8"/>
<polygon fill="black" stroke="black" points="485.85,-269.87 487.72,-264.91 483.17,-267.63 485.85,-269.87"/>
</g>
<!-- 4574312112 -->
<g id="node8" class="node">
<title>4574312112</title>
<ellipse fill="lightblue" stroke="black" cx="194" cy="-192.2" rx="18" ry="18"/>
<text text-anchor="middle" x="194" y="-188.5" font-family="Helvetica,sans-Serif" font-size="14.00">F</text>
</g>
<!-- 4574311056&#45;&gt;4574312112 -->
<g id="edge7" class="edge">
<title>4574311056&#45;&gt;4574312112</title>
<path fill="none" stroke="black" d="M230.62,-236.08C224.05,-228.38 215.71,-218.61 208.64,-210.34"/>
<polygon fill="black" stroke="black" points="209.87,-209.09 205.29,-206.42 207.21,-211.36 209.87,-209.09"/>
</g>
<!-- 972164 -->
<!-- 4574311056&#45;&gt;972164 -->
<!-- 4574308416 -->
<g id="node10" class="node">
<title>4574308416</title>
<ellipse fill="lightblue" stroke="black" cx="290" cy="-192.2" rx="18.4" ry="18.4"/>
<text text-anchor="middle" x="290" y="-188.5" font-family="Helvetica,sans-Serif" font-size="14.00">O</text>
</g>
<!-- 4574311056&#45;&gt;4574308416 -->
<g id="edge9" class="edge">
<title>4574311056&#45;&gt;4574308416</title>
<path fill="none" stroke="black" d="M253.38,-236.08C259.86,-228.49 268.05,-218.89 275.05,-210.7"/>
<polygon fill="black" stroke="black" points="276.46,-211.75 278.37,-206.81 273.79,-209.48 276.46,-211.75"/>
</g>
<!-- 4574301840 -->
<g id="node11" class="node">
<title>4574301840</title>
<ellipse fill="lightblue" stroke="black" cx="114" cy="-134" rx="18" ry="18"/>
<text text-anchor="middle" x="114" y="-130.3" font-family="Helvetica,sans-Serif" font-size="14.00">E</text>
</g>
<!-- 4574312112&#45;&gt;4574301840 -->
<g id="edge10" class="edge">
<title>4574312112&#45;&gt;4574301840</title>
<path fill="none" stroke="black" d="M179.7,-181.15C166.58,-171.94 147.08,-158.24 132.72,-148.15"/>
<polygon fill="black" stroke="black" points="133.55,-146.59 128.45,-145.15 131.53,-149.46 133.55,-146.59"/>
</g>
<!-- 728870 -->
<!-- 4574312112&#45;&gt;728870 -->
<!-- 4574299440 -->
<g id="node13" class="node">
<title>4574299440</title>
<ellipse fill="lightblue" stroke="black" cx="275" cy="-134" rx="18" ry="18"/>
<text text-anchor="middle" x="275" y="-130.3" font-family="Helvetica,sans-Serif" font-size="14.00">J</text>
</g>
<!-- 4574312112&#45;&gt;4574299440 -->
<g id="edge12" class="edge">
<title>4574312112&#45;&gt;4574299440</title>
<path fill="none" stroke="black" d="M208.48,-181.15C221.84,-171.88 241.76,-158.06 256.31,-147.97"/>
<polygon fill="black" stroke="black" points="257.53,-149.25 260.64,-144.96 255.54,-146.37 257.53,-149.25"/>
</g>
<!-- 4574312352 -->
<g id="node14" class="node">
<title>4574312352</title>
<ellipse fill="lightblue" stroke="black" cx="66" cy="-76" rx="18" ry="18"/>
<text text-anchor="middle" x="66" y="-72.3" font-family="Helvetica,sans-Serif" font-size="14.00">B</text>
</g>
<!-- 4574301840&#45;&gt;4574312352 -->
<g id="edge13" class="edge">
<title>4574301840&#45;&gt;4574312352</title>
<path fill="none" stroke="black" d="M102.62,-119.73C96.05,-112.06 87.71,-102.32 80.64,-94.08"/>
<polygon fill="black" stroke="black" points="81.88,-92.83 77.29,-90.18 79.22,-95.11 81.88,-92.83"/>
</g>
<!-- 247820 -->
<!-- 4574301840&#45;&gt;247820 -->
<!-- 683321 -->
<!-- 4574301840&#45;&gt;683321 -->
<!-- 688122 -->
<!-- 4574299440&#45;&gt;688122 -->
<!-- 357092 -->
<!-- 4574299440&#45;&gt;357092 -->
<!-- 4574304048 -->
<g id="node22" class="node">
<title>4574304048</title>
<ellipse fill="lightblue" stroke="black" cx="323" cy="-76" rx="18" ry="18"/>
<text text-anchor="middle" x="323" y="-72.3" font-family="Helvetica,sans-Serif" font-size="14.00">K</text>
</g>
<!-- 4574299440&#45;&gt;4574304048 -->
<g id="edge21" class="edge">
<title>4574299440&#45;&gt;4574304048</title>
<path fill="none" stroke="black" d="M286.38,-119.73C292.95,-112.06 301.29,-102.32 308.36,-94.08"/>
<polygon fill="black" stroke="black" points="309.78,-95.11 311.71,-90.18 307.12,-92.83 309.78,-95.11"/>
</g>
<!-- 4574697264 -->
<g id="node17" class="node">
<title>4574697264</title>
<ellipse fill="lightblue" stroke="black" cx="18" cy="-18" rx="18" ry="18"/>
<text text-anchor="middle" x="18" y="-14.3" font-family="Helvetica,sans-Serif" font-size="14.00">A</text>
</g>
<!-- 4574312352&#45;&gt;4574697264 -->
<g id="edge16" class="edge">
<title>4574312352&#45;&gt;4574697264</title>
<path fill="none" stroke="black" d="M54.62,-61.73C48.05,-54.06 39.71,-44.32 32.64,-36.08"/>
<polygon fill="black" stroke="black" points="33.88,-34.83 29.29,-32.18 31.22,-37.11 33.88,-34.83"/>
</g>
<!-- 191011 -->
<!-- 4574312352&#45;&gt;191011 -->
<!-- 4574310624 -->
<g id="node19" class="node">
<title>4574310624</title>
<ellipse fill="lightblue" stroke="black" cx="114" cy="-18" rx="18" ry="18"/>
<text text-anchor="middle" x="114" y="-14.3" font-family="Helvetica,sans-Serif" font-size="14.00">D</text>
</g>
<!-- 4574312352&#45;&gt;4574310624 -->
<g id="edge18" class="edge">
<title>4574312352&#45;&gt;4574310624</title>
<path fill="none" stroke="black" d="M77.38,-61.73C83.95,-54.06 92.29,-44.32 99.36,-36.08"/>
<polygon fill="black" stroke="black" points="100.78,-37.11 102.71,-32.18 98.12,-34.83 100.78,-37.11"/>
</g>
<!-- 657693 -->
<!-- 4574307648&#45;&gt;657693 -->
<!-- 91505 -->
<!-- 4574307648&#45;&gt;91505 -->
<!-- 4574312640 -->
<g id="node28" class="node">
<title>4574312640</title>
<ellipse fill="lightblue" stroke="black" cx="547" cy="-192.2" rx="18" ry="18"/>
<text text-anchor="middle" x="547" y="-188.5" font-family="Helvetica,sans-Serif" font-size="14.00">Y</text>
</g>
<!-- 4574307648&#45;&gt;4574312640 -->
<g id="edge27" class="edge">
<title>4574307648&#45;&gt;4574312640</title>
<path fill="none" stroke="black" d="M510.38,-236.08C516.95,-228.38 525.29,-218.61 532.36,-210.34"/>
<polygon fill="black" stroke="black" points="533.79,-211.36 535.71,-206.42 531.13,-209.09 533.79,-211.36"/>
</g>
</g>
</svg>
