<?xml version="1.0" encoding="UTF-8" standalone="no"?>
<!DOCTYPE svg PUBLIC "-//W3C//DTD SVG 1.1//EN"
 "http://www.w3.org/Graphics/SVG/1.1/DTD/svg11.dtd">
<!-- Generated by graphviz version 2.50.0 (0)
 -->
<!-- Pages: 1 -->
<svg width="397pt" height="277pt"
 viewBox="0.00 0.00 397.47 276.94" xmlns="http://www.w3.org/2000/svg" xmlns:xlink="http://www.w3.org/1999/xlink">
<g id="graph0" class="graph" transform="scale(1 1) rotate(0) translate(4 272.94)">
<polygon fill="white" stroke="transparent" points="-4,4 -4,-272.94 393.47,-272.94 393.47,4 -4,4"/>
<!-- 4636142592 -->
<g id="node1" class="node">
<title>4636142592</title>
<ellipse fill="lightblue" stroke="black" cx="194" cy="-250.94" rx="18" ry="18"/>
<text text-anchor="middle" x="194" y="-247.84" font-family="Helvetica,sans-Serif" font-size="12.00">3</text>
</g>
<!-- 4636142736 -->
<g id="node2" class="node">
<title>4636142736</title>
<ellipse fill="lightblue" stroke="black" cx="114" cy="-192.94" rx="18" ry="18"/>
<text text-anchor="middle" x="114" y="-189.84" font-family="Helvetica,sans-Serif" font-size="12.00">2</text>
</g>
<!-- 4636142592&#45;&gt;4636142736 -->
<g id="edge1" class="edge">
<title>4636142592&#45;&gt;4636142736</title>
<path fill="none" stroke="black" d="M179.7,-239.92C166.81,-230.9 147.75,-217.56 133.47,-207.56"/>
<polygon fill="black" stroke="black" points="134.57,-205.77 128.45,-204.05 132.16,-209.21 134.57,-205.77"/>
</g>
<!-- 824470 -->
<!-- 4636142592&#45;&gt;824470 -->
<!-- 4636143120 -->
<g id="node4" class="node">
<title>4636143120</title>
<ellipse fill="lightblue" stroke="black" cx="275" cy="-192.94" rx="18" ry="18"/>
<text text-anchor="middle" x="275" y="-189.84" font-family="Helvetica,sans-Serif" font-size="12.00">1</text>
</g>
<!-- 4636142592&#45;&gt;4636143120 -->
<g id="edge3" class="edge">
<title>4636142592&#45;&gt;4636143120</title>
<path fill="none" stroke="black" d="M208.48,-239.92C221.61,-230.85 241.07,-217.39 255.55,-207.38"/>
<polygon fill="black" stroke="black" points="256.9,-209 260.64,-203.86 254.51,-205.54 256.9,-209"/>
</g>
<!-- 4636139280 -->
<g id="node5" class="node">
<title>4636139280</title>
<ellipse fill="lightblue" stroke="black" cx="66" cy="-134.94" rx="18" ry="18"/>
<text text-anchor="middle" x="66" y="-131.84" font-family="Helvetica,sans-Serif" font-size="12.00">4</text>
</g>
<!-- 4636142736&#45;&gt;4636139280 -->
<g id="edge4" class="edge">
<title>4636142736&#45;&gt;4636139280</title>
<path fill="none" stroke="black" d="M102.62,-178.66C96.29,-171.27 88.31,-161.96 81.42,-153.92"/>
<polygon fill="black" stroke="black" points="82.79,-152.3 77.29,-149.11 79.6,-155.03 82.79,-152.3"/>
</g>
<!-- 600058 -->
<!-- 4636142736&#45;&gt;600058 -->
<!-- 536507 -->
<!-- 4636142736&#45;&gt;536507 -->
<!-- 4636143312 -->
<g id="node11" class="node">
<title>4636143312</title>
<ellipse fill="lightblue" stroke="black" cx="227" cy="-134.94" rx="18" ry="18"/>
<text text-anchor="middle" x="227" y="-131.84" font-family="Helvetica,sans-Serif" font-size="12.00">5</text>
</g>
<!-- 4636143120&#45;&gt;4636143312 -->
<g id="edge10" class="edge">
<title>4636143120&#45;&gt;4636143312</title>
<path fill="none" stroke="black" d="M263.62,-178.66C257.29,-171.27 249.31,-161.96 242.42,-153.92"/>
<polygon fill="black" stroke="black" points="243.79,-152.3 238.29,-149.11 240.6,-155.03 243.79,-152.3"/>
</g>
<!-- 580532 -->
<!-- 4636143120&#45;&gt;580532 -->
<!-- 4636136064 -->
<g id="node13" class="node">
<title>4636136064</title>
<ellipse fill="lightblue" stroke="black" cx="323" cy="-134.94" rx="18" ry="18"/>
<text text-anchor="middle" x="323" y="-131.84" font-family="Helvetica,sans-Serif" font-size="12.00">6</text>
</g>
<!-- 4636143120&#45;&gt;4636136064 -->
<g id="edge12" class="edge">
<title>4636143120&#45;&gt;4636136064</title>
<path fill="none" stroke="black" d="M286.38,-178.66C292.71,-171.27 300.69,-161.96 307.58,-153.92"/>
<polygon fill="black" stroke="black" points="309.4,-155.03 311.71,-149.11 306.21,-152.3 309.4,-155.03"/>
</g>
<!-- 4636143024 -->
<g id="node8" class="node">
<title>4636143024</title>
<ellipse fill="lightblue" stroke="black" cx="18" cy="-76.47" rx="18" ry="18"/>
<text text-anchor="middle" x="18" y="-73.37" font-family="Helvetica,sans-Serif" font-size="12.00">7</text>
</g>
<!-- 4636139280&#45;&gt;4636143024 -->
<g id="edge7" class="edge">
<title>4636139280&#45;&gt;4636143024</title>
<path fill="none" stroke="black" d="M54.62,-120.55C48.29,-113.1 40.31,-103.71 33.42,-95.61"/>
<polygon fill="black" stroke="black" points="34.78,-93.97 29.29,-90.75 31.58,-96.69 34.78,-93.97"/>
</g>
<!-- 968434 -->
<!-- 4636139280&#45;&gt;968434 -->
<!-- 4636139424 -->
<g id="node10" class="node">
<title>4636139424</title>
<ellipse fill="lightblue" stroke="black" cx="114" cy="-76.47" rx="18" ry="18"/>
<text text-anchor="middle" x="114" y="-73.37" font-family="Helvetica,sans-Serif" font-size="12.00">8</text>
</g>
<!-- 4636139280&#45;&gt;4636139424 -->
<g id="edge9" class="edge">
<title>4636139280&#45;&gt;4636139424</title>
<path fill="none" stroke="black" d="M77.38,-120.55C83.71,-113.1 91.69,-103.71 98.58,-95.61"/>
<polygon fill="black" stroke="black" points="100.42,-96.69 102.71,-90.75 97.22,-93.97 100.42,-96.69"/>
</g>
<!-- 4636143552 -->
<g id="node14" class="node">
<title>4636143552</title>
<ellipse fill="lightblue" stroke="black" cx="275" cy="-76.47" rx="18" ry="18"/>
<text text-anchor="middle" x="275" y="-73.37" font-family="Helvetica,sans-Serif" font-size="12.00">9</text>
</g>
<!-- 4636136064&#45;&gt;4636143552 -->
<g id="edge13" class="edge">
<title>4636136064&#45;&gt;4636143552</title>
<path fill="none" stroke="black" d="M311.62,-120.55C305.29,-113.1 297.31,-103.71 290.42,-95.61"/>
<polygon fill="black" stroke="black" points="291.78,-93.97 286.29,-90.75 288.58,-96.69 291.78,-93.97"/>
</g>
<!-- 160833 -->
<!-- 4636136064&#45;&gt;160833 -->
<!-- 4636143888 -->
<g id="node16" class="node">
<title>4636143888</title>
<ellipse fill="lightblue" stroke="black" cx="371" cy="-76.47" rx="18.44" ry="18.44"/>
<text text-anchor="middle" x="371" y="-73.37" font-family="Helvetica,sans-Serif" font-size="12.00">10</text>
</g>
<!-- 4636136064&#45;&gt;4636143888 -->
<g id="edge15" class="edge">
<title>4636136064&#45;&gt;4636143888</title>
<path fill="none" stroke="black" d="M334.38,-120.55C340.62,-113.21 348.46,-103.99 355.28,-95.96"/>
<polygon fill="black" stroke="black" points="357.09,-97.08 359.37,-91.15 353.89,-94.36 357.09,-97.08"/>
</g>
<!-- 4636143600 -->
<g id="node17" class="node">
<title>4636143600</title>
<ellipse fill="lightblue" stroke="black" cx="227" cy="-18" rx="18" ry="18"/>
<text text-anchor="middle" x="227" y="-14.9" font-family="Helvetica,sans-Serif" font-size="12.00">11</text>
</g>
<!-- 4636143552&#45;&gt;4636143600 -->
<g id="edge16" class="edge">
<title>4636143552&#45;&gt;4636143600</title>
<path fill="none" stroke="black" d="M263.62,-62.09C257.29,-54.63 249.31,-45.25 242.42,-37.14"/>
<polygon fill="black" stroke="black" points="243.78,-35.5 238.29,-32.29 240.58,-38.22 243.78,-35.5"/>
</g>
<!-- 592185 -->
<!-- 4636143552&#45;&gt;592185 -->
<!-- 654721 -->
<!-- 4636143552&#45;&gt;654721 -->
</g>
</svg>
