<?xml version="1.0" encoding="UTF-8" standalone="no"?>
<!DOCTYPE svg PUBLIC "-//W3C//DTD SVG 1.1//EN"
 "http://www.w3.org/Graphics/SVG/1.1/DTD/svg11.dtd">
<!-- Generated by graphviz version 2.50.0 (0)
 -->
<!-- Pages: 1 -->
<svg width="492pt" height="314pt"
 viewBox="0.00 0.00 492.40 314.38" xmlns="http://www.w3.org/2000/svg" xmlns:xlink="http://www.w3.org/1999/xlink">
<g id="graph0" class="graph" transform="scale(1 1) rotate(0) translate(4 310.38)">
<polygon fill="white" stroke="transparent" points="-4,4 -4,-310.38 488.4,-310.38 488.4,4 -4,4"/>
<!-- 4628140672 -->
<g id="node1" class="node">
<title>4628140672</title>
<ellipse fill="lightblue" stroke="black" cx="287.4" cy="-285.58" rx="20.6" ry="20.6"/>
<text text-anchor="middle" x="287.4" y="-281.88" font-family="Helvetica,sans-Serif" font-size="14.00">14</text>
</g>
<!-- 4628141488 -->
<g id="node2" class="node">
<title>4628141488</title>
<ellipse fill="lightblue" stroke="black" cx="207.4" cy="-221.99" rx="20.6" ry="20.6"/>
<text text-anchor="middle" x="207.4" y="-218.29" font-family="Helvetica,sans-Serif" font-size="14.00">13</text>
</g>
<!-- 4628140672&#45;&gt;4628141488 -->
<g id="edge1" class="edge">
<title>4628140672&#45;&gt;4628141488</title>
<path fill="none" stroke="black" d="M271.21,-272.12C258.63,-262.43 241.11,-248.95 227.61,-238.55"/>
<polygon fill="black" stroke="black" points="228.59,-237.1 223.56,-235.43 226.46,-239.87 228.59,-237.1"/>
</g>
<!-- 613329 -->
<!-- 4628140672&#45;&gt;613329 -->
<!-- 4628141152 -->
<g id="node4" class="node">
<title>4628141152</title>
<ellipse fill="lightblue" stroke="black" cx="368.4" cy="-221.99" rx="20.6" ry="20.6"/>
<text text-anchor="middle" x="368.4" y="-218.29" font-family="Helvetica,sans-Serif" font-size="14.00">15</text>
</g>
<!-- 4628140672&#45;&gt;4628141152 -->
<g id="edge3" class="edge">
<title>4628140672&#45;&gt;4628141152</title>
<path fill="none" stroke="black" d="M303.79,-272.12C316.61,-262.37 334.5,-248.77 348.2,-238.35"/>
<polygon fill="black" stroke="black" points="349.39,-239.64 352.31,-235.22 347.27,-236.86 349.39,-239.64"/>
</g>
<!-- 4628140912 -->
<g id="node5" class="node">
<title>4628140912</title>
<ellipse fill="lightblue" stroke="black" cx="159.4" cy="-158.39" rx="18.7" ry="18.7"/>
<text text-anchor="middle" x="159.4" y="-154.69" font-family="Helvetica,sans-Serif" font-size="14.00">&#45;6</text>
</g>
<!-- 4628141488&#45;&gt;4628140912 -->
<g id="edge4" class="edge">
<title>4628141488&#45;&gt;4628140912</title>
<path fill="none" stroke="black" d="M195.04,-205.12C188.54,-196.79 180.55,-186.53 173.78,-177.85"/>
<polygon fill="black" stroke="black" points="175.02,-176.59 170.57,-173.72 172.26,-178.74 175.02,-176.59"/>
</g>
<!-- 239836 -->
<!-- 4628141488&#45;&gt;239836 -->
<!-- 568313 -->
<!-- 4628141488&#45;&gt;568313 -->
<!-- 367395 -->
<!-- 4628141152&#45;&gt;367395 -->
<!-- 306974 -->
<!-- 4628141152&#45;&gt;306974 -->
<!-- 4628138032 -->
<g id="node19" class="node">
<title>4628138032</title>
<ellipse fill="lightblue" stroke="black" cx="418.4" cy="-158.39" rx="20.6" ry="20.6"/>
<text text-anchor="middle" x="418.4" y="-154.69" font-family="Helvetica,sans-Serif" font-size="14.00">19</text>
</g>
<!-- 4628141152&#45;&gt;4628138032 -->
<g id="edge18" class="edge">
<title>4628141152&#45;&gt;4628138032</title>
<path fill="none" stroke="black" d="M381.02,-205.44C387.48,-197.48 395.42,-187.7 402.32,-179.2"/>
<polygon fill="black" stroke="black" points="403.82,-180.13 405.61,-175.14 401.1,-177.92 403.82,-180.13"/>
</g>
<!-- 4628147632 -->
<g id="node8" class="node">
<title>4628147632</title>
<ellipse fill="lightblue" stroke="black" cx="76.4" cy="-92.19" rx="23.3" ry="23.3"/>
<text text-anchor="middle" x="76.4" y="-88.49" font-family="Helvetica,sans-Serif" font-size="14.00">&#45;11</text>
</g>
<!-- 4628140912&#45;&gt;4628147632 -->
<g id="edge7" class="edge">
<title>4628140912&#45;&gt;4628147632</title>
<path fill="none" stroke="black" d="M144.94,-146.21C132.12,-136.29 113.2,-121.66 98.48,-110.28"/>
<polygon fill="black" stroke="black" points="99.48,-108.83 94.45,-107.16 97.34,-111.6 99.48,-108.83"/>
</g>
<!-- 448438 -->
<!-- 4628140912&#45;&gt;448438 -->
<!-- 4628151328 -->
<g id="node10" class="node">
<title>4628151328</title>
<ellipse fill="lightblue" stroke="black" cx="237.4" cy="-92.19" rx="18.7" ry="18.7"/>
<text text-anchor="middle" x="237.4" y="-88.49" font-family="Helvetica,sans-Serif" font-size="14.00">&#45;1</text>
</g>
<!-- 4628140912&#45;&gt;4628151328 -->
<g id="edge9" class="edge">
<title>4628140912&#45;&gt;4628151328</title>
<path fill="none" stroke="black" d="M173.7,-145.62C186.46,-135.12 205.2,-119.69 219.05,-108.29"/>
<polygon fill="black" stroke="black" points="220.43,-109.42 223.18,-104.89 218.21,-106.72 220.43,-109.42"/>
</g>
<!-- 4628141296 -->
<g id="node11" class="node">
<title>4628141296</title>
<ellipse fill="lightblue" stroke="black" cx="23.4" cy="-23.4" rx="23.3" ry="23.3"/>
<text text-anchor="middle" x="23.4" y="-19.7" font-family="Helvetica,sans-Serif" font-size="14.00">&#45;14</text>
</g>
<!-- 4628147632&#45;&gt;4628141296 -->
<g id="edge10" class="edge">
<title>4628147632&#45;&gt;4628141296</title>
<path fill="none" stroke="black" d="M62.19,-73.29C55.66,-65.06 47.84,-55.21 40.94,-46.51"/>
<polygon fill="black" stroke="black" points="42.12,-45.18 37.64,-42.35 39.38,-47.35 42.12,-45.18"/>
</g>
<!-- 266818 -->
<!-- 4628147632&#45;&gt;266818 -->
<!-- 589419 -->
<!-- 4628147632&#45;&gt;589419 -->
<!-- 554182 -->
<!-- 4628151328&#45;&gt;554182 -->
<!-- 848361 -->
<!-- 4628151328&#45;&gt;848361 -->
<!-- 4628138272 -->
<g id="node16" class="node">
<title>4628138272</title>
<ellipse fill="lightblue" stroke="black" cx="285.4" cy="-23.4" rx="18" ry="18"/>
<text text-anchor="middle" x="285.4" y="-19.7" font-family="Helvetica,sans-Serif" font-size="14.00">9</text>
</g>
<!-- 4628151328&#45;&gt;4628138272 -->
<g id="edge15" class="edge">
<title>4628151328&#45;&gt;4628138272</title>
<path fill="none" stroke="black" d="M248.05,-76.37C255.17,-66.46 264.59,-53.36 272.18,-42.78"/>
<polygon fill="black" stroke="black" points="273.61,-43.8 275.1,-38.72 270.77,-41.76 273.61,-43.8"/>
</g>
<!-- 4628149552 -->
<g id="node20" class="node">
<title>4628149552</title>
<ellipse fill="lightblue" stroke="black" cx="368.4" cy="-92.19" rx="20.6" ry="20.6"/>
<text text-anchor="middle" x="368.4" y="-88.49" font-family="Helvetica,sans-Serif" font-size="14.00">16</text>
</g>
<!-- 4628138032&#45;&gt;4628149552 -->
<g id="edge19" class="edge">
<title>4628138032&#45;&gt;4628149552</title>
<path fill="none" stroke="black" d="M406.04,-141.52C399.48,-133.1 391.34,-122.65 384.31,-113.63"/>
<polygon fill="black" stroke="black" points="385.42,-112.2 380.96,-109.33 382.65,-114.35 385.42,-112.2"/>
</g>
<!-- 201143 -->
<!-- 4628138032&#45;&gt;201143 -->
<!-- 856916 -->
<!-- 4628138032&#45;&gt;856916 -->
</g>
</svg>
