<?xml version="1.0" encoding="UTF-8" standalone="no"?>
<!DOCTYPE svg PUBLIC "-//W3C//DTD SVG 1.1//EN"
 "http://www.w3.org/Graphics/SVG/1.1/DTD/svg11.dtd">
<!-- Generated by graphviz version 2.50.0 (0)
 -->
<!-- Pages: 1 -->
<svg width="376pt" height="542pt"
 viewBox="0.00 0.00 375.80 541.58" xmlns="http://www.w3.org/2000/svg" xmlns:xlink="http://www.w3.org/1999/xlink">
<g id="graph0" class="graph" transform="scale(1 1) rotate(0) translate(4 537.58)">
<polygon fill="white" stroke="transparent" points="-4,4 -4,-537.58 371.8,-537.58 371.8,4 -4,4"/>
<!-- 4574311488 -->
<g id="node1" class="node">
<title>4574311488</title>
<ellipse fill="lightblue" stroke="black" cx="297" cy="-512.78" rx="20.6" ry="20.6"/>
<text text-anchor="middle" x="297" y="-509.08" font-family="Helvetica,sans-Serif" font-size="14.00">27</text>
</g>
<!-- 4574312784 -->
<g id="node2" class="node">
<title>4574312784</title>
<ellipse fill="lightblue" stroke="black" cx="247" cy="-449.18" rx="20.6" ry="20.6"/>
<text text-anchor="middle" x="247" y="-445.48" font-family="Helvetica,sans-Serif" font-size="14.00">19</text>
</g>
<!-- 4574311488&#45;&gt;4574312784 -->
<g id="edge1" class="edge">
<title>4574311488&#45;&gt;4574312784</title>
<path fill="none" stroke="black" d="M284.38,-496.24C277.92,-488.27 269.98,-478.49 263.08,-469.99"/>
<polygon fill="black" stroke="black" points="264.3,-468.72 259.79,-465.94 261.58,-470.92 264.3,-468.72"/>
</g>
<!-- 822099 -->
<!-- 4574311488&#45;&gt;822099 -->
<!-- 4574335616 -->
<g id="node4" class="node">
<title>4574335616</title>
<ellipse fill="lightblue" stroke="black" cx="347" cy="-449.18" rx="20.6" ry="20.6"/>
<text text-anchor="middle" x="347" y="-445.48" font-family="Helvetica,sans-Serif" font-size="14.00">29</text>
</g>
<!-- 4574311488&#45;&gt;4574335616 -->
<g id="edge3" class="edge">
<title>4574311488&#45;&gt;4574335616</title>
<path fill="none" stroke="black" d="M309.62,-496.24C316.08,-488.27 324.02,-478.49 330.92,-469.99"/>
<polygon fill="black" stroke="black" points="332.42,-470.92 334.21,-465.94 329.7,-468.72 332.42,-470.92"/>
</g>
<!-- 4574312064 -->
<g id="node5" class="node">
<title>4574312064</title>
<ellipse fill="lightblue" stroke="black" cx="197" cy="-385.59" rx="20.6" ry="20.6"/>
<text text-anchor="middle" x="197" y="-381.89" font-family="Helvetica,sans-Serif" font-size="14.00">13</text>
</g>
<!-- 4574312784&#45;&gt;4574312064 -->
<g id="edge4" class="edge">
<title>4574312784&#45;&gt;4574312064</title>
<path fill="none" stroke="black" d="M234.38,-432.64C227.92,-424.68 219.98,-414.89 213.08,-406.39"/>
<polygon fill="black" stroke="black" points="214.3,-405.12 209.79,-402.34 211.58,-407.32 214.3,-405.12"/>
</g>
<!-- 640080 -->
<!-- 4574312784&#45;&gt;640080 -->
<!-- 4574333648 -->
<g id="node7" class="node">
<title>4574333648</title>
<ellipse fill="lightblue" stroke="black" cx="297" cy="-385.59" rx="20.6" ry="20.6"/>
<text text-anchor="middle" x="297" y="-381.89" font-family="Helvetica,sans-Serif" font-size="14.00">26</text>
</g>
<!-- 4574312784&#45;&gt;4574333648 -->
<g id="edge6" class="edge">
<title>4574312784&#45;&gt;4574333648</title>
<path fill="none" stroke="black" d="M259.62,-432.64C266.08,-424.68 274.02,-414.89 280.92,-406.39"/>
<polygon fill="black" stroke="black" points="282.42,-407.32 284.21,-402.34 279.7,-405.12 282.42,-407.32"/>
</g>
<!-- 4574308032 -->
<g id="node8" class="node">
<title>4574308032</title>
<ellipse fill="lightblue" stroke="black" cx="114" cy="-321.99" rx="20.6" ry="20.6"/>
<text text-anchor="middle" x="114" y="-318.29" font-family="Helvetica,sans-Serif" font-size="14.00">12</text>
</g>
<!-- 4574312064&#45;&gt;4574308032 -->
<g id="edge7" class="edge">
<title>4574312064&#45;&gt;4574308032</title>
<path fill="none" stroke="black" d="M180.6,-372.42C167.41,-362.63 148.81,-348.83 134.62,-338.29"/>
<polygon fill="black" stroke="black" points="135.42,-336.71 130.36,-335.13 133.34,-339.52 135.42,-336.71"/>
</g>
<!-- 943399 -->
<!-- 4574312064&#45;&gt;943399 -->
<!-- 4574332112 -->
<g id="node10" class="node">
<title>4574332112</title>
<ellipse fill="lightblue" stroke="black" cx="280" cy="-321.99" rx="20.6" ry="20.6"/>
<text text-anchor="middle" x="280" y="-318.29" font-family="Helvetica,sans-Serif" font-size="14.00">15</text>
</g>
<!-- 4574312064&#45;&gt;4574332112 -->
<g id="edge9" class="edge">
<title>4574312064&#45;&gt;4574332112</title>
<path fill="none" stroke="black" d="M213.4,-372.42C226.59,-362.63 245.19,-348.83 259.38,-338.29"/>
<polygon fill="black" stroke="black" points="260.66,-339.52 263.64,-335.13 258.58,-336.71 260.66,-339.52"/>
</g>
<!-- 4574333696 -->
<g id="node11" class="node">
<title>4574333696</title>
<ellipse fill="lightblue" stroke="black" cx="66" cy="-258.39" rx="18" ry="18"/>
<text text-anchor="middle" x="66" y="-254.69" font-family="Helvetica,sans-Serif" font-size="14.00">4</text>
</g>
<!-- 4574308032&#45;&gt;4574333696 -->
<g id="edge10" class="edge">
<title>4574308032&#45;&gt;4574333696</title>
<path fill="none" stroke="black" d="M101.64,-305.13C95.05,-296.67 86.92,-286.24 80.09,-277.47"/>
<polygon fill="black" stroke="black" points="81.3,-276.18 76.85,-273.32 78.54,-278.34 81.3,-276.18"/>
</g>
<!-- 419219 -->
<!-- 4574308032&#45;&gt;419219 -->
<!-- 921448 -->
<!-- 4574308032&#45;&gt;921448 -->
<!-- 4574334848 -->
<g id="node26" class="node">
<title>4574334848</title>
<ellipse fill="lightblue" stroke="black" cx="230" cy="-258.39" rx="20.6" ry="20.6"/>
<text text-anchor="middle" x="230" y="-254.69" font-family="Helvetica,sans-Serif" font-size="14.00">14</text>
</g>
<!-- 4574332112&#45;&gt;4574334848 -->
<g id="edge25" class="edge">
<title>4574332112&#45;&gt;4574334848</title>
<path fill="none" stroke="black" d="M267.38,-305.45C260.92,-297.48 252.98,-287.7 246.08,-279.2"/>
<polygon fill="black" stroke="black" points="247.3,-277.93 242.79,-275.15 244.58,-280.13 247.3,-277.93"/>
</g>
<!-- 395590 -->
<!-- 4574332112&#45;&gt;395590 -->
<!-- 4574334944 -->
<g id="node28" class="node">
<title>4574334944</title>
<ellipse fill="lightblue" stroke="black" cx="330" cy="-258.39" rx="20.6" ry="20.6"/>
<text text-anchor="middle" x="330" y="-254.69" font-family="Helvetica,sans-Serif" font-size="14.00">16</text>
</g>
<!-- 4574332112&#45;&gt;4574334944 -->
<g id="edge27" class="edge">
<title>4574332112&#45;&gt;4574334944</title>
<path fill="none" stroke="black" d="M292.62,-305.45C299.08,-297.48 307.02,-287.7 313.92,-279.2"/>
<polygon fill="black" stroke="black" points="315.42,-280.13 317.21,-275.15 312.7,-277.93 315.42,-280.13"/>
</g>
<!-- 92812 -->
<!-- 4574333696&#45;&gt;92812 -->
<!-- 118870 -->
<!-- 4574333696&#45;&gt;118870 -->
<!-- 4574334800 -->
<g id="node16" class="node">
<title>4574334800</title>
<ellipse fill="lightblue" stroke="black" cx="114" cy="-197.6" rx="18" ry="18"/>
<text text-anchor="middle" x="114" y="-193.9" font-family="Helvetica,sans-Serif" font-size="14.00">9</text>
</g>
<!-- 4574333696&#45;&gt;4574334800 -->
<g id="edge15" class="edge">
<title>4574333696&#45;&gt;4574334800</title>
<path fill="none" stroke="black" d="M76.89,-244.05C83.55,-235.9 92.14,-225.37 99.39,-216.5"/>
<polygon fill="black" stroke="black" points="101.01,-217.27 102.82,-212.29 98.3,-215.06 101.01,-217.27"/>
</g>
<!-- 4574335328 -->
<g id="node17" class="node">
<title>4574335328</title>
<ellipse fill="lightblue" stroke="black" cx="66" cy="-136.8" rx="18" ry="18"/>
<text text-anchor="middle" x="66" y="-133.1" font-family="Helvetica,sans-Serif" font-size="14.00">5</text>
</g>
<!-- 4574334800&#45;&gt;4574335328 -->
<g id="edge16" class="edge">
<title>4574334800&#45;&gt;4574335328</title>
<path fill="none" stroke="black" d="M103.11,-183.25C96.45,-175.1 87.86,-164.57 80.61,-155.7"/>
<polygon fill="black" stroke="black" points="81.7,-154.26 77.18,-151.5 78.99,-156.48 81.7,-154.26"/>
</g>
<!-- 922588 -->
<!-- 4574334800&#45;&gt;922588 -->
<!-- 4574332304 -->
<g id="node19" class="node">
<title>4574332304</title>
<ellipse fill="lightblue" stroke="black" cx="164" cy="-136.8" rx="20.6" ry="20.6"/>
<text text-anchor="middle" x="164" y="-133.1" font-family="Helvetica,sans-Serif" font-size="14.00">11</text>
</g>
<!-- 4574334800&#45;&gt;4574332304 -->
<g id="edge18" class="edge">
<title>4574334800&#45;&gt;4574332304</title>
<path fill="none" stroke="black" d="M125.35,-183.25C131.88,-175.57 140.22,-165.77 147.47,-157.24"/>
<polygon fill="black" stroke="black" points="149.03,-158.11 150.93,-153.17 146.36,-155.84 149.03,-158.11"/>
</g>
<!-- 972659 -->
<!-- 4574335328&#45;&gt;972659 -->
<!-- 35249 -->
<!-- 4574335328&#45;&gt;35249 -->
<!-- 4574334368 -->
<g id="node22" class="node">
<title>4574334368</title>
<ellipse fill="lightblue" stroke="black" cx="114" cy="-76" rx="18" ry="18"/>
<text text-anchor="middle" x="114" y="-72.3" font-family="Helvetica,sans-Serif" font-size="14.00">8</text>
</g>
<!-- 4574335328&#45;&gt;4574334368 -->
<g id="edge21" class="edge">
<title>4574335328&#45;&gt;4574334368</title>
<path fill="none" stroke="black" d="M76.89,-122.46C83.55,-114.3 92.14,-103.77 99.39,-94.9"/>
<polygon fill="black" stroke="black" points="101.01,-95.68 102.82,-90.7 98.3,-93.46 101.01,-95.68"/>
</g>
<!-- 4574335472 -->
<g id="node23" class="node">
<title>4574335472</title>
<ellipse fill="lightblue" stroke="black" cx="66" cy="-18" rx="18" ry="18"/>
<text text-anchor="middle" x="66" y="-14.3" font-family="Helvetica,sans-Serif" font-size="14.00">7</text>
</g>
<!-- 4574334368&#45;&gt;4574335472 -->
<g id="edge22" class="edge">
<title>4574334368&#45;&gt;4574335472</title>
<path fill="none" stroke="black" d="M102.62,-61.73C96.05,-54.06 87.71,-44.32 80.64,-36.08"/>
<polygon fill="black" stroke="black" points="81.88,-34.83 77.29,-32.18 79.22,-37.11 81.88,-34.83"/>
</g>
<!-- 626343 -->
<!-- 4574334368&#45;&gt;626343 -->
<!-- 337664 -->
<!-- 4574334368&#45;&gt;337664 -->
</g>
</svg>
