<?xml version="1.0" encoding="UTF-8" standalone="no"?>
<!DOCTYPE svg PUBLIC "-//W3C//DTD SVG 1.1//EN"
 "http://www.w3.org/Graphics/SVG/1.1/DTD/svg11.dtd">
<!-- Generated by graphviz version 2.50.0 (0)
 -->
<!-- Pages: 1 -->
<svg width="575pt" height="395pt"
 viewBox="0.00 0.00 575.00 395.00" xmlns="http://www.w3.org/2000/svg" xmlns:xlink="http://www.w3.org/1999/xlink">
<g id="graph0" class="graph" transform="scale(1 1) rotate(0) translate(4 391)">
<polygon fill="white" stroke="transparent" points="-4,4 -4,-391 571,-391 571,4 -4,4"/>
<!-- 4574340944 -->
<g id="node1" class="node">
<title>4574340944</title>
<ellipse fill="lightblue" stroke="black" cx="276" cy="-369" rx="18" ry="18"/>
<text text-anchor="middle" x="276" y="-365.3" font-family="Helvetica,sans-Serif" font-size="14.00">R</text>
</g>
<!-- 4574333408 -->
<g id="node2" class="node">
<title>4574333408</title>
<ellipse fill="lightblue" stroke="black" cx="164" cy="-311" rx="18" ry="18"/>
<text text-anchor="middle" x="164" y="-307.3" font-family="Helvetica,sans-Serif" font-size="14.00">A</text>
</g>
<!-- 4574340944&#45;&gt;4574333408 -->
<g id="edge1" class="edge">
<title>4574340944&#45;&gt;4574333408</title>
<path fill="none" stroke="black" d="M259.95,-359.97C240.16,-350.08 206.47,-333.23 184.73,-322.36"/>
<polygon fill="black" stroke="black" points="185.27,-320.68 180.02,-320.01 183.71,-323.81 185.27,-320.68"/>
</g>
<!-- 129257 -->
<!-- 4574340944&#45;&gt;129257 -->
<!-- 4574309472 -->
<g id="node4" class="node">
<title>4574309472</title>
<ellipse fill="lightblue" stroke="black" cx="389" cy="-311" rx="18" ry="18"/>
<text text-anchor="middle" x="389" y="-307.3" font-family="Helvetica,sans-Serif" font-size="14.00">T</text>
</g>
<!-- 4574340944&#45;&gt;4574309472 -->
<g id="edge3" class="edge">
<title>4574340944&#45;&gt;4574309472</title>
<path fill="none" stroke="black" d="M291.71,-360.21C311.75,-350.28 346.46,-333.08 368.55,-322.13"/>
<polygon fill="black" stroke="black" points="369.35,-323.69 373.06,-319.9 367.8,-320.55 369.35,-323.69"/>
</g>
<!-- 894002 -->
<!-- 4574333408&#45;&gt;894002 -->
<!-- 385752 -->
<!-- 4574333408&#45;&gt;385752 -->
<!-- 4574339552 -->
<g id="node7" class="node">
<title>4574339552</title>
<ellipse fill="lightblue" stroke="black" cx="212" cy="-253" rx="18" ry="18"/>
<text text-anchor="middle" x="212" y="-249.3" font-family="Helvetica,sans-Serif" font-size="14.00">D</text>
</g>
<!-- 4574333408&#45;&gt;4574339552 -->
<g id="edge6" class="edge">
<title>4574333408&#45;&gt;4574339552</title>
<path fill="none" stroke="black" d="M175.38,-296.73C181.95,-289.05 190.29,-279.32 197.36,-271.08"/>
<polygon fill="black" stroke="black" points="198.78,-272.11 200.71,-267.17 196.12,-269.83 198.78,-272.11"/>
</g>
<!-- 966979 -->
<!-- 4574309472&#45;&gt;966979 -->
<!-- 627878 -->
<!-- 4574309472&#45;&gt;627878 -->
<!-- 4574308416 -->
<g id="node28" class="node">
<title>4574308416</title>
<ellipse fill="lightblue" stroke="black" cx="501" cy="-253" rx="18" ry="18"/>
<text text-anchor="middle" x="501" y="-249.3" font-family="Helvetica,sans-Serif" font-size="14.00">Y</text>
</g>
<!-- 4574309472&#45;&gt;4574308416 -->
<g id="edge27" class="edge">
<title>4574309472&#45;&gt;4574308416</title>
<path fill="none" stroke="black" d="M405.05,-301.97C424.84,-292.08 458.53,-275.23 480.27,-264.36"/>
<polygon fill="black" stroke="black" points="481.29,-265.81 484.98,-262.01 479.73,-262.68 481.29,-265.81"/>
</g>
<!-- 4574300544 -->
<g id="node8" class="node">
<title>4574300544</title>
<ellipse fill="lightblue" stroke="black" cx="66" cy="-195" rx="18" ry="18"/>
<text text-anchor="middle" x="66" y="-191.3" font-family="Helvetica,sans-Serif" font-size="14.00">B</text>
</g>
<!-- 4574339552&#45;&gt;4574300544 -->
<g id="edge7" class="edge">
<title>4574339552&#45;&gt;4574300544</title>
<path fill="none" stroke="black" d="M195.54,-245.68C169.03,-235.51 116.9,-215.52 87.49,-204.24"/>
<polygon fill="black" stroke="black" points="87.92,-202.53 82.63,-202.37 86.67,-205.8 87.92,-202.53"/>
</g>
<!-- 554871 -->
<!-- 4574339552&#45;&gt;554871 -->
<!-- 4574312640 -->
<g id="node10" class="node">
<title>4574312640</title>
<ellipse fill="lightblue" stroke="black" cx="260" cy="-195" rx="18" ry="18"/>
<text text-anchor="middle" x="260" y="-191.3" font-family="Helvetica,sans-Serif" font-size="14.00">L</text>
</g>
<!-- 4574339552&#45;&gt;4574312640 -->
<g id="edge9" class="edge">
<title>4574339552&#45;&gt;4574312640</title>
<path fill="none" stroke="black" d="M223.38,-238.73C229.95,-231.05 238.29,-221.32 245.36,-213.08"/>
<polygon fill="black" stroke="black" points="246.78,-214.11 248.71,-209.17 244.12,-211.83 246.78,-214.11"/>
</g>
<!-- 183699 -->
<!-- 4574300544&#45;&gt;183699 -->
<!-- 573514 -->
<!-- 4574300544&#45;&gt;573514 -->
<!-- 4574693424 -->
<g id="node13" class="node">
<title>4574693424</title>
<ellipse fill="lightblue" stroke="black" cx="114" cy="-135.5" rx="18" ry="18"/>
<text text-anchor="middle" x="114" y="-131.8" font-family="Helvetica,sans-Serif" font-size="14.00">C</text>
</g>
<!-- 4574300544&#45;&gt;4574693424 -->
<g id="edge12" class="edge">
<title>4574300544&#45;&gt;4574693424</title>
<path fill="none" stroke="black" d="M77.13,-180.66C83.8,-172.68 92.34,-162.44 99.52,-153.84"/>
<polygon fill="black" stroke="black" points="101.07,-154.72 102.93,-149.76 98.38,-152.48 101.07,-154.72"/>
</g>
<!-- 4574304864 -->
<g id="node14" class="node">
<title>4574304864</title>
<ellipse fill="lightblue" stroke="black" cx="179" cy="-135.5" rx="18" ry="18"/>
<text text-anchor="middle" x="179" y="-131.8" font-family="Helvetica,sans-Serif" font-size="14.00">J</text>
</g>
<!-- 4574312640&#45;&gt;4574304864 -->
<g id="edge13" class="edge">
<title>4574312640&#45;&gt;4574304864</title>
<path fill="none" stroke="black" d="M245.52,-183.72C232.16,-174.23 212.24,-160.1 197.69,-149.76"/>
<polygon fill="black" stroke="black" points="198.45,-148.16 193.36,-146.69 196.42,-151.01 198.45,-148.16"/>
</g>
<!-- 773438 -->
<!-- 4574312640&#45;&gt;773438 -->
<!-- 4574312352 -->
<g id="node16" class="node">
<title>4574312352</title>
<ellipse fill="lightblue" stroke="black" cx="340" cy="-135.5" rx="18" ry="18"/>
<text text-anchor="middle" x="340" y="-131.8" font-family="Helvetica,sans-Serif" font-size="14.00">P</text>
</g>
<!-- 4574312640&#45;&gt;4574312352 -->
<g id="edge15" class="edge">
<title>4574312640&#45;&gt;4574312352</title>
<path fill="none" stroke="black" d="M274.3,-183.72C287.5,-174.23 307.17,-160.1 321.54,-149.76"/>
<polygon fill="black" stroke="black" points="322.78,-151.03 325.82,-146.69 320.74,-148.19 322.78,-151.03"/>
</g>
<!-- 4574312832 -->
<g id="node17" class="node">
<title>4574312832</title>
<ellipse fill="lightblue" stroke="black" cx="131" cy="-76" rx="18" ry="18"/>
<text text-anchor="middle" x="131" y="-72.3" font-family="Helvetica,sans-Serif" font-size="14.00">H</text>
</g>
<!-- 4574304864&#45;&gt;4574312832 -->
<g id="edge16" class="edge">
<title>4574304864&#45;&gt;4574312832</title>
<path fill="none" stroke="black" d="M167.87,-121.16C161.2,-113.18 152.66,-102.95 145.48,-94.34"/>
<polygon fill="black" stroke="black" points="146.62,-92.98 142.07,-90.26 143.93,-95.22 146.62,-92.98"/>
</g>
<!-- 752297 -->
<!-- 4574304864&#45;&gt;752297 -->
<!-- 891822 -->
<!-- 4574304864&#45;&gt;891822 -->
<!-- 4574301840 -->
<g id="node23" class="node">
<title>4574301840</title>
<ellipse fill="lightblue" stroke="black" cx="292" cy="-76" rx="18" ry="18"/>
<text text-anchor="middle" x="292" y="-72.3" font-family="Helvetica,sans-Serif" font-size="14.00">N</text>
</g>
<!-- 4574312352&#45;&gt;4574301840 -->
<g id="edge22" class="edge">
<title>4574312352&#45;&gt;4574301840</title>
<path fill="none" stroke="black" d="M328.87,-121.16C322.2,-113.18 313.66,-102.95 306.48,-94.34"/>
<polygon fill="black" stroke="black" points="307.62,-92.98 303.07,-90.26 304.93,-95.22 307.62,-92.98"/>
</g>
<!-- 69919 -->
<!-- 4574312352&#45;&gt;69919 -->
<!-- 770861 -->
<!-- 4574312352&#45;&gt;770861 -->
<!-- 642460 -->
<!-- 4574312832&#45;&gt;642460 -->
<!-- 830433 -->
<!-- 4574312832&#45;&gt;830433 -->
<!-- 4574706000 -->
<g id="node22" class="node">
<title>4574706000</title>
<ellipse fill="lightblue" stroke="black" cx="179" cy="-18" rx="18" ry="18"/>
<text text-anchor="middle" x="179" y="-14.3" font-family="Helvetica,sans-Serif" font-size="14.00">I</text>
</g>
<!-- 4574312832&#45;&gt;4574706000 -->
<g id="edge21" class="edge">
<title>4574312832&#45;&gt;4574706000</title>
<path fill="none" stroke="black" d="M142.38,-61.73C148.95,-54.06 157.29,-44.32 164.36,-36.08"/>
<polygon fill="black" stroke="black" points="165.78,-37.11 167.71,-32.18 163.12,-34.83 165.78,-37.11"/>
</g>
<!-- 4574307648 -->
<g id="node29" class="node">
<title>4574307648</title>
<ellipse fill="lightblue" stroke="black" cx="453" cy="-195" rx="18" ry="18"/>
<text text-anchor="middle" x="453" y="-191.3" font-family="Helvetica,sans-Serif" font-size="14.00">U</text>
</g>
<!-- 4574308416&#45;&gt;4574307648 -->
<g id="edge28" class="edge">
<title>4574308416&#45;&gt;4574307648</title>
<path fill="none" stroke="black" d="M489.62,-238.73C483.05,-231.05 474.71,-221.32 467.64,-213.08"/>
<polygon fill="black" stroke="black" points="468.88,-211.83 464.29,-209.17 466.22,-214.11 468.88,-211.83"/>
</g>
<!-- 369103 -->
<!-- 4574308416&#45;&gt;369103 -->
<!-- 672405 -->
<!-- 4574308416&#45;&gt;672405 -->
<!-- 602078 -->
<!-- 4574307648&#45;&gt;602078 -->
<!-- 719763 -->
<!-- 4574307648&#45;&gt;719763 -->
<!-- 4574313792 -->
<g id="node34" class="node">
<title>4574313792</title>
<ellipse fill="lightblue" stroke="black" cx="502" cy="-135.5" rx="19.5" ry="19.5"/>
<text text-anchor="middle" x="502" y="-131.8" font-family="Helvetica,sans-Serif" font-size="14.00">W</text>
</g>
<!-- 4574307648&#45;&gt;4574313792 -->
<g id="edge33" class="edge">
<title>4574307648&#45;&gt;4574313792</title>
<path fill="none" stroke="black" d="M464.36,-180.66C470.88,-173.02 479.14,-163.32 486.27,-154.95"/>
<polygon fill="black" stroke="black" points="487.76,-155.91 489.67,-150.97 485.09,-153.64 487.76,-155.91"/>
</g>
</g>
</svg>
