<?xml version="1.0" encoding="UTF-8" standalone="no"?>
<!DOCTYPE svg PUBLIC "-//W3C//DTD SVG 1.1//EN"
 "http://www.w3.org/Graphics/SVG/1.1/DTD/svg11.dtd">
<!-- Generated by graphviz version 2.50.0 (0)
 -->
<!-- Pages: 1 -->
<svg width="462pt" height="393pt"
 viewBox="0.00 0.00 462.00 392.79" xmlns="http://www.w3.org/2000/svg" xmlns:xlink="http://www.w3.org/1999/xlink">
<g id="graph0" class="graph" transform="scale(1 1) rotate(0) translate(4 388.79)">
<polygon fill="white" stroke="transparent" points="-4,4 -4,-388.79 458,-388.79 458,4 -4,4"/>
<!-- 4574312112 -->
<g id="node1" class="node">
<title>4574312112</title>
<ellipse fill="lightblue" stroke="black" cx="146" cy="-366.79" rx="18" ry="18"/>
<text text-anchor="middle" x="146" y="-363.09" font-family="Helvetica,sans-Serif" font-size="14.00">A</text>
</g>
<!-- 515058 -->
<!-- 4574312112&#45;&gt;515058 -->
<!-- 633168 -->
<!-- 4574312112&#45;&gt;633168 -->
<!-- 4574299440 -->
<g id="node4" class="node">
<title>4574299440</title>
<ellipse fill="lightblue" stroke="black" cx="194" cy="-308.79" rx="18" ry="18"/>
<text text-anchor="middle" x="194" y="-305.09" font-family="Helvetica,sans-Serif" font-size="14.00">L</text>
</g>
<!-- 4574312112&#45;&gt;4574299440 -->
<g id="edge3" class="edge">
<title>4574312112&#45;&gt;4574299440</title>
<path fill="none" stroke="black" d="M157.38,-352.52C163.95,-344.85 172.29,-335.12 179.36,-326.88"/>
<polygon fill="black" stroke="black" points="180.78,-327.9 182.71,-322.97 178.12,-325.63 180.78,-327.9"/>
</g>
<!-- 4574313984 -->
<g id="node5" class="node">
<title>4574313984</title>
<ellipse fill="lightblue" stroke="black" cx="114" cy="-250.79" rx="18" ry="18"/>
<text text-anchor="middle" x="114" y="-247.09" font-family="Helvetica,sans-Serif" font-size="14.00">J</text>
</g>
<!-- 4574299440&#45;&gt;4574313984 -->
<g id="edge4" class="edge">
<title>4574299440&#45;&gt;4574313984</title>
<path fill="none" stroke="black" d="M179.7,-297.78C166.58,-288.6 147.08,-274.95 132.72,-264.9"/>
<polygon fill="black" stroke="black" points="133.55,-263.34 128.45,-261.91 131.54,-266.21 133.55,-263.34"/>
</g>
<!-- 349541 -->
<!-- 4574299440&#45;&gt;349541 -->
<!-- 4574312352 -->
<g id="node7" class="node">
<title>4574312352</title>
<ellipse fill="lightblue" stroke="black" cx="275" cy="-250.79" rx="18" ry="18"/>
<text text-anchor="middle" x="275" y="-247.09" font-family="Helvetica,sans-Serif" font-size="14.00">S</text>
</g>
<!-- 4574299440&#45;&gt;4574312352 -->
<g id="edge6" class="edge">
<title>4574299440&#45;&gt;4574312352</title>
<path fill="none" stroke="black" d="M208.48,-297.78C221.84,-288.54 241.76,-274.78 256.31,-264.71"/>
<polygon fill="black" stroke="black" points="257.53,-266 260.64,-261.72 255.54,-263.12 257.53,-266"/>
</g>
<!-- 4574309808 -->
<g id="node8" class="node">
<title>4574309808</title>
<ellipse fill="lightblue" stroke="black" cx="66" cy="-192.79" rx="18" ry="18"/>
<text text-anchor="middle" x="66" y="-189.09" font-family="Helvetica,sans-Serif" font-size="14.00">C</text>
</g>
<!-- 4574313984&#45;&gt;4574309808 -->
<g id="edge7" class="edge">
<title>4574313984&#45;&gt;4574309808</title>
<path fill="none" stroke="black" d="M102.62,-236.52C96.05,-228.85 87.71,-219.12 80.64,-210.88"/>
<polygon fill="black" stroke="black" points="81.88,-209.63 77.29,-206.97 79.22,-211.9 81.88,-209.63"/>
</g>
<!-- 770011 -->
<!-- 4574313984&#45;&gt;770011 -->
<!-- 4574705616 -->
<g id="node10" class="node">
<title>4574705616</title>
<ellipse fill="lightblue" stroke="black" cx="162" cy="-192.79" rx="18" ry="18"/>
<text text-anchor="middle" x="162" y="-189.09" font-family="Helvetica,sans-Serif" font-size="14.00">K</text>
</g>
<!-- 4574313984&#45;&gt;4574705616 -->
<g id="edge9" class="edge">
<title>4574313984&#45;&gt;4574705616</title>
<path fill="none" stroke="black" d="M125.38,-236.52C131.95,-228.85 140.29,-219.12 147.36,-210.88"/>
<polygon fill="black" stroke="black" points="148.78,-211.9 150.71,-206.97 146.12,-209.63 148.78,-211.9"/>
</g>
<!-- 4574300976 -->
<g id="node20" class="node">
<title>4574300976</title>
<ellipse fill="lightblue" stroke="black" cx="227" cy="-192.79" rx="18" ry="18"/>
<text text-anchor="middle" x="227" y="-189.09" font-family="Helvetica,sans-Serif" font-size="14.00">P</text>
</g>
<!-- 4574312352&#45;&gt;4574300976 -->
<g id="edge19" class="edge">
<title>4574312352&#45;&gt;4574300976</title>
<path fill="none" stroke="black" d="M263.62,-236.52C257.05,-228.85 248.71,-219.12 241.64,-210.88"/>
<polygon fill="black" stroke="black" points="242.88,-209.63 238.29,-206.97 240.22,-211.9 242.88,-209.63"/>
</g>
<!-- 196645 -->
<!-- 4574312352&#45;&gt;196645 -->
<!-- 4574312640 -->
<g id="node22" class="node">
<title>4574312640</title>
<ellipse fill="lightblue" stroke="black" cx="388" cy="-192.79" rx="18" ry="18"/>
<text text-anchor="middle" x="388" y="-189.09" font-family="Helvetica,sans-Serif" font-size="14.00">U</text>
</g>
<!-- 4574312352&#45;&gt;4574312640 -->
<g id="edge21" class="edge">
<title>4574312352&#45;&gt;4574312640</title>
<path fill="none" stroke="black" d="M290.71,-242.01C310.75,-232.07 345.46,-214.88 367.55,-203.93"/>
<polygon fill="black" stroke="black" points="368.35,-205.48 372.06,-201.69 366.8,-202.35 368.35,-205.48"/>
</g>
<!-- 277792 -->
<!-- 4574309808&#45;&gt;277792 -->
<!-- 541698 -->
<!-- 4574309808&#45;&gt;541698 -->
<!-- 4574311152 -->
<g id="node13" class="node">
<title>4574311152</title>
<ellipse fill="lightblue" stroke="black" cx="114" cy="-134.6" rx="18" ry="18"/>
<text text-anchor="middle" x="114" y="-130.9" font-family="Helvetica,sans-Serif" font-size="14.00">E</text>
</g>
<!-- 4574309808&#45;&gt;4574311152 -->
<g id="edge12" class="edge">
<title>4574309808&#45;&gt;4574311152</title>
<path fill="none" stroke="black" d="M77.38,-178.48C83.95,-170.78 92.29,-161.01 99.36,-152.74"/>
<polygon fill="black" stroke="black" points="100.79,-153.76 102.71,-148.82 98.13,-151.48 100.79,-153.76"/>
</g>
<!-- 4574693808 -->
<g id="node14" class="node">
<title>4574693808</title>
<ellipse fill="lightblue" stroke="black" cx="66" cy="-76.4" rx="18" ry="18"/>
<text text-anchor="middle" x="66" y="-72.7" font-family="Helvetica,sans-Serif" font-size="14.00">D</text>
</g>
<!-- 4574311152&#45;&gt;4574693808 -->
<g id="edge13" class="edge">
<title>4574311152&#45;&gt;4574693808</title>
<path fill="none" stroke="black" d="M102.62,-120.28C96.05,-112.58 87.71,-102.81 80.64,-94.54"/>
<polygon fill="black" stroke="black" points="81.87,-93.28 77.29,-90.62 79.21,-95.56 81.87,-93.28"/>
</g>
<!-- 559096 -->
<!-- 4574311152&#45;&gt;559096 -->
<!-- 4574304864 -->
<g id="node16" class="node">
<title>4574304864</title>
<ellipse fill="lightblue" stroke="black" cx="162" cy="-76.4" rx="18" ry="18"/>
<text text-anchor="middle" x="162" y="-72.7" font-family="Helvetica,sans-Serif" font-size="14.00">H</text>
</g>
<!-- 4574311152&#45;&gt;4574304864 -->
<g id="edge15" class="edge">
<title>4574311152&#45;&gt;4574304864</title>
<path fill="none" stroke="black" d="M125.38,-120.28C131.95,-112.58 140.29,-102.81 147.36,-94.54"/>
<polygon fill="black" stroke="black" points="148.79,-95.56 150.71,-90.62 146.13,-93.28 148.79,-95.56"/>
</g>
<!-- 4574704944 -->
<g id="node17" class="node">
<title>4574704944</title>
<ellipse fill="lightblue" stroke="black" cx="114" cy="-18.2" rx="18.4" ry="18.4"/>
<text text-anchor="middle" x="114" y="-14.5" font-family="Helvetica,sans-Serif" font-size="14.00">G</text>
</g>
<!-- 4574304864&#45;&gt;4574704944 -->
<g id="edge16" class="edge">
<title>4574304864&#45;&gt;4574704944</title>
<path fill="none" stroke="black" d="M150.62,-62.08C144.14,-54.49 135.95,-44.89 128.95,-36.7"/>
<polygon fill="black" stroke="black" points="130.21,-35.48 125.63,-32.81 127.54,-37.75 130.21,-35.48"/>
</g>
<!-- 96714 -->
<!-- 4574304864&#45;&gt;96714 -->
<!-- 320229 -->
<!-- 4574304864&#45;&gt;320229 -->
<!-- 4574697552 -->
<g id="node23" class="node">
<title>4574697552</title>
<ellipse fill="lightblue" stroke="black" cx="179" cy="-134.6" rx="18.4" ry="18.4"/>
<text text-anchor="middle" x="179" y="-130.9" font-family="Helvetica,sans-Serif" font-size="14.00">O</text>
</g>
<!-- 4574300976&#45;&gt;4574697552 -->
<g id="edge22" class="edge">
<title>4574300976&#45;&gt;4574697552</title>
<path fill="none" stroke="black" d="M215.62,-178.48C209.14,-170.89 200.95,-161.29 193.95,-153.1"/>
<polygon fill="black" stroke="black" points="195.21,-151.87 190.63,-149.21 192.54,-154.15 195.21,-151.87"/>
</g>
<!-- 802014 -->
<!-- 4574300976&#45;&gt;802014 -->
<!-- 4573819536 -->
<g id="node25" class="node">
<title>4573819536</title>
<ellipse fill="lightblue" stroke="black" cx="275" cy="-134.6" rx="18.4" ry="18.4"/>
<text text-anchor="middle" x="275" y="-130.9" font-family="Helvetica,sans-Serif" font-size="14.00">Q</text>
</g>
<!-- 4574300976&#45;&gt;4573819536 -->
<g id="edge24" class="edge">
<title>4574300976&#45;&gt;4573819536</title>
<path fill="none" stroke="black" d="M238.38,-178.48C244.86,-170.89 253.05,-161.29 260.05,-153.1"/>
<polygon fill="black" stroke="black" points="261.46,-154.15 263.37,-149.21 258.79,-151.87 261.46,-154.15"/>
</g>
<!-- 430442 -->
<!-- 4574312640&#45;&gt;430442 -->
<!-- 593521 -->
<!-- 4574312640&#45;&gt;593521 -->
<!-- 4573817424 -->
<g id="node28" class="node">
<title>4573817424</title>
<ellipse fill="lightblue" stroke="black" cx="436" cy="-134.6" rx="18" ry="18"/>
<text text-anchor="middle" x="436" y="-130.9" font-family="Helvetica,sans-Serif" font-size="14.00">X</text>
</g>
<!-- 4574312640&#45;&gt;4573817424 -->
<g id="edge27" class="edge">
<title>4574312640&#45;&gt;4573817424</title>
<path fill="none" stroke="black" d="M399.38,-178.48C405.95,-170.78 414.29,-161.01 421.36,-152.74"/>
<polygon fill="black" stroke="black" points="422.79,-153.76 424.71,-148.82 420.13,-151.48 422.79,-153.76"/>
</g>
</g>
</svg>
