<?xml version="1.0" encoding="UTF-8" standalone="no"?>
<!DOCTYPE svg PUBLIC "-//W3C//DTD SVG 1.1//EN"
 "http://www.w3.org/Graphics/SVG/1.1/DTD/svg11.dtd">
<!-- Generated by graphviz version 2.50.0 (0)
 -->
<!-- Pages: 1 -->
<svg width="397pt" height="513pt"
 viewBox="0.00 0.00 397.00 513.09" xmlns="http://www.w3.org/2000/svg" xmlns:xlink="http://www.w3.org/1999/xlink">
<g id="graph0" class="graph" transform="scale(1 1) rotate(0) translate(4 509.09)">
<polygon fill="white" stroke="transparent" points="-4,4 -4,-509.09 393,-509.09 393,4 -4,4"/>
<!-- 4574312832 -->
<g id="node1" class="node">
<title>4574312832</title>
<ellipse fill="lightblue" stroke="black" cx="226" cy="-487.09" rx="18" ry="18"/>
<text text-anchor="middle" x="226" y="-483.39" font-family="Helvetica,sans-Serif" font-size="14.00">T</text>
</g>
<!-- 4574299440 -->
<g id="node2" class="node">
<title>4574299440</title>
<ellipse fill="lightblue" stroke="black" cx="146" cy="-429.09" rx="18" ry="18"/>
<text text-anchor="middle" x="146" y="-425.39" font-family="Helvetica,sans-Serif" font-size="14.00">A</text>
</g>
<!-- 4574312832&#45;&gt;4574299440 -->
<g id="edge1" class="edge">
<title>4574312832&#45;&gt;4574299440</title>
<path fill="none" stroke="black" d="M211.7,-476.08C198.58,-466.9 179.08,-453.24 164.72,-443.2"/>
<polygon fill="black" stroke="black" points="165.55,-441.64 160.45,-440.2 163.54,-444.5 165.55,-441.64"/>
</g>
<!-- 813830 -->
<!-- 4574312832&#45;&gt;813830 -->
<!-- 4574311056 -->
<g id="node4" class="node">
<title>4574311056</title>
<ellipse fill="lightblue" stroke="black" cx="307" cy="-429.09" rx="18" ry="18"/>
<text text-anchor="middle" x="307" y="-425.39" font-family="Helvetica,sans-Serif" font-size="14.00">V</text>
</g>
<!-- 4574312832&#45;&gt;4574311056 -->
<g id="edge3" class="edge">
<title>4574312832&#45;&gt;4574311056</title>
<path fill="none" stroke="black" d="M240.48,-476.08C253.84,-466.84 273.76,-453.07 288.31,-443.01"/>
<polygon fill="black" stroke="black" points="289.53,-444.3 292.64,-440.01 287.54,-441.42 289.53,-444.3"/>
</g>
<!-- 686810 -->
<!-- 4574299440&#45;&gt;686810 -->
<!-- 995912 -->
<!-- 4574299440&#45;&gt;995912 -->
<!-- 4574312112 -->
<g id="node7" class="node">
<title>4574312112</title>
<ellipse fill="lightblue" stroke="black" cx="194" cy="-369.59" rx="18" ry="18"/>
<text text-anchor="middle" x="194" y="-365.89" font-family="Helvetica,sans-Serif" font-size="14.00">F</text>
</g>
<!-- 4574299440&#45;&gt;4574312112 -->
<g id="edge6" class="edge">
<title>4574299440&#45;&gt;4574312112</title>
<path fill="none" stroke="black" d="M157.13,-414.75C163.8,-406.77 172.34,-396.54 179.52,-387.93"/>
<polygon fill="black" stroke="black" points="181.07,-388.82 182.93,-383.86 178.38,-386.57 181.07,-388.82"/>
</g>
<!-- 84417 -->
<!-- 4574311056&#45;&gt;84417 -->
<!-- 225185 -->
<!-- 4574311056&#45;&gt;225185 -->
<!-- 4574300544 -->
<g id="node34" class="node">
<title>4574300544</title>
<ellipse fill="lightblue" stroke="black" cx="356" cy="-369.59" rx="19.5" ry="19.5"/>
<text text-anchor="middle" x="356" y="-365.89" font-family="Helvetica,sans-Serif" font-size="14.00">W</text>
</g>
<!-- 4574311056&#45;&gt;4574300544 -->
<g id="edge33" class="edge">
<title>4574311056&#45;&gt;4574300544</title>
<path fill="none" stroke="black" d="M318.36,-414.75C324.88,-407.11 333.14,-397.41 340.27,-389.05"/>
<polygon fill="black" stroke="black" points="341.76,-390 343.67,-385.06 339.09,-387.73 341.76,-390"/>
</g>
<!-- 4574298720 -->
<g id="node8" class="node">
<title>4574298720</title>
<ellipse fill="lightblue" stroke="black" cx="66" cy="-309.25" rx="18" ry="18"/>
<text text-anchor="middle" x="66" y="-305.55" font-family="Helvetica,sans-Serif" font-size="14.00">B</text>
</g>
<!-- 4574312112&#45;&gt;4574298720 -->
<g id="edge7" class="edge">
<title>4574312112&#45;&gt;4574298720</title>
<path fill="none" stroke="black" d="M177.79,-361.2C154.71,-350.68 112.36,-331.38 86.93,-319.79"/>
<polygon fill="black" stroke="black" points="87.36,-318.06 82.08,-317.57 85.9,-321.24 87.36,-318.06"/>
</g>
<!-- 412009 -->
<!-- 4574312112&#45;&gt;412009 -->
<!-- 4574312640 -->
<g id="node10" class="node">
<title>4574312640</title>
<ellipse fill="lightblue" stroke="black" cx="323" cy="-309.25" rx="18.7" ry="18.7"/>
<text text-anchor="middle" x="323" y="-305.55" font-family="Helvetica,sans-Serif" font-size="14.00">M</text>
</g>
<!-- 4574312112&#45;&gt;4574312640 -->
<g id="edge9" class="edge">
<title>4574312112&#45;&gt;4574312640</title>
<path fill="none" stroke="black" d="M210.08,-361.32C233.09,-350.91 275.5,-331.73 301.28,-320.07"/>
<polygon fill="black" stroke="black" points="302.06,-321.64 305.9,-317.98 300.62,-318.45 302.06,-321.64"/>
</g>
<!-- 230491 -->
<!-- 4574298720&#45;&gt;230491 -->
<!-- 332477 -->
<!-- 4574298720&#45;&gt;332477 -->
<!-- 4574313792 -->
<g id="node13" class="node">
<title>4574313792</title>
<ellipse fill="lightblue" stroke="black" cx="114" cy="-250.4" rx="18" ry="18"/>
<text text-anchor="middle" x="114" y="-246.7" font-family="Helvetica,sans-Serif" font-size="14.00">E</text>
</g>
<!-- 4574298720&#45;&gt;4574313792 -->
<g id="edge12" class="edge">
<title>4574298720&#45;&gt;4574313792</title>
<path fill="none" stroke="black" d="M77.13,-295.06C83.7,-287.28 92.1,-277.34 99.22,-268.91"/>
<polygon fill="black" stroke="black" points="100.71,-269.85 102.59,-264.91 98.03,-267.6 100.71,-269.85"/>
</g>
<!-- 4574307648 -->
<g id="node17" class="node">
<title>4574307648</title>
<ellipse fill="lightblue" stroke="black" cx="275" cy="-250.4" rx="18" ry="18"/>
<text text-anchor="middle" x="275" y="-246.7" font-family="Helvetica,sans-Serif" font-size="14.00">L</text>
</g>
<!-- 4574312640&#45;&gt;4574307648 -->
<g id="edge16" class="edge">
<title>4574312640&#45;&gt;4574307648</title>
<path fill="none" stroke="black" d="M311.13,-294.19C304.65,-286.51 296.55,-276.92 289.67,-268.77"/>
<polygon fill="black" stroke="black" points="290.96,-267.59 286.4,-264.9 288.29,-269.85 290.96,-267.59"/>
</g>
<!-- 711387 -->
<!-- 4574312640&#45;&gt;711387 -->
<!-- 4574308416 -->
<g id="node19" class="node">
<title>4574308416</title>
<ellipse fill="lightblue" stroke="black" cx="371" cy="-250.4" rx="18" ry="18"/>
<text text-anchor="middle" x="371" y="-246.7" font-family="Helvetica,sans-Serif" font-size="14.00">N</text>
</g>
<!-- 4574312640&#45;&gt;4574308416 -->
<g id="edge18" class="edge">
<title>4574312640&#45;&gt;4574308416</title>
<path fill="none" stroke="black" d="M334.87,-294.19C341.35,-286.51 349.45,-276.92 356.33,-268.77"/>
<polygon fill="black" stroke="black" points="357.71,-269.85 359.6,-264.9 355.04,-267.59 357.71,-269.85"/>
</g>
<!-- 4574705136 -->
<g id="node14" class="node">
<title>4574705136</title>
<ellipse fill="lightblue" stroke="black" cx="66" cy="-192.4" rx="18" ry="18"/>
<text text-anchor="middle" x="66" y="-188.7" font-family="Helvetica,sans-Serif" font-size="14.00">D</text>
</g>
<!-- 4574313792&#45;&gt;4574705136 -->
<g id="edge13" class="edge">
<title>4574313792&#45;&gt;4574705136</title>
<path fill="none" stroke="black" d="M102.62,-236.13C96.05,-228.45 87.71,-218.72 80.64,-210.48"/>
<polygon fill="black" stroke="black" points="81.88,-209.23 77.29,-206.57 79.22,-211.51 81.88,-209.23"/>
</g>
<!-- 648598 -->
<!-- 4574313792&#45;&gt;648598 -->
<!-- 596332 -->
<!-- 4574313792&#45;&gt;596332 -->
<!-- 4574304864 -->
<g id="node20" class="node">
<title>4574304864</title>
<ellipse fill="lightblue" stroke="black" cx="227" cy="-192.4" rx="18" ry="18"/>
<text text-anchor="middle" x="227" y="-188.7" font-family="Helvetica,sans-Serif" font-size="14.00">K</text>
</g>
<!-- 4574307648&#45;&gt;4574304864 -->
<g id="edge19" class="edge">
<title>4574307648&#45;&gt;4574304864</title>
<path fill="none" stroke="black" d="M263.62,-236.13C257.05,-228.45 248.71,-218.72 241.64,-210.48"/>
<polygon fill="black" stroke="black" points="242.88,-209.23 238.29,-206.57 240.22,-211.51 242.88,-209.23"/>
</g>
<!-- 351342 -->
<!-- 4574307648&#45;&gt;351342 -->
<!-- 741538 -->
<!-- 4574307648&#45;&gt;741538 -->
<!-- 4574692176 -->
<g id="node23" class="node">
<title>4574692176</title>
<ellipse fill="lightblue" stroke="black" cx="179" cy="-134.2" rx="18.4" ry="18.4"/>
<text text-anchor="middle" x="179" y="-130.5" font-family="Helvetica,sans-Serif" font-size="14.00">G</text>
</g>
<!-- 4574304864&#45;&gt;4574692176 -->
<g id="edge22" class="edge">
<title>4574304864&#45;&gt;4574692176</title>
<path fill="none" stroke="black" d="M215.62,-178.08C209.14,-170.49 200.95,-160.89 193.95,-152.7"/>
<polygon fill="black" stroke="black" points="195.21,-151.48 190.63,-148.81 192.54,-153.75 195.21,-151.48"/>
</g>
<!-- 784530 -->
<!-- 4574304864&#45;&gt;784530 -->
<!-- 773695 -->
<!-- 4574304864&#45;&gt;773695 -->
<!-- 952376 -->
<!-- 4574692176&#45;&gt;952376 -->
<!-- 985531 -->
<!-- 4574692176&#45;&gt;985531 -->
<!-- 4574692752 -->
<g id="node28" class="node">
<title>4574692752</title>
<ellipse fill="lightblue" stroke="black" cx="227" cy="-76" rx="18" ry="18"/>
<text text-anchor="middle" x="227" y="-72.3" font-family="Helvetica,sans-Serif" font-size="14.00">H</text>
</g>
<!-- 4574692176&#45;&gt;4574692752 -->
<g id="edge27" class="edge">
<title>4574692176&#45;&gt;4574692752</title>
<path fill="none" stroke="black" d="M190.38,-119.88C196.95,-112.18 205.29,-102.41 212.36,-94.15"/>
<polygon fill="black" stroke="black" points="213.79,-95.16 215.71,-90.22 211.13,-92.89 213.79,-95.16"/>
</g>
<!-- 920843 -->
<!-- 4574692752&#45;&gt;920843 -->
<!-- 519616 -->
<!-- 4574692752&#45;&gt;519616 -->
<!-- 4574693424 -->
<g id="node31" class="node">
<title>4574693424</title>
<ellipse fill="lightblue" stroke="black" cx="275" cy="-18" rx="18" ry="18"/>
<text text-anchor="middle" x="275" y="-14.3" font-family="Helvetica,sans-Serif" font-size="14.00">I</text>
</g>
<!-- 4574692752&#45;&gt;4574693424 -->
<g id="edge30" class="edge">
<title>4574692752&#45;&gt;4574693424</title>
<path fill="none" stroke="black" d="M238.38,-61.73C244.95,-54.06 253.29,-44.32 260.36,-36.08"/>
<polygon fill="black" stroke="black" points="261.78,-37.11 263.71,-32.18 259.12,-34.83 261.78,-37.11"/>
</g>
</g>
</svg>
