<?xml version="1.0" encoding="UTF-8" standalone="no"?>
<!DOCTYPE svg PUBLIC "-//W3C//DTD SVG 1.1//EN"
 "http://www.w3.org/Graphics/SVG/1.1/DTD/svg11.dtd">
<!-- Generated by graphviz version 2.50.0 (0)
 -->
<!-- Pages: 1 -->
<svg width="623pt" height="335pt"
 viewBox="0.00 0.00 623.00 334.79" xmlns="http://www.w3.org/2000/svg" xmlns:xlink="http://www.w3.org/1999/xlink">
<g id="graph0" class="graph" transform="scale(1 1) rotate(0) translate(4 330.79)">
<polygon fill="white" stroke="transparent" points="-4,4 -4,-330.79 619,-330.79 619,4 -4,4"/>
<!-- 4574311776 -->
<g id="node1" class="node">
<title>4574311776</title>
<ellipse fill="lightblue" stroke="black" cx="420" cy="-308.79" rx="18" ry="18"/>
<text text-anchor="middle" x="420" y="-305.09" font-family="Helvetica,sans-Serif" font-size="14.00">L</text>
</g>
<!-- 4574309472 -->
<g id="node2" class="node">
<title>4574309472</title>
<ellipse fill="lightblue" stroke="black" cx="292" cy="-250.79" rx="18" ry="18"/>
<text text-anchor="middle" x="292" y="-247.09" font-family="Helvetica,sans-Serif" font-size="14.00">H</text>
</g>
<!-- 4574311776&#45;&gt;4574309472 -->
<g id="edge1" class="edge">
<title>4574311776&#45;&gt;4574309472</title>
<path fill="none" stroke="black" d="M403.79,-300.7C380.83,-290.66 338.82,-272.28 313.35,-261.13"/>
<polygon fill="black" stroke="black" points="313.77,-259.41 308.48,-259.01 312.36,-262.61 313.77,-259.41"/>
</g>
<!-- 896392 -->
<!-- 4574311776&#45;&gt;896392 -->
<!-- 4574301840 -->
<g id="node4" class="node">
<title>4574301840</title>
<ellipse fill="lightblue" stroke="black" cx="549" cy="-250.79" rx="18" ry="18"/>
<text text-anchor="middle" x="549" y="-247.09" font-family="Helvetica,sans-Serif" font-size="14.00">T</text>
</g>
<!-- 4574311776&#45;&gt;4574301840 -->
<g id="edge3" class="edge">
<title>4574311776&#45;&gt;4574301840</title>
<path fill="none" stroke="black" d="M436.34,-300.7C459.6,-290.6 502.28,-272.07 527.91,-260.95"/>
<polygon fill="black" stroke="black" points="528.91,-262.42 532.79,-258.83 527.51,-259.21 528.91,-262.42"/>
</g>
<!-- 4574313984 -->
<g id="node5" class="node">
<title>4574313984</title>
<ellipse fill="lightblue" stroke="black" cx="179" cy="-192.79" rx="18" ry="18"/>
<text text-anchor="middle" x="179" y="-189.09" font-family="Helvetica,sans-Serif" font-size="14.00">E</text>
</g>
<!-- 4574309472&#45;&gt;4574313984 -->
<g id="edge4" class="edge">
<title>4574309472&#45;&gt;4574313984</title>
<path fill="none" stroke="black" d="M276.29,-242.01C256.25,-232.07 221.54,-214.88 199.45,-203.93"/>
<polygon fill="black" stroke="black" points="200.2,-202.35 194.94,-201.69 198.65,-205.48 200.2,-202.35"/>
</g>
<!-- 926159 -->
<!-- 4574309472&#45;&gt;926159 -->
<!-- 4574702160 -->
<g id="node7" class="node">
<title>4574702160</title>
<ellipse fill="lightblue" stroke="black" cx="340" cy="-192.79" rx="18" ry="18"/>
<text text-anchor="middle" x="340" y="-189.09" font-family="Helvetica,sans-Serif" font-size="14.00">K</text>
</g>
<!-- 4574309472&#45;&gt;4574702160 -->
<g id="edge6" class="edge">
<title>4574309472&#45;&gt;4574702160</title>
<path fill="none" stroke="black" d="M303.38,-236.52C309.95,-228.85 318.29,-219.12 325.36,-210.88"/>
<polygon fill="black" stroke="black" points="326.78,-211.9 328.71,-206.97 324.12,-209.63 326.78,-211.9"/>
</g>
<!-- 4574314416 -->
<g id="node20" class="node">
<title>4574314416</title>
<ellipse fill="lightblue" stroke="black" cx="501" cy="-192.79" rx="18" ry="18"/>
<text text-anchor="middle" x="501" y="-189.09" font-family="Helvetica,sans-Serif" font-size="14.00">S</text>
</g>
<!-- 4574301840&#45;&gt;4574314416 -->
<g id="edge19" class="edge">
<title>4574301840&#45;&gt;4574314416</title>
<path fill="none" stroke="black" d="M537.62,-236.52C531.05,-228.85 522.71,-219.12 515.64,-210.88"/>
<polygon fill="black" stroke="black" points="516.88,-209.63 512.29,-206.97 514.22,-211.9 516.88,-209.63"/>
</g>
<!-- 675438 -->
<!-- 4574301840&#45;&gt;675438 -->
<!-- 770499 -->
<!-- 4574301840&#45;&gt;770499 -->
<!-- 4574312352 -->
<g id="node8" class="node">
<title>4574312352</title>
<ellipse fill="lightblue" stroke="black" cx="66" cy="-134.79" rx="18" ry="18"/>
<text text-anchor="middle" x="66" y="-131.09" font-family="Helvetica,sans-Serif" font-size="14.00">D</text>
</g>
<!-- 4574313984&#45;&gt;4574312352 -->
<g id="edge7" class="edge">
<title>4574313984&#45;&gt;4574312352</title>
<path fill="none" stroke="black" d="M163.29,-184.01C143.25,-174.07 108.54,-156.88 86.45,-145.93"/>
<polygon fill="black" stroke="black" points="87.2,-144.35 81.94,-143.69 85.65,-147.48 87.2,-144.35"/>
</g>
<!-- 537617 -->
<!-- 4574313984&#45;&gt;537617 -->
<!-- 4574311152 -->
<g id="node10" class="node">
<title>4574311152</title>
<ellipse fill="lightblue" stroke="black" cx="227" cy="-134.79" rx="18" ry="18"/>
<text text-anchor="middle" x="227" y="-131.09" font-family="Helvetica,sans-Serif" font-size="14.00">F</text>
</g>
<!-- 4574313984&#45;&gt;4574311152 -->
<g id="edge9" class="edge">
<title>4574313984&#45;&gt;4574311152</title>
<path fill="none" stroke="black" d="M190.38,-178.52C196.95,-170.85 205.29,-161.12 212.36,-152.88"/>
<polygon fill="black" stroke="black" points="213.78,-153.9 215.71,-148.97 211.12,-151.63 213.78,-153.9"/>
</g>
<!-- 4574695536 -->
<g id="node17" class="node">
<title>4574695536</title>
<ellipse fill="lightblue" stroke="black" cx="292" cy="-134.79" rx="18" ry="18"/>
<text text-anchor="middle" x="292" y="-131.09" font-family="Helvetica,sans-Serif" font-size="14.00">I</text>
</g>
<!-- 4574702160&#45;&gt;4574695536 -->
<g id="edge16" class="edge">
<title>4574702160&#45;&gt;4574695536</title>
<path fill="none" stroke="black" d="M328.62,-178.52C322.05,-170.85 313.71,-161.12 306.64,-152.88"/>
<polygon fill="black" stroke="black" points="307.88,-151.63 303.29,-148.97 305.22,-153.9 307.88,-151.63"/>
</g>
<!-- 90811 -->
<!-- 4574702160&#45;&gt;90811 -->
<!-- 216183 -->
<!-- 4574702160&#45;&gt;216183 -->
<!-- 4574309808 -->
<g id="node11" class="node">
<title>4574309808</title>
<ellipse fill="lightblue" stroke="black" cx="18" cy="-76.6" rx="18" ry="18"/>
<text text-anchor="middle" x="18" y="-72.9" font-family="Helvetica,sans-Serif" font-size="14.00">A</text>
</g>
<!-- 4574312352&#45;&gt;4574309808 -->
<g id="edge10" class="edge">
<title>4574312352&#45;&gt;4574309808</title>
<path fill="none" stroke="black" d="M54.62,-120.48C48.05,-112.78 39.71,-103.01 32.64,-94.74"/>
<polygon fill="black" stroke="black" points="33.87,-93.48 29.29,-90.82 31.21,-95.76 33.87,-93.48"/>
</g>
<!-- 708890 -->
<!-- 4574312352&#45;&gt;708890 -->
<!-- 112218 -->
<!-- 4574312352&#45;&gt;112218 -->
<!-- 737815 -->
<!-- 4574311152&#45;&gt;737815 -->
<!-- 240688 -->
<!-- 4574311152&#45;&gt;240688 -->
<!-- 4574300976 -->
<g id="node16" class="node">
<title>4574300976</title>
<ellipse fill="lightblue" stroke="black" cx="275" cy="-76.6" rx="18.4" ry="18.4"/>
<text text-anchor="middle" x="275" y="-72.9" font-family="Helvetica,sans-Serif" font-size="14.00">G</text>
</g>
<!-- 4574311152&#45;&gt;4574300976 -->
<g id="edge15" class="edge">
<title>4574311152&#45;&gt;4574300976</title>
<path fill="none" stroke="black" d="M238.38,-120.48C244.86,-112.89 253.05,-103.29 260.05,-95.1"/>
<polygon fill="black" stroke="black" points="261.46,-96.15 263.37,-91.21 258.79,-93.87 261.46,-96.15"/>
</g>
<!-- 4574313168 -->
<g id="node23" class="node">
<title>4574313168</title>
<ellipse fill="lightblue" stroke="black" cx="453" cy="-134.79" rx="18" ry="18"/>
<text text-anchor="middle" x="453" y="-131.09" font-family="Helvetica,sans-Serif" font-size="14.00">R</text>
</g>
<!-- 4574314416&#45;&gt;4574313168 -->
<g id="edge22" class="edge">
<title>4574314416&#45;&gt;4574313168</title>
<path fill="none" stroke="black" d="M489.62,-178.52C483.05,-170.85 474.71,-161.12 467.64,-152.88"/>
<polygon fill="black" stroke="black" points="468.88,-151.63 464.29,-148.97 466.22,-153.9 468.88,-151.63"/>
</g>
<!-- 247615 -->
<!-- 4574314416&#45;&gt;247615 -->
<!-- 55721 -->
<!-- 4574314416&#45;&gt;55721 -->
<!-- 4574310624 -->
<g id="node26" class="node">
<title>4574310624</title>
<ellipse fill="lightblue" stroke="black" cx="405" cy="-76.6" rx="18.4" ry="18.4"/>
<text text-anchor="middle" x="405" y="-72.9" font-family="Helvetica,sans-Serif" font-size="14.00">O</text>
</g>
<!-- 4574313168&#45;&gt;4574310624 -->
<g id="edge25" class="edge">
<title>4574313168&#45;&gt;4574310624</title>
<path fill="none" stroke="black" d="M441.62,-120.48C435.14,-112.89 426.95,-103.29 419.95,-95.1"/>
<polygon fill="black" stroke="black" points="421.21,-93.87 416.63,-91.21 418.54,-96.15 421.21,-93.87"/>
</g>
<!-- 744147 -->
<!-- 4574313168&#45;&gt;744147 -->
<!-- 737629 -->
<!-- 4574313168&#45;&gt;737629 -->
<!-- 4574692368 -->
<g id="node29" class="node">
<title>4574692368</title>
<ellipse fill="lightblue" stroke="black" cx="357" cy="-18.2" rx="18" ry="18"/>
<text text-anchor="middle" x="357" y="-14.5" font-family="Helvetica,sans-Serif" font-size="14.00">N</text>
</g>
<!-- 4574310624&#45;&gt;4574692368 -->
<g id="edge28" class="edge">
<title>4574310624&#45;&gt;4574692368</title>
<path fill="none" stroke="black" d="M393.62,-62.23C387.05,-54.5 378.71,-44.7 371.64,-36.4"/>
<polygon fill="black" stroke="black" points="372.87,-35.14 368.29,-32.47 370.2,-37.41 372.87,-35.14"/>
</g>
<!-- 781118 -->
<!-- 4574310624&#45;&gt;781118 -->
<!-- 4574705760 -->
<g id="node31" class="node">
<title>4574705760</title>
<ellipse fill="lightblue" stroke="black" cx="453" cy="-18.2" rx="18.4" ry="18.4"/>
<text text-anchor="middle" x="453" y="-14.5" font-family="Helvetica,sans-Serif" font-size="14.00">Q</text>
</g>
<!-- 4574310624&#45;&gt;4574705760 -->
<g id="edge30" class="edge">
<title>4574310624&#45;&gt;4574705760</title>
<path fill="none" stroke="black" d="M416.38,-62.23C422.86,-54.62 431.05,-44.99 438.05,-36.77"/>
<polygon fill="black" stroke="black" points="439.46,-37.8 441.37,-32.86 436.8,-35.53 439.46,-37.8"/>
</g>
</g>
</svg>
