<?xml version="1.0" encoding="UTF-8" standalone="no"?>
<!DOCTYPE svg PUBLIC "-//W3C//DTD SVG 1.1//EN"
 "http://www.w3.org/Graphics/SVG/1.1/DTD/svg11.dtd">
<!-- Generated by graphviz version 2.50.0 (0)
 -->
<!-- Pages: 1 -->
<svg width="364pt" height="570pt"
 viewBox="0.00 0.00 364.00 569.79" xmlns="http://www.w3.org/2000/svg" xmlns:xlink="http://www.w3.org/1999/xlink">
<g id="graph0" class="graph" transform="scale(1 1) rotate(0) translate(4 565.79)">
<polygon fill="white" stroke="transparent" points="-4,4 -4,-565.79 360,-565.79 360,4 -4,4"/>
<!-- 4573820688 -->
<g id="node1" class="node">
<title>4573820688</title>
<ellipse fill="lightblue" stroke="black" cx="241" cy="-543.79" rx="18" ry="18"/>
<text text-anchor="middle" x="241" y="-540.09" font-family="Helvetica,sans-Serif" font-size="14.00">A</text>
</g>
<!-- 260343 -->
<!-- 4573820688&#45;&gt;260343 -->
<!-- 808695 -->
<!-- 4573820688&#45;&gt;808695 -->
<!-- 4573817664 -->
<g id="node4" class="node">
<title>4573817664</title>
<ellipse fill="lightblue" stroke="black" cx="289" cy="-485.79" rx="18" ry="18"/>
<text text-anchor="middle" x="289" y="-482.09" font-family="Helvetica,sans-Serif" font-size="14.00">Y</text>
</g>
<!-- 4573820688&#45;&gt;4573817664 -->
<g id="edge3" class="edge">
<title>4573820688&#45;&gt;4573817664</title>
<path fill="none" stroke="black" d="M252.38,-529.52C258.95,-521.85 267.29,-512.11 274.36,-503.87"/>
<polygon fill="black" stroke="black" points="275.78,-504.9 277.71,-499.97 273.12,-502.62 275.78,-504.9"/>
</g>
<!-- 4574309280 -->
<g id="node5" class="node">
<title>4574309280</title>
<ellipse fill="lightblue" stroke="black" cx="241" cy="-427.79" rx="18" ry="18"/>
<text text-anchor="middle" x="241" y="-424.09" font-family="Helvetica,sans-Serif" font-size="14.00">C</text>
</g>
<!-- 4573817664&#45;&gt;4574309280 -->
<g id="edge4" class="edge">
<title>4573817664&#45;&gt;4574309280</title>
<path fill="none" stroke="black" d="M277.62,-471.52C271.05,-463.85 262.71,-454.11 255.64,-445.87"/>
<polygon fill="black" stroke="black" points="256.88,-444.62 252.29,-441.97 254.22,-446.9 256.88,-444.62"/>
</g>
<!-- 791802 -->
<!-- 4573817664&#45;&gt;791802 -->
<!-- 194319 -->
<!-- 4573817664&#45;&gt;194319 -->
<!-- 352895 -->
<!-- 4574309280&#45;&gt;352895 -->
<!-- 907522 -->
<!-- 4574309280&#45;&gt;907522 -->
<!-- 4574310720 -->
<g id="node10" class="node">
<title>4574310720</title>
<ellipse fill="lightblue" stroke="black" cx="290" cy="-368.29" rx="19.5" ry="19.5"/>
<text text-anchor="middle" x="290" y="-364.59" font-family="Helvetica,sans-Serif" font-size="14.00">W</text>
</g>
<!-- 4574309280&#45;&gt;4574310720 -->
<g id="edge9" class="edge">
<title>4574309280&#45;&gt;4574310720</title>
<path fill="none" stroke="black" d="M252.36,-413.45C258.88,-405.81 267.14,-396.11 274.27,-387.75"/>
<polygon fill="black" stroke="black" points="275.76,-388.7 277.67,-383.76 273.09,-386.43 275.76,-388.7"/>
</g>
<!-- 4574305152 -->
<g id="node11" class="node">
<title>4574305152</title>
<ellipse fill="lightblue" stroke="black" cx="242" cy="-308.79" rx="18" ry="18"/>
<text text-anchor="middle" x="242" y="-305.09" font-family="Helvetica,sans-Serif" font-size="14.00">T</text>
</g>
<!-- 4574310720&#45;&gt;4574305152 -->
<g id="edge10" class="edge">
<title>4574310720&#45;&gt;4574305152</title>
<path fill="none" stroke="black" d="M277.89,-352.78C271.4,-345.01 263.35,-335.37 256.53,-327.19"/>
<polygon fill="black" stroke="black" points="257.83,-326.03 253.28,-323.31 255.15,-328.27 257.83,-326.03"/>
</g>
<!-- 604160 -->
<!-- 4574310720&#45;&gt;604160 -->
<!-- 4574309808 -->
<g id="node13" class="node">
<title>4574309808</title>
<ellipse fill="lightblue" stroke="black" cx="338" cy="-308.79" rx="18" ry="18"/>
<text text-anchor="middle" x="338" y="-305.09" font-family="Helvetica,sans-Serif" font-size="14.00">X</text>
</g>
<!-- 4574310720&#45;&gt;4574309808 -->
<g id="edge12" class="edge">
<title>4574310720&#45;&gt;4574309808</title>
<path fill="none" stroke="black" d="M302.11,-352.78C308.6,-345.01 316.65,-335.37 323.47,-327.19"/>
<polygon fill="black" stroke="black" points="324.85,-328.27 326.72,-323.31 322.17,-326.03 324.85,-328.27"/>
</g>
<!-- 4574300928 -->
<g id="node14" class="node">
<title>4574300928</title>
<ellipse fill="lightblue" stroke="black" cx="194" cy="-250.79" rx="18" ry="18"/>
<text text-anchor="middle" x="194" y="-247.09" font-family="Helvetica,sans-Serif" font-size="14.00">R</text>
</g>
<!-- 4574305152&#45;&gt;4574300928 -->
<g id="edge13" class="edge">
<title>4574305152&#45;&gt;4574300928</title>
<path fill="none" stroke="black" d="M230.62,-294.52C224.05,-286.85 215.71,-277.12 208.64,-268.88"/>
<polygon fill="black" stroke="black" points="209.88,-267.63 205.29,-264.97 207.22,-269.9 209.88,-267.63"/>
</g>
<!-- 704967 -->
<!-- 4574305152&#45;&gt;704967 -->
<!-- 4574313072 -->
<g id="node16" class="node">
<title>4574313072</title>
<ellipse fill="lightblue" stroke="black" cx="290" cy="-250.79" rx="18" ry="18"/>
<text text-anchor="middle" x="290" y="-247.09" font-family="Helvetica,sans-Serif" font-size="14.00">U</text>
</g>
<!-- 4574305152&#45;&gt;4574313072 -->
<g id="edge15" class="edge">
<title>4574305152&#45;&gt;4574313072</title>
<path fill="none" stroke="black" d="M253.38,-294.52C259.95,-286.85 268.29,-277.12 275.36,-268.88"/>
<polygon fill="black" stroke="black" points="276.78,-269.9 278.71,-264.97 274.12,-267.63 276.78,-269.9"/>
</g>
<!-- 4574301024 -->
<g id="node17" class="node">
<title>4574301024</title>
<ellipse fill="lightblue" stroke="black" cx="146" cy="-192.79" rx="18" ry="18"/>
<text text-anchor="middle" x="146" y="-189.09" font-family="Helvetica,sans-Serif" font-size="14.00">N</text>
</g>
<!-- 4574300928&#45;&gt;4574301024 -->
<g id="edge16" class="edge">
<title>4574300928&#45;&gt;4574301024</title>
<path fill="none" stroke="black" d="M182.62,-236.52C176.05,-228.85 167.71,-219.12 160.64,-210.88"/>
<polygon fill="black" stroke="black" points="161.88,-209.63 157.29,-206.97 159.22,-211.9 161.88,-209.63"/>
</g>
<!-- 116743 -->
<!-- 4574300928&#45;&gt;116743 -->
<!-- 4574312640 -->
<g id="node19" class="node">
<title>4574312640</title>
<ellipse fill="lightblue" stroke="black" cx="242" cy="-192.79" rx="18" ry="18"/>
<text text-anchor="middle" x="242" y="-189.09" font-family="Helvetica,sans-Serif" font-size="14.00">S</text>
</g>
<!-- 4574300928&#45;&gt;4574312640 -->
<g id="edge18" class="edge">
<title>4574300928&#45;&gt;4574312640</title>
<path fill="none" stroke="black" d="M205.38,-236.52C211.95,-228.85 220.29,-219.12 227.36,-210.88"/>
<polygon fill="black" stroke="black" points="228.78,-211.9 230.71,-206.97 226.12,-209.63 228.78,-211.9"/>
</g>
<!-- 4574311872 -->
<g id="node20" class="node">
<title>4574311872</title>
<ellipse fill="lightblue" stroke="black" cx="66" cy="-134.6" rx="18" ry="18"/>
<text text-anchor="middle" x="66" y="-130.9" font-family="Helvetica,sans-Serif" font-size="14.00">J</text>
</g>
<!-- 4574301024&#45;&gt;4574311872 -->
<g id="edge19" class="edge">
<title>4574301024&#45;&gt;4574311872</title>
<path fill="none" stroke="black" d="M131.7,-181.75C118.58,-172.53 99.08,-158.83 84.72,-148.75"/>
<polygon fill="black" stroke="black" points="85.55,-147.19 80.45,-145.74 83.53,-150.05 85.55,-147.19"/>
</g>
<!-- 669530 -->
<!-- 4574301024&#45;&gt;669530 -->
<!-- 4574302800 -->
<g id="node22" class="node">
<title>4574302800</title>
<ellipse fill="lightblue" stroke="black" cx="227" cy="-134.6" rx="18.4" ry="18.4"/>
<text text-anchor="middle" x="227" y="-130.9" font-family="Helvetica,sans-Serif" font-size="14.00">Q</text>
</g>
<!-- 4574301024&#45;&gt;4574302800 -->
<g id="edge21" class="edge">
<title>4574301024&#45;&gt;4574302800</title>
<path fill="none" stroke="black" d="M160.48,-181.75C173.76,-172.53 193.51,-158.83 208.04,-148.75"/>
<polygon fill="black" stroke="black" points="209.26,-150.03 212.37,-145.74 207.27,-147.16 209.26,-150.03"/>
</g>
<!-- 911628 -->
<!-- 4574311872&#45;&gt;911628 -->
<!-- 210258 -->
<!-- 4574311872&#45;&gt;210258 -->
<!-- 4574310624 -->
<g id="node25" class="node">
<title>4574310624</title>
<ellipse fill="lightblue" stroke="black" cx="114" cy="-76.2" rx="18" ry="18"/>
<text text-anchor="middle" x="114" y="-72.5" font-family="Helvetica,sans-Serif" font-size="14.00">K</text>
</g>
<!-- 4574311872&#45;&gt;4574310624 -->
<g id="edge24" class="edge">
<title>4574311872&#45;&gt;4574310624</title>
<path fill="none" stroke="black" d="M77.38,-120.23C83.95,-112.5 92.29,-102.7 99.36,-94.4"/>
<polygon fill="black" stroke="black" points="100.8,-95.41 102.71,-90.47 98.13,-93.14 100.8,-95.41"/>
</g>
<!-- 4574313792 -->
<g id="node29" class="node">
<title>4574313792</title>
<ellipse fill="lightblue" stroke="black" cx="179" cy="-76.2" rx="18.4" ry="18.4"/>
<text text-anchor="middle" x="179" y="-72.5" font-family="Helvetica,sans-Serif" font-size="14.00">O</text>
</g>
<!-- 4574302800&#45;&gt;4574313792 -->
<g id="edge28" class="edge">
<title>4574302800&#45;&gt;4574313792</title>
<path fill="none" stroke="black" d="M215.62,-120.23C209.14,-112.62 200.95,-102.99 193.95,-94.77"/>
<polygon fill="black" stroke="black" points="195.2,-93.53 190.63,-90.86 192.54,-95.8 195.2,-93.53"/>
</g>
<!-- 375937 -->
<!-- 4574302800&#45;&gt;375937 -->
<!-- 539490 -->
<!-- 4574302800&#45;&gt;539490 -->
<!-- 935424 -->
<!-- 4574310624&#45;&gt;935424 -->
<!-- 656514 -->
<!-- 4574310624&#45;&gt;656514 -->
<!-- 4574306064 -->
<g id="node28" class="node">
<title>4574306064</title>
<ellipse fill="lightblue" stroke="black" cx="162" cy="-18" rx="18" ry="18"/>
<text text-anchor="middle" x="162" y="-14.3" font-family="Helvetica,sans-Serif" font-size="14.00">L</text>
</g>
<!-- 4574310624&#45;&gt;4574306064 -->
<g id="edge27" class="edge">
<title>4574310624&#45;&gt;4574306064</title>
<path fill="none" stroke="black" d="M125.38,-61.88C131.95,-54.18 140.29,-44.41 147.36,-36.15"/>
<polygon fill="black" stroke="black" points="148.79,-37.16 150.71,-32.22 146.13,-34.89 148.79,-37.16"/>
</g>
</g>
</svg>
