<?xml version="1.0" encoding="UTF-8" standalone="no"?>
<!DOCTYPE svg PUBLIC "-//W3C//DTD SVG 1.1//EN"
 "http://www.w3.org/Graphics/SVG/1.1/DTD/svg11.dtd">
<!-- Generated by graphviz version 2.50.0 (0)
 -->
<!-- Pages: 1 -->
<svg width="462pt" height="394pt"
 viewBox="0.00 0.00 462.00 394.09" xmlns="http://www.w3.org/2000/svg" xmlns:xlink="http://www.w3.org/1999/xlink">
<g id="graph0" class="graph" transform="scale(1 1) rotate(0) translate(4 390.09)">
<polygon fill="white" stroke="transparent" points="-4,4 -4,-390.09 458,-390.09 458,4 -4,4"/>
<!-- 4573816992 -->
<g id="node1" class="node">
<title>4573816992</title>
<ellipse fill="lightblue" stroke="black" cx="355" cy="-368.09" rx="18" ry="18"/>
<text text-anchor="middle" x="355" y="-364.39" font-family="Helvetica,sans-Serif" font-size="14.00">Y</text>
</g>
<!-- 4574341952 -->
<g id="node2" class="node">
<title>4574341952</title>
<ellipse fill="lightblue" stroke="black" cx="307" cy="-309.9" rx="18.4" ry="18.4"/>
<text text-anchor="middle" x="307" y="-306.2" font-family="Helvetica,sans-Serif" font-size="14.00">Q</text>
</g>
<!-- 4573816992&#45;&gt;4574341952 -->
<g id="edge1" class="edge">
<title>4573816992&#45;&gt;4574341952</title>
<path fill="none" stroke="black" d="M343.62,-353.78C337.14,-346.19 328.95,-336.59 321.95,-328.4"/>
<polygon fill="black" stroke="black" points="323.21,-327.17 318.63,-324.51 320.54,-329.45 323.21,-327.17"/>
</g>
<!-- 18511 -->
<!-- 4573816992&#45;&gt;18511 -->
<!-- 157066 -->
<!-- 4573816992&#45;&gt;157066 -->
<!-- 4574339024 -->
<g id="node5" class="node">
<title>4574339024</title>
<ellipse fill="lightblue" stroke="black" cx="226" cy="-251.7" rx="18" ry="18"/>
<text text-anchor="middle" x="226" y="-248" font-family="Helvetica,sans-Serif" font-size="14.00">L</text>
</g>
<!-- 4574341952&#45;&gt;4574339024 -->
<g id="edge4" class="edge">
<title>4574341952&#45;&gt;4574339024</title>
<path fill="none" stroke="black" d="M292.52,-298.85C279.16,-289.58 259.24,-275.76 244.69,-265.66"/>
<polygon fill="black" stroke="black" points="245.46,-264.07 240.36,-262.66 243.47,-266.94 245.46,-264.07"/>
</g>
<!-- 131574 -->
<!-- 4574341952&#45;&gt;131574 -->
<!-- 4574338304 -->
<g id="node7" class="node">
<title>4574338304</title>
<ellipse fill="lightblue" stroke="black" cx="388" cy="-251.7" rx="18" ry="18"/>
<text text-anchor="middle" x="388" y="-248" font-family="Helvetica,sans-Serif" font-size="14.00">V</text>
</g>
<!-- 4574341952&#45;&gt;4574338304 -->
<g id="edge6" class="edge">
<title>4574341952&#45;&gt;4574338304</title>
<path fill="none" stroke="black" d="M321.48,-298.85C334.84,-289.58 354.76,-275.76 369.31,-265.66"/>
<polygon fill="black" stroke="black" points="370.53,-266.94 373.64,-262.66 368.54,-264.07 370.53,-266.94"/>
</g>
<!-- 4574346608 -->
<g id="node8" class="node">
<title>4574346608</title>
<ellipse fill="lightblue" stroke="black" cx="178" cy="-192.85" rx="18" ry="18"/>
<text text-anchor="middle" x="178" y="-189.15" font-family="Helvetica,sans-Serif" font-size="14.00">F</text>
</g>
<!-- 4574339024&#45;&gt;4574346608 -->
<g id="edge7" class="edge">
<title>4574339024&#45;&gt;4574346608</title>
<path fill="none" stroke="black" d="M214.87,-237.51C208.3,-229.73 199.9,-219.79 192.78,-211.36"/>
<polygon fill="black" stroke="black" points="193.97,-210.05 189.41,-207.36 191.29,-212.31 193.97,-210.05"/>
</g>
<!-- 322408 -->
<!-- 4574339024&#45;&gt;322408 -->
<!-- 4574314224 -->
<g id="node10" class="node">
<title>4574314224</title>
<ellipse fill="lightblue" stroke="black" cx="274" cy="-192.85" rx="18.7" ry="18.7"/>
<text text-anchor="middle" x="274" y="-189.15" font-family="Helvetica,sans-Serif" font-size="14.00">M</text>
</g>
<!-- 4574339024&#45;&gt;4574314224 -->
<g id="edge9" class="edge">
<title>4574339024&#45;&gt;4574314224</title>
<path fill="none" stroke="black" d="M237.13,-237.51C243.61,-229.84 251.85,-220.08 258.91,-211.73"/>
<polygon fill="black" stroke="black" points="260.37,-212.7 262.26,-207.75 257.7,-210.45 260.37,-212.7"/>
</g>
<!-- 4574343104 -->
<g id="node23" class="node">
<title>4574343104</title>
<ellipse fill="lightblue" stroke="black" cx="340" cy="-192.85" rx="18" ry="18"/>
<text text-anchor="middle" x="340" y="-189.15" font-family="Helvetica,sans-Serif" font-size="14.00">R</text>
</g>
<!-- 4574338304&#45;&gt;4574343104 -->
<g id="edge22" class="edge">
<title>4574338304&#45;&gt;4574343104</title>
<path fill="none" stroke="black" d="M376.87,-237.51C370.3,-229.73 361.9,-219.79 354.78,-211.36"/>
<polygon fill="black" stroke="black" points="355.97,-210.05 351.41,-207.36 353.29,-212.31 355.97,-210.05"/>
</g>
<!-- 806120 -->
<!-- 4574338304&#45;&gt;806120 -->
<!-- 880064 -->
<!-- 4574338304&#45;&gt;880064 -->
<!-- 4574347232 -->
<g id="node11" class="node">
<title>4574347232</title>
<ellipse fill="lightblue" stroke="black" cx="66" cy="-134" rx="18" ry="18"/>
<text text-anchor="middle" x="66" y="-130.3" font-family="Helvetica,sans-Serif" font-size="14.00">C</text>
</g>
<!-- 4574346608&#45;&gt;4574347232 -->
<g id="edge10" class="edge">
<title>4574346608&#45;&gt;4574347232</title>
<path fill="none" stroke="black" d="M161.95,-183.7C142.05,-173.6 108.09,-156.36 86.36,-145.34"/>
<polygon fill="black" stroke="black" points="86.91,-143.65 81.66,-142.95 85.32,-146.77 86.91,-143.65"/>
</g>
<!-- 516766 -->
<!-- 4574346608&#45;&gt;516766 -->
<!-- 4574314416 -->
<g id="node13" class="node">
<title>4574314416</title>
<ellipse fill="lightblue" stroke="black" cx="227" cy="-134" rx="18" ry="18"/>
<text text-anchor="middle" x="227" y="-130.3" font-family="Helvetica,sans-Serif" font-size="14.00">K</text>
</g>
<!-- 4574346608&#45;&gt;4574314416 -->
<g id="edge12" class="edge">
<title>4574346608&#45;&gt;4574314416</title>
<path fill="none" stroke="black" d="M189.36,-178.66C196.17,-170.77 204.89,-160.65 212.22,-152.14"/>
<polygon fill="black" stroke="black" points="213.76,-153.04 215.7,-148.11 211.11,-150.76 213.76,-153.04"/>
</g>
<!-- 4574345648 -->
<g id="node14" class="node">
<title>4574345648</title>
<ellipse fill="lightblue" stroke="black" cx="18" cy="-76" rx="18" ry="18"/>
<text text-anchor="middle" x="18" y="-72.3" font-family="Helvetica,sans-Serif" font-size="14.00">B</text>
</g>
<!-- 4574347232&#45;&gt;4574345648 -->
<g id="edge13" class="edge">
<title>4574347232&#45;&gt;4574345648</title>
<path fill="none" stroke="black" d="M54.62,-119.73C48.05,-112.06 39.71,-102.32 32.64,-94.08"/>
<polygon fill="black" stroke="black" points="33.88,-92.83 29.29,-90.18 31.22,-95.11 33.88,-92.83"/>
</g>
<!-- 406545 -->
<!-- 4574347232&#45;&gt;406545 -->
<!-- 4574337104 -->
<g id="node16" class="node">
<title>4574337104</title>
<ellipse fill="lightblue" stroke="black" cx="114" cy="-76" rx="18" ry="18"/>
<text text-anchor="middle" x="114" y="-72.3" font-family="Helvetica,sans-Serif" font-size="14.00">D</text>
</g>
<!-- 4574347232&#45;&gt;4574337104 -->
<g id="edge15" class="edge">
<title>4574347232&#45;&gt;4574337104</title>
<path fill="none" stroke="black" d="M77.38,-119.73C83.95,-112.06 92.29,-102.32 99.36,-94.08"/>
<polygon fill="black" stroke="black" points="100.78,-95.11 102.71,-90.18 98.12,-92.83 100.78,-95.11"/>
</g>
<!-- 4574301312 -->
<g id="node20" class="node">
<title>4574301312</title>
<ellipse fill="lightblue" stroke="black" cx="179" cy="-76" rx="18" ry="18"/>
<text text-anchor="middle" x="179" y="-72.3" font-family="Helvetica,sans-Serif" font-size="14.00">I</text>
</g>
<!-- 4574314416&#45;&gt;4574301312 -->
<g id="edge19" class="edge">
<title>4574314416&#45;&gt;4574301312</title>
<path fill="none" stroke="black" d="M215.62,-119.73C209.05,-112.06 200.71,-102.32 193.64,-94.08"/>
<polygon fill="black" stroke="black" points="194.88,-92.83 190.29,-90.18 192.22,-95.11 194.88,-92.83"/>
</g>
<!-- 304598 -->
<!-- 4574314416&#45;&gt;304598 -->
<!-- 391219 -->
<!-- 4574314416&#45;&gt;391219 -->
<!-- 640535 -->
<!-- 4574337104&#45;&gt;640535 -->
<!-- 547637 -->
<!-- 4574337104&#45;&gt;547637 -->
<!-- 4574307408 -->
<g id="node19" class="node">
<title>4574307408</title>
<ellipse fill="lightblue" stroke="black" cx="162" cy="-18" rx="18" ry="18"/>
<text text-anchor="middle" x="162" y="-14.3" font-family="Helvetica,sans-Serif" font-size="14.00">E</text>
</g>
<!-- 4574337104&#45;&gt;4574307408 -->
<g id="edge18" class="edge">
<title>4574337104&#45;&gt;4574307408</title>
<path fill="none" stroke="black" d="M125.38,-61.73C131.95,-54.06 140.29,-44.32 147.36,-36.08"/>
<polygon fill="black" stroke="black" points="148.78,-37.11 150.71,-32.18 146.12,-34.83 148.78,-37.11"/>
</g>
<!-- 598444 -->
<!-- 4574343104&#45;&gt;598444 -->
<!-- 455764 -->
<!-- 4574343104&#45;&gt;455764 -->
<!-- 4574311152 -->
<g id="node28" class="node">
<title>4574311152</title>
<ellipse fill="lightblue" stroke="black" cx="388" cy="-134" rx="18" ry="18"/>
<text text-anchor="middle" x="388" y="-130.3" font-family="Helvetica,sans-Serif" font-size="14.00">T</text>
</g>
<!-- 4574343104&#45;&gt;4574311152 -->
<g id="edge27" class="edge">
<title>4574343104&#45;&gt;4574311152</title>
<path fill="none" stroke="black" d="M351.13,-178.66C357.7,-170.88 366.1,-160.94 373.22,-152.51"/>
<polygon fill="black" stroke="black" points="374.71,-153.46 376.59,-148.51 372.03,-151.2 374.71,-153.46"/>
</g>
<!-- 295190 -->
<!-- 4574311152&#45;&gt;295190 -->
<!-- 350217 -->
<!-- 4574311152&#45;&gt;350217 -->
<!-- 4574309328 -->
<g id="node31" class="node">
<title>4574309328</title>
<ellipse fill="lightblue" stroke="black" cx="436" cy="-76" rx="18" ry="18"/>
<text text-anchor="middle" x="436" y="-72.3" font-family="Helvetica,sans-Serif" font-size="14.00">U</text>
</g>
<!-- 4574311152&#45;&gt;4574309328 -->
<g id="edge30" class="edge">
<title>4574311152&#45;&gt;4574309328</title>
<path fill="none" stroke="black" d="M399.38,-119.73C405.95,-112.06 414.29,-102.32 421.36,-94.08"/>
<polygon fill="black" stroke="black" points="422.78,-95.11 424.71,-90.18 420.12,-92.83 422.78,-95.11"/>
</g>
</g>
</svg>
