<?xml version="1.0" encoding="UTF-8" standalone="no"?>
<!DOCTYPE svg PUBLIC "-//W3C//DTD SVG 1.1//EN"
 "http://www.w3.org/Graphics/SVG/1.1/DTD/svg11.dtd">
<!-- Generated by graphviz version 2.50.0 (0)
 -->
<!-- Pages: 1 -->
<svg width="673pt" height="337pt"
 viewBox="0.00 0.00 673.50 337.39" xmlns="http://www.w3.org/2000/svg" xmlns:xlink="http://www.w3.org/1999/xlink">
<g id="graph0" class="graph" transform="scale(1 1) rotate(0) translate(4 333.39)">
<polygon fill="white" stroke="transparent" points="-4,4 -4,-333.39 669.5,-333.39 669.5,4 -4,4"/>
<!-- 4573816896 -->
<g id="node1" class="node">
<title>4573816896</title>
<ellipse fill="lightblue" stroke="black" cx="403" cy="-311.39" rx="18" ry="18"/>
<text text-anchor="middle" x="403" y="-307.69" font-family="Helvetica,sans-Serif" font-size="14.00">X</text>
</g>
<!-- 4573819728 -->
<g id="node2" class="node">
<title>4573819728</title>
<ellipse fill="lightblue" stroke="black" cx="355" cy="-253.39" rx="18" ry="18"/>
<text text-anchor="middle" x="355" y="-249.69" font-family="Helvetica,sans-Serif" font-size="14.00">P</text>
</g>
<!-- 4573816896&#45;&gt;4573819728 -->
<g id="edge1" class="edge">
<title>4573816896&#45;&gt;4573819728</title>
<path fill="none" stroke="black" d="M391.62,-297.12C385.05,-289.45 376.71,-279.72 369.64,-271.48"/>
<polygon fill="black" stroke="black" points="370.88,-270.23 366.29,-267.57 368.22,-272.5 370.88,-270.23"/>
</g>
<!-- 864332 -->
<!-- 4573816896&#45;&gt;864332 -->
<!-- 4574302800 -->
<g id="node4" class="node">
<title>4574302800</title>
<ellipse fill="lightblue" stroke="black" cx="451" cy="-253.39" rx="18" ry="18"/>
<text text-anchor="middle" x="451" y="-249.69" font-family="Helvetica,sans-Serif" font-size="14.00">Y</text>
</g>
<!-- 4573816896&#45;&gt;4574302800 -->
<g id="edge3" class="edge">
<title>4573816896&#45;&gt;4574302800</title>
<path fill="none" stroke="black" d="M414.38,-297.12C420.95,-289.45 429.29,-279.72 436.36,-271.48"/>
<polygon fill="black" stroke="black" points="437.78,-272.5 439.71,-267.57 435.12,-270.23 437.78,-272.5"/>
</g>
<!-- 4574311872 -->
<g id="node5" class="node">
<title>4574311872</title>
<ellipse fill="lightblue" stroke="black" cx="227" cy="-195.19" rx="18.4" ry="18.4"/>
<text text-anchor="middle" x="227" y="-191.49" font-family="Helvetica,sans-Serif" font-size="14.00">G</text>
</g>
<!-- 4573819728&#45;&gt;4574311872 -->
<g id="edge4" class="edge">
<title>4573819728&#45;&gt;4574311872</title>
<path fill="none" stroke="black" d="M338.79,-245.28C315.83,-235.2 273.82,-216.75 248.35,-205.57"/>
<polygon fill="black" stroke="black" points="248.77,-203.84 243.48,-203.43 247.36,-207.04 248.77,-203.84"/>
</g>
<!-- 870589 -->
<!-- 4573819728&#45;&gt;870589 -->
<!-- 4574310720 -->
<g id="node7" class="node">
<title>4574310720</title>
<ellipse fill="lightblue" stroke="black" cx="484" cy="-195.19" rx="18" ry="18"/>
<text text-anchor="middle" x="484" y="-191.49" font-family="Helvetica,sans-Serif" font-size="14.00">U</text>
</g>
<!-- 4573819728&#45;&gt;4574310720 -->
<g id="edge6" class="edge">
<title>4573819728&#45;&gt;4574310720</title>
<path fill="none" stroke="black" d="M371.34,-245.28C394.6,-235.14 437.28,-216.55 462.91,-205.38"/>
<polygon fill="black" stroke="black" points="463.91,-206.86 467.79,-203.25 462.51,-203.65 463.91,-206.86"/>
</g>
<!-- 4574312640 -->
<g id="node8" class="node">
<title>4574312640</title>
<ellipse fill="lightblue" stroke="black" cx="114" cy="-137" rx="18" ry="18"/>
<text text-anchor="middle" x="114" y="-133.3" font-family="Helvetica,sans-Serif" font-size="14.00">E</text>
</g>
<!-- 4574311872&#45;&gt;4574312640 -->
<g id="edge7" class="edge">
<title>4574311872&#45;&gt;4574312640</title>
<path fill="none" stroke="black" d="M210.81,-186.14C190.73,-176.15 156.46,-159.11 134.55,-148.21"/>
<polygon fill="black" stroke="black" points="135.05,-146.51 129.8,-145.85 133.49,-149.65 135.05,-146.51"/>
</g>
<!-- 577822 -->
<!-- 4574311872&#45;&gt;577822 -->
<!-- 4574305152 -->
<g id="node10" class="node">
<title>4574305152</title>
<ellipse fill="lightblue" stroke="black" cx="275" cy="-137" rx="18" ry="18"/>
<text text-anchor="middle" x="275" y="-133.3" font-family="Helvetica,sans-Serif" font-size="14.00">H</text>
</g>
<!-- 4574311872&#45;&gt;4574305152 -->
<g id="edge9" class="edge">
<title>4574311872&#45;&gt;4574305152</title>
<path fill="none" stroke="black" d="M238.38,-180.88C244.95,-173.18 253.29,-163.41 260.36,-155.14"/>
<polygon fill="black" stroke="black" points="261.79,-156.16 263.71,-151.22 259.13,-153.88 261.79,-156.16"/>
</g>
<!-- 4574306064 -->
<g id="node20" class="node">
<title>4574306064</title>
<ellipse fill="lightblue" stroke="black" cx="436" cy="-137" rx="18" ry="18"/>
<text text-anchor="middle" x="436" y="-133.3" font-family="Helvetica,sans-Serif" font-size="14.00">R</text>
</g>
<!-- 4574310720&#45;&gt;4574306064 -->
<g id="edge19" class="edge">
<title>4574310720&#45;&gt;4574306064</title>
<path fill="none" stroke="black" d="M472.62,-180.88C466.05,-173.18 457.71,-163.41 450.64,-155.14"/>
<polygon fill="black" stroke="black" points="451.87,-153.88 447.29,-151.22 449.21,-156.16 451.87,-153.88"/>
</g>
<!-- 37671 -->
<!-- 4574310720&#45;&gt;37671 -->
<!-- 4574309808 -->
<g id="node22" class="node">
<title>4574309808</title>
<ellipse fill="lightblue" stroke="black" cx="597" cy="-137" rx="18" ry="18"/>
<text text-anchor="middle" x="597" y="-133.3" font-family="Helvetica,sans-Serif" font-size="14.00">V</text>
</g>
<!-- 4574310720&#45;&gt;4574309808 -->
<g id="edge21" class="edge">
<title>4574310720&#45;&gt;4574309808</title>
<path fill="none" stroke="black" d="M499.71,-186.38C519.75,-176.41 554.46,-159.15 576.55,-148.17"/>
<polygon fill="black" stroke="black" points="577.36,-149.72 581.06,-145.93 575.8,-146.59 577.36,-149.72"/>
</g>
<!-- 4574307552 -->
<g id="node11" class="node">
<title>4574307552</title>
<ellipse fill="lightblue" stroke="black" cx="66" cy="-77.5" rx="18" ry="18"/>
<text text-anchor="middle" x="66" y="-73.8" font-family="Helvetica,sans-Serif" font-size="14.00">A</text>
</g>
<!-- 4574312640&#45;&gt;4574307552 -->
<g id="edge10" class="edge">
<title>4574312640&#45;&gt;4574307552</title>
<path fill="none" stroke="black" d="M102.87,-122.66C96.2,-114.68 87.66,-104.44 80.48,-95.84"/>
<polygon fill="black" stroke="black" points="81.62,-94.48 77.07,-91.76 78.93,-96.72 81.62,-94.48"/>
</g>
<!-- 153566 -->
<!-- 4574312640&#45;&gt;153566 -->
<!-- 4574301024 -->
<g id="node13" class="node">
<title>4574301024</title>
<ellipse fill="lightblue" stroke="black" cx="162" cy="-77.5" rx="18" ry="18"/>
<text text-anchor="middle" x="162" y="-73.8" font-family="Helvetica,sans-Serif" font-size="14.00">F</text>
</g>
<!-- 4574312640&#45;&gt;4574301024 -->
<g id="edge12" class="edge">
<title>4574312640&#45;&gt;4574301024</title>
<path fill="none" stroke="black" d="M125.13,-122.66C131.8,-114.68 140.34,-104.44 147.52,-95.84"/>
<polygon fill="black" stroke="black" points="149.07,-96.72 150.93,-91.76 146.38,-94.48 149.07,-96.72"/>
</g>
<!-- 69140 -->
<!-- 4574305152&#45;&gt;69140 -->
<!-- 703085 -->
<!-- 4574305152&#45;&gt;703085 -->
<!-- 4574300928 -->
<g id="node19" class="node">
<title>4574300928</title>
<ellipse fill="lightblue" stroke="black" cx="323" cy="-77.5" rx="18" ry="18"/>
<text text-anchor="middle" x="323" y="-73.8" font-family="Helvetica,sans-Serif" font-size="14.00">N</text>
</g>
<!-- 4574305152&#45;&gt;4574300928 -->
<g id="edge18" class="edge">
<title>4574305152&#45;&gt;4574300928</title>
<path fill="none" stroke="black" d="M286.13,-122.66C292.8,-114.68 301.34,-104.44 308.52,-95.84"/>
<polygon fill="black" stroke="black" points="310.07,-96.72 311.93,-91.76 307.38,-94.48 310.07,-96.72"/>
</g>
<!-- 254023 -->
<!-- 4574307552&#45;&gt;254023 -->
<!-- 742502 -->
<!-- 4574307552&#45;&gt;742502 -->
<!-- 4574313792 -->
<g id="node16" class="node">
<title>4574313792</title>
<ellipse fill="lightblue" stroke="black" cx="114" cy="-18" rx="18" ry="18"/>
<text text-anchor="middle" x="114" y="-14.3" font-family="Helvetica,sans-Serif" font-size="14.00">D</text>
</g>
<!-- 4574307552&#45;&gt;4574313792 -->
<g id="edge15" class="edge">
<title>4574307552&#45;&gt;4574313792</title>
<path fill="none" stroke="black" d="M77.13,-63.16C83.8,-55.18 92.34,-44.95 99.52,-36.34"/>
<polygon fill="black" stroke="black" points="101.07,-37.22 102.93,-32.26 98.38,-34.98 101.07,-37.22"/>
</g>
<!-- 59886 -->
<!-- 4574306064&#45;&gt;59886 -->
<!-- 604826 -->
<!-- 4574306064&#45;&gt;604826 -->
<!-- 4574310624 -->
<g id="node25" class="node">
<title>4574310624</title>
<ellipse fill="lightblue" stroke="black" cx="484" cy="-77.5" rx="18" ry="18"/>
<text text-anchor="middle" x="484" y="-73.8" font-family="Helvetica,sans-Serif" font-size="14.00">T</text>
</g>
<!-- 4574306064&#45;&gt;4574310624 -->
<g id="edge24" class="edge">
<title>4574306064&#45;&gt;4574310624</title>
<path fill="none" stroke="black" d="M447.13,-122.66C453.8,-114.68 462.34,-104.44 469.52,-95.84"/>
<polygon fill="black" stroke="black" points="471.07,-96.72 472.93,-91.76 468.38,-94.48 471.07,-96.72"/>
</g>
<!-- 333884 -->
<!-- 4574309808&#45;&gt;333884 -->
<!-- 937861 -->
<!-- 4574309808&#45;&gt;937861 -->
<!-- 4574313072 -->
<g id="node28" class="node">
<title>4574313072</title>
<ellipse fill="lightblue" stroke="black" cx="646" cy="-77.5" rx="19.5" ry="19.5"/>
<text text-anchor="middle" x="646" y="-73.8" font-family="Helvetica,sans-Serif" font-size="14.00">W</text>
</g>
<!-- 4574309808&#45;&gt;4574313072 -->
<g id="edge27" class="edge">
<title>4574309808&#45;&gt;4574313072</title>
<path fill="none" stroke="black" d="M608.36,-122.66C614.88,-115.02 623.14,-105.32 630.27,-96.95"/>
<polygon fill="black" stroke="black" points="631.76,-97.91 633.67,-92.97 629.09,-95.64 631.76,-97.91"/>
</g>
</g>
</svg>
