<?xml version="1.0" encoding="UTF-8" standalone="no"?>
<!DOCTYPE svg PUBLIC "-//W3C//DTD SVG 1.1//EN"
 "http://www.w3.org/Graphics/SVG/1.1/DTD/svg11.dtd">
<!-- Generated by graphviz version 2.50.0 (0)
 -->
<!-- Pages: 1 -->
<svg width="559pt" height="339pt"
 viewBox="0.00 0.00 559.00 339.09" xmlns="http://www.w3.org/2000/svg" xmlns:xlink="http://www.w3.org/1999/xlink">
<g id="graph0" class="graph" transform="scale(1 1) rotate(0) translate(4 335.09)">
<polygon fill="white" stroke="transparent" points="-4,4 -4,-335.09 555,-335.09 555,4 -4,4"/>
<!-- 4574311056 -->
<g id="node1" class="node">
<title>4574311056</title>
<ellipse fill="lightblue" stroke="black" cx="404" cy="-311.59" rx="19.5" ry="19.5"/>
<text text-anchor="middle" x="404" y="-307.89" font-family="Helvetica,sans-Serif" font-size="14.00">W</text>
</g>
<!-- 4574312640 -->
<g id="node2" class="node">
<title>4574312640</title>
<ellipse fill="lightblue" stroke="black" cx="324" cy="-252.09" rx="18" ry="18"/>
<text text-anchor="middle" x="324" y="-248.39" font-family="Helvetica,sans-Serif" font-size="14.00">L</text>
</g>
<!-- 4574311056&#45;&gt;4574312640 -->
<g id="edge1" class="edge">
<title>4574311056&#45;&gt;4574312640</title>
<path fill="none" stroke="black" d="M388.58,-299.51C375.41,-290.04 356.44,-276.41 342.47,-266.37"/>
<polygon fill="black" stroke="black" points="343.38,-264.87 338.3,-263.37 341.34,-267.71 343.38,-264.87"/>
</g>
<!-- 489110 -->
<!-- 4574311056&#45;&gt;489110 -->
<!-- 4574312112 -->
<g id="node4" class="node">
<title>4574312112</title>
<ellipse fill="lightblue" stroke="black" cx="485" cy="-252.09" rx="18" ry="18"/>
<text text-anchor="middle" x="485" y="-248.39" font-family="Helvetica,sans-Serif" font-size="14.00">Y</text>
</g>
<!-- 4574311056&#45;&gt;4574312112 -->
<g id="edge3" class="edge">
<title>4574311056&#45;&gt;4574312112</title>
<path fill="none" stroke="black" d="M419.62,-299.51C433.03,-289.98 452.39,-276.24 466.57,-266.18"/>
<polygon fill="black" stroke="black" points="467.72,-267.5 470.79,-263.18 465.7,-264.65 467.72,-267.5"/>
</g>
<!-- 4574300544 -->
<g id="node5" class="node">
<title>4574300544</title>
<ellipse fill="lightblue" stroke="black" cx="163" cy="-194.09" rx="18" ry="18"/>
<text text-anchor="middle" x="163" y="-190.39" font-family="Helvetica,sans-Serif" font-size="14.00">J</text>
</g>
<!-- 4574312640&#45;&gt;4574300544 -->
<g id="edge4" class="edge">
<title>4574312640&#45;&gt;4574300544</title>
<path fill="none" stroke="black" d="M307.07,-245.21C277.65,-234.97 217.1,-213.91 184.66,-202.63"/>
<polygon fill="black" stroke="black" points="185,-200.89 179.7,-200.9 183.85,-204.2 185,-200.89"/>
</g>
<!-- 568408 -->
<!-- 4574312640&#45;&gt;568408 -->
<!-- 4574299440 -->
<g id="node7" class="node">
<title>4574299440</title>
<ellipse fill="lightblue" stroke="black" cx="372" cy="-194.09" rx="18" ry="18"/>
<text text-anchor="middle" x="372" y="-190.39" font-family="Helvetica,sans-Serif" font-size="14.00">U</text>
</g>
<!-- 4574312640&#45;&gt;4574299440 -->
<g id="edge6" class="edge">
<title>4574312640&#45;&gt;4574299440</title>
<path fill="none" stroke="black" d="M335.38,-237.82C341.95,-230.15 350.29,-220.42 357.36,-212.18"/>
<polygon fill="black" stroke="black" points="358.78,-213.2 360.71,-208.27 356.12,-210.93 358.78,-213.2"/>
</g>
<!-- 4574693808 -->
<g id="node26" class="node">
<title>4574693808</title>
<ellipse fill="lightblue" stroke="black" cx="437" cy="-194.09" rx="18" ry="18"/>
<text text-anchor="middle" x="437" y="-190.39" font-family="Helvetica,sans-Serif" font-size="14.00">X</text>
</g>
<!-- 4574312112&#45;&gt;4574693808 -->
<g id="edge25" class="edge">
<title>4574312112&#45;&gt;4574693808</title>
<path fill="none" stroke="black" d="M473.62,-237.82C467.05,-230.15 458.71,-220.42 451.64,-212.18"/>
<polygon fill="black" stroke="black" points="452.88,-210.93 448.29,-208.27 450.22,-213.2 452.88,-210.93"/>
</g>
<!-- 839593 -->
<!-- 4574312112&#45;&gt;839593 -->
<!-- 785168 -->
<!-- 4574312112&#45;&gt;785168 -->
<!-- 4574308416 -->
<g id="node8" class="node">
<title>4574308416</title>
<ellipse fill="lightblue" stroke="black" cx="66" cy="-135.9" rx="18" ry="18"/>
<text text-anchor="middle" x="66" y="-132.2" font-family="Helvetica,sans-Serif" font-size="14.00">B</text>
</g>
<!-- 4574300544&#45;&gt;4574308416 -->
<g id="edge7" class="edge">
<title>4574300544&#45;&gt;4574308416</title>
<path fill="none" stroke="black" d="M147.84,-184.31C131.14,-174.64 104.22,-159.04 85.85,-148.39"/>
<polygon fill="black" stroke="black" points="86.57,-146.79 81.37,-145.8 84.82,-149.82 86.57,-146.79"/>
</g>
<!-- 736194 -->
<!-- 4574300544&#45;&gt;736194 -->
<!-- 4574695536 -->
<g id="node10" class="node">
<title>4574695536</title>
<ellipse fill="lightblue" stroke="black" cx="211" cy="-135.9" rx="18" ry="18"/>
<text text-anchor="middle" x="211" y="-132.2" font-family="Helvetica,sans-Serif" font-size="14.00">K</text>
</g>
<!-- 4574300544&#45;&gt;4574695536 -->
<g id="edge9" class="edge">
<title>4574300544&#45;&gt;4574695536</title>
<path fill="none" stroke="black" d="M174.38,-179.78C180.95,-172.08 189.29,-162.31 196.36,-154.04"/>
<polygon fill="black" stroke="black" points="197.79,-155.06 199.71,-150.12 195.13,-152.78 197.79,-155.06"/>
</g>
<!-- 4574309808 -->
<g id="node17" class="node">
<title>4574309808</title>
<ellipse fill="lightblue" stroke="black" cx="324" cy="-135.9" rx="18.4" ry="18.4"/>
<text text-anchor="middle" x="324" y="-132.2" font-family="Helvetica,sans-Serif" font-size="14.00">Q</text>
</g>
<!-- 4574299440&#45;&gt;4574309808 -->
<g id="edge16" class="edge">
<title>4574299440&#45;&gt;4574309808</title>
<path fill="none" stroke="black" d="M360.62,-179.78C354.14,-172.19 345.95,-162.59 338.95,-154.4"/>
<polygon fill="black" stroke="black" points="340.21,-153.17 335.63,-150.51 337.54,-155.45 340.21,-153.17"/>
</g>
<!-- 172965 -->
<!-- 4574299440&#45;&gt;172965 -->
<!-- 66018 -->
<!-- 4574299440&#45;&gt;66018 -->
<!-- 4574697600 -->
<g id="node11" class="node">
<title>4574697600</title>
<ellipse fill="lightblue" stroke="black" cx="18" cy="-77.7" rx="18" ry="18"/>
<text text-anchor="middle" x="18" y="-74" font-family="Helvetica,sans-Serif" font-size="14.00">A</text>
</g>
<!-- 4574308416&#45;&gt;4574697600 -->
<g id="edge10" class="edge">
<title>4574308416&#45;&gt;4574697600</title>
<path fill="none" stroke="black" d="M54.62,-121.58C48.05,-113.88 39.71,-104.11 32.64,-95.84"/>
<polygon fill="black" stroke="black" points="33.87,-94.58 29.29,-91.92 31.21,-96.86 33.87,-94.58"/>
</g>
<!-- 533857 -->
<!-- 4574308416&#45;&gt;533857 -->
<!-- 4574704416 -->
<g id="node13" class="node">
<title>4574704416</title>
<ellipse fill="lightblue" stroke="black" cx="114" cy="-77.7" rx="18" ry="18"/>
<text text-anchor="middle" x="114" y="-74" font-family="Helvetica,sans-Serif" font-size="14.00">E</text>
</g>
<!-- 4574308416&#45;&gt;4574704416 -->
<g id="edge12" class="edge">
<title>4574308416&#45;&gt;4574704416</title>
<path fill="none" stroke="black" d="M77.38,-121.58C83.95,-113.88 92.29,-104.11 99.36,-95.84"/>
<polygon fill="black" stroke="black" points="100.79,-96.86 102.71,-91.92 98.13,-94.58 100.79,-96.86"/>
</g>
<!-- 427330 -->
<!-- 4574704416&#45;&gt;427330 -->
<!-- 919202 -->
<!-- 4574704416&#45;&gt;919202 -->
<!-- 4574702160 -->
<g id="node16" class="node">
<title>4574702160</title>
<ellipse fill="lightblue" stroke="black" cx="162" cy="-18.85" rx="18" ry="18"/>
<text text-anchor="middle" x="162" y="-15.15" font-family="Helvetica,sans-Serif" font-size="14.00">F</text>
</g>
<!-- 4574704416&#45;&gt;4574702160 -->
<g id="edge15" class="edge">
<title>4574704416&#45;&gt;4574702160</title>
<path fill="none" stroke="black" d="M125.13,-63.51C131.7,-55.73 140.1,-45.79 147.22,-37.36"/>
<polygon fill="black" stroke="black" points="148.71,-38.31 150.59,-33.36 146.03,-36.05 148.71,-38.31"/>
</g>
<!-- 4574311152 -->
<g id="node20" class="node">
<title>4574311152</title>
<ellipse fill="lightblue" stroke="black" cx="276" cy="-77.7" rx="18" ry="18"/>
<text text-anchor="middle" x="276" y="-74" font-family="Helvetica,sans-Serif" font-size="14.00">N</text>
</g>
<!-- 4574309808&#45;&gt;4574311152 -->
<g id="edge19" class="edge">
<title>4574309808&#45;&gt;4574311152</title>
<path fill="none" stroke="black" d="M312.62,-121.58C306.05,-113.88 297.71,-104.11 290.64,-95.84"/>
<polygon fill="black" stroke="black" points="291.87,-94.58 287.29,-91.92 289.21,-96.86 291.87,-94.58"/>
</g>
<!-- 616021 -->
<!-- 4574309808&#45;&gt;616021 -->
<!-- 427122 -->
<!-- 4574309808&#45;&gt;427122 -->
<!-- 4574300976 -->
<g id="node23" class="node">
<title>4574300976</title>
<ellipse fill="lightblue" stroke="black" cx="228" cy="-18.85" rx="18.7" ry="18.7"/>
<text text-anchor="middle" x="228" y="-15.15" font-family="Helvetica,sans-Serif" font-size="14.00">M</text>
</g>
<!-- 4574311152&#45;&gt;4574300976 -->
<g id="edge22" class="edge">
<title>4574311152&#45;&gt;4574300976</title>
<path fill="none" stroke="black" d="M264.87,-63.51C258.39,-55.84 250.15,-46.08 243.09,-37.73"/>
<polygon fill="black" stroke="black" points="244.3,-36.45 239.74,-33.75 241.63,-38.7 244.3,-36.45"/>
</g>
<!-- 528539 -->
<!-- 4574311152&#45;&gt;528539 -->
<!-- 4574312352 -->
<g id="node25" class="node">
<title>4574312352</title>
<ellipse fill="lightblue" stroke="black" cx="324" cy="-18.85" rx="18" ry="18"/>
<text text-anchor="middle" x="324" y="-15.15" font-family="Helvetica,sans-Serif" font-size="14.00">P</text>
</g>
<!-- 4574311152&#45;&gt;4574312352 -->
<g id="edge24" class="edge">
<title>4574311152&#45;&gt;4574312352</title>
<path fill="none" stroke="black" d="M287.13,-63.51C293.7,-55.73 302.1,-45.79 309.22,-37.36"/>
<polygon fill="black" stroke="black" points="310.71,-38.31 312.59,-33.36 308.03,-36.05 310.71,-38.31"/>
</g>
</g>
</svg>
