<?xml version="1.0" encoding="UTF-8" standalone="no"?>
<!DOCTYPE svg PUBLIC "-//W3C//DTD SVG 1.1//EN"
 "http://www.w3.org/Graphics/SVG/1.1/DTD/svg11.dtd">
<!-- Generated by graphviz version 2.50.0 (0)
 -->
<!-- Pages: 1 -->
<svg width="348pt" height="394pt"
 viewBox="0.00 0.00 348.40 393.58" xmlns="http://www.w3.org/2000/svg" xmlns:xlink="http://www.w3.org/1999/xlink">
<g id="graph0" class="graph" transform="scale(1 1) rotate(0) translate(4 389.58)">
<polygon fill="white" stroke="transparent" points="-4,4 -4,-389.58 344.4,-389.58 344.4,4 -4,4"/>
<!-- 4627582608 -->
<g id="node1" class="node">
<title>4627582608</title>
<ellipse fill="lightblue" stroke="black" cx="211.4" cy="-364.78" rx="20.6" ry="20.6"/>
<text text-anchor="middle" x="211.4" y="-361.08" font-family="Helvetica,sans-Serif" font-size="14.00">16</text>
</g>
<!-- 4628142592 -->
<g id="node2" class="node">
<title>4628142592</title>
<ellipse fill="lightblue" stroke="black" cx="158.4" cy="-298.58" rx="23.3" ry="23.3"/>
<text text-anchor="middle" x="158.4" y="-294.88" font-family="Helvetica,sans-Serif" font-size="14.00">&#45;15</text>
</g>
<!-- 4627582608&#45;&gt;4628142592 -->
<g id="edge1" class="edge">
<title>4627582608&#45;&gt;4628142592</title>
<path fill="none" stroke="black" d="M198.57,-348.24C191.93,-340.2 183.72,-330.26 176.46,-321.46"/>
<polygon fill="black" stroke="black" points="177.51,-319.99 172.98,-317.25 174.82,-322.22 177.51,-319.99"/>
</g>
<!-- 807550 -->
<!-- 4627582608&#45;&gt;807550 -->
<!-- 22953 -->
<!-- 4627582608&#45;&gt;22953 -->
<!-- 4628139760 -->
<g id="node5" class="node">
<title>4628139760</title>
<ellipse fill="lightblue" stroke="black" cx="76.4" cy="-229.79" rx="23.3" ry="23.3"/>
<text text-anchor="middle" x="76.4" y="-226.09" font-family="Helvetica,sans-Serif" font-size="14.00">&#45;18</text>
</g>
<!-- 4628142592&#45;&gt;4628139760 -->
<g id="edge4" class="edge">
<title>4628142592&#45;&gt;4628139760</title>
<path fill="none" stroke="black" d="M140.61,-283.09C128.14,-272.93 111.41,-259.3 98.15,-248.5"/>
<polygon fill="black" stroke="black" points="99.14,-247.05 94.16,-245.25 96.93,-249.77 99.14,-247.05"/>
</g>
<!-- 285944 -->
<!-- 4628142592&#45;&gt;285944 -->
<!-- 4628141008 -->
<g id="node7" class="node">
<title>4628141008</title>
<ellipse fill="lightblue" stroke="black" cx="238.4" cy="-229.79" rx="20.6" ry="20.6"/>
<text text-anchor="middle" x="238.4" y="-226.09" font-family="Helvetica,sans-Serif" font-size="14.00">11</text>
</g>
<!-- 4628142592&#45;&gt;4628141008 -->
<g id="edge6" class="edge">
<title>4628142592&#45;&gt;4628141008</title>
<path fill="none" stroke="black" d="M176.15,-282.76C188.83,-272.17 205.89,-257.93 218.94,-247.03"/>
<polygon fill="black" stroke="black" points="220.14,-248.31 222.85,-243.76 217.89,-245.62 220.14,-248.31"/>
</g>
<!-- 4628148352 -->
<g id="node8" class="node">
<title>4628148352</title>
<ellipse fill="lightblue" stroke="black" cx="23.4" cy="-160.99" rx="23.3" ry="23.3"/>
<text text-anchor="middle" x="23.4" y="-157.29" font-family="Helvetica,sans-Serif" font-size="14.00">&#45;20</text>
</g>
<!-- 4628139760&#45;&gt;4628148352 -->
<g id="edge7" class="edge">
<title>4628139760&#45;&gt;4628148352</title>
<path fill="none" stroke="black" d="M62.19,-210.89C55.66,-202.65 47.84,-192.8 40.94,-184.1"/>
<polygon fill="black" stroke="black" points="42.12,-182.77 37.64,-179.94 39.38,-184.94 42.12,-182.77"/>
</g>
<!-- 512587 -->
<!-- 4628139760&#45;&gt;512587 -->
<!-- 840869 -->
<!-- 4628139760&#45;&gt;840869 -->
<!-- 4628148112 -->
<g id="node11" class="node">
<title>4628148112</title>
<ellipse fill="lightblue" stroke="black" cx="190.4" cy="-160.99" rx="18.7" ry="18.7"/>
<text text-anchor="middle" x="190.4" y="-157.29" font-family="Helvetica,sans-Serif" font-size="14.00">&#45;4</text>
</g>
<!-- 4628141008&#45;&gt;4628148112 -->
<g id="edge10" class="edge">
<title>4628141008&#45;&gt;4628148112</title>
<path fill="none" stroke="black" d="M226.53,-212.27C219.73,-202.81 211.16,-190.89 204.08,-181.03"/>
<polygon fill="black" stroke="black" points="205.48,-179.98 201.14,-176.94 202.64,-182.03 205.48,-179.98"/>
</g>
<!-- 207730 -->
<!-- 4628141008&#45;&gt;207730 -->
<!-- 765276 -->
<!-- 4628141008&#45;&gt;765276 -->
<!-- 4628137120 -->
<g id="node14" class="node">
<title>4628137120</title>
<ellipse fill="lightblue" stroke="black" cx="103.4" cy="-92.19" rx="23.3" ry="23.3"/>
<text text-anchor="middle" x="103.4" y="-88.49" font-family="Helvetica,sans-Serif" font-size="14.00">&#45;11</text>
</g>
<!-- 4628148112&#45;&gt;4628137120 -->
<g id="edge13" class="edge">
<title>4628148112&#45;&gt;4628137120</title>
<path fill="none" stroke="black" d="M175.64,-148.66C161.99,-138.18 141.51,-122.45 125.84,-110.42"/>
<polygon fill="black" stroke="black" points="126.58,-108.79 121.55,-107.13 124.45,-111.57 126.58,-108.79"/>
</g>
<!-- 914890 -->
<!-- 4628148112&#45;&gt;914890 -->
<!-- 4628152048 -->
<g id="node16" class="node">
<title>4628152048</title>
<ellipse fill="lightblue" stroke="black" cx="274.4" cy="-92.19" rx="20.6" ry="20.6"/>
<text text-anchor="middle" x="274.4" y="-88.49" font-family="Helvetica,sans-Serif" font-size="14.00">10</text>
</g>
<!-- 4628148112&#45;&gt;4628152048 -->
<g id="edge15" class="edge">
<title>4628148112&#45;&gt;4628152048</title>
<path fill="none" stroke="black" d="M205.03,-148.35C218.69,-137.49 239.2,-121.18 254.38,-109.11"/>
<polygon fill="black" stroke="black" points="255.68,-110.31 258.51,-105.83 253.5,-107.57 255.68,-110.31"/>
</g>
<!-- 434117 -->
<!-- 4628137120&#45;&gt;434117 -->
<!-- 954804 -->
<!-- 4628137120&#45;&gt;954804 -->
<!-- 4628137072 -->
<g id="node19" class="node">
<title>4628137072</title>
<ellipse fill="lightblue" stroke="black" cx="156.4" cy="-23.4" rx="23.3" ry="23.3"/>
<text text-anchor="middle" x="156.4" y="-19.7" font-family="Helvetica,sans-Serif" font-size="14.00">&#45;10</text>
</g>
<!-- 4628137120&#45;&gt;4628137072 -->
<g id="edge18" class="edge">
<title>4628137120&#45;&gt;4628137072</title>
<path fill="none" stroke="black" d="M117.6,-73.29C124.14,-65.06 131.95,-55.21 138.85,-46.51"/>
<polygon fill="black" stroke="black" points="140.42,-47.35 142.16,-42.35 137.68,-45.18 140.42,-47.35"/>
</g>
<!-- 4628152096 -->
<g id="node20" class="node">
<title>4628152096</title>
<ellipse fill="lightblue" stroke="black" cx="226.4" cy="-23.4" rx="18" ry="18"/>
<text text-anchor="middle" x="226.4" y="-19.7" font-family="Helvetica,sans-Serif" font-size="14.00">3</text>
</g>
<!-- 4628152048&#45;&gt;4628152096 -->
<g id="edge19" class="edge">
<title>4628152048&#45;&gt;4628152096</title>
<path fill="none" stroke="black" d="M262.53,-74.68C255.54,-64.95 246.67,-52.61 239.48,-42.6"/>
<polygon fill="black" stroke="black" points="240.84,-41.5 236.5,-38.46 238,-43.54 240.84,-41.5"/>
</g>
<!-- 564453 -->
<!-- 4628152048&#45;&gt;564453 -->
<!-- 565445 -->
<!-- 4628152048&#45;&gt;565445 -->
</g>
</svg>
