<?xml version="1.0" encoding="UTF-8" standalone="no"?>
<!DOCTYPE svg PUBLIC "-//W3C//DTD SVG 1.1//EN"
 "http://www.w3.org/Graphics/SVG/1.1/DTD/svg11.dtd">
<!-- Generated by graphviz version 2.50.0 (0)
 -->
<!-- Pages: 1 -->
<svg width="624pt" height="336pt"
 viewBox="0.00 0.00 624.00 335.70" xmlns="http://www.w3.org/2000/svg" xmlns:xlink="http://www.w3.org/1999/xlink">
<g id="graph0" class="graph" transform="scale(1 1) rotate(0) translate(4 331.7)">
<polygon fill="white" stroke="transparent" points="-4,4 -4,-331.7 620,-331.7 620,4 -4,4"/>
<!-- 4573819728 -->
<g id="node1" class="node">
<title>4573819728</title>
<ellipse fill="lightblue" stroke="black" cx="356" cy="-309.7" rx="18" ry="18"/>
<text text-anchor="middle" x="356" y="-306" font-family="Helvetica,sans-Serif" font-size="14.00">L</text>
</g>
<!-- 4574299152 -->
<g id="node2" class="node">
<title>4574299152</title>
<ellipse fill="lightblue" stroke="black" cx="276" cy="-251.7" rx="18" ry="18"/>
<text text-anchor="middle" x="276" y="-248" font-family="Helvetica,sans-Serif" font-size="14.00">K</text>
</g>
<!-- 4573819728&#45;&gt;4574299152 -->
<g id="edge1" class="edge">
<title>4573819728&#45;&gt;4574299152</title>
<path fill="none" stroke="black" d="M341.7,-298.68C328.58,-289.5 309.08,-275.85 294.72,-265.8"/>
<polygon fill="black" stroke="black" points="295.55,-264.24 290.45,-262.81 293.54,-267.11 295.55,-264.24"/>
</g>
<!-- 544635 -->
<!-- 4573819728&#45;&gt;544635 -->
<!-- 4574312352 -->
<g id="node4" class="node">
<title>4574312352</title>
<ellipse fill="lightblue" stroke="black" cx="437" cy="-251.7" rx="18" ry="18"/>
<text text-anchor="middle" x="437" y="-248" font-family="Helvetica,sans-Serif" font-size="14.00">R</text>
</g>
<!-- 4573819728&#45;&gt;4574312352 -->
<g id="edge3" class="edge">
<title>4573819728&#45;&gt;4574312352</title>
<path fill="none" stroke="black" d="M370.48,-298.68C383.84,-289.45 403.76,-275.68 418.31,-265.62"/>
<polygon fill="black" stroke="black" points="419.53,-266.9 422.64,-262.62 417.54,-264.03 419.53,-266.9"/>
</g>
<!-- 4574309280 -->
<g id="node5" class="node">
<title>4574309280</title>
<ellipse fill="lightblue" stroke="black" cx="227" cy="-193.7" rx="18" ry="18"/>
<text text-anchor="middle" x="227" y="-190" font-family="Helvetica,sans-Serif" font-size="14.00">F</text>
</g>
<!-- 4574299152&#45;&gt;4574309280 -->
<g id="edge4" class="edge">
<title>4574299152&#45;&gt;4574309280</title>
<path fill="none" stroke="black" d="M264.64,-237.71C257.93,-230.04 249.36,-220.25 242.09,-211.95"/>
<polygon fill="black" stroke="black" points="243.25,-210.61 238.64,-208 240.62,-212.92 243.25,-210.61"/>
</g>
<!-- 592916 -->
<!-- 4574299152&#45;&gt;592916 -->
<!-- 151290 -->
<!-- 4574299152&#45;&gt;151290 -->
<!-- 4574301024 -->
<g id="node20" class="node">
<title>4574301024</title>
<ellipse fill="lightblue" stroke="black" cx="389" cy="-193.7" rx="18" ry="18"/>
<text text-anchor="middle" x="389" y="-190" font-family="Helvetica,sans-Serif" font-size="14.00">P</text>
</g>
<!-- 4574312352&#45;&gt;4574301024 -->
<g id="edge19" class="edge">
<title>4574312352&#45;&gt;4574301024</title>
<path fill="none" stroke="black" d="M425.62,-237.43C419.05,-229.75 410.71,-220.02 403.64,-211.78"/>
<polygon fill="black" stroke="black" points="404.88,-210.53 400.29,-207.87 402.22,-212.81 404.88,-210.53"/>
</g>
<!-- 305982 -->
<!-- 4574312352&#45;&gt;305982 -->
<!-- 4574310720 -->
<g id="node22" class="node">
<title>4574310720</title>
<ellipse fill="lightblue" stroke="black" cx="550" cy="-193.7" rx="18" ry="18"/>
<text text-anchor="middle" x="550" y="-190" font-family="Helvetica,sans-Serif" font-size="14.00">U</text>
</g>
<!-- 4574312352&#45;&gt;4574310720 -->
<g id="edge21" class="edge">
<title>4574312352&#45;&gt;4574310720</title>
<path fill="none" stroke="black" d="M452.71,-242.91C472.75,-232.98 507.46,-215.78 529.55,-204.83"/>
<polygon fill="black" stroke="black" points="530.35,-206.39 534.06,-202.6 528.8,-203.25 530.35,-206.39"/>
</g>
<!-- 4574305152 -->
<g id="node8" class="node">
<title>4574305152</title>
<ellipse fill="lightblue" stroke="black" cx="114" cy="-134.85" rx="18" ry="18"/>
<text text-anchor="middle" x="114" y="-131.15" font-family="Helvetica,sans-Serif" font-size="14.00">E</text>
</g>
<!-- 4574309280&#45;&gt;4574305152 -->
<g id="edge7" class="edge">
<title>4574309280&#45;&gt;4574305152</title>
<path fill="none" stroke="black" d="M211.29,-184.79C191.25,-174.71 156.54,-157.25 134.45,-146.14"/>
<polygon fill="black" stroke="black" points="135.2,-144.55 129.94,-143.87 133.62,-147.68 135.2,-144.55"/>
</g>
<!-- 748907 -->
<!-- 4574309280&#45;&gt;748907 -->
<!-- 4574306064 -->
<g id="node10" class="node">
<title>4574306064</title>
<ellipse fill="lightblue" stroke="black" cx="275" cy="-134.85" rx="18.4" ry="18.4"/>
<text text-anchor="middle" x="275" y="-131.15" font-family="Helvetica,sans-Serif" font-size="14.00">G</text>
</g>
<!-- 4574309280&#45;&gt;4574306064 -->
<g id="edge9" class="edge">
<title>4574309280&#45;&gt;4574306064</title>
<path fill="none" stroke="black" d="M238.13,-179.51C244.7,-171.73 253.1,-161.79 260.22,-153.36"/>
<polygon fill="black" stroke="black" points="261.71,-154.31 263.59,-149.36 259.03,-152.05 261.71,-154.31"/>
</g>
<!-- 4574300928 -->
<g id="node11" class="node">
<title>4574300928</title>
<ellipse fill="lightblue" stroke="black" cx="66" cy="-76" rx="18" ry="18"/>
<text text-anchor="middle" x="66" y="-72.3" font-family="Helvetica,sans-Serif" font-size="14.00">C</text>
</g>
<!-- 4574305152&#45;&gt;4574300928 -->
<g id="edge10" class="edge">
<title>4574305152&#45;&gt;4574300928</title>
<path fill="none" stroke="black" d="M102.87,-120.66C96.3,-112.88 87.9,-102.94 80.78,-94.51"/>
<polygon fill="black" stroke="black" points="81.97,-93.2 77.41,-90.51 79.29,-95.46 81.97,-93.2"/>
</g>
<!-- 402991 -->
<!-- 4574305152&#45;&gt;402991 -->
<!-- 380291 -->
<!-- 4574305152&#45;&gt;380291 -->
<!-- 922466 -->
<!-- 4574306064&#45;&gt;922466 -->
<!-- 899059 -->
<!-- 4574306064&#45;&gt;899059 -->
<!-- 4574312640 -->
<g id="node19" class="node">
<title>4574312640</title>
<ellipse fill="lightblue" stroke="black" cx="323" cy="-76" rx="18" ry="18"/>
<text text-anchor="middle" x="323" y="-72.3" font-family="Helvetica,sans-Serif" font-size="14.00">H</text>
</g>
<!-- 4574306064&#45;&gt;4574312640 -->
<g id="edge18" class="edge">
<title>4574306064&#45;&gt;4574312640</title>
<path fill="none" stroke="black" d="M286.38,-120.38C292.95,-112.59 301.29,-102.71 308.36,-94.34"/>
<polygon fill="black" stroke="black" points="309.82,-95.32 311.71,-90.38 307.14,-93.07 309.82,-95.32"/>
</g>
<!-- 4574313792 -->
<g id="node14" class="node">
<title>4574313792</title>
<ellipse fill="lightblue" stroke="black" cx="18" cy="-18" rx="18" ry="18"/>
<text text-anchor="middle" x="18" y="-14.3" font-family="Helvetica,sans-Serif" font-size="14.00">A</text>
</g>
<!-- 4574300928&#45;&gt;4574313792 -->
<g id="edge13" class="edge">
<title>4574300928&#45;&gt;4574313792</title>
<path fill="none" stroke="black" d="M54.62,-61.73C48.05,-54.06 39.71,-44.32 32.64,-36.08"/>
<polygon fill="black" stroke="black" points="33.88,-34.83 29.29,-32.18 31.22,-37.11 33.88,-34.83"/>
</g>
<!-- 785171 -->
<!-- 4574300928&#45;&gt;785171 -->
<!-- 80369 -->
<!-- 4574300928&#45;&gt;80369 -->
<!-- 4574311872 -->
<g id="node23" class="node">
<title>4574311872</title>
<ellipse fill="lightblue" stroke="black" cx="341" cy="-134.85" rx="18.7" ry="18.7"/>
<text text-anchor="middle" x="341" y="-131.15" font-family="Helvetica,sans-Serif" font-size="14.00">M</text>
</g>
<!-- 4574301024&#45;&gt;4574311872 -->
<g id="edge22" class="edge">
<title>4574301024&#45;&gt;4574311872</title>
<path fill="none" stroke="black" d="M377.87,-179.51C371.39,-171.84 363.15,-162.08 356.09,-153.73"/>
<polygon fill="black" stroke="black" points="357.3,-152.45 352.74,-149.75 354.63,-154.7 357.3,-152.45"/>
</g>
<!-- 473847 -->
<!-- 4574301024&#45;&gt;473847 -->
<!-- 4574309808 -->
<g id="node25" class="node">
<title>4574309808</title>
<ellipse fill="lightblue" stroke="black" cx="437" cy="-134.85" rx="18.4" ry="18.4"/>
<text text-anchor="middle" x="437" y="-131.15" font-family="Helvetica,sans-Serif" font-size="14.00">Q</text>
</g>
<!-- 4574301024&#45;&gt;4574309808 -->
<g id="edge24" class="edge">
<title>4574301024&#45;&gt;4574309808</title>
<path fill="none" stroke="black" d="M400.13,-179.51C406.7,-171.73 415.1,-161.79 422.22,-153.36"/>
<polygon fill="black" stroke="black" points="423.71,-154.31 425.59,-149.36 421.03,-152.05 423.71,-154.31"/>
</g>
<!-- 4574313072 -->
<g id="node26" class="node">
<title>4574313072</title>
<ellipse fill="lightblue" stroke="black" cx="502" cy="-134.85" rx="18" ry="18"/>
<text text-anchor="middle" x="502" y="-131.15" font-family="Helvetica,sans-Serif" font-size="14.00">T</text>
</g>
<!-- 4574310720&#45;&gt;4574313072 -->
<g id="edge25" class="edge">
<title>4574310720&#45;&gt;4574313072</title>
<path fill="none" stroke="black" d="M538.87,-179.51C532.3,-171.73 523.9,-161.79 516.78,-153.36"/>
<polygon fill="black" stroke="black" points="517.97,-152.05 513.41,-149.36 515.29,-154.31 517.97,-152.05"/>
</g>
<!-- 177775 -->
<!-- 4574310720&#45;&gt;177775 -->
<!-- 4574310624 -->
<g id="node28" class="node">
<title>4574310624</title>
<ellipse fill="lightblue" stroke="black" cx="598" cy="-134.85" rx="18" ry="18"/>
<text text-anchor="middle" x="598" y="-131.15" font-family="Helvetica,sans-Serif" font-size="14.00">Y</text>
</g>
<!-- 4574310720&#45;&gt;4574310624 -->
<g id="edge27" class="edge">
<title>4574310720&#45;&gt;4574310624</title>
<path fill="none" stroke="black" d="M561.13,-179.51C567.7,-171.73 576.1,-161.79 583.22,-153.36"/>
<polygon fill="black" stroke="black" points="584.71,-154.31 586.59,-149.36 582.03,-152.05 584.71,-154.31"/>
</g>
</g>
</svg>
