<?xml version="1.0" encoding="UTF-8" standalone="no"?>
<!DOCTYPE svg PUBLIC "-//W3C//DTD SVG 1.1//EN"
 "http://www.w3.org/Graphics/SVG/1.1/DTD/svg11.dtd">
<!-- Generated by graphviz version 2.50.0 (0)
 -->
<!-- Pages: 1 -->
<svg width="510pt" height="510pt"
 viewBox="0.00 0.00 510.00 510.49" xmlns="http://www.w3.org/2000/svg" xmlns:xlink="http://www.w3.org/1999/xlink">
<g id="graph0" class="graph" transform="scale(1 1) rotate(0) translate(4 506.49)">
<polygon fill="white" stroke="transparent" points="-4,4 -4,-506.49 506,-506.49 506,4 -4,4"/>
<!-- 4574341568 -->
<g id="node1" class="node">
<title>4574341568</title>
<ellipse fill="lightblue" stroke="black" cx="98" cy="-484.49" rx="18" ry="18"/>
<text text-anchor="middle" x="98" y="-480.79" font-family="Helvetica,sans-Serif" font-size="14.00">A</text>
</g>
<!-- 229718 -->
<!-- 4574341568&#45;&gt;229718 -->
<!-- 978601 -->
<!-- 4574341568&#45;&gt;978601 -->
<!-- 4574336720 -->
<g id="node4" class="node">
<title>4574336720</title>
<ellipse fill="lightblue" stroke="black" cx="146" cy="-426.49" rx="18" ry="18"/>
<text text-anchor="middle" x="146" y="-422.79" font-family="Helvetica,sans-Serif" font-size="14.00">F</text>
</g>
<!-- 4574341568&#45;&gt;4574336720 -->
<g id="edge3" class="edge">
<title>4574341568&#45;&gt;4574336720</title>
<path fill="none" stroke="black" d="M109.38,-470.22C115.95,-462.55 124.29,-452.81 131.36,-444.58"/>
<polygon fill="black" stroke="black" points="132.78,-445.6 134.71,-440.67 130.12,-443.32 132.78,-445.6"/>
</g>
<!-- 4574307648 -->
<g id="node5" class="node">
<title>4574307648</title>
<ellipse fill="lightblue" stroke="black" cx="66" cy="-367.64" rx="18" ry="18"/>
<text text-anchor="middle" x="66" y="-363.94" font-family="Helvetica,sans-Serif" font-size="14.00">D</text>
</g>
<!-- 4574336720&#45;&gt;4574307648 -->
<g id="edge4" class="edge">
<title>4574336720&#45;&gt;4574307648</title>
<path fill="none" stroke="black" d="M131.7,-415.33C118.58,-406.01 99.08,-392.15 84.72,-381.95"/>
<polygon fill="black" stroke="black" points="85.54,-380.38 80.45,-378.91 83.51,-383.23 85.54,-380.38"/>
</g>
<!-- 358456 -->
<!-- 4574336720&#45;&gt;358456 -->
<!-- 4574309472 -->
<g id="node7" class="node">
<title>4574309472</title>
<ellipse fill="lightblue" stroke="black" cx="227" cy="-367.64" rx="18.7" ry="18.7"/>
<text text-anchor="middle" x="227" y="-363.94" font-family="Helvetica,sans-Serif" font-size="14.00">M</text>
</g>
<!-- 4574336720&#45;&gt;4574309472 -->
<g id="edge6" class="edge">
<title>4574336720&#45;&gt;4574309472</title>
<path fill="none" stroke="black" d="M160.48,-415.33C173.6,-406.12 193.02,-392.49 207.5,-382.33"/>
<polygon fill="black" stroke="black" points="208.73,-383.6 211.82,-379.3 206.72,-380.74 208.73,-383.6"/>
</g>
<!-- 4574313168 -->
<g id="node8" class="node">
<title>4574313168</title>
<ellipse fill="lightblue" stroke="black" cx="18" cy="-308.6" rx="18" ry="18"/>
<text text-anchor="middle" x="18" y="-304.9" font-family="Helvetica,sans-Serif" font-size="14.00">B</text>
</g>
<!-- 4574307648&#45;&gt;4574313168 -->
<g id="edge7" class="edge">
<title>4574307648&#45;&gt;4574313168</title>
<path fill="none" stroke="black" d="M54.87,-353.41C48.3,-345.6 39.9,-335.63 32.78,-327.17"/>
<polygon fill="black" stroke="black" points="33.96,-325.85 29.41,-323.15 31.29,-328.1 33.96,-325.85"/>
</g>
<!-- 667093 -->
<!-- 4574307648&#45;&gt;667093 -->
<!-- 693997 -->
<!-- 4574307648&#45;&gt;693997 -->
<!-- 4574311056 -->
<g id="node11" class="node">
<title>4574311056</title>
<ellipse fill="lightblue" stroke="black" cx="179" cy="-308.6" rx="18" ry="18"/>
<text text-anchor="middle" x="179" y="-304.9" font-family="Helvetica,sans-Serif" font-size="14.00">H</text>
</g>
<!-- 4574309472&#45;&gt;4574311056 -->
<g id="edge10" class="edge">
<title>4574309472&#45;&gt;4574311056</title>
<path fill="none" stroke="black" d="M215.13,-352.54C208.65,-344.83 200.55,-335.21 193.67,-327.03"/>
<polygon fill="black" stroke="black" points="194.96,-325.84 190.4,-323.14 192.28,-328.09 194.96,-325.84"/>
</g>
<!-- 609400 -->
<!-- 4574309472&#45;&gt;609400 -->
<!-- 4574308416 -->
<g id="node13" class="node">
<title>4574308416</title>
<ellipse fill="lightblue" stroke="black" cx="340" cy="-308.6" rx="18.4" ry="18.4"/>
<text text-anchor="middle" x="340" y="-304.9" font-family="Helvetica,sans-Serif" font-size="14.00">O</text>
</g>
<!-- 4574309472&#45;&gt;4574308416 -->
<g id="edge12" class="edge">
<title>4574309472&#45;&gt;4574308416</title>
<path fill="none" stroke="black" d="M243.67,-358.22C263.76,-348.08 297.52,-331.04 319.27,-320.06"/>
<polygon fill="black" stroke="black" points="320.31,-321.49 323.99,-317.68 318.74,-318.37 320.31,-321.49"/>
</g>
<!-- 906098 -->
<!-- 4574311056&#45;&gt;906098 -->
<!-- 255893 -->
<!-- 4574311056&#45;&gt;255893 -->
<!-- 4574692176 -->
<g id="node16" class="node">
<title>4574692176</title>
<ellipse fill="lightblue" stroke="black" cx="227" cy="-250.4" rx="18" ry="18"/>
<text text-anchor="middle" x="227" y="-246.7" font-family="Helvetica,sans-Serif" font-size="14.00">J</text>
</g>
<!-- 4574311056&#45;&gt;4574692176 -->
<g id="edge15" class="edge">
<title>4574311056&#45;&gt;4574692176</title>
<path fill="none" stroke="black" d="M190.38,-294.28C196.95,-286.58 205.29,-276.81 212.36,-268.54"/>
<polygon fill="black" stroke="black" points="213.79,-269.56 215.71,-264.62 211.13,-267.28 213.79,-269.56"/>
</g>
<!-- 4574313792 -->
<g id="node17" class="node">
<title>4574313792</title>
<ellipse fill="lightblue" stroke="black" cx="292" cy="-250.4" rx="18" ry="18"/>
<text text-anchor="middle" x="292" y="-246.7" font-family="Helvetica,sans-Serif" font-size="14.00">N</text>
</g>
<!-- 4574308416&#45;&gt;4574313792 -->
<g id="edge16" class="edge">
<title>4574308416&#45;&gt;4574313792</title>
<path fill="none" stroke="black" d="M328.62,-294.28C322.05,-286.58 313.71,-276.81 306.64,-268.54"/>
<polygon fill="black" stroke="black" points="307.87,-267.28 303.29,-264.62 305.21,-269.56 307.87,-267.28"/>
</g>
<!-- 522227 -->
<!-- 4574308416&#45;&gt;522227 -->
<!-- 4574298720 -->
<g id="node19" class="node">
<title>4574298720</title>
<ellipse fill="lightblue" stroke="black" cx="388" cy="-250.4" rx="18" ry="18"/>
<text text-anchor="middle" x="388" y="-246.7" font-family="Helvetica,sans-Serif" font-size="14.00">X</text>
</g>
<!-- 4574308416&#45;&gt;4574298720 -->
<g id="edge18" class="edge">
<title>4574308416&#45;&gt;4574298720</title>
<path fill="none" stroke="black" d="M351.38,-294.28C357.95,-286.58 366.29,-276.81 373.36,-268.54"/>
<polygon fill="black" stroke="black" points="374.79,-269.56 376.71,-264.62 372.13,-267.28 374.79,-269.56"/>
</g>
<!-- 4574304864 -->
<g id="node20" class="node">
<title>4574304864</title>
<ellipse fill="lightblue" stroke="black" cx="340" cy="-192.4" rx="18" ry="18"/>
<text text-anchor="middle" x="340" y="-188.7" font-family="Helvetica,sans-Serif" font-size="14.00">P</text>
</g>
<!-- 4574298720&#45;&gt;4574304864 -->
<g id="edge19" class="edge">
<title>4574298720&#45;&gt;4574304864</title>
<path fill="none" stroke="black" d="M376.62,-236.13C370.05,-228.45 361.71,-218.72 354.64,-210.48"/>
<polygon fill="black" stroke="black" points="355.88,-209.23 351.29,-206.57 353.22,-211.51 355.88,-209.23"/>
</g>
<!-- 240452 -->
<!-- 4574298720&#45;&gt;240452 -->
<!-- 841418 -->
<!-- 4574298720&#45;&gt;841418 -->
<!-- 60560 -->
<!-- 4574304864&#45;&gt;60560 -->
<!-- 435941 -->
<!-- 4574304864&#45;&gt;435941 -->
<!-- 4574312832 -->
<g id="node25" class="node">
<title>4574312832</title>
<ellipse fill="lightblue" stroke="black" cx="388" cy="-134.4" rx="18" ry="18"/>
<text text-anchor="middle" x="388" y="-130.7" font-family="Helvetica,sans-Serif" font-size="14.00">R</text>
</g>
<!-- 4574304864&#45;&gt;4574312832 -->
<g id="edge24" class="edge">
<title>4574304864&#45;&gt;4574312832</title>
<path fill="none" stroke="black" d="M351.38,-178.13C357.95,-170.45 366.29,-160.72 373.36,-152.48"/>
<polygon fill="black" stroke="black" points="374.78,-153.51 376.71,-148.57 372.12,-151.23 374.78,-153.51"/>
</g>
<!-- 4574695536 -->
<g id="node26" class="node">
<title>4574695536</title>
<ellipse fill="lightblue" stroke="black" cx="340" cy="-76.2" rx="18.4" ry="18.4"/>
<text text-anchor="middle" x="340" y="-72.5" font-family="Helvetica,sans-Serif" font-size="14.00">Q</text>
</g>
<!-- 4574312832&#45;&gt;4574695536 -->
<g id="edge25" class="edge">
<title>4574312832&#45;&gt;4574695536</title>
<path fill="none" stroke="black" d="M376.62,-120.08C370.14,-112.49 361.95,-102.89 354.95,-94.7"/>
<polygon fill="black" stroke="black" points="356.21,-93.48 351.63,-90.81 353.54,-95.75 356.21,-93.48"/>
</g>
<!-- 917617 -->
<!-- 4574312832&#45;&gt;917617 -->
<!-- 4574300544 -->
<g id="node28" class="node">
<title>4574300544</title>
<ellipse fill="lightblue" stroke="black" cx="436" cy="-76.2" rx="18" ry="18"/>
<text text-anchor="middle" x="436" y="-72.5" font-family="Helvetica,sans-Serif" font-size="14.00">V</text>
</g>
<!-- 4574312832&#45;&gt;4574300544 -->
<g id="edge27" class="edge">
<title>4574312832&#45;&gt;4574300544</title>
<path fill="none" stroke="black" d="M399.38,-120.08C405.95,-112.38 414.29,-102.61 421.36,-94.34"/>
<polygon fill="black" stroke="black" points="422.79,-95.36 424.71,-90.42 420.13,-93.09 422.79,-95.36"/>
</g>
<!-- 4574692752 -->
<g id="node29" class="node">
<title>4574692752</title>
<ellipse fill="lightblue" stroke="black" cx="388" cy="-18" rx="18" ry="18"/>
<text text-anchor="middle" x="388" y="-14.3" font-family="Helvetica,sans-Serif" font-size="14.00">U</text>
</g>
<!-- 4574300544&#45;&gt;4574692752 -->
<g id="edge28" class="edge">
<title>4574300544&#45;&gt;4574692752</title>
<path fill="none" stroke="black" d="M424.62,-61.88C418.05,-54.18 409.71,-44.41 402.64,-36.15"/>
<polygon fill="black" stroke="black" points="403.87,-34.89 399.29,-32.22 401.21,-37.16 403.87,-34.89"/>
</g>
<!-- 581733 -->
<!-- 4574300544&#45;&gt;581733 -->
<!-- 29846 -->
<!-- 4574300544&#45;&gt;29846 -->
</g>
</svg>
