<?xml version="1.0" encoding="UTF-8" standalone="no"?>
<!DOCTYPE svg PUBLIC "-//W3C//DTD SVG 1.1//EN"
 "http://www.w3.org/Graphics/SVG/1.1/DTD/svg11.dtd">
<!-- Generated by graphviz version 2.50.0 (0)
 -->
<!-- Pages: 1 -->
<svg width="535pt" height="321pt"
 viewBox="0.00 0.00 535.20 320.88" xmlns="http://www.w3.org/2000/svg" xmlns:xlink="http://www.w3.org/1999/xlink">
<g id="graph0" class="graph" transform="scale(1 1) rotate(0) translate(4 316.88)">
<polygon fill="white" stroke="transparent" points="-4,4 -4,-316.88 531.2,-316.88 531.2,4 -4,4"/>
<!-- 4627871024 -->
<g id="node1" class="node">
<title>4627871024</title>
<ellipse fill="lightblue" stroke="black" cx="325.4" cy="-294.03" rx="18.7" ry="18.7"/>
<text text-anchor="middle" x="325.4" y="-290.33" font-family="Helvetica,sans-Serif" font-size="14.00">&#45;5</text>
</g>
<!-- 4627591776 -->
<g id="node2" class="node">
<title>4627591776</title>
<ellipse fill="lightblue" stroke="black" cx="237.4" cy="-229.79" rx="23.3" ry="23.3"/>
<text text-anchor="middle" x="237.4" y="-226.09" font-family="Helvetica,sans-Serif" font-size="14.00">&#45;14</text>
</g>
<!-- 4627871024&#45;&gt;4627591776 -->
<g id="edge1" class="edge">
<title>4627871024&#45;&gt;4627591776</title>
<path fill="none" stroke="black" d="M310.47,-282.47C296.75,-272.77 276.22,-258.24 260.4,-247.06"/>
<polygon fill="black" stroke="black" points="261.17,-245.46 256.08,-244 259.15,-248.32 261.17,-245.46"/>
</g>
<!-- 576089 -->
<!-- 4627871024&#45;&gt;576089 -->
<!-- 4627591104 -->
<g id="node4" class="node">
<title>4627591104</title>
<ellipse fill="lightblue" stroke="black" cx="408.4" cy="-229.79" rx="18.7" ry="18.7"/>
<text text-anchor="middle" x="408.4" y="-226.09" font-family="Helvetica,sans-Serif" font-size="14.00">&#45;1</text>
</g>
<!-- 4627871024&#45;&gt;4627591104 -->
<g id="edge3" class="edge">
<title>4627871024&#45;&gt;4627591104</title>
<path fill="none" stroke="black" d="M340.24,-281.9C354.05,-271.55 374.69,-256.07 389.63,-244.86"/>
<polygon fill="black" stroke="black" points="390.74,-246.22 393.69,-241.82 388.64,-243.42 390.74,-246.22"/>
</g>
<!-- 4628149552 -->
<g id="node5" class="node">
<title>4628149552</title>
<ellipse fill="lightblue" stroke="black" cx="129.4" cy="-160.99" rx="23.3" ry="23.3"/>
<text text-anchor="middle" x="129.4" y="-157.29" font-family="Helvetica,sans-Serif" font-size="14.00">&#45;15</text>
</g>
<!-- 4627591776&#45;&gt;4628149552 -->
<g id="edge4" class="edge">
<title>4627591776&#45;&gt;4628149552</title>
<path fill="none" stroke="black" d="M217.84,-216.69C199.76,-205.5 172.83,-188.85 153.44,-176.86"/>
<polygon fill="black" stroke="black" points="154.35,-175.36 149.18,-174.22 152.51,-178.34 154.35,-175.36"/>
</g>
<!-- 962545 -->
<!-- 4627591776&#45;&gt;962545 -->
<!-- 4628140912 -->
<g id="node7" class="node">
<title>4628140912</title>
<ellipse fill="lightblue" stroke="black" cx="290.4" cy="-160.99" rx="23.3" ry="23.3"/>
<text text-anchor="middle" x="290.4" y="-157.29" font-family="Helvetica,sans-Serif" font-size="14.00">&#45;11</text>
</g>
<!-- 4627591776&#45;&gt;4628140912 -->
<g id="edge6" class="edge">
<title>4627591776&#45;&gt;4628140912</title>
<path fill="none" stroke="black" d="M251.6,-210.89C258.14,-202.65 265.95,-192.8 272.85,-184.1"/>
<polygon fill="black" stroke="black" points="274.42,-184.94 276.16,-179.94 271.68,-182.77 274.42,-184.94"/>
</g>
<!-- 562749 -->
<!-- 4627591104&#45;&gt;562749 -->
<!-- 377744 -->
<!-- 4627591104&#45;&gt;377744 -->
<!-- 4628139760 -->
<g id="node19" class="node">
<title>4628139760</title>
<ellipse fill="lightblue" stroke="black" cx="456.4" cy="-160.99" rx="18" ry="18"/>
<text text-anchor="middle" x="456.4" y="-157.29" font-family="Helvetica,sans-Serif" font-size="14.00">5</text>
</g>
<!-- 4627591104&#45;&gt;4628139760 -->
<g id="edge18" class="edge">
<title>4627591104&#45;&gt;4628139760</title>
<path fill="none" stroke="black" d="M419.05,-213.96C426.17,-204.05 435.59,-190.95 443.18,-180.38"/>
<polygon fill="black" stroke="black" points="444.61,-181.4 446.1,-176.31 441.77,-179.35 444.61,-181.4"/>
</g>
<!-- 4628144368 -->
<g id="node8" class="node">
<title>4628144368</title>
<ellipse fill="lightblue" stroke="black" cx="76.4" cy="-92.19" rx="23.3" ry="23.3"/>
<text text-anchor="middle" x="76.4" y="-88.49" font-family="Helvetica,sans-Serif" font-size="14.00">&#45;16</text>
</g>
<!-- 4628149552&#45;&gt;4628144368 -->
<g id="edge7" class="edge">
<title>4628149552&#45;&gt;4628144368</title>
<path fill="none" stroke="black" d="M115.19,-142.09C108.66,-133.85 100.84,-124 93.94,-115.31"/>
<polygon fill="black" stroke="black" points="95.12,-113.97 90.64,-111.14 92.38,-116.15 95.12,-113.97"/>
</g>
<!-- 303432 -->
<!-- 4628149552&#45;&gt;303432 -->
<!-- 839335 -->
<!-- 4628149552&#45;&gt;839335 -->
<!-- 232708 -->
<!-- 4628140912&#45;&gt;232708 -->
<!-- 545615 -->
<!-- 4628140912&#45;&gt;545615 -->
<!-- 4628144752 -->
<g id="node16" class="node">
<title>4628144752</title>
<ellipse fill="lightblue" stroke="black" cx="338.4" cy="-92.19" rx="18.7" ry="18.7"/>
<text text-anchor="middle" x="338.4" y="-88.49" font-family="Helvetica,sans-Serif" font-size="14.00">&#45;8</text>
</g>
<!-- 4628140912&#45;&gt;4628144752 -->
<g id="edge15" class="edge">
<title>4628140912&#45;&gt;4628144752</title>
<path fill="none" stroke="black" d="M303.77,-141.38C310.25,-132.36 318.03,-121.53 324.58,-112.43"/>
<polygon fill="black" stroke="black" points="326.18,-113.19 327.68,-108.11 323.34,-111.15 326.18,-113.19"/>
</g>
<!-- 4628141152 -->
<g id="node11" class="node">
<title>4628141152</title>
<ellipse fill="lightblue" stroke="black" cx="23.4" cy="-23.4" rx="23.3" ry="23.3"/>
<text text-anchor="middle" x="23.4" y="-19.7" font-family="Helvetica,sans-Serif" font-size="14.00">&#45;19</text>
</g>
<!-- 4628144368&#45;&gt;4628141152 -->
<g id="edge10" class="edge">
<title>4628144368&#45;&gt;4628141152</title>
<path fill="none" stroke="black" d="M62.19,-73.29C55.66,-65.06 47.84,-55.21 40.94,-46.51"/>
<polygon fill="black" stroke="black" points="42.12,-45.18 37.64,-42.35 39.38,-47.35 42.12,-45.18"/>
</g>
<!-- 802331 -->
<!-- 4628144368&#45;&gt;802331 -->
<!-- 61705 -->
<!-- 4628144368&#45;&gt;61705 -->
<!-- 290122 -->
<!-- 4628139760&#45;&gt;290122 -->
<!-- 817622 -->
<!-- 4628139760&#45;&gt;817622 -->
<!-- 4628152048 -->
<g id="node22" class="node">
<title>4628152048</title>
<ellipse fill="lightblue" stroke="black" cx="506.4" cy="-92.19" rx="20.6" ry="20.6"/>
<text text-anchor="middle" x="506.4" y="-88.49" font-family="Helvetica,sans-Serif" font-size="14.00">10</text>
</g>
<!-- 4628139760&#45;&gt;4628152048 -->
<g id="edge21" class="edge">
<title>4628139760&#45;&gt;4628152048</title>
<path fill="none" stroke="black" d="M466.76,-146.15C473.83,-136.7 483.31,-124.04 491.23,-113.46"/>
<polygon fill="black" stroke="black" points="492.69,-114.42 494.29,-109.37 489.89,-112.32 492.69,-114.42"/>
</g>
</g>
</svg>
