<?xml version="1.0" encoding="UTF-8" standalone="no"?>
<!DOCTYPE svg PUBLIC "-//W3C//DTD SVG 1.1//EN"
 "http://www.w3.org/Graphics/SVG/1.1/DTD/svg11.dtd">
<!-- Generated by graphviz version 2.50.0 (0)
 -->
<!-- Pages: 1 -->
<svg width="253pt" height="493pt"
 viewBox="0.00 0.00 253.40 493.07" xmlns="http://www.w3.org/2000/svg" xmlns:xlink="http://www.w3.org/1999/xlink">
<g id="graph0" class="graph" transform="scale(1 1) rotate(0) translate(4 489.07)">
<polygon fill="white" stroke="transparent" points="-4,4 -4,-489.07 249.4,-489.07 249.4,4 -4,4"/>
<!-- 4627581600 -->
<g id="node1" class="node">
<title>4627581600</title>
<ellipse fill="lightblue" stroke="black" cx="76.4" cy="-461.68" rx="23.3" ry="23.3"/>
<text text-anchor="middle" x="76.4" y="-457.98" font-family="Helvetica,sans-Serif" font-size="14.00">&#45;17</text>
</g>
<!-- 4628138080 -->
<g id="node2" class="node">
<title>4628138080</title>
<ellipse fill="lightblue" stroke="black" cx="23.4" cy="-392.88" rx="23.3" ry="23.3"/>
<text text-anchor="middle" x="23.4" y="-389.18" font-family="Helvetica,sans-Serif" font-size="14.00">&#45;18</text>
</g>
<!-- 4627581600&#45;&gt;4628138080 -->
<g id="edge1" class="edge">
<title>4627581600&#45;&gt;4628138080</title>
<path fill="none" stroke="black" d="M62.19,-442.78C55.66,-434.54 47.84,-424.69 40.94,-415.99"/>
<polygon fill="black" stroke="black" points="42.12,-414.66 37.64,-411.83 39.38,-416.83 42.12,-414.66"/>
</g>
<!-- 714338 -->
<!-- 4627581600&#45;&gt;714338 -->
<!-- 4627870832 -->
<g id="node4" class="node">
<title>4627870832</title>
<ellipse fill="lightblue" stroke="black" cx="129.4" cy="-392.88" rx="23.3" ry="23.3"/>
<text text-anchor="middle" x="129.4" y="-389.18" font-family="Helvetica,sans-Serif" font-size="14.00">&#45;15</text>
</g>
<!-- 4627581600&#45;&gt;4627870832 -->
<g id="edge3" class="edge">
<title>4627581600&#45;&gt;4627870832</title>
<path fill="none" stroke="black" d="M90.6,-442.78C97.14,-434.54 104.95,-424.69 111.85,-415.99"/>
<polygon fill="black" stroke="black" points="113.42,-416.83 115.16,-411.83 110.68,-414.66 113.42,-416.83"/>
</g>
<!-- 166076 -->
<!-- 4627870832&#45;&gt;166076 -->
<!-- 451589 -->
<!-- 4627870832&#45;&gt;451589 -->
<!-- 4627591776 -->
<g id="node7" class="node">
<title>4627591776</title>
<ellipse fill="lightblue" stroke="black" cx="179.4" cy="-326.68" rx="20.6" ry="20.6"/>
<text text-anchor="middle" x="179.4" y="-322.98" font-family="Helvetica,sans-Serif" font-size="14.00">18</text>
</g>
<!-- 4627870832&#45;&gt;4627591776 -->
<g id="edge6" class="edge">
<title>4627870832&#45;&gt;4627591776</title>
<path fill="none" stroke="black" d="M143.33,-374C149.68,-365.84 157.24,-356.14 163.79,-347.73"/>
<polygon fill="black" stroke="black" points="165.22,-348.74 166.91,-343.72 162.46,-346.59 165.22,-348.74"/>
</g>
<!-- 4628148352 -->
<g id="node8" class="node">
<title>4628148352</title>
<ellipse fill="lightblue" stroke="black" cx="131.4" cy="-265.89" rx="18" ry="18"/>
<text text-anchor="middle" x="131.4" y="-262.19" font-family="Helvetica,sans-Serif" font-size="14.00">3</text>
</g>
<!-- 4627591776&#45;&gt;4628148352 -->
<g id="edge7" class="edge">
<title>4627591776&#45;&gt;4628148352</title>
<path fill="none" stroke="black" d="M166.53,-309.93C160.16,-302.12 152.44,-292.66 145.86,-284.61"/>
<polygon fill="black" stroke="black" points="146.86,-283.06 142.34,-280.29 144.15,-285.27 146.86,-283.06"/>
</g>
<!-- 669485 -->
<!-- 4627591776&#45;&gt;669485 -->
<!-- 412648 -->
<!-- 4627591776&#45;&gt;412648 -->
<!-- 4628152096 -->
<g id="node11" class="node">
<title>4628152096</title>
<ellipse fill="lightblue" stroke="black" cx="78.4" cy="-202.49" rx="23.3" ry="23.3"/>
<text text-anchor="middle" x="78.4" y="-198.79" font-family="Helvetica,sans-Serif" font-size="14.00">&#45;10</text>
</g>
<!-- 4628148352&#45;&gt;4628152096 -->
<g id="edge10" class="edge">
<title>4628148352&#45;&gt;4628152096</title>
<path fill="none" stroke="black" d="M119.9,-251.56C113.2,-243.8 104.6,-233.84 96.96,-224.99"/>
<polygon fill="black" stroke="black" points="97.89,-223.4 93.3,-220.75 95.24,-225.68 97.89,-223.4"/>
</g>
<!-- 842708 -->
<!-- 4628148352&#45;&gt;842708 -->
<!-- 758133 -->
<!-- 4628148352&#45;&gt;758133 -->
<!-- 902031 -->
<!-- 4628152096&#45;&gt;902031 -->
<!-- 533795 -->
<!-- 4628152096&#45;&gt;533795 -->
<!-- 4628139088 -->
<g id="node16" class="node">
<title>4628139088</title>
<ellipse fill="lightblue" stroke="black" cx="126.4" cy="-138.24" rx="18.7" ry="18.7"/>
<text text-anchor="middle" x="126.4" y="-134.54" font-family="Helvetica,sans-Serif" font-size="14.00">&#45;1</text>
</g>
<!-- 4628152096&#45;&gt;4628139088 -->
<g id="edge15" class="edge">
<title>4628152096&#45;&gt;4628139088</title>
<path fill="none" stroke="black" d="M92.28,-183.48C98.45,-175.49 105.71,-166.07 111.94,-157.99"/>
<polygon fill="black" stroke="black" points="113.62,-158.68 115.28,-153.65 110.84,-156.54 113.62,-158.68"/>
</g>
<!-- 4628137120 -->
<g id="node17" class="node">
<title>4628137120</title>
<ellipse fill="lightblue" stroke="black" cx="78.4" cy="-78.54" rx="18.7" ry="18.7"/>
<text text-anchor="middle" x="78.4" y="-74.84" font-family="Helvetica,sans-Serif" font-size="14.00">&#45;4</text>
</g>
<!-- 4628139088&#45;&gt;4628137120 -->
<g id="edge16" class="edge">
<title>4628139088&#45;&gt;4628137120</title>
<path fill="none" stroke="black" d="M114.78,-123.27C108.39,-115.59 100.39,-105.97 93.51,-97.71"/>
<polygon fill="black" stroke="black" points="94.79,-96.51 90.24,-93.78 92.1,-98.75 94.79,-96.51"/>
</g>
<!-- 995513 -->
<!-- 4628139088&#45;&gt;995513 -->
<!-- 390133 -->
<!-- 4628139088&#45;&gt;390133 -->
<!-- 4628138032 -->
<g id="node20" class="node">
<title>4628138032</title>
<ellipse fill="lightblue" stroke="black" cx="30.4" cy="-18.85" rx="18.7" ry="18.7"/>
<text text-anchor="middle" x="30.4" y="-15.15" font-family="Helvetica,sans-Serif" font-size="14.00">&#45;7</text>
</g>
<!-- 4628137120&#45;&gt;4628138032 -->
<g id="edge19" class="edge">
<title>4628137120&#45;&gt;4628138032</title>
<path fill="none" stroke="black" d="M66.78,-63.58C60.39,-55.9 52.39,-46.28 45.51,-38.02"/>
<polygon fill="black" stroke="black" points="46.79,-36.81 42.24,-34.09 44.1,-39.05 46.79,-36.81"/>
</g>
<!-- 570610 -->
<!-- 4628137120&#45;&gt;570610 -->
<!-- 4628139760 -->
<g id="node22" class="node">
<title>4628139760</title>
<ellipse fill="lightblue" stroke="black" cx="126.4" cy="-18.85" rx="18.7" ry="18.7"/>
<text text-anchor="middle" x="126.4" y="-15.15" font-family="Helvetica,sans-Serif" font-size="14.00">&#45;2</text>
</g>
<!-- 4628137120&#45;&gt;4628139760 -->
<g id="edge21" class="edge">
<title>4628137120&#45;&gt;4628139760</title>
<path fill="none" stroke="black" d="M90.02,-63.58C96.41,-55.9 104.41,-46.28 111.28,-38.02"/>
<polygon fill="black" stroke="black" points="112.7,-39.05 114.55,-34.09 110.01,-36.81 112.7,-39.05"/>
</g>
</g>
</svg>
