<?xml version="1.0" encoding="UTF-8" standalone="no"?>
<!DOCTYPE svg PUBLIC "-//W3C//DTD SVG 1.1//EN"
 "http://www.w3.org/Graphics/SVG/1.1/DTD/svg11.dtd">
<!-- Generated by graphviz version 2.50.0 (0)
 -->
<!-- Pages: 1 -->
<svg width="720pt" height="281pt"
 viewBox="0.00 0.00 720.00 281.09" xmlns="http://www.w3.org/2000/svg" xmlns:xlink="http://www.w3.org/1999/xlink">
<g id="graph0" class="graph" transform="scale(1 1) rotate(0) translate(4 277.09)">
<polygon fill="white" stroke="transparent" points="-4,4 -4,-277.09 716,-277.09 716,4 -4,4"/>
<!-- 4574343104 -->
<g id="node1" class="node">
<title>4574343104</title>
<ellipse fill="lightblue" stroke="black" cx="356" cy="-255.09" rx="18" ry="18"/>
<text text-anchor="middle" x="356" y="-251.39" font-family="Helvetica,sans-Serif" font-size="14.00">K</text>
</g>
<!-- 4574341568 -->
<g id="node2" class="node">
<title>4574341568</title>
<ellipse fill="lightblue" stroke="black" cx="227" cy="-196.89" rx="18.4" ry="18.4"/>
<text text-anchor="middle" x="227" y="-193.19" font-family="Helvetica,sans-Serif" font-size="14.00">G</text>
</g>
<!-- 4574343104&#45;&gt;4574341568 -->
<g id="edge1" class="edge">
<title>4574343104&#45;&gt;4574341568</title>
<path fill="none" stroke="black" d="M339.66,-246.97C316.53,-236.89 274.18,-218.45 248.51,-207.26"/>
<polygon fill="black" stroke="black" points="248.9,-205.52 243.61,-205.13 247.5,-208.73 248.9,-205.52"/>
</g>
<!-- 971444 -->
<!-- 4574343104&#45;&gt;971444 -->
<!-- 4574337104 -->
<g id="node4" class="node">
<title>4574337104</title>
<ellipse fill="lightblue" stroke="black" cx="485" cy="-196.89" rx="18" ry="18"/>
<text text-anchor="middle" x="485" y="-193.19" font-family="Helvetica,sans-Serif" font-size="14.00">P</text>
</g>
<!-- 4574343104&#45;&gt;4574337104 -->
<g id="edge3" class="edge">
<title>4574343104&#45;&gt;4574337104</title>
<path fill="none" stroke="black" d="M372.34,-246.97C395.6,-236.84 438.28,-218.24 463.91,-207.08"/>
<polygon fill="black" stroke="black" points="464.91,-208.55 468.79,-204.95 463.51,-205.34 464.91,-208.55"/>
</g>
<!-- 4574312640 -->
<g id="node5" class="node">
<title>4574312640</title>
<ellipse fill="lightblue" stroke="black" cx="114" cy="-137.19" rx="18" ry="18"/>
<text text-anchor="middle" x="114" y="-133.49" font-family="Helvetica,sans-Serif" font-size="14.00">F</text>
</g>
<!-- 4574341568&#45;&gt;4574312640 -->
<g id="edge4" class="edge">
<title>4574341568&#45;&gt;4574312640</title>
<path fill="none" stroke="black" d="M210.81,-187.63C190.64,-177.33 156.17,-159.73 134.27,-148.54"/>
<polygon fill="black" stroke="black" points="135.04,-146.98 129.8,-146.26 133.45,-150.09 135.04,-146.98"/>
</g>
<!-- 84503 -->
<!-- 4574341568&#45;&gt;84503 -->
<!-- 4574312352 -->
<g id="node7" class="node">
<title>4574312352</title>
<ellipse fill="lightblue" stroke="black" cx="275" cy="-137.19" rx="18" ry="18"/>
<text text-anchor="middle" x="275" y="-133.49" font-family="Helvetica,sans-Serif" font-size="14.00">I</text>
</g>
<!-- 4574341568&#45;&gt;4574312352 -->
<g id="edge6" class="edge">
<title>4574341568&#45;&gt;4574312352</title>
<path fill="none" stroke="black" d="M238.38,-182.22C244.95,-174.31 253.29,-164.29 260.36,-155.8"/>
<polygon fill="black" stroke="black" points="261.85,-156.73 263.71,-151.77 259.16,-154.49 261.85,-156.73"/>
</g>
<!-- 4574308416 -->
<g id="node17" class="node">
<title>4574308416</title>
<ellipse fill="lightblue" stroke="black" cx="437" cy="-137.19" rx="18" ry="18"/>
<text text-anchor="middle" x="437" y="-133.49" font-family="Helvetica,sans-Serif" font-size="14.00">N</text>
</g>
<!-- 4574337104&#45;&gt;4574308416 -->
<g id="edge16" class="edge">
<title>4574337104&#45;&gt;4574308416</title>
<path fill="none" stroke="black" d="M473.87,-182.51C467.2,-174.5 458.66,-164.23 451.48,-155.6"/>
<polygon fill="black" stroke="black" points="452.62,-154.23 448.07,-151.5 449.92,-156.47 452.62,-154.23"/>
</g>
<!-- 573442 -->
<!-- 4574337104&#45;&gt;573442 -->
<!-- 4574336720 -->
<g id="node19" class="node">
<title>4574336720</title>
<ellipse fill="lightblue" stroke="black" cx="598" cy="-137.19" rx="19.5" ry="19.5"/>
<text text-anchor="middle" x="598" y="-133.49" font-family="Helvetica,sans-Serif" font-size="14.00">W</text>
</g>
<!-- 4574337104&#45;&gt;4574336720 -->
<g id="edge18" class="edge">
<title>4574337104&#45;&gt;4574336720</title>
<path fill="none" stroke="black" d="M500.71,-187.87C520.41,-177.81 554.29,-160.51 576.41,-149.22"/>
<polygon fill="black" stroke="black" points="577.29,-150.74 580.95,-146.9 575.7,-147.62 577.29,-150.74"/>
</g>
<!-- 4574300544 -->
<g id="node8" class="node">
<title>4574300544</title>
<ellipse fill="lightblue" stroke="black" cx="66" cy="-76.85" rx="18" ry="18"/>
<text text-anchor="middle" x="66" y="-73.15" font-family="Helvetica,sans-Serif" font-size="14.00">A</text>
</g>
<!-- 4574312640&#45;&gt;4574300544 -->
<g id="edge7" class="edge">
<title>4574312640&#45;&gt;4574300544</title>
<path fill="none" stroke="black" d="M102.87,-122.66C96.2,-114.56 87.66,-104.18 80.48,-95.44"/>
<polygon fill="black" stroke="black" points="81.6,-94.06 77.07,-91.31 78.9,-96.28 81.6,-94.06"/>
</g>
<!-- 567689 -->
<!-- 4574312640&#45;&gt;567689 -->
<!-- 824989 -->
<!-- 4574312640&#45;&gt;824989 -->
<!-- 4574312832 -->
<g id="node14" class="node">
<title>4574312832</title>
<ellipse fill="lightblue" stroke="black" cx="227" cy="-76.85" rx="18" ry="18"/>
<text text-anchor="middle" x="227" y="-73.15" font-family="Helvetica,sans-Serif" font-size="14.00">H</text>
</g>
<!-- 4574312352&#45;&gt;4574312832 -->
<g id="edge13" class="edge">
<title>4574312352&#45;&gt;4574312832</title>
<path fill="none" stroke="black" d="M263.87,-122.66C257.2,-114.56 248.66,-104.18 241.48,-95.44"/>
<polygon fill="black" stroke="black" points="242.6,-94.06 238.07,-91.31 239.9,-96.28 242.6,-94.06"/>
</g>
<!-- 185655 -->
<!-- 4574312352&#45;&gt;185655 -->
<!-- 767414 -->
<!-- 4574312352&#45;&gt;767414 -->
<!-- 609259 -->
<!-- 4574300544&#45;&gt;609259 -->
<!-- 825218 -->
<!-- 4574300544&#45;&gt;825218 -->
<!-- 4574695536 -->
<g id="node13" class="node">
<title>4574695536</title>
<ellipse fill="lightblue" stroke="black" cx="114" cy="-18" rx="18" ry="18"/>
<text text-anchor="middle" x="114" y="-14.3" font-family="Helvetica,sans-Serif" font-size="14.00">E</text>
</g>
<!-- 4574300544&#45;&gt;4574695536 -->
<g id="edge12" class="edge">
<title>4574300544&#45;&gt;4574695536</title>
<path fill="none" stroke="black" d="M77.13,-62.66C83.7,-54.88 92.1,-44.94 99.22,-36.51"/>
<polygon fill="black" stroke="black" points="100.71,-37.46 102.59,-32.51 98.03,-35.2 100.71,-37.46"/>
</g>
<!-- 4574307648 -->
<g id="node20" class="node">
<title>4574307648</title>
<ellipse fill="lightblue" stroke="black" cx="389" cy="-76.85" rx="18.7" ry="18.7"/>
<text text-anchor="middle" x="389" y="-73.15" font-family="Helvetica,sans-Serif" font-size="14.00">M</text>
</g>
<!-- 4574308416&#45;&gt;4574307648 -->
<g id="edge19" class="edge">
<title>4574308416&#45;&gt;4574307648</title>
<path fill="none" stroke="black" d="M425.87,-122.66C419.39,-114.79 411.15,-104.77 404.09,-96.2"/>
<polygon fill="black" stroke="black" points="405.27,-94.87 400.74,-92.12 402.57,-97.09 405.27,-94.87"/>
</g>
<!-- 478458 -->
<!-- 4574308416&#45;&gt;478458 -->
<!-- 4574309472 -->
<g id="node22" class="node">
<title>4574309472</title>
<ellipse fill="lightblue" stroke="black" cx="485" cy="-76.85" rx="18.4" ry="18.4"/>
<text text-anchor="middle" x="485" y="-73.15" font-family="Helvetica,sans-Serif" font-size="14.00">O</text>
</g>
<!-- 4574308416&#45;&gt;4574309472 -->
<g id="edge21" class="edge">
<title>4574308416&#45;&gt;4574309472</title>
<path fill="none" stroke="black" d="M448.13,-122.66C454.8,-114.56 463.34,-104.18 470.52,-95.44"/>
<polygon fill="black" stroke="black" points="472.1,-96.28 473.93,-91.31 469.4,-94.06 472.1,-96.28"/>
</g>
<!-- 4574313792 -->
<g id="node23" class="node">
<title>4574313792</title>
<ellipse fill="lightblue" stroke="black" cx="550" cy="-76.85" rx="18" ry="18"/>
<text text-anchor="middle" x="550" y="-73.15" font-family="Helvetica,sans-Serif" font-size="14.00">T</text>
</g>
<!-- 4574336720&#45;&gt;4574313792 -->
<g id="edge22" class="edge">
<title>4574336720&#45;&gt;4574313792</title>
<path fill="none" stroke="black" d="M585.89,-121.47C579.3,-113.46 571.11,-103.51 564.22,-95.14"/>
<polygon fill="black" stroke="black" points="565.49,-93.92 560.96,-91.17 562.78,-96.14 565.49,-93.92"/>
</g>
<!-- 111453 -->
<!-- 4574336720&#45;&gt;111453 -->
<!-- 4574301840 -->
<g id="node25" class="node">
<title>4574301840</title>
<ellipse fill="lightblue" stroke="black" cx="646" cy="-76.85" rx="18" ry="18"/>
<text text-anchor="middle" x="646" y="-73.15" font-family="Helvetica,sans-Serif" font-size="14.00">X</text>
</g>
<!-- 4574336720&#45;&gt;4574301840 -->
<g id="edge24" class="edge">
<title>4574336720&#45;&gt;4574301840</title>
<path fill="none" stroke="black" d="M610.11,-121.47C616.7,-113.46 624.89,-103.51 631.78,-95.14"/>
<polygon fill="black" stroke="black" points="633.22,-96.14 635.04,-91.17 630.51,-93.92 633.22,-96.14"/>
</g>
<!-- 176681 -->
<!-- 4574301840&#45;&gt;176681 -->
<!-- 541809 -->
<!-- 4574301840&#45;&gt;541809 -->
<!-- 4574304864 -->
<g id="node28" class="node">
<title>4574304864</title>
<ellipse fill="lightblue" stroke="black" cx="694" cy="-18" rx="18" ry="18"/>
<text text-anchor="middle" x="694" y="-14.3" font-family="Helvetica,sans-Serif" font-size="14.00">Y</text>
</g>
<!-- 4574301840&#45;&gt;4574304864 -->
<g id="edge27" class="edge">
<title>4574301840&#45;&gt;4574304864</title>
<path fill="none" stroke="black" d="M657.13,-62.66C663.7,-54.88 672.1,-44.94 679.22,-36.51"/>
<polygon fill="black" stroke="black" points="680.71,-37.46 682.59,-32.51 678.03,-35.2 680.71,-37.46"/>
</g>
</g>
</svg>
