<?xml version="1.0" encoding="UTF-8" standalone="no"?>
<!DOCTYPE svg PUBLIC "-//W3C//DTD SVG 1.1//EN"
 "http://www.w3.org/Graphics/SVG/1.1/DTD/svg11.dtd">
<!-- Generated by graphviz version 2.50.0 (0)
 -->
<!-- Pages: 1 -->
<svg width="316pt" height="375pt"
 viewBox="0.00 0.00 316.40 375.38" xmlns="http://www.w3.org/2000/svg" xmlns:xlink="http://www.w3.org/1999/xlink">
<g id="graph0" class="graph" transform="scale(1 1) rotate(0) translate(4 371.38)">
<polygon fill="white" stroke="transparent" points="-4,4 -4,-371.38 312.4,-371.38 312.4,4 -4,4"/>
<!-- 4628151808 -->
<g id="node1" class="node">
<title>4628151808</title>
<ellipse fill="lightblue" stroke="black" cx="110.4" cy="-343.98" rx="23.3" ry="23.3"/>
<text text-anchor="middle" x="110.4" y="-340.28" font-family="Helvetica,sans-Serif" font-size="14.00">&#45;20</text>
</g>
<!-- 65140 -->
<!-- 4628151808&#45;&gt;65140 -->
<!-- 496066 -->
<!-- 4628151808&#45;&gt;496066 -->
<!-- 4628144224 -->
<g id="node4" class="node">
<title>4628144224</title>
<ellipse fill="lightblue" stroke="black" cx="160.4" cy="-277.78" rx="20.6" ry="20.6"/>
<text text-anchor="middle" x="160.4" y="-274.08" font-family="Helvetica,sans-Serif" font-size="14.00">10</text>
</g>
<!-- 4628151808&#45;&gt;4628144224 -->
<g id="edge3" class="edge">
<title>4628151808&#45;&gt;4628144224</title>
<path fill="none" stroke="black" d="M124.33,-325.1C130.68,-316.94 138.24,-307.24 144.79,-298.83"/>
<polygon fill="black" stroke="black" points="146.22,-299.84 147.91,-294.82 143.46,-297.69 146.22,-299.84"/>
</g>
<!-- 4628140672 -->
<g id="node5" class="node">
<title>4628140672</title>
<ellipse fill="lightblue" stroke="black" cx="76.4" cy="-211.59" rx="23.3" ry="23.3"/>
<text text-anchor="middle" x="76.4" y="-207.89" font-family="Helvetica,sans-Serif" font-size="14.00">&#45;11</text>
</g>
<!-- 4628144224&#45;&gt;4628140672 -->
<g id="edge4" class="edge">
<title>4628144224&#45;&gt;4628140672</title>
<path fill="none" stroke="black" d="M144.2,-264.41C131.33,-254.57 113.17,-240.69 98.88,-229.77"/>
<polygon fill="black" stroke="black" points="99.62,-228.13 94.59,-226.49 97.5,-230.91 99.62,-228.13"/>
</g>
<!-- 836797 -->
<!-- 4628144224&#45;&gt;836797 -->
<!-- 4628141296 -->
<g id="node7" class="node">
<title>4628141296</title>
<ellipse fill="lightblue" stroke="black" cx="242.4" cy="-211.59" rx="20.6" ry="20.6"/>
<text text-anchor="middle" x="242.4" y="-207.89" font-family="Helvetica,sans-Serif" font-size="14.00">18</text>
</g>
<!-- 4628144224&#45;&gt;4628141296 -->
<g id="edge6" class="edge">
<title>4628144224&#45;&gt;4628141296</title>
<path fill="none" stroke="black" d="M176.6,-264.1C189.71,-253.83 208.24,-239.33 222.3,-228.32"/>
<polygon fill="black" stroke="black" points="223.65,-229.49 226.51,-225.03 221.49,-226.73 223.65,-229.49"/>
</g>
<!-- 4628141488 -->
<g id="node8" class="node">
<title>4628141488</title>
<ellipse fill="lightblue" stroke="black" cx="23.4" cy="-142.79" rx="23.3" ry="23.3"/>
<text text-anchor="middle" x="23.4" y="-139.09" font-family="Helvetica,sans-Serif" font-size="14.00">&#45;16</text>
</g>
<!-- 4628140672&#45;&gt;4628141488 -->
<g id="edge7" class="edge">
<title>4628140672&#45;&gt;4628141488</title>
<path fill="none" stroke="black" d="M62.19,-192.69C55.66,-184.45 47.84,-174.6 40.94,-165.9"/>
<polygon fill="black" stroke="black" points="42.12,-164.57 37.64,-161.74 39.38,-166.75 42.12,-164.57"/>
</g>
<!-- 389476 -->
<!-- 4628140672&#45;&gt;389476 -->
<!-- 4628147632 -->
<g id="node10" class="node">
<title>4628147632</title>
<ellipse fill="lightblue" stroke="black" cx="124.4" cy="-142.79" rx="18" ry="18"/>
<text text-anchor="middle" x="124.4" y="-139.09" font-family="Helvetica,sans-Serif" font-size="14.00">1</text>
</g>
<!-- 4628140672&#45;&gt;4628147632 -->
<g id="edge9" class="edge">
<title>4628140672&#45;&gt;4628147632</title>
<path fill="none" stroke="black" d="M89.77,-191.98C96.5,-182.61 104.64,-171.29 111.33,-161.97"/>
<polygon fill="black" stroke="black" points="112.8,-162.93 114.3,-157.85 109.96,-160.89 112.8,-162.93"/>
</g>
<!-- 4628141152 -->
<g id="node17" class="node">
<title>4628141152</title>
<ellipse fill="lightblue" stroke="black" cx="192.4" cy="-142.79" rx="20.6" ry="20.6"/>
<text text-anchor="middle" x="192.4" y="-139.09" font-family="Helvetica,sans-Serif" font-size="14.00">11</text>
</g>
<!-- 4628141296&#45;&gt;4628141152 -->
<g id="edge16" class="edge">
<title>4628141296&#45;&gt;4628141152</title>
<path fill="none" stroke="black" d="M230.29,-194.42C223.42,-185.23 214.74,-173.64 207.43,-163.87"/>
<polygon fill="black" stroke="black" points="208.79,-162.77 204.39,-159.81 205.99,-164.86 208.79,-162.77"/>
</g>
<!-- 846877 -->
<!-- 4628141296&#45;&gt;846877 -->
<!-- 575489 -->
<!-- 4628141296&#45;&gt;575489 -->
<!-- 4628151328 -->
<g id="node11" class="node">
<title>4628151328</title>
<ellipse fill="lightblue" stroke="black" cx="76.4" cy="-78.54" rx="18.7" ry="18.7"/>
<text text-anchor="middle" x="76.4" y="-74.84" font-family="Helvetica,sans-Serif" font-size="14.00">&#45;1</text>
</g>
<!-- 4628147632&#45;&gt;4628151328 -->
<g id="edge10" class="edge">
<title>4628147632&#45;&gt;4628151328</title>
<path fill="none" stroke="black" d="M113.75,-127.98C106.98,-119.2 98.14,-107.73 90.75,-98.16"/>
<polygon fill="black" stroke="black" points="92.13,-97.08 87.69,-94.19 89.36,-99.22 92.13,-97.08"/>
</g>
<!-- 378922 -->
<!-- 4628147632&#45;&gt;378922 -->
<!-- 4628140912 -->
<g id="node13" class="node">
<title>4628140912</title>
<ellipse fill="lightblue" stroke="black" cx="172.4" cy="-78.54" rx="18" ry="18"/>
<text text-anchor="middle" x="172.4" y="-74.84" font-family="Helvetica,sans-Serif" font-size="14.00">4</text>
</g>
<!-- 4628147632&#45;&gt;4628140912 -->
<g id="edge12" class="edge">
<title>4628147632&#45;&gt;4628140912</title>
<path fill="none" stroke="black" d="M135.05,-127.98C142.01,-118.95 151.17,-107.08 158.67,-97.35"/>
<polygon fill="black" stroke="black" points="160.11,-98.35 161.77,-93.32 157.34,-96.21 160.11,-98.35"/>
</g>
<!-- 4628149552 -->
<g id="node14" class="node">
<title>4628149552</title>
<ellipse fill="lightblue" stroke="black" cx="28.4" cy="-18.85" rx="18.7" ry="18.7"/>
<text text-anchor="middle" x="28.4" y="-15.15" font-family="Helvetica,sans-Serif" font-size="14.00">&#45;2</text>
</g>
<!-- 4628151328&#45;&gt;4628149552 -->
<g id="edge13" class="edge">
<title>4628151328&#45;&gt;4628149552</title>
<path fill="none" stroke="black" d="M64.78,-63.58C58.39,-55.9 50.39,-46.28 43.51,-38.02"/>
<polygon fill="black" stroke="black" points="44.79,-36.81 40.24,-34.09 42.1,-39.05 44.79,-36.81"/>
</g>
<!-- 195222 -->
<!-- 4628151328&#45;&gt;195222 -->
<!-- 5718 -->
<!-- 4628151328&#45;&gt;5718 -->
</g>
</svg>
