<?xml version="1.0" encoding="UTF-8" standalone="no"?>
<!DOCTYPE svg PUBLIC "-//W3C//DTD SVG 1.1//EN"
 "http://www.w3.org/Graphics/SVG/1.1/DTD/svg11.dtd">
<!-- Generated by graphviz version 2.50.0 (0)
 -->
<!-- Pages: 1 -->
<svg width="590pt" height="304pt"
 viewBox="0.00 0.00 589.80 303.98" xmlns="http://www.w3.org/2000/svg" xmlns:xlink="http://www.w3.org/1999/xlink">
<g id="graph0" class="graph" transform="scale(1 1) rotate(0) translate(4 299.98)">
<polygon fill="white" stroke="transparent" points="-4,4 -4,-299.98 585.8,-299.98 585.8,4 -4,4"/>
<!-- 4574312784 -->
<g id="node1" class="node">
<title>4574312784</title>
<ellipse fill="lightblue" stroke="black" cx="267" cy="-275.18" rx="20.6" ry="20.6"/>
<text text-anchor="middle" x="267" y="-271.48" font-family="Helvetica,sans-Serif" font-size="14.00">14</text>
</g>
<!-- 4574308032 -->
<g id="node2" class="node">
<title>4574308032</title>
<ellipse fill="lightblue" stroke="black" cx="182" cy="-211.59" rx="20.6" ry="20.6"/>
<text text-anchor="middle" x="182" y="-207.89" font-family="Helvetica,sans-Serif" font-size="14.00">10</text>
</g>
<!-- 4574312784&#45;&gt;4574308032 -->
<g id="edge1" class="edge">
<title>4574312784&#45;&gt;4574308032</title>
<path fill="none" stroke="black" d="M250.61,-262.31C237.06,-252.49 217.72,-238.47 203.03,-227.83"/>
<polygon fill="black" stroke="black" points="203.7,-226.15 198.63,-224.64 201.65,-228.99 203.7,-226.15"/>
</g>
<!-- 222454 -->
<!-- 4574312784&#45;&gt;222454 -->
<!-- 4574312064 -->
<g id="node4" class="node">
<title>4574312064</title>
<ellipse fill="lightblue" stroke="black" cx="353" cy="-211.59" rx="20.6" ry="20.6"/>
<text text-anchor="middle" x="353" y="-207.89" font-family="Helvetica,sans-Serif" font-size="14.00">17</text>
</g>
<!-- 4574312784&#45;&gt;4574312064 -->
<g id="edge3" class="edge">
<title>4574312784&#45;&gt;4574312064</title>
<path fill="none" stroke="black" d="M283.58,-262.31C297.5,-252.34 317.45,-238.05 332.4,-227.34"/>
<polygon fill="black" stroke="black" points="333.42,-228.76 336.47,-224.43 331.39,-225.92 333.42,-228.76"/>
</g>
<!-- 4574334800 -->
<g id="node5" class="node">
<title>4574334800</title>
<ellipse fill="lightblue" stroke="black" cx="66" cy="-147.99" rx="18" ry="18"/>
<text text-anchor="middle" x="66" y="-144.29" font-family="Helvetica,sans-Serif" font-size="14.00">1</text>
</g>
<!-- 4574308032&#45;&gt;4574334800 -->
<g id="edge4" class="edge">
<title>4574308032&#45;&gt;4574334800</title>
<path fill="none" stroke="black" d="M163.88,-200.96C142.82,-189.78 108.16,-171.38 86.24,-159.74"/>
<polygon fill="black" stroke="black" points="87,-158.16 81.76,-157.36 85.36,-161.25 87,-158.16"/>
</g>
<!-- 428767 -->
<!-- 4574308032&#45;&gt;428767 -->
<!-- 4574336288 -->
<g id="node7" class="node">
<title>4574336288</title>
<ellipse fill="lightblue" stroke="black" cx="232" cy="-147.99" rx="20.6" ry="20.6"/>
<text text-anchor="middle" x="232" y="-144.29" font-family="Helvetica,sans-Serif" font-size="14.00">12</text>
</g>
<!-- 4574308032&#45;&gt;4574336288 -->
<g id="edge6" class="edge">
<title>4574308032&#45;&gt;4574336288</title>
<path fill="none" stroke="black" d="M194.62,-195.04C201.08,-187.08 209.02,-177.3 215.92,-168.8"/>
<polygon fill="black" stroke="black" points="217.42,-169.73 219.21,-164.74 214.7,-167.52 217.42,-169.73"/>
</g>
<!-- 4574335472 -->
<g id="node17" class="node">
<title>4574335472</title>
<ellipse fill="lightblue" stroke="black" cx="303" cy="-147.99" rx="20.6" ry="20.6"/>
<text text-anchor="middle" x="303" y="-144.29" font-family="Helvetica,sans-Serif" font-size="14.00">15</text>
</g>
<!-- 4574312064&#45;&gt;4574335472 -->
<g id="edge16" class="edge">
<title>4574312064&#45;&gt;4574335472</title>
<path fill="none" stroke="black" d="M340.38,-195.04C333.92,-187.08 325.98,-177.3 319.08,-168.8"/>
<polygon fill="black" stroke="black" points="320.3,-167.52 315.79,-164.74 317.58,-169.73 320.3,-167.52"/>
</g>
<!-- 597437 -->
<!-- 4574312064&#45;&gt;597437 -->
<!-- 4574333696 -->
<g id="node19" class="node">
<title>4574333696</title>
<ellipse fill="lightblue" stroke="black" cx="403" cy="-147.99" rx="20.6" ry="20.6"/>
<text text-anchor="middle" x="403" y="-144.29" font-family="Helvetica,sans-Serif" font-size="14.00">21</text>
</g>
<!-- 4574312064&#45;&gt;4574333696 -->
<g id="edge18" class="edge">
<title>4574312064&#45;&gt;4574333696</title>
<path fill="none" stroke="black" d="M365.62,-195.04C372.08,-187.08 380.02,-177.3 386.92,-168.8"/>
<polygon fill="black" stroke="black" points="388.42,-169.73 390.21,-164.74 385.7,-167.52 388.42,-169.73"/>
</g>
<!-- 239431 -->
<!-- 4574334800&#45;&gt;239431 -->
<!-- 907888 -->
<!-- 4574334800&#45;&gt;907888 -->
<!-- 4574335328 -->
<g id="node10" class="node">
<title>4574335328</title>
<ellipse fill="lightblue" stroke="black" cx="114" cy="-84.39" rx="18" ry="18"/>
<text text-anchor="middle" x="114" y="-80.69" font-family="Helvetica,sans-Serif" font-size="14.00">4</text>
</g>
<!-- 4574334800&#45;&gt;4574335328 -->
<g id="edge9" class="edge">
<title>4574334800&#45;&gt;4574335328</title>
<path fill="none" stroke="black" d="M76.65,-133.32C83.61,-124.39 92.77,-112.64 100.27,-103.01"/>
<polygon fill="black" stroke="black" points="101.68,-104.05 103.38,-99.03 98.92,-101.89 101.68,-104.05"/>
</g>
<!-- 4574335280 -->
<g id="node14" class="node">
<title>4574335280</title>
<ellipse fill="lightblue" stroke="black" cx="182" cy="-84.39" rx="20.6" ry="20.6"/>
<text text-anchor="middle" x="182" y="-80.69" font-family="Helvetica,sans-Serif" font-size="14.00">11</text>
</g>
<!-- 4574336288&#45;&gt;4574335280 -->
<g id="edge13" class="edge">
<title>4574336288&#45;&gt;4574335280</title>
<path fill="none" stroke="black" d="M219.38,-131.45C212.92,-123.48 204.98,-113.7 198.08,-105.2"/>
<polygon fill="black" stroke="black" points="199.3,-103.93 194.79,-101.15 196.58,-106.13 199.3,-103.93"/>
</g>
<!-- 613203 -->
<!-- 4574336288&#45;&gt;613203 -->
<!-- 242912 -->
<!-- 4574336288&#45;&gt;242912 -->
<!-- 4574331968 -->
<g id="node11" class="node">
<title>4574331968</title>
<ellipse fill="lightblue" stroke="black" cx="66" cy="-20.8" rx="18" ry="18"/>
<text text-anchor="middle" x="66" y="-17.1" font-family="Helvetica,sans-Serif" font-size="14.00">2</text>
</g>
<!-- 4574335328&#45;&gt;4574331968 -->
<g id="edge10" class="edge">
<title>4574335328&#45;&gt;4574331968</title>
<path fill="none" stroke="black" d="M103.35,-69.72C96.39,-60.79 87.23,-49.04 79.73,-39.41"/>
<polygon fill="black" stroke="black" points="81.08,-38.3 76.62,-35.43 78.32,-40.45 81.08,-38.3"/>
</g>
<!-- 988100 -->
<!-- 4574335328&#45;&gt;988100 -->
<!-- 4574331344 -->
<g id="node13" class="node">
<title>4574331344</title>
<ellipse fill="lightblue" stroke="black" cx="162" cy="-20.8" rx="18" ry="18"/>
<text text-anchor="middle" x="162" y="-17.1" font-family="Helvetica,sans-Serif" font-size="14.00">6</text>
</g>
<!-- 4574335328&#45;&gt;4574331344 -->
<g id="edge12" class="edge">
<title>4574335328&#45;&gt;4574331344</title>
<path fill="none" stroke="black" d="M124.65,-69.72C131.61,-60.79 140.77,-49.04 148.27,-39.41"/>
<polygon fill="black" stroke="black" points="149.68,-40.45 151.38,-35.43 146.92,-38.3 149.68,-40.45"/>
</g>
<!-- 4574334368 -->
<g id="node20" class="node">
<title>4574334368</title>
<ellipse fill="lightblue" stroke="black" cx="350" cy="-84.39" rx="20.6" ry="20.6"/>
<text text-anchor="middle" x="350" y="-80.69" font-family="Helvetica,sans-Serif" font-size="14.00">20</text>
</g>
<!-- 4574333696&#45;&gt;4574334368 -->
<g id="edge19" class="edge">
<title>4574333696&#45;&gt;4574334368</title>
<path fill="none" stroke="black" d="M389.9,-131.76C382.94,-123.68 374.32,-113.66 366.87,-105"/>
<polygon fill="black" stroke="black" points="367.91,-103.52 363.32,-100.87 365.25,-105.8 367.91,-103.52"/>
</g>
<!-- 354342 -->
<!-- 4574333696&#45;&gt;354342 -->
<!-- 4574332304 -->
<g id="node22" class="node">
<title>4574332304</title>
<ellipse fill="lightblue" stroke="black" cx="511" cy="-84.39" rx="20.6" ry="20.6"/>
<text text-anchor="middle" x="511" y="-80.69" font-family="Helvetica,sans-Serif" font-size="14.00">27</text>
</g>
<!-- 4574333696&#45;&gt;4574332304 -->
<g id="edge21" class="edge">
<title>4574333696&#45;&gt;4574332304</title>
<path fill="none" stroke="black" d="M420.83,-136.82C439.44,-126.21 468.64,-109.55 488.74,-98.09"/>
<polygon fill="black" stroke="black" points="489.66,-99.58 493.14,-95.58 487.93,-96.54 489.66,-99.58"/>
</g>
<!-- 4574335856 -->
<g id="node23" class="node">
<title>4574335856</title>
<ellipse fill="lightblue" stroke="black" cx="300" cy="-20.8" rx="20.6" ry="20.6"/>
<text text-anchor="middle" x="300" y="-17.1" font-family="Helvetica,sans-Serif" font-size="14.00">19</text>
</g>
<!-- 4574334368&#45;&gt;4574335856 -->
<g id="edge22" class="edge">
<title>4574334368&#45;&gt;4574335856</title>
<path fill="none" stroke="black" d="M337.38,-67.85C330.92,-59.89 322.98,-50.1 316.08,-41.61"/>
<polygon fill="black" stroke="black" points="317.3,-40.33 312.79,-37.55 314.58,-42.54 317.3,-40.33"/>
</g>
<!-- 100157 -->
<!-- 4574334368&#45;&gt;100157 -->
<!-- 527626 -->
<!-- 4574334368&#45;&gt;527626 -->
<!-- 881998 -->
<!-- 4574332304&#45;&gt;881998 -->
<!-- 920799 -->
<!-- 4574332304&#45;&gt;920799 -->
<!-- 4574335040 -->
<g id="node28" class="node">
<title>4574335040</title>
<ellipse fill="lightblue" stroke="black" cx="561" cy="-20.8" rx="20.6" ry="20.6"/>
<text text-anchor="middle" x="561" y="-17.1" font-family="Helvetica,sans-Serif" font-size="14.00">29</text>
</g>
<!-- 4574332304&#45;&gt;4574335040 -->
<g id="edge27" class="edge">
<title>4574332304&#45;&gt;4574335040</title>
<path fill="none" stroke="black" d="M523.62,-67.85C530.08,-59.89 538.02,-50.1 544.92,-41.61"/>
<polygon fill="black" stroke="black" points="546.42,-42.54 548.21,-37.55 543.7,-40.33 546.42,-42.54"/>
</g>
</g>
</svg>
