<?xml version="1.0" encoding="UTF-8" standalone="no"?>
<!DOCTYPE svg PUBLIC "-//W3C//DTD SVG 1.1//EN"
 "http://www.w3.org/Graphics/SVG/1.1/DTD/svg11.dtd">
<!-- Generated by graphviz version 2.50.0 (0)
 -->
<!-- Pages: 1 -->
<svg width="527pt" height="218pt"
 viewBox="0.00 0.00 527.00 218.00" xmlns="http://www.w3.org/2000/svg" xmlns:xlink="http://www.w3.org/1999/xlink">
<g id="graph0" class="graph" transform="scale(1 1) rotate(0) translate(4 214)">
<polygon fill="white" stroke="transparent" points="-4,4 -4,-214 523,-214 523,4 -4,4"/>
<!-- 4636204096 -->
<g id="node1" class="node">
<title>4636204096</title>
<ellipse fill="bisque" stroke="black" cx="154" cy="-192" rx="27" ry="18"/>
<text text-anchor="middle" x="154" y="-188.9" font-family="Helvetica,sans-Serif" font-size="12.00">html</text>
</g>
<!-- 4636197040 -->
<g id="node2" class="node">
<title>4636197040</title>
<ellipse fill="bisque" stroke="black" cx="110" cy="-134" rx="27.17" ry="18"/>
<text text-anchor="middle" x="110" y="-130.9" font-family="Helvetica,sans-Serif" font-size="12.00">head</text>
</g>
<!-- 4636204096&#45;&gt;4636197040 -->
<g id="edge1" class="edge">
<title>4636204096&#45;&gt;4636197040</title>
<path fill="none" stroke="black" d="M141.98,-175.7C136.84,-169.15 130.77,-161.44 125.31,-154.49"/>
<polygon fill="black" stroke="black" points="126.47,-153.13 122.01,-150.28 123.72,-155.3 126.47,-153.13"/>
</g>
<!-- 4636201312 -->
<g id="node3" class="node">
<title>4636201312</title>
<ellipse fill="bisque" stroke="black" cx="199" cy="-134" rx="27" ry="18"/>
<text text-anchor="middle" x="199" y="-130.9" font-family="Helvetica,sans-Serif" font-size="12.00">body</text>
</g>
<!-- 4636204096&#45;&gt;4636201312 -->
<g id="edge2" class="edge">
<title>4636204096&#45;&gt;4636201312</title>
<path fill="none" stroke="black" d="M166.3,-175.7C171.55,-169.15 177.76,-161.44 183.34,-154.49"/>
<polygon fill="black" stroke="black" points="184.95,-155.28 186.72,-150.28 182.22,-153.09 184.95,-155.28"/>
</g>
<!-- 4636204384 -->
<g id="node4" class="node">
<title>4636204384</title>
<ellipse fill="bisque" stroke="black" cx="27" cy="-76" rx="27" ry="18"/>
<text text-anchor="middle" x="27" y="-72.9" font-family="Helvetica,sans-Serif" font-size="12.00">meta</text>
</g>
<!-- 4636197040&#45;&gt;4636204384 -->
<g id="edge3" class="edge">
<title>4636197040&#45;&gt;4636204384</title>
<path fill="none" stroke="black" d="M91.58,-120.57C79.22,-112.23 62.86,-101.2 49.7,-92.32"/>
<polygon fill="black" stroke="black" points="50.49,-90.74 45.37,-89.39 48.53,-93.64 50.49,-90.74"/>
</g>
<!-- 4636204768 -->
<g id="node5" class="node">
<title>4636204768</title>
<ellipse fill="bisque" stroke="black" cx="110" cy="-76" rx="27" ry="18"/>
<text text-anchor="middle" x="110" y="-72.9" font-family="Helvetica,sans-Serif" font-size="12.00">title</text>
</g>
<!-- 4636197040&#45;&gt;4636204768 -->
<g id="edge4" class="edge">
<title>4636197040&#45;&gt;4636204768</title>
<path fill="none" stroke="black" d="M110,-115.89C110,-110.57 110,-104.63 110,-99.03"/>
<polygon fill="black" stroke="black" points="111.75,-99 110,-94 108.25,-99 111.75,-99"/>
</g>
<!-- 4636197472 -->
<g id="node6" class="node">
<title>4636197472</title>
<ellipse fill="bisque" stroke="black" cx="199" cy="-76" rx="33.49" ry="18"/>
<text text-anchor="middle" x="199" y="-72.9" font-family="Helvetica,sans-Serif" font-size="12.00">header</text>
</g>
<!-- 4636201312&#45;&gt;4636197472 -->
<g id="edge5" class="edge">
<title>4636201312&#45;&gt;4636197472</title>
<path fill="none" stroke="black" d="M199,-115.89C199,-110.57 199,-104.63 199,-99.03"/>
<polygon fill="black" stroke="black" points="200.75,-99 199,-94 197.25,-99 200.75,-99"/>
</g>
<!-- 4636200784 -->
<g id="node7" class="node">
<title>4636200784</title>
<ellipse fill="bisque" stroke="black" cx="326" cy="-76" rx="27" ry="18"/>
<text text-anchor="middle" x="326" y="-72.9" font-family="Helvetica,sans-Serif" font-size="12.00">div</text>
</g>
<!-- 4636201312&#45;&gt;4636200784 -->
<g id="edge6" class="edge">
<title>4636201312&#45;&gt;4636200784</title>
<path fill="none" stroke="black" d="M220.83,-123.37C242.55,-113.8 275.91,-99.09 299.21,-88.81"/>
<polygon fill="black" stroke="black" points="300.16,-90.31 304.03,-86.69 298.75,-87.1 300.16,-90.31"/>
</g>
<!-- 4636198816 -->
<g id="node8" class="node">
<title>4636198816</title>
<ellipse fill="bisque" stroke="black" cx="160" cy="-18" rx="27" ry="18"/>
<text text-anchor="middle" x="160" y="-14.9" font-family="Helvetica,sans-Serif" font-size="12.00">h1</text>
</g>
<!-- 4636197472&#45;&gt;4636198816 -->
<g id="edge7" class="edge">
<title>4636197472&#45;&gt;4636198816</title>
<path fill="none" stroke="black" d="M187.72,-58.8C183.41,-52.61 178.44,-45.47 173.9,-38.97"/>
<polygon fill="black" stroke="black" points="175.15,-37.69 170.85,-34.58 172.27,-39.69 175.15,-37.69"/>
</g>
<!-- 4636197136 -->
<g id="node9" class="node">
<title>4636197136</title>
<ellipse fill="bisque" stroke="black" cx="243" cy="-18" rx="27" ry="18"/>
<text text-anchor="middle" x="243" y="-14.9" font-family="Helvetica,sans-Serif" font-size="12.00">h2</text>
</g>
<!-- 4636200784&#45;&gt;4636197136 -->
<g id="edge8" class="edge">
<title>4636200784&#45;&gt;4636197136</title>
<path fill="none" stroke="black" d="M307.58,-62.57C295.22,-54.23 278.86,-43.2 265.7,-34.32"/>
<polygon fill="black" stroke="black" points="266.49,-32.74 261.37,-31.39 264.53,-35.64 266.49,-32.74"/>
</g>
<!-- 4636197184 -->
<g id="node10" class="node">
<title>4636197184</title>
<ellipse fill="bisque" stroke="black" cx="326" cy="-18" rx="27" ry="18"/>
<text text-anchor="middle" x="326" y="-14.9" font-family="Helvetica,sans-Serif" font-size="12.00">p</text>
</g>
<!-- 4636200784&#45;&gt;4636197184 -->
<g id="edge9" class="edge">
<title>4636200784&#45;&gt;4636197184</title>
<path fill="none" stroke="black" d="M326,-57.89C326,-52.57 326,-46.63 326,-41.03"/>
<polygon fill="black" stroke="black" points="327.75,-41 326,-36 324.25,-41 327.75,-41"/>
</g>
<!-- 4636197328 -->
<g id="node11" class="node">
<title>4636197328</title>
<ellipse fill="bisque" stroke="black" cx="409" cy="-18" rx="27" ry="18"/>
<text text-anchor="middle" x="409" y="-14.9" font-family="Helvetica,sans-Serif" font-size="12.00">p</text>
</g>
<!-- 4636200784&#45;&gt;4636197328 -->
<g id="edge10" class="edge">
<title>4636200784&#45;&gt;4636197328</title>
<path fill="none" stroke="black" d="M344.42,-62.57C356.78,-54.23 373.14,-43.2 386.3,-34.32"/>
<polygon fill="black" stroke="black" points="387.47,-35.64 390.63,-31.39 385.51,-32.74 387.47,-35.64"/>
</g>
<!-- 4636197376 -->
<g id="node12" class="node">
<title>4636197376</title>
<ellipse fill="bisque" stroke="black" cx="492" cy="-18" rx="27" ry="18"/>
<text text-anchor="middle" x="492" y="-14.9" font-family="Helvetica,sans-Serif" font-size="12.00">p</text>
</g>
<!-- 4636200784&#45;&gt;4636197376 -->
<g id="edge11" class="edge">
<title>4636200784&#45;&gt;4636197376</title>
<path fill="none" stroke="black" d="M349.78,-66.98C379.82,-56.84 431.45,-39.42 463.55,-28.6"/>
<polygon fill="black" stroke="black" points="464.35,-30.17 468.53,-26.92 463.23,-26.86 464.35,-30.17"/>
</g>
</g>
</svg>
