<?xml version="1.0" encoding="UTF-8" standalone="no"?>
<!DOCTYPE svg PUBLIC "-//W3C//DTD SVG 1.1//EN"
 "http://www.w3.org/Graphics/SVG/1.1/DTD/svg11.dtd">
<!-- Generated by graphviz version 2.50.0 (0)
 -->
<!-- Pages: 1 -->
<svg width="412pt" height="188pt"
 viewBox="0.00 0.00 412.14 188.00" xmlns="http://www.w3.org/2000/svg" xmlns:xlink="http://www.w3.org/1999/xlink">
<g id="graph0" class="graph" transform="scale(1 1) rotate(0) translate(4 184)">
<polygon fill="white" stroke="transparent" points="-4,4 -4,-184 408.14,-184 408.14,4 -4,4"/>
<!-- 4613338560 -->
<g id="node1" class="node">
<title>4613338560</title>
<ellipse fill="none" stroke="black" cx="226.5" cy="-90" rx="27" ry="18"/>
<text text-anchor="middle" x="226.5" y="-86.3" font-family="Times,serif" font-size="14.00">Affe</text>
</g>
<!-- 4613331600 -->
<g id="node2" class="node">
<title>4613331600</title>
<ellipse fill="none" stroke="black" cx="226.5" cy="-18" rx="53.89" ry="18"/>
<text text-anchor="middle" x="226.5" y="-14.3" font-family="Times,serif" font-size="14.00">Schimpanse</text>
</g>
<!-- 4613338560&#45;&gt;4613331600 -->
<g id="edge5" class="edge">
<title>4613338560&#45;&gt;4613331600</title>
<path fill="none" stroke="black" d="M226.5,-71.7C226.5,-63.98 226.5,-54.71 226.5,-46.11"/>
<polygon fill="black" stroke="black" points="230,-46.1 226.5,-36.1 223,-46.1 230,-46.1"/>
</g>
<!-- 4613339280 -->
<g id="node4" class="node">
<title>4613339280</title>
<ellipse fill="none" stroke="black" cx="351.5" cy="-18" rx="52.79" ry="18"/>
<text text-anchor="middle" x="351.5" y="-14.3" font-family="Times,serif" font-size="14.00">Orang&#45;Utan</text>
</g>
<!-- 4613338560&#45;&gt;4613339280 -->
<g id="edge6" class="edge">
<title>4613338560&#45;&gt;4613339280</title>
<path fill="none" stroke="black" d="M246.58,-77.75C265.26,-67.29 293.52,-51.47 316,-38.88"/>
<polygon fill="black" stroke="black" points="317.91,-41.82 324.93,-33.88 314.49,-35.71 317.91,-41.82"/>
</g>
<!-- 4613336736 -->
<g id="node3" class="node">
<title>4613336736</title>
<ellipse fill="none" stroke="black" cx="118.5" cy="-90" rx="30.59" ry="18"/>
<text text-anchor="middle" x="118.5" y="-86.3" font-family="Times,serif" font-size="14.00">Hund</text>
</g>
<!-- 4613334912 -->
<g id="node6" class="node">
<title>4613334912</title>
<ellipse fill="none" stroke="black" cx="118.5" cy="-18" rx="36" ry="18"/>
<text text-anchor="middle" x="118.5" y="-14.3" font-family="Times,serif" font-size="14.00">Dackel</text>
</g>
<!-- 4613336736&#45;&gt;4613334912 -->
<g id="edge4" class="edge">
<title>4613336736&#45;&gt;4613334912</title>
<path fill="none" stroke="black" d="M118.5,-71.7C118.5,-63.98 118.5,-54.71 118.5,-46.11"/>
<polygon fill="black" stroke="black" points="122,-46.1 118.5,-36.1 115,-46.1 122,-46.1"/>
</g>
<!-- 4613329344 -->
<g id="node7" class="node">
<title>4613329344</title>
<ellipse fill="none" stroke="black" cx="32.5" cy="-18" rx="32.49" ry="18"/>
<text text-anchor="middle" x="32.5" y="-14.3" font-family="Times,serif" font-size="14.00">Collie</text>
</g>
<!-- 4613336736&#45;&gt;4613329344 -->
<g id="edge3" class="edge">
<title>4613336736&#45;&gt;4613329344</title>
<path fill="none" stroke="black" d="M101.09,-74.83C88.7,-64.75 71.85,-51.03 57.96,-39.72"/>
<polygon fill="black" stroke="black" points="60.13,-36.98 50.17,-33.38 55.72,-42.41 60.13,-36.98"/>
</g>
<!-- 4613335248 -->
<g id="node5" class="node">
<title>4613335248</title>
<ellipse fill="none" stroke="black" cx="172.5" cy="-162" rx="44.39" ry="18"/>
<text text-anchor="middle" x="172.5" y="-158.3" font-family="Times,serif" font-size="14.00">Säugetier</text>
</g>
<!-- 4613335248&#45;&gt;4613338560 -->
<g id="edge2" class="edge">
<title>4613335248&#45;&gt;4613338560</title>
<path fill="none" stroke="black" d="M185.29,-144.41C192.15,-135.53 200.7,-124.44 208.24,-114.67"/>
<polygon fill="black" stroke="black" points="211.19,-116.57 214.53,-106.51 205.65,-112.29 211.19,-116.57"/>
</g>
<!-- 4613335248&#45;&gt;4613336736 -->
<g id="edge1" class="edge">
<title>4613335248&#45;&gt;4613336736</title>
<path fill="none" stroke="black" d="M159.7,-144.41C152.95,-135.66 144.53,-124.75 137.07,-115.08"/>
<polygon fill="black" stroke="black" points="139.71,-112.77 130.83,-106.99 134.17,-117.04 139.71,-112.77"/>
</g>
</g>
</svg>
